<?xml version="1.0" encoding="UTF-8"?><svg id="a" xmlns="http://www.w3.org/2000/svg" viewBox="0 0 24 24"><rect width="24" height="24" fill="none"/><g><g><g><path d="M12,20.82V4.1H5.12V14.58c0,3.57,3.08,6.33,6.88,6.33v-.08Z" fill="#171714"/><g><path d="M11.91,10.36c-.15-.02-.31-.08-.43-.18-.15-.1-.34-.15-.53-.15h0c-.19,0-.38,.05-.54,.16-.19,.13-.42,.2-.65,.2-.23,0-.46-.06-.65-.2-.15-.1-.34-.15-.53-.15-.2,0-.38,.05-.54,.16-.18,.13-.39,.2-.62,.2h-.07c-.22,0-.44-.07-.62-.2-.16-.1-.34-.15-.53-.15h0c-.19,0-.37,.05-.53,.16-.13,.1-.26,.16-.43,.17v1.03c.13-.01,.2-.05,.31-.13,.2-.13,.42-.19,.65-.19h0c.23,0,.45,.07,.65,.19,.16,.11,.35,.18,.53,.16,.2,.01,.38-.05,.54-.16,.4-.25,.91-.25,1.31,0,.15,.11,.33,.16,.5,.16h.06c.18,0,.36-.06,.51-.16,.4-.25,.91-.25,1.31,0,.09,.07,.2,.11,.31,.13v-1.02Z" fill="#fff"/><path d="M11.9,12.84c-.15-.02-.3-.08-.43-.18-.15-.1-.32-.15-.51-.15-.01,0-.02,0-.04,0-.19,0-.37,.05-.52,.16-.18,.13-.4,.2-.62,.2h-.07c-.22,0-.44-.07-.62-.2-.15-.1-.33-.15-.51-.15h-.04c-.19,0-.36,.05-.52,.16-.19,.13-.41,.2-.66,.2-.22,0-.46-.06-.65-.2-.16-.1-.34-.15-.53-.15h-.03c-.19,0-.36,.05-.51,.15-.14,.1-.26,.16-.43,.17v1.02c.15-.02,.24-.06,.36-.15,.18-.11,.38-.17,.59-.17,.21,0,.42,.05,.59,.17,.18,.12,.38,.18,.59,.17,.21,0,.42-.05,.59-.17,.18-.11,.38-.17,.59-.17,.21,0,.42,.05,.59,.17,.18,.12,.38,.18,.59,.17,.21,0,.42-.05,.59-.17,.37-.22,.82-.22,1.19,0,.11,.08,.24,.13,.37,.15v-1.02Z" fill="#fff"/><path d="M10.41,11.43c-.18,.13-.4,.2-.62,.2h-.07c-.22,0-.44-.07-.62-.2-.32-.2-.74-.21-1.07,0-.19,.13-.42,.19-.65,.2-.22,0-.46-.06-.65-.2-.16-.1-.34-.15-.53-.15h0c-.19,0-.37,.05-.53,.16-.13,.1-.26,.16-.43,.17v1.03c.13-.01,.21-.05,.31-.13,.2-.13,.42-.19,.66-.19h0c.23,0,.45,.07,.64,.19,.16,.11,.35,.18,.53,.16,.2,.02,.38-.05,.54-.16,.2-.13,.43-.19,.66-.19h.03c.22,0,.44,.07,.62,.19,.15,.11,.32,.16,.5,.16h.06c.18,0,.36-.06,.51-.16,.2-.13,.42-.2,.66-.19h.03c.22,0,.44,.07,.63,.19,.09,.07,.2,.11,.3,.13v-1.02c-.15-.02-.3-.08-.43-.18-.32-.2-.74-.2-1.07,0Z" fill="#fff"/></g><path d="M12,20.9c3.8,0,6.88-2.92,6.88-6.52V4.13h-6.88V20.9Z" fill="#2673bd"/></g><path d="M17.03,8.83l.4,1.07h1.06l-.84,.6,.32,1.03-.94-.6-.93,.6,.32-1.02-.84-.6h1.05l.4-1.08Zm-3.25,0l.4,1.07h1.06l-.84,.6,.32,1.03-.94-.6-.93,.6,.34-1.05-.84-.6h1.06l.37-1.05Zm1.63,2.86l.39,1.07h1.06l-.84,.6,.32,1.03-.93-.6-.94,.6,.33-1.03-.84-.6h1.05l.4-1.07Z" fill="#fff"/></g><path d="M11.99,21c-1.95,0-3.89-.78-5.19-2.1-1.18-1.19-1.81-2.77-1.8-4.56V4h14V14.34c0,4.54-4.18,6.66-7.01,6.66ZM5.42,4.42V14.34c0,1.68,.58,3.15,1.68,4.26,1.22,1.24,3.05,1.98,4.89,1.98,2.66,0,6.59-1.98,6.59-6.24V4.42H5.42Z" fill="#171714"/></g></svg>