<?xml version="1.0" encoding="UTF-8"?><svg id="a" xmlns="http://www.w3.org/2000/svg" viewBox="0 0 24 24"><rect width="24" height="24" fill="none"/><polygon points="20.5 16.5 18 16 18.5 14.5 16 14 15 13 14 13 13.5 13.33 13.5 14.54 14.3 14 14.59 14 15.29 14.71 15.51 14.92 15.8 14.98 17.19 15.26 17.05 15.68 16.69 16.76 17.8 16.98 18.82 17.18 18.64 17.54 18.4 18 18 18 17.88 18 17.76 18.03 15.76 18.53 15.38 18.62 15.17 18.95 14.75 19.57 13.6 18.7 13.24 18.43 12.8 18.52 8.24 19.43 6.6 18.2 6.22 17.91 5.76 18.03 4.44 18.36 4.39 18.28 6.55 16.83 7.57 16.16 6.85 15.44 7.92 15.08 8.55 15.39 9 15.62 9.45 15.39 10.24 15 10.5 15 10.5 14 10 14 9 14.5 8 14 5 15 6 16 3 18 4 19.5 6 19 8 20.5 13 19.5 15 21 16 19.5 18 19 19 19 19.52 18 21 18 20.5 16.5" fill="#2f3541"/><path d="M18,10V6h-5.5v-1h-1v11.08c-.29,.09-.5,.24-.5,.42,0,.28,.45,.5,1,.5s1-.22,1-.5c0-.18-.21-.34-.5-.42v-6.08h5.5Zm-5.5-3h4.5v2h-4.5v-2Z" fill="#2f3541"/></svg>