<?xml version="1.0" encoding="UTF-8"?><svg id="a" xmlns="http://www.w3.org/2000/svg" viewBox="0 0 24 24"><rect y="0" width="24" height="24" fill="none"/><path d="M15.61,5.79l-6.48-3.16c-.32-.16-.61-.16-.84-.05L2.64,5.31c.23-.11,.53-.1,.84,.05l6.48,3.16c.76,.37,1.37,1.42,1.36,2.35v.06l5.65-2.73v-.06c0-.93-.6-1.98-1.36-2.35Z" fill="#2f3541" opacity=".2"/><path d="M19.09,9.24l-2.12-1.04-5.65,2.73,2.12,1.04c1.56,.76,2.82,2.95,2.81,4.88l-.02,4.37,5.65-2.73,.02-4.37c.01-1.94-1.25-4.12-2.81-4.88Z" fill="#2f3541" opacity=".2"/><path d="M13.45,11.97c1.56,.76,2.82,2.95,2.81,4.88l-.02,4.37-1.56-.76c-.28,.64-.91,.88-1.63,.52s-1.34-1.2-1.61-2.1l-.15-.07-.71-.35-4.4-2.15c-.28,.64-.9,.88-1.63,.52s-1.34-1.2-1.61-2.1l-.86-.42,.04-7.93c0-.93,.62-1.39,1.37-1.02l6.48,3.16c.76,.37,1.37,1.42,1.36,2.35v.06l2.12,1.04Zm-2.83-1.38v-.06c0-.44-.29-.96-.66-1.13L3.48,6.23c-.36-.17-.66,.05-.66,.49l-.04,7.06c0-1.2,.81-1.79,1.78-1.32s1.77,1.84,1.76,3.04l4.25,2.07,.04-7m4.55,4.2c-.38-.85-1.01-1.59-1.72-1.94l-2.12-1.04-.03,6.11c0-1.2,.8-1.79,1.78-1.32s1.77,1.84,1.76,3.04l.71,.35m0,0l.02-3.49c0-.57-.14-1.17-.39-1.72m-10.62,1.17c.59,.29,1.07-.07,1.07-.8s-.47-1.54-1.06-1.83-1.07,.06-1.07,.79,.47,1.55,1.06,1.83m8.5,4.14c.59,.29,1.07-.07,1.07-.8s-.47-1.54-1.06-1.83-1.06,.07-1.07,.79,.47,1.55,1.05,1.83" fill="#2f3541"/><path d="M6.17,16.31c-.07,.15-.15,.27-.25,.38-.03,.03-.07,.05-.11,.08-.06,.05-.11,.1-.18,.13l.88-.42-.34-.17Z" fill="#2f3541" opacity=".2"/><path d="M14.67,20.45c-.07,.15-.15,.27-.25,.38-.03,.03-.07,.05-.11,.08-.06,.05-.11,.1-.17,.13l.87-.42-.34-.17Z" fill="#2f3541" opacity=".2"/></svg>