<?xml version="1.0" encoding="UTF-8"?><svg id="a" xmlns="http://www.w3.org/2000/svg" viewBox="0 0 24 24"><rect width="24" height="24" fill="none"/><rect width="24" height="24" fill="none"/><rect x="0" width="24" height="24" transform="translate(24 0) rotate(90)" fill="none"/><rect width="24" height="24" transform="translate(24) rotate(90)" fill="none"/><rect id="c" width="24" height="24" fill="none"/><rect width="24" height="24" fill="none"/><polygon points="9.59 12 7 9.41 7 10.5 2 10.5 2 13.5 7 13.5 7 14.59 9.59 12" fill="none"/><polygon points="8 4 8 7.59 9 8.59 9 5 17 5 17 19 9 19 9 15.41 8 16.41 8 20 18 20 18 4 8 4" fill="#fff"/><path d="m6,7v2.5H1v5h5v2.5l5-5-5-5Zm1,7.59v-1.09H2v-3h5v-1.09l2.59,2.59-2.59,2.59Z" fill="#fff"/></svg>