<?xml version="1.0" encoding="UTF-8"?><svg id="a" xmlns="http://www.w3.org/2000/svg" viewBox="0 0 24 24"><path d="M4,4V20H20V4H4Zm15,3.72h-2.72v-2.72h2.72v2.72Zm-6.5,0v-2.72h2.78v2.72h-2.78Zm2.78,1v2.78h-2.78v-2.78h2.78Zm-3.78-1h-2.78v-2.72h2.78v2.72Zm0,1v2.78h-2.78v-2.78h2.78Zm0,3.78v2.78h-2.78v-2.78h2.78Zm0,3.78v2.72h-2.78v-2.72h2.78Zm1,0h2.78v2.72h-2.78v-2.72Zm0-1v-2.78h2.78v2.78h-2.78Zm3.78-2.78h2.72v2.78h-2.72v-2.78Zm0-1v-2.78h2.72v2.78h-2.72ZM5,5h2.72v2.72h-2.72v-2.72Zm0,3.72h2.72v2.78h-2.72v-2.78Zm0,3.78h2.72v2.78h-2.72v-2.78Zm0,3.78h2.72v2.72h-2.72v-2.72Zm11.28,2.72v-2.72h2.72v2.72h-2.72Z" fill="#2f3541"/><path id="b" d="M24,24H0V0H24" fill="none"/></svg>