<?xml version="1.0" encoding="UTF-8"?><svg id="a" xmlns="http://www.w3.org/2000/svg" viewBox="0 0 24 24"><rect x="0" y="0" width="24" height="24" fill="none"/><g><circle cx="14" cy="10" r="1" fill="#fff"/><circle cx="10" cy="10" r="1" fill="#fff"/><path d="M12,15.5c-1.38,0-2.5-1.12-2.5-2.5h-1c0,1.93,1.57,3.5,3.5,3.5s3.5-1.57,3.5-3.5h-1c0,1.38-1.12,2.5-2.5,2.5Z" fill="#fff"/><path d="M19.6,9.51c-1.05-3.2-4.05-5.51-7.6-5.51-3.74,0-6.86,2.56-7.74,6.02-1.26,.12-2.26,1.18-2.26,2.48,0,1.38,1.12,2.5,2.5,2.5,.03,0,.06,0,.08,0,1.19,2.93,4.06,5.01,7.42,5.01,3.55,0,6.55-2.31,7.6-5.51,1.33-.05,2.4-1.14,2.4-2.49s-1.07-2.44-2.4-2.49Zm-.04,3.98l-.69,.03-.22,.66c-.94,2.88-3.62,4.82-6.65,4.82-2.87,0-5.41-1.72-6.49-4.38l-.26-.65-.7,.02s-.06,0-.1,0c-.81-.02-1.45-.69-1.45-1.5,0-.77,.58-1.4,1.35-1.48l.7-.07,.17-.68c.79-3.1,3.58-5.27,6.77-5.27,3.03,0,5.7,1.94,6.65,4.82l.22,.66,.69,.03c.81,.03,1.44,.69,1.44,1.49s-.63,1.46-1.44,1.49Z" fill="#fff"/></g></svg>