<?xml version="1.0" encoding="UTF-8"?><svg id="a" xmlns="http://www.w3.org/2000/svg" viewBox="0 0 24 24"><rect x="0" y="0" width="24" height="24" fill="none"/><path d="m18.29,11.65l2.02-1.49c.28-.21.28-.76,0-1.24l-1.99-3.46c-.14-.24-.32-.41-.5-.5-.15-.08-.31-.09-.44-.03l-3.12,1.51v-1.6c.01-.48-.31-1.03-.69-1.22l-2.84-1.38c-.16-.08-.32-.08-.44-.03l-5.65,2.73s.07-.01.11-.02c.02,0,.05-.01.07-.01.08,0,.17.02.26.06l2.84,1.38c.39.19.71.74.7,1.22l-.02,3.49c0,.49-.32.73-.71.54l-1.28-.63-2,.96s.07-.01.11-.02c.02,0,.05-.01.07-.01.08,0,.17.02.26.06l2.84,1.38c.39.19.71.74.7,1.22l-.02,3.49c0,.13-.03.24-.07.33-.01.03-.04.05-.05.07-.04.05-.07.1-.12.13,0,0-.01.02-.02.02l1.69-.82v-2.54c.02-.48.34-.72.73-.53l2.8,1.37h.03c.4.21.71.75.71,1.23l-.02,3.49c0,.13-.03.24-.07.33-.01.03-.04.05-.05.07-.04.05-.07.1-.12.13,0,0-.01.02-.02.02l5.65-2.73c.16-.08.27-.27.27-.55l.02-3.49c0-.48-.31-1.03-.71-1.22l-2.22-1.08,1.26-.61s.04-.02.06-.03Zm-3.45.84h0c-.02.16-.08.3-.19.39l-2.01,1.49c-.14.1-.32.1-.5,0-.18-.09-.36-.26-.5-.5l-1.99-3.45c-.27-.48-.27-1.03,0-1.24l2.02-1.5c.14-.1.32-.1.5-.01.18.09.36.26.5.5l1.99,3.46c.08.14.13.28.16.43,0,.01,0,.02,0,.04.03.14.03.27.01.39h0Z" fill="#fff" opacity=".2"/><path d="m7.89,13.34c.39.19.71.74.7,1.22l-.02,3.49c0,.49-.32.72-.71.53l-2.84-1.38c-.39-.19-.71-.73-.7-1.22l.02-3.49c0-.48.32-.72.71-.53l2.84,1.38Zm-.02,4.37l.02-3.49-2.84-1.38-.02,3.49,2.84,1.38" fill="#fff"/><path d="m7.93,6.34c.39.19.71.74.7,1.22l-.02,3.49c0,.49-.32.73-.71.54l-2.84-1.38c-.39-.19-.71-.74-.7-1.23l.02-3.49c0-.48.32-.72.71-.53l2.84,1.38Zm-.02,4.37l.02-3.49-2.84-1.38-.02,3.49,2.84,1.38" fill="#fff"/><path d="m13.55,16.1c.4.19.71.74.71,1.22l-.02,3.49c0,.49-.32.72-.72.53l-2.83-1.38c-.39-.19-.71-.73-.7-1.22l.02-3.49c0-.48.32-.72.71-.53l2.83,1.38Zm-.02,4.37l.02-3.49-2.83-1.38-.02,3.49,2.83,1.38" fill="#fff"/><path d="m14.67,11.64c.27.47.27,1.02,0,1.24l-2.02,1.49c-.14.1-.32.1-.5,0s-.36-.26-.5-.5l-1.99-3.45c-.27-.48-.27-1.03,0-1.24l2.02-1.5c.14-.1.32-.1.5-.01s.36.26.5.5l1.99,3.46Zm-2.52,1.86l2.02-1.49-1.99-3.45-2.02,1.49,1.99,3.45" fill="#fff"/></svg>