<?xml version="1.0" encoding="UTF-8"?><svg id="a" xmlns="http://www.w3.org/2000/svg" viewBox="0 0 24 24"><rect y="0" width="24" height="24" fill="none"/><g><circle cx="7" cy="17" r="1" fill="#2f3541"/><circle cx="11" cy="17" r="1" fill="#2f3541"/><path d="M15,15l3-3V8l-3,3v4Zm1-3.59l1-1v1.17l-1,1v-1.17Z" fill="#2f3541"/><path d="M17.86,4h-5.71c-.58,0-1.1,.23-1.48,.6-.02,.02-5.02,5.02-5.9,5.9h.03c-.47,.39-.78,.98-.78,1.64v5.71c0,1.18,.96,2.14,2.14,2.14h-.14l-2,2h1l2-2h4l-2,2h1l2-2h-.14c.66,0,1.25-.31,1.64-.78v.02c.47-.47,5.98-5.99,6-6,.31-.37,.5-.85,.5-1.38V6.14c0-1.18-.96-2.14-2.14-2.14Zm-4.86,13.86c0,.63-.51,1.14-1.14,1.14H6.14c-.63,0-1.14-.51-1.14-1.14v-2.86H13v2.86Zm0-3.86H5v-1.86c0-.63,.51-1.14,1.14-1.14h5.71c.63,0,1.14,.51,1.14,1.14v1.86Zm6-2.14c0,.33-.13,.56-.25,.71-.25,.25-2.01,2.02-3.57,3.57-.49,.49-.87,.87-1.19,1.19v-5.18c0-1.18-.96-2.14-2.14-2.14H6.67c1.76-1.76,4.63-4.63,4.68-4.68,.21-.21,.49-.32,.79-.32h5.71c.63,0,1.14,.51,1.14,1.14v5.71Z" fill="#2f3541"/></g></svg>