<?xml version="1.0" encoding="UTF-8"?><svg id="a" xmlns="http://www.w3.org/2000/svg" xmlns:xlink="http://www.w3.org/1999/xlink" viewBox="0 0 48 48"><defs><linearGradient id="c" x1="21.74" y1="16.88" x2="20.67" y2="13.47" gradientUnits="userSpaceOnUse"><stop offset="0" stop-color="#f84"/><stop offset="1" stop-color="#f49"/></linearGradient><linearGradient id="d" x1="28.19" y1="18.9" x2="28.43" y2="33.34" xlink:href="#c"/><linearGradient id="e" x1="27.88" y1="21.25" x2="25.86" y2="14.63" xlink:href="#c"/><linearGradient id="f" x1="25.13" y1="31.83" x2="41.24" y2="31.83" gradientUnits="userSpaceOnUse"><stop offset="0" stop-color="#2f3541" stop-opacity=".4"/><stop offset="1" stop-color="#2f3541" stop-opacity="0"/></linearGradient><linearGradient id="g" x1="9.22" x2="38.91" xlink:href="#f"/></defs><rect x="0" y="-.01" width="48" height="48" fill="none"/><polyline points="43.99 30.49 23.99 20.49 3.99 30.49 23.99 40.49 43.99 30.49 43.99 30.49" fill="#f2f6ff"/><polygon points="23.99 40.49 23.99 42.49 3.99 32.49 3.99 30.49 23.99 40.49" fill="#fff" opacity=".2"/><polygon points="23.99 40.49 23.99 42.49 43.99 32.49 43.99 30.49 23.99 40.49" fill="#2f3541"/><rect x="11.99" y="11.99" width="24" height="24" fill="none"/><g fill="none" opacity=".8"><path d="m15.54,16.03l5.65-2.73c2.07,1.01,4,1.39,5.67,1.01l-5.65,2.73c-1.67.38-3.6,0-5.67-1.01Z" fill="url(#c)"/></g><g fill="none" opacity=".8"><path d="m29.75,30.68l-5.65,2.73c1.65-.8,2.72-2.77,2.74-5.56l.03-6.3,5.65-2.73c-.02,2.89-.03,6.13-.03,6.3-.02,2.79-1.08,4.76-2.74,5.56Z" fill="url(#d)"/></g><g fill="none" opacity=".8"><path d="m21.21,17.05l5.65-2.73c1.66,2,3.59,3.5,5.66,4.51l-5.65,2.73c-2.07-1.01-3.99-2.51-5.66-4.51Z" fill="url(#e)"/></g><path d="m26.07,27.51v-5.44c-1.84-1.01-3.61-2.36-5.08-4.03-1.47.25-2.92-.03-4.75-.81l-.03,5.45c-.02,3.67,2.04,7.88,4.92,10.09,2.87.93,4.96-1.38,4.94-5.25" fill="#fff0f5"/><path d="m21.22,17.04c1.66,2.01,3.59,3.51,5.66,4.52l-.03,6.3c-.02,4.23-2.48,6.57-5.71,5.8-3.23-2.38-5.64-7.1-5.62-11.33l.03-6.3c2.07,1.01,4,1.39,5.68,1.01Zm4.85,10.47v-5.44c-1.84-1.01-3.61-2.36-5.08-4.03-1.47.25-2.92-.03-4.75-.81l-.03,5.45c-.02,3.67,2.04,7.88,4.92,10.09,2.87.93,4.96-1.38,4.94-5.25" fill="#2f3541"/><path d="m23.31,24.2c0,1.3-.78,2-1.79,1.72v1.79s1.05.52,1.05.52v.87s-1.07-.52-1.07-.52v.87s1.06.52,1.06.52v.87s-1.78-.86-1.78-.86l.02-4.41c-1-.7-1.77-2.15-1.76-3.45,0-1.45.97-2.15,2.14-1.58s2.12,2.21,2.11,3.66Zm-2.13.71c.78.38,1.42-.09,1.42-1.06s-.63-2.06-1.41-2.44-1.42.1-1.42,1.06.62,2.05,1.41,2.44" fill="#2f3541"/><path d="m43.99,30.49l-4.27-2.13-8.04.37c-.47.9-1.14,1.57-1.94,1.96l-5.65,2.73s.06-.04.1-.06c-.57.29-1.21.43-1.9.43l12.08,1.51,9.62-4.81Z" fill="url(#f)"/><path d="m43.99,30.49l-4.27-2.13-8.04.37c-.47.9-1.14,1.57-1.94,1.96l-5.65,2.73s.06-.04.1-.06c-.57.29-1.21.43-1.9.43l12.08,1.51,9.62-4.81Z" fill="url(#g)"/></svg>