<?xml version="1.0" encoding="UTF-8"?><svg id="a" xmlns="http://www.w3.org/2000/svg" viewBox="0 0 24 24"><rect width="24" height="24" fill="none"/><g><path d="M12,5c-3.19,0-6.07,1.38-8.08,3.56l4.73,4.14c.86-.87,2.04-1.41,3.35-1.41,2.52,0,4.58,1.98,4.71,4.47,0,.14,.11,.25,.25,.25h5.77c.15,0,.27-.13,.27-.27-.15-5.94-5.02-10.73-11-10.73Z" fill="#fff" opacity=".4"/><path d="M1,15.73c0,.15,.12,.27,.27,.27H7.04c.14,0,.25-.11,.25-.25,.06-1.19,.58-2.26,1.36-3.05L3.92,8.56c-1.75,1.9-2.85,4.4-2.92,7.17Z" fill="#fff" opacity=".8"/></g><path d="M2.38,7.26l8.95,9.48c.41,.37,1.04,.34,1.41-.07s.34-1.04-.07-1.41L2.38,7.26Z" fill="#fff"/></svg>