<?xml version="1.0" encoding="UTF-8"?><svg id="a" xmlns="http://www.w3.org/2000/svg" viewBox="0 0 24 24"><rect x="0" y="0" width="24" height="24" fill="none"/><path d="M18.61,5.5s.1,0,.25,.14c.1,.1,.28,.28-.01,.6l-.04,.04-.04,.05-3.01,4.02-.35,.46,.23,.53,.6,1.41,.58,1.36,.74-.74,.59,.59-.49,.49-.48,.48,.27,.62,1.02,2.38-.14,.29-4.54-4.95-.71-.77-.74,.74-2.01,2.01-.24,.24-.04,.34-.39,3.14-1.23-2.46-.15-.3-.3-.15-2.46-1.23,3.14-.39,.34-.04,.24-.24,2.01-2.01,.74-.74-.77-.71L6.26,6.19l.29-.14,2.38,1.02,.62,.27,.48-.48,.49-.49,.59,.59-.74,.74,1.36,.58,1.41,.6,.53,.23,.46-.35,4.02-3.01,.05-.04,.03-.03c.06-.05,.23-.17,.37-.17m0-1c-.59,0-1.05,.44-1.05,.44l-4.02,3.01-1.41-.6,.4-.4-2.01-2.01-1.2,1.2-2.81-1.2-2.01,1,6.02,5.52-2.01,2.01-4.02,.5-1,1,4.02,2.01,2.01,4.02,1-1,.5-4.02,2.01-2.01,5.52,6.02,1-2.01-1.2-2.81,1.2-1.2-2.01-2.01-.4,.4-.6-1.41,3.01-4.02s.98-1.02,0-2.01c-.33-.33-.66-.44-.96-.44h0Z" fill="#2f3541"/></svg>