<?xml version="1.0" encoding="UTF-8"?><svg id="a" xmlns="http://www.w3.org/2000/svg" xmlns:xlink="http://www.w3.org/1999/xlink" viewBox="0 0 48 48"><defs><linearGradient id="b" x1="23.39" y1="30.85" x2="40.99" y2="30.85" gradientTransform="matrix(1, 0, 0, 1, 0, 0)" gradientUnits="userSpaceOnUse"><stop offset="0" stop-color="#2f3541" stop-opacity=".6"/><stop offset="1" stop-color="#2f3541" stop-opacity="0"/></linearGradient><linearGradient id="c" x1="23.09" y1="29.91" x2="23.09" y2="32.67" gradientTransform="matrix(1, 0, 0, 1, 0, 0)" gradientUnits="userSpaceOnUse"><stop offset="0" stop-color="#00d2b2"/><stop offset="1" stop-color="#26f"/></linearGradient><linearGradient id="d" x1="24.87" y1="20.38" x2="26.01" y2="22.66" xlink:href="#c"/><linearGradient id="e" x1="26.5" y1="22.22" x2="28.66" y2="27.01" xlink:href="#c"/><linearGradient id="f" x1="29.97" y1="18.36" x2="32.4" y2="23.4" xlink:href="#c"/><linearGradient id="g" x1="28.77" y1="16.6" x2="32.23" y2="24.45" gradientTransform="matrix(1, 0, 0, 1, 0, 0)" gradientUnits="userSpaceOnUse"><stop offset=".13" stop-color="#00d2b2"/><stop offset="1" stop-color="#26f"/></linearGradient></defs><g><polyline points="44 30.5 24 20.5 4 30.5 24 40.5 44 30.5 44 30.5" fill="#f2f6ff"/><polygon points="24 40.5 24 42.5 4 32.5 4 30.5 24 40.5" fill="#fff" opacity=".2"/><polygon points="24 40.5 24 42.5 44 32.5 44 30.5 24 40.5" fill="#2f3541"/></g><polygon points="20.29 32.63 33.55 35.76 44 30.5 35.89 26.44 24.36 25.94 20.29 32.63" fill="url(#b)" opacity=".4"/><rect x="0" width="48" height="48" fill="none"/><g opacity=".8"><g isolation="isolate"><path d="M25.89,29.94l-5.65,2.73s.04-.02,.06-.03l5.65-2.73s-.04,.02-.06,.03Z" fill="url(#c)"/><polygon points="25.36 28.88 24.57 29.46 23 30.62 20.29 32.63 25.94 29.91 28.64 27.9 30.22 26.73 31.01 26.15 25.36 28.88" fill="#26f"/><path d="M21.64,21.54c.17,.08,.33,.23,.46,.44,.3,.47,.52,.71,.74,.82,.16,.08,.32,.08,.47,0l1.89-.91c.24-.27,.48-.51,.71-.69,.54-.4,1.17-.57,1.73-.49l1.32-.64c-.16,.07-.31,.07-.47,0-.22-.11-.44-.35-.74-.82-.13-.21-.3-.36-.46-.44-.15-.07-.31-.09-.44-.02l-5.65,2.73c.13-.06,.29-.05,.44,.02Z" fill="url(#d)"/><path d="M31.04,24.97c-.14-.27-.23-.49-.29-.68-.14-.46-.07-.78,.23-1,.03-.03,.07-.05,.11-.07l-5.65,2.73s-.08,.04-.11,.07c-.3,.22-.37,.54-.23,1,.06,.19,.15,.41,.29,.68,.25,.47,.22,.99-.04,1.18l5.65-2.73c.26-.2,.29-.71,.04-1.18Z" fill="url(#e)"/><path d="M25.92,20.04l5.65-2.73c.73-.35,1.54-.38,2.22-.05,.4,.19,.73,.5,.95,.9l-5.65,2.73c-.23-.4-.56-.71-.95-.9-.68-.33-1.49-.3-2.22,.05Z" fill="url(#f)"/><path d="M32.97,22.62l-5.65,2.73c.27-.13,.52-.28,.73-.43,.62-.46,1.09-1.15,1.28-1.9,.2-.76,.11-1.52-.24-2.13l5.65-2.73c.35,.61,.44,1.37,.24,2.13-.19,.75-.66,1.45-1.28,1.9-.21,.16-.46,.3-.73,.43Z" fill="url(#g)"/></g></g><rect x="13" y="12.77" width="24" height="24" fill="none"/><rect x="13" y="12.77" width="24" height="24" fill="none"/><path d="M28.65,22.44c.12-.46,.09-.91-.06-1.19-.12-.2-.32-.33-.46-.4-.64-.31-1.51-.18-2.22,.35-.53,.4-1.14,1.13-1.58,1.91l-.03,.06c-.12,.18-.23,.31-.37,.41-.33,.25-.7,.28-1.09,.09-.47-.23-.85-.7-1.2-1.26l-.58,.43,3.23,5.6,.58-.43c-.17-.32-.32-.64-.41-.96-.15-.5-.3-1.4,.38-1.9,.13-.1,.29-.17,.48-.22h.06c.81-.15,1.65-.49,2.18-.9,.54-.39,.93-.98,1.1-1.6" fill="#fff3f8"/><polyline points="19.79 31.77 22.5 29.76 19.27 24.17 16.57 26.18 17.83 28.36 19.11 27.42 19.1 28.29 18.18 28.97 18.89 30.2 20.88 28.71 20.87 29.59 19.24 30.8 19.79 31.77" fill="#fff3f8"/><polyline points="23 29.39 23.78 28.82 20.55 23.22 19.78 23.8 23 29.39" fill="#fff3f8"/><path d="M29.09,20.88c.35,.61,.44,1.37,.24,2.13-.19,.75-.66,1.45-1.28,1.9-.6,.43-1.47,.8-2.35,.95h-.04c-.13,.04-.24,.08-.33,.15-.3,.22-.37,.54-.23,1,.06,.19,.15,.41,.29,.68,.25,.47,.22,.99-.04,1.18l-.78,.58-1.58,1.16-2.7,2.01c-.14,.1-.32,.1-.5,0s-.36-.26-.5-.49l-3.23-5.6c-.27-.47-.27-1.03,0-1.24l2.71-2,1.57-1.17,.79-.59c.14-.1,.33-.1,.5-.01,.17,.08,.33,.23,.46,.44,.3,.47,.52,.71,.74,.82,.2,.1,.4,.07,.59-.07,.1-.07,.17-.17,.25-.29l.03-.05c.48-.84,1.12-1.62,1.71-2.05,.85-.62,1.88-.76,2.72-.35,.4,.19,.73,.5,.95,.9Zm-.44,1.56c.12-.46,.09-.91-.06-1.19-.12-.2-.32-.33-.46-.4-.64-.31-1.51-.18-2.22,.35-.53,.4-1.14,1.13-1.58,1.91l-.03,.06c-.12,.18-.23,.31-.37,.41-.33,.25-.7,.28-1.09,.09-.47-.23-.85-.7-1.2-1.26l-.58,.43,3.23,5.6,.58-.43c-.17-.32-.32-.64-.41-.96-.15-.5-.3-1.4,.38-1.9,.13-.1,.29-.17,.48-.22h.06c.81-.15,1.65-.49,2.18-.9,.54-.39,.93-.98,1.1-1.6m-8.86,9.32l2.71-2-3.23-5.6-2.7,2.01,1.26,2.18,1.28-.95v.87l-.93,.69,.71,1.22,1.99-1.48v.87l-1.64,1.21,.56,.97m3.21-2.38l.78-.57-3.23-5.6-.77,.58,3.22,5.59" fill="#2f3541"/><path d="M27.31,21.33c.18,.09,.36,.26,.5,.5,.28,.48,.28,1.03,0,1.24-.14,.1-.32,.1-.5,.01s-.36-.26-.5-.5c-.27-.48-.27-1.03,0-1.24,.14-.1,.32-.1,.5-.01Z" fill="#2f3541"/></svg>