<?xml version="1.0" encoding="UTF-8"?><svg id="c" xmlns="http://www.w3.org/2000/svg" xmlns:xlink="http://www.w3.org/1999/xlink" viewBox="0 0 48 48"><defs><linearGradient id="a" x1="24.87" y1="30.63" x2="41.21" y2="30.63" gradientTransform="matrix(1, 0, 0, 1, 0, 0)" gradientUnits="userSpaceOnUse"><stop offset="0" stop-color="#2f3541" stop-opacity=".4"/><stop offset="1" stop-color="#2f3541" stop-opacity="0"/></linearGradient><linearGradient id="d" x1="15.86" y1="26.3" x2="18.77" y2="31.5" gradientTransform="matrix(1, 0, 0, 1, 0, 0)" gradientUnits="userSpaceOnUse"><stop offset="0" stop-color="#f84"/><stop offset="1" stop-color="#f49"/></linearGradient><linearGradient id="e" x1="21.76" y1="25.32" x2="24.59" y2="30.89" xlink:href="#d"/><linearGradient id="f" x1="21.55" y1="24.19" x2="22.94" y2="26.98" xlink:href="#d"/><linearGradient id="g" x1="18.43" y1="13.18" x2="23.73" y2="23.69" xlink:href="#d"/><linearGradient id="h" x1="19.59" y1="20.08" x2="23.4" y2="28.16" xlink:href="#d"/><linearGradient id="i" x1="22.63" y1="14.45" x2="25.61" y2="21.63" xlink:href="#d"/><linearGradient id="j" x1="23.4" y1="17.18" x2="28.68" y2="26.11" xlink:href="#d"/><linearGradient id="k" x1="22.85" y1="21.11" x2="25.34" y2="26.16" xlink:href="#d"/><linearGradient id="l" x1="27.21" y1="19.85" x2="29.44" y2="24.49" gradientTransform="matrix(1, 0, 0, 1, 0, 0)" gradientUnits="userSpaceOnUse"><stop offset="0" stop-color="#f84"/><stop offset=".93" stop-color="#f49"/></linearGradient><linearGradient id="m" x1="27.64" y1="21.43" x2="29.61" y2="25.53" xlink:href="#d"/><linearGradient id="n" x1="25.24" y1="16.09" x2="30.52" y2="25.02" xlink:href="#d"/><linearGradient id="o" x1="27.49" y1="15.79" x2="31.05" y2="23.17" gradientTransform="matrix(1, 0, 0, 1, 0, 0)" gradientUnits="userSpaceOnUse"><stop offset="0" stop-color="#f84"/><stop offset=".85" stop-color="#f49"/></linearGradient><linearGradient id="p" x1="24.64" y1="20.94" x2="26.72" y2="25.46" xlink:href="#d"/></defs><g><polyline points="44 30.5 24 20.5 4 30.5 24 40.5 44 30.5 44 30.5" fill="#f2f6ff"/><polygon points="24 40.5 24 42.5 4 32.5 4 30.5 24 40.5" fill="#fff" opacity=".2"/><polygon points="24 40.5 24 42.5 44 32.5 44 30.5 24 40.5" fill="#2f3541"/></g><polyline points="44 30.5 33.9 25.45 30.13 25.51 26.99 27.07 26.23 26.7 26.22 28.24 27.65 28.93 27.64 29.8 21.99 32.53 33.38 35.81 44 30.5 44 30.5" fill="url(#a)"/><g opacity=".8"><g isolation="isolate"><polygon points="15.62 28.54 17.97 27.41 17.75 29.58 15.62 28.54" fill="url(#d)"/><polygon points="20.58 30.96 26.22 28.24 27.65 28.93 22 31.65 20.58 30.96" fill="url(#e)"/><polygon points="22 31.65 27.65 28.93 27.64 29.8 21.99 32.53 22 31.65" fill="url(#f)"/><polygon points="15.69 16.3 21.34 13.57 23.46 14.61 17.81 17.33 15.69 16.3" fill="url(#g)"/><polygon points="20.63 21.34 21.2 21.07 25.18 23.15 25 25.06 26.23 26.33 26.22 28.24 20.58 30.96 20.63 21.34" fill="url(#h)"/><polygon points="20.65 16.97 26.3 14.24 26.29 15.99 20.64 18.72 20.65 16.97" fill="url(#i)"/><polygon points="17.82 15.59 23.47 12.86 26.3 14.24 20.65 16.97 17.82 15.59" fill="url(#j)"/><polygon points="23.46 24.47 25.16 23.65 25.27 24.97 24.87 25.16 23.46 24.47" fill="url(#k)"/><polygon points="26.99 26.2 32.64 23.47 32.64 24.35 26.99 27.07 26.99 26.2" fill="url(#l)"/><polygon points="25.58 25.51 31.23 22.78 32.64 23.47 26.99 26.2 25.58 25.51" fill="url(#m)"/><polygon points="20.64 18.72 26.29 15.99 33.38 19.45 27.73 22.17 20.64 18.72" fill="url(#n)"/><polygon points="27.73 22.17 33.38 19.45 33.36 22.08 27.72 24.8 27.73 22.17" fill="url(#o)"/><polygon points="25.59 23.76 26.13 23.5 27.49 24.59 25.58 25.51 25.59 23.76" fill="url(#p)"/></g></g><path d="M27.72,24.8l-2.13-1.04v1.75l1.41,.69v.87l-3.54-1.73v-.87l1.42,.69v-1.75l-4.24-2.07-.05,9.62,1.42,.69v.87l-1.43-.69-2.83-1.38-2.12-1.04v-.87l2.13,1.04,.05-9.62-2.12-1.04v-2.63l2.14,1.04v-1.75l2.84,1.38v1.75l7.08,3.46v2.63Zm-2.85-2.26l.71,.35,1.42,.69v-.87l-6.37-3.11v.87l4.25,2.07m-5,5.45v-1.75l-1.41,.19v1.75l1.41-.18m.04-7.87v-1.75l-1.41,.19v1.75l1.41-.18m-.03,5.24v-1.75l-1.41,.18v1.75l1.41-.18m.01-2.62v-1.75l-1.41,.18v1.75l1.41-.18m-.04,7.87v-1.75l-1.41,.18v.87l1.41,.69m-2.07-11.53v-.87l-1.41-.69v.87l1.41,.69m.72-1.41l1.42-.18-1.42-.69v.87" fill="#2f3541"/><rect x="12" y="11.06" width="24" height="24" fill="none"/><polyline points="24.89 22.54 25.59 22.89 27.01 23.58 27.01 22.71 20.64 19.6 20.63 20.47 24.89 22.54" fill="#fff3f8"/><polyline points="19.88 27.99 19.89 26.24 18.47 26.43 18.46 28.18 19.88 27.99" fill="#fff3f8"/><polyline points="19.93 20.12 19.94 18.37 18.52 18.56 18.51 20.31 19.93 20.12" fill="#fff3f8"/><polyline points="19.9 25.37 19.91 23.62 18.49 23.8 18.48 25.55 19.9 25.37" fill="#fff3f8"/><polyline points="19.91 22.75 19.92 21 18.5 21.18 18.49 22.93 19.91 22.75" fill="#fff3f8"/><polyline points="19.87 30.62 19.88 28.87 18.46 29.05 18.45 29.93 19.87 30.62" fill="#fff3f8"/><polyline points="17.8 19.09 17.81 18.22 16.39 17.53 16.39 18.4 17.8 19.09" fill="#fff3f8"/><polyline points="18.52 17.68 19.94 17.5 18.53 16.81 18.52 17.68" fill="#fff3f8"/><rect width="48" height="48" fill="none"/></svg>