<?xml version="1.0" encoding="UTF-8"?><svg id="icon" xmlns="http://www.w3.org/2000/svg" width="24" height="24" viewBox="0 0 24 24"><g id="Rechteck_55747"><rect y="-.075" width="24" height="24" fill="none"/></g><path d="m20.5996,7.3057c-1.4756-2.3652-3.7236-3.9639-6.3301-4.5-2.4424-.501-4.9219.0068-6.9746,1.4346C3.0313,7.202,1.3759,12.9213,3.285,17.7628l-1.744,1.744,6.334,2.4932-2.4521-6.375-1.3665,1.3665c-1.4971-4.3268.0413-9.3126,3.8089-11.931,1.8262-1.2695,4.0234-1.7227,6.2031-1.2754,2.335.4805,4.3535,1.9189,5.6836,4.0498,2.1016,3.3711,1.2871,7.8672-1.8154,10.0205-1.1299.7852-2.4893,1.0645-3.834.7881-1.4443-.2979-2.6934-1.1895-3.5176-2.5107-1.2959-2.0781-.7979-4.8477,1.1094-6.1729.6826-.4736,1.5039-.6436,2.3145-.4756.876.1807,1.6348.7227,2.1396,1.5312.7812,1.2178.4834,2.8467-.6572,3.6953-.835.5596-1.9678.3369-2.5293-.498l-.0752-.1211c-.3497-.5458-.6049-1.3106.1323-1.8791.0498.5058.4621.9056.981.9056.5523,0,1-.4477,1-1,0-.1633-.0483-.3111-.1177-.4473-.0045-.0132-.0027-.0267-.009-.0399-.0219-.0462-.062-.0695-.0913-.1088-.0375-.0492-.0714-.0982-.1172-.1396-.0916-.081-.1695-.1336-.2427-.1637-.0163-.0077-.0302-.0181-.0469-.025-.0054-.0018-.0162-.0099-.0211-.0112-.4497-.1227-1.275-.2717-1.9127.2097-1.0332.7666-1.1855,2.0078-.4072,3.2217.0322.0547.0654.1094.0996.1592.8682,1.29,2.624,1.6357,3.9336.7539,1.5811-1.1748,1.9863-3.3936.9258-5.0459-.6475-1.0381-1.6357-1.7402-2.7832-1.9766-1.0781-.2246-2.1758.002-3.0859.6338-2.3389,1.625-2.9609,5-1.3877,7.5234.9707,1.5557,2.4492,2.6074,4.1641,2.9609.4062.084.8135.125,1.2178.125,1.2012,0,2.373-.3652,3.3887-1.0703,3.5342-2.4541,4.4727-7.5547,2.0928-11.3721Zm-14.4746,12.9307l-2.7988-1.1006,1.7158-1.7158,1.083,2.8164Z" fill="#2f3541"/></svg>