<?xml version="1.0" encoding="UTF-8"?><svg id="icon" xmlns="http://www.w3.org/2000/svg" width="36" height="36" xmlns:xlink="http://www.w3.org/1999/xlink" viewBox="0 0 36 36"><defs><linearGradient id="Unbenannter_Verlauf_4" x1="33" y1="22.5" x2="3.63" y2="22.5" gradientUnits="userSpaceOnUse"><stop offset="0" stop-color="#00ceae"/><stop offset="1" stop-color="#26f"/></linearGradient><linearGradient id="Unbenannter_Verlauf_4-2" x1="13.1795" y1="24.7587" x2="7.9618" y2="29.1231" xlink:href="#Unbenannter_Verlauf_4"/><linearGradient id="Unbenannter_Verlauf_22" x1="3" y1="18" x2="31.56" y2="18" gradientUnits="userSpaceOnUse"><stop offset="0" stop-color="#26f"/><stop offset="1" stop-color="#ff4495"/></linearGradient><linearGradient id="Unbenannter_Verlauf_22-2" x1="7.5802" y1="24.9526" x2="12.9933" y2="20.4057" xlink:href="#Unbenannter_Verlauf_22"/><linearGradient id="Unbenannter_Verlauf_21" x1="3" y1="13.5" x2="33" y2="13.5" gradientUnits="userSpaceOnUse"><stop offset="0" stop-color="#ff4495"/><stop offset="1" stop-color="#ff8444"/></linearGradient><linearGradient id="Unbenannter_Verlauf_21-2" x1="8.0348" y1="20.1151" x2="13.3373" y2="15.5656" xlink:href="#Unbenannter_Verlauf_21"/></defs><g id="icn_menu"><rect id="Rechteck_40854" x="0" width="36" height="36" fill="none"/><g id="Komponente_343_1"><path d="M33,22.5h0l-15,7.5L3,22.5l15-7.5,15,7.5" fill="url(#Unbenannter_Verlauf_4)" isolation="isolate" opacity=".6"/><path d="M18,30v1.5L3,24v-1.5l15,7.5Z" fill="url(#Unbenannter_Verlauf_4-2)"/></g><g id="Komponente_342_1"><path d="M33,18h0l-15,7.5L3,18l15-7.5,15,7.5" fill="url(#Unbenannter_Verlauf_22)" isolation="isolate" opacity=".6"/><path d="M18,25.5v1.5L3,19.5v-1.5l15,7.5Z" fill="url(#Unbenannter_Verlauf_22-2)"/></g><g id="Komponente_341_1"><g id="Gruppe_84502"><path d="M33,13.5h0l-15,7.5L3,13.5l15-7.5,15,7.5" fill="url(#Unbenannter_Verlauf_21)" isolation="isolate" opacity=".6"/><path d="M18,21v1.5L3,15v-1.5l15,7.5Z" fill="url(#Unbenannter_Verlauf_21-2)"/></g></g></g></svg>