<?xml version="1.0" encoding="UTF-8"?><svg id="a" xmlns="http://www.w3.org/2000/svg" xmlns:xlink="http://www.w3.org/1999/xlink" viewBox="0 0 24 24"><defs><clipPath id="b"><path d="M12.08,6.82l-5.65,2.73c-.06,.03-.13,.03-.22-.01-.2-.1-.36-.37-.35-.61l5.65-2.73c0,.24,.16,.52,.35,.61,.08,.04,.16,.04,.22,.01Z" fill="#2f3541"/></clipPath><clipPath id="c"><path d="M14.83,16.02l5.65-2.73c-.08,.04-.14,.14-.14,.27,0,.24,.16,.52,.35,.61l-5.65,2.73c-.2-.1-.36-.37-.35-.61,0-.14,.05-.23,.14-.27Z" fill="#2f3541"/></clipPath><clipPath id="d"><path d="M11.94,9.11l5.65-2.73c.18-.09,.41-.08,.66,.04,.59,.29,1.06,1.1,1.06,1.83l-5.65,2.73c0-.72-.47-1.54-1.06-1.83-.25-.12-.48-.13-.66-.04Z" fill="#2f3541"/></clipPath></defs><g opacity=".2"><g isolation="isolate"><g isolation="isolate"><path d="M12.08,6.82l-5.65,2.73c-.06,.03-.13,.03-.22-.01-.2-.1-.36-.37-.35-.61l5.65-2.73c0,.24,.16,.52,.35,.61,.08,.04,.16,.04,.22,.01Z" fill="#2f3541"/><g clip-path="url(#b)"><g isolation="isolate"><polyline points="5.86 8.92 11.5 6.19 11.5 6.19 5.86 8.92 5.86 8.92" fill="#2f3541"/><path d="M5.86,8.92l5.65-2.73s0,.01,0,.02l-5.65,2.73s0-.01,0-.02" fill="#2f3541"/><path d="M5.86,8.94l5.65-2.73v.02l-5.65,2.73v-.02" fill="#2f3541"/><path d="M5.86,8.95l5.65-2.73v.02l-5.65,2.73v-.02" fill="#2f3541"/><path d="M5.86,8.97l5.65-2.73v.02l-5.65,2.73v-.02" fill="#2f3541"/><path d="M5.86,8.99l5.65-2.73v.02l-5.64,2.73v-.02" fill="#2f3541"/><path d="M5.86,9.01l5.65-2.73v.02l-5.64,2.73v-.02" fill="#2f3541"/><path d="M5.87,9.03l5.65-2.73v.02l-5.64,2.73v-.02" fill="#2f3541"/><path d="M5.87,9.05l5.65-2.73v.02l-5.64,2.73v-.02" fill="#2f3541"/><path d="M5.88,9.07l5.65-2.73v.02l-5.64,2.73v-.02" fill="#2f3541"/><path d="M5.88,9.1l5.65-2.73v.02l-5.64,2.73v-.02" fill="#2f3541"/><path d="M5.89,9.12l5.65-2.73v.02l-5.64,2.73v-.02" fill="#2f3541"/><path d="M5.9,9.14l5.65-2.73v.02l-5.64,2.73v-.02" fill="#2f3541"/><path d="M5.9,9.16l5.65-2.73v.02l-5.64,2.73v-.02" fill="#2f3541"/><path d="M5.91,9.19l5.65-2.73v.03l-5.63,2.73v-.03" fill="#2f3541"/><path d="M5.93,9.21l5.65-2.73s.04,.08,.06,.11l-5.65,2.73s-.04-.07-.06-.11" fill="#2f3541"/><path d="M5.99,9.32l5.65-2.73,.02,.03-5.65,2.73-.02-.03" fill="#2f3541"/><path d="M6.01,9.35l5.65-2.73,.02,.02-5.65,2.73-.02-.02" fill="#2f3541"/><path d="M6.03,9.38l5.65-2.73,.02,.02-5.65,2.73-.02-.02" fill="#2f3541"/><path d="M6.04,9.4l5.65-2.73,.02,.02-5.65,2.73-.02-.02" fill="#2f3541"/><path d="M6.06,9.42l5.65-2.73,.02,.02-5.65,2.73-.02-.02" fill="#2f3541"/><path d="M6.08,9.44l5.65-2.73,.02,.02-5.65,2.73-.02-.02" fill="#2f3541"/><path d="M6.1,9.45l5.65-2.73h.02l-5.65,2.74h-.02" fill="#2f3541"/><path d="M6.11,9.47l5.65-2.73h.02l-5.65,2.74h-.02" fill="#2f3541"/><path d="M6.13,9.48l5.65-2.73h.02l-5.65,2.74h-.02" fill="#2f3541"/><path d="M6.14,9.49l5.65-2.73h.02l-5.65,2.74h-.02" fill="#2f3541"/><path d="M6.16,9.5l5.65-2.73h.02l-5.65,2.74h-.02" fill="#2f3541"/><path d="M6.17,9.51l5.65-2.73h.02l-5.65,2.73h-.02" fill="#2f3541"/><path d="M6.19,9.52l5.65-2.73h.01l-5.65,2.73h-.01" fill="#2f3541"/><polyline points="6.2 9.53 11.85 6.8 11.86 6.81 11.87 6.81 6.22 9.54 6.21 9.53 6.2 9.53" fill="#2f3541"/><path d="M6.22,9.54l5.65-2.73h.01l-5.65,2.73h-.01" fill="#2f3541"/><path d="M6.23,9.54l5.65-2.73h.01l-5.65,2.73h-.01" fill="#2f3541"/><path d="M6.25,9.55l5.65-2.73h.01l-5.65,2.73h-.01" fill="#2f3541"/><path d="M6.26,9.55l5.65-2.73h.01l-5.65,2.73h-.01" fill="#2f3541"/><path d="M6.28,9.56l5.65-2.73h.02l-5.65,2.73h-.02" fill="#2f3541"/><path d="M6.29,9.56l5.65-2.73h.02l-5.65,2.73h-.02" fill="#2f3541"/><path d="M6.31,9.56l5.65-2.73h.02l-5.65,2.73h-.02" fill="#2f3541"/><path d="M6.33,9.56l5.65-2.73s.01,0,.02,0l-5.65,2.73s-.01,0-.02,0" fill="#2f3541"/><path d="M6.34,9.56l5.65-2.73h.02l-5.65,2.72h-.02" fill="#2f3541"/><path d="M6.36,9.56l5.65-2.73h.02l-5.65,2.72h-.02" fill="#2f3541"/><path d="M6.38,9.56l5.65-2.73h.03l-5.65,2.72h-.03" fill="#2f3541"/><path d="M6.41,9.55l5.65-2.73h.02l-5.65,2.72h-.02" fill="#2f3541"/></g></g></g><polygon points="2.68 6.06 8.32 3.33 11.51 4.88 5.86 7.61 2.68 6.06" fill="#2f3541"/><polygon points="5.86 7.61 11.51 4.88 11.5 6.19 5.86 8.92 5.86 7.61" fill="#2f3541"/><polygon points="6.57 7.96 12.22 5.23 14.7 6.44 9.05 9.16 6.57 7.96" fill="#2f3541"/><polygon points="9.05 9.16 14.7 6.44 15.41 6.78 9.76 9.51 9.05 9.16" fill="#2f3541"/><polygon points="9.76 9.51 15.41 6.78 17.18 7.65 11.53 10.37 9.76 9.51" fill="#2f3541"/><g isolation="isolate"><path d="M14.83,16.02l5.65-2.73c-.08,.04-.14,.14-.14,.27,0,.24,.16,.52,.35,.61l-5.65,2.73c-.2-.1-.36-.37-.35-.61,0-.14,.05-.23,.14-.27Z" fill="#2f3541"/><g clip-path="url(#c)"><g isolation="isolate"><path d="M14.83,16.02l5.65-2.73s-.06,.04-.08,.07l-5.65,2.73s.05-.05,.08-.07" fill="#2f3541"/><path d="M14.75,16.09l5.65-2.73-.02,.03-5.65,2.73,.02-.03" fill="#2f3541"/><path d="M14.73,16.12l5.65-2.73v.02l-5.66,2.73v-.02" fill="#2f3541"/><path d="M14.72,16.14l5.65-2.73v.02l-5.66,2.73v-.02" fill="#2f3541"/><path d="M14.72,16.16l5.65-2.73v.02l-5.65,2.73v-.02" fill="#2f3541"/><path d="M14.71,16.18l5.65-2.73v.02l-5.65,2.73v-.02" fill="#2f3541"/><path d="M14.71,16.19l5.65-2.73v.02l-5.65,2.73v-.02" fill="#2f3541"/><path d="M14.7,16.21l5.65-2.73v.02l-5.65,2.73v-.02" fill="#2f3541"/><path d="M14.7,16.23l5.65-2.73v.02l-5.65,2.73v-.02" fill="#2f3541"/><path d="M14.7,16.25l5.65-2.73v.02l-5.65,2.73v-.02" fill="#2f3541"/><path d="M14.7,16.26l5.65-2.73v.02l-5.65,2.73v-.02" fill="#2f3541"/><path d="M14.69,16.28l5.65-2.73v.02h0l-5.65,2.73h0v-.02" fill="#2f3541"/><path d="M14.69,16.3l5.65-2.73s0,.01,0,.02l-5.65,2.73s0-.01,0-.02" fill="#2f3541"/><path d="M14.69,16.32l5.65-2.73v.02l-5.65,2.73v-.02" fill="#2f3541"/><path d="M14.7,16.33l5.65-2.73v.02l-5.65,2.73v-.02" fill="#2f3541"/><path d="M14.7,16.35l5.65-2.73v.02l-5.65,2.73v-.02" fill="#2f3541"/><path d="M14.7,16.37l5.65-2.73v.02l-5.64,2.73v-.02" fill="#2f3541"/><path d="M14.7,16.39l5.65-2.73v.02l-5.64,2.73v-.02" fill="#2f3541"/><path d="M14.71,16.41l5.65-2.73v.02l-5.64,2.73v-.02" fill="#2f3541"/><path d="M14.71,16.43l5.65-2.73v.02l-5.64,2.73v-.02" fill="#2f3541"/><path d="M14.71,16.45l5.65-2.73v.02l-5.64,2.73v-.02" fill="#2f3541"/><path d="M14.72,16.48l5.65-2.73v.02l-5.64,2.73v-.02" fill="#2f3541"/><path d="M14.73,16.5l5.65-2.73v.02l-5.64,2.73v-.02" fill="#2f3541"/><path d="M14.73,16.52l5.65-2.73v.02l-5.64,2.73v-.02" fill="#2f3541"/><path d="M14.74,16.54l5.65-2.73v.02l-5.64,2.73v-.02" fill="#2f3541"/><path d="M14.75,16.57l5.65-2.73v.03l-5.63,2.73v-.03" fill="#2f3541"/><path d="M14.76,16.59l5.65-2.73s.04,.08,.06,.11l-5.65,2.73s-.04-.07-.06-.11" fill="#2f3541"/><path d="M14.82,16.7l5.65-2.73,.02,.03-5.65,2.73-.02-.03" fill="#2f3541"/><path d="M14.85,16.73l5.65-2.73,.02,.02-5.65,2.73-.02-.02" fill="#2f3541"/><path d="M14.86,16.76l5.65-2.73,.02,.02-5.65,2.73-.02-.02" fill="#2f3541"/><path d="M14.88,16.78l5.65-2.73,.02,.02-5.65,2.73-.02-.02" fill="#2f3541"/><path d="M14.9,16.8l5.65-2.73,.02,.02-5.65,2.73-.02-.02" fill="#2f3541"/><path d="M14.92,16.82l5.65-2.73,.02,.02-5.65,2.73-.02-.02" fill="#2f3541"/><path d="M14.93,16.83l5.65-2.73h.02l-5.65,2.74h-.02" fill="#2f3541"/><path d="M14.95,16.85l5.65-2.73h.02l-5.65,2.74h-.02" fill="#2f3541"/><path d="M14.97,16.86l5.65-2.73h.02l-5.65,2.74h-.02" fill="#2f3541"/><path d="M14.98,16.87l5.65-2.73h.02l-5.65,2.74h-.02" fill="#2f3541"/><path d="M15,16.88l5.65-2.73h.02l-5.65,2.74h-.02" fill="#2f3541"/><path d="M15.01,16.89l5.65-2.73h.02l-5.65,2.73h-.02" fill="#2f3541"/><path d="M15.03,16.9l5.65-2.73h.01l-5.65,2.73h-.01" fill="#2f3541"/><polyline points="15.04 16.91 20.69 14.18 20.7 14.19 15.05 16.91 15.04 16.91" fill="#2f3541"/></g></g></g><polygon points="16.11 17.43 21.75 14.7 21.73 18.64 16.09 21.36 16.11 17.43" fill="#2f3541"/><polygon points="15.05 16.91 20.7 14.19 21.75 14.7 16.11 17.43 15.05 16.91" fill="#2f3541"/><polygon points="13.66 10.97 19.31 8.25 19.31 8.69 13.66 11.41 13.66 10.97" fill="#2f3541"/><g isolation="isolate"><path d="M11.94,9.11l5.65-2.73c.18-.09,.41-.08,.66,.04,.59,.29,1.06,1.1,1.06,1.83l-5.65,2.73c0-.72-.47-1.54-1.06-1.83-.25-.12-.48-.13-.66-.04Z" fill="#2f3541"/><g clip-path="url(#d)"><g isolation="isolate"><path d="M11.94,9.11l5.65-2.73s.04-.02,.06-.03l-5.65,2.73s-.04,.02-.06,.03" fill="#2f3541"/><path d="M12,9.08l5.65-2.73s.05-.02,.08-.02l-5.65,2.73s-.05,.01-.08,.02" fill="#2f3541"/><path d="M12.08,9.06l5.65-2.73s.04,0,.06,0l-5.65,2.73s-.04,0-.06,0" fill="#2f3541"/><path d="M12.15,9.05l5.65-2.73s.04,0,.06,0l-5.65,2.73s-.04,0-.06,0" fill="#2f3541"/><path d="M12.2,9.05l5.65-2.73s.04,0,.05,0l-5.65,2.73s-.04,0-.05,0" fill="#2f3541"/><path d="M12.26,9.05l5.65-2.73s.03,0,.05,0l-5.65,2.73s-.03,0-.05,0" fill="#2f3541"/><path d="M12.31,9.05l5.65-2.73s.03,0,.05,0l-5.65,2.73s-.03,0-.05,0" fill="#2f3541"/><path d="M12.36,9.06l5.65-2.73h.05l-5.65,2.74h-.05" fill="#2f3541"/><path d="M12.4,9.07l5.65-2.73h.05l-5.65,2.74h-.05" fill="#2f3541"/><path d="M12.45,9.08l5.65-2.73h.04l-5.65,2.74h-.04" fill="#2f3541"/><path d="M12.49,9.1l5.65-2.73,.04,.02-5.65,2.73-.04-.02" fill="#2f3541"/><path d="M12.54,9.12l5.65-2.73,.04,.02-5.65,2.73-.04-.02" fill="#2f3541"/><path d="M12.58,9.13l5.65-2.73h.02l.02,.02-5.65,2.73h-.02l-.02-.02" fill="#2f3541"/><path d="M12.62,9.16l5.65-2.73,.04,.02-5.65,2.73-.04-.02" fill="#2f3541"/><path d="M12.67,9.18l5.65-2.73,.04,.03-5.65,2.73-.04-.03" fill="#2f3541"/><path d="M12.71,9.21l5.65-2.73,.05,.03-5.65,2.73-.05-.03" fill="#2f3541"/><path d="M12.76,9.23l5.65-2.73,.05,.03-5.65,2.73-.05-.03" fill="#2f3541"/><path d="M12.81,9.27l5.65-2.73s.03,.02,.05,.03l-5.65,2.73s-.03-.02-.05-.03" fill="#2f3541"/><path d="M12.85,9.3l5.65-2.73s.03,.03,.05,.04l-5.65,2.73s-.03-.03-.05-.04" fill="#2f3541"/><path d="M12.9,9.34l5.65-2.73s.03,.03,.05,.04l-5.65,2.73s-.03-.03-.05-.04" fill="#2f3541"/><path d="M12.95,9.38l5.65-2.73s.03,.03,.05,.05l-5.65,2.73s-.03-.03-.05-.05" fill="#2f3541"/><path d="M13,9.43l5.65-2.73s.03,.03,.05,.05l-5.65,2.73s-.03-.04-.05-.05" fill="#2f3541"/><path d="M13.05,9.49l5.65-2.73s.04,.04,.05,.06l-5.65,2.73s-.03-.04-.05-.06" fill="#2f3541"/><path d="M13.1,9.54l5.65-2.73s.04,.04,.05,.06l-5.65,2.73s-.03-.04-.05-.06" fill="#2f3541"/><path d="M13.16,9.61l5.65-2.73s.04,.05,.06,.07l-5.65,2.73s-.04-.05-.06-.07" fill="#2f3541"/><path d="M13.21,9.68l5.65-2.73s.04,.06,.06,.09l-5.65,2.73s-.04-.06-.06-.09" fill="#2f3541"/><path d="M13.27,9.77l5.65-2.73c.07,.1,.13,.21,.18,.33l-5.65,2.73c-.05-.11-.12-.23-.18-.33" fill="#2f3541"/><path d="M13.46,10.1l5.65-2.73s.02,.06,.04,.08l-5.65,2.73s-.02-.06-.04-.08" fill="#2f3541"/><path d="M13.5,10.18l5.65-2.73s.02,.05,.03,.07l-5.65,2.73s-.02-.05-.03-.07" fill="#2f3541"/><path d="M13.52,10.25l5.65-2.73s.02,.04,.02,.07l-5.65,2.73s-.02-.05-.02-.07" fill="#2f3541"/><path d="M13.55,10.32l5.65-2.73s.01,.04,.02,.06l-5.65,2.73s-.01-.04-.02-.06" fill="#2f3541"/><path d="M13.57,10.38l5.65-2.73s.01,.04,.02,.06l-5.65,2.73s-.01-.04-.02-.06" fill="#2f3541"/><path d="M13.59,10.44l5.65-2.73s.01,.04,.02,.06l-5.65,2.73s-.01-.04-.02-.06" fill="#2f3541"/><path d="M13.6,10.51l5.65-2.73v.06l-5.63,2.73v-.06" fill="#2f3541"/><path d="M13.62,10.57l5.65-2.73v.06l-5.64,2.73v-.06" fill="#2f3541"/><path d="M13.63,10.63l5.65-2.73v.06l-5.64,2.73v-.06" fill="#2f3541"/><path d="M13.64,10.69l5.65-2.73v.06l-5.64,2.73v-.06" fill="#2f3541"/><path d="M13.65,10.75l5.65-2.73v.06l-5.64,2.73v-.06" fill="#2f3541"/><path d="M13.65,10.8l5.65-2.73v.06l-5.64,2.73v-.06" fill="#2f3541"/><path d="M13.66,10.86l5.65-2.73v.05l-5.65,2.73v-.05" fill="#2f3541"/><path d="M13.66,10.91l5.65-2.73s0,.04,0,.05l-5.65,2.73s0-.04,0-.05" fill="#2f3541"/><polyline points="13.66 10.97 19.31 8.24 19.31 8.25 13.66 10.97 13.66 10.97" fill="#2f3541"/></g></g></g><polygon points="13.66 11.41 19.31 8.69 21.78 9.89 16.13 12.62 13.66 11.41" fill="#2f3541"/><polygon points="16.13 12.62 21.78 9.89 21.76 13.83 16.11 16.55 16.13 12.62" fill="#2f3541"/></g></g><g opacity=".2"><path d="M7.24,17.05v.43c0,.1-.01,.19-.03,.27h0v.02s-.02,.04-.02,.06c-.01,.05-.03,.11-.05,.15,0,0,0,.02,0,.02h0s-.02,.04-.03,.05c-.06,.11-.15,.19-.24,.24,0,0-.01,.01-.02,.02l1.51-.73-1.1-.54Z" fill="#2f3541"/></g><path d="M15.05,16.04c-.2-.1-.36,.02-.36,.26s.16,.52,.35,.61l1.06,.52-.02,3.93-3.19-1.55v-1.31c0-.24-.14-.51-.34-.6s-.36,.02-.36,.26v1.31l-2.49-1.21-.71-.35-1.77-.86v.43c0,.73-.49,1.08-1.07,.8s-1.06-1.1-1.06-1.83v-.43l-2.48-1.21,.02-3.06-.35-.17c-.59-.29-1.06-1.11-1.06-1.83s.49-1.07,1.07-.79l.35,.17,.02-3.06,3.19,1.55v1.31c0,.24,.15,.52,.35,.61s.35-.03,.35-.27v-1.31l2.49,1.21,.71,.35,1.77,.86v-.44c0-.72,.49-1.07,1.07-.79s1.06,1.1,1.06,1.83v.44l2.47,1.21-.02,3.93-1.06-.52Zm-6.05,1v-2.19l-.34-.17c-.59-.29-1.06-1.11-1.06-1.83s.49-1.07,1.07-.79l.35,.17v-2.19l-1.75-.86v.43c0,.72-.49,1.08-1.07,.8s-1.06-1.11-1.06-1.83v-.43l-1.77-.86v2.19l-.02,.87-.71-.35-.35-.17c-.2-.1-.36,.02-.36,.26s.16,.52,.35,.61l.35,.17,.71,.35v.87l-.02,2.19,1.77,.86,.71,.35v1.31c0,.24,.15,.52,.35,.61s.35-.03,.35-.27v-1.31l.72,.35,1.77,.86m6.04,.75c-.59-.29-1.06-1.11-1.06-1.83s.49-1.07,1.07-.79l.35,.17v-2.19l-1.75-.86-.71-.35v-1.31c0-.24-.15-.51-.34-.6s-.36,.02-.36,.26v1.31l-.71-.35-1.77-.86v2.62l-.02,.44-.71-.35-.35-.17c-.2-.1-.36,.02-.36,.26s.16,.52,.35,.61l.35,.17,.71,.35v.87l-.02,2.19,1.77,.86v-.44c0-.72,.49-1.07,1.07-.79s1.06,1.1,1.06,1.83v.44l1.76,.86v-2.19l-.34-.17" fill="#2f3541"/><g opacity=".2"><path d="M1.93,8.85s.01,0,.02,0h0s.02,0,.03,0c.1,0,.21,.03,.32,.09l.35,.17v-.7l-1.01,.49s.02,0,.02,0c.08-.04,.17-.05,.27-.05Z" fill="#2f3541"/></g><rect x="0" width="24" height="24" transform="translate(24 24) rotate(180)" fill="none"/><path d="M12.21,18.1l-.02,1.36,.71-.35v-.62c0-.27-.16-.51-.34-.6s-.33,.01-.35,.22Z" fill="#2f3541" opacity=".2"/></svg>