<?xml version="1.0" encoding="UTF-8"?><svg id="a" xmlns="http://www.w3.org/2000/svg" viewBox="0 0 24 24"><rect x="0" y="0" width="24" height="24" fill="none"/><g><polygon points="20 7 12 3 4 7 12 10.84 20 7" fill="#2f3541" opacity=".2"/><g><g id="b" opacity=".2"><path d="M7.96,16.85v-.23l-1.43-.7v.09c.39,.24,.99,.45,1.36,.71v.24l-.37-.14v.11l.06,.08v.09h-.08v.09l.2,.16v.02l.08,.03,.04,.28-.05,.06,.03,.1h0c.04,.12,.03,.52,.03,.66l.13,.04v-1.7h0Z" fill="#2f3541"/><polygon points="7.96 14.16 6.54 13.46 6.56 13.59 7.88 14.24 7.9 14.63 7.53 14.45 7.51 14.48 7.57 14.63 7.52 14.69 7.52 14.96 7.82 15.1 7.87 16.08 7.96 16.07 7.96 14.16 7.96 14.16" fill="#2f3541"/><path d="M11.72,17.09s.03,.26,.04,.31l.07,.03v-.7h0v-.68c-.39-.13-1.05-.52-1.42-.65v.19l.33,.16,.04,.13h.05v-.14l.49,.24s.04,.07,.06,.09h-.01c.07,.05,.21,.12,.29,.14,.07,.21,.09,.67,.07,.89h0Z" fill="#2f3541"/><path d="M10.77,13.3c.28,.09,.73,.28,.94,.49,.04,.04,.03,1.07,.03,1.15l.06,.02v-1.38c-.13-.09-.43-.22-.57-.27,0-.05-.08-.07-.11-.08l-.03,.03c-.15-.12-.52-.27-.71-.33v.07s.22,.2,.21,.22l.18,.1Z" fill="#2f3541"/><path d="M10.87,18.17s.32,.17,.34,.18l.02-.02c.06,.04,.45,.24,.48,.3,.07,.24-.02,.94,.01,1.18l.09,.1h0v-1.37l-1.41-.72h-.03v.11c.07,.12,.37,.2,.48,.26Z" fill="#2f3541"/><path d="M4.39,9.9v.15c.05,.09,1.3,.67,1.38,.73v-.18s-1.33-.67-1.38-.7h0Z" fill="#2f3541"/><polygon points="4.38 12.43 4.43 12.55 5.22 12.94 5.22 12.96 5.28 12.94 5.28 12.97 5.78 13.21 5.75 13.04 4.44 12.4 4.38 12.43 4.38 12.43" fill="#2f3541"/><path d="M4.84,15.25l.35,.18,.04-.06,.54,.3v-.11l-1.36-.67,.06,.14c.12,.05,.27,.16,.38,.22Z" fill="#2f3541"/><polygon points="5.02 15.99 5.14 16.06 5.17 15.66 4.92 15.55 4.89 15.8 5.02 15.99 5.02 15.99" fill="#2f3541"/><polygon points="5.69 17.45 5.77 17.49 5.77 16.96 5.74 16.95 5.69 16.96 5.69 17.45 5.69 17.45" fill="#2f3541"/><polygon points="5.3 16.22 5.3 15.73 5.22 15.69 5.22 16.14 5.3 16.22 5.3 16.22" fill="#2f3541"/><path d="M4.5,15.57s.2-.06,.21-.06v-.03l-.2-.1v.19h0Z" fill="#2f3541"/><path d="M5.26,16.29c0,.07-.02,.19,.03,.24l.04-.16-.07-.08h0Z" fill="#2f3541"/><polygon points="5.25 16.65 5.27 16.75 5.32 16.76 5.33 16.73 5.25 16.65 5.25 16.65" fill="#2f3541"/><polygon points="7.46 14.42 7.06 14.22 7.06 14.41 7.25 14.5 7.37 14.7 7.26 14.83 7.39 14.94 7.24 15 7.4 15.1 7.43 15.31 7.46 14.42 7.46 14.42" fill="#2f3541"/><polygon points="5.05 14.16 5.07 13.78 5.2 13.8 5.2 13.31 4.9 13.17 4.9 14.08 5.05 14.16" fill="#2f3541"/><path d="M5.34,14.33c0-.1,.03-.91-.04-.98l-.06-.02,.03,.94,.07,.05h0Z" fill="#2f3541"/><path d="M4.57,13.57l-.07-.05h-.03c-.01,.07,0,.24,.04,.29l.18,.07,.06-.02-.02-.38-.04,.13-.12-.05h0Z" fill="#2f3541"/><path d="M4.51,13.27s.1-.1,.13-.13l.07,.27h.03l.03-.29-.24-.14c0,.06-.02,.24-.01,.29h0Z" fill="#2f3541"/><path d="M5.69,14.48v.47l.08,.05v-.54s-.08,.02-.08,.02h0Z" fill="#2f3541"/><path d="M7.17,17.59l.12,.06v.02l.17,.17v-1.05l-.31-.15v.6l.18,.11v.03l-.19-.07v.25l.03,.04h0Zm.12-.1v.02l-.08-.04v-.02l.08,.04Z" fill="#2f3541"/><polygon points="7.09 16.62 7.04 16.6 7.04 16.64 7.1 16.67 7.09 16.62 7.09 16.62" fill="#2f3541"/><polygon points="6.6 8.71 7.46 9.16 7.46 9.16 7.88 9.37 7.92 9.47 7.94 9.48 7.94 9.19 6.55 8.51 6.54 8.68 6.6 8.71" fill="#2f3541"/><polygon points="7.94 10.68 7.85 10.71 7.86 11.06 7.94 11.1 7.94 10.68 7.94 10.68" fill="#2f3541"/><path d="M6.53,11.04v.1c.31,.12,.92,.5,1.22,.57l.19,.22v-.27l-1.39-.65-.02,.03h0Z" fill="#2f3541"/><polygon points="7.85 13.54 7.94 13.58 7.94 13.14 7.85 13.14 7.85 13.54 7.85 13.54" fill="#2f3541"/><path d="M4.39,7.45v.14c.03,.1,1.32,.68,1.38,.74v-.21l-1.38-.68h0Z" fill="#2f3541"/><polygon points="5.75 9.61 5.72 9.61 5.68 9.67 5.69 10.02 5.77 10.08 5.75 9.61 5.75 9.61" fill="#2f3541"/><polygon points="5.69 12.49 5.77 12.54 5.77 12.08 5.69 12.06 5.69 12.49 5.69 12.49" fill="#2f3541"/><polygon points="9.66 17.46 8.7 16.99 8.74 17.14 9.52 17.51 9.55 18.8 9.66 18.87 9.66 17.46 9.66 17.46" fill="#2f3541"/><path d="M8.74,14.69l.4,.28,.04-.03,.35,.25,.05,1.14,.09,.06v-1.39l-.97-.48,.02,.18h.03Zm.77,.43l.04-.03,.06,.13-.03,.02-.07-.12h0Z" fill="#2f3541"/><path d="M10.4,10.41v.13l.94,.5v.11c.05,.09,.24,.37,.36,.4l.03,.92h0l.07,.02v-1.39" fill="#2f3541"/><polygon points="10.75 11.12 10.76 11.25 10.79 11.21 10.79 10.82 10.4 10.61 10.4 10.67 10.76 10.89 10.75 11.12 10.75 11.12" fill="#2f3541"/><path d="M9.62,11.43l.05-.05c-.01-.05,.02-1.29,0-1.34l-.96-.47,.03,.32s.37,.2,.38,.18l.06-.08,.05,.12,.39,.19,.02,1.13h0Z" fill="#2f3541"/><path d="M9.68,13.59v-.99l-.03-.04v-.06l-.95-.47v.24l.48,.23v-.03l.06,.08s.3,.11,.31,.11l.06,.09v.81h0c-.02,.07-.02,.22,0,.29,.01,0,.06,.07,.07,.08v-.35h0Z" fill="#2f3541"/></g><g id="c" opacity=".4"><path d="M5.8,17.59v-2.07l-1.46-.72v2.06l1.46,.72Zm-.54-1.1h-.02v.16l.08,.09v.03h-.11c-.04-.06-.02-.5-.03-.58l.03-.04v-.45l.08,.05v.49s-.03,.05-.04,.07l.07,.08-.04,.16-.03-.05h0Zm-.76-.92v.39s.09-.09,.12-.11l.02-.05,.02,.07,.05,.04s.03,.5,0,.51l-.26-.12v-.91h0l.04,.17v-.19l.22,.1v.03s-.21,.07-.22,.06h0Zm.34-.31v.24h-.07v-.28c-.07-.06-.23-.15-.31-.18l-.06-.14,1.36,.67v.11l-.54-.3-.04,.06-.35-.18h0Zm.18,.74l-.13-.19,.02-.25,.25,.11-.03,.4-.12-.07h0Zm.67,1.46v-.49h.08v.53l-.08-.04h0Zm-.23-1.05l-.09,.22-.04-.1,.04-.16,.09,.04Zm-.67,.66l-.03-.06,.1-.07h0l-.08,.13h0Zm.72-.55h.02v.1h-.03v-.1h0Z" fill="#2f3541"/><path d="M7.96,14.16l-.04-.08-1.41-.68c0,.08-.01,.7,.03,.76l.05,.04h0v-.51c.48,.28,.41,.94,.39,1.41-.04,.02-.35-.16-.39-.17v-.38l-.05-.03c.02,.26-.11,.64,.02,.88l-.03,.05,1.42,.7v-.09h-.09l-.05-.97-.3-.15v-.26l.05-.06-.05-.16,.02-.03,.37,.18-.02-.39-1.32-.65v-.12l1.4,.7Zm-.77,1.02s-.1-.04-.14-.05l.04-.47,.03,.18,.09-.05v.02l-.12,.18c.05,.1,.21,.18,.3,.22v.04l-.19-.07h0Zm.27-.77l-.03,.89-.03-.21-.16-.1,.16-.06-.13-.11,.11-.13-.12-.2-.19-.09v-.19l.4,.19Zm.23-.02l-.02-.05,.14-.11v.02l-.12,.14h0Z" fill="#2f3541"/><path d="M4.38,12.43c-.05,.09,0,1.84-.02,1.95l1.44,.71c-.01-.07,.04-2.04-.04-2.05l.03,.17-.5-.25v-.03l-.06,.02v-.02l-.79-.39-.05-.12h0Zm.12,.86v.22l.07,.05v-.1l.12,.15,.04-.13,.02,.38-.06,.02-.18-.07-.02,.08c-.04-.22-.03-.63-.04-.85h.01l.04,.15,.02-.21,.24,.14-.03,.3h-.03l-.07-.28s-.12,.11-.14,.16h0Zm1.2,1.18l-.32-.1s-.08-.09-.11-.11l-.03-.94,.06,.02,.05,.13,.02-.43,.35,.28v1.15l.06-.02v.54l-.08-.05v-.47h0Zm-.64-.32l-.16-.08v-.91l.3,.15v.49l-.13-.02v.37h-.01Zm-.5-.24v-.05l.12,.07v.05l-.12-.07h0Z" fill="#2f3541"/><path d="M7.96,16.85l.03-.25-1.49-.73-.02,2.05,1.42,.69,.05-.06-.13-.04c0-.14,0-.53-.03-.66h0l-.03-.1,.05-.06-.04-.28-.08-.03v-.02l-.19-.16v-.08h.07v-.1l-.07-.08v-.11l.38,.14v-.24c-.18-.11-.62-.38-.82-.42l.02,.24-.09-.05,.04-.21-.51-.28v-.09l1.41,.7v.23h.01Zm-1.38-.3v-.45h.03l.04,.08,.33,.12c0,.36-.02,.96,.15,1.27v-.25l.19,.07v-.03l-.18-.11v-.6l.31,.15v1.05l-.17-.17v-.02l-.11-.06v.12s-.2-.16-.21-.15l-.03,.02-.32-.21s-.02-.76-.02-.82h0Zm.52,.07v.05l-.05-.03v-.04l.05,.02Z" fill="#2f3541"/><path d="M6.51,10.43l-.04,.05,1.5,.74v-2.06l-1.47-.72v.22h.04v-.15l1.4,.67v.29h-.02l-.04-.1-.42-.21h0l-.59-.32c.05,.16,.42,.35,.55,.42v.42l-.42-.21-.03,.32,.07-.14,.1,.07,.02,.16,.2,.13v.04s-.19-.07-.24-.09l-.06,.02v.04l.3,.19-.33-.06,.02,.04c.18,.16,.57,.28,.75,.43v.04l-1.27-.62v.2l.58,.33-.03-.11c.15,.11,.63,.44,.73,.59-.13-.01-1.2-.55-1.3-.63h0Zm1.38-.94v.4l-.41-.2,.02-.39,.39,.19Zm.05,1.19v.43l-.08-.05-.02-.35,.09-.03Zm-.18-.48l-.26-.09,.26,.09Zm0,.2v.03l-.25-.12v-.03l.25,.12Z" fill="#2f3541"/><path d="M6.5,12.92c0,.13,1.41,.69,1.47,.76v-2.02l-1.45-.72v.11h0l.02-.03,1.39,.65v.27l-.19-.22c-.3-.07-.91-.45-1.21-.57l.06,.1c.22,.09,.65,.31,.84,.46v.2l-.14,.11-.3-.18v.2l.36,.25c0,.06,.05,.25,.02,.3l.04,.1v.07l.07,.09,.04-.6,.3,.45-.06,.09,.12,.17v.11c-.17,.08-1.16-.49-1.32-.56v.44l-.06-.02h0Zm.98-.87l.02-.32,.39,.22v.31l-.41-.2h0Zm.36,1.49v-.4h.09v.44l-.09-.05h0Z" fill="#2f3541"/><path d="M4.36,9.39l.02,.07,1.42,.72v-2.07c-.05-.06-1.35-.66-1.42-.7v.04l1.38,.68v.21c-.06-.06-1.35-.64-1.38-.74l.02,.17,.44,.18v.5l-.35-.17v.34l.17,.1v-.23l.18,.06v.67l-.36-.2c-.06-.07-.04-.31-.03-.39h-.06c-.02,.2,0,.59,.15,.76l.08-.03,.11,.11,.35,.08s.41,.27,.46,.31h0l.1,.05v.14l-1.29-.63h0Zm1,.02c-.02-.13,0-1,0-1.16l.37,.21v.77l-.19-.03v.04l.2,.05,.03,.8-.08-.05v-.35l.03-.06-.82-.36v-.47l.09,.08,.04-.13,.25,.16v.49l.08,.02Zm-.46-.96v-.44l.39,.22,.02,.42-.4-.2h0Z" fill="#2f3541"/><path d="M4.36,11.88c-.03,.06,1.4,.72,1.44,.75v-1.89l-.02-.13v.18c-.09-.06-1.34-.64-1.39-.73,0,.22-.02,1.57,.05,1.75l.17-.04,.97,.57v.14l-1.23-.58h0Zm1.01-.04s-.03-1.11,0-1.15l.36,.18v.84s-.11,.2-.13,.19l-.04,.11s-.14-.1-.19-.12v-.05h-.01Zm-.48-.56l.02-.12,.08,.02,.03-.18,.25,.12c.01,.16-.01,.47-.08,.62l.05,.08-.38-.18,.02-.36h0Zm-.44-.51v-.55l.4,.18v.4l-.35-.17v.3l.06-.17,.28,.2v.69c-.05-.06-.33-.18-.4-.22v-.66h0Zm.45-.32l.37,.18,.02,.36-.39-.16v-.38h0Zm.79,2.04v-.44l.08,.03v.45l-.08-.05h0Z" fill="#2f3541"/><path d="M8.65,18.87c-.03,.06,1.01,.53,1.04,.56v-1.99l-1.03-.5v.4l.07-.08h.05s.16,.16,.19,.19h.1v.74l.02,.14-.14-.02v.04l.14,.1v.1c-.07-.02-.22-.07-.28-.1l-.14,.12c0,.06-.03,.27,0,.32h-.04Zm1.02-1.42v1.4l-.12-.07-.03-1.29-.77-.37-.05-.16,.97,.47Zm-.46,.93v-.81l.11-.03c.13,.14,.09,.6,.16,.77l-.14-.02,.1,.2-.23-.11h0Zm.31,.28l-.31-.09v-.13l.31,.22h0Z" fill="#2f3541"/><path d="M8.66,15.92v.52l1.03,.51v-1.99l-1.02-.5c0,.08-.01,.24,.05,.3l.19,.09c.15,.23,.1,.67,.13,.92h.03l.03-.63h.02v.97l-.45-.2h0Zm.55-.77l.02-.1s.1,.08,.12,.09c.12,.19,.03,.69,.1,.89l-.03,.05,.03,.21-.26-.13,.02-1h0Zm-.47-.46h-.03l-.02-.17,.97,.48v1.39l-.09-.06-.05-1.14-.35-.25-.04,.03-.4-.28h0Z" fill="#2f3541"/><path d="M11.79,11.1v1.39l-.07-.02-.04,.02-1.29-.62v.15l.35,.17v.03l.11,.05-.03,.13,.02,.03,.07-.02v-.11l.08-.02v.02c.16,.08,.43,.3,.52,.45l.06-.02,.14,.2c-.07,.04-1.27-.65-1.34-.66h0l.04,.09,1.41,.69v-1.99l-1.46-.72v.45l.06,.04h.09l.02,.11,.23,.13v-.19l-.36-.22v-.06l.39,.22v.39l-.03,.04,.02,.75h.07s.01-.2,0-.25l.03-.03,.41,.2c0,.06-.03,.17,0,.22l.07,.02c0-.12,0-.65-.03-.76h.02l.07-.13,.06,.02,.02,.13,.02,.02h.06l-.24-.31v-.11l-.93-.5v-.13l1.4,.69Zm-.54,0c.06,.05,.04,.61,.04,.69l-.04,.04-.4-.2v-.73l.4,.2Z" fill="#2f3541"/><path d="M8.67,10.26v1.23l1.02,.51v-1.98l-1.02-.5v.66c.05-.16,.07-.43,.03-.6l.96,.47c.03,.05,0,1.29,0,1.34l-.05,.05-.4-.2c0-.07,0-.2-.03-.26l.03-.05c-.05-.17-.06-.64,0-.81l-.05-.12-.06,.08v1.1l-.43-.21s0-.26,.04-.29h-.02l-.04-.42h0Z" fill="#2f3541"/><path d="M10.37,14.74l-.04,.05,1.5,.74v-1.98l-.35-.17v.02l.31,.18v1.38c-.09,.02-.86-.38-.95-.42,0-.04,0-.33-.04-.35h.03v-.84c.08,.04,.46,.28,.55,.25-.04-.09-.55-.25-.63-.29l.02,.75,.04,.06h-.04v.35h-.02l-.34-.15h-.04v.44h0Zm.19,.1v-.03l.39,.19,.09-.16,.12-.07c.07,.18,.45,.35,.61,.42v.25l-1.21-.59h0Z" fill="#2f3541"/><path d="M8.67,13.46l.03,.42,.23,.11,.02-.03-.11-.15,.2,.32,.68,.33c-.01-.12,.05-.52-.09-.6h-.05l-.38-.14c.05-.35-.07-.84,.05-1.18l-.05-.08v.03l-.47-.23v-.24l-.04-.02c-.01,.09,0,.26,.06,.34l.37,.18c0,.08-.02,1.11,.03,1.15-.03-.02-.43-.24-.46-.22h0Z" fill="#2f3541"/><path d="M10.37,17.21l.05,.09,.33,.17h0l-.08-.17,.56,.27v-.04l-.11-.15,.06-.06,.06,.09v-.02c.05,.04,.17,.13,.24,.12l.03-.12,.27,.2c0,.09,0,.29,.05,.37v-.53l-.07-.03s0-.27-.04-.31c0,.04,0,.23-.03,.26l-.04,.03-1.25-.6c0,.07,0,.37-.03,.43h0Z" fill="#2f3541"/><path d="M10.82,15.88h-.05l-.04-.14-.32-.16v-.19c.35,.13,1.02,.52,1.4,.65l-.03-.06c-.06-.02-1.36-.69-1.4-.64v.26l.28,.14c.15,.11,.14,.99,.16,1.15l.02,.03c.06-.1-.02-.92-.01-1.04h0Z" fill="#2f3541"/><path d="M10.38,12.92c.19,.06,.55,.21,.71,.33l.03-.03-.74-.38v.08h0Z" fill="#2f3541"/><polygon points="8.97 14.11 8.95 14.05 8.7 13.94 8.66 13.96 8.97 14.11" fill="#2f3541"/><polygon points="10.38 13.08 10.58 13.18 10.38 12.99 10.38 13.08 10.38 13.08" fill="#2f3541"/><path d="M11.22,13.26l.02,.04s.16,.09,.21,.08c-.04-.05-.16-.1-.21-.12h-.02Z" fill="#2f3541"/><polygon points="11.82 16.42 11.82 16.72 11.82 16.42 11.82 16.42" fill="#2f3541"/><polygon points="4.52 9.97 4.73 10.07 4.52 9.97 4.52 9.97" fill="#2f3541"/><polygon points="8.66 18.09 8.75 18 8.67 17.89 8.66 18.09 8.66 18.09" fill="#2f3541"/><polygon points="7.96 17.9 7.96 17.97 7.96 17.9 7.96 17.9" fill="#2f3541"/><polygon points="6.51 8.82 6.51 8.78 6.49 8.79 6.51 8.82 6.51 8.82" fill="#2f3541"/><polygon points="9.68 13.59 9.7 13.6 9.7 13.56 9.68 13.54 9.68 13.59 9.68 13.59" fill="#2f3541"/><polygon points="6.51 9.33 6.51 9.33 6.51 9.33 6.51 9.33" fill="#2f3541"/><polygon points="10.39 17.78 10.39 17.81 10.41 17.8 10.39 17.78 10.39 17.78" fill="#2f3541"/><polygon points="6.98 12.47 6.93 12.46 6.91 12.6 6.98 12.67 6.98 12.47 6.98 12.47" fill="#2f3541"/><polygon points="6.6 8.71 6.54 8.68 6.55 8.79 6.57 8.81 6.6 8.71 6.6 8.71" fill="#2f3541"/><path d="M11.82,19.9s-.09-.1-.1-.1h-.13l-1.18-.53v.41l.75,.37,.42-.14c.02,.09,.13,.21,.21,.26l-.04,.16,.07,.08v-.5h0Z" fill="#2f3541"/><path d="M10.87,18.17c-.11-.04-.37-.15-.46-.22l.05,.11,.04,.02c-.02,.32-.13,.75-.06,1.08,.07,.04,.36,.15,.39,.24l.02-.14,.07,.02v-.02l-.08-.09c0-.09-.02-.94,.04-1h0Z" fill="#2f3541"/><path d="M11.62,16.33l.06,.05v.18l.04,.02-.08-.38-.14-.05h0s.12,.17,.12,.18h0Z" fill="#2f3541"/><polygon points="11.31 15.97 11.33 16.01 11.31 15.97 11.31 15.97" fill="#2f3541"/><polygon points="11.34 16.01 11.37 16.06 11.34 16.01 11.34 16.01" fill="#2f3541"/><polygon points="9.66 12.49 9.65 12.56 9.68 12.6 9.66 12.49 9.66 12.49" fill="#2f3541"/><polygon points="7.28 17.5 7.2 17.46 7.2 17.48 7.28 17.52 7.28 17.5 7.28 17.5" fill="#2f3541"/><polygon points="4.51 8.67 4.5 8.73 4.65 8.88 4.67 8.75 4.51 8.67 4.51 8.67" fill="#2f3541"/><polygon points="9.51 15.13 9.58 15.26 9.61 15.23 9.55 15.1 9.51 15.13 9.51 15.13" fill="#2f3541"/><path d="M9.59,11.36h.02v-.16s-.03,.15-.02,.16h0Z" fill="#2f3541"/><polygon points="9.49 12.7 9.6 12.75 9.54 12.66 9.26 12.56 9.26 12.59 9.49 12.7" fill="#2f3541"/></g><g id="d" opacity=".6"><path d="M6.53,11.04h-.02v1.88l.05,.02v-.44c.16,.07,1.14,.64,1.32,.56v-.11l-.12-.17,.06-.09-.3-.45-.04,.6-.08-.09v-.07l-.02-.1c.04-.05,0-.25-.02-.3l-.34-.25v-.2l.29,.18,.14-.11v-.2c-.19-.14-.62-.37-.84-.46-.04-.04-.08-.14-.08-.2h0Zm.38,1.56l-.33-.14,.04-.83,.35,.31v.73l-.07-.07h0Zm.81,.35l-.22-.07,.04-.1,.27,.24-.09-.07h0Zm-.64-.27l-.03-.12,.02-.02,.08,.09v.03l-.07,.02h0Zm.09,.04v-.05l.13,.07v.04l-.13-.06h0Z" fill="#2f3541"/><path d="M6.54,8.67h-.03v.66h0v1.1c.11,.08,1.17,.61,1.31,.63-.1-.15-.59-.48-.73-.59l.03,.11-.57-.33v-.2l1.26,.62v-.04c-.17-.15-.56-.28-.74-.43l-.02-.04,.33,.06-.29-.19v-.04l.05-.02s.19,.09,.24,.09v-.04l-.21-.13-.02-.16-.1-.07c-.09,.09-.08,.43-.09,.54l-.39-.19,.04-.68c.13,.04,.3,.35,.37,.46l.02-.3,.42,.21v-.42c-.29-.11-.55-.45-.82-.55l-.03,.1-.03-.02v-.11h0Z" fill="#2f3541"/><path d="M10.38,17.91l-.02,1.81,1.49,.7s.02-.5-.03-.52h0v.5l-.07-.08,.04-.16c-.07-.05-.19-.17-.21-.26l-.42,.14-.75-.37v-.41l1.18,.55h.12l-.34-.18v-.13l.35,.19-.02-.09-.34-.17v-.11l.36,.18s.04-.87-.01-.88v.78l-.34-.17v-.78l.34,.17c-.02-.05-.43-.27-.48-.3l-.02,.02,.08,.07v.77l-.4-.2s0-.8,.01-.8l-.03-.03c-.06,.05-.04,.91-.04,1l.08,.09v.02l-.08-.02-.02,.14c-.03-.08-.32-.2-.39-.24-.12-.4,.18-.89-.05-1.24h0Zm.89,1.7l-.37-.18,.02-.14,.34,.17v.15h0Zm-.36-.48l.37,.17-.08,.05-.29-.22h0Z" fill="#2f3541"/><path d="M4.36,9.39l1.29,.63v-.14l-.1-.04h0c-.05-.05-.43-.27-.46-.32l-.35-.08-.11-.11-.08,.03c-.14-.17-.17-.56-.15-.77h.06v-.03l.04,.03v-.33l.35,.17v-.5l-.44-.18-.03-.35c-.07,.06,0,1.91-.03,1.98h0Z" fill="#2f3541"/><path d="M10.36,12.27c.06,0,1.27,.69,1.34,.66l-.14-.2-.06,.02c-.09-.16-.36-.37-.52-.45v-.02l-.08,.02v.11l-.07,.02-.02-.03,.03-.13-.1-.05v-.03l-.34-.17v-.15l.47,.21-.03-.06h-.07l-.03-.33-.22-.09-.05,.06,.03,.2-.1-.05v-.98l-.06-.04v1.48h0Z" fill="#2f3541"/><path d="M8.73,17.24l-.07,.08v.57l.09,.1-.09,.09c0,.09-.03,.56,0,.64l.02-.18,.14-.12c.06,.03,.2,.08,.27,.1v-.1l-.13-.1v-.04l.14,.02-.03-.14v-.74h-.08s-.18-.15-.19-.2c0,.08,.03,.71,0,.77l-.03-.02-.02-.73h0Zm.15,.3v0h0Zm.03,.86l-.03-.02v-.1l.03,.02v.1h0Zm-.04-.29h.03v.1h-.03v-.1h0Zm-.09,.22h-.03v-.11h.02v.11h0Z" fill="#2f3541"/><path d="M11.83,17.96c-.05-.08-.05-.28-.05-.37l-.27-.2-.03,.12c-.07,.01-.19-.09-.24-.12v.02l-.06-.09-.06,.06,.12,.15v.04l-.57-.27c.02,.26,.92,.56,1.09,.68l.07-.02Z" fill="#2f3541"/><path d="M4.36,11.88l1.23,.58v-.14l-.98-.57-.17,.04c-.07-.16-.05-1.69-.05-1.89-.08,.06,0,1.9-.03,1.98h0Z" fill="#2f3541"/><path d="M8.66,15.92l.45,.2v-.96h-.02l-.03,.63h-.03c-.03-.26,.02-.7-.13-.93l-.19-.09-.05-.11s0,1.23,0,1.26h0Zm.32-.1l-.25-.12v-.87l.16,.09,.09,.9h0Zm-.05,.04v.15l-.17-.08v-.14l.17,.07Z" fill="#2f3541"/><path d="M8.67,10.26l.04,.41h.02s-.03,.26-.04,.3l.42,.21v-.41l-.38-.18v-.66c-.03,.09-.07,.24-.06,.34h0Z" fill="#2f3541"/><path d="M10.43,15.63l-.05-.03c-.03,.07,0,1.54,0,1.61,.04-.06,.02-.36,.03-.43l.54,.25v-.07l-.08-.08-.02,.04-.02-.03-.04-.4-.08,.02,.05,.07-.05,.08-.11-.04h0c.07,.03,.16,.19,.19,.24l-.34-.13c0-.12-.04-1.02,0-1.11h0Z" fill="#2f3541"/><path d="M8.67,12l.99,.49s.02,.99,.02,1.05h.02s0-1.03,0-1.06c-.04,0-.99-.53-1.03-.48h0Z" fill="#2f3541"/><path d="M8.67,13.46h.06c0-.11,.03-1.2-.06-1.27-.02,.08-.01,1.19,0,1.27h0Z" fill="#2f3541"/><path d="M10.59,13.21v-.03l-.21-.1c-.02,.12-.02,1.12,0,1.23h.04c0-.06-.02-1.12,0-1.14l.17,.04Z" fill="#2f3541"/><path d="M6.51,14.9c.03-.09,.03-.29,.03-.38l.05,.03v-.35l-.05-.04-.03-.11c-.02,.09-.02,.76,0,.85h0Z" fill="#2f3541"/><polygon points="9.02 14.14 8.83 13.82 8.94 13.97 8.92 14 8.69 13.88 8.66 13.55 8.66 13.96 8.7 13.94 8.95 14.05 8.97 14.11 9.02 14.14" fill="#2f3541"/><path d="M11.83,16.72v1.23c.04-.13,.04-1.11,0-1.23h0Z" fill="#2f3541"/><polygon points="11.39 18.27 11.83 18.52 11.8 18.45 11.39 18.27 11.39 18.27" fill="#2f3541"/><polygon points="9.67 13.94 9.7 14.01 9.7 13.6 9.68 13.59 9.67 13.94 9.67 13.94" fill="#2f3541"/><path d="M10.85,13.06c.06,.04,.29,.18,.36,.19,0-.05-.32-.17-.36-.19h0Z" fill="#2f3541"/><path d="M10.38,15.34c.08,0,.24,.07,.31,.11l-.3-.16-.02,.06h0Z" fill="#2f3541"/><polygon points="11.13 18.15 11.36 18.25 11.13 18.15 11.13 18.15" fill="#2f3541"/><polygon points="6.51 14.01 6.51 13.57 6.51 14.01 6.51 14.01" fill="#2f3541"/><polygon points="10.45 12.86 10.76 13.02 10.45 12.86 10.45 12.86" fill="#2f3541"/><polygon points="10.85 18 11.06 18.11 10.85 18 10.85 18" fill="#2f3541"/><path d="M11.78,15.99s.04,.24,.05,.29l.02-.24-.06-.05h0Z" fill="#2f3541"/><polygon points="6.54 15.46 6.56 15.4 6.51 15.3 6.48 15.43 6.54 15.46" fill="#2f3541"/><polygon points="11.36 15.78 11.47 15.84 11.36 15.78 11.36 15.78" fill="#2f3541"/><path d="M11.37,13.32s.09,.07,.12,.08v-.02l-.12-.06h0Z" fill="#2f3541"/><polygon points="8.65 18.87 8.69 18.88 8.66 18.79 8.65 18.87 8.65 18.87" fill="#2f3541"/><polygon points="10.37 14.74 10.38 14.62 10.37 14.74 10.37 14.74" fill="#2f3541"/><polygon points="11.6 15.9 11.69 15.94 11.6 15.9 11.6 15.9" fill="#2f3541"/><polygon points="11.23 13.26 11.29 13.28 11.23 13.26 11.23 13.26" fill="#2f3541"/><polygon points="11.5 15.85 11.55 15.87 11.5 15.85 11.5 15.85" fill="#2f3541"/><polygon points="11.83 16.59 11.83 16.67 11.85 16.64 11.83 16.59 11.83 16.59" fill="#2f3541"/><polygon points="11.83 19.42 11.83 19.48 11.83 19.42 11.83 19.42" fill="#2f3541"/><polygon points="10.79 15.5 10.82 15.51 10.79 15.5 10.79 15.5" fill="#2f3541"/><polygon points="10.38 17.81 10.39 17.81 10.39 17.78 10.38 17.78 10.38 17.81 10.38 17.81" fill="#2f3541"/><polygon points="11.56 13.41 11.57 13.42 11.56 13.41 11.56 13.41" fill="#2f3541"/><path d="M10.74,17.47h0Z" fill="#2f3541"/><path d="M4.62,15.85s-.11,.07-.12,.11v.09l-.05,.07s.03,.14,.05,.17l-.05,.02,.26,.12s0-.48,0-.51l-.05-.04h0v.18l-.03-.2h0Zm0,.42h.03v.1h-.03v-.1h0Z" fill="#2f3541"/><path d="M5.3,16.22l-.08-.08-.03,.04c0,.08,0,.52,.03,.59l.06-.02c-.04-.15-.06-.39,.03-.53h0Z" fill="#2f3541"/><polygon points="4.84 15.25 4.77 15.22 4.77 15.48 4.85 15.49 4.84 15.25 4.84 15.25" fill="#2f3541"/><polygon points="5.46 16.4 5.37 16.35 5.34 16.52 5.38 16.62 5.46 16.4 5.46 16.4" fill="#2f3541"/><path d="M4.45,15.54l.05,.21c.01-.09,0-.26-.04-.35h-.01v.14h0Z" fill="#2f3541"/><polygon points="4.79 17.06 4.87 16.95 4.87 16.94 4.77 17 4.79 17.06 4.79 17.06" fill="#2f3541"/><polygon points="5.51 16.51 5.51 16.6 5.53 16.61 5.53 16.53 5.51 16.51 5.51 16.51" fill="#2f3541"/><polygon points="4.65 15.86 4.64 15.8 4.62 15.85 4.62 15.85 4.65 15.87 4.65 15.86 4.65 15.86" fill="#2f3541"/><path d="M6.99,14.37c0-.26-.15-.54-.38-.68v.39c.08,.06,.32,.2,.38,.3h0Z" fill="#2f3541"/><polygon points="7.16 15.1 7.08 15 7.22 14.82 7.2 14.8 7.11 14.84 7.09 14.67 7.05 15.14 7.1 15.15 7.12 15.1 7.16 15.1" fill="#2f3541"/><path d="M6.99,14.49c0,.16-.03,.45,0,.6,0-.08,.04-.54,0-.6h0Z" fill="#2f3541"/><polygon points="7.19 15.19 7.38 15.26 7.38 15.22 7.18 15.12 7.19 15.19 7.19 15.19" fill="#2f3541"/><polygon points="7.68 14.39 7.81 14.26 7.8 14.24 7.66 14.35 7.68 14.39 7.68 14.39" fill="#2f3541"/><path d="M6.97,15.1h0Z" fill="#2f3541"/><polygon points="5.34 14.33 5.38 14.38 5.69 14.48 5.7 14.48 5.71 13.33 5.36 13.05 5.34 14.33 5.34 14.33" fill="#2f3541"/><polygon points="4.57 13.57 4.68 13.62 4.55 13.47 4.57 13.57 4.57 13.57" fill="#2f3541"/><path d="M4.45,13.19l.04,.11v-.03c.02-.05-.01-.17-.03-.22h-.01v.14h0Z" fill="#2f3541"/><polygon points="4.56 13.91 4.68 13.98 4.68 13.93 4.56 13.86 4.56 13.91 4.56 13.91" fill="#2f3541"/><polygon points="4.51 13.81 4.48 13.77 4.49 13.9 4.51 13.81 4.51 13.81" fill="#2f3541"/><path d="M6.96,17.56c-.04-.06-.2-.12-.27-.15l.02-1.2,.12,.37,.12,.07s.01,.1,.03,.11v-.47l-.33-.12v.58h0v.29h0v.18h0l.02,.13-.06,.02,.32,.21,.03-.02h0Zm-.09-1.12l-.02-.07,.02-.03,.02,.04-.03,.06h0Z" fill="#2f3541"/><path d="M6.99,16.99v.58l.17,.14v-.12c-.15-.15-.07-.43-.17-.6h0Z" fill="#2f3541"/><polygon points="7.07 16.31 7.05 16.3 7 16.51 7.09 16.55 7.07 16.31 7.07 16.31" fill="#2f3541"/><polygon points="7.89 9.49 7.5 9.3 7.48 9.69 7.89 9.89 7.89 9.49 7.89 9.49" fill="#2f3541"/><path d="M7.76,10.2l-.26-.09,.26,.09Z" fill="#2f3541"/><polygon points="7.75 10.39 7.5 10.27 7.5 10.3 7.75 10.42 7.75 10.39 7.75 10.39" fill="#2f3541"/><polygon points="7.48 12.04 7.89 12.24 7.89 11.93 7.5 11.72 7.48 12.04 7.48 12.04" fill="#2f3541"/><path d="M5.75,9.61v-.34l-.2-.05v-.04l.19,.03v-.77l-.37-.21c0,.07-.04,1.02,0,1.05l.13,.07v.13s-.16-.11-.22-.11v-.49l-.25-.16-.04,.13-.09-.08v.47s.81,.37,.84,.36Z" fill="#2f3541"/><polygon points="4.9 8.44 5.3 8.64 5.28 8.22 4.9 8 4.9 8.44 4.9 8.44" fill="#2f3541"/><polygon points="4.49 9 4.85 9.2 4.85 8.53 4.67 8.47 4.67 8.71 4.5 8.61 4.51 8.67 4.67 8.75 4.65 8.88 4.5 8.73 4.49 9 4.49 9" fill="#2f3541"/><path d="M5.46,11.93l.1,.08,.04-.11s.13-.19,.14-.19v-.84l-.38-.18c-.02,.09-.03,.97-.01,1.05l.12,.08v.12h-.01Z" fill="#2f3541"/><path d="M4.76,11.58l.09,.07v-.69l-.28-.2-.04,.17v-.3l.33,.17v-.4l-.4-.18c-.02,.21,.02,.65,.06,.85l.08-.04,.22,.18,.03,.22-.25-.16-.09,.02c.05,.04,.31,.2,.31,.28l-.05,.02h0Z" fill="#2f3541"/><path d="M4.89,11.42l-.02,.22,.38,.18-.05-.08c.06-.15,.09-.46,.08-.62l-.25-.12-.03,.18-.08-.02-.02,.12,.08,.02,.08-.11,.13,.28-.03,.22-.24-.12-.02-.15h0Z" fill="#2f3541"/><polygon points="4.9 10.45 4.9 10.82 5.29 10.99 5.27 10.63 4.9 10.45 4.9 10.45" fill="#2f3541"/><polygon points="5.38 11.89 5.37 11.84 5.38 11.89 5.38 11.89" fill="#2f3541"/><path d="M9.21,18.39l.23,.11-.1-.2,.14,.02c-.07-.17-.03-.63-.16-.77l-.1,.03v.81h0Z" fill="#2f3541"/><polygon points="9.51 18.66 9.21 18.44 9.2 18.57 9.51 18.66" fill="#2f3541"/><path d="M9.38,15.19v.61l-.07,.04,.06,.08h-.15l-.02,.24,.26,.13-.03-.21,.03-.05c-.07-.17,.02-.67-.09-.84h0Zm0,.9l-.14,.03v-.14l.14,.11h0Z" fill="#2f3541"/><polygon points="9.27 15.08 9.36 15.14 9.27 15.08 9.27 15.08" fill="#2f3541"/><polygon points="9.21 15.15 9.24 15.05 9.21 15.15 9.21 15.15" fill="#2f3541"/><polygon points="9.22 15.83 9.21 15.73 9.22 15.83 9.22 15.83" fill="#2f3541"/><path d="M11.73,12.47l-.03-.92s-.14-.1-.19-.09l.05,.07,.02,.46-.23-.14v.32l-.07-.02-.02,.11,.43,.22,.04-.02Zm-.15-.41v.04l-.12-.06v-.04l.12,.06Z" fill="#2f3541"/><polygon points="11.26 12.03 10.86 11.83 10.85 11.92 11.26 12.12 11.26 12.03 11.26 12.03" fill="#2f3541"/><path d="M11.25,11.11v.73l.04-.04c0-.08,.02-.64-.04-.69h0Z" fill="#2f3541"/><polygon points="11.34 11.57 11.37 11.43 11.49 11.44 11.46 11.31 11.4 11.28 11.34 11.42 11.32 11.41 11.34 11.57 11.34 11.57" fill="#2f3541"/><path d="M10.75,11.58s-.18-.11-.24-.11v.04c.05,.05,.18,.12,.24,.15v-.09h0Z" fill="#2f3541"/><path d="M10.75,11.12v-.04l-.23-.13c.03,.06,.17,.14,.23,.18h0Z" fill="#2f3541"/><polygon points="10.85 11.76 10.87 11.73 10.85 11.76 10.85 11.76" fill="#2f3541"/><path d="M9.6,11.21v-.91l-.39-.19c-.05,.17-.04,.64,0,.81l-.03,.05c.04,.06,.04,.19,.03,.26l.05-.04,.31,.15v-.14h.01Zm-.24-.9l.2,.29v.38l-.33-.16v-.62l.11,.05v.06h.01Z" fill="#2f3541"/><polygon points="9.59 11.36 9.58 11.41 9.62 11.43 9.61 11.37 9.59 11.36 9.59 11.36" fill="#2f3541"/><polygon points="9.08 10.07 9.1 10.13 9.11 10.07 9.08 10.07 9.08 10.07" fill="#2f3541"/><path d="M10.56,14.84l1.21,.59v-.25c-.16-.07-.54-.24-.61-.42l-.12,.07-.09,.16-.39-.19v.03h0Z" fill="#2f3541"/><path d="M11.29,13.57c0,.08,.01,1.12-.02,1.16,.06,.02,.41,.23,.47,.2,0-.06,0-1.13-.03-1.14v.71l-.25-.09,.24,.26-.23-.06v.03l.23,.16v.1l-.35-.17v-1.11l.35,.17c-.07-.09-.3-.21-.42-.21h0Z" fill="#2f3541"/><polygon points="10.79 14.05 10.78 14.11 10.83 14.11 10.79 14.05 10.79 14.05" fill="#2f3541"/><polygon points="10.85 14.23 10.85 14.16 10.82 14.18 10.85 14.23 10.85 14.23" fill="#2f3541"/><path d="M10.79,14.46h0Z" fill="#2f3541"/><polygon points="10.85 14.33 10.88 14.33 10.85 14.29 10.85 14.33 10.85 14.33" fill="#2f3541"/><path d="M9.26,12.56h-.03c-.07,.18-.06,.63-.02,.82h.03c.05,.04,.34,.22,.34,.3l.02-.12h0v-.81l-.12-.05-.05,.09,.12,.66-.33-.12c-.06-.21-.01-.57,.02-.78h0Z" fill="#2f3541"/><path d="M9.6,13.8s0-.13-.02-.14c-.09-.04-.31-.13-.38-.2v.27l.31,.13-.29-.17,.03-.11,.36,.22h0Z" fill="#2f3541"/><polygon points="9.1 13.43 8.94 13.37 9.1 13.55 9.1 13.43 9.1 13.43" fill="#2f3541"/><polygon points="9.1 13.26 8.94 13.25 9.1 13.36 9.1 13.26 9.1 13.26" fill="#2f3541"/><polygon points="9.11 13.57 9.03 13.6 8.92 13.58 9.13 13.68 9.11 13.57 9.11 13.57" fill="#2f3541"/><polygon points="9.6 13.86 9.57 13.88 9.61 13.87 9.6 13.86 9.6 13.86" fill="#2f3541"/><path d="M10.85,16.63v-.81l.43,.14v.85h0l.02,.14h-.11l.1,.09v.16l.36,.18,.04-.03-.29-.17,.04-.02,.27,.14c0-.08,.01-.26,0-.34l-.18-.08v.28l-.16-.08v-1.01h0s-.04-.08-.06-.1l-.48-.24c0,.13-.01,.79,.02,.9h0Z" fill="#2f3541"/><polygon points="11.72 16.57 11.69 16.55 11.71 16.85 11.72 16.57 11.72 16.57" fill="#2f3541"/><polygon points="10.76 16.16 10.77 16.37 10.76 16.16 10.76 16.16" fill="#2f3541"/><polygon points="10.66 15.74 10.76 15.94 10.66 15.74 10.66 15.74" fill="#2f3541"/><polygon points="10.85 16.82 10.88 16.79 10.86 16.75 10.85 16.82 10.85 16.82" fill="#2f3541"/><polygon points="6.67 9.9 6.82 9.97 6.82 9.94 6.67 9.87 6.67 9.9 6.67 9.9" fill="#2f3541"/><polygon points="10.49 18.07 10.51 18.12 10.49 18.07 10.49 18.07" fill="#2f3541"/><polygon points="11.62 16.33 11.5 16.16 11.52 16.28 11.62 16.33" fill="#2f3541"/></g><g id="e" opacity=".8"><path d="M4,17.07l8,3.93V10.84L4,7v10.07h0Zm6.39,.71s1.39,.65,1.41,.67c.05,.41,.02,1.57,.05,1.97l-1.49-.7s.04-1.9,.02-1.95h.02Zm1.43-1.18l.02,.05-.02,.03v.05h0c.04,.12,.04,1.1,0,1.23l-.07,.02c-.06-.03-.99-.47-1.01-.52h0l-.33-.16c-.11-.33-.04-1.69-.02-2.02,.06,.04,1.41,.68,1.45,.74v.56h-.01Zm-.46-3.28l.47,.23v1.98l-1.5-.74,.04-.05c0-.35,0-1.53,.01-1.9,.03,.02,.86,.38,.83,.42h.02l.14,.06Zm-1.67,.28v.87l-1.04-.51c0-.51-.02-1.44,0-1.96,.04-.05,.99,.47,1.03,.48,0,.08,.02,1.06,0,1.11h0Zm-5.18-3.63c.06,.03,1.25,.6,1.26,.64l.02,.13v1.89s-1.48-.69-1.45-.75c.03-.08-.05-1.92,.03-1.98l.13,.06Zm4.15,8.12v-1.16l1.03,.5v1.99s-1.07-.5-1.04-.56c.02-.17,0-.6,.02-.78h0Zm-.7-.11v.57l-.06,.06-1.42-.69,.02-2.05,1.49,.73-.03,1.37h0Zm.71-7.71v-.74l1.02,.5v1.98l-1.03-.51v-1.23h.01Zm1.7,2.01v-1.93l1.46,.72v1.99l-1.41-.69-.04-.09h0Zm-3.86-2.94h0v-.54h0v-.36l1.46,.72v2.06l-1.5-.74,.04-.05v-1.1h0Zm2.15,5.32v-.2l1.03,.5v1.99l-1.03-.51s-.02-1.75,0-1.78h0ZM4.38,7.41c.07,.04,1.36,.64,1.42,.7v2.07l-1.42-.72c-.04-.11-.05-1.94,0-2.05h0Zm2.12,3.63v-.11l1.47,.72v2.02c-.07-.07-1.47-.63-1.48-.76v-1.88h0Zm-.75,2.01c.09,0,.03,1.98,.04,2.05l-1.44-.71c.01-.1-.03-1.85,.02-1.95l.06-.04,1.31,.64Zm.76,1.01v-.65l1.41,.68c.1,.06,0,2,.04,2.08l-1.48-.73c.09-.37-.03-1,.03-1.38h0Zm-.71,3.53l-1.46-.72v-2.06l1.46,.72v2.07h0Z" fill="#2f3541"/><path d="M6.99,14.37c-.05-.09-.3-.24-.38-.3v.12c.08,.04,.32,.15,.38,.22v-.04h0Z" fill="#2f3541"/><polygon points="6.58 16.55 6.61 16.54 6.66 16.59 6.66 16.17 6.61 16.1 6.58 16.1 6.58 16.55 6.58 16.55" fill="#2f3541"/><polygon points="4.65 15.87 4.62 15.85 4.66 16.05 4.65 15.87 4.65 15.87" fill="#2f3541"/><polygon points="4.63 16.27 4.63 16.35 4.65 16.37 4.66 16.28 4.63 16.27 4.63 16.27" fill="#2f3541"/><polygon points="6.97 16.74 6.95 16.65 6.84 16.58 6.71 16.21 6.69 16.61 6.97 16.74" fill="#2f3541"/><polygon points="6.86 16.44 6.89 16.37 6.87 16.34 6.84 16.37 6.86 16.44 6.86 16.44" fill="#2f3541"/></g><g id="f"><path d="M4.45,16.11l.05-.07c.01-.13,0-.38-.05-.5v.57h0Z" fill="#2f3541"/><polygon points="5.26 16.49 5.26 16.36 5.24 16.49 5.26 16.49" fill="#2f3541"/><polygon points="4.45 16.3 4.5 16.28 4.45 16.17 4.45 16.3 4.45 16.3" fill="#2f3541"/><path d="M6.6,14.2v.73s.35,.19,.39,.17c-.03-.17,0-.51,0-.68-.06-.07-.3-.18-.38-.22h0Z" fill="#2f3541"/><polygon points="7.19 15.19 7.18 15.12 7.16 15.1 7.12 15.1 7.1 15.15 7.19 15.19" fill="#2f3541"/><path d="M4.46,13.52h.03c0-.08,0-.27-.04-.33v.33h.01Z" fill="#2f3541"/><path d="M6.96,17.56h.03v-.8s-.28-.15-.29-.15v.81c.07,.02,.22,.09,.27,.15h0Z" fill="#2f3541"/><path d="M6.6,17.37l.06-.02-.02-.14h0v-.18h0v-.29h0v-.16l-.03-.05h-.04c0,.07-.02,.8,.02,.83h0Z" fill="#2f3541"/><path d="M6.99,9.78c-.07-.11-.24-.41-.37-.46l-.04,.68,.39,.19,.02-.42h0Zm-.32,.12v-.03l.15,.07v.03l-.15-.07h0Z" fill="#2f3541"/><path d="M4.51,8.67v-.08l-.04-.03c-.02,.1-.04,.34,.02,.43v-.33h.01Z" fill="#2f3541"/><polygon points="5.36 9.4 5.51 9.5 5.5 9.37 5.36 9.3 5.36 9.4 5.36 9.4" fill="#2f3541"/><path d="M4.76,11.58l.05-.02c0-.08-.26-.24-.31-.28l.09-.02,.25,.16-.03-.22-.22-.18-.08,.04c0-.06-.02-.25-.06-.3v.66l.31,.15Z" fill="#2f3541"/><polygon points="4.89 11.42 4.91 11.57 5.15 11.69 5.19 11.47 5.06 11.19 4.97 11.3 4.89 11.28 4.89 11.42 4.89 11.42" fill="#2f3541"/><path d="M5.46,11.93v-.12l-.1-.08s0,.12,.02,.15l.08,.05Z" fill="#2f3541"/><path d="M8.73,17.24l.02,.73,.03,.02c.03-.05,0-.69,0-.77h-.05Z" fill="#2f3541"/><path d="M9.22,15.83v.09h.15l-.06-.08,.08-.04s0-.66-.03-.66c-.03-.02-.1-.07-.12-.09-.04,.05-.01,.71-.02,.78h0Z" fill="#2f3541"/><polygon points="6.98 12.47 6.97 11.94 6.62 11.63 6.58 12.46 6.91 12.6 6.93 12.46 6.98 12.47" fill="#2f3541"/><polygon points="7.72 12.95 7.81 13.02 7.54 12.78 7.5 12.88 7.72 12.95" fill="#2f3541"/><polygon points="7.08 12.68 7.14 12.67 7.15 12.63 7.06 12.54 7.04 12.56 7.08 12.68 7.08 12.68" fill="#2f3541"/><polygon points="7.17 12.73 7.3 12.79 7.3 12.75 7.17 12.68 7.17 12.73 7.17 12.73" fill="#2f3541"/><polygon points="11.25 11.11 10.85 10.91 10.85 11.65 11.25 11.84 11.25 11.11 11.25 11.11" fill="#2f3541"/><path d="M10.41,10.83v.98l.1,.05-.03-.2,.05-.06,.22,.09v-.02c-.06-.03-.19-.11-.24-.15v-.04c.05,0,.19,.08,.24,.11v-.46c-.06-.03-.19-.11-.23-.18l-.02-.11h-.09Z" fill="#2f3541"/><path d="M11.35,11.85l.23,.14-.02-.46s-.05-.08-.07-.09h-.12c-.03,.08-.03,.31-.02,.41h0Z" fill="#2f3541"/><path d="M11.25,12.26l.02-.11v-.03l-.42-.2s0,.12,.02,.15l.38,.19Z" fill="#2f3541"/><polygon points="10.85 11.76 10.86 11.83 11.26 12.03 11.28 11.93 10.87 11.73 10.85 11.76 10.85 11.76" fill="#2f3541"/><path d="M11.21,18.34l-.31-.15s-.01,.78-.01,.8l.4,.2v-.77l-.08-.07h0Z" fill="#2f3541"/><polygon points="11.71 18.62 11.36 18.45 11.36 19.24 11.71 19.41 11.71 18.62 11.71 18.62 11.71 18.62" fill="#2f3541"/><polygon points="11.27 19.61 11.27 19.46 10.93 19.3 10.91 19.43 11.27 19.61" fill="#2f3541"/><polygon points="11.7 19.61 11.72 19.51 11.36 19.33 11.36 19.44 11.7 19.61" fill="#2f3541"/><polygon points="11.71 19.8 11.72 19.8 11.72 19.8 11.72 19.69 11.37 19.5 11.37 19.63 11.71 19.8" fill="#2f3541"/><polygon points="10.91 19.13 11.2 19.35 11.29 19.3 10.91 19.13 10.91 19.13" fill="#2f3541"/><path d="M10.49,18.07l-.04-.02,.04,.15s.02-.11,0-.14h0Z" fill="#2f3541"/><path d="M9.08,10.07l-.35-.18v.69l.38,.18s.02-.68-.02-.69h0Z" fill="#2f3541"/><path d="M9.59,11.35l-.31-.15-.05,.04,.36,.18s.02-.05,0-.07h0Z" fill="#2f3541"/><path d="M10.85,14.33v.2l.42,.21s.02-1.09,.02-1.16l-.44-.24v.95l.03,.04h-.03Z" fill="#2f3541"/><path d="M10.59,13.21l-.17-.04s0,1.08,0,1.13l.34,.17h.02c0-.27,0-.9-.02-1.17l-.18-.1h0Z" fill="#2f3541"/><path d="M8.73,12.35v1.12c.06,.04,.23,.13,.3,.13l.08-.03s-.15-.19-.16-.2l.15,.06v-.08l-.16-.1h.16v-.72l-.37-.18h0Z" fill="#2f3541"/><path d="M9.6,13.8l-.36-.22-.03,.11s.31,.19,.35,.19l.03-.02v-.06h0Z" fill="#2f3541"/><path d="M9.2,13.45c.07,.07,.29,.16,.38,.2l-.02-.06-.3-.22h-.03l-.02,.07h0Z" fill="#2f3541"/><polygon points="10.85 16.88 10.92 16.95 10.93 17.03 11.29 17.2 11.29 17.04 11.18 16.93 11.29 16.95 11.27 16.8 11.28 16.81 11.28 15.96 10.86 15.82 10.86 16.75 10.88 16.79 10.85 16.82 10.85 16.88 10.85 16.88" fill="#2f3541"/><polygon points="11.7 17.29 11.43 17.16 11.39 17.18 11.68 17.35 11.7 17.29 11.7 17.29" fill="#2f3541"/><polygon points="8.88 17.55 8.88 18.05 8.88 17.55 8.88 17.55" fill="#2f3541"/><polygon points="8.92 18.4 8.92 18.3 8.89 18.29 8.88 18.39 8.92 18.4" fill="#2f3541"/><polygon points="8.88 18.12 8.89 18.2 8.91 18.21 8.91 18.13 8.88 18.12 8.88 18.12" fill="#2f3541"/><polygon points="8.78 18.34 8.78 18.25 8.75 18.24 8.75 18.33 8.78 18.34" fill="#2f3541"/><path d="M11.35,16.07v1.01l.17,.08v-.28l.18,.08-.03-.58s-.12-.08-.16-.1l-.02-.13h0l-.15-.08h0Z" fill="#2f3541"/><polygon points="8.98 15.81 8.89 14.91 8.73 14.82 8.73 15.69 8.98 15.81" fill="#2f3541"/><polygon points="8.93 15.85 8.74 15.78 8.76 15.92 8.92 16 8.93 15.85 8.93 15.85" fill="#2f3541"/><path d="M10.43,15.63c-.04,.08,0,1,0,1.11l.34,.13c-.03-.06-.12-.22-.19-.23h0l.11,.02,.05-.08-.05-.07,.08-.02c0-.16,.02-.63-.11-.76l-.23-.11h0Z" fill="#2f3541"/><polygon points="9.37 16.09 9.24 15.98 9.23 16.12 9.37 16.09" fill="#2f3541"/><polygon points="11.58 12.06 11.46 12.01 11.46 12.05 11.58 12.1 11.58 12.06 11.58 12.06" fill="#2f3541"/><polygon points="9.36 10.31 9.35 10.24 9.23 10.19 9.23 10.81 9.56 10.97 9.56 10.6 9.36 10.31 9.36 10.31" fill="#2f3541"/><polygon points="11.71 13.79 11.37 13.62 11.36 14.73 11.7 14.9 11.7 14.8 11.47 14.64 11.47 14.61 11.7 14.67 11.47 14.41 11.71 14.5 11.71 13.79 11.71 13.79 11.71 13.79" fill="#2f3541"/><path d="M9.49,12.7l-.23-.11c-.04,.19-.07,.55-.02,.75l.33,.12-.12-.66,.05-.09h0Z" fill="#2f3541"/></g></g><g opacity=".6"><g id="g" opacity=".2"><path d="M16.16,16.85v-.23l1.43-.7v.09c-.39,.24-.99,.45-1.36,.71v.24l.37-.14v.11l-.06,.08v.09h.08v.09l-.2,.16v.02l-.08,.03-.04,.28,.05,.06-.03,.1h0c-.04,.12-.03,.52-.03,.66l-.13,.04v-1.7h0Z" fill="#2f3541"/><polygon points="16.16 14.16 17.58 13.46 17.57 13.59 16.25 14.24 16.22 14.63 16.6 14.45 16.61 14.48 16.56 14.63 16.6 14.69 16.6 14.96 16.31 15.1 16.25 16.08 16.17 16.07 16.16 14.16 16.16 14.16" fill="#2f3541"/><path d="M12.41,17.09s-.03,.26-.04,.31l-.07,.03v-.7h0v-.68c.39-.13,1.05-.52,1.42-.65v.19l-.33,.16-.04,.13h-.05v-.14l-.49,.24s-.04,.07-.06,.09h.01c-.07,.05-.21,.12-.29,.14-.07,.21-.09,.67-.07,.89h0Z" fill="#2f3541"/><path d="M13.35,13.3c-.28,.09-.73,.28-.94,.49-.04,.04-.03,1.07-.03,1.15l-.06,.02v-1.38c.13-.09,.43-.22,.57-.27,0-.05,.08-.07,.11-.08l.03,.03c.15-.12,.52-.27,.71-.33v.07s-.22,.2-.21,.22l-.18,.1h0Z" fill="#2f3541"/><path d="M13.26,18.17s-.32,.17-.34,.18l-.02-.02c-.06,.04-.45,.24-.48,.3-.07,.24,.02,.94-.01,1.18l-.09,.1h0v-1.37l1.41-.72h.03v.11c-.07,.12-.37,.2-.48,.26h0Z" fill="#2f3541"/><path d="M19.74,9.9v.15c-.05,.09-1.3,.67-1.38,.73v-.18s1.33-.67,1.38-.7Z" fill="#2f3541"/><polygon points="19.75 12.43 19.7 12.55 18.91 12.94 18.91 12.96 18.84 12.94 18.84 12.97 18.34 13.21 18.37 13.04 19.68 12.4 19.75 12.43" fill="#2f3541"/><path d="M19.28,15.25l-.35,.18-.04-.06-.54,.3v-.11l1.36-.67-.06,.14c-.12,.04-.27,.16-.38,.22h0Z" fill="#2f3541"/><polygon points="19.1 15.99 18.99 16.06 18.96 15.66 19.21 15.55 19.23 15.8 19.1 15.99 19.1 15.99" fill="#2f3541"/><polygon points="18.43 17.45 18.35 17.49 18.35 16.96 18.39 16.95 18.43 16.96 18.43 17.45 18.43 17.45" fill="#2f3541"/><polygon points="18.82 16.22 18.82 15.73 18.91 15.69 18.91 16.14 18.82 16.22 18.82 16.22" fill="#2f3541"/><path d="M19.62,15.57s-.2-.06-.21-.06v-.03l.2-.1v.19h0Z" fill="#2f3541"/><path d="M18.86,16.29c0,.07,.02,.19-.03,.24l-.04-.16,.07-.08h0Z" fill="#2f3541"/><polygon points="18.87 16.65 18.85 16.75 18.81 16.76 18.8 16.73 18.87 16.65 18.87 16.65" fill="#2f3541"/><polygon points="16.67 14.42 17.06 14.22 17.06 14.41 16.88 14.5 16.75 14.7 16.86 14.83 16.73 14.94 16.89 15 16.73 15.1 16.69 15.31 16.67 14.42 16.67 14.42" fill="#2f3541"/><polygon points="19.07 14.16 19.06 13.78 18.92 13.8 18.92 13.31 19.23 13.17 19.23 14.08 19.07 14.16 19.07 14.16" fill="#2f3541"/><path d="M18.79,14.33c0-.1-.03-.91,.04-.98l.06-.02-.03,.94-.07,.05h0Z" fill="#2f3541"/><path d="M19.56,13.57l.07-.05h.03c.01,.07,0,.24-.04,.29l-.18,.07-.06-.02,.02-.38,.04,.13,.12-.05Z" fill="#2f3541"/><path d="M19.62,13.27s-.1-.1-.13-.13l-.07,.27h-.03l-.03-.29,.24-.14c0,.06,.02,.24,.01,.29h0Z" fill="#2f3541"/><path d="M18.43,14.48v.47l-.08,.05v-.54s.08,.02,.08,.02h0Z" fill="#2f3541"/><path d="M16.96,17.59l-.12,.06v.02l-.17,.17v-1.05l.31-.15v.6l-.18,.11v.03l.19-.07v.25l-.03,.04h0Zm-.12-.1v.02l.08-.04v-.02l-.08,.04h0Z" fill="#2f3541"/><polygon points="17.03 16.62 17.09 16.6 17.08 16.64 17.03 16.67 17.03 16.62 17.03 16.62" fill="#2f3541"/><polygon points="17.52 8.71 16.66 9.16 16.66 9.16 16.24 9.37 16.2 9.47 16.19 9.48 16.19 9.19 17.58 8.51 17.59 8.68 17.52 8.71 17.52 8.71" fill="#2f3541"/><polygon points="16.18 10.68 16.28 10.71 16.26 11.06 16.18 11.1 16.18 10.68 16.18 10.68" fill="#2f3541"/><path d="M17.6,11.04v.1c-.31,.12-.92,.5-1.22,.57l-.19,.22v-.27l1.39-.65,.02,.03h0Z" fill="#2f3541"/><polygon points="16.28 13.54 16.19 13.58 16.19 13.14 16.28 13.14 16.28 13.54 16.28 13.54" fill="#2f3541"/><path d="M19.74,7.45v.14c-.03,.1-1.32,.68-1.38,.74v-.21l1.38-.68Z" fill="#2f3541"/><polygon points="18.38 9.61 18.4 9.61 18.44 9.67 18.43 10.02 18.35 10.08 18.38 9.61 18.38 9.61" fill="#2f3541"/><polygon points="18.44 12.49 18.36 12.54 18.36 12.08 18.44 12.06 18.44 12.49 18.44 12.49" fill="#2f3541"/><polygon points="14.46 17.46 15.43 16.99 15.38 17.14 14.61 17.51 14.58 18.8 14.46 18.87 14.46 17.46 14.46 17.46" fill="#2f3541"/><path d="M15.38,14.69l-.4,.28-.04-.03-.35,.25-.05,1.14-.09,.06v-1.39l.97-.48-.02,.18h-.03Zm-.77,.43l-.04-.03-.06,.13,.03,.02,.07-.12h0Z" fill="#2f3541"/><path d="M12.4,12.47l-.07,.02v-1.39l.37-.18h0l1.03-.51v.13l-.94,.5v.11c-.05,.09-.24,.37-.36,.4l-.03,.92h0Z" fill="#2f3541"/><polygon points="13.37 11.12 13.36 11.25 13.33 11.21 13.33 10.82 13.72 10.61 13.72 10.67 13.37 10.89 13.37 11.12 13.37 11.12" fill="#2f3541"/><path d="M14.5,11.43l-.05-.05c.01-.05-.02-1.29,0-1.34l.96-.47-.03,.32s-.37,.2-.38,.18l-.06-.08-.05,.12-.39,.19-.02,1.13h0Z" fill="#2f3541"/><path d="M14.45,13.59v-.99l.03-.04v-.06l.95-.47v.24l-.48,.23v-.03l-.06,.08s-.3,.11-.31,.11l-.06,.09v.81h0c.02,.07,.02,.22,0,.29-.01,0-.06,.07-.07,.08v-.35h0Z" fill="#2f3541"/></g><g id="h" opacity=".4"><path d="M18.32,17.59v-2.07l1.46-.72v2.06l-1.46,.72h0Zm.54-1.1h.02v.16l-.08,.09v.03h.11c.04-.06,.02-.5,.03-.58l-.03-.04v-.45l-.08,.05v.49s.03,.05,.04,.07l-.07,.08,.04,.16,.03-.05h0Zm.76-.92v.39s-.09-.09-.12-.11l-.02-.05-.02,.07-.05,.04s-.03,.5,0,.51l.26-.12v-.91h0l-.04,.17v-.19l-.22,.1v.03s.21,.07,.22,.06Zm-.34-.31v.24h.07v-.28c.07-.06,.23-.15,.31-.18l.06-.14-1.36,.67v.11l.54-.3,.04,.06,.35-.18Zm-.18,.74l.13-.19-.02-.25-.25,.11,.03,.4,.12-.07h0Zm-.67,1.46v-.49h-.08v.53l.08-.04Zm.23-1.05l.09,.22,.04-.1-.04-.16-.09,.04h0Zm.67,.66l.03-.06-.1-.07h0l.08,.13h0Zm-.72-.55h-.02v.1h.03v-.1h0Z" fill="#2f3541"/><path d="M16.16,14.16l.04-.08,1.41-.68c0,.08,.01,.7-.03,.76l-.05,.04h0v-.51c-.48,.28-.41,.94-.39,1.41,.04,.02,.35-.16,.39-.17v-.38l.05-.03c-.02,.26,.11,.64-.02,.88l.03,.05-1.42,.7v-.09h.09l.05-.97,.3-.15v-.26l-.05-.06,.05-.16-.02-.03-.37,.18,.02-.39,1.32-.65v-.12l-1.4,.7h0Zm.77,1.02s.1-.04,.14-.05l-.04-.47-.03,.18-.09-.05v.02l.12,.18c-.05,.1-.21,.18-.3,.22v.04l.19-.07Zm-.27-.77l.03,.89,.03-.21,.16-.1-.16-.06,.13-.11-.11-.13,.12-.2,.19-.09v-.19l-.4,.19h0Zm-.23-.02l.02-.05-.14-.11v.02l.12,.14h0Z" fill="#2f3541"/><path d="M19.75,12.43c.05,.09,0,1.84,.02,1.95l-1.44,.71c.01-.07-.04-2.04,.04-2.05l-.03,.17,.5-.25v-.03l.06,.02v-.02l.79-.39,.05-.12h0Zm-.12,.86v.22l-.07,.05v-.1l-.12,.15-.04-.13-.02,.38,.06,.02,.18-.07,.02,.08c.04-.22,.03-.63,.04-.85h-.01l-.04,.15-.02-.21-.24,.14,.03,.3h.03l.07-.28s.12,.11,.14,.16h0Zm-1.2,1.18l.32-.1s.08-.09,.11-.11l.03-.94-.06,.02-.05,.13-.02-.43-.35,.28v1.15l-.06-.02v.54l.08-.05v-.47h0Zm.64-.32l.16-.08v-.91l-.3,.15v.49l.13-.02v.37h.01Zm.5-.24v-.05l-.12,.07v.05l.12-.07Z" fill="#2f3541"/><path d="M16.16,16.85l-.03-.25,1.49-.73,.02,2.05-1.42,.69-.05-.06,.13-.04c0-.14,0-.53,.03-.66h0l.03-.1-.05-.06,.04-.28,.08-.03v-.02l.19-.16v-.08h-.07v-.1l.07-.08v-.11l-.38,.14v-.24c.18-.11,.62-.38,.82-.42l-.02,.24,.09-.05-.04-.21,.51-.28v-.09l-1.41,.7v.23h-.01Zm1.38-.3v-.45h-.03l-.04,.08-.33,.12c0,.36,.02,.96-.15,1.27v-.25l-.19,.07v-.03l.18-.11v-.6l-.31,.15v1.05l.17-.17v-.02l.11-.06v.12s.2-.16,.21-.15l.03,.02,.32-.21s.02-.76,.02-.82h0Zm-.52,.07v.05l.05-.03v-.04l-.05,.02h0Z" fill="#2f3541"/><path d="M17.61,10.43l.04,.05-1.5,.74v-2.06l1.47-.72v.22h-.04v-.15l-1.4,.67v.29h.02l.04-.1,.42-.21h0l.59-.32c-.05,.16-.42,.35-.55,.42v.42l.42-.21,.03,.32-.07-.14-.1,.07-.02,.16-.2,.13v.04s.19-.07,.24-.09l.06,.02v.04l-.3,.19,.33-.06-.02,.04c-.18,.16-.57,.28-.75,.43v.04l1.27-.62v.2l-.58,.33,.03-.11c-.15,.11-.63,.44-.73,.59,.13-.01,1.2-.55,1.3-.63h0Zm-1.38-.94v.4l.41-.2-.02-.39-.39,.19h0Zm-.05,1.19v.43l.08-.05,.02-.35-.09-.03h0Zm.18-.48l.26-.09-.26,.09h0Zm0,.2v.03l.25-.12v-.03l-.25,.12h0Z" fill="#2f3541"/><path d="M17.62,12.92c0,.13-1.41,.69-1.47,.76v-2.02l1.45-.72v.11h0l-.02-.03-1.39,.65v.27l.19-.22c.3-.07,.91-.45,1.21-.57l-.06,.1c-.22,.09-.65,.31-.84,.46v.2l.14,.11,.3-.18v.2l-.36,.25c0,.06-.05,.25-.02,.3l-.04,.1v.07l-.07,.09-.04-.6-.3,.45,.06,.09-.12,.17v.11c.17,.08,1.16-.49,1.32-.56v.44l.06-.02Zm-.98-.87l-.02-.32-.39,.22v.31l.41-.2Zm-.36,1.49v-.4h-.09v.44l.09-.05Z" fill="#2f3541"/><path d="M19.77,9.39l-.02,.07-1.42,.72v-2.07c.05-.06,1.35-.66,1.42-.7v.04l-1.38,.68v.21c.06-.06,1.35-.64,1.38-.74l-.02,.17-.44,.18v.5l.35-.17v.34l-.17,.1v-.23l-.18,.06v.67l.36-.2c.06-.07,.04-.31,.03-.39h.06c.02,.2,0,.59-.15,.76l-.08-.03-.11,.11-.35,.08s-.41,.27-.46,.31h0l-.1,.05v.14l1.29-.63Zm-1,.02c.02-.13,0-1,0-1.16l-.37,.21v.77l.19-.03v.04l-.2,.05-.03,.8,.08-.05v-.35l-.03-.06,.82-.36v-.47l-.09,.08-.04-.13-.25,.16v.49l-.08,.02h0Zm.46-.96v-.44l-.39,.22-.02,.42,.4-.2Z" fill="#2f3541"/><path d="M19.77,11.88c.03,.06-1.4,.72-1.44,.75v-1.89l.02-.13v.18c.09-.06,1.34-.64,1.39-.73,0,.22,.02,1.57-.05,1.75l-.17-.04-.97,.57v.14l1.23-.58Zm-1.01-.04s.03-1.11,0-1.15l-.36,.18v.84s.11,.2,.13,.19l.04,.11s.14-.1,.19-.12v-.05h.01Zm.48-.56l-.02-.12-.08,.02-.03-.18-.25,.12c-.01,.16,.01,.47,.08,.62l-.05,.08,.38-.18-.02-.36h0Zm.44-.51v-.55l-.4,.18v.4l.35-.17v.3l-.06-.17-.28,.2v.69c.05-.06,.33-.18,.4-.22v-.66h0Zm-.45-.32l-.37,.18-.02,.36,.39-.16v-.38h0Zm-.79,2.04v-.44l-.08,.03v.45l.08-.05Z" fill="#2f3541"/><path d="M15.48,18.87c.03,.06-1.01,.53-1.04,.56v-1.99l1.03-.5v.4l-.07-.08h-.05s-.16,.16-.19,.19h-.1v.74l-.02,.14,.14-.02v.04l-.14,.1v.1c.07-.02,.22-.07,.28-.1l.14,.12c0,.06,.03,.27,0,.32h.04Zm-1.02-1.42v1.4l.12-.07,.03-1.29,.77-.37,.05-.16-.97,.47h0Zm.46,.93v-.81l-.11-.03c-.13,.14-.09,.6-.16,.77l.14-.02-.1,.2,.23-.11Zm-.31,.28l.31-.09v-.13l-.31,.22h0Z" fill="#2f3541"/><path d="M15.47,15.92v.52l-1.03,.51v-1.99l1.02-.5c0,.08,.01,.24-.05,.3l-.19,.09c-.15,.23-.1,.67-.13,.92h-.03l-.03-.63h-.02v.97l.45-.2Zm-.55-.77l-.02-.1s-.1,.08-.12,.09c-.12,.19-.03,.69-.1,.89l.03,.05-.03,.21,.26-.13-.02-1h0Zm.47-.46h.03l.02-.17-.97,.48v1.39l.09-.06,.05-1.14,.35-.25,.04,.03,.4-.28h0Z" fill="#2f3541"/><path d="M13.76,12.27l-.04,.09-1.41,.69v-1.99l1.46-.72v.45l-.06,.04h-.09l-.02,.11-.23,.13v-.19l.36-.22v-.06l-.39,.22v.39l.03,.04-.02,.75h-.07s-.01-.2,0-.25l-.03-.03-.41,.2c0,.06,.03,.17,0,.22l-.07,.02c0-.12,0-.65,.03-.76h-.02l-.07-.13-.06,.02-.02,.13-.02,.02h-.06l.24-.31v-.11l.93-.5v-.13l-1.03,.5h0l-.37,.18v1.39l.07-.02,.04,.02,1.29-.62v.15l-.35,.17v.03l-.11,.05,.03,.13-.02,.03-.07-.02v-.11l-.08-.02v.02c-.16,.08-.43,.3-.52,.45l-.06-.02-.14,.2c.07,.04,1.27-.65,1.34-.66Zm-.89-1.16c-.06,.05-.04,.61-.04,.69l.04,.04,.4-.2v-.73l-.4,.2h0Z" fill="#2f3541"/><path d="M15.46,10.26v1.23l-1.02,.51v-1.98l1.02-.5v.66c-.05-.16-.07-.43-.03-.6l-.96,.47c-.03,.05,0,1.29,0,1.34l.05,.05,.4-.2c0-.07,0-.2,.03-.26l-.03-.05c.05-.17,.06-.64,0-.81l.05-.12,.06,.08v1.1l.43-.21s0-.26-.04-.29h.02l.04-.42h0Z" fill="#2f3541"/><path d="M13.75,14.74l.04,.05-1.5,.74v-1.98l.35-.17v.02l-.31,.18v1.38c.09,.02,.86-.38,.95-.42,0-.04,0-.33,.04-.35h-.03v-.84c-.08,.04-.46,.28-.55,.25,.04-.09,.55-.25,.63-.29l-.02,.75-.04,.06h.04v.35h.02l.34-.15h.04v.44h0Zm-.19,.1v-.03l-.39,.19-.09-.16-.12-.07c-.07,.18-.45,.35-.61,.42v.25l1.21-.59Z" fill="#2f3541"/><path d="M15.46,13.46l-.03,.42-.23,.11-.02-.03,.11-.15-.2,.32-.68,.33c.01-.12-.05-.52,.09-.6h.05l.38-.14c-.05-.35,.07-.84-.05-1.18l.05-.08v.03l.47-.23v-.24l.04-.02c.01,.09,0,.26-.06,.34l-.37,.18c0,.08,.02,1.11-.03,1.15,.04-.02,.43-.24,.46-.22Z" fill="#2f3541"/><path d="M13.76,17.21l-.05,.09-.33,.17h0l.08-.17-.56,.27v-.04l.11-.15-.06-.06-.06,.09v-.02c-.05,.04-.17,.13-.24,.12l-.03-.12-.27,.2c0,.09,0,.29-.05,.37v-.53l.07-.03s0-.27,.04-.31c0,.04,0,.23,.03,.26l.04,.03,1.25-.6c0,.07,0,.37,.03,.43h0Z" fill="#2f3541"/><path d="M13.3,15.88h.05l.04-.14,.32-.16v-.19c-.35,.13-1.02,.52-1.4,.65l.03-.06c.06-.02,1.36-.69,1.4-.64v.26l-.28,.14c-.15,.11-.14,.99-.16,1.15l-.02,.03c-.06-.1,.02-.92,.01-1.04h0Z" fill="#2f3541"/><path d="M13.74,12.92c-.19,.06-.55,.21-.71,.33l-.03-.03,.74-.38v.08h0Z" fill="#2f3541"/><polygon points="15.15 14.11 15.18 14.05 15.42 13.94 15.46 13.96 15.15 14.11 15.15 14.11" fill="#2f3541"/><polygon points="13.75 13.08 13.54 13.18 13.74 12.99 13.75 13.08 13.75 13.08" fill="#2f3541"/><path d="M12.91,13.26l-.02,.04s-.16,.09-.21,.08c.04-.05,.16-.1,.21-.12h.02Z" fill="#2f3541"/><polygon points="12.3 16.42 12.3 16.72 12.3 16.42 12.3 16.42" fill="#2f3541"/><path d="M19.61,9.97l-.21,.1,.21-.1Z" fill="#2f3541"/><polygon points="15.46 18.09 15.38 18 15.46 17.89 15.46 18.09 15.46 18.09" fill="#2f3541"/><polygon points="16.17 17.9 16.16 17.97 16.17 17.9 16.17 17.9" fill="#2f3541"/><polygon points="17.61 8.82 17.61 8.78 17.63 8.79 17.61 8.82 17.61 8.82" fill="#2f3541"/><polygon points="14.45 13.59 14.42 13.6 14.42 13.56 14.45 13.54 14.45 13.59 14.45 13.59" fill="#2f3541"/><polygon points="17.62 9.33 17.62 9.33 17.62 9.33 17.62 9.33" fill="#2f3541"/><polygon points="13.73 17.78 13.73 17.81 13.71 17.8 13.73 17.78 13.73 17.78" fill="#2f3541"/><polygon points="17.14 12.47 17.19 12.46 17.22 12.6 17.14 12.67 17.14 12.47 17.14 12.47" fill="#2f3541"/><polygon points="17.52 8.71 17.59 8.68 17.58 8.79 17.55 8.81 17.52 8.71 17.52 8.71" fill="#2f3541"/><path d="M12.31,19.9s.09-.1,.1-.1h.13l1.18-.53v.41l-.75,.37-.42-.14c-.02,.09-.13,.21-.21,.26l.04,.16-.07,.08v-.5h0Z" fill="#2f3541"/><path d="M13.26,18.17c.11-.04,.37-.15,.46-.22l-.05,.11-.04,.02c.02,.32,.13,.75,.06,1.08-.07,.04-.36,.15-.39,.24l-.02-.14-.07,.02v-.02l.08-.09c0-.09,.02-.94-.04-1h0Z" fill="#2f3541"/><path d="M12.5,16.33l-.06,.05v.18l-.04,.02,.08-.38,.14-.05h0s-.12,.17-.12,.18h0Z" fill="#2f3541"/><polygon points="12.82 15.97 12.79 16.01 12.82 15.97 12.82 15.97" fill="#2f3541"/><polygon points="12.79 16.01 12.76 16.06 12.79 16.01 12.79 16.01" fill="#2f3541"/><polygon points="14.47 12.49 14.47 12.56 14.44 12.6 14.47 12.49 14.47 12.49" fill="#2f3541"/><polygon points="16.84 17.5 16.92 17.46 16.92 17.48 16.84 17.52 16.84 17.5 16.84 17.5" fill="#2f3541"/><polygon points="19.62 8.67 19.62 8.73 19.47 8.88 19.46 8.75 19.62 8.67" fill="#2f3541"/><polygon points="14.61 15.13 14.54 15.26 14.51 15.23 14.58 15.1 14.61 15.13 14.61 15.13" fill="#2f3541"/><path d="M14.53,11.36h-.02v-.16s.03,.15,.02,.16h0Z" fill="#2f3541"/><polygon points="14.63 12.7 14.52 12.75 14.58 12.66 14.87 12.56 14.87 12.59 14.63 12.7 14.63 12.7" fill="#2f3541"/></g><g id="i" opacity=".6"><path d="M17.6,11.04h.02v1.88l-.05,.02v-.44c-.16,.07-1.14,.64-1.32,.56v-.11l.12-.17-.06-.09,.3-.45,.04,.6,.08-.09v-.07l.02-.1c-.04-.05,0-.25,.02-.3l.34-.25v-.2l-.29,.18-.14-.11v-.2c.19-.14,.62-.37,.84-.46,.04-.04,.08-.14,.08-.2h0Zm-.38,1.56l.33-.14-.04-.83-.35,.31v.73l.07-.07h0Zm-.81,.35l.22-.07-.04-.1-.27,.24,.09-.07h0Zm.64-.27l.03-.12-.02-.02-.08,.09v.03l.07,.02Zm-.09,.04v-.05l-.13,.07v.04l.13-.06Z" fill="#2f3541"/><path d="M17.59,8.67h.03v.66h0v1.1c-.11,.08-1.17,.61-1.31,.63,.1-.15,.59-.48,.73-.59l-.03,.11,.57-.33v-.2l-1.26,.62v-.04c.17-.15,.56-.28,.74-.43l.02-.04-.33,.06,.29-.19v-.04l-.05-.02s-.19,.09-.24,.09v-.04l.21-.13,.02-.16,.1-.07c.09,.09,.08,.43,.09,.54l.39-.19-.04-.68c-.13,.04-.3,.35-.37,.46l-.02-.3-.42,.21v-.42c.29-.11,.55-.45,.82-.55l.03,.1,.03-.02v-.11h0Z" fill="#2f3541"/><path d="M13.74,17.91l.02,1.81-1.49,.7s-.02-.5,.03-.52h0v.5l.07-.08-.04-.16c.07-.05,.19-.17,.21-.26l.42,.14,.75-.37v-.41l-1.18,.55h-.12l.34-.18v-.13l-.35,.19,.02-.09,.34-.17v-.11l-.36,.18s-.04-.87,.01-.88v.78l.34-.17v-.78l-.34,.17c.02-.05,.43-.27,.48-.3l.02,.02-.08,.07v.77l.4-.2s0-.8-.01-.8l.03-.03c.06,.05,.04,.91,.04,1l-.08,.09v.02l.08-.02,.02,.14c.03-.08,.32-.2,.39-.24,.12-.4-.18-.89,.05-1.24h0Zm-.89,1.7l.37-.18-.02-.14-.34,.17v.15h0Zm.36-.48l-.37,.17,.08,.05,.29-.22h0Z" fill="#2f3541"/><path d="M19.77,9.39l-1.29,.63v-.14l.1-.04h0c.05-.05,.43-.27,.46-.32l.35-.08,.11-.11,.08,.03c.14-.17,.17-.56,.15-.77h-.06v-.03l-.04,.03v-.33l-.35,.17v-.5l.44-.18,.03-.35c.07,.06,0,1.91,.03,1.98h0Z" fill="#2f3541"/><path d="M13.76,12.27c-.06,0-1.27,.69-1.34,.66l.14-.2,.06,.02c.09-.16,.36-.37,.52-.45v-.02l.08,.02v.11l.07,.02,.02-.03-.03-.13,.1-.05v-.03l.34-.17v-.15l-.47,.21,.03-.06h.07l.03-.33,.22-.09,.05,.06-.03,.2,.1-.05v-.98l.06-.04v1.48h0Z" fill="#2f3541"/><path d="M15.39,17.24l.07,.08v.57l-.09,.1,.09,.09c0,.09,.03,.56,0,.64l-.02-.18-.14-.12c-.06,.03-.2,.08-.27,.1v-.1l.13-.1v-.04l-.14,.02,.03-.14v-.74h.08s.18-.15,.19-.2c0,.08-.03,.71,0,.77l.03-.02,.02-.73h0Zm-.15,.3v0h0Zm-.03,.86l.03-.02v-.1l-.03,.02v.1h0Zm.04-.29h-.03v.1h.03v-.1h0Zm.09,.22h.03v-.11h-.02v.11h0Z" fill="#2f3541"/><path d="M12.3,17.96c.05-.08,.05-.28,.05-.37l.27-.2,.03,.12c.07,.01,.19-.09,.24-.12v.02l.06-.09,.06,.06-.12,.15v.04l.57-.27c-.02,.26-.92,.56-1.09,.68l-.07-.02h0Z" fill="#2f3541"/><path d="M19.77,11.88l-1.23,.58v-.14l.98-.57,.17,.04c.07-.16,.05-1.69,.05-1.89,.08,.06,0,1.9,.03,1.98h0Z" fill="#2f3541"/><path d="M15.47,15.92l-.45,.2v-.96h.02l.03,.63h.03c.03-.26-.02-.7,.13-.93l.19-.09,.05-.11s0,1.23,0,1.26h0Zm-.32-.1l.25-.12v-.87l-.16,.09-.09,.9h0Zm.05,.04v.15l.17-.08v-.14l-.17,.07h0Z" fill="#2f3541"/><path d="M15.46,10.26l-.04,.41h-.02s.03,.26,.04,.3l-.42,.21v-.41l.38-.18v-.66c.03,.09,.07,.24,.06,.34h0Z" fill="#2f3541"/><path d="M13.7,15.63l.05-.03c.03,.07,0,1.54,0,1.61-.04-.06-.02-.36-.03-.43l-.54,.25v-.07l.08-.08,.02,.04,.02-.03,.04-.4,.08,.02-.05,.07,.05,.08,.11-.04h0c-.07,.03-.16,.19-.19,.24l.34-.13c0-.12,.04-1.02,0-1.11h0Z" fill="#2f3541"/><path d="M15.46,12l-.99,.49s-.02,.99-.02,1.05h-.02s0-1.03,0-1.06c.04,0,.99-.53,1.03-.48Z" fill="#2f3541"/><path d="M15.46,13.46h-.06c0-.11-.03-1.2,.06-1.27,.02,.08,.01,1.19,0,1.27h0Z" fill="#2f3541"/><path d="M13.54,13.21v-.03l.21-.1c.02,.12,.02,1.12,0,1.23h-.04c0-.06,.02-1.12,0-1.14l-.17,.04h0Z" fill="#2f3541"/><path d="M17.61,14.9c-.03-.09-.03-.29-.03-.38l-.05,.03v-.35l.05-.04,.03-.11c.02,.09,.02,.76,0,.85h0Z" fill="#2f3541"/><polygon points="15.1 14.14 15.3 13.82 15.18 13.97 15.2 14 15.43 13.88 15.46 13.55 15.46 13.96 15.42 13.94 15.18 14.05 15.15 14.11 15.1 14.14 15.1 14.14" fill="#2f3541"/><path d="M12.3,16.72v1.23c-.04-.13-.04-1.11,0-1.23h0Z" fill="#2f3541"/><polygon points="12.73 18.27 12.3 18.52 12.32 18.45 12.73 18.27" fill="#2f3541"/><polygon points="14.45 13.94 14.42 14.01 14.42 13.6 14.45 13.59 14.45 13.94 14.45 13.94" fill="#2f3541"/><path d="M13.27,13.06c-.06,.04-.29,.18-.36,.19,0-.05,.32-.17,.36-.19Z" fill="#2f3541"/><path d="M13.75,15.34c-.08,0-.24,.07-.31,.11l.3-.16,.02,.06h0Z" fill="#2f3541"/><path d="M12.99,18.15l-.23,.11,.23-.11Z" fill="#2f3541"/><polygon points="17.61 14.01 17.61 13.57 17.61 14.01 17.61 14.01" fill="#2f3541"/><path d="M13.67,12.86l-.31,.15,.31-.15Z" fill="#2f3541"/><path d="M13.28,18l-.21,.11,.21-.11Z" fill="#2f3541"/><path d="M12.34,15.99s-.04,.24-.05,.29l-.02-.24,.06-.05h0Z" fill="#2f3541"/><polygon points="17.58 15.46 17.56 15.4 17.61 15.3 17.64 15.43 17.58 15.46 17.58 15.46" fill="#2f3541"/><path d="M12.77,15.78l-.11,.06,.11-.06Z" fill="#2f3541"/><path d="M12.76,13.32s-.09,.07-.12,.08v-.02l.12-.06Z" fill="#2f3541"/><polygon points="15.48 18.87 15.44 18.88 15.46 18.79 15.48 18.87 15.48 18.87" fill="#2f3541"/><polygon points="13.75 14.74 13.74 14.62 13.75 14.74 13.75 14.74" fill="#2f3541"/><path d="M12.52,15.9l-.09,.04,.09-.04Z" fill="#2f3541"/><path d="M12.89,13.26l-.06,.02,.06-.02Z" fill="#2f3541"/><path d="M12.62,15.85l-.05,.02,.05-.02Z" fill="#2f3541"/><polygon points="12.3 16.59 12.3 16.67 12.27 16.64 12.3 16.59 12.3 16.59" fill="#2f3541"/><polygon points="12.3 19.42 12.3 19.48 12.3 19.42 12.3 19.42" fill="#2f3541"/><path d="M13.33,15.5l-.03,.02,.03-.02Z" fill="#2f3541"/><polygon points="13.74 17.81 13.73 17.81 13.73 17.78 13.75 17.78 13.74 17.81 13.74 17.81" fill="#2f3541"/><path d="M12.56,13.41h0Z" fill="#2f3541"/><polygon points="13.38 17.47 13.38 17.47 13.38 17.47 13.38 17.47" fill="#2f3541"/><path d="M19.5,15.85s.11,.07,.12,.11v.09l.05,.07s-.03,.14-.05,.17l.05,.02-.26,.12s0-.48,0-.51l.05-.04h0v.18l.03-.2h0Zm0,.42h-.03v.1h.03v-.1h0Z" fill="#2f3541"/><path d="M18.82,16.22l.08-.08,.03,.04c0,.08,0,.52-.03,.59l-.06-.02c.04-.15,.06-.39-.03-.53h0Z" fill="#2f3541"/><polygon points="19.28 15.25 19.35 15.22 19.35 15.48 19.27 15.49 19.28 15.25 19.28 15.25" fill="#2f3541"/><polygon points="18.66 16.4 18.75 16.35 18.79 16.52 18.75 16.62 18.66 16.4 18.66 16.4" fill="#2f3541"/><path d="M19.68,15.54l-.05,.21c-.01-.09,0-.26,.04-.35h.01v.14h0Z" fill="#2f3541"/><polygon points="19.33 17.06 19.25 16.95 19.25 16.94 19.36 17 19.33 17.06 19.33 17.06" fill="#2f3541"/><polygon points="18.61 16.51 18.62 16.6 18.59 16.61 18.59 16.53 18.61 16.51 18.61 16.51" fill="#2f3541"/><polygon points="19.47 15.86 19.49 15.8 19.5 15.85 19.5 15.85 19.47 15.87 19.47 15.86 19.47 15.86" fill="#2f3541"/><path d="M17.14,14.37c0-.26,.15-.54,.38-.68v.39c-.08,.06-.32,.2-.38,.3h0Z" fill="#2f3541"/><polygon points="16.96 15.1 17.05 15 16.91 14.82 16.92 14.8 17.01 14.84 17.04 14.67 17.07 15.14 17.02 15.15 17.01 15.1 16.96 15.1 16.96 15.1" fill="#2f3541"/><path d="M17.14,14.49c0,.16,.03,.45,0,.6,0-.08-.04-.54,0-.6h0Z" fill="#2f3541"/><polygon points="16.94 15.19 16.74 15.26 16.74 15.22 16.94 15.12 16.94 15.19 16.94 15.19" fill="#2f3541"/><polygon points="16.44 14.39 16.31 14.26 16.32 14.24 16.46 14.35 16.44 14.39 16.44 14.39" fill="#2f3541"/><polygon points="17.15 15.1 17.2 15.09 17.15 15.1 17.15 15.1" fill="#2f3541"/><polygon points="18.79 14.33 18.75 14.38 18.43 14.48 18.42 14.48 18.41 13.33 18.76 13.05 18.79 14.33 18.79 14.33" fill="#2f3541"/><polygon points="19.56 13.57 19.44 13.62 19.57 13.47 19.56 13.57 19.56 13.57" fill="#2f3541"/><path d="M19.67,13.19l-.04,.11v-.03c-.02-.05,.01-.17,.03-.22h.01v.14h0Z" fill="#2f3541"/><polygon points="19.57 13.91 19.45 13.98 19.45 13.93 19.56 13.86 19.57 13.91 19.57 13.91" fill="#2f3541"/><polygon points="19.62 13.81 19.64 13.77 19.64 13.9 19.62 13.81 19.62 13.81" fill="#2f3541"/><path d="M17.17,17.56c.04-.06,.2-.12,.27-.15l-.02-1.2-.12,.37-.12,.07s-.01,.1-.03,.11v-.47l.33-.12v.58h0v.29h0v.18h0l-.02,.13,.06,.02-.32,.21-.03-.02h0Zm.09-1.12l.02-.07-.02-.03-.02,.04,.03,.06h0Z" fill="#2f3541"/><path d="M17.14,16.99v.58l-.17,.14v-.12c.15-.15,.07-.43,.17-.6h0Z" fill="#2f3541"/><polygon points="17.05 16.31 17.08 16.3 17.12 16.51 17.03 16.55 17.05 16.31 17.05 16.31" fill="#2f3541"/><polygon points="16.23 9.49 16.62 9.3 16.64 9.69 16.23 9.89 16.23 9.49 16.23 9.49" fill="#2f3541"/><polygon points="16.37 10.2 16.63 10.1 16.37 10.2 16.37 10.2" fill="#2f3541"/><polygon points="16.37 10.39 16.62 10.27 16.62 10.3 16.37 10.42 16.37 10.39 16.37 10.39" fill="#2f3541"/><polygon points="16.64 12.04 16.23 12.24 16.23 11.93 16.62 11.72 16.64 12.04 16.64 12.04" fill="#2f3541"/><path d="M18.38,9.61v-.34l.2-.05v-.04l-.19,.03v-.77l.37-.21c0,.07,.04,1.02,0,1.05l-.13,.07v.13s.16-.11,.22-.11v-.49l.25-.16,.04,.13,.09-.08v.47s-.81,.37-.84,.36h0Z" fill="#2f3541"/><polygon points="19.23 8.44 18.83 8.64 18.84 8.22 19.23 8 19.23 8.44 19.23 8.44" fill="#2f3541"/><polygon points="19.63 9 19.27 9.2 19.27 8.53 19.45 8.47 19.45 8.71 19.62 8.61 19.62 8.67 19.46 8.75 19.47 8.88 19.62 8.73 19.63 9 19.63 9" fill="#2f3541"/><path d="M18.66,11.93l-.1,.08-.04-.11s-.13-.19-.14-.19v-.84l.38-.18c.02,.09,.03,.97,.01,1.05l-.12,.08v.12h.01Z" fill="#2f3541"/><path d="M19.37,11.58l-.09,.07v-.69l.28-.2,.04,.17v-.3l-.33,.17v-.4l.4-.18c.02,.21-.02,.65-.06,.85l-.08-.04-.22,.18-.03,.22,.25-.16,.09,.02c-.05,.04-.31,.2-.31,.28l.05,.02Z" fill="#2f3541"/><path d="M19.24,11.42l.02,.22-.38,.18,.05-.08c-.06-.15-.09-.46-.08-.62l.25-.12,.03,.18,.08-.02,.02,.12-.08,.02-.08-.11-.13,.28,.03,.22,.24-.12,.02-.15h0Z" fill="#2f3541"/><polygon points="19.23 10.45 19.23 10.82 18.83 10.99 18.85 10.63 19.23 10.45" fill="#2f3541"/><polygon points="18.74 11.89 18.76 11.84 18.74 11.89 18.74 11.89" fill="#2f3541"/><path d="M14.92,18.39l-.23,.11,.1-.2-.14,.02c.07-.17,.03-.63,.16-.77l.1,.03v.81h0Z" fill="#2f3541"/><polygon points="14.61 18.66 14.92 18.44 14.92 18.57 14.61 18.66 14.61 18.66" fill="#2f3541"/><path d="M14.75,15.19v.61l.07,.04-.06,.08h.15l.02,.24-.26,.13,.03-.21-.03-.05c.07-.17-.02-.67,.09-.84h0Zm0,.9l.14,.03v-.14l-.14,.11h0Z" fill="#2f3541"/><polygon points="14.85 15.08 14.76 15.14 14.85 15.08 14.85 15.08" fill="#2f3541"/><polygon points="14.91 15.15 14.89 15.05 14.91 15.15 14.91 15.15" fill="#2f3541"/><polygon points="14.9 15.83 14.91 15.73 14.9 15.83 14.9 15.83" fill="#2f3541"/><path d="M12.4,12.47l.03-.92s.14-.1,.19-.09l-.05,.07-.02,.46,.23-.14v.32l.07-.02,.02,.11-.43,.22-.04-.02h0Zm.15-.41v.04l.12-.06v-.04l-.12,.06h0Z" fill="#2f3541"/><polygon points="12.86 12.03 13.27 11.83 13.27 11.92 12.86 12.12 12.86 12.03 12.86 12.03" fill="#2f3541"/><path d="M12.87,11.11v.73l-.04-.04c0-.08-.02-.64,.04-.69h0Z" fill="#2f3541"/><polygon points="12.78 11.57 12.75 11.43 12.64 11.44 12.66 11.31 12.72 11.28 12.79 11.42 12.81 11.41 12.78 11.57 12.78 11.57" fill="#2f3541"/><path d="M13.37,11.58s.18-.11,.24-.11v.04c-.05,.05-.18,.12-.24,.15v-.09h0Z" fill="#2f3541"/><path d="M13.37,11.12v-.04l.23-.13c-.03,.06-.17,.14-.23,.18h0Z" fill="#2f3541"/><polygon points="13.28 11.76 13.25 11.73 13.28 11.76 13.28 11.76" fill="#2f3541"/><path d="M14.52,11.21v-.91l.39-.19c.05,.17,.04,.64,0,.81l.03,.05c-.04,.06-.04,.19-.03,.26l-.05-.04-.31,.15v-.14h-.01Zm.24-.9l-.2,.29v.38l.33-.16v-.62l-.11,.05v.06h-.01Z" fill="#2f3541"/><polygon points="14.53 11.36 14.54 11.41 14.5 11.43 14.51 11.37 14.53 11.36" fill="#2f3541"/><polygon points="15.04 10.07 15.02 10.13 15.01 10.07 15.04 10.07" fill="#2f3541"/><path d="M13.56,14.84l-1.21,.59v-.25c.16-.07,.54-.24,.61-.42l.12,.07,.09,.16,.39-.19v.03h0Z" fill="#2f3541"/><path d="M12.84,13.57c0,.08-.01,1.12,.02,1.16-.06,.02-.41,.23-.47,.2,0-.06,0-1.13,.03-1.14v.71l.25-.09-.24,.26,.23-.06v.03l-.23,.16v.1l.35-.17v-1.11l-.35,.17c.07-.09,.3-.21,.42-.21Z" fill="#2f3541"/><polygon points="13.33 14.05 13.34 14.11 13.3 14.11 13.33 14.05 13.33 14.05" fill="#2f3541"/><polygon points="13.28 14.23 13.27 14.16 13.31 14.18 13.28 14.23 13.28 14.23" fill="#2f3541"/><polygon points="13.34 14.46 13.36 14.47 13.34 14.46 13.34 14.46" fill="#2f3541"/><polygon points="13.27 14.33 13.24 14.33 13.27 14.29 13.27 14.33 13.27 14.33" fill="#2f3541"/><path d="M14.87,12.56h.03c.07,.18,.06,.63,.02,.82h-.03c-.05,.04-.34,.22-.34,.3l-.02-.12h0v-.81l.12-.05,.05,.09-.12,.66,.33-.12c.06-.21,.01-.57-.02-.78h0Z" fill="#2f3541"/><path d="M14.53,13.8s0-.13,.02-.14c.09-.04,.31-.13,.38-.2v.27l-.31,.13,.29-.17-.03-.11-.36,.22h0Z" fill="#2f3541"/><polygon points="15.03 13.43 15.18 13.37 15.03 13.55 15.03 13.43 15.03 13.43" fill="#2f3541"/><polygon points="15.03 13.26 15.19 13.25 15.03 13.36 15.03 13.26 15.03 13.26" fill="#2f3541"/><polygon points="15.02 13.57 15.1 13.6 15.2 13.58 14.99 13.68 15.02 13.57 15.02 13.57" fill="#2f3541"/><polygon points="14.52 13.86 14.56 13.88 14.51 13.87 14.52 13.86" fill="#2f3541"/><path d="M13.27,16.63v-.81l-.43,.14v.85h0l-.02,.14h.11l-.1,.09v.16l-.36,.18-.04-.03,.29-.17-.04-.02-.27,.14c0-.08-.01-.26,0-.34l.18-.08v.28l.16-.08v-1.01h0s.04-.08,.06-.1l.48-.24c0,.13,.01,.79-.02,.9h0Z" fill="#2f3541"/><polygon points="12.4 16.57 12.43 16.55 12.42 16.85 12.4 16.57 12.4 16.57" fill="#2f3541"/><polygon points="13.36 16.16 13.36 16.37 13.36 16.16 13.36 16.16" fill="#2f3541"/><polygon points="13.47 15.74 13.37 15.94 13.47 15.74 13.47 15.74" fill="#2f3541"/><polygon points="13.27 16.82 13.24 16.79 13.27 16.75 13.27 16.82 13.27 16.82" fill="#2f3541"/><polygon points="17.46 9.9 17.31 9.97 17.31 9.94 17.46 9.87 17.46 9.9 17.46 9.9" fill="#2f3541"/><polygon points="13.63 18.07 13.62 18.12 13.63 18.07 13.63 18.07" fill="#2f3541"/><polygon points="12.5 16.33 12.63 16.16 12.61 16.28 12.5 16.33 12.5 16.33" fill="#2f3541"/></g><g id="j" opacity=".8"><path d="M20,17.07l-8,3.93V10.84l8-3.84v10.07h0Zm-6.27,.71s-1.39,.65-1.41,.67c-.05,.41-.02,1.57-.05,1.97l1.49-.7s-.04-1.9-.02-1.95h-.02Zm-1.43-1.18l-.02,.05,.02,.03v.05h0c-.04,.12-.04,1.1,0,1.23l.07,.02c.06-.03,.99-.47,1.01-.52h0l.33-.16c.11-.33,.04-1.69,.02-2.02-.06,.04-1.41,.68-1.45,.74v.56h.01Zm.46-3.28l-.47,.23v1.98l1.5-.74-.04-.05c0-.35,0-1.53-.01-1.9-.03,.02-.86,.38-.83,.42h-.02l-.14,.06h0Zm1.67,.28v.87l1.04-.51c0-.51,.02-1.44,0-1.96-.04-.05-.99,.47-1.03,.48,0,.08-.02,1.06,0,1.11h0Zm5.18-3.63c-.06,.03-1.25,.6-1.26,.64l-.02,.13v1.89s1.48-.69,1.45-.75c-.03-.08,.05-1.92-.03-1.98l-.13,.06h0Zm-4.15,8.12v-1.16l-1.03,.5v1.99s1.07-.5,1.04-.56c-.02-.17,0-.6-.02-.78h0Zm.7-.11v.57l.06,.06,1.42-.69-.02-2.05-1.49,.73,.03,1.37h0Zm-.71-7.71v-.74l-1.02,.5v1.98l1.03-.51v-1.23h-.01Zm-1.7,2.01v-1.93l-1.46,.72v1.99l1.41-.69,.04-.09h0Zm3.86-2.94h0v-.54h0v-.36l-1.46,.72v2.06l1.5-.74-.04-.05v-1.1h0Zm-2.15,5.32v-.2l-1.03,.5v1.99l1.03-.51s.02-1.75,0-1.78h0Zm4.28-7.25c-.07,.04-1.36,.64-1.42,.7v2.07l1.42-.72c.04-.11,.05-1.94,0-2.05h0Zm-2.12,3.63v-.11l-1.47,.72v2.02c.07-.07,1.47-.63,1.48-.76v-1.88h0Zm.75,2.01c-.09,0-.03,1.98-.04,2.05l1.44-.71c-.01-.1,.03-1.85-.02-1.95l-.06-.04-1.31,.64h0Zm-.76,1.01v-.65l-1.41,.68c-.1,.06,0,2-.04,2.08l1.48-.73c-.09-.37,.03-1-.03-1.38h0Zm.71,3.53l1.46-.72v-2.06l-1.46,.72v2.07h0Z" fill="#2f3541"/><path d="M17.14,14.37c.05-.09,.3-.24,.38-.3v.12c-.08,.04-.32,.15-.38,.22v-.04h0Z" fill="#2f3541"/><polygon points="17.55 16.55 17.51 16.54 17.47 16.59 17.47 16.17 17.51 16.1 17.54 16.1 17.55 16.55 17.55 16.55" fill="#2f3541"/><polygon points="19.47 15.87 19.5 15.85 19.46 16.05 19.47 15.87 19.47 15.87" fill="#2f3541"/><polygon points="19.49 16.27 19.49 16.35 19.47 16.37 19.47 16.28 19.49 16.27" fill="#2f3541"/><polygon points="17.15 16.74 17.17 16.65 17.29 16.58 17.41 16.21 17.43 16.61 17.15 16.74 17.15 16.74" fill="#2f3541"/><polygon points="17.26 16.44 17.23 16.37 17.26 16.34 17.28 16.37 17.26 16.44 17.26 16.44" fill="#2f3541"/></g><g id="k"><path d="M19.67,16.11l-.05-.07c-.01-.13,0-.38,.05-.5v.57h0Z" fill="#2f3541"/><polygon points="18.86 16.49 18.87 16.36 18.88 16.49 18.86 16.49 18.86 16.49" fill="#2f3541"/><polygon points="19.67 16.3 19.63 16.28 19.67 16.17 19.67 16.3 19.67 16.3" fill="#2f3541"/><path d="M17.53,14.2v.73s-.35,.19-.39,.17c.03-.17,0-.51,0-.68,.06-.07,.3-.18,.38-.22h0Z" fill="#2f3541"/><polygon points="16.94 15.19 16.94 15.12 16.96 15.1 17.01 15.1 17.02 15.15 16.94 15.19 16.94 15.19" fill="#2f3541"/><path d="M19.66,13.52h-.03c0-.08,0-.27,.04-.33v.33h-.01Z" fill="#2f3541"/><path d="M17.17,17.56h-.03v-.8s.28-.15,.29-.15v.81c-.07,.02-.22,.09-.27,.15h0Z" fill="#2f3541"/><path d="M17.52,17.37l-.06-.02,.02-.14h0v-.18h0v-.29h0v-.16l.03-.05h.04c0,.07,.02,.8-.02,.83h0Z" fill="#2f3541"/><path d="M17.14,9.78c.07-.11,.24-.41,.37-.46l.04,.68-.39,.19-.02-.42h0Zm.32,.12v-.03l-.15,.07v.03l.15-.07Z" fill="#2f3541"/><path d="M19.62,8.67v-.08l.04-.03c.02,.1,.04,.34-.02,.43v-.33h-.01Z" fill="#2f3541"/><polygon points="18.76 9.4 18.62 9.5 18.63 9.37 18.76 9.3 18.76 9.4 18.76 9.4" fill="#2f3541"/><path d="M19.37,11.58l-.05-.02c0-.08,.26-.24,.31-.28l-.09-.02-.25,.16,.03-.22,.22-.18,.08,.04c0-.06,.02-.25,.06-.3v.66l-.31,.15h0Z" fill="#2f3541"/><polygon points="19.24 11.42 19.21 11.57 18.97 11.69 18.94 11.47 19.07 11.19 19.15 11.3 19.23 11.28 19.24 11.42 19.24 11.42" fill="#2f3541"/><path d="M18.66,11.93v-.12l.1-.08s0,.12-.02,.15l-.08,.05h0Z" fill="#2f3541"/><path d="M15.39,17.24l-.02,.73-.03,.02c-.03-.05,0-.69,0-.77h.05Z" fill="#2f3541"/><path d="M14.9,15.83v.09h-.15l.06-.08-.08-.04s0-.66,.03-.66c.03-.02,.1-.07,.12-.09,.04,.05,.01,.71,.02,.78h0Z" fill="#2f3541"/><polygon points="17.14 12.47 17.15 11.94 17.5 11.63 17.55 12.46 17.22 12.6 17.19 12.46 17.14 12.47 17.14 12.47" fill="#2f3541"/><polygon points="16.4 12.95 16.31 13.02 16.58 12.78 16.62 12.88 16.4 12.95 16.4 12.95" fill="#2f3541"/><polygon points="17.05 12.68 16.98 12.67 16.98 12.63 17.06 12.54 17.08 12.56 17.05 12.68 17.05 12.68" fill="#2f3541"/><polygon points="16.95 12.73 16.83 12.79 16.82 12.75 16.95 12.68 16.95 12.73 16.95 12.73" fill="#2f3541"/><polygon points="12.87 11.11 13.27 10.91 13.27 11.65 12.87 11.84 12.87 11.11 12.87 11.11" fill="#2f3541"/><path d="M13.71,10.83v.98l-.1,.05,.03-.2-.05-.06-.22,.09v-.02c.06-.03,.19-.11,.24-.15v-.04c-.05,0-.19,.08-.24,.11v-.46c.06-.03,.19-.11,.23-.18l.02-.11h.09Z" fill="#2f3541"/><path d="M12.78,11.85l-.23,.14,.02-.46s.05-.08,.07-.09h.12c.03,.08,.03,.31,.02,.41h0Z" fill="#2f3541"/><path d="M12.87,12.26l-.02-.11v-.03l.42-.2s0,.12-.02,.15l-.38,.19h0Z" fill="#2f3541"/><polygon points="13.28 11.76 13.27 11.83 12.86 12.03 12.85 11.93 13.25 11.73 13.28 11.76 13.28 11.76" fill="#2f3541"/><path d="M12.92,18.34l.31-.15s.01,.78,.01,.8l-.4,.2v-.77l.08-.07h0Z" fill="#2f3541"/><polygon points="12.42 18.62 12.76 18.45 12.76 19.24 12.42 19.41 12.42 18.62 12.42 18.62 12.42 18.62" fill="#2f3541"/><polygon points="12.85 19.61 12.85 19.46 13.2 19.3 13.22 19.43 12.85 19.61 12.85 19.61" fill="#2f3541"/><polygon points="12.42 19.61 12.4 19.51 12.76 19.33 12.76 19.44 12.42 19.61 12.42 19.61" fill="#2f3541"/><polygon points="12.42 19.8 12.41 19.8 12.4 19.8 12.4 19.69 12.75 19.5 12.76 19.63 12.42 19.8 12.42 19.8" fill="#2f3541"/><polygon points="13.21 19.13 12.92 19.35 12.84 19.3 13.21 19.13" fill="#2f3541"/><path d="M13.63,18.07l.04-.02-.04,.15s-.02-.11,0-.14h0Z" fill="#2f3541"/><path d="M15.04,10.07l.35-.18v.69l-.38,.18s-.02-.68,.02-.69h0Z" fill="#2f3541"/><path d="M14.53,11.35l.31-.15,.05,.04-.36,.18s-.02-.05,0-.07h0Z" fill="#2f3541"/><path d="M13.27,14.33v.2l-.42,.21s-.02-1.09-.02-1.16l.44-.24v.95l-.03,.04h.03Z" fill="#2f3541"/><path d="M13.54,13.21l.17-.04s0,1.08,0,1.13l-.34,.17h-.02c0-.27,0-.9,.02-1.17l.18-.1Z" fill="#2f3541"/><path d="M15.4,12.35v1.12c-.06,.04-.23,.13-.3,.13l-.08-.03s.15-.19,.16-.2l-.15,.06v-.08l.16-.1h-.16v-.72l.37-.18Z" fill="#2f3541"/><path d="M14.53,13.8l.36-.22,.03,.11s-.31,.19-.35,.19l-.03-.02v-.06h0Z" fill="#2f3541"/><path d="M14.92,13.45c-.07,.07-.29,.16-.38,.2l.02-.06,.3-.22h.03l.02,.07h0Z" fill="#2f3541"/><polygon points="13.27 16.88 13.2 16.95 13.19 17.03 12.84 17.2 12.84 17.04 12.94 16.93 12.83 16.95 12.86 16.8 12.85 16.81 12.85 15.96 13.27 15.82 13.27 16.75 13.24 16.79 13.27 16.82 13.27 16.88 13.27 16.88" fill="#2f3541"/><polygon points="12.42 17.29 12.69 17.16 12.73 17.18 12.44 17.35 12.42 17.29 12.42 17.29" fill="#2f3541"/><polygon points="15.24 17.55 15.24 18.05 15.24 17.55 15.24 17.55" fill="#2f3541"/><polygon points="15.21 18.4 15.21 18.3 15.24 18.29 15.24 18.39 15.21 18.4 15.21 18.4" fill="#2f3541"/><polygon points="15.25 18.12 15.24 18.2 15.21 18.21 15.21 18.13 15.25 18.12" fill="#2f3541"/><polygon points="15.34 18.34 15.35 18.25 15.38 18.24 15.37 18.33 15.34 18.34 15.34 18.34" fill="#2f3541"/><path d="M12.77,16.07v1.01l-.17,.08v-.28l-.18,.08,.03-.58s.12-.08,.16-.1l.02-.13h0l.15-.08Z" fill="#2f3541"/><polygon points="15.14 15.81 15.24 14.91 15.39 14.82 15.39 15.69 15.14 15.81 15.14 15.81" fill="#2f3541"/><polygon points="15.2 15.85 15.38 15.78 15.37 15.92 15.2 16 15.2 15.85 15.2 15.85" fill="#2f3541"/><path d="M13.7,15.63c.04,.08,0,1,0,1.11l-.34,.13c.03-.06,.12-.22,.19-.23h0l-.11,.02-.05-.08,.05-.07-.08-.02c0-.16-.02-.63,.11-.76l.23-.11Z" fill="#2f3541"/><polygon points="14.75 16.09 14.89 15.98 14.89 16.12 14.75 16.09 14.75 16.09" fill="#2f3541"/><polygon points="12.55 12.06 12.66 12.01 12.66 12.05 12.55 12.1 12.55 12.06 12.55 12.06" fill="#2f3541"/><polygon points="14.76 10.31 14.78 10.24 14.89 10.19 14.89 10.81 14.56 10.97 14.56 10.6 14.76 10.31 14.76 10.31" fill="#2f3541"/><polygon points="12.41 13.79 12.76 13.62 12.77 14.73 12.42 14.9 12.42 14.8 12.65 14.64 12.65 14.61 12.42 14.67 12.66 14.41 12.41 14.5 12.41 13.79 12.41 13.79 12.41 13.79" fill="#2f3541"/><path d="M14.63,12.7l.23-.11c.04,.19,.07,.55,.02,.75l-.33,.12,.12-.66-.05-.09h0Z" fill="#2f3541"/></g></g></g></svg>