<?xml version="1.0" encoding="UTF-8"?><svg id="a" xmlns="http://www.w3.org/2000/svg" viewBox="0 0 24 24"><path d="M16,11V6l-4-2-4,2v5l-4,2v5l4,2,4-2,4,2,4-2v-5l-4-2Zm-1-.06l-2.5,1.25v-3.88l2.5-1.25v3.89Zm-3-5.82l2.32,1.16-2.32,1.16-2.32-1.16,2.32-1.16Zm-3,1.94l2.5,1.25v3.88l-2.5-1.25v-3.88Zm-4,7l2.5,1.25v3.32l-2.5-1.24v-3.32Zm3,.38l-2.32-1.16,2.87-1.45,2.32,1.16-2.87,1.45Zm.5,.87l3-1.5v3.33l-3,1.51v-3.34Zm7,3.31l-3-1.48v-3.32l3,1.49v3.32Zm.5-4.18l-2.88-1.44,2.32-1.16,2.87,1.44-2.32,1.16Zm3,2.94l-2.5,1.26v-3.34l2.5-1.31v3.38Z" fill="#fff"/><rect y="0" width="24" height="24" fill="none"/></svg>