<?xml version="1.0" encoding="UTF-8"?><svg id="a" xmlns="http://www.w3.org/2000/svg" viewBox="0 0 24 24"><g opacity=".2"><g isolation="isolate"><path d="M9.18,4.44c-.17-.08-.32-.09-.44-.03L3.1,7.14c.12-.06,.27-.05,.44,.03l.71,.35,5.65-2.73-.71-.35Z" fill="#fff"/><g><path d="M11.19,9.72c.17-.25,.36-.47,.59-.64-.01-.02-.03-.03-.04-.05l-.83,.4c.1,.1,.19,.19,.29,.29Z" fill="#fff"/><path d="M6.96,12.07c-.12-.19-.25-.37-.37-.55-.07,.03-.14,.08-.21,.12-.06,.03-.11,.06-.17,.1-.06,.04-.12,.1-.18,.15-.05,.04-.1,.08-.15,.13-.06,.06-.1,.12-.16,.18-.04,.05-.09,.1-.13,.15-.05,.07-.09,.15-.13,.22-.03,.06-.07,.11-.1,.17-.04,.08-.08,.17-.11,.26-.03,.06-.06,.12-.08,.19-.03,.09-.06,.19-.08,.29-.02,.07-.04,.14-.06,.21-.02,.11-.04,.23-.06,.35-.01,.07-.03,.13-.03,.2-.02,.19-.03,.39-.03,.6l3.07-1.48c-.37-.38-.71-.81-1.01-1.3Z" fill="#fff"/></g><path d="M2.13,3.85L7.77,1.12c.07,.03,1.34,.65,2.13,1.04l-5.65,2.73c-.79-.39-2.06-1.01-2.13-1.04Z" fill="#fff"/><polygon points="4.96 6.11 10.61 3.38 10.6 5.13 4.95 7.85 4.96 6.11" fill="#fff"/><path d="M10.26,1.46c-.08-.04-.16-.04-.22-.01l-5.65,2.73c.06-.03,.14-.03,.22,.01,.2,.1,.36,.37,.35,.61v.47l5.64-2.73v-.47c0-.24-.15-.51-.35-.61Z" fill="#fff"/><path d="M4.96,5.26l5.65-2.73c.09,.03,.19,.06,.3,.11,1.22,.59,1.82,1.52,1.82,1.76l-5.65,2.73c0-.24-.6-1.17-1.82-1.76-.11-.06-.21-.09-.3-.11Z" fill="#fff"/><path d="M12.48,13.97l5.65-2.73c1.01,1.62,1.64,3.55,1.63,5.36l-5.65,2.73c0-1.81-.63-3.75-1.63-5.36Z" fill="#fff"/><path d="M18.63,9.05c-.15-.07-.3-.2-.42-.38-.47-.67-1.82-2.47-3.36-3.22-1.54-.75-2.91-.28-3.38-.07-.12,.06-.27,.04-.42-.03l-.46-.22-5.65,2.73,.46,.22c.15,.07,.3,.09,.42,.03,.47-.21,1.84-.68,3.38,.07,1.54,.75,2.89,2.54,3.36,3.22,.12,.18,.27,.3,.42,.38l.46,.22,5.65-2.73-.46-.22Z" fill="#fff"/><path d="M11.34,8.34l5.65-2.73,2.12,1.04-5.65,2.73-2.12-1.04Z" fill="#fff"/><polygon points="14.16 10.6 19.81 7.87 19.8 9.62 14.15 12.34 14.16 10.6" fill="#fff"/><path d="M20.51,9.96l-.71-.35-5.65,2.73,.71,.35c.4,.19,.71,.74,.71,1.22,0,.28-.11,.48-.28,.56l5.65-2.73c.17-.08,.27-.28,.28-.56,0-.48-.31-1.03-.71-1.22Z" fill="#fff"/><path d="M19.47,5.95c-.08-.04-.16-.04-.22-.01l-5.65,2.73c.06-.03,.14-.03,.22,.01,.19,.09,.35,.37,.35,.6v.47l5.64-2.73v-.47c0-.24-.15-.51-.35-.6Z" fill="#fff"/><path d="M14.17,9.75l5.65-2.73c.1,.03,.19,.06,.3,.11,1.22,.59,1.83,1.52,1.82,1.77l-5.65,2.73c0-.24-.61-1.17-1.82-1.77-.11-.05-.2-.08-.3-.11Z" fill="#fff"/></g></g><polygon points="6.51 19.14 6.3 19.92 5.59 19.57 5.8 18.8 6.51 19.14" fill="#fff"/><polygon points="6.92 17.58 6.72 18.37 6.01 18.02 6.21 17.24 6.92 17.58" fill="#fff"/><polygon points="7.34 16.03 7.13 16.81 6.42 16.46 6.63 15.69 7.34 16.03" fill="#fff"/><polygon points="8.1 19.92 8.1 20.79 7.39 20.44 7.39 19.57 8.1 19.92" fill="#fff"/><polygon points="9.52 20.61 9.51 21.48 8.81 21.14 8.81 20.26 9.52 20.61" fill="#fff"/><polygon points="10.93 21.3 10.93 22.17 10.22 21.83 10.23 20.95 10.93 21.3" fill="#fff"/><polygon points="12.48 22.05 12.68 23.02 11.97 22.68 11.77 21.71 12.48 22.05" fill="#fff"/><polygon points="12.08 20.1 12.28 21.08 11.58 20.74 11.38 19.76 12.08 20.1" fill="#fff"/><polygon points="7.75 14.48 7.55 15.26 6.83 14.91 7.04 14.14 7.75 14.48" fill="#fff"/><polygon points="11.69 18.15 11.89 19.13 11.18 18.78 10.98 17.81 11.69 18.15" fill="#fff"/><polygon points="11.29 16.21 11.49 17.18 10.79 16.84 10.59 15.87 11.29 16.21" fill="#fff"/><path d="M14.86,12.69c.4,.19,.71,.74,.71,1.22s-.32,.72-.71,.54c-.95-.44-1.61-.65-2.37-.47,1.01,1.62,1.64,3.55,1.63,5.36l-.71-.35c0-1.63-.6-3.38-1.53-4.8-.13,.06-.25,.11-.38,.19-.62,.36-1.41,.35-2.22-.04-.87-.42-1.67-1.26-2.31-2.28-.12-.19-.25-.37-.37-.55-1.01,.47-1.67,1.65-1.68,3.33l-.71-.35c.01-1.84,.68-3.16,1.73-3.77-.82-.88-1.68-1.43-2.43-1.82-.38-.2-.69-.74-.68-1.21,0-.5,.32-.74,.71-.54l.71,.35v-1.77c-.09-.04-.18-.07-.29-.12-1.22-.59-1.83-1.52-1.82-1.77l2.13,1.04v-.44c0-.24,.16-.36,.36-.26s.36,.37,.35,.61v.47c.09,.03,.18,.06,.3,.11,1.22,.59,1.82,1.52,1.82,1.76l-2.12-1.04v1.75l.45,.22c.15,.07,.3,.09,.42,.03,.47-.21,1.84-.68,3.38,.07s2.89,2.54,3.36,3.22c.12,.18,.27,.3,.42,.38l.46,.22v-1.77c-.08-.04-.18-.07-.29-.12-1.22-.59-1.82-1.52-1.82-1.76l2.12,1.04v-.44c0-.24,.16-.36,.36-.26s.35,.37,.35,.6v.47c.09,.03,.19,.06,.3,.11,1.22,.59,1.83,1.52,1.82,1.77l-2.13-1.04v1.75l.7,.35Zm-2.97,.43c.97-.31,1.79-.1,2.97,.45l-1.87-.92c-.31-.15-.6-.41-.85-.76-.34-.5-1.58-2.17-2.92-2.83s-2.6-.2-2.95-.03c-.25,.11-.54,.08-.86-.07l-.46-.22-.71-.35-.71-.35c.9,.49,1.99,1.18,3.04,2.42,.22,.26,.43,.55,.64,.86,.08,.11,.15,.22,.23,.33,.54,.86,1.19,1.51,1.84,1.83s1.25,.32,1.75,.03c.08-.05,.17-.08,.24-.13,.22-.11,.42-.2,.61-.26" fill="#fff"/><rect x="0" width="24" height="24" transform="translate(24 24) rotate(180)" fill="none"/></svg>