<?xml version="1.0" encoding="UTF-8"?><svg id="a" xmlns="http://www.w3.org/2000/svg" viewBox="0 0 24 24"><rect y="0" width="24" height="24" transform="translate(24 0) rotate(90)" fill="none"/><rect width="24" height="24" fill="none"/><g><path d="M12,2C6.48,2,2,6.48,2,12s4.48,10,10,10,10-4.48,10-10S17.52,2,12,2Zm0,19c-4.96,0-9-4.04-9-9S7.04,3,12,3s8.71,3.77,8.97,8.5h-.97v1h.97c-.26,4.73-4.18,8.5-8.97,8.5Z" fill="#2f3541"/><rect x="16" y="11.5" width="1" height="1" fill="#2f3541"/><rect x="18" y="11.5" width="1" height="1" fill="#2f3541"/><path d="M15,11.5h-1.07c-.22-.86-1-1.5-1.93-1.5-1.1,0-2,.9-2,2s.9,2,2,2c.93,0,1.71-.64,1.93-1.5h1.07v-1Zm-3,1.5c-.55,0-1-.45-1-1s.45-1,1-1,1,.45,1,1-.45,1-1,1Z" fill="#2f3541"/></g></svg>