<?xml version="1.0" encoding="UTF-8"?><svg id="a" xmlns="http://www.w3.org/2000/svg" viewBox="0 0 24 24"><g opacity=".2"><g isolation="isolate"><path d="M12.89,17.17l-5.65,2.73s.04-.02,.06-.03l5.65-2.73s-.04,.02-.06,.03Z" fill="#fff"/><polygon points="10 17.85 15.64 15.13 12.94 17.14 7.29 19.87 10 17.85" fill="#fff"/><polygon points="11.57 16.69 17.22 13.97 15.64 15.13 10 17.85 11.57 16.69" fill="#fff"/><polygon points="12.36 16.11 18 13.38 17.22 13.97 11.57 16.69 12.36 16.11" fill="#fff"/><path d="M12.4,14.93l5.65-2.73c.25,.47,.22,.99-.04,1.18l-5.65,2.73c.26-.2,.29-.71,.04-1.18Z" fill="#fff"/><path d="M8.64,8.77c.17,.08,.33,.23,.46,.44,.3,.47,.52,.71,.74,.82,.16,.08,.32,.08,.47,0l1.89-.91c.24-.27,.48-.51,.71-.69,.54-.4,1.17-.57,1.73-.49l1.32-.64c-.16,.07-.31,.07-.47,0-.22-.11-.44-.35-.74-.82-.13-.21-.3-.36-.46-.44-.15-.07-.31-.09-.44-.02l-5.65,2.73c.13-.06,.29-.05,.44,.02Z" fill="#fff"/><path d="M12.44,13.18l5.65-2.73s-.08,.04-.11,.07c-.3,.22-.37,.54-.23,1,.06,.19,.15,.41,.29,.68l-5.65,2.73c-.14-.27-.23-.49-.29-.68-.14-.46-.07-.78,.23-1,.03-.03,.07-.05,.11-.07Z" fill="#fff"/><path d="M12.92,7.27l5.65-2.73c.73-.35,1.54-.38,2.22-.05,.4,.19,.73,.5,.95,.9l-5.65,2.73c-.23-.4-.56-.71-.95-.9-.68-.33-1.49-.3-2.22,.05Z" fill="#fff"/><path d="M19.97,9.86l-5.65,2.73c.27-.13,.52-.28,.73-.43,.62-.46,1.09-1.15,1.28-1.9,.2-.76,.11-1.52-.24-2.13l5.65-2.73c.35,.61,.44,1.37,.24,2.13-.19,.75-.66,1.45-1.28,1.9-.21,.16-.46,.3-.73,.43Z" fill="#fff"/></g></g><rect width="24" height="24" fill="none"/><rect width="24" height="24" fill="none"/><path d="M16.09,8.11c.35,.61,.44,1.37,.24,2.13-.19,.75-.66,1.45-1.28,1.9-.6,.43-1.47,.8-2.35,.95h-.04c-.13,.04-.24,.08-.33,.15-.3,.22-.37,.54-.23,1,.06,.19,.15,.41,.29,.68,.25,.47,.22,.99-.04,1.18l-.78,.58-1.58,1.16-2.7,2.01c-.14,.1-.32,.1-.5,0s-.36-.26-.5-.49l-3.23-5.6c-.27-.47-.27-1.03,0-1.24l2.71-2,1.57-1.17,.79-.59c.14-.1,.33-.1,.5-.01,.17,.08,.33,.23,.46,.44,.3,.47,.52,.71,.74,.82,.2,.1,.4,.07,.59-.07,.1-.07,.17-.17,.25-.29l.03-.05c.48-.84,1.12-1.62,1.71-2.05,.85-.62,1.88-.76,2.72-.35,.4,.19,.73,.5,.95,.9Zm-.44,1.56c.12-.46,.09-.91-.06-1.19-.12-.2-.32-.33-.46-.4-.64-.31-1.51-.18-2.22,.35-.53,.4-1.14,1.13-1.58,1.91l-.03,.06c-.12,.18-.23,.31-.37,.41-.33,.25-.7,.28-1.09,.09-.47-.23-.85-.7-1.2-1.26l-.58,.43,3.23,5.6,.58-.43c-.17-.32-.32-.64-.41-.96-.15-.5-.3-1.4,.38-1.9,.13-.1,.29-.17,.48-.22h.06c.81-.15,1.65-.49,2.18-.9,.54-.39,.93-.98,1.1-1.6M6.79,19l2.71-2-3.23-5.6-2.7,2.01,1.26,2.18,1.28-.95v.87l-.93,.69,.71,1.22,1.99-1.48v.87l-1.64,1.21,.56,.97m3.21-2.38l.78-.57-3.23-5.6-.77,.58,3.22,5.59" fill="#fff"/><path d="M14.31,8.56c.18,.09,.36,.26,.5,.5,.28,.48,.28,1.03,0,1.24-.14,.1-.32,.1-.5,.01s-.36-.26-.5-.5c-.27-.48-.27-1.03,0-1.24,.14-.1,.32-.1,.5-.01Z" fill="#fff"/></svg>