<?xml version="1.0" encoding="UTF-8"?><svg id="a" xmlns="http://www.w3.org/2000/svg" viewBox="0 0 24 24"><rect y="0" width="24" height="24" fill="none"/><path d="M20.5,15.07v-6.14c.86-.22,1.5-1,1.5-1.93,0-1.1-.9-2-2-2-.6,0-1.13,.27-1.5,.69l-4.54-2.27c.03-.14,.05-.27,.05-.42,0-1.1-.9-2-2-2s-2,.9-2,2c0,.14,.02,.28,.05,.42l-4.54,2.27c-.37-.42-.9-.69-1.5-.69-1.1,0-2,.9-2,2,0,.93,.64,1.71,1.5,1.93v6.14c-.86,.22-1.5,1-1.5,1.93,0,1.1,.9,2,2,2,.6,0,1.13-.27,1.5-.69l4.54,2.27c-.03,.14-.05,.27-.05,.42,0,1.1,.9,2,2,2s2-.9,2-2c0-.14-.02-.28-.05-.42l4.54-2.27c.37,.42,.9,.69,1.5,.69,1.1,0,2-.9,2-2,0-.93-.64-1.71-1.5-1.93Zm-.5-9.07c.55,0,1,.45,1,1s-.45,1-1,1-1-.45-1-1,.45-1,1-1ZM12,2c.55,0,1,.45,1,1s-.45,1-1,1-1-.45-1-1,.45-1,1-1Zm-1.5,2.31c.37,.42,.9,.69,1.5,.69s1.13-.27,1.5-.69l4.54,2.27c-.03,.14-.05,.27-.05,.42s.02,.28,.05,.42l-4.54,2.27c-.37-.42-.9-.69-1.5-.69s-1.13,.27-1.5,.69l-4.54-2.27c.03-.14,.05-.27,.05-.42s-.02-.28-.05-.42l4.54-2.27Zm1.5,7.69c-.55,0-1-.45-1-1s.45-1,1-1,1,.45,1,1-.45,1-1,1ZM3,7c0-.55,.45-1,1-1s1,.45,1,1-.45,1-1,1-1-.45-1-1Zm1,11c-.55,0-1-.45-1-1s.45-1,1-1,1,.45,1,1-.45,1-1,1Zm1.95-.58c.03-.14,.05-.27,.05-.42,0-.93-.64-1.71-1.5-1.93v-6.14c.4-.1,.74-.32,1-.62l4.54,2.27c-.03,.14-.05,.27-.05,.42,0,.93,.64,1.71,1.5,1.93v6.14c-.4,.1-.74,.32-1,.62l-4.54-2.27Zm6.05,4.58c-.55,0-1-.45-1-1s.45-1,1-1,1,.45,1,1-.45,1-1,1Zm1.5-2.31c-.26-.3-.61-.52-1-.62v-6.14c.86-.22,1.5-1,1.5-1.93,0-.14-.02-.28-.05-.42l4.54-2.27c.26,.3,.61,.52,1,.62v6.14c-.86,.22-1.5,1-1.5,1.93,0,.14,.02,.28,.05,.42l-4.54,2.27Zm6.5-1.69c-.55,0-1-.45-1-1s.45-1,1-1,1,.45,1,1-.45,1-1,1Z" fill="#fff"/></svg>