<?xml version="1.0" encoding="UTF-8"?><svg id="a" xmlns="http://www.w3.org/2000/svg" viewBox="0 0 64 64"><rect x="0" y="0" width="64" height="64" fill="none"/><path d="M32,4C16.54,4,4,16.54,4,32s12.54,28,28,28,28-12.54,28-28S47.46,4,32,4Zm-8.53,42.4h-6.93V25.87h6.93v20.53Zm-3.73-23.2c-2.13,0-3.73-1.6-3.73-3.73,0-1.87,1.6-3.47,4-3.47s3.73,1.6,3.73,3.47c0,2.13-1.6,3.73-4,3.73Zm28.27,23.2h-6.93v-10.93c0-2.67-1.07-4.53-3.47-4.53-1.87,0-2.93,1.33-3.47,2.4-.27,.53-.27,1.07-.27,1.6v11.47h-6.93V25.87h6.93v2.93c.8-1.33,2.67-3.47,6.13-3.47,4.53,0,8,2.93,8,9.33v11.73Z" fill="#fff"/></svg>