<?xml version="1.0" encoding="UTF-8"?><svg id="a" xmlns="http://www.w3.org/2000/svg" viewBox="0 0 24 24"><rect y="0" width="24" height="24" fill="none"/><g opacity=".2"><g isolation="isolate"><path d="M15.99,19.83l-5.65,2.73c.12-.06,.2-.2,.2-.41l5.65-2.73c0,.21-.08,.35-.2,.41Z" fill="#2f3541"/><polygon points="10.55 21.93 16.2 19.2 16.2 19.42 10.55 22.15 10.55 21.93" fill="#2f3541"/><polygon points="13.36 17.82 10.57 19.17 10.56 20.18 9.52 19.67 7.72 20.54 10.55 21.93 16.2 19.2 13.36 17.82" fill="#2f3541"/></g><g isolation="isolate"><path d="M8.67,8.8l1.19-.58v-.87l-5.64,2.73v.87l2.02-.98c.42-1.02,1.34-1.48,2.43-1.17Z" fill="#2f3541"/><polygon points="2.45 9.21 8.1 6.48 9.87 7.35 4.23 10.07 2.45 9.21" fill="#2f3541"/></g><g isolation="isolate"><path d="M16.64,18.35l-5.65,2.73c.17-.08,.27-.28,.27-.55l5.65-2.73c0,.28-.11,.47-.27,.55Z" fill="#2f3541"/><polygon points="11.28 17.99 16.93 15.26 16.92 17.8 11.27 20.52 11.28 17.99" fill="#2f3541"/><polygon points="4.7 4.55 10.35 1.82 11.6 3.98 5.95 6.7 4.7 4.55" fill="#2f3541"/><polygon points="5.95 6.7 11.6 3.98 11.09 4.35 5.44 7.08 5.95 6.7" fill="#2f3541"/><path d="M6.79,7.97l5.65-2.73c.67-.32,1.5-.3,2.41,.14l-5.65,2.73c-.91-.44-1.75-.47-2.41-.14Z" fill="#2f3541"/><path d="M17.22,15.15l-5.65,2.73c.91-.44,1.5-1.52,1.51-3.05,.01-2.65-1.72-5.66-3.87-6.71l5.65-2.73c2.15,1.05,3.89,4.06,3.87,6.71,0,1.54-.6,2.61-1.51,3.05Z" fill="#2f3541"/><polygon points="8.87 4.45 14.52 1.72 15.23 2.07 9.58 4.79 8.87 4.45" fill="#2f3541"/><polygon points="9.58 4.79 15.23 2.07 15.21 4.26 9.57 6.98 9.58 4.79" fill="#2f3541"/><polygon points="13.72 8.94 19.37 6.22 19.86 7.08 14.22 9.8 13.72 8.94" fill="#2f3541"/><polygon points="14.22 9.8 19.86 7.08 18.61 8.02 12.96 10.74 14.22 9.8" fill="#2f3541"/></g></g><path d="M10.55,21.93v.22c0,.36-.25,.54-.54,.39l-1.77-.86c-.29-.14-.53-.55-.53-.91v-.22l2.84,1.38Z" fill="#2f3541"/><polygon points="4.23 10.07 4.22 10.95 2.45 10.08 2.45 9.21 4.23 10.07" fill="#2f3541"/><polygon points="4.7 4.55 5.95 6.7 5.44 7.08 4.2 4.92 4.7 4.55" fill="#2f3541"/><path d="M9.2,8.11c2.15,1.05,3.89,4.06,3.87,6.71,0,1.69-.72,2.83-1.79,3.17v2.53c-.02,.48-.34,.72-.73,.53l-2.84-1.38c-.39-.19-.71-.74-.7-1.22v-2.53c-1.05-1.38-1.75-3.2-1.74-4.89,.01-2.65,1.77-3.96,3.92-2.91Zm1.7,8.95c.91-.29,1.46-1.25,1.46-2.59,.01-2.16-1.41-4.63-3.17-5.49s-3.2,.22-3.21,2.38c0,1.34,.53,2.83,1.44,4.01l.32,.42v.47l-.02,2.53,2.84,1.38v-2.53l.02-.47,.32-.1" fill="#2f3541"/><polygon points="9.58 4.79 9.57 6.98 8.86 6.64 8.87 4.45 9.58 4.79" fill="#2f3541"/><polygon points="13.72 8.94 14.22 9.8 12.96 10.74 12.46 9.87 13.72 8.94" fill="#2f3541"/><g isolation="isolate"><polygon points="15.91 15.77 15.9 16.65 14.13 15.78 14.14 14.91 15.91 15.77" fill="#2f3541"/></g><g opacity=".2"><polygon points="14.14 14.91 19.79 12.18 21.56 13.05 15.91 15.77 14.14 14.91" fill="#2f3541"/></g><g opacity=".2"><polygon points="15.91 15.77 21.56 13.05 21.55 13.92 15.9 16.65 15.91 15.77" fill="#2f3541"/></g></svg>