<?xml version="1.0" encoding="UTF-8"?><svg id="a" xmlns="http://www.w3.org/2000/svg" viewBox="0 0 24 24"><rect width="24" height="24" fill="none"/><g opacity=".2"><g><g isolation="isolate"><polygon points="7.66 19.88 7.61 19.77 6.66 20.23 6.33 20.52 6.04 20.78 7.71 19.97 7.66 19.88" fill="#fff"/><polygon points="8.88 6.88 8.44 6.63 2.8 9.36 3.24 9.6 3.72 9.86 9.37 7.14 8.88 6.88" fill="#fff"/><polygon points="15.52 18.38 15.5 17.77 9.85 20.5 9.87 21.11 9.89 21.66 15.54 18.93 15.52 18.38" fill="#fff"/><path d="M10.32,20.15l5.65-2.73c-.15,.13-.3,.25-.47,.34l-5.65,2.73c.17-.1,.33-.21,.47-.34Z" fill="#fff"/><path d="M6.71,9.45l5.65-2.73c.11,.04,.22,.09,.34,.15s.22,.12,.33,.18l-5.65,2.73c-.11-.06-.22-.12-.33-.18s-.23-.1-.34-.15Z" fill="#fff"/><path d="M11.33,5.52c-.41-.06-.79-.05-1.16,.03l-.38,.08-5.65,2.73,.38-.08c.36-.07,.75-.08,1.16-.03l.42,.06,5.65-2.73-.42-.06Z" fill="#fff"/><polygon points="12.04 6.13 11.75 5.59 6.11 8.31 6.4 8.86 6.71 9.45 12.36 6.72 12.04 6.13" fill="#fff"/><polygon points="17.39 15.4 17.03 14.82 11.39 17.55 11.74 18.12 12.06 18.64 17.71 15.92 17.39 15.4" fill="#fff"/><path d="M12.06,18.64l-.12,.46c-.11,.44-.27,.85-.48,1.19l-.22,.37,5.65-2.73,.22-.37c.21-.34,.37-.74,.48-1.19l.12-.46-5.65,2.73Z" fill="#fff"/><path d="M11.39,16.72l5.65-2.73c.01,.14,.02,.28,.02,.43s0,.27-.02,.4l-5.65,2.73c.01-.13,.02-.26,.02-.4s0-.29-.02-.43Z" fill="#fff"/><g><path d="M14.13,11.29l1.88-.91c-.15-.28-.3-.55-.47-.8l-1.64,.79c.13,.3,.2,.61,.23,.92Z" fill="#fff"/><path d="M11.67,11.44l-1.78,.86c.17,.26,.32,.53,.47,.8l1.89-.91c-.22-.21-.42-.46-.58-.75Z" fill="#fff"/></g><path d="M11.58,1.88l-5.65,2.73c-.21,.1-.41,.07-.6-.02-.45-.22-.76-.76-.78-.79L10.21,1.07s.33,.58,.78,.79c.19,.09,.39,.12,.6,.02Z" fill="#fff"/><polygon points="12.08 16.3 11.75 16.5 11.39 16.72 17.04 14 17.4 13.78 17.72 13.57 12.08 16.3" fill="#fff"/><path d="M6.06,4.53L11.71,1.8c-.75,.55-.03,1.82-.01,1.86l-5.65,2.73s-.73-1.3,.01-1.86Z" fill="#fff"/><path d="M11.31,10.08c0-.97,.65-1.44,1.43-1.05,.23,.11,.45,.29,.64,.51l2.22-1.07-.38-.45c-.36-.43-.74-.81-1.15-1.15l-.42-.35-5.65,2.73,.42,.35c.41,.34,.79,.73,1.15,1.15l.38,.45,1.4-.67c-.03-.15-.04-.29-.04-.43Z" fill="#fff"/><g><path d="M11.35,10.52l-1.4,.67-.03,.52-.03,.59,1.78-.86c-.16-.29-.27-.61-.33-.92Z" fill="#fff"/><path d="M13.37,9.54c.21,.24,.39,.52,.53,.83l1.64-.79,.03-.59,.03-.52-2.22,1.07Z" fill="#fff"/></g><path d="M20.01,17.27l-5.65,2.73c-.21,.1-.41,.07-.6-.02-.44-.21-.77-.77-.78-.79l5.65-2.73s.34,.58,.78,.79c.19,.09,.39,.12,.6,.02Z" fill="#fff"/><g><path d="M14.14,11.47c0,.3-.07,.54-.18,.73l2.96-1.43-.44-.18-.48-.21-1.88,.91c0,.06,.01,.12,.01,.18Z" fill="#fff"/><path d="M12.72,12.52c-.16-.08-.32-.2-.47-.33l-1.89,.91,.48,.21,.44,.18,1.79-.86c-.11-.02-.23-.05-.35-.11Z" fill="#fff"/></g><path d="M17.61,12.99c-.11-.55-.26-1.11-.46-1.65l-.21-.58-2.96,1.43c-.19,.34-.51,.5-.9,.43l-1.79,.86,.21,.58c.2,.54,.36,1.1,.46,1.65l.12,.58,5.65-2.73-.12-.58Z" fill="#fff"/><path d="M14.49,19.91l5.65-2.73c-.75,.55-.03,1.82-.01,1.86l-5.65,2.73s-.73-1.3,.01-1.86Z" fill="#fff"/><g><path d="M12.08,12.02l-.6,.29-.53,.4,1.21-.59s-.06-.07-.09-.1Z" fill="#fff"/><path d="M14.1,11.05s.01,.09,.02,.14l2.49-1.2,.53-.4-3.03,1.46Z" fill="#fff"/></g><path d="M14.75,4.63l-5.65,2.73c-.16,.07-.31,.05-.44-.01-.33-.16-.56-.56-.57-.58l5.65-2.73s.24,.42,.57,.58c.14,.07,.29,.09,.44,.01Z" fill="#fff"/><path d="M9.19,7.3l5.65-2.73c-.56,.41-.03,1.31,0,1.36l-5.65,2.73s-.55-.96,0-1.36Z" fill="#fff"/><polygon points="9.89 8.95 15.54 6.23 16.29 6.59 10.64 9.32 9.89 8.95" fill="#fff"/><polygon points="13.06 13.53 18.71 10.8 18.71 11.72 13.06 14.44 13.06 13.53" fill="#fff"/><polygon points="10.99 7.14 16.64 4.41 17.16 5.32 11.51 8.04 10.99 7.14" fill="#fff"/><path d="M11.51,8.04l5.65-2.73c.26-.1,.55-.11,.88-.02l-5.65,2.73c-.33-.09-.62-.08-.88,.02Z" fill="#fff"/><path d="M14.81,12.23l5.65-2.73c-.05,.37-.18,.68-.36,.9l-5.65,2.73c.18-.23,.31-.54,.36-.9Z" fill="#fff"/><path d="M13.09,8.37l5.65-2.73c.32,.23,.62,.52,.87,.87l-5.65,2.73c-.25-.35-.55-.65-.87-.87Z" fill="#fff"/><path d="M21.8,14.21l-5.65,2.73c-.16,.07-.31,.05-.44-.01-.33-.16-.56-.56-.57-.58l5.65-2.73s.24,.42,.57,.58c.14,.07,.29,.09,.44,.01Z" fill="#fff"/><path d="M16.24,16.88l5.65-2.73c-.56,.41-.03,1.31,0,1.36l-5.65,2.73s-.55-.96,0-1.36Z" fill="#fff"/><polygon points="14.45 13.14 20.09 10.41 20.61 11.31 14.97 14.04 14.45 13.14" fill="#fff"/><polygon points="14.97 14.04 20.61 11.31 20.11 11.69 14.46 14.42 14.97 14.04" fill="#fff"/><polygon points="12.39 7.11 18.04 4.38 18.74 4.73 13.1 7.45 12.39 7.11" fill="#fff"/><polygon points="13.1 7.45 18.74 4.73 18.74 5.64 13.09 8.37 13.1 7.45" fill="#fff"/><path d="M14.46,10.1l5.65-2.73c.18,.4,.3,.83,.35,1.25l-5.65,2.73c-.05-.42-.17-.85-.35-1.25Z" fill="#fff"/><polygon points="14.81 11.35 20.46 8.63 21.21 8.99 15.56 11.72 14.81 11.35" fill="#fff"/><polygon points="15.56 11.72 21.21 8.99 21.2 9.87 15.55 12.6 15.56 11.72" fill="#fff"/><polygon points="14.5 8.85 20.14 6.12 20.64 6.98 14.99 9.71 14.5 8.85" fill="#fff"/><polygon points="14.99 9.71 20.64 6.98 20.11 7.37 14.46 10.1 14.99 9.71" fill="#fff"/></g><g isolation="isolate"><path d="M22.32,19.31c-.33-.16-.56-.56-.57-.58l-5.65,2.73s.24,.42,.57,.58c.14,.07,.29,.09,.44,.01l5.65-2.73c-.15,.07-.3,.05-.44-.01Z" fill="#fff"/><path d="M17.21,21.99l5.65-2.73c-.56,.41-.04,1.32,0,1.37l-5.65,2.73s-.55-.96,0-1.37Z" fill="#fff"/></g></g></g><path d="M12.08,16.3l-.33,.2-.36,.22c.01,.14,.02,.28,.02,.43s0,.27-.02,.4l.35,.58,.32,.52-.12,.46c-.11,.44-.27,.85-.48,1.19l-.22,.37-.43-.24-.48-.26c-.15,.13-.3,.25-.47,.34l.02,.61,.02,.55-.38,.08c-.36,.08-.75,.08-1.16,.03l-.42-.06-.29-.54-.32-.6c-.11-.04-.22-.08-.33-.14s-.23-.12-.34-.19l-.32,.29-.3,.26-.42-.35c-.41-.34-.79-.72-1.15-1.15l-.37-.45,.02-.53,.03-.59c-.16-.26-.32-.53-.46-.8l-.48-.21-.44-.18-.21-.58c-.2-.54-.35-1.09-.46-1.65l-.11-.58,.33-.2,.35-.23c0-.14-.01-.27-.01-.42s0-.28,.02-.4l-.35-.57-.32-.52,.12-.46c.12-.44,.28-.84,.48-1.19l.22-.37,.44,.25,.48,.26c.14-.14,.3-.26,.47-.35l-.02-.61-.02-.54,.38-.08c.36-.07,.75-.08,1.16-.03l.42,.06,.29,.54,.32,.59c.11,.04,.22,.09,.34,.15s.22,.12,.33,.18l.32-.28,.3-.26,.42,.35c.41,.34,.79,.73,1.15,1.15l.38,.45-.03,.52-.03,.59c.17,.26,.32,.53,.47,.8l.48,.21,.44,.18,.21,.58c.2,.54,.36,1.1,.46,1.65l.12,.58Zm-1.38,.5c0-.26-.03-.52-.06-.79l.63-.39c-.09-.48-.22-.95-.4-1.43l-.85-.36c-.23-.52-.52-1.03-.86-1.49l.05-1.02c-.3-.36-.64-.7-.99-.99l-.58,.51c-.2-.14-.4-.27-.61-.37s-.41-.17-.61-.22l-.56-1.06c-.35-.05-.68-.04-1,.02l.04,1.07c-.33,.14-.63,.36-.87,.65l-.85-.47c-.17,.3-.32,.64-.41,1.03l.63,1.01c-.03,.24-.06,.47-.06,.73s.02,.52,.05,.78l-.63,.4c.09,.48,.23,.96,.4,1.42l.85,.37c.24,.53,.53,1.03,.86,1.49l-.05,1.02c.31,.37,.64,.7,.99,1l.57-.51c.2,.14,.4,.27,.61,.38s.41,.17,.61,.22l.57,1.07c.35,.05,.68,.04,.99-.03l-.04-1.07c.34-.13,.63-.35,.87-.64l.85,.46c.18-.29,.32-.63,.41-1.02l-.63-1.02c.03-.23,.07-.46,.07-.72" fill="#fff"/><path d="M7.03,13.26c.78,.38,1.41,1.47,1.41,2.44s-.65,1.44-1.42,1.06-1.42-1.47-1.41-2.44c0-.97,.65-1.44,1.43-1.05Zm-.01,2.62c.39,.19,.71-.05,.71-.53s-.31-1.03-.7-1.22-.71,.05-.71,.53,.31,1.03,.7,1.22" fill="#fff"/><path d="M14.81,12.23c-.05,.37-.18,.68-.36,.9l.52,.9-.5,.38-.53-.91c-.25,.1-.54,.12-.85,.03h-.03v.91l-.71-.35v-.93c-.33-.22-.62-.52-.87-.86l-.53,.4-.5-.87,.53-.39c-.18-.4-.3-.83-.35-1.25l-.75-.36v-.88l.75,.36c.05-.37,.18-.68,.36-.9l-.52-.9,.51-.38,.52,.91c.26-.1,.55-.11,.88-.02v-.91l.71,.35v.91c.32,.23,.61,.52,.87,.87l.53-.4,.49,.86-.53,.39c.18,.4,.3,.83,.35,1.25l.75,.36v.88l-.75-.36Zm-2.09,.29c.78,.38,1.42-.09,1.42-1.06s-.63-2.06-1.41-2.44-1.43,.09-1.43,1.05,.63,2.06,1.41,2.44" fill="#fff"/><path d="M5.27,5.59c-.22-.11-.47-.13-.73,.06,.76-.56,.05-1.79,.01-1.86,.02,.03,.33,.58,.78,.79,.22,.11,.47,.13,.73-.06-.75,.55-.03,1.82-.01,1.86-.01-.02-.34-.58-.78-.79Z" fill="#fff"/><path d="M12.99,19.18s.34,.58,.78,.79c.22,.11,.47,.13,.73-.06-.75,.55-.03,1.82-.01,1.86-.01-.02-.34-.58-.78-.79-.22-.11-.47-.13-.73,.06,.75-.55,.03-1.82,.01-1.86Z" fill="#fff"/><path d="M8.61,8.08c-.16-.08-.35-.09-.53,.05,.55-.42,.03-1.31,0-1.36,.01,.02,.24,.42,.57,.58,.16,.08,.35,.09,.53-.04-.56,.41-.03,1.31,0,1.36-.01-.02-.24-.42-.57-.58Z" fill="#fff"/><path d="M16.24,16.88c-.56,.41-.03,1.31,0,1.36-.01-.02-.24-.42-.57-.58-.16-.08-.35-.09-.53,.05,.55-.42,.03-1.31,0-1.36,.01,.02,.24,.42,.57,.58,.16,.08,.35,.09,.53-.04Z" fill="#fff"/><path d="M16.67,22.04c.16,.08,.35,.09,.53-.04-.56,.41-.04,1.32,0,1.37-.01-.02-.24-.42-.57-.58-.16-.08-.35-.09-.53,.05,.55-.42,.03-1.32,0-1.37,.01,.02,.24,.42,.57,.58Z" fill="#fff"/><path d="M12.73,10.34c.19,.09,.35,.37,.35,.61s-.16,.36-.35,.27-.36-.37-.35-.61,.16-.36,.36-.27Z" fill="#fff"/></svg>