<?xml version="1.0" encoding="UTF-8"?><svg id="c" xmlns="http://www.w3.org/2000/svg" xmlns:xlink="http://www.w3.org/1999/xlink" viewBox="0 0 48 48"><defs><linearGradient id="a" x1="28.35" y1="30.83" x2="41.71" y2="30.83" gradientTransform="matrix(1, 0, 0, 1, 0, 0)" gradientUnits="userSpaceOnUse"><stop offset="0" stop-color="#2f3541" stop-opacity=".4"/><stop offset="1" stop-color="#2f3541" stop-opacity="0"/></linearGradient><linearGradient id="d" x1="19.4" y1="15.98" x2="24.56" y2="26.3" gradientTransform="matrix(1, 0, 0, 1, 0, 0)" gradientUnits="userSpaceOnUse"><stop offset="0" stop-color="#f84"/><stop offset="1" stop-color="#f49"/></linearGradient><linearGradient id="e" x1="23.29" y1="20.43" x2="27.31" y2="29.04" xlink:href="#d"/><linearGradient id="f" x1="19.59" y1="20.82" x2="21.97" y2="25.51" xlink:href="#d"/><linearGradient id="g" x1="22.87" y1="16.5" x2="26.41" y2="23.39" xlink:href="#d"/></defs><g><polyline points="44 30.5 24 20.5 4 30.5 24 40.5 44 30.5 44 30.5" fill="#f2f6ff"/><polygon points="24 40.5 24 42.5 4 32.5 4 30.5 24 40.5" fill="#fff" opacity=".2"/><polygon points="24 40.5 24 42.5 44 32.5 44 30.5 24 40.5" fill="#2f3541"/></g><path d="M32,32.66l-6,3h7.69l10.31-5.16-9-4.5h-4.75c1.09,1.99,1.76,4.35,1.74,6.66Z" fill="url(#a)"/><rect width="48" height="48" fill="none"/><path d="M17.98,25c.56,.58,1.14,1.01,1.74,1.3,.59,.29,1.18,.43,1.77,.43h.05c1.72,1.74,2.99,4.52,3.36,7.25l-9.87-4.93c.17-2.4,1.29-3.94,2.96-4.05m.19-1.01c-2.32,0-4.15,2.06-4.16,5.66l12,6c.02-3.73-1.67-7.73-4.1-9.96-.13,.02-.27,.03-.41,.03-.41,0-.86-.1-1.33-.33-.63-.31-1.22-.81-1.74-1.4-.09,0-.17,0-.25,0h0Z" fill="#2f3541"/><path d="M17.98,25c.56,.58,1.14,1.01,1.74,1.3,.59,.29,1.18,.43,1.77,.43h.05c1.72,1.74,2.99,4.52,3.36,7.25l-9.87-4.93c.17-2.4,1.29-3.94,2.96-4.05" fill="#fff3f8"/><g><path d="M18.42,24l5.93-2.86c.52,.59,1.11,1.1,1.74,1.4s1.23,.38,1.74,.3l-5.93,2.86c-.52,.09-1.11,.02-1.74-.3s-1.22-.81-1.74-1.4Z" fill="url(#d)" opacity=".8"/><path d="M21.9,25.7l5.93-2.86c2.43,2.22,4.19,6.09,4.17,9.82l-6,3c.02-3.73-1.67-7.73-4.1-9.96Z" fill="url(#e)" opacity=".8"/><path d="M18.42,24l5.93-2.86c-.6-.04-1.17,.07-1.68,.32l-5.93,2.82h.01c.51-.22,1.07-.31,1.66-.27Z" fill="url(#f)" opacity=".8"/><path d="M18.15,17.03l5.93-2.86c.51-.25,1.15-.23,1.84,.11,1.65,.8,2.97,3.1,2.96,5.12,0,1.17-.46,2-1.15,2.34l-5.93,2.86c.7-.34,1.15-1.16,1.15-2.34,.01-2.03-1.31-4.32-2.96-5.12-.69-.34-1.33-.36-1.84-.11Z" fill="url(#g)" opacity=".8"/></g><path d="M18.9,17.86h0c.19,0,.42,.06,.65,.18,1.31,.64,2.41,2.57,2.4,4.22,0,.25-.05,1.51-.9,1.51-.19,0-.42-.06-.66-.18-1.31-.64-2.4-2.57-2.39-4.22,0-.73,.24-1.5,.9-1.5m0-1c-1.1,0-1.89,.95-1.9,2.5-.01,2.03,1.31,4.33,2.95,5.13,.39,.19,.76,.28,1.1,.28,1.11,0,1.89-.95,1.9-2.5,.01-2.03-1.31-4.32-2.96-5.12-.38-.19-.75-.28-1.09-.28h0Z" fill="#2f3541"/><path d="M18.9,17.86h0c.19,0,.42,.06,.65,.18,1.31,.64,2.41,2.57,2.4,4.22,0,.25-.05,1.51-.9,1.51-.19,0-.42-.06-.66-.18-1.31-.64-2.4-2.57-2.39-4.22,0-.73,.24-1.5,.9-1.5" fill="#fff3f8"/></svg>