<?xml version="1.0" encoding="UTF-8"?><svg id="a" xmlns="http://www.w3.org/2000/svg" viewBox="0 0 24 24"><rect width="24" height="24" fill="none"/><g><path d="M12,5c1.27,0,2.51,.35,3.59,.99l-1.48,1.48c-.66-.31-1.38-.47-2.11-.47-2.76,0-5,2.24-5,5v1h1.59l-2.59,2.59-2.59-2.59h1.59v-1c0-3.86,3.14-7,7-7m0-1c-4.42,0-8,3.58-8,8H1l5,5,5-5h-3c0-2.21,1.79-4,4-4,.85,0,1.63,.27,2.28,.72l2.85-2.85c-1.39-1.16-3.18-1.87-5.13-1.87h0Z" fill="#2f3541"/><path d="M18,8.41l2.59,2.59h-1.59v1c0,3.86-3.14,7-7,7-1.27,0-2.51-.35-3.59-.99l1.48-1.48c.66,.31,1.38,.47,2.11,.47,2.76,0,5-2.24,5-5v-1h-1.59l2.59-2.59m0-1.41l-5,5h3c0,2.21-1.79,4-4,4-.85,0-1.63-.27-2.28-.72l-2.85,2.85c1.39,1.16,3.18,1.87,5.13,1.87,4.42,0,8-3.58,8-8h3l-5-5h0Z" fill="#2f3541"/></g></svg>