<?xml version="1.0" encoding="UTF-8"?><svg id="a" xmlns="http://www.w3.org/2000/svg" xmlns:xlink="http://www.w3.org/1999/xlink" viewBox="0 0 48 48"><defs><linearGradient id="d" x1="10" y1="34" x2="38" y2="34" gradientUnits="userSpaceOnUse"><stop offset="0" stop-color="#fff" stop-opacity="0"/><stop offset="1" stop-color="#2f3541"/></linearGradient><linearGradient id="e" x1="23.3" y1="30.29" x2="35.85" y2="30.29" gradientUnits="userSpaceOnUse"><stop offset="0" stop-color="#2f3541" stop-opacity=".6"/><stop offset="1" stop-color="#2f3541" stop-opacity="0"/></linearGradient><linearGradient id="f" x1="22.54" y1="14.99" x2="28.93" y2="27.88" gradientUnits="userSpaceOnUse"><stop offset="0" stop-color="#f49"/><stop offset="1" stop-color="#26f"/></linearGradient><linearGradient id="g" x1="30.69" y1="29.76" x2="23.37" y2="17.99" gradientUnits="userSpaceOnUse"><stop offset="0" stop-color="#26f"/><stop offset="1" stop-color="#f49"/></linearGradient></defs><path d="m24,10h0c7.73,0,14,6.27,14,14h0v6H10v-6c0-7.73,6.27-14,14-14Z" fill="#ffb4d6" isolation="isolate" opacity=".4"/><rect id="b" width="48" height="48" fill="none" opacity="0"/><path d="m10,32v-2h28v2c0,3.31-6.28,6-14,6s-14-2.69-14-6Z" fill="url(#d)"/><path d="m24,24c7.73,0,14,2.69,14,6s-6.27,6-14,6-14-2.69-14-6,6.27-6,14-6Z" fill="#f2f6ff"/><path d="m31.52,35.06l-7.52-2.06-2.91-6.47,2.91-1,13.77,3.42c.14.34.23.69.23,1.05,0,2.13-2.59,3.99-6.48,5.06Z" fill="url(#e)" opacity=".4"/><path d="m24,23l8-4v10l-8,4v-10Z" fill="url(#f)"/><path d="m16,19l8-4,8,4-8,4-8-4Z" fill="url(#g)"/><path id="h" d="m17,20.62l6,3v7.76l-6-3v-7.76m-1-1.62v10l8,4v-10l-8-4Z" fill="#2f3541"/><path id="i" d="m17,20.62l6,3v7.76l-6-3v-7.76" fill="#fff3f8"/></svg>