<?xml version="1.0" encoding="UTF-8"?><svg id="a" xmlns="http://www.w3.org/2000/svg" xmlns:xlink="http://www.w3.org/1999/xlink" viewBox="0 0 48 48"><defs><linearGradient id="b" x1="20.53" y1="31.08" x2="40.57" y2="31.08" gradientTransform="matrix(1, 0, 0, 1, 0, 0)" gradientUnits="userSpaceOnUse"><stop offset="0" stop-color="#2f3541" stop-opacity=".4"/><stop offset="1" stop-color="#2f3541" stop-opacity="0"/></linearGradient><linearGradient id="c" x1="23.62" y1="15.89" x2="28.75" y2="27.79" gradientTransform="matrix(1, 0, 0, 1, 0, 0)" gradientUnits="userSpaceOnUse"><stop offset="0" stop-color="#00d2b2"/><stop offset="1" stop-color="#26f"/></linearGradient></defs><g><polyline points="44 30.5 24 20.5 4 30.5 24 40.5 44 30.5 44 30.5" fill="#f2f6ff"/><polygon points="24 40.5 24 42.5 4 32.5 4 30.5 24 40.5" fill="#fff" opacity=".2"/><polygon points="24 40.5 24 42.5 44 32.5 44 30.5 24 40.5" fill="#2f3541"/></g><path d="M17,31.08c0,2.42,6.49,4.39,14.5,4.39,.93,0,1.84-.03,2.72-.08l9.78-4.89-6.94-3.47c-1.71-.22-3.59-.34-5.56-.34-8.01,0-14.5,1.96-14.5,4.39Z" fill="url(#b)"/><rect x="12" y="10" width="24" height="24" fill="none"/><ellipse cx="20.49" cy="23.39" rx="5.69" ry="9.16" transform="translate(-8.13 11.23) rotate(-25.76)" fill="#fff3f8"/><path d="M26.28,12.6c-1.51-.74-2.91-.78-4.02-.24l-5.75,2.77c1.11-.54,2.51-.5,4.02,.24,3.59,1.75,6.47,6.75,6.44,11.17-.01,2.55-.99,4.36-2.51,5.09l5.75-2.77c1.52-.73,2.49-2.53,2.51-5.09,.02-4.42-2.86-9.42-6.44-11.17Z" fill="url(#c)" opacity=".8"/><path d="M20.53,15.38c3.59,1.75,6.47,6.75,6.44,11.17s-2.94,6.59-6.53,4.84-6.47-6.75-6.44-11.17,2.95-6.59,6.53-4.84Zm-5.71,6.54c.36,2.67,1.77,5.39,3.64,7.16-.69-1.37-1.21-3.18-1.44-5.12-.92-.69-1.68-1.39-2.21-2.04m7.63,9.11c1.88,.06,3.31-1.28,3.7-3.58-.53,.13-1.29,.09-2.22-.12-.25,1.71-.78,3.01-1.48,3.7m-3.92-15.29c-1.88-.06-3.31,1.28-3.7,3.58,.53-.13,1.29-.09,2.22,.12,.25-1.71,.78-3.01,1.48-3.7m7.63,9.11c-.36-2.67-1.77-5.39-3.64-7.16,.69,1.37,1.21,3.18,1.44,5.12,.92,.69,1.68,1.39,2.21,2.04m-6.07,5.41l.02-4.4c-.82-.42-1.61-.88-2.33-1.37,.35,2.46,1.19,4.86,2.3,5.76m.05-9.71l.02-4.4c-1.12-.18-1.98,1.39-2.35,3.49,.72,.22,1.51,.52,2.33,.9m.67,10.07c1.12,.18,1.98-1.39,2.35-3.49-.72-.22-1.51-.52-2.33-.9l-.02,4.4m.08-14.11l-.02,4.4c.82,.42,1.61,.88,2.33,1.37-.35-2.46-1.19-4.86-2.3-5.76m-.77,8.47l.02-3.54c-.93-.44-1.75-.73-2.45-.93-.05,.48-.08,.97-.09,1.47s.02,1.01,.07,1.54c.69,.48,1.51,.99,2.44,1.46m.74-3.19l-.02,3.54c.93,.44,1.75,.73,2.45,.93,.05-.48,.08-.97,.09-1.47s-.03-1.02-.07-1.54c-.69-.48-1.51-.99-2.44-1.46m3.19,2.01c.03,.44,.05,.89,.04,1.34s-.02,.88-.06,1.29c1.46,.29,2.22,.05,2.22-.23s-.75-1.26-2.2-2.39m-7.1-3.46c-1.46-.29-2.22-.05-2.22,.23s.75,1.26,2.2,2.39c-.03-.44-.05-.89-.04-1.34s.02-.88,.06-1.29" fill="#2f3541"/><rect x="0" y="0" width="48" height="48" fill="none"/></svg>