<?xml version="1.0" encoding="UTF-8"?><svg id="a" xmlns="http://www.w3.org/2000/svg" viewBox="0 0 24 24"><rect y="0" width="24" height="24" transform="translate(24 0) rotate(90)" fill="none"/><rect y="0" width="24" height="24" fill="none"/><path d="M12,3c4.96,0,9,4.04,9,9s-4.04,9-9,9S3,16.96,3,12,7.04,3,12,3m0-1C6.48,2,2,6.48,2,12s4.48,10,10,10,10-4.48,10-10S17.52,2,12,2h0Z" fill="#fff"/><polygon points="14 15.97 14 16.97 10 16.97 10 15.97 11 15.97 11 10.97 10 10.97 10 10 13 10 13 15.97 14 15.97" fill="#fff"/><circle cx="12" cy="8" r="1" fill="#fff"/></svg>