<?xml version="1.0" encoding="UTF-8"?><svg id="a" xmlns="http://www.w3.org/2000/svg" viewBox="0 0 24 24"><rect width="24" height="24" fill="none"/><g><rect x="9" y="7" width="6" height="1" rx=".5" ry=".5" fill="#fff"/><path d="M12,3c1.17,0,1.98,.17,2.5,.34l-1.25,1.66h-2.5l-1.25-1.66c.53-.17,1.33-.34,2.5-.34m0-1c-3,0-4,1-4,1l2.25,3h3.5l2.25-3s-1-1-4-1h0Z" fill="#fff"/><path d="M14.64,10c1.79,1.5,4.36,4.26,4.36,6,0,3.79-1.7,5-7,5s-7-1.21-7-5c0-1.74,2.57-4.5,4.36-6h5.29m.36-1h-6s-5,4-5,7c0,4.97,3.03,6,8,6s8-1.03,8-6c0-3-5-7-5-7h0Z" fill="#fff"/><g><path d="M13.47,15.99c-.81,0-1.48,.66-1.48,1.48s.66,1.48,1.48,1.48,1.48-.66,1.48-1.48-.66-1.48-1.48-1.48Zm0,1.97c-.27,0-.49-.22-.49-.49s.22-.49,.49-.49,.49,.22,.49,.49-.22,.49-.49,.49Z" fill="#fff"/><path d="M10.52,12.05c-.81,0-1.48,.66-1.48,1.48s.66,1.48,1.48,1.48,1.48-.66,1.48-1.48-.66-1.48-1.48-1.48Zm0,1.97c-.27,0-.49-.22-.49-.49s.22-.49,.49-.49,.49,.22,.49,.49-.22,.49-.49,.49Z" fill="#fff"/><rect x="7.54" y="15.01" width="8.92" height=".98" transform="translate(-7.45 13.03) rotate(-45)" fill="#fff"/></g></g></svg>