<?xml version="1.0" encoding="UTF-8"?><svg id="a" xmlns="http://www.w3.org/2000/svg" xmlns:xlink="http://www.w3.org/1999/xlink" viewBox="0 0 48 48"><defs><linearGradient id="b" x1="23.4" y1="30.05" x2="40.99" y2="30.05" gradientTransform="matrix(1, 0, 0, 1, 0, 0)" gradientUnits="userSpaceOnUse"><stop offset="0" stop-color="#2f3541" stop-opacity=".6"/><stop offset="1" stop-color="#2f3541" stop-opacity="0"/></linearGradient><linearGradient id="c" x1="24.54" y1="17.31" x2="24.54" y2="17.31" gradientTransform="matrix(1, 0, 0, 1, 0, 0)" gradientUnits="userSpaceOnUse"><stop offset="0" stop-color="#00d2b2"/><stop offset="1" stop-color="#26f"/></linearGradient><linearGradient id="d" x1="27.65" y1="26.29" x2="27.67" y2="26.29" xlink:href="#c"/><linearGradient id="e" x1="27.96" y1="25.41" x2="27.97" y2="25.41" xlink:href="#c"/><linearGradient id="f" x1="22.25" y1="24.27" x2="24.55" y2="29.23" gradientTransform="matrix(1, 0, 0, 1, 0, 0)" gradientUnits="userSpaceOnUse"><stop offset="0" stop-color="#f49"/><stop offset="1" stop-color="#26f"/></linearGradient><linearGradient id="g" x1="28.75" y1="22.07" x2="33.09" y2="31.08" xlink:href="#f"/><linearGradient id="h" x1="26.88" y1="16.9" x2="31.6" y2="27.8" xlink:href="#f"/><linearGradient id="i" x1="17.75" y1="19.92" x2="20.12" y2="24.5" xlink:href="#f"/><linearGradient id="j" x1="17.71" y1="17.14" x2="20.36" y2="22.53" xlink:href="#f"/></defs><g><polyline points="44 30.5 24 20.5 4 30.5 24 40.5 44 30.5 44 30.5" fill="#f2f6ff"/><polygon points="24 40.5 24 42.5 4 32.5 4 30.5 24 40.5" fill="#fff" opacity=".2"/><polygon points="24 40.5 24 42.5 44 32.5 44 30.5 24 40.5" fill="#2f3541"/></g><polyline points="44 30.5 32.21 24.6 20.3 25.69 23.69 32.6 34 35.5 44 30.5 44 30.5" fill="url(#b)" opacity=".4"/><polygon points="27.48 29.18 28.59 31.11 28.92 30.87 27.8 28.94 27.48 29.18" fill="#fff3f8"/><rect x="13" y="11" width="24" height="24" fill="none"/><path d="M23.82,26.52c1.95,.95,3.55-.23,3.56-2.65,.01-2.41-1.56-5.14-3.51-6.09s-3.55,.23-3.57,2.64c-.01,2.42,1.57,5.15,3.52,6.1" fill="#fff3f8"/><polygon points="19.64 20.74 18.99 21.06 16.75 21.8 16.71 28.32 22.98 31.38 23 27.79 24.34 27.18 19.64 20.74" fill="#fff3f8"/><g isolation="isolate"><path d="M23.87,16.91c2.35,1.14,4.24,4.42,4.22,7.31s-1.93,4.32-4.28,3.18-4.24-4.43-4.22-7.32,1.93-4.31,4.28-3.17Zm-.05,9.62c1.95,.95,3.55-.23,3.56-2.65,.01-2.41-1.56-5.14-3.51-6.09s-3.55,.23-3.57,2.64c-.01,2.42,1.57,5.15,3.52,6.1" fill="#fff"/></g><polygon points="24.54 17.31 24.54 17.31 24.54 17.31 24.54 17.31" fill="url(#c)" opacity=".2"/><path d="M27.65,26.31h0s0-.03,.01-.04l-.02,.04Z" fill="url(#d)" opacity=".2"/><path d="M27.96,25.43s.01-.03,.02-.04h0v.04Z" fill="url(#e)" opacity=".2"/><rect x="0" y="0" width="48" height="48" fill="none"/><g><path d="M23.82,27.4h0l-.81,.39s.07,.05,.11,.07c.07,.05,.14,.09,.22,.14,.06,.04,.12,.07,.17,.1,.05,.03,.1,.05,.15,.08l.06,.03,1.02-.49c-.3-.06-.6-.17-.92-.32Z" fill="url(#f)" opacity=".8"/><path d="M26.45,27.55c.5-.24,.92-.67,1.2-1.24l-3.94,1.9-.02,4.38,3.94-1.9-1.15-2,1.33-.99,1.54-.74v-.81l-2.9,1.4Z" fill="#26f" opacity=".8"/><g opacity=".8"><polygon points="28.58 32.35 29.92 31.36 35.57 28.63 34.23 29.62 28.58 32.35" fill="#26f"/></g><polygon points="27.81 27.7 33.46 24.98 35.57 28.63 29.92 31.36 27.81 27.7" fill="url(#g)" opacity=".8"/><path d="M30.11,14.54h.02c-.06-.05-.12-.09-.18-.12-.06-.04-.12-.07-.18-.1-.06-.03-.12-.06-.18-.09-.03-.01-.05-.03-.08-.04-.03-.02-.07-.03-.1-.05-.06-.03-.12-.05-.18-.08-.06-.02-.12-.05-.18-.07-.06-.02-.12-.04-.18-.06-.03,0-.06-.02-.09-.02h-.02s-.05-.02-.07-.03c-.06-.02-.12-.03-.18-.04-.06-.01-.13-.02-.19-.03-.07,0-.13-.02-.2-.02h-.05c-.05,0-.11,0-.16,0-.08,0-.15,0-.23,.01-.08,0-.15,.02-.22,.03h-.03c-.11,.03-.21,.06-.32,.09-.08,.03-.16,.06-.24,.1l-5.65,2.73c.18-.09,.37-.15,.57-.19h.02c.2-.04,.4-.05,.61-.04h.02c.22,.01,.44,.05,.67,.11h.02c.23,.07,.47,.16,.72,.28,2.35,1.14,4.24,4.42,4.22,7.31,0,1.67-.65,2.85-1.65,3.33l5.65-2.73c.99-.48,1.64-1.66,1.65-3.33,.01-2.65-1.57-5.59-3.63-6.95Z" fill="url(#h)" opacity=".8"/><g opacity=".8"><path d="M19.66,19.25l-3.62,1.75,2.86-.96,.71-.34c.01-.15,.03-.3,.05-.44Z" fill="url(#i)"/><path d="M19.59,20.07c0-.13,0-.26,.02-.38l-.71,.34c0,.09,0,.17,.01,.26,0,.1,.01,.19,.02,.29,0,.09,.02,.19,.03,.28,0,.06,.02,.13,.03,.19l.66-.32c-.02-.22-.05-.45-.05-.67Z" fill="url(#j)"/></g></g><g><path d="M18.9,20.03c.01,.34,.04,.68,.09,1.02l-2.24,.75-.04,6.52,6.27,3.06,.02-3.59c.24,.16,.47,.31,.71,.42l-.02,4.38-7.69-3.75,.04-7.85,2.86-.96Z" fill="#2f3541"/><path d="M21.31,19.4l3.24,4.32v2.15c-.24-.04-.47-.1-.72-.22v-1.81l-2.76-3.69c.05-.29,.13-.53,.24-.74Z" fill="#2f3541"/><path d="M27.81,27.7l2.11,3.66-1.33,.99-2.11-3.66,1.33-.99Zm-.33,1.48,0,0l1.11,1.93,.33-.24-1.11-1.93-.33,.24Z" fill="#2f3541"/><path d="M23.87,16.91c2.35,1.14,4.24,4.42,4.22,7.31s-1.93,4.32-4.28,3.18-4.24-4.43-4.22-7.32,1.93-4.31,4.28-3.17Zm-.05,9.62c1.95,.95,3.55-.23,3.56-2.65,.01-2.41-1.56-5.14-3.51-6.09s-3.55,.23-3.57,2.64c-.01,2.42,1.57,5.15,3.52,6.1" fill="#2f3541"/></g></svg>