<?xml version="1.0" encoding="UTF-8"?><svg id="a" xmlns="http://www.w3.org/2000/svg" viewBox="0 0 24 24"><g opacity=".2"><polygon points="8 15 12 13 12 18 8 20 8 15" fill="#fff"/></g><g opacity=".2"><polygon points="4 13 8 11 12 13 8 15 4 13" fill="#fff"/></g><path d="M5,14.62l2,1v2.76l-2-1v-2.76m-1-1.62v5l4,2v-5l-4-2h0Z" fill="#fff"/><g opacity=".2"><polygon points="12 8 16 6 16 11 12 13 12 8" fill="#fff"/></g><g opacity=".2"><polygon points="8 6 12 4 16 6 12 8 8 6" fill="#fff"/></g><path d="M9,7.62l2,1v2.76l-2-1v-2.76m-1-1.62v5l4,2v-5l-4-2h0Z" fill="#fff"/><g opacity=".2"><polygon points="16 15 20 13 20 18 16 20 16 15" fill="#fff"/></g><g opacity=".2"><polygon points="12 13 16 11 20 13 16 15 12 13" fill="#fff"/></g><path d="M13,14.62l2,1v2.76l-2-1v-2.76m-1-1.62v5l4,2v-5l-4-2h0Z" fill="#fff"/><rect x="0" y="0" width="24" height="24" fill="none"/></svg>