<?xml version="1.0" encoding="UTF-8"?><svg id="a" xmlns="http://www.w3.org/2000/svg" viewBox="0 0 24 24"><path d="M10.89,3.76c3.26,2.17,6.48,5.57,7.02,9.52,.38,2.71-.48,5.11-2.24,6.61,.22-.59,.33-1.23,.32-1.91-.03-1.25-.97-2.4-1.54-3.08-.09-.11-.17-.2-.23-.28-.63-.82-.72-1.55-.73-1.69l-.11-1.48-1.33,.66c-2.33,1.15-4.02,3.64-4.02,5.91,0,.75,.19,1.45,.51,2.09-1.19-.83-1.95-1.9-2.3-3.22-.53-1.97-.24-4.02,.84-5.94,.4-.71,.86-1.38,1.34-2.09,.38-.56,.77-1.13,1.14-1.73,.7-1.14,1.14-2.29,1.32-3.38m-.96-1.76c.23,1.63-.4,3.27-1.21,4.61-.79,1.3-1.74,2.52-2.49,3.85-1.15,2.05-1.56,4.36-.94,6.69,.51,1.92,1.85,3.69,4.71,4.85h2.01c-1.56-.62-2.97-2.27-2.97-3.99,0-1.85,1.41-4,3.46-5.01,.03,.46,.24,1.33,.93,2.23,.41,.54,1.54,1.69,1.56,2.77,.04,2.04-1.27,3.39-2.99,4h1.99c3.76-1.38,5.43-5.08,4.91-8.86-.64-4.69-4.81-8.81-8.97-11.13h0Z" fill="#2f3541"/><rect width="24" height="24" fill="none"/></svg>