<?xml version="1.0" encoding="UTF-8"?><svg id="a" xmlns="http://www.w3.org/2000/svg" viewBox="0 0 24 24"><rect id="c" width="24" height="24" fill="none" opacity="0"/><polygon points="2.77 15.38 2.78 14.68 2.06 15.03 2.77 15.38" fill="rgba(255,255,255,.2)"/><polygon points="20.45 18.52 20.52 5.4 16.28 3.33 15 3.95 14.86 2.64 13.44 1.95 12.16 2.57 12.03 1.26 10.61 .57 8.71 1.49 8.48 1.28 2.83 4.01 4.55 5.56 4.97 3.29 6.38 3.98 6.75 7.54 7.2 7.95 7.8 4.67 9.22 5.37 9.72 10.22 10.61 11.02 10.63 6.06 14.88 8.13 14.81 21.25 16.23 21.94 16.22 22.81 21.87 20.09 21.87 19.21 20.45 18.52" fill="rgba(255,255,255,.2)"/><path d="M7.73,16.05l-1.42-.69v-1.75s.72,.35,.72,.35v.88s.7,.35,.7,.35v.87Zm.01-3.5l-.71-.35v-.87s-.7-.35-.7-.35v1.75s1.41,.69,1.41,.69v-.87Zm2.12,3.67l-.71-.35v-.88s-.71-.35-.71-.35v1.75s1.41,.69,1.41,.69v-.87Zm.02-2.63l-.71-.35v-.87s-.71-.35-.71-.35v1.75s1.41,.69,1.41,.69v-.87Zm6.35,8.36v.87s-1.43-.69-1.43-.69l-3.54-1.73-.71-.35-7.79-3.8-.71-.35v-.87s.72,.35,.72,.35l.06-11.37,1.72,1.56,.42-2.27,1.42,.69,.37,3.56,.45,.41,.59-3.28,1.42,.69,.5,4.85,.88,.79,.03-4.96,4.25,2.07-.07,13.12,1.42,.69ZM7.88,8.56l1.09,.98-.38-3.6-.22-.11-.49,2.73Zm-2.65-2.39l.77,.7-.24-2.31-.22-.11-.31,1.72Zm5.37,5.77L3.53,5.57l-.06,10.15,7.08,3.45,.04-7.24Zm3.56-3.28l-2.83-1.38-.02,4.38-.04,7.87,2.83,1.38v-1.75s-2.11-1.04-2.11-1.04v-.87s2.13,1.04,2.13,1.04v-.88s-2.12-1.04-2.12-1.04v-.87s2.13,1.04,2.13,1.04v-.87s-2.12-1.04-2.12-1.04v-.87s2.13,1.04,2.13,1.04v-.87s-2.12-1.04-2.12-1.04v-.87s2.13,1.04,2.13,1.04v-.87s-2.12-1.04-2.12-1.04v-.87s2.13,1.04,2.13,1.04v-.87s-2.12-1.04-2.12-1.04v-.88s2.13,1.04,2.13,1.04v-.87ZM5.62,14.14l-.71-.35v-.88s-.7-.35-.7-.35v1.75s1.41,.69,1.41,.69v-.87Zm.02-2.63l-.71-.35v-.87s-.7-.35-.7-.35v1.75s1.41,.69,1.41,.69v-.87Z" fill="#fff"/></svg>