<?xml version="1.0" encoding="UTF-8"?><svg id="a" xmlns="http://www.w3.org/2000/svg" viewBox="0 0 24 24"><rect y="-.07" width="24" height="24" fill="none"/><rect width="24" height="24" fill="none"/><g><path d="M21,11.93c0,4.97-4.03,9-9,9S3,16.9,3,11.93C3,7.3,6.5,3.49,11,2.99V.93l2.07,2.07,.43,.43-.56,.56-1.94,1.94v-1.93c-3.94,.49-7,3.86-7,7.93,0,4.41,3.59,8,8,8s8-3.59,8-8c0-3.65-2.46-6.73-5.81-7.69l.79-.79c3.5,1.23,6.02,4.56,6.02,8.48Z" fill="#fff"/><g><rect x="11" y="13" width="1" height="1" fill="#fff"/><rect x="11" y="11" width="1" height="1" fill="#fff"/><rect x="11" y="15" width="1" height="1" fill="#fff"/><path d="M15,7h-4l-2,2v9h5l2-2V7h-1Zm-3.59,1h2.88l-1,1h-2.88l1-1Zm-1.41,9v-7h3v7h-3Zm4-7v-.29l1-1v6.88l-1,1v-6.59Z" fill="#fff"/></g></g></svg>