<?xml version="1.0" encoding="UTF-8"?><svg id="a" xmlns="http://www.w3.org/2000/svg" viewBox="0 0 24 24"><g><path d="M5.67,11c-1.04,0-1.67,.48-1.67,.69v2.54c0,.06,.08,.19,.3,.34l.34,.22,.09,.4,1.07,4.81h2.4l1.07-4.81,.09-.4,.34-.22c.22-.15,.3-.28,.3-.34v-2.54c0-.21-.63-.69-1.67-.69h-2.67m0-1h2.67c1.47,0,2.67,.76,2.67,1.69v2.54c0,.46-.29,.87-.75,1.17l-1.25,5.59H5l-1.25-5.59c-.47-.31-.75-.72-.75-1.17v-2.54c0-.93,1.19-1.69,2.67-1.69Z" fill="#2f3541"/><path d="M7,4c1.1,0,2,.9,2,2s-.9,2-2,2-2-.9-2-2,.9-2,2-2m0-1c-1.66,0-3,1.34-3,3s1.34,3,3,3,3-1.34,3-3-1.34-3-3-3h0Z" fill="#2f3541"/><g><polygon points="14 4.5 15 4.25 15 3.25 14 3.5 14 4.5" fill="#2f3541"/><polygon points="17 9.25 16 9 16 10 17 10.25 17 9.25" fill="#2f3541"/><polygon points="19 2.25 18 2.5 18 3.5 19 3.25 19 2.25" fill="#2f3541"/><polygon points="15 9.75 15 8.75 14 8.5 14 9.5 15 9.75" fill="#2f3541"/><polygon points="20 3 21 3 21 2 20 2 20 3 20 3" fill="#2f3541"/><polygon points="16 3 16 4 17 3.75 17 2.75 16 3 16 3" fill="#2f3541"/><polygon points="20 2 20 2 20 2 20 2" fill="#2f3541"/><polygon points="13 8.25 12 8 12 9 13 9.25 13 8.25" fill="#2f3541"/><polygon points="13 3.75 12 4 12 5 13 4.75 13 3.75" fill="#2f3541"/><polygon points="20 10 20 11 20 11 21 11 21 10 20 10" fill="#2f3541"/><rect x="20" y="8" width="1" height="1" fill="#2f3541"/><polygon points="19 9.75 18 9.5 18 10.5 19 10.75 19 9.75" fill="#2f3541"/><rect x="20" y="6" width="1" height="1" fill="#2f3541"/><rect x="20" y="4" width="1" height="1" fill="#2f3541"/></g></g><path id="b" d="M24,24H0V0H24" fill="none"/></svg>