<?xml version="1.0" encoding="UTF-8"?><svg id="a" xmlns="http://www.w3.org/2000/svg" xmlns:xlink="http://www.w3.org/1999/xlink" viewBox="0 0 48 48"><defs><linearGradient id="d" x1="17.11" y1="25.74" x2="18.13" y2="26.96" gradientUnits="userSpaceOnUse"><stop offset="0" stop-color="#f49"/><stop offset=".17" stop-color="#fb449a"/><stop offset=".31" stop-color="#f1469f"/><stop offset=".44" stop-color="#e048a6"/><stop offset=".56" stop-color="#c94cb1"/><stop offset=".67" stop-color="#aa51c0"/><stop offset=".78" stop-color="#8456d1"/><stop offset=".89" stop-color="#575de6"/><stop offset=".99" stop-color="#2565fd"/><stop offset="1" stop-color="#26f"/></linearGradient><linearGradient id="e" x1="20.93" y1="25.13" x2="25.25" y2="33.99" gradientUnits="userSpaceOnUse"><stop offset="0" stop-color="#f49"/><stop offset="1" stop-color="#26f"/></linearGradient><linearGradient id="f" x1="29.03" y1="31.55" x2="29.71" y2="32.96" xlink:href="#e"/><linearGradient id="g" x1="28.56" y1="30.22" x2="30.02" y2="31.95" xlink:href="#d"/><linearGradient id="h" x1="24.9" y1="24.52" x2="26.63" y2="28.07" xlink:href="#e"/><linearGradient id="i" x1="24.25" y1="18.76" x2="27.34" y2="25.09" xlink:href="#e"/><linearGradient id="j" x1="25.87" y1="30.57" x2="44" y2="30.57" gradientUnits="userSpaceOnUse"><stop offset="0" stop-color="#2f3541" stop-opacity=".4"/><stop offset="1" stop-color="#2f3541" stop-opacity="0"/></linearGradient></defs><rect y="0" width="48" height="48" fill="none"/><polyline points="44 30.5 24 20.5 4 30.5 24 40.5 44 30.5 44 30.5" fill="#f2f6ff"/><polygon points="24 40.5 24 42.5 4 32.5 4 30.5 24 40.5" fill="#fff" opacity=".2"/><polygon points="24 40.5 24 42.5 44 32.5 44 30.5 24 40.5" fill="#2f3541"/><rect x="12" y="13" width="24" height="24" fill="none"/><rect x="12" y="13" width="24" height="24" fill="none"/><rect id="c" x="12" y="13" width="24" height="24" fill="none"/><rect x="12" y="13" width="24" height="24" fill="none"/><g opacity=".8"><polygon points="19.41 25.21 15.49 27.1 16.2 27.44 19.4 25.9 19.41 25.21" fill="url(#d)"/><path d="m29.96,30.42l-7.01-3.42-.02,2.84-3.32-1.62-.21-.1v-1.35s.01-.87.01-.87l-3.2,1.55v.87c0,.48.31,1.03.7,1.22l8.5,4.14c.16.08.32.08.44.03l.98-.47v-.24s0-.37,0-.37l-.71-.35,3.84-1.85Z" fill="url(#e)"/><path d="m30.66,30.77l-3.84,1.85v.37s0,.24,0,.24v.27c0,.56-.22.95-.55,1.11l5.65-2.73c.33-.16.54-.55.55-1.11v-.87s-1.8.87-1.8.87Z" fill="url(#f)"/><polygon points="31.76 29.55 29.96 30.42 26.11 32.28 26.82 32.62 30.66 30.77 32.47 29.9 31.76 29.55" fill="url(#g)"/><g isolation="isolate"><polygon points="22.95 25.47 28.6 22.75 28.58 27.12 22.93 29.85 22.95 25.47" fill="url(#h)"/><polygon points="21.21 20.24 26.86 17.52 30.37 23.61 24.73 26.34 21.21 20.24" fill="url(#i)"/></g></g><path d="m26.11,32.28l.71.35v.87c-.01.97-.65,1.44-1.43,1.06l-8.5-4.14c-.78-.38-1.41-1.47-1.41-2.44v-.87s.71.35.71.35v.87c0,.48.31,1.03.7,1.22l8.5,4.14c.39.19.71-.05.71-.53v-.87Z" fill="#2f3541"/><path d="m19.39,28.12l.02-4.38-1.77-.86,3.57-2.64,3.51,6.09-1.77-.86-.02,4.38-3.54-1.73Zm-.04-5.28l.06.03.71.35v.87s-.02,3.5-.02,3.5l2.12,1.04.02-3.5v-.87s.71.35.71.35l.06.03-1.82-3.15-1.85,1.36" fill="#2f3541"/><polyline points="19.36 22.84 19.42 22.87 20.13 23.22 20.12 24.09 20.11 27.59 22.23 28.63 22.25 25.13 22.25 24.25 22.96 24.6 23.02 24.63 21.21 21.48 19.36 22.84" fill="#fff0f5"/><path d="m35.93,26.47h-7.35v.66s-2.71,1.31-2.71,1.31l4.08,1.99,1.81-.87.71.35v.87c0,.56-.22.95-.55,1.11l-5.65,2.73s-.09.04-.14.05c-.09.02-.17.03-.23.03h9.78l8.33-4.17-8.07-4.04Z" fill="url(#j)"/></svg>