<?xml version="1.0" encoding="UTF-8"?><svg id="a" xmlns="http://www.w3.org/2000/svg" viewBox="0 0 24 24"><rect y="0" width="24" height="24" fill="none"/><g><polygon points="15 13 14 13 14.29 14 15.29 14 15 13" fill="#2f3541"/><polygon points="10 13 9 13 8.71 14 9.71 14 10 13" fill="#2f3541"/><polygon points="16.14 17 15.14 17 15.43 18 16.43 18 16.14 17" fill="#2f3541"/><polygon points="15.57 15 14.57 15 14.86 16 15.86 16 15.57 15" fill="#2f3541"/><polygon points="8.14 16 9.14 16 9.43 15 8.43 15 8.14 16" fill="#2f3541"/><polygon points="15.71 19 16 20 17 20 16.71 19 15.71 19" fill="#2f3541"/><polygon points="7 20 8 20 8.29 19 7.29 19 7 20" fill="#2f3541"/><polygon points="7.57 18 8.57 18 8.86 17 7.86 17 7.57 18" fill="#2f3541"/><path d="M20,7h-1v-2h3c0-.28-.86-1-2.58-1-.16,0-.29,.02-.42,.03v-.53c0-.28-.22-.5-.5-.5s-.5,.22-.5,.5v.5h-3c0,.28,.86,1,2.58,1,.16,0,.29-.02,.42-.03v2.03h-.65c-.22,0-.42-.07-.6-.2-.66-.5-2.58-1.8-4.75-1.8s-4.09,1.3-4.75,1.8c-.17,.13-.38,.2-.6,.2h-.65v-2h3c0-.28-.86-1-2.58-1-.16,0-.29,.02-.42,.03v-.53c0-.28-.22-.5-.5-.5s-.5,.22-.5,.5v.5H2c0,.28,.86,1,2.58,1,.16,0,.29-.02,.42-.03v2.03h-1c-.55,0-1,.45-1,1h0c0,.56,.43,.99,.98,1.01,1.06,.03,2.28,.18,3.44,.72-1.47,1.28-2.42,3.16-2.42,5.27h1c0-1.93,.92-3.63,2.34-4.73,.18,.13,.36,.26,.53,.42,.91,.81,2.05,1.31,3.26,1.31h0c1.15,0,2.26-.43,3.13-1.19,.19-.16,.36-.3,.54-.44,1.34,1.1,2.2,2.76,2.2,4.62h1c0-2.07-.91-3.93-2.34-5.21,1.08-.64,2.01-.76,3.35-.79,.55,0,.99-.45,.99-1h0c0-.56-.45-1.01-1-1.01Zm-4.18,2.14h0c-.28,.18-.57,.4-.87,.64h0c-.11,.09-.22,.17-.34,.28-.7,.61-1.58,.94-2.47,.94s-1.83-.38-2.6-1.06c-.1-.09-.21-.17-.32-.25h0c-.3-.24-.61-.45-.92-.62h0c-1.48-.84-3.03-1.02-4.3-1.06h2.65c.44,0,.86-.14,1.2-.4,.49-.38,2.25-1.6,4.15-1.6s3.66,1.22,4.15,1.6c.34,.26,.76,.4,1.2,.4h2.64c-1.66,.03-2.81,.24-4.18,1.14Z" fill="#2f3541"/><rect x="9.53" y="19" width="1" height="1" fill="#2f3541"/><rect x="13.53" y="19" width="1" height="1" fill="#2f3541"/><rect x="11.53" y="19" width="1" height="1" fill="#2f3541"/></g></svg>