<?xml version="1.0" encoding="UTF-8"?><svg id="a" xmlns="http://www.w3.org/2000/svg" viewBox="0 0 24 24"><path d="M12,4.5c1.65,0,3,1.35,3,3s-1.35,3-3,3-3-1.35-3-3,1.35-3,3-3m2.39,8.48c2.46,1.02,4.22,3.58,4.55,6.52H5.06c.33-2.94,2.1-5.49,4.55-6.52,.77,.34,1.57,.52,2.39,.52s1.62-.17,2.39-.52M12,3.5c-2.21,0-4,1.79-4,4s1.79,4,4,4,4-1.79,4-4-1.79-4-4-4h0Zm2.34,8.39c-.7,.37-1.49,.61-2.34,.61s-1.64-.23-2.34-.61c-3.28,1.13-5.66,4.55-5.66,8.61H20c0-4.05-2.38-7.48-5.66-8.61h0Z" fill="#2f3541"/><rect x="0" width="24" height="24" fill="none"/></svg>