<?xml version="1.0" encoding="UTF-8"?><svg id="a" xmlns="http://www.w3.org/2000/svg" viewBox="0 0 24 24"><rect y="0" width="24" height="24" fill="none"/><path d="M20.99,10h-.99v-2h3c0-.28-.86-1-2.58-1-.16,0-.29,.02-.42,.03v-.53c0-.28-.22-.5-.5-.5s-.5,.22-.5,.5v.5h-3c0,.28,.86,1,2.58,1,.16,0,.29-.02,.42-.03v2.03h-1.12c-.21,0-.41-.07-.58-.18-.72-.5-2.86-1.82-5.3-1.82s-4.58,1.32-5.3,1.82c-.17,.12-.37,.18-.58,.18h-1.12v-2h3c0-.28-.86-1-2.58-1-.16,0-.29,.02-.42,.03v-.53c0-.28-.22-.5-.5-.5s-.5,.22-.5,.5v.5H1c0,.28,.86,1,2.58,1,.16,0,.29-.02,.42-.03v2.03h-1c-.55,0-1,.45-1,1v.03c0,.53,.41,.97,.95,1.01,1.65,.13,3.65,.66,5.37,2.23-1.41,1.1-2.32,2.81-2.32,4.73h1c0-1.66,.82-3.11,2.06-4.03,.72,.66,1.67,1.03,2.65,1.03h.85c.92,0,1.81-.33,2.51-.91,1.16,.92,1.92,2.32,1.92,3.91h1c0-1.85-.84-3.5-2.15-4.6,1.9-1.75,3.1-2.28,5.19-2.38,.53-.03,.96-.46,.96-1h0c0-.57-.45-1.02-1.01-1.02Zm-5.98,3.82c-.13,.12-.25,.22-.38,.35-.14,.13-.29,.25-.45,.35-.48,.31-1.04,.48-1.62,.48h-.85c-.65,0-1.26-.2-1.75-.56-.14-.1-.27-.21-.39-.34-.13-.14-.27-.27-.4-.4-1.62-1.57-3.68-2.48-6.18-2.71h3.12c.41,0,.81-.12,1.15-.36,.56-.38,2.55-1.64,4.73-1.64s4.17,1.25,4.73,1.64c.34,.24,.74,.36,1.15,.36l3.11,.02c-2.4,.12-3.81,.77-5.98,2.8Z" fill="#2f3541"/></svg>