<?xml version="1.0" encoding="UTF-8"?><svg id="a" xmlns="http://www.w3.org/2000/svg" xmlns:xlink="http://www.w3.org/1999/xlink" viewBox="0 0 48 48"><defs><linearGradient id="c" x1="22.06" y1="31.07" x2="40.8" y2="31.07" gradientUnits="userSpaceOnUse"><stop offset="0" stop-color="#2f3541" stop-opacity=".4"/><stop offset="1" stop-color="#2f3541" stop-opacity="0"/></linearGradient><linearGradient id="d" x1="18.94" y1="20.68" x2="19.57" y2="21.98" gradientUnits="userSpaceOnUse"><stop offset="0" stop-color="#f49"/><stop offset="1" stop-color="#26f"/></linearGradient><linearGradient id="e" x1="19.41" y1="21.25" x2="19.81" y2="22.07" xlink:href="#d"/><linearGradient id="f" x1="25.27" y1="17.87" x2="28.36" y2="24.2" xlink:href="#d"/><linearGradient id="g" x1="28.49" y1="24.11" x2="31.31" y2="29.88" xlink:href="#d"/></defs><rect y="0" width="48" height="48" fill="none"/><polyline points="44 30.5 24 20.5 4 30.5 24 40.5 44 30.5 44 30.5" fill="#f2f6ff"/><polygon points="24 40.5 24 42.5 4 32.5 4 30.5 24 40.5" fill="#fff" opacity=".2"/><polygon points="24 40.5 24 42.5 44 32.5 44 30.5 24 40.5" fill="#2f3541"/><rect x="11.99" y="12.24" width="24" height="24" fill="none"/><path d="m26.91,34.41c1.42.69,2.98,1.05,4.56,1.05h.03c.93,0,1.84-.03,2.72-.08l9.78-4.89-6.94-3.47c-1.71-.22-3.59-.34-5.56-.34-5.02,0-9.44.77-12.04,1.95-.91.41-.93,1.69-.04,2.12l7.48,3.65Z" fill="url(#c)"/><g opacity=".8"><path d="m28.12,31c-.05.09-.09.18-.15.26.06-.08.1-.17.15-.26Z" fill="none"/><path d="m27.85,31.39c-.06.06-.11.13-.17.18.06-.05.11-.12.17-.18Z" fill="none"/><path d="m26.13,30.96s-.08,0-.12-.02c.04,0,.08.01.12.02Z" fill="none"/><path d="m16.32,22.09c.08,0,.17,0,.25.02-.09-.01-.17-.02-.25-.02Z" fill="none"/><path d="m28.35,30.4c-.04.17-.1.33-.16.47.06-.14.12-.3.16-.47Z" fill="none"/><path d="m16.19,22.1c-.08,0-.15.02-.22.05.07-.02.14-.04.22-.05Z" fill="none"/><path d="m17.09,22.27c-.14-.06-.27-.11-.4-.14.13.03.26.07.4.14Z" fill="none"/><path d="m26.38,30.98s.08,0,.13,0c-.04,0-.08,0-.13,0Z" fill="none"/><path d="m26.83,30.89s-.07.03-.11.04c.04-.01.08-.02.11-.04Z" fill="none"/><path d="m19.61,21.74c-.11-.05-.21-.09-.31-.12.1.03.2.06.31.12Z" fill="#fff"/><path d="m21.85,19.7c-.1,0-.2.02-.3.04.1-.02.2-.03.3-.04Z" fill="#fff"/><path d="m22.05,19.68c.12,0,.24.02.36.05-.12-.02-.24-.04-.36-.05Z" fill="#fff"/><path d="m19,21.59c.06,0,.13.01.19.03-.07-.01-.13-.02-.19-.03Z" fill="#fff"/><path d="m18.89,21.59c-.06,0-.11,0-.16.02.05-.01.11-.02.16-.02Z" fill="#fff"/><path d="m23.15,19.97c-.19-.09-.38-.16-.57-.21.19.05.38.12.57.21Z" fill="#fff"/><path d="m16.19,22.1s.08,0,.13,0c.08,0,.17,0,.25.02.04,0,.08,0,.12.02.13.03.26.07.4.14.26.13.53.31.78.54.06-.62.35-1.02.76-1.16-.03.01-.07.02-.1.03l1.77-.85c.24-.51.62-.86,1.07-1.03-.05.02-.11.03-.16.05l.98-.47c-.27-.03-.51,0-.72.1l-5.65,2.73s.04-.01.06-.02c.04-.02.07-.03.11-.04.07-.02.14-.04.22-.05Z" fill="url(#d)"/><path d="m18.63,21.65s.07-.03.1-.03c.05-.01.11-.02.16-.02.04,0,.07,0,.11,0,.06,0,.13.01.19.03.03,0,.07,0,.1.02.1.03.2.06.31.12.07.03.13.07.2.11l.18.13h0c.04-.45.15-.83.3-1.16l-1.77.85s.07-.02.1-.03Z" fill="url(#e)"/><path d="m21.36,19.8c.06-.02.12-.05.19-.06.1-.02.2-.03.3-.04.07,0,.13-.01.2-.01.12,0,.24.02.36.05.06.01.12.01.18.03.19.05.38.12.57.21.01,0,.02.01.04.02,1.68.82,3.04,3.05,3.16,5.16l5.65-2.73c-.12-2.11-1.48-4.35-3.16-5.16-.01,0-.02-.01-.04-.02-.73-.36-1.41-.38-1.95-.12l-4.67,2.25-.98.47c.05-.02.11-.03.16-.05Z" fill="url(#f)"/><path d="m32,22.43l-5.65,2.73c1.51,1.22,2.4,3.57,2,5.25-.04.17-.1.33-.16.47-.02.05-.05.08-.07.13-.05.09-.09.18-.15.26-.03.05-.08.08-.11.12-.06.06-.11.13-.17.18-.04.04-.1.06-.14.09-.06.04-.12.09-.18.12l5.65-2.73c.47-.23.83-.7,1-1.38.41-1.68-.49-4.03-2-5.25Z" fill="url(#g)"/></g><path d="m26.35,25.15c1.51,1.22,2.4,3.57,2,5.25-.33,1.38-1.45,1.9-2.74,1.28l-8.48-4.13s-.02-.01-.04-.02c-1.16-.56-2.09-2.17-2.11-3.62-.02-1.46.93-2.2,2.1-1.65.26.13.53.31.78.54.11-1.05.86-1.49,1.74-1.07.07.03.13.07.2.11l.18.13c.16-1.94,1.53-2.81,3.16-2.02.01,0,.02.01.04.02,1.68.82,3.04,3.05,3.16,5.16Zm-.74,5.66c1.17.55,2.11-.19,2.11-1.65-.01-1.18-.65-2.51-1.57-3.27l-.51-.4v-.63c-.08-1.62-1.14-3.37-2.42-3.99-.01,0-.02-.01-.04-.02-1.3-.63-2.37.04-2.49,1.56l-.08.94-.75-.61c-.08-.07-.17-.12-.25-.16-.46-.23-.89-.05-1.01.48l-.03.21-.11,1.04-.83-.79c-.15-.15-.31-.27-.47-.36-.78-.38-1.42.1-1.42,1.06s.62,2.05,1.41,2.44l8.48,4.13" fill="#2f3541"/><path d="m25.61,30.81c1.17.55,2.11-.19,2.11-1.65-.01-1.18-.65-2.51-1.57-3.27l-.51-.4v-.63c-.08-1.62-1.14-3.37-2.42-3.99-.01,0-.02-.01-.04-.02-1.3-.63-2.37.04-2.49,1.56l-.08.94-.75-.61c-.08-.07-.17-.12-.25-.16-.46-.23-.89-.05-1.01.48l-.03.21-.11,1.04-.83-.79c-.15-.15-.31-.27-.47-.36-.78-.38-1.42.1-1.42,1.06s.62,2.05,1.41,2.44l8.48,4.13" fill="#fff0f5"/></svg>