<?xml version="1.0" encoding="UTF-8"?><svg id="icon" xmlns="http://www.w3.org/2000/svg" width="32" height="32" viewBox="0 0 32 32"><circle cx="16" cy="16" r="16" fill="#b1b5d8"/><g><rect id="Rectangle_10877" x="4" y="4" width="24" height="24" fill="none" opacity="0"/><path d="M25,24V13h-7v-3.2308l-10-2.7692V24h-2v1H26v-1h-1ZM14,13v3h-2v-3h2Zm-2-1v-2.8547l2,.5539v2.3008h-2Zm2,5v3h-2v-3h2Zm1,0h2v3h-2v-3Zm5,5v-1l1-.5v-1l-1,.5v-2h2v5.9999h-2v-.9999l1-.5v-1l-1,.5Zm4-8v9.9999h-1v-6.9999h-4v6.9999h-1V14h6Zm-7,2h-2v-3h2v3Zm0-4h-2v-2.0239l2,.5538v1.4701Zm-8-3.6855l2,.5538v3.1317h-2v-3.6855Zm0,4.6855h2v3h-2v-3Zm0,4h2v3h-2v-3Zm0,7v-3h2v3h-2Zm3,0v-3h2v3h-2Zm3-3h2v3h-2v-3Z" fill="#2f3541"/></g></svg>