<?xml version="1.0" encoding="UTF-8"?><svg id="a" xmlns="http://www.w3.org/2000/svg" xmlns:xlink="http://www.w3.org/1999/xlink" viewBox="0 0 48 48"><defs><linearGradient id="b" x1="22.37" y1="32.21" x2="22.52" y2="32.21" gradientTransform="matrix(1, 0, 0, 1, 0, 0)" gradientUnits="userSpaceOnUse"><stop offset="0" stop-color="#2f3541" stop-opacity=".6"/><stop offset="1" stop-color="#2f3541" stop-opacity="0"/></linearGradient><linearGradient id="c" x1="25.18" y1="30.58" x2="41.25" y2="30.58" xlink:href="#b"/><linearGradient id="d" x1="22.48" y1="26.84" x2="24.27" y2="30.35" gradientTransform="matrix(1, 0, 0, 1, 0, 0)" gradientUnits="userSpaceOnUse"><stop offset="0" stop-color="#f84"/><stop offset="1" stop-color="#f49"/></linearGradient><linearGradient id="e" x1="17.49" y1="15.14" x2="19.86" y2="21.02" xlink:href="#d"/><linearGradient id="f" x1="17.37" y1="16.67" x2="19.93" y2="21.45" xlink:href="#d"/><linearGradient id="g" x1="23.94" y1="21.69" x2="25.93" y2="27.92" xlink:href="#d"/><linearGradient id="h" x1="19.7" y1="13.1" x2="21.86" y2="18" xlink:href="#d"/><linearGradient id="i" x1="20.52" y1="11.51" x2="20.52" y2="16.82" xlink:href="#d"/><linearGradient id="j" x1="23.89" y1="17.19" x2="27.7" y2="25.72" xlink:href="#d"/><linearGradient id="k" x1="24.25" y1="13.52" x2="26.07" y2="17.04" xlink:href="#d"/><linearGradient id="l" x1="24.05" y1="13.62" x2="25.74" y2="17.32" xlink:href="#d"/><linearGradient id="m" x1="28.47" y1="17.26" x2="29.47" y2="19.14" xlink:href="#d"/><linearGradient id="n" x1="27.18" y1="15.91" x2="28.67" y2="19.38" xlink:href="#d"/><linearGradient id="o" x1="29.08" y1="22.39" x2="30.44" y2="24.95" xlink:href="#d"/><linearGradient id="p" x1="29.38" y1="21.98" x2="30.58" y2="24.41" xlink:href="#d"/></defs><g><polyline points="44 30.5 24 20.5 4 30.5 24 40.5 44 30.5 44 30.5" fill="#f2f6ff"/><polygon points="24 40.5 24 42.5 4 32.5 4 30.5 24 40.5" fill="#fff" opacity=".2"/><polygon points="24 40.5 24 42.5 44 32.5 44 30.5 24 40.5" fill="#2f3541"/></g><g><path d="M22.55,32c-.13,.26-.2,.42-.2,.42,.12-.06,.2-.2,.2-.41h0Z" fill="url(#b)" opacity=".4"/><path d="M33.56,25.28c-1.78-.14-3.31,.16-4.63,.69v1.7c-.01,.28-.12,.47-.28,.55l-1.1,.53,.65,.32v.22c0,.21-.08,.35-.21,.41l-5.65,2.73,10.83,3.49,10.83-5.41-10.44-5.22Z" fill="url(#c)" opacity=".4"/></g><rect x="12" y="9.86" width="24" height="24" fill="none"/><rect x="0" y="0" width="48" height="48" fill="none"/><g opacity=".8"><path d="M22.55,31.79v.22c0,.21-.08,.35-.21,.41l5.65-2.73c.12-.06,.2-.2,.2-.41v-.22l-5.65,2.73Z" fill="#f49"/><polygon points="25.36 27.68 22.57 29.03 22.56 30.04 21.52 29.54 19.72 30.41 22.55 31.79 28.2 29.06 25.36 27.68" fill="url(#d)"/><path d="M20.67,18.66l1.19-.58v-.87l-5.64,2.73v.87l2.02-.98c.42-1.02,1.34-1.48,2.43-1.17Z" fill="url(#e)"/><polygon points="14.45 19.07 20.1 16.35 21.87 17.21 16.23 19.94 14.45 19.07" fill="url(#f)"/><path d="M23.28,27.85v2.53c-.02,.28-.12,.47-.29,.55l5.65-2.73c.17-.08,.27-.28,.27-.55v-2.53l-5.63,2.73Z" fill="url(#g)"/><polygon points="16.7 14.41 22.35 11.68 23.6 13.84 17.95 16.57 16.7 14.41" fill="url(#h)"/><polygon points="17.95 16.57 23.6 13.84 23.09 14.22 17.44 16.94 17.95 16.57" fill="url(#i)"/><path d="M26.85,15.25c-.91-.44-1.75-.47-2.41-.14l-5.65,2.73c.67-.32,1.5-.3,2.41,.14,2.15,1.05,3.89,4.06,3.88,6.71,0,1.54-.6,2.61-1.51,3.05l5.65-2.73c.91-.44,1.5-1.52,1.51-3.05,.01-2.65-1.72-5.66-3.88-6.71Z" fill="url(#j)"/><polygon points="20.87 14.31 26.52 11.59 27.23 11.93 21.58 14.66 20.87 14.31" fill="url(#k)"/><polygon points="21.58 14.66 27.23 11.93 27.21 14.12 21.57 16.85 21.58 14.66" fill="url(#l)"/><polygon points="25.72 18.81 31.37 16.08 31.86 16.94 26.22 19.67 25.72 18.81" fill="url(#m)"/><polygon points="26.22 19.67 31.86 16.94 30.61 17.88 24.96 20.61 26.22 19.67" fill="url(#n)"/><polygon points="26.14 24.77 31.79 22.05 33.56 22.91 27.91 25.64 26.14 24.77" fill="url(#o)"/><polygon points="27.91 25.64 33.56 22.91 33.55 23.78 27.9 26.51 27.91 25.64" fill="url(#p)"/></g><g><g><path d="M22.55,31.79v.22c0,.36-.25,.54-.54,.39l-1.77-.86c-.29-.14-.53-.55-.53-.91v-.22l2.84,1.38Z" fill="#2f3541"/><polygon points="16.23 19.94 16.22 20.81 14.45 19.95 14.45 19.07 16.23 19.94" fill="#2f3541"/><polygon points="16.7 14.41 17.95 16.57 17.44 16.94 16.2 14.78 16.7 14.41" fill="#2f3541"/><path d="M21.2,17.98c2.15,1.05,3.89,4.06,3.87,6.71,0,1.69-.72,2.83-1.79,3.17v2.53c-.02,.48-.34,.72-.73,.53l-2.84-1.38c-.39-.19-.71-.74-.7-1.22v-2.53c-1.05-1.38-1.75-3.2-1.74-4.89,.01-2.65,1.77-3.96,3.92-2.91Zm1.7,8.95c.91-.29,1.46-1.25,1.46-2.59,.01-2.16-1.41-4.63-3.17-5.49s-3.2,.22-3.21,2.38c0,1.34,.53,2.83,1.44,4.01l.32,.42v.47l-.02,2.53,2.84,1.38v-2.53l.02-.47,.32-.1" fill="#2f3541"/><polygon points="21.58 14.66 21.57 16.85 20.86 16.5 20.87 14.31 21.58 14.66" fill="#2f3541"/><polygon points="25.72 18.81 26.22 19.67 24.96 20.61 24.46 19.74 25.72 18.81" fill="#2f3541"/><g isolation="isolate"><polygon points="27.91 25.64 27.9 26.51 26.13 25.65 26.14 24.77 27.91 25.64" fill="#2f3541"/></g></g><path d="M22.9,26.93c.91-.29,1.46-1.25,1.46-2.59,.01-2.16-1.41-4.63-3.17-5.49s-3.2,.22-3.21,2.38c0,1.34,.53,2.83,1.44,4.01l.32,.42v.47l-.02,2.53,2.84,1.38v-2.53l.02-.47,.32-.1" fill="#fff3f8"/></g></svg>