<?xml version="1.0" encoding="UTF-8"?><svg id="a" xmlns="http://www.w3.org/2000/svg" viewBox="0 0 24 24"><rect x="0" width="24" height="24" fill="none"/><rect x="0" width="24" height="24" fill="none"/><g><circle cx="12" cy="15.5" r=".5" fill="#2f3541"/><circle cx="14" cy="15.5" r=".5" fill="#2f3541"/><circle cx="10" cy="15.5" r=".5" fill="#2f3541"/><polygon points="19 7 15 11 13 9 12 10 15 13 20 8 19 7" fill="#2f3541"/><path d="M17,14.09v-1.67l-1,1v.09c-.62,.46-1,1.2-1,1.99s.38,1.53,1,1.99v1.51H8v-1.51c.62-.46,1-1.2,1-1.99s-.38-1.53-1-1.99V5h8v3.59l1-1v-3.59H7V14.09c.58,.21,1,.76,1,1.41s-.42,1.2-1,1.41v3.1h10v-3.1c-.58-.21-1-.76-1-1.41s.42-1.2,1-1.41Z" fill="#2f3541"/></g></svg>