<?xml version="1.0" encoding="UTF-8"?><svg id="a" xmlns="http://www.w3.org/2000/svg" viewBox="0 0 24 24"><path d="M21.5,2.49c-.32-.32-.79-.49-1.35-.49-1.17,0-2.62,.73-3.81,1.91-.82,.82-1.71,2.05-2.38,3.27-.01,.02-.02,.05-.04,.07-.11,.18-.22,.34-.35,.46-.28,.28-.55,.41-.83,.41-.31,0-.62-.16-1.04-.52-.19-.16-.42-.24-.65-.24-.26,0-.51,.1-.7,.29l-1.1,1.1h0l-2.19,2.2-3.78,3.78c-.39,.39-.39,1.02,0,1.41l4.57,4.57c.19,.19,.45,.29,.7,.29s.51-.1,.7-.29l3.78-3.78,2.19-2.19h0l1.1-1.1c.37-.37,.39-.96,.05-1.36-.2-.23-.34-.43-.42-.62-.2-.44-.1-.84,.31-1.26,.13-.12,.28-.24,.47-.35,.02,0,.04-.02,.06-.03,1.23-.67,2.46-1.56,3.28-2.38,.86-.86,1.51-1.91,1.78-2.87,.27-.97,.14-1.79-.36-2.28ZM8.56,20.01l-.79-.79,2.28-2.28v-1l-2.78,2.78-1-1,1.29-1.29v-1l-1.78,1.79-1.78-1.79,3.78-3.78,4.57,4.57-3.78,3.78Zm4.48-4.48l-4.57-4.57,1.08-1.08,4.57,4.57-1.08,1.08Zm7.86-11.01c-.22,.8-.77,1.68-1.52,2.43-.75,.75-1.92,1.6-3.05,2.21-.03,.01-.06,.03-.09,.04-.26,.16-.48,.32-.67,.51-.95,.95-.73,1.89-.52,2.36,.14,.31,.34,.59,.58,.86l-.81,.81-4.57-4.57,.81-.81c.51,.44,1.04,.76,1.69,.76,.55,0,1.07-.24,1.53-.7,.19-.19,.35-.4,.51-.67,.02-.03,.03-.06,.05-.1,.61-1.13,1.46-2.29,2.21-3.04,.99-.99,2.2-1.62,3.1-1.62,.2,0,.48,.04,.64,.2,.23,.23,.27,.72,.1,1.31Zm-1.19-.23c.39,.39,.39,1.02,0,1.41-.39,.39-1.02,.39-1.41,0s-.39-1.02,0-1.41c.39-.39,1.02-.39,1.41,0Z" fill="#fff"/><rect width="24" height="24" fill="none"/></svg>