<?xml version="1.0" encoding="UTF-8"?><svg id="icon" xmlns="http://www.w3.org/2000/svg" width="24" height="24" xmlns:xlink="http://www.w3.org/1999/xlink" viewBox="0 0 24 24"><defs><linearGradient id="linear-gradient" x1="12" y1="14" x2="12" y2="20" gradientUnits="userSpaceOnUse"><stop offset="0" stop-color="#fff" stop-opacity=".6"/><stop offset=".208" stop-color="#fff" stop-opacity=".5853"/><stop offset=".4037" stop-color="#fff" stop-opacity=".5408"/><stop offset=".5946" stop-color="#fff" stop-opacity=".4662"/><stop offset=".7824" stop-color="#fff" stop-opacity=".3614"/><stop offset=".9664" stop-color="#fff" stop-opacity=".2278"/><stop offset="1" stop-color="#fff" stop-opacity=".2"/></linearGradient></defs><rect x="5" y="14.0002" width="14" height="5.9998" fill="url(#linear-gradient)"/><g><path d="M6.5,9c1.3807,0,2.5-1.1193,2.5-2.5s-1.1193-2.5-2.5-2.5-2.5,1.1193-2.5,2.5,1.1193,2.5,2.5,2.5Zm0-4c.8271,0,1.5,.6729,1.5,1.5s-.6729,1.5-1.5,1.5-1.5-.6729-1.5-1.5,.6729-1.5,1.5-1.5Z" fill="#fff"/><rect x="6" y="2" width="1" height="1" fill="#fff"/><rect x="8.8284" y="3.1716" width="1" height="1" transform="translate(.136 7.6716) rotate(-45)" fill="#fff"/><rect x="8.8284" y="8.8284" width="1" height="1" transform="translate(-3.864 9.3284) rotate(-45)" fill="#fff"/><polygon points="21 19 20 19 20 20 19 20 19 18 18 18 18 20 17 20 17 19 16 19 16 20 15 20 15 18 14 18 14 20 13 20 13 18 12 18 12 20 11 20 11 18 10 18 10 20 9 20 9 19 8 19 8 20 7 20 7 18 6 18 6 20 5 20 5 18 4 18 4 20 3 20 3 19 2 19 2 20 2 21 22 21 22 20 21 20 21 19" fill="#fff"/><rect x="2" y="6" width="1" height="1" fill="#fff"/><rect x="10" y="6" width="1" height="1" fill="#fff"/><rect x="6" y="10" width="1" height="1" fill="#fff"/><rect x="3.1716" y="8.8284" width="1" height="1" transform="translate(-5.5208 5.3284) rotate(-45)" fill="#fff"/><rect x="3.1716" y="3.1716" width="1" height="1" transform="translate(-1.5208 3.6718) rotate(-45.0025)" fill="#fff"/></g><rect width="24" height="24" fill="none"/></svg>