<?xml version="1.0" encoding="UTF-8"?><svg id="c" xmlns="http://www.w3.org/2000/svg" xmlns:xlink="http://www.w3.org/1999/xlink" viewBox="0 0 48 48"><defs><linearGradient id="a" x1="29.73" y1="31.09" x2="41.92" y2="31.09" gradientTransform="matrix(1, 0, 0, 1, 0, 0)" gradientUnits="userSpaceOnUse"><stop offset="0" stop-color="#2f3541" stop-opacity=".4"/><stop offset="1" stop-color="#2f3541" stop-opacity="0"/></linearGradient><linearGradient id="e" x1="30.12" y1="32.59" x2="30.95" y2="34.29" gradientTransform="matrix(1, 0, 0, 1, 0, 0)" gradientUnits="userSpaceOnUse"><stop offset="0" stop-color="#00d2b2"/><stop offset="0" stop-color="#00d0b2"/><stop offset=".19" stop-color="#0caace"/><stop offset=".38" stop-color="#158ce3"/><stop offset=".57" stop-color="#1c77f2"/><stop offset=".74" stop-color="#206afb"/><stop offset=".91" stop-color="#26f"/></linearGradient><linearGradient id="f" x1="18.22" y1="23.2" x2="28.46" y2="35.41" gradientTransform="matrix(1, 0, 0, 1, 0, 0)" gradientUnits="userSpaceOnUse"><stop offset="0" stop-color="#00d2b2"/><stop offset=".16" stop-color="#02cab7"/><stop offset=".39" stop-color="#08b7c5"/><stop offset=".66" stop-color="#1297dc"/><stop offset=".97" stop-color="#206afb"/><stop offset="1" stop-color="#26f"/></linearGradient><linearGradient id="g" x1="29.39" y1="30.43" x2="30.29" y2="32.28" xlink:href="#e"/><linearGradient id="h" x1="21.43" y1="22.8" x2="25.4" y2="32.64" xlink:href="#e"/><linearGradient id="i" x1="15.77" y1="18.41" x2="17.49" y2="20.46" xlink:href="#f"/><linearGradient id="j" x1="17.34" y1="20.12" x2="19.51" y2="25.48" xlink:href="#e"/><linearGradient id="k" x1="20.02" y1="20.47" x2="21.85" y2="22.65" xlink:href="#f"/><linearGradient id="l" x1="21.97" y1="22.21" x2="24.12" y2="27.54" xlink:href="#e"/><linearGradient id="m" x1="24.71" y1="22.78" x2="26.47" y2="24.88" xlink:href="#f"/><linearGradient id="n" x1="27.8" y1="23.95" x2="29.95" y2="29.29" xlink:href="#e"/><linearGradient id="o" x1="12.78" y1="14.89" x2="26.24" y2="14.89" gradientTransform="matrix(1, 0, 0, 1, 0, 0)" gradientUnits="userSpaceOnUse"><stop offset="0" stop-color="#00d2b2"/><stop offset=".34" stop-color="#00cfb3"/><stop offset=".52" stop-color="#03c8b9"/><stop offset=".65" stop-color="#07bac2"/><stop offset=".77" stop-color="#0da7d0"/><stop offset=".88" stop-color="#148fe1"/><stop offset=".97" stop-color="#1e71f6"/><stop offset="1" stop-color="#26f"/></linearGradient><linearGradient id="p" x1="24.1" y1="13.56" x2="30.51" y2="23.82" gradientTransform="matrix(1, 0, 0, 1, 0, 0)" gradientUnits="userSpaceOnUse"><stop offset="0" stop-color="#00d2b2"/><stop offset=".16" stop-color="#01ccb5"/><stop offset=".37" stop-color="#06bcc1"/><stop offset=".61" stop-color="#0fa2d4"/><stop offset=".86" stop-color="#1a7dee"/><stop offset="1" stop-color="#26f"/></linearGradient><linearGradient id="q" x1="30.8" y1="22.45" x2="31.86" y2="24.63" xlink:href="#e"/></defs><g><polyline points="44 30.5 24 20.5 4 30.5 24 40.5 44 30.5 44 30.5" fill="#f2f6ff"/><polygon points="24 40.5 24 42.5 4 32.5 4 30.5 24 40.5" fill="#2f3541" opacity=".2"/><polygon points="24 40.5 24 42.5 44 32.5 44 30.5 24 40.5" fill="#2f3541"/></g><polygon points="44 30.5 35.45 34.77 27.59 35 33.23 32.27 33.24 31.4 31.63 30.62 32.53 30.18 32.54 29.31 30.93 28.53 31.84 28.09 31.84 27.18 40.18 28.59 44 30.5" fill="url(#a)"/><rect width="48" height="48" fill="none"/><g opacity=".8"><polygon points="27.6 34.12 33.24 31.4 33.24 32.27 27.59 35 27.6 34.12" fill="url(#e)"/></g><g opacity=".8"><polygon points="13.43 27.22 14.34 26.78 26.89 32.9 31.63 30.61 33.24 31.4 27.6 34.12 13.43 27.22" fill="url(#f)"/></g><g opacity=".8"><polygon points="26.9 32.03 32.55 29.31 32.54 30.18 26.89 32.9 26.9 32.03" fill="url(#g)"/></g><g opacity=".8"><polygon points="14.15 25.81 15.04 25.38 17.18 26.42 19.09 25.48 19.08 27.35 21.57 28.57 23.8 27.51 23.79 29.66 26.18 30.82 30.94 28.52 32.55 29.31 26.9 32.03 14.15 25.81" fill="url(#h)"/></g><g opacity=".8"><polygon points="18.39 19.71 17.21 20.3 14.88 19.17 16.31 18.48 18.39 19.71" fill="url(#i)"/></g><g opacity=".8"><polygon points="17.21 20.3 18.49 19.65 20.27 20.67 19.12 21.22 19.09 25.48 17.18 26.42 17.21 20.3" fill="url(#j)"/></g><g opacity=".8"><polygon points="19.11 21.23 20.52 20.55 22.75 21.9 21.61 22.45 19.11 21.23" fill="url(#k)"/></g><g opacity=".8"><polygon points="21.61 22.45 22.84 21.85 25.2 22.87 23.82 23.53 23.8 27.51 21.57 28.57 21.61 22.45" fill="url(#l)"/></g><g opacity=".8"><polygon points="23.82 23.53 25.11 22.91 27.37 24.13 26.21 24.69 23.82 23.53" fill="url(#m)"/></g><g opacity=".8"><polygon points="26.21 24.69 27.46 24.08 28.36 24.84 31.87 23.15 31.84 28.09 26.18 30.82 26.21 24.69" fill="url(#n)"/></g><g opacity=".8"><polygon points="12.78 16.76 18.43 14.03 26.24 13.02 20.6 15.75 12.78 16.76" fill="url(#o)"/></g><g opacity=".8"><polygon points="20.6 15.75 26.24 13.02 34.01 21.63 28.36 24.36 20.6 15.75" fill="url(#p)"/></g><g opacity=".8"><polygon points="28.36 24.36 34.01 21.63 34 22.12 28.36 24.84 28.36 24.36" fill="url(#q)"/></g><g><polygon points="27.6 34.12 27.59 35 13.43 28.09 13.43 27.22 27.6 34.12" fill="#2f3541"/><polygon points="26.9 32.03 26.89 32.9 14.15 26.69 14.15 25.81 26.9 32.03" fill="#2f3541"/><polygon points="14.31 17.39 20.54 16.44 26.93 23.53 14.31 17.39" fill="#fff3f8"/><path d="M20.6,15.75l7.76,8.61v.49l-15.58-7.6v-.49l7.82-1.01Zm-5.88,1.65l11.44,5.5-5.83-6.19-5.6,.7Z" fill="#2f3541"/><polygon points="16.71 25.54 15.32 25.22 15.32 20.03 16.71 20.66 16.71 25.54" fill="#fff3f8"/><polygon points="21.08 27.44 19.65 27.44 19.65 22.25 21.04 22.9 21.08 27.44" fill="#fff3f8"/><rect x="24.4" y="24.58" width="1.2" height="5.19" fill="#fff3f8"/><path d="M14.88,19.17l2.33,1.13-.03,6.12-2.33-1.13,.03-6.12Zm1.6,6.04l.02-4.38-.92-.44-.02,4.38,.92,.44Z" fill="#2f3541"/><path d="M19.11,21.23l2.5,1.22-.03,6.12-2.5-1.22,.03-6.12Zm1.75,6.12l.02-4.38-1.08-.53-.02,4.38,1.08,.53" fill="#2f3541"/><path d="M23.82,23.53l2.39,1.16-.03,6.12-2.39-1.16,.03-6.12Zm1.65,6.06l.02-4.38-.97-.47-.02,4.38,.97,.47" fill="#2f3541"/></g></svg>