<?xml version="1.0" encoding="UTF-8"?><svg id="a" xmlns="http://www.w3.org/2000/svg" viewBox="0 0 64 64"><rect x="0" y="0" width="64" height="64" fill="none"/><path d="M32,4C16.54,4,4,16.54,4,32s12.54,28,28,28,28-12.54,28-28S47.46,4,32,4Zm17.67,13.82l-2.87,2.76c-.25,.19-.37,.5-.32,.81v20.25c-.05,.31,.07,.62,.32,.81l2.81,2.76v.6h-14.12v-.6l2.91-2.82c.29-.29,.29-.37,.29-.81V25.2l-8.08,20.53h-1.09l-9.41-20.53v13.76c-.08,.58,.11,1.16,.52,1.58l3.78,4.59v.6H13.67v-.6l3.78-4.59c.4-.42,.59-1.01,.49-1.58v-15.91c.04-.44-.12-.88-.45-1.18l-3.36-4.05v-.6h10.44l8.07,17.69,7.09-17.69h9.95v.6Z" fill="#2f3541"/></svg>