<?xml version="1.0" encoding="UTF-8"?><svg id="a" xmlns="http://www.w3.org/2000/svg" viewBox="0 0 24 24"><path d="M14.53,12.04l-.16-.16-1.36,1.36c-.51,.51-1.18,.76-1.84,.76s-1.34-.25-1.84-.76l-.57-.57c-1.01-1.01-1.01-2.67,0-3.69l4.22-4.22c.51-.51,1.18-.76,1.84-.76s1.34,.25,1.84,.76l.57,.57c1.01,1.01,1.01,2.67,0,3.69l-.74,.74,.16,.16c.19,.19,.35,.39,.5,.6l.8-.8c.68-.68,1.05-1.58,1.05-2.55s-.37-1.87-1.05-2.55l-.57-.57c-.68-.68-1.58-1.05-2.55-1.05s-1.87,.37-2.55,1.05l-4.22,4.22c-.68,.68-1.05,1.58-1.05,2.55s.37,1.87,1.05,2.55l.57,.57c.68,.68,1.58,1.05,2.55,1.05s1.87-.37,2.55-1.05l1.21-1.21c-.07-.26-.2-.5-.4-.7Z" fill="#fff"/><rect width="24" height="24" fill="none"/><path d="M15.95,10.62l-.57-.57c-.68-.68-1.58-1.05-2.55-1.05s-1.87,.37-2.55,1.05l-1.21,1.21c.07,.26,.2,.5,.4,.7l.16,.16,1.36-1.36c.51-.51,1.18-.76,1.84-.76s1.34,.25,1.84,.76l.57,.57c1.01,1.01,1.01,2.67,0,3.69l-4.22,4.22c-.51,.51-1.18,.76-1.84,.76s-1.34-.25-1.84-.76l-.57-.57c-1.01-1.01-1.01-2.67,0-3.69l.74-.74-.16-.16c-.19-.19-.35-.39-.5-.6l-.8,.8c-.68,.68-1.05,1.58-1.05,2.55s.37,1.87,1.05,2.55l.57,.57c.68,.68,1.58,1.05,2.55,1.05s1.87-.37,2.55-1.05l4.22-4.22c.68-.68,1.05-1.58,1.05-2.55s-.37-1.87-1.05-2.55Z" fill="#fff"/></svg>