<?xml version="1.0" encoding="UTF-8"?><svg id="a" xmlns="http://www.w3.org/2000/svg" viewBox="0 0 24 24"><rect width="24" height="24" fill="none"/><rect y="0" width="24" height="24" fill="none"/><rect id="b" y="0" width="24" height="24" fill="none"/><rect y="0" width="24" height="24" fill="none"/><path d="M20,16v1c0,1.1-.9,2-2,2H6c-1.1,0-2-.9-2-2v-1h1v1c0,.55,.45,1,1,1h12c.55,0,1-.45,1-1v-1h1ZM12,6.41l-2.59,2.59h1.09v5h3v-5h1.09l-2.59-2.59m0-1.41l5,5h-2.5v5h-5v-5h-2.5l5-5h0Z" fill="#2f3541"/></svg>