<?xml version="1.0" encoding="UTF-8"?><svg id="a" xmlns="http://www.w3.org/2000/svg" viewBox="0 0 24 24"><rect x=".07" y="0" width="24" height="24" fill="none"/><rect x=".07" width="24" height="24" fill="none"/><rect id="c" x=".07" width="24" height="24" fill="none"/><rect x=".07" width="24" height="24" fill="none" opacity="0"/><path d="m20,17v2c0,1.1-.9,2-2,2H6c-1.1,0-2-.9-2-2v-2h2v1c0,.55.45,1,1,1h10c.55,0,1-.45,1-1v-1h2Zm-9-3v-5h-1.17l2.17-2.17,2.17,2.17h-1.17v5h-2m-2,2h6v-5h4l-7-7-7,7h4v5h0Z" fill="#fff"/></svg>