<?xml version="1.0" encoding="UTF-8"?><svg id="a" xmlns="http://www.w3.org/2000/svg" viewBox="0 0 64 64"><path d="M32,4C16.54,4,4,16.54,4,32s12.54,28,28,28,28-12.54,28-28S47.46,4,32,4Zm12.93,24.22l-.02,13.32-.14,.5c-.48,1.69-1.64,2.89-3.28,3.38-1.16,.35-2.86,.48-3.69,.28-.74-.17-1.28-.48-1.87-1.08-.86-.86-1.24-1.74-1.24-2.87,0-.63,.11-1.1,.41-1.74,.42-.89,.97-1.43,1.95-1.92,.79-.39,1.49-.6,3.55-1.03,1.35-.28,1.68-.4,1.94-.72,.36-.43,.35-.27,.34-7.09-.02-5.92-.02-6.25-.13-6.41-.16-.24-.49-.37-.84-.32-.37,.05-13.66,2.74-13.99,2.83-.37,.1-.64,.39-.72,.79-.05,.24-.07,2.85-.07,9.28,0,9.88,0,9.66-.39,10.71-.11,.3-.31,.71-.45,.92-.34,.52-.99,1.15-1.5,1.45-1.21,.72-3.59,1.09-4.85,.76-1.34-.35-2.34-1.27-2.79-2.56-.22-.62-.27-1.64-.12-2.31,.16-.71,.52-1.39,1.02-1.88,.87-.87,1.9-1.28,4.67-1.84,.6-.12,1.21-.26,1.37-.31,.33-.11,.69-.45,.85-.8,.11-.24,.11-.81,.14-10.68l.03-10.43,.15-.29c.17-.35,.53-.68,.9-.81,.24-.09,14.04-2.9,16.38-3.34,.53-.1,1.1-.18,1.26-.18,.54,0,.94,.3,1.1,.84,.05,.19,.07,3.59,.05,13.57Z" fill="#fff"/><rect x="0" y="0" width="64" height="64" fill="none"/></svg>