<?xml version="1.0" encoding="UTF-8"?><svg id="a" xmlns="http://www.w3.org/2000/svg" viewBox="0 0 24 24"><path id="b" d="M24,24H0V0H24" fill="none"/><path d="M12,3C7.03,3,3,7.03,3,12s4.03,9,9,9,9-4.03,9-9S16.97,3,12,3ZM4.03,12.51h2.97v3.49h-1.93c-.6-1.04-.97-2.23-1.05-3.49ZM12.5,7v-2.97c1.27,.08,2.47,.45,3.51,1.06v1.91h-3.51Zm3.51,1v3.51h-3.51v-3.51h3.51Zm-4.51-1h-3.5v-1.89c1.05-.62,2.21-1,3.5-1.08v2.97Zm0,1v3.51h-3.5v-3.51h3.5Zm-4.5,3.51h-2.98c.08-1.27,.45-2.47,1.06-3.51h1.92v3.51Zm1,1h3.5v3.49h-3.5v-3.49Zm3.5,4.47v2.99c-1.29-.08-2.45-.46-3.5-1.08v-1.91h3.5Zm1,0h3.51v1.93c-1.04,.61-2.24,.98-3.51,1.06v-2.99Zm0-.98v-3.49h3.51v3.49h-3.51Zm4.5-3.49h2.97c-.08,1.26-.45,2.45-1.05,3.49h-1.93v-3.49Zm0-1v-3.51h1.92c.61,1.04,.98,2.24,1.06,3.51h-2.98Zm1.24-4.51h-1.24v-1.23c.45,.36,.87,.78,1.24,1.23Zm-11.24-1.2v1.2h-1.24c.35-.44,.8-.84,1.24-1.2Zm-1.25,11.19h1.25v1.22c-.44-.36-.89-.77-1.25-1.22Zm11.25,1.24v-1.24h1.25c-.37,.46-.79,.88-1.25,1.24Z" fill="#2f3541"/></svg>