<?xml version="1.0" encoding="UTF-8"?><svg id="a" xmlns="http://www.w3.org/2000/svg" xmlns:xlink="http://www.w3.org/1999/xlink" viewBox="0 0 48 48"><defs><linearGradient id="b" x1="27.53" y1="31.24" x2="42.9" y2="31.24" gradientTransform="matrix(1, 0, 0, 1, 0, 0)" gradientUnits="userSpaceOnUse"><stop offset="0" stop-color="#2f3541" stop-opacity=".4"/><stop offset="1" stop-color="#2f3541" stop-opacity="0"/></linearGradient><linearGradient id="c" x1="18.92" y1="6.7" x2="27.84" y2="24.88" gradientTransform="matrix(1, 0, 0, 1, 0, 0)" gradientUnits="userSpaceOnUse"><stop offset="0" stop-color="#f84"/><stop offset="1" stop-color="#f49"/></linearGradient><linearGradient id="d" x1="23.79" y1="14.53" x2="27.01" y2="20.89" xlink:href="#c"/></defs><g><path d="M17.26,16.56v.87c-1.18-.57-2.13,.14-2.14,1.59l-.71-.35c.01-1.93,1.28-2.88,2.85-2.11Z" fill="#f2f6ff"/><g><path d="M17.25,18.31v.87c-.39-.19-.71,.05-.72,.53l-.71-.35c0-.97,.64-1.44,1.42-1.06Z" fill="#f2f6ff"/><path d="M17.27,14.81v.87c-1.95-.95-3.53,.23-3.57,2.61l-.71-.35c.03-2.87,1.94-4.28,4.27-3.14Z" fill="#f2f6ff"/></g></g><rect x="0" y="0" width="48" height="48" fill="none"/><g><polyline points="44 30.5 24 20.5 4 30.5 24 40.5 44 30.5 44 30.5" fill="#f2f6ff"/><polygon points="24 40.5 24 42.5 4 32.5 4 30.5 24 40.5" fill="#fff" opacity=".2"/><polygon points="24 40.5 24 42.5 44 32.5 44 30.5 24 40.5" fill="#2f3541"/></g><rect x="0" y="0" width="48" height="48" fill="none"/><polyline points="24.12 31.69 24.19 19.45 19.23 17.03 19.16 29.27 24.12 31.69" fill="#fff3f8"/><g isolation="isolate"><g><polygon points="20.6 26.47 20.59 28.22 19.88 27.87 19.89 26.12 20.6 26.47" fill="#2f3541"/><polygon points="22.02 27.16 22.01 28.91 21.3 28.56 21.31 26.82 22.02 27.16" fill="#2f3541"/><polygon points="20.62 22.98 20.61 24.72 19.9 24.37 19.91 22.63 20.62 22.98" fill="#2f3541"/><polygon points="22.04 23.67 22.03 25.41 21.32 25.07 21.33 23.32 22.04 23.67" fill="#2f3541"/><polygon points="20.64 19.47 20.63 21.22 19.92 20.87 19.93 19.13 20.64 19.47" fill="#2f3541"/><polygon points="23.45 24.36 23.44 26.1 22.73 25.76 22.74 24.01 23.45 24.36" fill="#2f3541"/><polygon points="22.06 20.16 22.05 21.91 21.34 21.57 21.35 19.82 22.06 20.16" fill="#2f3541"/><path d="M18.53,15.81l6.37,3.11-.08,13.99-6.37-3.11,.08-13.99Zm5.6,15.87l.07-12.24-4.96-2.42-.07,12.24,4.96,2.42" fill="#2f3541"/><polygon points="23.43 27.85 23.42 29.6 22.71 29.25 22.72 27.51 23.43 27.85" fill="#2f3541"/><polygon points="23.47 20.85 23.46 22.6 22.75 22.26 22.76 20.51 23.47 20.85" fill="#2f3541"/></g></g><rect x="11" y="11" width="24" height="24" fill="none"/><polygon points="30.49 26.82 30.47 30.19 24.82 32.92 33.68 35.66 44 30.5 30.49 26.82" fill="url(#b)"/><g opacity=".8"><polygon points="24.9 18.92 30.55 16.2 30.47 30.19 24.82 32.92 24.9 18.92" fill="url(#c)"/><polygon points="18.53 15.81 24.17 13.09 30.55 16.2 24.9 18.92 18.53 15.81" fill="url(#d)"/></g></svg>