<?xml version="1.0" encoding="UTF-8"?><svg id="a" xmlns="http://www.w3.org/2000/svg" viewBox="0 0 24 24"><rect width="24" height="24" fill="none"/><g><g><path d="M7,11c.37,0,.71-.05,1.01-.14l.62,.31,.33-.54-.24-.12c.18-.15,.28-.32,.28-.51,0-.55-.9-1-2-1s-2,.45-2,1,.9,1,2,1Zm0-1.5c.55,0,1,.22,1,.5s-.45,.5-1,.5-1-.22-1-.5,.45-.5,1-.5Z" fill="#fff"/><path d="M19.5,14.5c-.32,0-.61,.05-.85,.13l-3.06-.77c.26-.26,.41-.56,.41-.87,0-.47-.34-.89-.88-1.23l-.48,.54c.22,.21,.35,.44,.35,.69,0,.83-1.35,1.5-3,1.5s-3-.67-3-1.5c0-.25,.14-.48,.35-.69l-.48-.54c-.54,.34-.88,.76-.88,1.23,0,.14,.03,.28,.09,.41l-3.69,.74c-.25-.09-.56-.15-.9-.15-.83,0-1.5,.34-1.5,.75s.67,.75,1.5,.75,1.5-.34,1.5-.75c0-.06-.02-.12-.04-.17l3.47-.69c.58,.59,1.72,1.01,3.07,1.09v.55c-1.14,.12-2,.62-2,1.22,0,.69,1.12,1.25,2.5,1.25s2.5-.56,2.5-1.25c0-.6-.86-1.11-2-1.22v-.55c1.02-.06,1.91-.32,2.54-.69l3.03,.76c-.04,.07-.06,.13-.06,.2,0,.41,.67,.75,1.5,.75s1.5-.34,1.5-.75-.67-.75-1.5-.75Zm-16,.5c-.28,0-.5-.11-.5-.25s.22-.25,.5-.25,.5,.11,.5,.25-.22,.25-.5,.25Zm10,1.75c0,.41-.67,.75-1.5,.75s-1.5-.34-1.5-.75,.67-.75,1.5-.75,1.5,.34,1.5,.75Zm6-1.25c-.28,0-.5-.11-.5-.25s.22-.25,.5-.25,.5,.11,.5,.25-.22,.25-.5,.25Z" fill="#fff"/><path d="M16.43,9.95l-1.32,.79,.34,.57,1.7-1.02c.39,.13,.85,.2,1.35,.2,1.38,0,2.5-.56,2.5-1.25s-1.12-1.25-2.5-1.25-2.5,.56-2.5,1.25c0,.26,.16,.5,.43,.7Zm2.07-1.45c.83,0,1.5,.34,1.5,.75s-.67,.75-1.5,.75-1.5-.34-1.5-.75,.67-.75,1.5-.75Z" fill="#fff"/></g><path d="M14.25,11.25l-2,2.25h-.5l-2-2.25,.75-1.25h3l.75,1.25Zm-1.45-.75l.45,.75h.38l.02-.03-.43-.72h-.42Zm-.8,2.29l.47-1.04h-.95l.47,1.04Zm-.22-2.29l-.45,.75h1.33l-.45-.75h-.43Zm-1.43,.72l.02,.03h.38l.45-.75h-.42l-.43,.72Zm1.04,1.43l-.41-.9h-.25l.65,.9Zm1.23,0l.65-.9h-.25l-.41,.9Z" fill="#fff"/></g></svg>