<?xml version="1.0" encoding="UTF-8"?><svg id="a" xmlns="http://www.w3.org/2000/svg" viewBox="0 0 24 24"><rect x=".07" y="0" width="24" height="24" fill="none"/><rect x=".07" width="24" height="24" fill="none"/><rect id="c" x=".07" width="24" height="24" fill="none"/><rect x=".07" width="24" height="24" fill="none"/><path d="M20.07,17v2c0,1.1-.9,2-2,2H6.07c-1.1,0-2-.9-2-2v-2h2v1c0,.55,.45,1,1,1h10c.55,0,1-.45,1-1v-1h2ZM13.07,7v5h1.17l-2.17,2.17-2.17-2.17h1.17V7h2m2-2h-6v5H5.07l7,7,7-7h-4V5h0Z" fill="#2f3541"/></svg>