<?xml version="1.0" encoding="UTF-8"?><svg id="a" xmlns="http://www.w3.org/2000/svg" viewBox="0 0 24 24"><rect x="0" y="0" width="24" height="24" fill="none"/><path d="M20,11V5h-6.5V3c0-.55-.67-1-1.5-1s-1.5,.45-1.5,1v2H5L2,8l3,3h5.5v1h-3.5v4h3.5v4.94c0,.58,.67,1.06,1.5,1.06s1.5-.47,1.5-1.06v-4.94h3.5l2-2-2-2h-3.5v-1h6.5ZM11.5,4h1v1h-1v-1ZM3.41,8l2-2h13.59v4H5.41l-2-2Zm9.09,12.86c-.07,.05-.24,.14-.5,.14s-.43-.08-.5-.14v-4.86h1v4.86Zm5.09-6.86l-1,1H8v-2h8.59l1,1Zm-5.09-2h-1v-1h1v1Z" fill="#fff"/></svg>