<?xml version="1.0" encoding="UTF-8"?><svg id="icon" xmlns="http://www.w3.org/2000/svg" width="48" height="48" xmlns:xlink="http://www.w3.org/1999/xlink" viewBox="0 0 48 48"><defs><linearGradient id="Unbenannter_Verlauf_41" x1="26.3817" y1="30.763" x2="41.4263" y2="30.763" gradientUnits="userSpaceOnUse"><stop offset="0" stop-color="#2f3541" stop-opacity=".4"/><stop offset="1" stop-color="#2f3541" stop-opacity="0"/></linearGradient><linearGradient id="gradient_pink_blue" x1="21.3755" y1="11.6646" x2="31.472" y2="32.8192" gradientUnits="userSpaceOnUse"><stop offset="0" stop-color="#f49"/><stop offset="1" stop-color="#26f"/></linearGradient><linearGradient id="gradient_pink_blue-2" x1="27.9603" y1="16.8729" x2="33.1321" y2="27.3889" xlink:href="#gradient_pink_blue"/></defs><g><polyline points="44 30.5 24 20.5 4 30.5 24 40.5 44 30.5 44 30.5" fill="#f2f6ff"/><polygon points="24 40.5 24 42.5 4 32.5 4 30.5 24 40.5" fill="#fff" opacity=".2"/><polygon points="24 40.5 24 42.5 44 32.5 44 30.5 24 40.5" fill="#2f3541"/></g><polygon points="38.0531 27.5263 33.0502 28.2398 29.3806 30.9622 23.7331 33.6876 37 33.9997 44 30.4997 38.0531 27.5263" fill="url(#Unbenannter_Verlauf_41)"/><rect width="48" height="48" fill="none"/><path d="M23.4447,32.6711l-4.8828-2.3815,.0328-6.0283,6.199-4.5911,4.85,8.4019-6.199,4.5989Z" fill="#fff3f8"/><polygon points="30.6445 28.5603 23.7331 33.6876 29.3806 30.9622 36.292 25.8349 30.6445 28.5603" fill="url(#gradient_pink_blue)" opacity=".8"/><rect id="Rectangle_55724" x="14.0974" y="13.6833" width="24" height="24" fill="none"/><path d="M24.7937,19.6703l-6.199,4.5911-.0328,6.0283,4.8828,2.3815,6.199-4.5989-4.85-8.4019Zm-4.812,10.436c-.3888-.1896-.7054-.7386-.7028-1.2186s.3235-.7181,.7123-.5284c.3889,.1896,.7054,.7386,.7028,1.2186-.0026,.48-.3235,.7181-.7123,.5284Zm1.1129-6.0065l3.3434-2.4803,3.4823,6.0383-3.3434,2.4803-3.4823-6.0383Z" fill="none"/><polygon points="24.4312 22.8628 22.1018 24.591 24.5836 28.9025 26.9195 27.1696 24.4312 22.8628" fill="none"/><polygon points="36.292 25.8349 30.448 15.7015 24.8005 18.4269 30.6445 28.5603 36.292 25.8349" fill="url(#gradient_pink_blue-2)" opacity=".8"/><path d="M19.9913,28.3592c-.3888-.1896-.7097,.0484-.7123,.5284s.314,1.029,.7028,1.2186c.3889,.1896,.7097-.0484,.7123-.5284,.0026-.48-.314-1.029-.7028-1.2186Z" fill="#2f3541"/><path d="M24.438,21.6194l-3.3434,2.4803,3.4823,6.0383,3.3434-2.4803-3.4823-6.0383Zm-2.3362,2.9716l2.3295-1.7281,2.4883,4.3068-2.3359,1.7329-2.4819-4.3116Z" fill="#2f3541"/><path d="M24.8005,18.4269l-6.9113,5.1274-.0396,7.2638,5.8835,2.8696,6.9114-5.1273-5.844-10.1334Zm-1.3558,14.2442l-4.8828-2.3815,.0328-6.0283,6.199-4.5911,4.85,8.4019-6.199,4.5989Z" fill="#2f3541"/></svg>