<?xml version="1.0" encoding="UTF-8"?><svg id="a" xmlns="http://www.w3.org/2000/svg" viewBox="0 0 24 24"><path d="M12,5.5c1.1,0,2,.9,2,2s-.9,2-2,2-2-.9-2-2,.9-2,2-2m2.37,8.57c1.64,.83,2.87,2.47,3.38,4.43H6.25c.51-1.96,1.74-3.6,3.38-4.43,.77,.29,1.56,.43,2.37,.43s1.6-.14,2.37-.43M12,3.5c-2.21,0-4,1.79-4,4s1.79,4,4,4,4-1.79,4-4-1.79-4-4-4h0Zm2.34,8.39c-.7,.37-1.49,.61-2.34,.61s-1.64-.23-2.34-.61c-3.28,1.13-5.66,4.55-5.66,8.61H20c0-4.05-2.38-7.48-5.66-8.61h0Z" fill="#fff"/><rect y="0" width="24" height="24" fill="none"/></svg>