<?xml version="1.0" encoding="UTF-8"?><svg id="a" xmlns="http://www.w3.org/2000/svg" xmlns:xlink="http://www.w3.org/1999/xlink" viewBox="0 0 48 48"><defs><linearGradient id="b" x1="26.82" y1="30.62" x2="41.49" y2="30.62" gradientTransform="matrix(1, 0, 0, 1, 0, 0)" gradientUnits="userSpaceOnUse"><stop offset="0" stop-color="#2f3541" stop-opacity=".4"/><stop offset="1" stop-color="#2f3541" stop-opacity="0"/></linearGradient><linearGradient id="c" x1="22.71" y1="11.29" x2="29.46" y2="23.59" gradientTransform="matrix(1, 0, 0, 1, 0, 0)" gradientUnits="userSpaceOnUse"><stop offset="0" stop-color="#f49"/><stop offset="1" stop-color="#26f"/></linearGradient><linearGradient id="d" x1="17.87" y1="2.94" x2="28.44" y2="23.06" xlink:href="#c"/></defs><g><polyline points="44 30.5 24 20.5 4 30.5 24 40.5 44 30.5 44 30.5" fill="#f2f6ff"/><polygon points="24 40.5 24 42.5 4 32.5 4 30.5 24 40.5" fill="#fff" opacity=".2"/><polygon points="24 40.5 24 42.5 44 32.5 44 30.5 24 40.5" fill="#2f3541"/></g><polyline points="21.07 29.43 21.79 29.77 25.33 31.5 25.4 18.38 17.61 14.58 17.54 27.7 21.07 29.43" fill="#fff3f8"/><polygon points="44 30.5 34.6 25.79 31.7 25.34 31.68 29.99 24.24 33.59 33.2 35.9 44 30.5" fill="url(#b)"/><rect width="48" height="48" fill="none"/><g opacity=".8"><polygon points="21.07 30.3 19.49 29.53 18.59 29.97 21.07 31.17 21.07 30.3" fill="#26f"/><polygon points="21.78 30.65 21.78 31.52 22.68 31.08 21.78 30.65" fill="#26f"/><polygon points="26.03 32.72 26.03 31.87 24.25 32.73 24.25 33.6 29.89 30.88 29.9 30.85 26.03 32.72" fill="#26f"/><polygon points="22.68 31.08 21.78 31.52 24.25 32.73 25.15 32.29 22.68 31.08" fill="#26f"/><polygon points="16.91 13.36 22.55 10.64 31.76 15.13 26.11 17.85 16.91 13.36" fill="url(#c)"/></g><g><polygon points="24.63 28.53 24.63 29.41 18.25 26.3 18.26 25.42 24.63 28.53" fill="#2f3541"/><polygon points="24.65 25.9 24.64 26.78 18.27 23.67 18.27 22.8 24.65 25.9" fill="#2f3541"/><path d="M20.78,19.64c-.59-.29-1.06-1.11-1.06-1.83s.49-1.08,1.07-.8,1.06,1.11,1.06,1.83-.49,1.08-1.07,.8Zm0-1.75c-.2-.1-.36,.02-.36,.27s.16,.52,.35,.61,.35-.03,.35-.27-.16-.52-.35-.61" fill="#2f3541"/><polygon points="24.66 23.28 24.66 24.16 18.28 21.05 18.29 20.18 24.66 23.28" fill="#2f3541"/><path d="M23.61,21.02c-.59-.29-1.05-1.11-1.05-1.83s.48-1.08,1.07-.8,1.06,1.11,1.06,1.83-.49,1.08-1.07,.8Zm0-1.75c-.19-.09-.35,.03-.35,.27s.16,.52,.35,.61,.36-.02,.36-.27-.16-.52-.35-.61" fill="#2f3541"/><path d="M26.03,32.72l-4.25-2.07v.87l2.47,1.21v.87l-2.48-1.21-.71-.35-2.47-1.21v-.87l2.48,1.21v-.87l-4.24-2.07,.08-14.87,9.2,4.49-.08,14.87Zm-4.95-3.29l.71,.35,3.54,1.73,.07-13.12-7.79-3.8-.07,13.12,3.54,1.73" fill="#2f3541"/></g><polygon points="26.11 17.85 31.76 15.13 31.68 29.99 26.03 32.72 26.11 17.85" fill="url(#d)" opacity=".8"/></svg>