<?xml version="1.0" encoding="UTF-8"?><svg id="a" xmlns="http://www.w3.org/2000/svg" viewBox="0 0 24 24"><rect width="24" height="24" fill="none"/><path d="m14.03,9.99h-5.03v1h4.03c.29-.38.62-.72,1.01-1Z" fill="#fff"/><path d="m9,12.99v1h3c0-.34.03-.68.1-1h-3.1Z" fill="#fff"/><path d="m9,16.99h4.02c-.23-.31-.44-.64-.6-1h-3.42v1Z" fill="#fff"/><path d="m16,19h0s-9,0-9,0V5h6.59l.42.42v2.58h2.58l.42.42v.59c.34,0,.68.04,1,.1v-1.1h0s0,0,0,0l-4-4h0s0,0,0,0h-8v16h12v-1h-2Z" fill="#fff"/><polygon points="17 19 17 19 16 19 16 19 17 19" fill="#fff"/><path d="m20.46,14c0-.2-.03-.39-.06-.57l.6-.54c-.09-.33-.22-.64-.38-.93l-.8.04c-.22-.31-.5-.59-.81-.81l.04-.8c-.29-.16-.6-.29-.93-.38l-.54.6c-.19-.03-.38-.06-.57-.06s-.39.03-.57.06l-.54-.6c-.33.09-.64.22-.93.38l.04.8c-.31.22-.59.5-.81.81l-.8-.04c-.16.29-.29.6-.39.93l.6.54c-.03.19-.06.38-.06.57s.03.39.06.57l-.6.54c.09.33.22.64.39.93l.8-.04c.22.31.5.59.81.81l-.04.8c.29.16.6.29.93.38l.54-.6c.19.03.38.06.57.06s.39-.03.57-.06l.54.6c.33-.09.64-.22.93-.38l-.04-.8c.31-.22.59-.5.81-.81l.8.04c.16-.29.29-.6.38-.93l-.6-.54c.03-.19.06-.38.06-.57Zm-3.46,2.5c-1.38,0-2.5-1.12-2.5-2.5s1.12-2.5,2.5-2.5,2.5,1.12,2.5,2.5-1.12,2.5-2.5,2.5Z" fill="#fff"/><circle cx="17" cy="14" r=".5" fill="#fff"/></svg>