<?xml version="1.0" encoding="UTF-8"?><svg id="c" xmlns="http://www.w3.org/2000/svg" xmlns:xlink="http://www.w3.org/1999/xlink" viewBox="0 0 48 48"><defs><linearGradient id="a" x1="26.59" y1="32.68" x2="41.46" y2="32.68" gradientUnits="userSpaceOnUse"><stop offset="0" stop-color="#2f3541" stop-opacity=".4"/><stop offset="1" stop-color="#2f3541" stop-opacity="0"/></linearGradient><linearGradient id="f" x1="15.36" y1="17.14" x2="34.6" y2="27.78" gradientUnits="userSpaceOnUse"><stop offset="0" stop-color="#00d2b2"/><stop offset="1" stop-color="#26f"/></linearGradient><linearGradient id="g" x1="26.89" y1="21.55" x2="26.89" y2="34.52" xlink:href="#f"/><linearGradient id="h" x1="20.56" y1="16.67" x2="27.39" y2="25.24" xlink:href="#f"/><linearGradient id="i" x1="24.46" y1="19.95" x2="25.3" y2="21.59" xlink:href="#f"/><linearGradient id="j" x1="21.62" y1="13.31" x2="25.41" y2="20.58" xlink:href="#f"/><linearGradient id="k" x1="21.45" y1="18.44" x2="28.7" y2="18.44" xlink:href="#f"/></defs><g><polyline points="44 30.5 24 20.5 4 30.5 24 40.5 44 30.5 44 30.5" fill="#f2f6ff"/><polygon points="24 40.5 24 42.5 4 32.5 4 30.5 24 40.5" fill="#fff" opacity=".2"/><polygon points="24 40.5 24 42.5 44 32.5 44 30.5 24 40.5" fill="#2f3440"/></g><rect x="0" width="48" height="48" fill="none" opacity="0"/><rect id="e" x="11" y="12" width="24" height="24" fill="none"/><path d="M22.32,23.78c.18,.26,3.52,5.23,3.5,7.85-.02,4.34-2.17,4.2-5.7,2.49s-5.66-3.67-5.64-8.01c.01-2.62,3.4-4.31,3.58-4.39l4.25,2.07Z" fill="#fdf4f9"/><path d="M22.32,23.78c.18,.26,3.52,5.23,3.5,7.85-.02,4.34-2.17,4.2-5.7,2.49s-5.66-3.67-5.64-8.01c.01-2.62,3.4-4.31,3.58-4.39l4.25,2.07Zm-2.19,9.45c3.75,1.83,4.97,1.36,4.98-1.95,0-1.53-1.8-4.82-3.06-6.75l-3.74-1.82c-1.28,.7-3.11,2.21-3.12,3.74-.02,3.31,1.18,4.96,4.94,6.79" fill="#2f3440"/><polygon points="18.07 21.7 23.71 18.98 27.96 21.05 22.32 23.78 18.07 21.7" fill="url(#f)" opacity=".8"/><path d="M30.19,32.32l-5.65,2.73c.82-.39,1.27-1.44,1.28-3.42,.01-2.62-3.33-7.59-3.5-7.85l5.65-2.73c.18,.26,3.52,5.23,3.5,7.85-.01,1.97-.46,3.02-1.28,3.42Z" fill="url(#g)" opacity=".8"/><path d="M24.07,17.4c-.08-.04-.16-.04-.22-.01l-5.65,2.73c.06-.03,.14-.03,.22,.01l3.54,1.73,5.65-2.73-3.54-1.73Z" fill="url(#h)" opacity=".8"/><path d="M27.83,20.02l-5.65,2.73c.08-.04,.14-.14,.14-.28,0-.24-.16-.51-.35-.61l5.65-2.73c.2,.1,.36,.37,.35,.61,0,.14-.05,.24-.14,.28Z" fill="url(#i)" opacity=".8"/><path d="M21.97,21.86c.2,.1,.36,.37,.35,.61s-.16,.36-.36,.27l-3.54-1.73c-.19-.09-.35-.37-.35-.61s.16-.36,.35-.26l3.54,1.73Z" fill="#2f3440"/><path d="M20.22,16.62c2.13,1.04,2.8,2.2,2.83,2.26l-1.61,1.85-2.48-1.21-1.58-3.41s.71-.53,2.83,.51Z" fill="#fdf4f9"/><path d="M20.22,16.62c2.13,1.04,2.8,2.2,2.83,2.26l-1.61,1.85-2.48-1.21-1.58-3.41s.71-.53,2.83,.51Zm.87,3.06l.89-1.02c-.37-.33-.94-.76-1.77-1.16s-1.4-.53-1.77-.56l.87,1.88,1.77,.86" fill="#2f3440"/><path d="M25.87,13.89c-1.78-.87-2.54-.66-2.76-.55l-5.65,2.73c.22-.11,.99-.32,2.76,.55,2.13,1.04,2.8,2.2,2.83,2.26l5.65-2.73c-.04-.06-.7-1.22-2.83-2.26Z" fill="url(#j)" opacity=".8"/><polygon points="23.05 18.87 28.7 16.15 27.09 18 21.45 20.72 23.05 18.87" fill="url(#k)" opacity=".8"/><path d="M40.18,28.59l-8.71,.3s0,.01,0,.02c-.01,1.97-.46,3.02-1.28,3.42,0,0-5.62,2.71-5.6,2.7-.19,.1-.39,.16-.62,.19l7.48,1.57,12.55-6.27-3.82-1.91Z" fill="url(#a)"/><g><path d="M20.67,29.44c.6,.29,1.07,1.12,1.06,1.83s-.51,1.07-1.12,.77-1.08-1.12-1.06-1.84,.52-1.06,1.12-.77Zm-.04,1.73c.2,.1,.36-.02,.37-.25s-.15-.52-.35-.61-.37,.02-.38,.26,.15,.51,.36,.61" fill="#2f3440"/><path d="M18.51,27.5c-.6-.29-1.07-1.12-1.06-1.83s.51-1.06,1.12-.77,1.08,1.11,1.06,1.83-.51,1.07-1.12,.77Zm.04-1.73c-.2-.1-.36,.02-.37,.25s.15,.52,.35,.61,.37-.02,.38-.26-.15-.51-.36-.61" fill="#2f3440"/><path d="M22.1,26.75c.13,.24,.13,.51-.01,.62l-4.49,3.07c-.07,.05-.17,.05-.26,0s-.19-.14-.25-.26c-.14-.23-.13-.51,.01-.61l4.48-3.08c.07-.05,.17-.05,.26,0s.19,.13,.26,.25Z" fill="#2f3440"/></g></svg>