<?xml version="1.0" encoding="UTF-8"?><svg id="a" xmlns="http://www.w3.org/2000/svg" viewBox="0 0 24 24"><g><path d="M18.74,6.57c-1.1-1.84-2.55-3.2-3.99-3.9-1.29-.63-2.57-.74-3.62-.23l-5.65,2.73c1.05-.51,2.34-.39,3.62,.23,1.45,.71,2.9,2.07,3.99,3.9,2.2,3.68,2.17,7.9-.05,9.42l-4.03,3.29,5.65-2.73,4.03-3.29c2.23-1.52,2.25-5.74,.05-9.42Z" fill="#fff" opacity=".2"/><path d="M8.29,10.56h0c.07,0,.18,.02,.35,.1,.83,.4,1.55,1.69,1.55,2.75,0,.29-.08,.79-.36,.79-.07,0-.18-.02-.34-.1-.83-.41-1.56-1.69-1.55-2.75,0-.03,0-.79,.36-.79m0-1c-.79,0-1.35,.68-1.36,1.78,0,1.45,.94,3.08,2.11,3.66,.28,.13,.54,.2,.78,.2,.79,0,1.35-.68,1.36-1.78,0-1.45-.94-3.08-2.11-3.66-.28-.14-.54-.2-.79-.2h0Zm-1.36-3.73h0c.54,0,1.12,.15,1.74,.45,1.32,.64,2.62,1.93,3.57,3.52,1.9,3.18,2.01,6.88,.24,8.08l-.04,.02-.03,.03-3.1,2.53-3.42-6.18c-1.9-3.17-2.01-6.87-.25-8.08,.37-.25,.8-.38,1.28-.38m0-1c-.67,0-1.3,.18-1.84,.55-2.23,1.53-2.25,5.74-.05,9.42l3.98,7.2,4.03-3.29c2.23-1.52,2.25-5.74,.05-9.42-1.1-1.84-2.55-3.2-3.99-3.9-.74-.36-1.48-.55-2.18-.55h0Z" fill="#fff"/></g><rect y="0" width="24" height="24" fill="none"/></svg>