<?xml version="1.0" encoding="UTF-8"?><svg id="a" xmlns="http://www.w3.org/2000/svg" viewBox="0 0 24 24"><g opacity=".2"><polygon points="12 11 20 7 20 17 12 21 12 11" fill="#2f3541"/></g><g opacity=".2"><polygon points="4 7 12 3 20 7 12 11 4 7" fill="#2f3541"/></g><path d="M5,8.62l6,3v7.76l-6-3v-7.76m-1-1.62v10l8,4V11L4,7h0Z" fill="#2f3541"/><circle cx="12" cy="11" r="1.5" fill="#2f3541"/><circle cx="20" cy="7" r="1.5" fill="#2f3541"/><circle cx="20" cy="17" r="1.5" fill="#2f3541"/><circle cx="12.05" cy="2.83" r="1.5" fill="#2f3541"/><circle cx="4" cy="7" r="1.5" fill="#2f3541"/><circle cx="12" cy="21" r="1.5" fill="#2f3541"/><circle cx="4" cy="17" r="1.5" fill="#2f3541"/><rect x="0" width="24" height="24" transform="translate(24 24) rotate(180)" fill="none"/></svg>