<?xml version="1.0" encoding="UTF-8"?><svg id="a" xmlns="http://www.w3.org/2000/svg" viewBox="0 0 24 24"><rect y="0" width="24" height="24" fill="none"/><g opacity=".2"><g isolation="isolate"><polygon points="3.96 18.41 9.61 15.69 10.25 15.93 4.6 18.65 3.96 18.41" fill="#2f3541"/><polygon points="5.25 19.55 10.9 16.82 11.04 17.67 5.39 20.39 5.25 19.55" fill="#2f3541"/><polygon points="4.86 18.05 11.14 14.98 11.38 15.83 5.1 18.89 4.86 18.05" fill="#2f3541"/><polygon points="5.1 18.89 10.75 16.17 11.38 16.55 5.74 19.27 5.1 18.89" fill="#2f3541"/><polygon points="5.74 19.27 11.38 16.55 10.9 16.82 5.25 19.55 5.74 19.27" fill="#2f3541"/></g><g isolation="isolate"><polygon points="11.5 15.1 6.1 17.7 6.74 17.94 11.82 15.49 11.5 15.1" fill="#2f3541"/><polygon points="12.83 16.22 12.94 16.88 12.52 16.36 7.39 18.84 7.52 19.68 13.17 16.96 12.83 16.22" fill="#2f3541"/><polygon points="11.54 15.15 6.99 17.34 7.24 18.18 12.1 15.84 11.54 15.15" fill="#2f3541"/><polygon points="12.1 15.84 7.24 18.18 7.88 18.57 12.5 16.33 12.1 15.84" fill="#2f3541"/><polygon points="12.5 16.33 7.88 18.57 7.39 18.84 12.52 16.36 12.5 16.33" fill="#2f3541"/></g><g isolation="isolate"><polygon points="7.72 9.72 3.29 11.86 4.57 12.34 8.26 10.56 7.72 9.72" fill="#2f3541"/><polygon points="8.95 12.66 5.86 14.15 6.15 15.83 8.53 14.68 8.95 12.66" fill="#2f3541"/><polygon points="7.79 9.83 5.07 11.14 5.56 12.83 8.73 11.3 7.79 9.83" fill="#2f3541"/><polygon points="8.98 12.55 6.84 13.58 5.86 14.15 8.95 12.66 8.98 12.55" fill="#2f3541"/><polygon points="9.01 12.37 9.11 11.9 8.8 11.4 8.73 11.3 5.56 12.83 6.84 13.58 8.98 12.55 9.01 12.37" fill="#2f3541"/><polygon points="10.43 8.22 10.77 7.4 10.94 7.97 14.92 6.05 11.1 4.6 5.45 7.32 9.27 8.78 10.43 8.22" fill="#2f3541"/><polygon points="13.15 14.19 18.8 11.46 19.65 16.5 14 19.23 13.15 14.19" fill="#2f3541"/><polygon points="10.79 5.16 16.43 2.43 17.9 7.51 12.25 10.23 10.79 5.16" fill="#2f3541"/><polygon points="16.07 12.5 21.72 9.78 18.8 11.46 13.15 14.19 16.07 12.5" fill="#2f3541"/><polygon points="12.25 10.23 17.9 7.51 21.72 9.78 16.07 12.5 12.25 10.23" fill="#2f3541"/><polygon points="13.96 8.38 19.61 5.66 20.25 5.9 14.6 8.62 13.96 8.38" fill="#2f3541"/><polygon points="15.25 9.53 20.9 6.8 21.04 7.64 15.39 10.36 15.25 9.53" fill="#2f3541"/><polygon points="14.85 8.02 20.5 5.29 20.75 6.14 15.1 8.86 14.85 8.02" fill="#2f3541"/><polygon points="15.1 8.86 20.75 6.14 21.38 6.52 15.74 9.25 15.1 8.86" fill="#2f3541"/><polygon points="15.74 9.25 21.38 6.52 20.9 6.8 15.25 9.53 15.74 9.25" fill="#2f3541"/></g></g><rect y="0" width="24" height="24" fill="none"/><g><polygon points="5.1 18.89 5.74 19.27 5.25 19.55 5.39 20.39 4.85 19.72 4.3 19.86 4.45 19.16 3.96 18.41 4.6 18.65 4.86 18.05 5.1 18.89" fill="#2f3541"/><polygon points="7.24 18.18 7.88 18.57 7.39 18.84 7.52 19.68 6.98 19.01 6.43 19.15 6.59 18.45 6.1 17.7 6.74 17.94 6.99 17.34 7.24 18.18" fill="#2f3541"/><polygon points="5.05 14.48 3.95 14.76 4.25 13.37 3.29 11.86 4.57 12.34 5.07 11.14 5.56 12.83 6.84 13.58 5.86 14.15 6.15 15.83 5.05 14.48" fill="#2f3541"/><path d="M16.07,12.5l-2.92,1.69,.85,5.04-3.27-4.05-3.3,.85,.89-4.19-2.88-4.51,3.82,1.45,1.52-3.62,1.47,5.07,3.82,2.27Zm-4.97,2.1l1.84,2.27-.48-2.83-.09-.56,.33-.19,1.64-.95-2.15-1.28-.43-.26-.16-.57-.83-2.85-.85,2.03-.17,.41-.43-.16-2.15-.82,1.62,2.54,.32,.5-.1,.46-.5,2.36,1.86-.48,.36-.1,.36,.45" fill="#2f3541"/><polygon points="14.3 9.83 14.45 9.14 13.96 8.38 14.6 8.62 14.85 8.02 15.1 8.86 15.74 9.25 15.25 9.53 15.39 10.36 14.85 9.69 14.3 9.83" fill="#2f3541"/></g><rect y="0" width="24" height="24" fill="none"/></svg>