<?xml version="1.0" encoding="UTF-8"?><svg id="a" xmlns="http://www.w3.org/2000/svg" xmlns:xlink="http://www.w3.org/1999/xlink" viewBox="0 0 48 48"><defs><linearGradient id="b" x1="24.58" y1="28.62" x2="24.89" y2="28.62" gradientTransform="matrix(1, 0, 0, 1, 0, 0)" gradientUnits="userSpaceOnUse"><stop offset="0" stop-color="#2f3541" stop-opacity=".6"/><stop offset="1" stop-color="#2f3541" stop-opacity="0"/></linearGradient><linearGradient id="c" x1="20.87" y1="31.5" x2="40.62" y2="31.5" xlink:href="#b"/><linearGradient id="d" x1="18.41" y1="27.88" x2="21.33" y2="33.27" gradientTransform="matrix(1, 0, 0, 1, 0, 0)" gradientUnits="userSpaceOnUse"><stop offset="0" stop-color="#f49"/><stop offset="1" stop-color="#26f"/></linearGradient><linearGradient id="e" x1="19.29" y1="28.72" x2="20.21" y2="30.75" xlink:href="#d"/><linearGradient id="f" x1="19.43" y1="27.65" x2="20.7" y2="30.03" xlink:href="#d"/><linearGradient id="g" x1="19.47" y1="28.23" x2="20.81" y2="30.82" xlink:href="#d"/><linearGradient id="h" x1="19.08" y1="27.6" x2="22.93" y2="29.39" xlink:href="#d"/><linearGradient id="i" x1="21.28" y1="27.97" x2="22.17" y2="29.93" xlink:href="#d"/><linearGradient id="j" x1="20.72" y1="27.05" x2="21.95" y2="29.6" xlink:href="#d"/><linearGradient id="k" x1="20.8" y1="27.18" x2="22.4" y2="30.28" xlink:href="#d"/><linearGradient id="l" x1="17.51" y1="22.7" x2="18.88" y2="25.32" xlink:href="#d"/><linearGradient id="m" x1="18.62" y1="24.27" x2="19.87" y2="26.92" xlink:href="#d"/><linearGradient id="n" x1="17.99" y1="21.74" x2="19.99" y2="25.77" xlink:href="#d"/><linearGradient id="o" x1="18.62" y1="22.96" x2="20.05" y2="25.77" xlink:href="#d"/><linearGradient id="p" x1="21.76" y1="17.74" x2="23.4" y2="21.45" xlink:href="#d"/><linearGradient id="q" x1="25.94" y1="22.25" x2="27.96" y2="26.43" xlink:href="#d"/><linearGradient id="r" x1="25.45" y1="16.4" x2="29.45" y2="25.1" xlink:href="#d"/><linearGradient id="s" x1="27.84" y1="19.64" x2="30.26" y2="24.63" xlink:href="#d"/><linearGradient id="t" x1="29.04" y1="19.01" x2="29.65" y2="20.18" xlink:href="#d"/><linearGradient id="u" x1="29.42" y1="18.99" x2="30.51" y2="21.39" xlink:href="#d"/><linearGradient id="v" x1="29.76" y1="18.99" x2="30.25" y2="20.04" xlink:href="#d"/><linearGradient id="w" x1="30.08" y1="19.34" x2="30.63" y2="20.54" xlink:href="#d"/></defs><g><polyline points="44 30.5 24 20.5 4 30.5 24 40.5 44 30.5 44 30.5" fill="#f2f6ff"/><polygon points="24 40.5 24 42.5 4 32.5 4 30.5 24 40.5" fill="#fff" opacity=".2"/><polygon points="24 40.5 24 42.5 44 32.5 44 30.5 24 40.5" fill="#2f3541"/></g><g><polygon points="24.94 28.88 24.91 28.72 24.52 28.36 24.94 28.88" fill="url(#b)"/><polygon points="31.45 27.34 31.65 28.5 26 31.23 26 31.23 26 31.23 26 31.23 24.45 29.3 19.52 31.68 19.48 31.39 17.39 32.39 17.39 32.39 33.7 35.65 44 30.5 31.45 27.34" fill="url(#c)" opacity=".4"/></g><rect x="12" y="12" width="24" height="24" fill="none"/><polyline points="23.1 26.61 24.94 28.88 24.46 26.05 24.37 25.49 24.7 25.3 26.34 24.35 24.19 23.08 23.77 22.82 23.6 22.25 22.77 19.4 21.92 21.43 21.75 21.84 21.32 21.68 19.17 20.86 20.8 23.4 21.11 23.9 21.01 24.37 20.52 26.73 22.37 26.25 22.74 26.15 23.1 26.61" fill="#fff3f8"/><rect x="0" y="0" width="48" height="48" fill="none"/><g opacity=".8"><g isolation="isolate"><polygon points="15.96 30.41 21.61 27.69 22.25 27.93 16.6 30.65 15.96 30.41" fill="url(#d)"/><polygon points="17.25 31.55 22.9 28.82 23.04 29.67 17.39 32.39 17.25 31.55" fill="url(#e)"/><polygon points="16.86 30.05 23.14 26.98 23.38 27.83 17.1 30.89 16.86 30.05" fill="url(#f)"/><polygon points="17.1 30.89 22.75 28.17 23.38 28.55 17.74 31.27 17.1 30.89" fill="url(#g)"/><polygon points="17.74 31.27 23.38 28.55 22.9 28.82 17.25 31.55 17.74 31.27" fill="#0948c7"/></g><g isolation="isolate"><polygon points="23.5 27.1 18.1 29.7 18.74 29.94 23.82 27.49 23.5 27.1" fill="url(#h)"/><polygon points="24.83 28.22 24.94 28.88 24.52 28.36 19.39 30.84 19.52 31.68 25.17 28.96 24.83 28.22" fill="url(#i)"/><polygon points="23.54 27.15 18.99 29.34 19.24 30.18 24.1 27.84 23.54 27.15" fill="url(#j)"/><polygon points="24.1 27.84 19.24 30.18 19.88 30.57 24.5 28.33 24.1 27.84" fill="url(#k)"/><polygon points="24.5 28.33 19.88 30.57 19.39 30.84 24.52 28.36 24.5 28.33" fill="#0948c7"/></g><g isolation="isolate"><polygon points="19.72 21.72 15.29 23.86 16.57 24.34 20.26 22.56 19.72 21.72" fill="url(#l)"/><polygon points="20.95 24.66 17.86 26.15 18.15 27.83 20.53 26.68 20.95 24.66" fill="url(#m)"/><polygon points="19.79 21.83 17.07 23.14 17.56 24.83 20.73 23.3 19.79 21.83" fill="url(#n)"/><polygon points="20.98 24.55 18.84 25.58 17.86 26.15 20.95 24.66 20.98 24.55" fill="#0948c7"/><polygon points="21.01 24.37 21.11 23.9 20.8 23.4 20.73 23.3 17.56 24.83 18.84 25.58 20.98 24.55 21.01 24.37" fill="url(#o)"/><polygon points="22.43 20.22 22.77 19.4 22.94 19.97 26.92 18.05 23.1 16.6 17.45 19.32 21.27 20.78 22.43 20.22" fill="url(#p)"/><polygon points="25.15 26.19 30.8 23.46 31.65 28.5 26 31.23 25.15 26.19" fill="url(#q)"/><polygon points="22.79 17.16 28.43 14.43 29.9 19.51 24.25 22.23 22.79 17.16" fill="url(#r)"/><polygon points="28.07 24.5 33.72 21.78 30.8 23.46 25.15 26.19 28.07 24.5" fill="#225acd"/><polygon points="24.25 22.23 29.9 19.51 33.72 21.78 28.07 24.5 24.25 22.23" fill="url(#s)"/><polygon points="25.96 20.38 31.61 17.66 32.25 17.9 26.6 20.62 25.96 20.38" fill="url(#t)"/><polygon points="27.25 21.53 32.9 18.8 33.04 19.64 27.39 22.36 27.25 21.53" fill="url(#u)"/><polygon points="26.85 20.02 32.5 17.29 32.75 18.14 27.1 20.86 26.85 20.02" fill="url(#v)"/><polygon points="27.1 20.86 32.75 18.14 33.38 18.52 27.74 21.25 27.1 20.86" fill="url(#w)"/><polygon points="27.74 21.25 33.38 18.52 32.9 18.8 27.25 21.53 27.74 21.25" fill="#225acd"/></g></g><g><polygon points="17.1 30.89 17.74 31.27 17.25 31.55 17.39 32.39 16.85 31.72 16.3 31.86 16.45 31.16 15.96 30.41 16.6 30.65 16.86 30.05 17.1 30.89" fill="#2f3541"/><polygon points="19.24 30.18 19.88 30.57 19.39 30.84 19.52 31.68 18.98 31.01 18.43 31.15 18.59 30.45 18.1 29.7 18.74 29.94 18.99 29.34 19.24 30.18" fill="#2f3541"/><polygon points="17.05 26.48 15.95 26.76 16.25 25.37 15.29 23.86 16.57 24.34 17.07 23.14 17.56 24.83 18.84 25.58 17.86 26.15 18.15 27.83 17.05 26.48" fill="#2f3541"/><path d="M28.07,24.5l-2.92,1.69,.85,5.04-3.27-4.05-3.3,.85,.89-4.19-2.88-4.51,3.82,1.45,1.52-3.62,1.47,5.07,3.82,2.27Zm-4.97,2.1l1.84,2.27-.48-2.83-.09-.56,.33-.19,1.64-.95-2.15-1.28-.43-.26-.16-.57-.83-2.85-.85,2.03-.17,.41-.43-.16-2.15-.82,1.62,2.54,.32,.5-.1,.46-.5,2.36,1.86-.48,.36-.1,.36,.45" fill="#2f3541"/><polygon points="26.3 21.83 26.45 21.14 25.96 20.38 26.6 20.62 26.85 20.02 27.1 20.86 27.74 21.25 27.25 21.53 27.39 22.36 26.85 21.69 26.3 21.83" fill="#2f3541"/></g></svg>