<?xml version="1.0" encoding="UTF-8"?><svg id="a" xmlns="http://www.w3.org/2000/svg" viewBox="0 0 24 24"><rect width="24" height="24" fill="none"/><g isolation="isolate"><g opacity=".2"><polygon points="4.95 6.86 10.59 4.13 14.49 6.03 8.84 8.76 4.95 6.86" fill="#2f3541"/></g><g opacity=".2"><polygon points="9.56 7.35 15.21 4.62 15.2 6.38 9.55 9.11 9.56 7.35" fill="#2f3541"/></g><g opacity=".2"><polygon points="7.44 5.44 13.09 2.71 16.63 4.44 10.98 7.17 7.44 5.44" fill="#2f3541"/></g><g opacity=".2"><polygon points="10.98 7.17 16.63 4.44 16.63 5.32 10.98 8.04 10.98 7.17" fill="#2f3541"/></g><g opacity=".2"><polyline points="13.45 11 9.55 9.11 15.2 6.38 19 8.28 19 18.77 13.39 21.5 13.45 11" fill="#2f3541"/></g></g><path d="M7.41,10.69c.59,.29,1.06,1.11,1.06,1.83s-.49,1.07-1.07,.79-1.05-1.1-1.05-1.82,.48-1.08,1.07-.8Zm0,1.75c.2,.1,.36-.02,.36-.26s-.16-.52-.35-.61-.35,.03-.35,.27,.16,.51,.35,.6" fill="#2f3541"/><path d="M10.96,12.42c.59,.29,1.05,1.11,1.05,1.83s-.48,1.08-1.07,.79-1.06-1.1-1.06-1.83,.49-1.08,1.07-.8Zm0,1.75c.19,.09,.35-.03,.35-.26s-.16-.52-.35-.61-.36,.02-.36,.27,.16,.51,.35,.61" fill="#2f3541"/><path d="M9.55,9.11l3.89,1.9-.06,10.49-8.5-4.15,.06-10.49,3.89,1.9v-1.75l-1.41-.69v-.87l3.55,1.73v.87l-1.42-.69v1.75Zm3.13,11.17l.05-8.74-3.19-1.55-.71-.35-3.19-1.55-.05,8.74,7.09,3.46" fill="#2f3541"/><path d="M7.04,14.01l4.25,2.07v2.63l-4.26-2.07v-2.63Zm3.54,3.48v-.88l-2.83-1.38v.88l2.83,1.38" fill="#2f3541"/></svg>