<?xml version="1.0" encoding="UTF-8"?><svg id="a" xmlns="http://www.w3.org/2000/svg" xmlns:xlink="http://www.w3.org/1999/xlink" viewBox="0 0 48 48"><defs><linearGradient id="b" x1="24.09" y1="29.83" x2="41.09" y2="29.83" gradientTransform="matrix(1, 0, 0, 1, 0, 0)" gradientUnits="userSpaceOnUse"><stop offset="0" stop-color="#2f3541" stop-opacity=".6"/><stop offset="1" stop-color="#2f3541" stop-opacity="0"/></linearGradient><linearGradient id="c" x1="23.03" y1="15.39" x2="28.11" y2="26.24" gradientTransform="matrix(1, 0, 0, 1, 0, 0)" gradientUnits="userSpaceOnUse"><stop offset="0" stop-color="#f84"/><stop offset="1" stop-color="#f49"/></linearGradient><linearGradient id="d" x1="23.38" y1="17.73" x2="27.88" y2="26.97" xlink:href="#c"/></defs><g><polyline points="44 30.5 24 20.5 4 30.5 24 40.5 44 30.5 44 30.5" fill="#f2f6ff"/><polygon points="24 40.5 24 42.5 4 32.5 4 30.5 24 40.5" fill="#fff" opacity=".2"/><polygon points="24 40.5 24 42.5 44 32.5 44 30.5 24 40.5" fill="#2f3541"/></g><polygon points="44 30.5 25.11 24 21.09 26.53 24 33 33.7 35.65 44 30.5" fill="url(#b)" opacity=".4"/><g opacity=".8"><polygon points="24 23 32 19 32 29 24 33 24 23" fill="url(#c)"/><polygon points="16 19 24 15 32 19 24 23 16 19" fill="url(#d)"/></g><rect x="0" y="0" width="48" height="48" fill="none"/><path d="M17,20.62l6,3v7.76l-6-3v-7.76m-1-1.62v10l8,4v-10l-8-4h0Z" fill="#2f3541"/><circle cx="24" cy="23" r="1.5" fill="#2f3541"/><circle cx="32" cy="19" r="1.5" fill="#2f3541"/><circle cx="32" cy="29" r="1.5" fill="#2f3541"/><circle cx="24.05" cy="14.83" r="1.5" fill="#2f3541"/><circle cx="16" cy="19" r="1.5" fill="#2f3541"/><circle cx="24" cy="33" r="1.5" fill="#2f3541"/><circle cx="16" cy="29" r="1.5" fill="#2f3541"/><rect x="12" y="12" width="24" height="24" transform="translate(48 48) rotate(180)" fill="none"/><polyline points="17 20.62 23 23.62 23 31.38 17 28.38 17 20.62" fill="#fff3f8"/></svg>