<?xml version="1.0" encoding="UTF-8"?><svg id="icon" xmlns="http://www.w3.org/2000/svg" width="24" height="24" viewBox="0 0 24 24"><path d="M5.4453,10.9039h1.0557c1.0889,0,1.6494-.5076,1.6494-1.3175s-.5283-1.3364-1.5371-1.3364c-1.0723,0-1.6133,.6272-1.6133,1.5H2.7499c0-2.0799,1.5742-3.625,3.8633-3.625,2.3369,0,3.794,1.3175,3.794,3.318,0,1.1441-.5127,1.922-1.5371,2.3667,1.1201,.4282,1.665,1.2545,1.665,2.5081,0,2.0169-1.665,3.5573-4.0176,3.5573-2.3369,0-3.9375-1.3862-4.0176-3.625h2.2725c.0479,.9523,.6563,1.5451,1.7451,1.5451,1.0244,0,1.6963-.6035,1.6963-1.4773,0-.9203-.5439-1.4919-1.7451-1.4919h-1.0234v-1.922Z" fill="#fff"/><rect width="24" height="24" fill="none"/><path d="M12,17.5V6.5h3.8474c3.575,0,5.6526,2.1941,5.6526,5.5s-2.0776,5.5-5.6526,5.5h-3.8474Zm2.25-9v7h1.5367c2.2781,0,3.3798-1.3523,3.3798-3.5104s-1.1018-3.4896-3.3798-3.4896h-1.5367Z" fill="#fff"/></svg>