<?xml version="1.0" encoding="UTF-8"?><svg id="a" xmlns="http://www.w3.org/2000/svg" viewBox="0 0 24 24"><rect width="24" height="24" fill="none"/><g><g><path d="M5.13,14.36V4.13h13.73V14.36c0,4.33-3.91,6.51-6.87,6.51-3.19,0-6.86-2.17-6.86-6.51" fill="#69a33d"/><path d="M12.43,14.41v5.42c-.04,.22-.25,.37-.46,.33-.17-.03-.3-.16-.33-.33V5.28c.04-.22,.25-.37,.46-.33,.17,.03,.3,.16,.33,.33V14.41Z" fill="#fff"/><path d="M12.03,20.28c-.33,0-.47-.21-.51-.43V5.28c.02-.16,.1-.28,.21-.36,.11-.08,.25-.11,.38-.09,.21,.04,.38,.21,.42,.42v14.56c-.02,.16-.18,.46-.51,.45Zm0-15.21c-.21,0-.27,.16-.28,.24v14.52c.02,.1,.12,.2,.23,.22,.08,.01,.15,0,.21-.05,.06-.04,.1-.11,.12-.19V5.28c-.02-.1-.07-.22-.28-.22Z" fill="#171714"/><g><path d="M12.9,6.46s-.14,.15-.45,.45c-.86-.06-1.7,.24-2.33,.82h0c-.98-1.07-.4-2.51-.1-2.93,.35,.41,.77,.74,1.25,1l1.17,.2,.47,.47Z" fill="#fff"/><path d="M10.12,7.88c-.84-.69-1.1-2.27-.09-3.27,.93,1.36,2.45,1.27,2.45,1.27l.58,.58-.57,.57s-1.26-.23-2.37,.86Zm-.1-2.9c-.55,.75-.51,1.92,.11,2.58,1.05-.93,2.23-.78,2.28-.78,.16-.15,.27-.26,.33-.33l-.35-.36c-.27,0-1.53-.08-2.37-1.12Z" fill="#171714"/></g><g><path d="M13.74,8.03s-.36,.11-.41,.22c-.05-.14-.44-.25-.44-.25,0,0-.33,.08-.4,.18-.08-.11-.43-.18-.43-.18,0,0-.35,.08-.43,.18-.08-.11-.41-.18-.41-.18,0,0-.39,.11-.44,.25-.05-.12-.38-.24-.38-.24,0,0-.27,.19-.27,.37v9.88c0,.19,.23,.39,.23,.39,0,0,.36-.13,.41-.25,.05,.15,.44,.26,.44,.26,0,0,.33-.08,.41-.19,.08,.11,.43,.18,.43,.18,0,0,.35-.07,.43-.18,.08,.11,.4,.19,.4,.19,0,0,.39-.11,.44-.25,.05,.11,.38,.24,.38,.24,0,0,.26-.2,.26-.39V8.4c0-.19-.23-.37-.23-.37Z" fill="#fff"/><path d="M13.66,7.88c-.15,0-.28,.07-.37,.18-.09-.1-.22-.17-.37-.17-.16,0-.3,.08-.38,.19-.11-.11-.28-.19-.48-.19s-.37,.08-.48,.19c-.09-.11-.23-.19-.38-.19s-.28,.07-.37,.17c-.09-.1-.22-.17-.37-.17-.26,0-.49,.21-.49,.45v10c0,.25,.22,.45,.49,.45,.15,0,.28-.07,.37-.17,.09,.1,.22,.17,.37,.17,.16,0,.3-.08,.39-.19,.11,.11,.28,.19,.48,.19s.37-.08,.48-.19c.09,.11,.22,.19,.38,.19s.29-.07,.38-.17c.09,.1,.22,.16,.37,.16,.27,0,.49-.2,.49-.45V8.33c0-.24-.22-.45-.49-.45Zm-3.22,10.68c-.14,0-.26-.1-.26-.22V8.34c0-.12,.12-.22,.26-.22s.26,.1,.26,.22v10c0,.12-.11,.22-.26,.22Zm.74,0c-.14,0-.26-.1-.26-.22V8.34c0-.12,.12-.22,.26-.22s.26,.1,.26,.22v10c0,.12-.11,.22-.26,.22Zm.87,0c-.22,0-.38-.12-.38-.22V8.34c0-.1,.17-.22,.38-.22s.38,.12,.38,.22v10c0,.12-.17,.22-.38,.22Zm1.12-.22c0,.12-.11,.22-.26,.22s-.26-.1-.26-.22V8.34c0-.12,.12-.22,.26-.22s.26,.1,.26,.22v9.99h0Zm.74,0c0,.12-.11,.22-.26,.22s-.26-.1-.26-.22V8.34h0c0-.12,.12-.23,.26-.23s.26,.1,.26,.22v10Z" fill="#171714"/></g><rect x="9.85" y="8.81" width="4.36" height=".88" fill="#69a33d"/><path d="M14.33,9.81h-4.59v-1.11h4.59v1.11Zm-4.36-.23h4.13v-.65h-4.13v.65Z" fill="#171714"/><rect x="9.85" y="16.88" width="4.36" height=".89" fill="#69a33d"/><path d="M14.33,17.88h-4.59v-1.12h4.59v1.12Zm-4.36-.23h4.13v-.65h-4.13v.65Z" fill="#171714"/><polygon points="14.21 11.49 14.21 10 9.85 15.29 9.85 16.79 14.21 11.49" fill="#69a33d"/><path d="M9.74,17.11v-1.86l4.59-5.57v1.85l-4.59,5.57Zm.23-1.78v1.13l4.13-5.01v-1.13l-4.13,5.01Z" fill="#171714"/><polygon points="14.21 16.68 9.85 11.47 9.85 10 14.21 15.21 14.21 16.68" fill="#69a33d"/><path d="M14.33,17l-4.59-5.49v-1.82l4.59,5.49v1.82Zm-4.36-5.57l4.13,4.94v-1.11l-4.13-4.94v1.11Z" fill="#171714"/><rect x="9.77" y="9.7" width=".2" height=".31" fill="#171714"/><rect x="14.1" y="9.7" width=".2" height=".31" fill="#171714"/></g><path d="M11.99,21c-1.95,0-3.89-.78-5.19-2.1-1.18-1.19-1.81-2.77-1.8-4.56V4h14V14.34c0,4.54-4.18,6.66-7.01,6.66ZM5.42,4.42V14.34c0,1.68,.58,3.15,1.68,4.26,1.22,1.24,3.05,1.98,4.89,1.98,2.66,0,6.59-1.98,6.59-6.24V4.42H5.42Z" fill="#171714"/></g></svg>