<?xml version="1.0" encoding="UTF-8"?><svg id="a" xmlns="http://www.w3.org/2000/svg" viewBox="0 0 24 24"><rect y="0" width="24" height="24" fill="none"/><g><path d="M18,18h-7v1h7c2.03,0,3.61-.53,4.83-1.63l-.67-.75c-1.03,.92-2.4,1.37-4.17,1.37Z" fill="#2f3541"/><path d="M15.99,7.07s.01-.05,.01-.07c0-.55-.45-1-1-1s-1,.45-1,1c0,.03,.01,.05,.02,.08-1.96,.3-3.05,1.5-3.59,2.92H5l-2-3H1l1,5-1,2h3l1-.88,5.27,.77c.66,1.8,2.63,3.11,5.73,3.11,7,0,7-3,7-4,0-2.75-3.46-5.48-7.01-5.93Zm.01,8.93c-2.44,0-4.23-.92-4.79-2.45l-.21-.56-6.31-.93-1.06,.94h-1l.43-.86-.83-4.14h.25l2,3h6.66l.24-.65c.59-1.56,1.81-2.35,3.63-2.35,.33,0,.67,.03,1,.08v5.92h5.84c-.37,.92-1.62,2-5.84,2Zm1-3v-4.71c2.65,.74,5,2.8,5,4.71h-5Z" fill="#2f3541"/><polygon points="16 4 14 4 7 4 7 5 14 5 16 5 23 5 23 4 16 4" fill="#2f3541"/></g></svg>