<?xml version="1.0" encoding="UTF-8"?><svg id="c" xmlns="http://www.w3.org/2000/svg" xmlns:xlink="http://www.w3.org/1999/xlink" viewBox="0 0 48 48"><defs><linearGradient id="a" x1="22.24" y1="31.35" x2="40.82" y2="31.35" gradientTransform="matrix(1, 0, 0, 1, 0, 0)" gradientUnits="userSpaceOnUse"><stop offset="0" stop-color="#2f3541" stop-opacity=".4"/><stop offset="1" stop-color="#2f3541" stop-opacity="0"/></linearGradient><linearGradient id="d" x1="17.29" y1="29.43" x2="17.64" y2="30.45" gradientTransform="matrix(1, 0, 0, 1, 0, 0)" gradientUnits="userSpaceOnUse"><stop offset="0" stop-color="#f84"/><stop offset="1" stop-color="#f49"/></linearGradient><linearGradient id="e" x1="15.78" y1="16.5" x2="18.54" y2="21.87" xlink:href="#d"/><linearGradient id="f" x1="23.96" y1="29.99" x2="24" y2="30.34" xlink:href="#d"/><linearGradient id="g" x1="19.89" y1="16.98" x2="23.76" y2="25.08" xlink:href="#d"/><linearGradient id="h" x1="18.77" y1="17.46" x2="20.08" y2="19.76" xlink:href="#d"/><linearGradient id="i" x1="19.26" y1="16.36" x2="21.38" y2="20.61" xlink:href="#d"/><linearGradient id="j" x1="24.43" y1="25.2" x2="26.44" y2="29.37" xlink:href="#d"/><linearGradient id="k" x1="22.27" y1="21.02" x2="26.11" y2="30.66" xlink:href="#d"/><linearGradient id="l" x1="23.96" y1="17.96" x2="25.4" y2="27.67" xlink:href="#d"/><linearGradient id="m" x1="24.95" y1="21.14" x2="27.01" y2="21.47" xlink:href="#d"/><linearGradient id="n" x1="19.5" y1="17.68" x2="23.15" y2="25.28" xlink:href="#d"/><linearGradient id="o" x1="18.82" y1="13.23" x2="21.07" y2="16.87" xlink:href="#d"/><linearGradient id="p" x1="24.85" y1="24.56" x2="25.39" y2="25.62" xlink:href="#d"/><linearGradient id="q" x1="18.65" y1="11.8" x2="20.26" y2="15.84" xlink:href="#d"/><linearGradient id="r" x1="21.67" y1="17.84" x2="26.68" y2="25.87" xlink:href="#d"/><linearGradient id="s" x1="20.27" y1="19.86" x2="22.03" y2="22.92" xlink:href="#d"/><linearGradient id="t" x1="24.46" y1="20.06" x2="26.58" y2="20.4" xlink:href="#d"/><linearGradient id="u" x1="25.05" y1="23.96" x2="29.61" y2="33.36" xlink:href="#d"/><linearGradient id="v" x1="25.17" y1="22.01" x2="27.83" y2="22.43" xlink:href="#d"/><linearGradient id="w" x1="20.47" y1="20.04" x2="27.84" y2="31.93" xlink:href="#d"/><linearGradient id="x" x1="22.41" y1="17.96" x2="28.14" y2="29.75" xlink:href="#d"/><linearGradient id="y" x1="24.75" y1="23.03" x2="28.55" y2="30.75" xlink:href="#d"/><linearGradient id="z" x1="21.99" y1="23.22" x2="23.2" y2="23.22" xlink:href="#d"/><linearGradient id="aa" x1="25.28" y1="21.02" x2="28.01" y2="21.45" xlink:href="#d"/><linearGradient id="ab" x1="22.24" y1="16.21" x2="24.83" y2="20.44" xlink:href="#d"/><linearGradient id="ac" x1="22.07" y1="15.5" x2="23.49" y2="18.38" xlink:href="#d"/><linearGradient id="ad" x1="23.16" y1="16.82" x2="24.76" y2="19.83" xlink:href="#d"/><linearGradient id="ae" x1="24.66" y1="16.12" x2="25.85" y2="18.67" xlink:href="#d"/><linearGradient id="af" x1="23.65" y1="16.52" x2="27.96" y2="18.53" xlink:href="#d"/><linearGradient id="ag" x1="26.82" y1="17.25" x2="29.13" y2="21.54" xlink:href="#d"/><linearGradient id="ah" x1="28.46" y1="24.02" x2="32.32" y2="31.86" xlink:href="#d"/><linearGradient id="ai" x1="27.46" y1="21.69" x2="31.26" y2="29.42" xlink:href="#d"/><linearGradient id="aj" x1="26.21" y1="18.37" x2="30.87" y2="27.7" xlink:href="#d"/><linearGradient id="ak" x1="26.46" y1="16.55" x2="28.27" y2="19.55" xlink:href="#d"/><linearGradient id="al" x1="25.94" y1="15.26" x2="27.82" y2="19.26" xlink:href="#d"/><linearGradient id="am" x1="26.08" y1="15.64" x2="30.11" y2="23.3" xlink:href="#d"/><linearGradient id="an" x1="27.89" y1="18.8" x2="30.77" y2="24.36" xlink:href="#d"/><linearGradient id="ao" x1="26.79" y1="16.05" x2="29.86" y2="22.61" xlink:href="#d"/><linearGradient id="ap" x1="27.09" y1="15.79" x2="29.63" y2="20.81" xlink:href="#d"/><linearGradient id="aq" x1="27.14" y1="16.52" x2="28.9" y2="20.03" xlink:href="#d"/><linearGradient id="ar" x1="28.2" y1="26.8" x2="34.68" y2="39.53" xlink:href="#d"/><linearGradient id="as" x1="26.22" y1="22.31" x2="30.01" y2="30.03" xlink:href="#d"/><linearGradient id="at" x1="17.35" y1="31.38" x2="18.95" y2="31.38" xlink:href="#a"/></defs><g><polyline points="44 30.5 24 20.5 4 30.5 24 40.5 44 30.5 44 30.5" fill="#f2f6ff"/><polygon points="24 40.5 24 42.5 4 32.5 4 30.5 24 40.5" fill="#fff" opacity=".2"/><polygon points="24 40.5 24 42.5 44 32.5 44 30.5 24 40.5" fill="#2f3541"/></g><path d="M39.65,28.29l-8.48-1.07-1.15,.55c.12,.13,.26,.26,.43,.34,.17,.08,.35,.1,.54,.03l.18-.09c-.75,.55-.03,1.82-.01,1.86l-5.65,2.73h0s-.02-.04-.03-.07l-.67-1.27-.49-.41-3.39,1.64-1.96,.04,15.04,2.94,10-4.99-4.35-2.21Z" fill="url(#a)"/><g opacity=".8"><polygon points="18.7 30.74 18.64 30.63 17.69 31.09 17.37 31.38 17.07 31.64 18.75 30.83 18.7 30.74" fill="url(#d)"/><polygon points="19.92 17.73 19.48 17.49 13.83 20.21 14.27 20.46 14.75 20.72 20.4 17.99 19.92 17.73" fill="url(#e)"/><polygon points="26.55 29.24 26.53 28.63 20.88 31.36 20.9 31.97 20.93 32.51 26.57 29.79 26.55 29.24" fill="#f49"/><path d="M21.36,31.01l5.65-2.73c-.15,.13-.3,.25-.47,.34l-5.65,2.73c.17-.1,.33-.21,.47-.34Z" fill="url(#f)"/><path d="M17.75,20.3l5.65-2.73c.11,.04,.22,.09,.34,.15s.22,.12,.33,.18l-5.65,2.73c-.11-.06-.22-.12-.33-.18s-.23-.1-.34-.15Z" fill="url(#g)"/><path d="M22.37,16.38c-.41-.06-.79-.05-1.16,.03l-.38,.08-5.65,2.73,.38-.08c.36-.07,.75-.08,1.16-.03l.42,.06,5.65-2.73-.42-.06Z" fill="url(#h)"/><polygon points="23.08 16.99 22.79 16.44 17.14 19.17 17.43 19.71 17.75 20.3 23.39 17.58 23.08 16.99" fill="url(#i)"/><polygon points="28.42 26.25 28.07 25.68 22.42 28.4 22.77 28.98 23.1 29.5 28.74 26.77 28.42 26.25" fill="url(#j)"/><path d="M23.1,29.5l-.12,.46c-.11,.44-.27,.85-.48,1.19l-.22,.37,5.65-2.73,.22-.37c.21-.34,.37-.74,.48-1.19l.12-.46-5.65,2.73Z" fill="url(#k)"/><path d="M22.42,27.58l5.65-2.73c.01,.14,.02,.28,.02,.43s0,.27-.02,.4l-5.65,2.73c.01-.13,.02-.26,.02-.4s0-.29-.02-.43Z" fill="url(#l)"/><path d="M25.16,22.14l1.88-.91c-.15-.28-.3-.55-.47-.8l-1.64,.79c.13,.3,.2,.61,.23,.92Z" fill="url(#m)"/><path d="M22.71,22.3l-1.78,.86c.17,.26,.32,.53,.47,.8l1.89-.91c-.22-.21-.42-.46-.58-.75Z" fill="url(#n)"/><path d="M22.62,12.73l-5.65,2.73c-.21,.1-.41,.07-.6-.02-.45-.22-.76-.76-.78-.79l5.65-2.73s.33,.58,.78,.79c.19,.09,.39,.12,.6,.02Z" fill="url(#o)"/><polygon points="23.11 27.16 22.78 27.36 22.42 27.58 28.07 24.85 28.43 24.63 28.76 24.43 23.11 27.16" fill="url(#p)"/><path d="M17.1,15.38l5.65-2.73c-.75,.55-.03,1.82-.01,1.86l-5.65,2.73s-.73-1.3,.01-1.86Z" fill="url(#q)"/><path d="M22.34,20.94c0-.97,.65-1.44,1.43-1.05,.23,.11,.45,.29,.64,.51l2.22-1.07-.38-.45c-.36-.43-.74-.81-1.15-1.15l-.42-.35-5.65,2.73,.42,.35c.41,.34,.79,.73,1.15,1.15l.38,.45,1.4-.67c-.03-.15-.04-.29-.04-.43Z" fill="url(#r)"/><path d="M22.38,21.37l-1.4,.67-.03,.52-.03,.59,1.78-.86c-.16-.29-.27-.61-.33-.92Z" fill="url(#s)"/><path d="M24.41,20.39c.21,.24,.39,.52,.53,.83l1.64-.79,.03-.59,.03-.52-2.22,1.07Z" fill="url(#t)"/><path d="M31.05,28.12l-5.65,2.73c-.21,.1-.41,.07-.6-.02-.44-.21-.77-.77-.78-.79l5.65-2.73s.34,.58,.78,.79c.19,.09,.39,.12,.6,.02Z" fill="url(#u)"/><path d="M25.18,22.32c0,.3-.07,.54-.18,.73l2.96-1.43-.44-.18-.48-.21-1.88,.91c0,.06,.01,.12,.01,.18Z" fill="url(#v)"/><path d="M23.75,23.38c-.16-.08-.32-.2-.47-.33l-1.89,.91,.48,.21,.44,.18,1.79-.86c-.11-.02-.23-.05-.35-.11Z" fill="url(#w)"/><path d="M28.64,23.85c-.11-.55-.26-1.11-.46-1.65l-.21-.58-2.96,1.43c-.19,.34-.51,.5-.9,.43l-1.79,.86,.21,.58c.2,.54,.36,1.1,.46,1.65l.12,.58,5.65-2.73-.12-.58Z" fill="url(#x)"/><path d="M25.53,30.77l5.65-2.73c-.75,.55-.03,1.82-.01,1.86l-5.65,2.73s-.73-1.3,.01-1.86Z" fill="url(#y)"/><path d="M23.12,22.88l-.6,.29-.53,.4,1.21-.59s-.06-.07-.09-.1Z" fill="url(#z)"/><path d="M25.14,21.9s.01,.09,.02,.14l2.49-1.2,.53-.4-3.03,1.46Z" fill="url(#aa)"/><path d="M25.78,15.49l-5.65,2.73c-.16,.07-.31,.05-.44-.01-.33-.16-.56-.56-.57-.58l5.65-2.73s.24,.42,.57,.58c.14,.07,.29,.09,.44,.01Z" fill="url(#ab)"/><path d="M20.23,18.16l5.65-2.73c-.56,.41-.03,1.31,0,1.36l-5.65,2.73s-.55-.96,0-1.36Z" fill="url(#ac)"/><polygon points="20.93 19.81 26.57 17.08 27.32 17.45 21.67 20.17 20.93 19.81" fill="url(#ad)"/><polygon points="24.1 24.39 29.74 21.66 29.74 22.57 24.09 25.3 24.1 24.39" fill="#f49"/><polygon points="22.02 17.99 27.67 15.27 28.19 16.18 22.54 18.9 22.02 17.99" fill="url(#ae)"/><path d="M22.54,18.9l5.65-2.73c.26-.1,.55-.11,.88-.02l-5.65,2.73c-.33-.09-.62-.08-.88,.02Z" fill="url(#af)"/><path d="M25.84,23.09l5.65-2.73c-.05,.37-.18,.68-.36,.9l-5.65,2.73c.18-.23,.31-.54,.36-.9Z" fill="#f49"/><path d="M24.12,19.22l5.65-2.73c.32,.23,.62,.52,.87,.87l-5.65,2.73c-.25-.35-.55-.65-.87-.87Z" fill="url(#ag)"/><path d="M32.83,25.06l-5.65,2.73c-.16,.07-.31,.05-.44-.01-.33-.16-.56-.56-.57-.58l5.65-2.73s.24,.42,.57,.58c.14,.07,.29,.09,.44,.01Z" fill="url(#ah)"/><path d="M27.27,27.73l5.65-2.73c-.56,.41-.03,1.31,0,1.36l-5.65,2.73s-.55-.96,0-1.36Z" fill="url(#ai)"/><polygon points="25.48 23.99 31.13 21.27 31.65 22.17 26 24.89 25.48 23.99" fill="url(#aj)"/><polygon points="26 24.89 31.65 22.17 31.15 22.55 25.5 25.27 26 24.89" fill="#f49"/><polygon points="23.42 17.96 29.07 15.24 29.78 15.58 24.13 18.31 23.42 17.96" fill="url(#ak)"/><polygon points="24.13 18.31 29.78 15.58 29.77 16.5 24.12 19.22 24.13 18.31" fill="url(#al)"/><path d="M25.5,20.96l5.65-2.73c.18,.4,.3,.83,.35,1.25l-5.65,2.73c-.05-.42-.17-.85-.35-1.25Z" fill="url(#am)"/><polygon points="25.85 22.21 31.49 19.48 32.24 19.85 26.59 22.57 25.85 22.21" fill="url(#an)"/><polygon points="26.59 22.57 32.24 19.85 32.24 20.73 26.59 23.45 26.59 22.57" fill="url(#ao)"/><polygon points="25.53 19.7 31.18 16.98 31.67 17.84 26.02 20.57 25.53 19.7" fill="url(#ap)"/><polygon points="26.02 20.57 31.67 17.84 31.14 18.23 25.5 20.96 26.02 20.57" fill="url(#aq)"/><path d="M33.35,30.17c-.33-.16-.56-.56-.57-.58l-5.65,2.73s.24,.42,.57,.58c.14,.07,.29,.09,.44,.01l5.65-2.73c-.15,.07-.3,.05-.44-.01Z" fill="url(#ar)"/><path d="M28.24,32.85l5.65-2.73c-.56,.41-.04,1.32,0,1.37l-5.65,2.73s-.55-.96,0-1.37Z" fill="url(#as)"/></g><rect x="11.03" y="10.86" width="24" height="24" fill="none"/><g><path d="M23.75,23.38c.78,.38,1.42-.09,1.42-1.06s-.63-2.06-1.41-2.44-1.43,.09-1.43,1.05,.63,2.06,1.41,2.44" fill="#fff3f8"/><path d="M21.73,27.66c0-.26-.03-.52-.06-.79l.63-.39c-.09-.48-.22-.95-.4-1.43l-.85-.36c-.23-.52-.52-1.03-.86-1.49l.05-1.02c-.3-.36-.64-.7-.99-.99l-.58,.51c-.2-.14-.4-.27-.61-.37s-.41-.17-.61-.22l-.56-1.06c-.35-.05-.68-.04-1,.02l.04,1.07c-.33,.14-.63,.36-.87,.65l-.85-.47c-.17,.3-.32,.64-.41,1.03l.63,1.01c-.03,.24-.06,.47-.06,.73s.02,.52,.05,.78l-.63,.4c.09,.48,.23,.96,.4,1.42l.85,.37c.24,.53,.53,1.03,.86,1.49l-.05,1.02c.31,.37,.64,.7,.99,1l.57-.51c.2,.14,.4,.27,.61,.38s.41,.17,.61,.22l.57,1.07c.35,.05,.68,.04,.99-.03l-.04-1.07c.34-.13,.63-.35,.87-.64l.85,.46c.18-.29,.32-.63,.41-1.02l-.63-1.02c.03-.23,.07-.46,.07-.72" fill="#fff3f8"/><g><path d="M23.11,27.16l-.33,.2-.36,.22c.01,.14,.02,.28,.02,.43s0,.27-.02,.4l.35,.58,.32,.52-.12,.46c-.11,.44-.27,.85-.48,1.19l-.22,.37-.43-.24-.48-.26c-.15,.13-.3,.25-.47,.34l.02,.61,.02,.55-.38,.08c-.36,.08-.75,.08-1.16,.03l-.42-.06-.29-.54-.32-.6c-.11-.04-.22-.08-.33-.14s-.23-.12-.34-.19l-.32,.29-.3,.26-.42-.35c-.41-.34-.79-.72-1.15-1.15l-.37-.45,.02-.53,.03-.59c-.16-.26-.32-.53-.46-.8l-.48-.21-.44-.18-.21-.58c-.2-.54-.35-1.09-.46-1.65l-.11-.58,.33-.2,.35-.23c0-.14-.01-.27-.01-.42s0-.28,.02-.4l-.35-.57-.32-.52,.12-.46c.12-.44,.28-.84,.48-1.19l.22-.37,.44,.25,.48,.26c.14-.14,.3-.26,.47-.35l-.02-.61-.02-.54,.38-.08c.36-.07,.75-.08,1.16-.03l.42,.06,.29,.54,.32,.59c.11,.04,.22,.09,.34,.15s.22,.12,.33,.18l.32-.28,.3-.26,.42,.35c.41,.34,.79,.73,1.15,1.15l.38,.45-.03,.52-.03,.59c.17,.26,.32,.53,.47,.8l.48,.21,.44,.18,.21,.58c.2,.54,.36,1.1,.46,1.65l.12,.58Zm-1.38,.5c0-.26-.03-.52-.06-.79l.63-.39c-.09-.48-.22-.95-.4-1.43l-.85-.36c-.23-.52-.52-1.03-.86-1.49l.05-1.02c-.3-.36-.64-.7-.99-.99l-.58,.51c-.2-.14-.4-.27-.61-.37s-.41-.17-.61-.22l-.56-1.06c-.35-.05-.68-.04-1,.02l.04,1.07c-.33,.14-.63,.36-.87,.65l-.85-.47c-.17,.3-.32,.64-.41,1.03l.63,1.01c-.03,.24-.06,.47-.06,.73s.02,.52,.05,.78l-.63,.4c.09,.48,.23,.96,.4,1.42l.85,.37c.24,.53,.53,1.03,.86,1.49l-.05,1.02c.31,.37,.64,.7,.99,1l.57-.51c.2,.14,.4,.27,.61,.38s.41,.17,.61,.22l.57,1.07c.35,.05,.68,.04,.99-.03l-.04-1.07c.34-.13,.63-.35,.87-.64l.85,.46c.18-.29,.32-.63,.41-1.02l-.63-1.02c.03-.23,.07-.46,.07-.72" fill="#2f3541"/><path d="M18.06,24.12c.78,.38,1.41,1.47,1.41,2.44,0,.97-.65,1.44-1.42,1.06s-1.42-1.47-1.41-2.44,.65-1.44,1.43-1.05Zm-.01,2.62c.39,.19,.71-.05,.71-.53s-.31-1.03-.7-1.22-.71,.05-.71,.53,.31,1.03,.7,1.22" fill="#2f3541"/><path d="M25.84,23.09c-.05,.37-.18,.68-.36,.9l.52,.9-.5,.38-.53-.91c-.25,.1-.54,.12-.85,.03h-.03v.91l-.71-.35v-.93c-.33-.22-.62-.52-.87-.86l-.53,.4-.5-.87,.53-.39c-.18-.4-.3-.83-.35-1.25l-.75-.36v-.88l.75,.36c.05-.37,.18-.68,.36-.9l-.52-.9,.51-.38,.52,.91c.26-.1,.55-.11,.88-.02v-.91l.71,.35v.91c.32,.23,.61,.52,.87,.87l.53-.4,.49,.86-.53,.39c.18,.4,.3,.83,.35,1.25l.75,.36v.88l-.75-.36Zm-2.09,.29c.78,.38,1.42-.09,1.42-1.06s-.63-2.06-1.41-2.44-1.43,.09-1.43,1.05,.63,2.06,1.41,2.44" fill="#2f3541"/><path d="M16.31,16.45c-.22-.11-.47-.13-.73,.06,.76-.56,.05-1.79,.01-1.86,.02,.03,.33,.58,.78,.79,.22,.11,.47,.13,.73-.06-.75,.55-.03,1.82-.01,1.86-.01-.02-.34-.58-.78-.79Z" fill="#2f3541"/><path d="M24.02,30.04s.34,.58,.78,.79c.22,.11,.47,.13,.73-.06-.75,.55-.03,1.82-.01,1.86-.01-.02-.34-.58-.78-.79-.22-.11-.47-.13-.73,.06,.75-.55,.03-1.82,.01-1.86Z" fill="#2f3541"/><path d="M19.65,18.94c-.16-.08-.35-.09-.53,.05,.55-.42,.03-1.31,0-1.36,.01,.02,.24,.42,.57,.58,.16,.08,.35,.09,.53-.04-.56,.41-.03,1.31,0,1.36-.01-.02-.24-.42-.57-.58Z" fill="#2f3541"/><path d="M27.27,27.73c-.56,.41-.03,1.31,0,1.36-.01-.02-.24-.42-.57-.58-.16-.08-.35-.09-.53,.05,.55-.42,.03-1.31,0-1.36,.01,.02,.24,.42,.57,.58,.16,.08,.35,.09,.53-.04Z" fill="#2f3541"/><path d="M27.71,32.89c.16,.08,.35,.09,.53-.04-.56,.41-.04,1.32,0,1.37-.01-.02-.24-.42-.57-.58-.16-.08-.35-.09-.53,.05,.55-.42,.03-1.32,0-1.37,.01,.02,.24,.42,.57,.58Z" fill="#2f3541"/><path d="M23.76,21.19c.19,.09,.35,.37,.35,.61s-.16,.36-.35,.27-.36-.37-.35-.61,.16-.36,.36-.27Z" fill="#2f3541"/></g></g><polygon points="17.07 31.64 19.22 31.93 18.75 30.83 17.91 31.23 17.07 31.64" fill="url(#at)"/><rect width="48" height="48" fill="none"/></svg>