<?xml version="1.0" encoding="UTF-8"?><svg id="a" xmlns="http://www.w3.org/2000/svg" viewBox="0 0 24 24"><rect width="24" height="24" fill="none"/><path d="M20.17,3.82c-.55-.55-1.28-.83-1.99-.83s-1.36,.26-1.87,.77l-.06,.06L4.47,15.59l-1.47,5.4,5.4-1.47L20.17,7.75l.06-.06c1.05-1.05,1.02-2.78-.06-3.86Zm-3.92,1.39l2.54,2.54-1.07,1.07-2.54-2.54,1.07-1.07ZM4.4,19.59l.89-3.18,2.29,2.29-3.19,.89Zm4-1.46l-.12-.12-1.15-1.15-1.14-1.14-.13-.13L14.48,6.97l2.54,2.54-8.63,8.63ZM16.94,4.51l.06-.06c.31-.31,.73-.48,1.18-.48,.48,0,.94,.19,1.29,.54,.34,.34,.54,.79,.54,1.27,0,.46-.16,.89-.48,1.21l-.06,.06-2.54-2.54Z" fill="#fff"/></svg>