<?xml version="1.0" encoding="UTF-8"?><svg id="a" xmlns="http://www.w3.org/2000/svg" xmlns:xlink="http://www.w3.org/1999/xlink" viewBox="0 0 48 48"><defs><linearGradient id="b" x1="27.65" y1="31" x2="42.61" y2="31" gradientTransform="matrix(1, 0, 0, 1, 0, 0)" gradientUnits="userSpaceOnUse"><stop offset="0" stop-color="#2f3541" stop-opacity=".6"/><stop offset="1" stop-color="#2f3541" stop-opacity="0"/></linearGradient><linearGradient id="d" x1="20.21" y1="17.4" x2="23.57" y2="23.71" gradientTransform="matrix(1, 0, 0, 1, 0, 0)" gradientUnits="userSpaceOnUse"><stop offset="0" stop-color="#f49"/><stop offset="1" stop-color="#26f"/></linearGradient><linearGradient id="e" x1="26.92" y1="21.97" x2="30.87" y2="31.35" xlink:href="#d"/></defs><g><polyline points="44 30.5 24 20.5 4 30.5 24 40.5 44 30.5 44 30.5" fill="#f2f6ff"/><polygon points="24 40.5 24 42.5 4 32.5 4 30.5 24 40.5" fill="#fff" opacity=".2"/><polygon points="24 40.5 24 42.5 44 32.5 44 30.5 24 40.5" fill="#2f3541"/></g><polygon points="37 27 23 27 16 30.5 25 35 35 35 44 30.5 37 27" fill="url(#b)" opacity=".4"/><rect x="12" y="14" width="24" height="24" fill="none"/><path d="M25.45,25.97c1.56,.76,2.82,2.95,2.81,4.88l-.02,4.37-1.56-.76c-.28,.64-.91,.88-1.63,.52s-1.34-1.2-1.61-2.1l-.15-.07-.71-.35-4.4-2.15c-.28,.64-.9,.88-1.63,.52s-1.34-1.2-1.61-2.1l-.86-.42,.04-7.93c0-.93,.62-1.39,1.37-1.02l6.48,3.16c.76,.37,1.37,1.42,1.36,2.35v.06l2.12,1.04Z" fill="#fff3f8"/><path d="M25.45,25.97c1.56,.76,2.82,2.95,2.81,4.88l-.02,4.37-1.56-.76c-.28,.64-.91,.88-1.63,.52s-1.34-1.2-1.61-2.1l-.15-.07-.71-.35-4.4-2.15c-.28,.64-.9,.88-1.63,.52s-1.34-1.2-1.61-2.1l-.86-.42,.04-7.93c0-.93,.62-1.39,1.37-1.02l6.48,3.16c.76,.37,1.37,1.42,1.36,2.35v.06l2.12,1.04Zm-2.83-1.38v-.06c0-.44-.29-.96-.66-1.13l-6.48-3.16c-.36-.17-.66,.05-.66,.49l-.04,7.06c0-1.2,.81-1.79,1.78-1.32s1.77,1.84,1.76,3.04l4.25,2.07,.04-7m4.91,9.41l.02-3.49c0-1.45-.94-3.08-2.11-3.66l-2.12-1.04-.03,6.11c0-1.2,.8-1.79,1.78-1.32s1.77,1.84,1.76,3.04l.71,.35m-10.98-4.04c.59,.29,1.07-.07,1.07-.8s-.47-1.54-1.06-1.83-1.07,.06-1.07,.79,.47,1.55,1.06,1.83m8.5,4.14c.59,.29,1.07-.07,1.07-.8s-.47-1.54-1.06-1.83-1.06,.07-1.07,.79,.47,1.55,1.05,1.83" fill="#2f3541"/><g opacity=".8"><path d="M18.17,30.31c-.07,.15-.15,.27-.25,.38-.03,.03-.07,.05-.11,.08-.06,.05-.11,.1-.18,.13l.88-.42-.34-.17Z" fill="#26f"/></g><g opacity=".8"><path d="M26.67,34.45c-.07,.15-.15,.27-.25,.38-.03,.03-.07,.05-.11,.08-.06,.05-.11,.1-.17,.13l.87-.42-.34-.17Z" fill="#26f"/></g><rect x="0" y="0" width="48" height="48" fill="none"/><g><path d="M27.61,19.79l-6.48-3.16c-.32-.16-.61-.16-.84-.05l-5.65,2.73c.23-.11,.53-.1,.84,.05l6.48,3.16c.76,.37,1.37,1.42,1.36,2.35v.06l5.65-2.73v-.06c0-.93-.6-1.98-1.36-2.35Z" fill="url(#d)" opacity=".8"/><path d="M31.09,23.24l-2.12-1.04-5.65,2.73,2.12,1.04c1.56,.76,2.82,2.95,2.81,4.88l-.02,4.37,5.65-2.73,.02-4.37c.01-1.94-1.25-4.12-2.81-4.88Z" fill="url(#e)" opacity=".8"/></g></svg>