<?xml version="1.0" encoding="UTF-8"?><svg id="a" xmlns="http://www.w3.org/2000/svg" viewBox="0 0 24 24"><rect y="0" width="24" height="24" fill="none"/><path d="M20,6l1-2-1-2-5.15,2.57c-.24-.34-.75-.57-1.35-.57-.83,0-1.5,.45-1.5,1H4l-1,2,1,2H12v1H6l-1,2,1,2h6v6c0,.55,.67,1,1.5,1s1.5-.45,1.5-1v-6.5l3-1.5,1-2-1-2-3,1.5v-1l5-2.5Zm-.12-2l-.63,1.25-4.25,2.13v-1.76l4.55-2.28,.33,.66ZM4.62,8l-.5-1,.5-1h7.38v2H4.62Zm2,5l-.5-1,.5-1h5.38v2H6.62Zm10.93-3.66l.33,.66-.63,1.25-2.25,1.13v-1.76l2.55-1.28Zm-3.55,.66v9.88c-.08,.05-.26,.12-.5,.12s-.42-.07-.5-.12V6h1v4Z" fill="#2f3541"/></svg>