<?xml version="1.0" encoding="UTF-8"?><svg id="a" xmlns="http://www.w3.org/2000/svg" viewBox="0 0 24 24"><rect y="0" width="24" height="24" fill="none"/><g><path d="M19.51,9.27l-7.51,2.73V4c-4.42,0-8,3.58-8,8s3.58,8,8,8,8-3.58,8-8c0-.96-.18-1.88-.49-2.73Zm-7.51,9.73c-3.86,0-7-3.14-7-7,0-3.52,2.61-6.44,6-6.93V13.43l1.34-.49,6.51-2.37c.1,.47,.15,.95,.15,1.43,0,3.86-3.14,7-7,7Z" fill="#2f3541"/><path d="M13,4.07v6.5l6.11-2.22c-1.18-2.3-3.44-3.95-6.11-4.28Zm1,1.23c1.44,.43,2.71,1.32,3.61,2.53l-3.61,1.31v-3.84Z" fill="#2f3541"/></g></svg>