<?xml version="1.0" encoding="UTF-8"?><svg id="a" xmlns="http://www.w3.org/2000/svg" viewBox="0 0 24 24"><rect x="0" y="0" width="24" height="24" fill="none"/><path d="M22,12l-4-1-2-6H6l-1,6-3,1v4h2.03c.13,1.12,1.07,2,2.22,2s2.1-.88,2.22-2h6.55c.13,1.12,1.07,2,2.22,2s2.1-.88,2.22-2h2.53v-4ZM11,6h4.28l1.67,5h-5.95V6Zm-4.15,0h3.15v5h-3.99l.83-5Zm-.6,11c-.69,0-1.25-.56-1.25-1.25s.56-1.25,1.25-1.25,1.25,.56,1.25,1.25-.56,1.25-1.25,1.25Zm11,0c-.69,0-1.25-.56-1.25-1.25s.56-1.25,1.25-1.25,1.25,.56,1.25,1.25-.56,1.25-1.25,1.25Zm3.75-2h-1.64c-.31-.87-1.13-1.5-2.11-1.5s-1.8,.63-2.11,1.5h-6.78c-.31-.87-1.13-1.5-2.11-1.5s-1.8,.63-2.11,1.5h-1.14v-2.28l2.16-.72h12.71l3.12,.78v2.22Z" fill="#2f3541"/></svg>