<?xml version="1.0" encoding="UTF-8"?><svg id="a" xmlns="http://www.w3.org/2000/svg" viewBox="0 0 24 24"><rect y="0" width="24" height="24" fill="none"/><path d="M12,5c1.62,0,3.14,.6,4.28,1.68,1.11,1.06,1.72,2.46,1.72,3.94,0,1.48-.61,2.88-1.72,3.94l-.04,.04-.04,.04-4.2,4.45-4.2-4.45-.04-.04-.04-.04c-1.11-1.06-1.72-2.46-1.72-3.94,0-1.48,.61-2.88,1.72-3.94,1.14-1.08,2.66-1.68,4.28-1.68m0-2c-2.05,0-4.09,.74-5.66,2.23-3.12,2.98-3.12,7.8,0,10.77l5.66,6,5.66-6c3.12-2.97,3.12-7.8,0-10.77-1.56-1.49-3.61-2.23-5.66-2.23h0Zm0,7c.55,0,1,.45,1,1s-.45,1-1,1-1-.45-1-1,.45-1,1-1m0-2c-1.66,0-3,1.34-3,3s1.34,3,3,3,3-1.34,3-3-1.34-3-3-3h0Z" fill="#2f3541"/></svg>