<?xml version="1.0" encoding="UTF-8"?><svg id="a" xmlns="http://www.w3.org/2000/svg" viewBox="0 0 24 24"><rect y="0" width="24" height="24" fill="none"/><path d="M12.03,5.64c.79,2.36,1.51,2.36,1.97,2.36,.61,0,1.89-.57,3.33-1.33-.76,1.44-1.33,2.72-1.33,3.33,0,.39,0,1.2,2.73,2.62-1.01,.47-1.73,1.23-1.73,2.38,0,.62,.21,1.29,.52,1.95-.33-.09-.64-.15-.93-.15-.66,0-1.07,.27-1.3,.5-.51,.51-1,1.4-1.39,2.24-1.46-2.44-2.89-2.66-3.36-2.66-.34,0-.68,.08-.99,.24-.53,.26-1.17,.7-1.83,1.21,.82-2.19,.23-2.77-.02-3.03-.46-.46-1.23-.91-1.99-1.27,1.17-.64,2.29-1.61,2.29-3.02,0-.75-.38-1.64-.91-2.53,.91,.41,1.78,.69,2.41,.69s1-.25,1.21-.45c.5-.5,.95-1.72,1.33-3.07m-.03-4.64s-1,6-2,7c-.11,.11-.28,.16-.5,.16-1.76,0-6.5-3.16-6.5-3.16,0,0,4,4,4,6s-4,3-4,3c0,0,3,1,4,2s-3,7-3,7c0,0,4-4,6-5,.18-.09,.36-.13,.54-.13,1.8,0,3.46,4.13,3.46,4.13,0,0,1-3,2-4,.14-.14,.35-.2,.59-.2,1.47,0,4.41,2.2,4.41,2.2,0,0-3-3-3-5s4-2,4-2c0,0-5-2-5-3s3-6,3-6c0,0-5,3-6,3S12,1,12,1h0Z" fill="#fff"/></svg>