<?xml version="1.0" encoding="UTF-8"?><svg id="a" xmlns="http://www.w3.org/2000/svg" viewBox="0 0 24 24"><path id="c" d="M16.05,5c2.18,0,3.95,1.94,3.95,4.33,0,3.85-5.37,7.9-7.99,9.5-2.63-1.67-8.01-5.88-8.01-9.75,0-2.17,1.84-4.08,3.95-4.08,1.27,0,2.47,.68,3.21,1.82l.84,1.28,.84-1.28c.74-1.14,1.94-1.82,3.21-1.82m0-1c-1.68,0-3.16,.9-4.05,2.27-.9-1.37-2.37-2.27-4.05-2.27-2.66,0-4.95,2.38-4.95,5.08,0,5.61,9,10.92,9,10.92,0,0,9-5.06,9-10.67,0-2.92-2.22-5.33-4.95-5.33h0Z" fill="#2f3541"/><rect x="0" width="24" height="24" transform="translate(24 24) rotate(180)" fill="none"/></svg>