<?xml version="1.0" encoding="UTF-8"?><svg id="a" xmlns="http://www.w3.org/2000/svg" xmlns:xlink="http://www.w3.org/1999/xlink" viewBox="0 0 48 48"><defs><linearGradient id="b" x1="21.3" y1="30.34" x2="40.68" y2="30.34" gradientTransform="matrix(1, 0, 0, 1, 0, 0)" gradientUnits="userSpaceOnUse"><stop offset="0" stop-color="#2f3541" stop-opacity=".6"/><stop offset="1" stop-color="#2f3541" stop-opacity="0"/></linearGradient><linearGradient id="c" x1="24.33" y1="20.09" x2="28.44" y2="28.05" gradientTransform="matrix(1, 0, 0, 1, 0, 0)" gradientUnits="userSpaceOnUse"><stop offset="0" stop-color="#f84"/><stop offset="1" stop-color="#f49"/></linearGradient><linearGradient id="d" x1="23.18" y1="15.84" x2="26.57" y2="22.79" xlink:href="#c"/></defs><g><polyline points="44 30.5 24 20.5 4 30.5 24 40.5 44 30.5 44 30.5" fill="#f2f6ff"/><polygon points="24 40.5 24 42.5 4 32.5 4 30.5 24 40.5" fill="#fff" opacity=".2"/><polygon points="24 40.5 24 42.5 44 32.5 44 30.5 24 40.5" fill="#2f3541"/></g><path d="M44,30.5l-10.28-5.14c-7.92-.6-15.32,.29-15.82,3.24-.5,2.99,8.21,4.91,16.09,6.9l10-5Z" fill="url(#b)" opacity=".4"/><rect x="12" y="9.2" width="24" height="24" transform="translate(48 42.4) rotate(180)" fill="none"/><path d="M23.91,26.35l2.39,4.15-1.52,1.12-2.39-4.15,1.51-1.12Zm-.51,1.61l1.39,2.42,.51-.38-1.39-2.42-.51,.38" fill="#2f3541"/><path d="M24.24,22.41c-.02,3.29-2.19,4.9-4.85,3.6s-4.8-5.01-4.78-8.3c.02-3.28,2.19-4.89,4.84-3.59,2.66,1.3,4.8,5.01,4.79,8.29Zm-4.85,2.73c2.27,1.11,4.12-.27,4.14-3.07,.02-2.79-1.81-5.97-4.08-7.07s-4.12,.27-4.13,3.07c-.02,2.8,1.81,5.97,4.08,7.08" fill="#2f3541"/><polyline points="23.4 27.96 24.79 30.39 25.3 30.01 23.91 27.59 23.4 27.96" fill="#fff3f8"/><path d="M19.39,25.13c2.27,1.11,4.12-.27,4.14-3.07,.02-2.79-1.81-5.97-4.08-7.07s-4.12,.27-4.13,3.07c-.02,2.8,1.81,5.97,4.08,7.08" fill="#fff3f8"/><rect x="0" y="0" width="48" height="48" fill="none"/><g><polygon points="23.91 26.35 29.56 23.63 31.95 27.78 26.31 30.5 23.91 26.35" fill="url(#c)" opacity=".8"/><polygon points="26.31 30.5 31.95 27.78 30.43 28.9 24.79 31.62 26.31 30.5" fill="#f49" opacity=".8"/><path d="M29.88,19.42c0-.08,0-.17-.01-.25,0-.09-.01-.17-.02-.26,0-.09-.02-.17-.03-.26,0-.07-.02-.13-.03-.2v-.08c-.03-.09-.04-.19-.06-.28-.02-.1-.04-.2-.06-.3-.02-.11-.05-.22-.08-.32-.02-.09-.05-.17-.07-.26v-.03s-.02-.04-.02-.05c-.04-.13-.08-.26-.13-.39-.05-.16-.11-.32-.18-.48-.03-.07-.06-.13-.09-.2-.03-.07-.06-.13-.08-.19-.04-.1-.08-.2-.13-.3-.1-.21-.22-.42-.33-.63-.03-.06-.06-.12-.09-.17-.17-.29-.35-.58-.54-.85-.03-.05-.07-.09-.1-.13-.03-.05-.07-.09-.11-.14-.07-.09-.14-.19-.21-.28-.1-.13-.21-.25-.32-.37-.07-.07-.13-.14-.2-.21l-.03-.03s-.03-.03-.05-.05c-.08-.08-.16-.16-.25-.24-.08-.07-.15-.14-.23-.2-.07-.06-.15-.12-.22-.18-.04-.03-.09-.07-.13-.1l-.02-.02s-.04-.03-.06-.04c-.07-.05-.14-.1-.21-.14-.07-.04-.14-.09-.2-.13-.07-.04-.13-.08-.2-.12-.07-.04-.13-.07-.2-.11-.03-.02-.06-.03-.09-.04-.04-.02-.07-.04-.11-.05-.07-.03-.13-.06-.2-.09-.07-.03-.13-.05-.2-.08-.07-.02-.13-.05-.2-.07-.03-.01-.07-.02-.1-.03h-.02s-.05-.02-.08-.03c-.07-.02-.14-.03-.21-.05-.07-.01-.15-.03-.22-.04-.07,0-.15-.02-.22-.02h-.06c-.06,0-.12,0-.18,0-.09,0-.18,0-.26,.01-.09,0-.17,.02-.25,.04h-.04c-.12,.03-.24,.06-.36,.1-.09,.03-.18,.07-.27,.11l-5.65,2.73c.2-.1,.42-.17,.65-.21h.02c.22-.04,.45-.06,.7-.05h.02c.24,.01,.5,.06,.76,.13h.03c.26,.08,.53,.18,.81,.32,.33,.16,.65,.36,.96,.59l.02,.02c.3,.23,.6,.48,.88,.77l.03,.03c.26,.26,.5,.55,.73,.85,.04,.05,.07,.09,.11,.14,.23,.31,.45,.64,.65,.98,.03,.06,.06,.12,.09,.17,.17,.3,.32,.61,.46,.92,.03,.06,.06,.13,.08,.19,.15,.37,.29,.74,.4,1.12v.03c.13,.41,.22,.81,.28,1.22v.02c.06,.41,.1,.83,.09,1.23,0,.23-.01,.46-.04,.67v.02c-.02,.21-.06,.41-.1,.6v.05c-.05,.18-.1,.35-.16,.52v.05c-.07,.16-.13,.3-.2,.45-.01,.03-.03,.06-.04,.08-.08,.15-.16,.29-.25,.42h0c-.13,.19-.28,.34-.44,.49-.04,.04-.08,.07-.12,.1-.16,.13-.34,.25-.52,.34l5.65-2.73c.19-.09,.36-.21,.52-.34,.04-.03,.08-.07,.12-.1,.16-.15,.31-.3,.44-.49,.08-.11,.15-.22,.21-.34,.01-.02,.02-.05,.03-.07,.01-.03,.03-.05,.04-.08,.02-.05,.05-.09,.07-.14,.04-.09,.07-.18,.11-.27v-.04l.03-.04c.02-.06,.04-.11,.06-.17,.02-.08,.05-.16,.07-.25,0-.03,.01-.07,.02-.1v-.05s.02-.06,.03-.09c.02-.08,.03-.16,.04-.24,.01-.08,.02-.16,.03-.24v-.05c.01-.06,.02-.13,.02-.19,0-.08,.01-.16,.01-.24,0-.08,0-.16,0-.23h0c0-.1,0-.18,0-.26Z" fill="url(#d)" opacity=".8"/></g></svg>