<?xml version="1.0" encoding="UTF-8"?><svg id="a" xmlns="http://www.w3.org/2000/svg" viewBox="0 0 24 24"><rect y="0" width="24" height="24" fill="none"/><rect y="0" width="24" height="24" fill="none"/><g><path d="M16,5V13.5c-.62,.46-1,1.2-1,1.99s.38,1.53,1,1.99v1.51H8v-1.51c.62-.46,1-1.2,1-1.99s-.38-1.53-1-1.99V5h8m1-1H7V14.09c.58,.21,1,.76,1,1.41s-.42,1.2-1,1.41v3.1h10v-3.1c-.58-.21-1-.76-1-1.41s.42-1.2,1-1.41V4h0Z" fill="#fff"/><circle cx="12" cy="15.5" r=".5" fill="#fff"/><circle cx="14" cy="15.5" r=".5" fill="#fff"/><circle cx="10" cy="15.5" r=".5" fill="#fff"/></g></svg>