<?xml version="1.0" encoding="UTF-8"?><svg id="a" xmlns="http://www.w3.org/2000/svg" viewBox="0 0 24 24"><path d="M8.75,13c1.32,0,2.68,.93,3.25,2.2v.63c-.36,.97-1.03,1.6-2.15,2-.31,.11-.64,.17-.98,.17-.59,0-1.21-.16-1.86-.48-.36-.18-.71-.39-1.08-.61-.31-.19-.63-.38-.95-.55-.38-.2-.75-.36-1.12-.47,1.14-1.33,2.73-2.58,4.47-2.85,.15-.02,.29-.03,.44-.03m0-1c-.2,0-.4,.02-.6,.05-2.56,.4-4.85,2.55-6.15,4.67,.16-.03,.32-.04,.47-.04,.73,0,1.43,.25,2.02,.56,.7,.37,1.35,.83,2.07,1.18,.71,.35,1.5,.58,2.31,.58,.44,0,.89-.07,1.32-.23,1.23-.45,2.3-1.23,2.81-2.77v-1c-.64-1.67-2.39-3-4.25-3h0Zm-3.48-7c1.2,0,2.28,.21,3.12,.61,1.17,.55,1.67,1.98,1.59,2.92l-.12,.12c-.58,.22-.99,.35-1.4,.35-.21,0-.43-.04-.68-.11-.8-.24-1.73-1.11-2.23-1.85-.18-.27-.34-.55-.51-.85-.15-.26-.29-.52-.46-.78-.08-.12-.17-.25-.27-.37,.32-.03,.63-.04,.95-.04m0-1c-1.18,0-2.33,.19-3.28,.47,.72,.34,1.4,.91,1.75,1.47,.35,.55,.62,1.12,.98,1.66,.56,.83,1.65,1.92,2.77,2.25,.35,.1,.66,.15,.96,.15,.65,0,1.22-.21,1.96-.49l.5-.5c.33-1.4-.42-3.5-2.09-4.3-1.06-.51-2.32-.71-3.55-.71h0Zm15.79,1.07c-.1,.24-.19,.5-.27,.77-.09,.32-.17,.65-.25,.97-.09,.38-.17,.74-.29,1.09-.3,.94-1.01,2.18-1.84,2.71-.53,.33-.87,.4-1.28,.4-.22,0-.47-.02-.76-.05l-.64-.63c-.47-1.01-.29-2.59,.85-3.6,1.25-1.1,3.04-1.51,4.48-1.66m1.38-1.07c-2.15,0-4.77,.43-6.52,1.97-1.54,1.35-1.78,3.52-1.01,4.95l1.01,.99c.47,.05,.85,.09,1.21,.09,.61,0,1.13-.12,1.81-.55,1.09-.69,1.92-2.18,2.26-3.25,.22-.69,.34-1.39,.54-2.08,.21-.71,.58-1.53,1.24-2.11-.18,0-.36,0-.55,0h0Zm-6.95,11c-.15-.51-.34-.98-.54-1.42,0-.16,0-.34,.04-.58,.14-.8,.5-1,.5-1l-.5-.5s-.22,.13-.5,.5c-.08,.11-.16,.24-.22,.36-1.26-1.92-2.78-2.86-2.78-2.86l-.5,.5s2.62,1.31,3.5,5c.03,.11,.04,.22,.05,.32-.09-.04-.2-.07-.3-.09-.39-.06-.75,0-.75,0v.71s.38,.1,.75,.35c.15,.1,.27,.21,.38,.3-.18,2.99-2.63,5.4-2.63,5.4h2s2.39-3.98,1.5-7Z" fill="#fff"/><rect x="0" width="24" height="24" fill="none"/></svg>