<?xml version="1.0" encoding="UTF-8"?><svg id="a" xmlns="http://www.w3.org/2000/svg" viewBox="0 0 24 24"><rect id="c" width="24" height="24" fill="none"/><path d="M21,20V9h-7v-3.23L4,3V20H2v1H22v-1h-1ZM10,9v3h-2v-3h2Zm-2-1v-2.85l2,.55v2.3h-2Zm2,5v3h-2v-3h2Zm1,0h2v3h-2v-3Zm5,5v-1l1-.5v-1l-1,.5v-2h2v6h-2v-1l1-.5v-1l-1,.5Zm4-8v10h-1v-7h-4v7h-1V10h6Zm-7,2h-2v-3h2v3Zm0-4h-2v-2.02l2,.55v1.47ZM5,4.31l2,.55v3.13h-2v-3.69Zm0,4.69h2v3h-2v-3Zm0,4h2v3h-2v-3Zm0,7v-3h2v3h-2Zm3,0v-3h2v3h-2Zm3-3h2v3h-2v-3Z" fill="#2f3541"/></svg>