<?xml version="1.0" encoding="UTF-8"?><svg id="icon" xmlns="http://www.w3.org/2000/svg" width="36" height="36" xmlns:xlink="http://www.w3.org/1999/xlink" viewBox="0 0 36 36"><defs><linearGradient id="Unbenannter_Verlauf_4" x1="24.0483" y1="21.3222" x2="14.7788" y2="27.3419" gradientUnits="userSpaceOnUse"><stop offset="0" stop-color="#00ceae"/><stop offset="1" stop-color="#26f"/></linearGradient><linearGradient id="Unbenannter_Verlauf_4-2" x1="21.8908" y1="29.7949" x2="15.3611" y2="23.9156" xlink:href="#Unbenannter_Verlauf_4"/><linearGradient id="Unbenannter_Verlauf_22" x1="14.4079" y1="13.2783" x2="19.7781" y2="22.5797" gradientUnits="userSpaceOnUse"><stop offset="0" stop-color="#26f"/><stop offset="1" stop-color="#ff4495"/></linearGradient><linearGradient id="Unbenannter_Verlauf_22-2" x1="9.072" y1="22.5" x2="26.568" y2="22.5" xlink:href="#Unbenannter_Verlauf_22"/><linearGradient id="Unbenannter_Verlauf_21" x1="12.6118" y1="2.9174" x2="20.6671" y2="16.8696" gradientUnits="userSpaceOnUse"><stop offset="0" stop-color="#ff4495"/><stop offset="1" stop-color="#ff8444"/></linearGradient><linearGradient id="Unbenannter_Verlauf_21-2" x1="4.5" y1="16.375" x2="31.041" y2="16.375" xlink:href="#Unbenannter_Verlauf_21"/></defs><rect id="Rechteck_40905" width="36" height="36" fill="none"/><rect id="Rechteck_40906" width="36" height="36" fill="none"/><rect id="Rechteck_40904" width="36" height="36" fill="none"/><path d="M18,23c2.4853,0,4.5,1.0074,4.5,2.25s-2.0147,2.25-4.5,2.25-4.5-1.0074-4.5-2.25,2.0147-2.25,4.5-2.25Z" fill="url(#Unbenannter_Verlauf_4)" isolation="isolate" opacity=".6"/><path d="M13.5,25.25c0,1.242,2.014,2.25,4.5,2.25s4.5-1.008,4.5-2.25v1.5c0,1.242-2.015,2.25-4.5,2.25s-4.5-1.008-4.5-2.25v-1.5Z" fill="url(#Unbenannter_Verlauf_4-2)"/><path d="M18,15c4.9706,0,9,2.0147,9,4.5s-4.0294,4.5-9,4.5-9-2.0147-9-4.5,4.0294-4.5,9-4.5Z" fill="url(#Unbenannter_Verlauf_22)" isolation="isolate" opacity=".6"/><path d="M9,19.5c0,2.486,4.029,4.5,9,4.5s9-2.014,9-4.5v1.5c0,2.486-4.029,4.5-9,4.5s-9-2.014-9-4.5v-1.5Z" fill="url(#Unbenannter_Verlauf_22-2)"/><path d="M18,5.5c7.4558,0,13.5,3.0221,13.5,6.75s-6.0442,6.75-13.5,6.75-13.5-3.0221-13.5-6.75,6.0442-6.75,13.5-6.75Z" fill="url(#Unbenannter_Verlauf_21)" isolation="isolate" opacity=".6"/><path d="M4.5,12.25c0,3.727,6.043,6.75,13.5,6.75s13.5-3.023,13.5-6.75v1.5c0,3.727-6.043,6.75-13.5,6.75s-13.5-3.023-13.5-6.75v-1.5Z" fill="url(#Unbenannter_Verlauf_21-2)"/></svg>