<?xml version="1.0" encoding="UTF-8"?><svg id="a" xmlns="http://www.w3.org/2000/svg" viewBox="0 0 24 24"><rect y="0" width="24" height="24" fill="none"/><g><polygon points="2 2 2 7 3 7 3 3.71 4.65 5.35 5.35 4.65 3.71 3 7 3 7 2 2 2" fill="#fff"/><polygon points="17 2 17 3 20.29 3 18.65 4.65 19.35 5.35 21 3.71 21 7 22 7 22 2 17 2" fill="#fff"/><polygon points="21 20.29 19.35 18.65 18.65 19.35 20.29 21 17 21 17 22 22 22 22 17 21 17 21 20.29" fill="#fff"/><polygon points="5.35 19.35 4.65 18.65 3 20.29 3 17 2 17 2 22 7 22 7 21 3.71 21 5.35 19.35" fill="#fff"/></g></svg>