<?xml version="1.0" encoding="UTF-8"?><svg id="a" xmlns="http://www.w3.org/2000/svg" viewBox="0 0 24 24"><g><path d="M14,10.02h1c0-.07-.01-.66-.39-1.27-.31-.5-.93-1.08-2.11-1.21v-1.55h-1v1.56c-2.22,.21-2.5,1.76-2.5,2.46,0,1.71,1.34,2.15,2.5,2.41v3.05c-1.43-.22-1.5-1.32-1.5-1.45h-1s0,.96,.71,1.68c.44,.44,1.04,.7,1.79,.78v1.52h1v-1.53c2.14-.2,2.5-1.59,2.5-2.46,0-1.71-1.34-2.15-2.5-2.41v-3.05c1.42,.22,1.5,1.32,1.5,1.46Zm-4,0c0-.87,.49-1.36,1.5-1.47v2.85c-1.03-.25-1.5-.54-1.5-1.38Zm4,4c0,.62-.19,1.33-1.5,1.47v-2.85c1.03,.25,1.5,.54,1.5,1.38Z" fill="#2f3541"/><path d="M12,3C7.03,3,3,7.03,3,12s4.03,9,9,9,9-4.03,9-9S16.97,3,12,3Zm0,17c-4.41,0-8-3.59-8-8S7.59,4,12,4s8,3.59,8,8-3.59,8-8,8Z" fill="#2f3541"/></g><rect y="0" width="24" height="24" fill="none"/></svg>