<?xml version="1.0" encoding="UTF-8"?><svg id="a" xmlns="http://www.w3.org/2000/svg" viewBox="0 0 24 24"><rect width="24" height="24" fill="none"/><g><g><g><path d="M5.13,14.36V4.13h13.73V14.36c0,4.33-3.91,6.51-6.87,6.51-3.19,0-6.86-2.17-6.86-6.51" fill="#c2172e"/><path d="M13.08,7.97c.96,.04,1.78-.71,1.82-1.68h0c-.04-.97-.85-1.72-1.81-1.68-.96-.04-1.77,.71-1.81,1.68,.04,.97,.85,1.72,1.81,1.68" fill="#f2db38"/><path d="M16.03,10.92c-.17-.62-.37-1.17-.58-1.81-.07-.26-.17-.51-.29-.74-.03-.06-.08-.11-.14-.14-.29-.16-.58-.29-.86-.47-.2-.13-.37-.29-.53-.47,.37-.17,.64-.49,.64-.97,0-.72-.66-1.23-1.34-1.16-.58,.06-1.04,.52-1.1,1.11,0,.49,.28,.91,.71,1.09l-.3,.57c-.24,.37-.54,.69-.89,.96-.49,.31-1.03,.53-1.6,.67-.3,.08-.61,.12-.91,.13l.09,.88h2.41l-.63,7.81h2.38l-1.1-5.93,.13-.04,1.17,5.94h1.21s.09,.06,0,.15c-.58,.49-.89,.66-.72,.91,.17,.25,.58-.06,1.9-.71-.13-.5-.94-7.07-.94-7.07h1c.08,0,.15-.04,.22-.09,.19-.16,.12-.41,.06-.62Z" fill="#171714"/><path d="M13.69,6.53c.02,.2,0,.4-.05,.59-.06,.29-.57,.25-.89,.25-.08-.04-.13-.04-.22-.25-.13-.36-.16-.75-.09-1.13,.12-.2,.65-.25,1.04-.18s.17,.52,.2,.72" fill="#fff"/><path d="M12.92,6.25s-.05,.45,0,.59h.24v.09c-.11,.01-.22,.01-.33,0-.02-.19-.02-.39,0-.59-.06-.16-.3,.05-.32-.08s.38-.1,.41-.01Z" fill="#171714"/></g><polygon points="13.52 7.96 13.6 7.28 13.4 7.74 12.75 7.74 12.58 7.31 12.66 7.96 13.52 7.96" fill="#fff"/><g><path d="M13.33,6.53s.07-.03,.07-.07-.03-.07-.07-.07-.07,.03-.07,.07,.03,.07,.07,.07" fill="#171714"/><path d="M12.66,6.53s.07-.03,.07-.07-.03-.07-.07-.07-.07,.03-.07,.07,.03,.07,.07,.07" fill="#171714"/></g><g><path d="M8.97,19.16l-1.16-10.15c.14-.08,.24-.2,.22-.33-.02-.13-.13-.22-.29-.27l-.33-2.93c.16-.08,.26-.22,.24-.35-.03-.21-.29-.35-.58-.3-.29,.04-.52,.23-.5,.44,.02,.15,.16,.25,.34,.29l.36,2.88c-.2,.07-.32,.22-.3,.38,.02,.15,.17,.26,.38,.29l1.25,10.12,.37-.05Z" fill="#f2db38"/><path d="M11.31,19.24c.14,0,.26-.12,.26-.26h0v-.49h-.88c-.09,.11-.22,.18-.37,.2-.24,.04-.67,.04-.67,.04-.14,.02-.24,.16-.22,.3,.02,.11,.11,.2,.22,.22h1.65Z" fill="#171714"/><path d="M13.12,6.26c.05,.06,.19-.05,.23-.05s.2,.11,.25,.06-.1-.14-.26-.15-.27,.09-.23,.13" fill="#171714"/><path d="M13.2,7.18s.05-.03,.05-.06c0-.03-.02-.05-.05-.05h-.33s-.05,.02-.05,.05h0s.02,.06,.05,.06h.33Z" fill="#171714"/><path d="M8.9,10.56l-.07-.9h-1.6c0,.09,.06,.16,.15,.16-.04,.02-.07,.06-.07,.11,0,.04,.02,.08,.06,.1-.02,.02-.04,.05-.04,.09,0,.05,.03,.09,.06,.1-.03,.02-.05,.05-.05,.08,0,.04,.02,.07,.06,.09,0,.02-.02,.03-.02,.05h0c0,.05,.04,.1,.09,.1h1.42Z" fill="#fff"/><path d="M8.87,9.61h-1.69v.04c0,.09,.06,.15,.14,.18-.02,.03-.04,.06-.03,.1s.02,.09,.05,.12c-.01,.02-.03,.05-.03,.08,0,.05,.02,.08,.04,.11-.01,.02-.03,.05-.02,.07,0,.04,.02,.08,.05,.11-.03,.05,0,.1,.02,.13,.02,.03,.06,.04,.09,.04l1.46,.02-.08-1Zm-.91,.33s-.02,.04-.03,.05c0,0-.53-.01-.54,0-.02-.01-.04-.03-.04-.06s.02-.06,.05-.07h.5s.05,.03,.05,.08Zm.02,.12s.03,.04,.03,.06c0,.02,0,.04-.02,.06,0,0-.56,0-.57,0-.02-.01-.04-.03-.04-.07,0-.02,0-.04,.02-.06,0,0,.55,0,.58,0Zm.02,.19s.02,.04,.02,.07c0,0-.01,.04-.02,.05h-.57s-.03-.02-.03-.05,.02-.03,.02-.05c0,0,.56,0,.57-.01Zm-.5,.28s-.05-.03-.05-.06,.02-.04,.02-.04h.57s.02,.04,.02,.05c0,.05-.04,.05-.06,.05h-.5Zm.6,0s.03-.05,.03-.07c0-.01-.01-.06-.05-.09,0-.02,.03-.04,.03-.06,0-.05-.02-.08-.04-.1,.01-.03,.03-.05,.03-.08,0-.06-.03-.1-.07-.13,.01-.02,.02-.03,.02-.05,0-.01,0-.02,0-.03,.02,0,.04,.01,.05,.02,.04,.05,.15,.23,.18,.29l.05,.04v-.07s-.12-.25-.17-.32c-.06-.05-.14-.08-.23-.1h-.54c-.05,0-.1-.04-.11-.09h1.53l.07,.84h-.77Z" fill="#171714"/></g><rect x="12.57" y="9.48" width="1.59" height="1.09" fill="#f2db38"/><rect x="12.26" y="9.48" width=".23" height="1.09" fill="#f2db38"/><rect x="12.04" y="9.48" width=".16" height="1.09" fill="#f2db38"/><g><path d="M13.27,10.61h-1.06s-.09,.02-.09,.07c0,.05,.01,.09,.01,.09-.1,0-.1-.21-.22-.16-.04,.02-.06,.08-.03,.12,0,0,.07,.21,.22,.21h.22s-.38-.06-.34,.1c0,.05,.04,.09,.09,.08h0s-.05,.03-.05,.07h0s.04,.09,.09,.08h.14v.02h-.12s-.09,.04-.09,.09h0s.05,.07,.09,.06h1.23l-.12-.83Z" fill="#fff"/><path d="M12.11,11.12h.4v-.05h-.41s-.08,0-.08-.05c0-.05,.06-.06,.08-.06h.39v-.05h-.39s-.08,0-.12-.05c-.04-.05-.08-.14-.08-.14-.02-.03,0-.08,.02-.09,.03-.01,.07,0,.08,.03,0,.03,.05,.14,.12,.14h.36v-.05h-.35s-.07-.07-.08-.11c-.03-.06-.09-.09-.15-.06-.16,.1,.07,.73,.21,.73h.4v-.05h-.4s-.07-.03-.07-.07c0-.02,0-.04,.02-.05,.01-.01,.03-.02,.04-.02Z" fill="#171714"/></g></g><path d="M11.99,21c-1.95,0-3.89-.78-5.19-2.1-1.18-1.19-1.81-2.77-1.8-4.56V4h14V14.34c0,4.54-4.18,6.66-7.01,6.66ZM5.42,4.42V14.34c0,1.68,.58,3.15,1.68,4.26,1.22,1.24,3.05,1.98,4.89,1.98,2.66,0,6.59-1.98,6.59-6.24V4.42H5.42Z" fill="#171714"/></g></svg>