<?xml version="1.0" encoding="UTF-8"?><svg id="a" xmlns="http://www.w3.org/2000/svg" viewBox="0 0 24 24"><rect width="24" height="24" fill="none"/><rect width="24" height="24" fill="none"/><g><circle cx="12" cy="15.5" r=".5" fill="#fff"/><circle cx="14" cy="15.5" r=".5" fill="#fff"/><circle cx="10" cy="15.5" r=".5" fill="#fff"/><polygon points="19 8 18 7 16 9 14 7 13 8 15 10 13 12 14 13 16 11 18 13 19 12 17 10 19 8" fill="#fff"/><path d="M16,13.5c-.62,.46-1,1.2-1,1.99s.38,1.53,1,1.99v1.51H8v-1.51c.62-.46,1-1.2,1-1.99s-.38-1.53-1-1.99V5h8v2.58l1-1v-2.58H7V14.09c.58,.21,1,.76,1,1.41s-.42,1.2-1,1.41v3.1h10v-3.1c-.58-.21-1-.76-1-1.41s.42-1.2,1-1.41v-.67l-1-1v1.09Z" fill="#fff"/></g></svg>