<?xml version="1.0" encoding="UTF-8"?><svg id="c" xmlns="http://www.w3.org/2000/svg" xmlns:xlink="http://www.w3.org/1999/xlink" viewBox="0 0 48 48"><defs><linearGradient id="a" x1="29.42" y1="30.57" x2="41.87" y2="30.57" gradientTransform="matrix(1, 0, 0, 1, 0, 0)" gradientUnits="userSpaceOnUse"><stop offset="0" stop-color="#2f3541" stop-opacity=".4"/><stop offset="1" stop-color="#2f3541" stop-opacity="0"/></linearGradient><linearGradient id="e" x1="13.16" y1="26.48" x2="15.14" y2="29.39" gradientTransform="matrix(1, 0, 0, 1, 0, 0)" gradientUnits="userSpaceOnUse"><stop offset="0" stop-color="#00d2b2"/><stop offset="1" stop-color="#26f"/></linearGradient><linearGradient id="f" x1="16.37" y1="13.95" x2="20.3" y2="18.99" xlink:href="#e"/><linearGradient id="g" x1="17.83" y1="19.01" x2="18.54" y2="20.36" xlink:href="#e"/><linearGradient id="h" x1="19.26" y1="14" x2="21.08" y2="17.87" xlink:href="#e"/><linearGradient id="i" x1="20.84" y1="21.4" x2="22.04" y2="23.6" xlink:href="#e"/><linearGradient id="j" x1="21.79" y1="14.61" x2="23.84" y2="19.81" xlink:href="#e"/><linearGradient id="k" x1="28.17" y1="29.89" x2="29.92" y2="33.38" xlink:href="#e"/><linearGradient id="l" x1="20.97" y1="11.09" x2="28.11" y2="24.62" gradientTransform="matrix(1, 0, 0, 1, 0, 0)" gradientUnits="userSpaceOnUse"><stop offset=".33" stop-color="#00d2b2"/><stop offset=".96" stop-color="#26f"/></linearGradient><linearGradient id="m" x1="30.05" y1="17.47" x2="30.05" y2="33.12" xlink:href="#e"/><linearGradient id="n" x1="28.67" y1="17.47" x2="28.67" y2="33.12" xlink:href="#e"/></defs><g><polyline points="44 30.5 24 20.5 4 30.5 24 40.5 44 30.5 44 30.5" fill="#f2f6ff"/><polygon points="24 40.5 24 42.5 4 32.5 4 30.5 24 40.5" fill="#fff" opacity=".2"/><polygon points="24 40.5 24 42.5 44 32.5 44 30.5 24 40.5" fill="#2f3541"/></g><polygon points="44 30.5 34 35.44 27.22 34.81 32.87 32.09 32.87 31.21 31.45 30.52 31.48 25.69 40.18 28.59 44 30.5" fill="url(#a)"/><rect width="48" height="48" fill="none"/><g><polygon points="19.59 17.94 19.37 17.83 18.88 20.56 19.97 21.54 19.59 17.94" fill="#fff3f8"/><polygon points="16.76 16.56 16.54 16.45 16.23 18.17 17 18.87 16.76 16.56" fill="#fff3f8"/><polygon points="14.48 27.72 21.56 31.18 21.6 23.94 14.53 17.57 14.48 27.72" fill="#fff3f8"/><polygon points="25.16 21.53 25.17 20.66 22.33 19.28 22.31 23.65 22.27 31.52 25.1 32.9 25.11 31.15 22.99 30.12 22.99 29.25 25.11 30.28 25.12 29.4 22.99 28.36 23 27.49 25.12 28.53 25.13 27.65 23 26.62 23.01 25.74 25.13 26.78 25.14 25.91 23.01 24.87 23.02 24 25.14 25.03 25.15 24.16 23.02 23.12 23.03 22.25 25.15 23.28 25.16 22.41 23.03 21.38 23.04 20.49 25.16 21.53" fill="#fff3f8"/></g><rect id="d" x="11" y="12" width="24" height="24" fill="none"/><polygon points="13.77 27.38 13.78 26.68 13.06 27.03 13.77 27.38 13.77 27.38" fill="url(#e)" opacity=".8"/><g opacity=".8"><polygon points="15.97 15.29 17.38 15.98 17.45 16.64 21.2 14.84 19.48 13.28 13.83 16.01 15.55 17.56 15.97 15.29" fill="url(#f)"/><polygon points="17.75 19.54 18.2 19.95 18.33 19.26 17.75 19.54 17.75 19.54" fill="url(#g)"/><polygon points="17.75 19.54 18.33 19.26 18.8 16.67 20.22 17.37 20.31 18.3 23.4 16.82 23.03 13.26 17.38 15.98 17.57 17.76 17.75 19.54" fill="url(#h)"/><polygon points="21.61 21.79 20.72 22.22 21.61 23.02 21.61 21.79" fill="url(#i)"/><polygon points="20.22 17.37 20.72 22.22 21.61 21.79 21.63 18.06 25.47 19.93 26.37 19.5 25.86 14.64 20.22 17.37 20.22 17.37" fill="url(#j)"/><polygon points="25.81 33.25 31.45 30.52 32.87 31.21 27.23 33.94 25.81 33.25" fill="url(#k)"/><path d="M23.03,13.26l-5.65,2.73-1.42-.69,5.65-2.73,1.42,.69Zm1.42,.69l-5.65,2.73,1.42,.69,5.65-2.73-1.42-.69Zm2.84,1.38l-5.65,2.73,4.25,2.07,5.65-2.73-4.25-2.07Z" fill="url(#l)"/><g><polygon points="27.23 33.94 27.22 34.81 32.87 32.09 32.88 31.21 27.23 33.94" fill="url(#m)"/><polygon points="31.52 17.4 25.88 20.13 25.81 33.25 31.45 30.52 31.52 17.4" fill="url(#n)"/></g></g><g><polygon points="18.74 27.17 18.03 26.83 18.04 25.95 17.33 25.6 17.32 27.36 18.73 28.05 18.74 27.17" fill="#2f3541"/><polygon points="18.75 24.54 18.05 24.2 18.05 23.32 17.34 22.98 17.33 24.73 18.75 25.42 18.75 24.54" fill="#2f3541"/><polygon points="20.87 28.21 20.16 27.87 20.16 26.98 19.45 26.64 19.44 28.39 20.86 29.08 20.87 28.21" fill="#2f3541"/><polygon points="20.88 25.58 20.17 25.24 20.18 24.36 19.46 24.02 19.46 25.76 20.88 26.46 20.88 25.58" fill="#2f3541"/><path d="M25.81,33.25l.07-13.12-4.25-2.07-.03,4.96-.88-.79-.5-4.85-1.42-.69-.59,3.28-.45-.41-.37-3.56-1.42-.69-.42,2.27-1.72-1.56-.06,11.37-.71-.35v.87l.71,.35,7.79,3.8,.71,.35,3.54,1.73,1.42,.69v-.87l-1.42-.69Zm-6.44-15.42l.22,.11,.38,3.6-1.09-.98,.49-2.73Zm-2.83-1.38l.22,.11,.24,2.31-.77-.7,.31-1.72Zm5.02,14.73l-7.08-3.45,.06-10.15,7.07,6.37-.04,7.24Zm3.6-9.65l-2.12-1.04v.88l2.12,1.04v.87l-2.13-1.04v.87l2.12,1.04v.87l-2.13-1.04v.87l2.12,1.04v.87l-2.13-1.04v.87l2.12,1.04v.87l-2.13-1.04v.87l2.12,1.04v.88l-2.13-1.04v.87l2.12,1.04v1.75l-2.84-1.38,.04-7.87,.02-4.38,2.83,1.38v.87Z" fill="#2f3541"/><polygon points="16.62 26.14 15.91 25.79 15.91 24.91 15.21 24.57 15.2 26.32 16.61 27.01 16.62 26.14" fill="#2f3541"/><polygon points="16.63 23.51 15.92 23.16 15.93 22.29 15.22 21.94 15.21 23.69 16.63 24.38 16.63 23.51" fill="#2f3541"/></g></svg>