<?xml version="1.0" encoding="UTF-8"?><svg id="a" xmlns="http://www.w3.org/2000/svg" viewBox="0 0 24 24"><rect y="0" width="24" height="24" fill="none"/><rect y="0" width="24" height="24" fill="none"/><path d="M17.5,6H7.5c-1.93,0-3.5,1.57-3.5,3.5v6c0,1.93,1.57,3.5,3.5,3.5h9c.9,0,1.69-.48,2.13-1.2,1.38-.47,2.37-1.76,2.37-3.3v-5c0-1.93-1.57-3.5-3.5-3.5Zm2.5,8.5c0,.81-.4,1.53-1,1.99v-1.49l1-1v.5Zm0-1.5l-1,1h-3v-1h3l1-1v1Zm0-2l-1,1v-1.5c0-1.38-1.12-2.5-2.5-2.5H8c-.28,0-.5,.22-.5,.5s.22,.5,.5,.5h8.5c.83,0,1.5,.67,1.5,1.5v1.5h-1.5c-.83,0-1.5,.67-1.5,1.5s.67,1.5,1.5,1.5h1.5v1.5c0,.83-.67,1.5-1.5,1.5H7.5c-1.38,0-2.5-1.12-2.5-2.5v-6c0-1.38,1.12-2.5,2.5-2.5h10c1.38,0,2.5,1.12,2.5,2.5v1.5Z" fill="#2f3541"/></svg>