<?xml version="1.0" encoding="UTF-8"?><svg id="a" xmlns="http://www.w3.org/2000/svg" viewBox="0 0 24 24"><rect y="0" width="24" height="24" fill="none"/><g><path d="M12.03,3l-3,2.99-.03,15.99,8.97,.02,3-2.99,.03-15.99-8.97-.02Zm.41,1h6.86l-2,2.01h-6.86l2-2.01Zm-2.44,16.99l.03-13.99h6.98l-.03,14.01h-6.98Zm7.98-.41l.03-13.87,2-2-.03,13.87-2,2Zm-5.96-9.59h-1v-2h1v2Zm1.99,0h-1v-2h1v2Zm1.99,0h-1v-2h1v2Zm-4,3.99h-1v-2h1v2Zm1.99,0h-1v-2h1v2Zm1.99,0h-1v-2h1v2Zm-4,3.99h-1v-2h1v2Zm1.99,0h-1v-2h1v2Zm1.99,0h-1v-2h1v2Z" fill="#fff"/><g><path d="M2.99,8.99h1c0-1.65,1.35-3,3-2.99v-1c-2.2,0-4,1.78-4,3.99Z" fill="#fff"/><path d="M6.99,8v-1c-1.1,0-2,.89-2,2h1c0-.55,.45-1,1-1Z" fill="#fff"/><path d="M7,3v1c-2.74,0-4.97,2.26-5,4.99H1c.03-3.29,2.71-6,6-5.99Z" fill="#fff"/></g></g></svg>