<?xml version="1.0" encoding="UTF-8"?><svg id="a" xmlns="http://www.w3.org/2000/svg" xmlns:xlink="http://www.w3.org/1999/xlink" viewBox="0 0 48 48"><defs><linearGradient id="b" x1="26.61" y1="30.83" x2="41.46" y2="30.83" gradientTransform="matrix(1, 0, 0, 1, 0, 0)" gradientUnits="userSpaceOnUse"><stop offset="0" stop-color="#2f3541" stop-opacity=".4"/><stop offset="1" stop-color="#2f3541" stop-opacity="0"/></linearGradient><linearGradient id="c" x1="18.51" y1="30.61" x2="23.93" y2="30.61" xlink:href="#b"/><linearGradient id="d" x1="14.33" y1="14.06" x2="20.2" y2="25.66" gradientTransform="matrix(1, 0, 0, 1, 0, 0)" gradientUnits="userSpaceOnUse"><stop offset="0" stop-color="#f49"/><stop offset="1" stop-color="#26f"/></linearGradient><linearGradient id="e" x1="13" y1="13.13" x2="18.12" y2="22.19" xlink:href="#d"/><linearGradient id="f" x1="24.64" y1="12.25" x2="29.18" y2="22.95" xlink:href="#d"/><linearGradient id="g" x1="21.18" y1="14.77" x2="26.06" y2="25.25" xlink:href="#d"/><linearGradient id="h" x1="20.58" y1="8.84" x2="25.7" y2="17.91" xlink:href="#d"/><linearGradient id="i" x1="26.8" y1="11.34" x2="31.33" y2="22.04" xlink:href="#d"/><linearGradient id="j" x1="23.48" y1="13.7" x2="28.36" y2="24.18" xlink:href="#d"/><linearGradient id="k" x1="23.95" y1="15.15" x2="28.91" y2="24.83" xlink:href="#d"/><linearGradient id="l" x1="22" y1="15.28" x2="22" y2="22.28" xlink:href="#d"/><linearGradient id="m" x1="21.72" y1="10.32" x2="27.59" y2="21.92" xlink:href="#d"/><linearGradient id="n" x1="18.97" y1="17.7" x2="23.94" y2="27.38" xlink:href="#d"/><linearGradient id="o" x1="16.74" y1="12.84" x2="22.61" y2="24.44" xlink:href="#d"/><linearGradient id="p" x1="19.51" y1="14.43" x2="24.04" y2="25.13" xlink:href="#d"/><linearGradient id="q" x1="15.72" y1="11.59" x2="20.84" y2="20.66" xlink:href="#d"/><linearGradient id="r" x1="26.89" y1="13.64" x2="31.86" y2="23.32" xlink:href="#d"/><linearGradient id="s" x1="21.66" y1="13.52" x2="26.19" y2="24.21" xlink:href="#d"/><linearGradient id="t" x1="21.92" y1="16.19" x2="26.88" y2="25.87" xlink:href="#d"/></defs><g><polyline points="44 30.5 24 20.5 4 30.5 24 40.5 44 30.5 44 30.5" fill="#f2f6ff"/><polygon points="24 40.5 24 42.5 4 32.5 4 30.5 24 40.5" fill="#fff" opacity=".2"/><polygon points="24 40.5 24 42.5 44 32.5 44 30.5 24 40.5" fill="#2f3541"/></g><rect x="12" y="11.26" width="24" height="24" fill="none"/><polygon points="44 30.5 34.7 25.76 33 25.76 33 28.76 29 30.76 28 30.26 28 31.26 24 33.26 33.2 35.9 44 30.5" fill="url(#b)"/><polygon points="19 30.76 20 30.23 20 30.99 19 30.76" fill="url(#c)"/><rect width="48" height="48" fill="none"/><g><polygon points="28 21.26 24 19.26 20 21.26 24 23.26 28 21.26" fill="#0948c7" opacity=".8"/><polygon points="22.98 23.74 23 23.73 23 24.76 24 24.26 25 24.76 25 23.76 28 22.26 28 21.28 24 23.28 20 21.28 20 22.26 22.98 23.74" fill="#0948c7" opacity=".8"/></g><g><polygon points="19 25.73 19 30.76 23 28.73 23 23.73 19 25.73" fill="url(#d)" opacity=".8"/><polyline points="23 23.76 19 21.76 15 23.76 19 25.76 23 23.76 23 23.76" fill="url(#e)" opacity=".8"/><polygon points="29 25.76 29 30.76 33 28.76 33 23.76 29 25.76" fill="url(#f)" opacity=".8"/><polygon points="29 25.76 29 30.76 25 28.76 25 23.76 29 25.76" fill="url(#g)" opacity=".8"/><polyline points="33 23.76 29 21.76 25 23.76 29 25.76 33 23.76 33 23.76" fill="url(#h)" opacity=".8"/><polygon points="29 19.76 29 24.76 33 22.76 33 17.76 29 19.76" fill="url(#i)" opacity=".8"/><polygon points="29 19.76 29 24.76 25 22.76 25 17.76 29 19.76" fill="url(#j)" opacity=".8"/><polyline points="28 15.26 24 13.26 20 15.26 24 17.26 28 15.26 28 15.26" fill="url(#k)" opacity=".8"/><polygon points="24 17.28 24 22.28 20 20.28 20 15.28 24 17.28" fill="url(#l)" opacity=".8"/><polygon points="24 17.28 24 22.28 28 20.28 28 15.28 24 17.28" fill="url(#m)" opacity=".8"/><polyline points="23 17.76 19 15.76 15 17.76 19 19.76 23 17.76 23 17.76" fill="url(#n)" opacity=".8"/><polygon points="19 19.76 19 24.76 23 22.76 23 17.76 19 19.76" fill="url(#o)" opacity=".8"/><polygon points="24 28.26 24 33.26 28 31.26 28 26.26 24 28.26" fill="url(#p)" opacity=".8"/><polyline points="28 26.26 24 24.26 20 26.26 24 28.26 28 26.26 28 26.26" fill="url(#q)" opacity=".8"/><polyline points="33 17.76 29 15.76 25 17.76 29 19.76 33 17.76 33 17.76" fill="url(#r)" opacity=".8"/><polygon points="24 22.26 24 27.26 28 25.26 28 20.26 24 22.26" fill="url(#s)" opacity=".8"/><polyline points="28 20.26 24 18.26 20 20.26 24 22.26 28 20.26 28 20.26" fill="url(#t)" opacity=".8"/></g><g><g><path d="M15,28.76l4,2v-5l-4-2v5Zm1-3.38l2,1v2.76l-2-1v-2.76Z" fill="#2f3541"/><path d="M15,22.76l4,2v-5l-4-2v5Zm1-3.38l2,1v2.76l-2-1v-2.76Z" fill="#2f3541"/><path d="M20,31.26l4,2v-5l-4-2v5Zm1-3.38l2,1v2.76l-2-1v-2.76Z" fill="#2f3541"/><path d="M20,20.26v5l4,2v-5l-4-2Zm3,5.38l-2-1v-2.76l2,1v2.76Z" fill="#2f3541"/></g><polygon points="16 25.37 18 26.37 18 29.14 16 28.14 16 25.37" fill="#fff3f8"/><polygon points="16 19.37 18 20.37 18 23.14 16 22.14 16 19.37" fill="#fff3f8"/><polygon points="21 27.87 23 28.87 23 31.64 21 30.64 21 27.87" fill="#fff3f8"/><polygon points="23 25.64 21 24.64 21 21.87 23 22.87 23 25.64" fill="#fff3f8"/></g></svg>