<?xml version="1.0" encoding="UTF-8"?><svg id="a" xmlns="http://www.w3.org/2000/svg" viewBox="0 0 24 24"><rect y="0" width="24" height="24" fill="none"/><g><path d="M6.41,9.91c.18-.33,.41-.64,.68-.9h-.09c-.55,0-1-.44-1-.99,0-.55,.44-1,.99-1.01,.55,0,1,.44,1,.99,0,.13-.02,.26-.07,.39,.34-.19,.7-.31,1.08-.38,0-1.1-.88-2-1.98-2.01-1.1,0-2,.88-2.01,1.99,0,.88,.57,1.66,1.41,1.92Z" fill="#2f3541"/><polygon points="10.04 21 11.03 21 12.03 18 11.03 18 10.04 21" fill="#2f3541"/><polygon points="7.04 21 8.04 21 9.04 18 8.04 18 7.04 21" fill="#2f3541"/><polygon points="13.03 21 14.03 21 15.02 18 14.03 18 13.03 21" fill="#2f3541"/><path d="M19.02,9.13c-.19-2.34-2.15-4.14-4.49-4.13-2.32-.02-4.27,1.74-4.49,4.06-.09-.02-.18-.04-.27-.05-1.35-.15-2.57,.82-2.73,2.18-.35-.13-.72-.2-1.1-.19-1.65,.03-2.97,1.39-2.94,3.05,.03,1.66,1.39,2.98,3.04,2.95h11.98c1.81,0,3.39-1.23,3.85-2.99,.56-2.14-.72-4.32-2.85-4.88Zm-1,6.87H6.04c-1.1,0-2-.9-2-2s.89-2,2-2c.23,0,.46,.06,.67,.14l1.18,.43,.15-1.25c0-.09,.02-.17,.04-.26,.2-.79,1-1.26,1.78-1.06l1.06,.28,.11-1.12c.17-1.8,1.69-3.18,3.49-3.16,1.83-.02,3.36,1.38,3.49,3.21v.72l.72,.17c1.3,.34,2.21,1.51,2.23,2.85,.03,1.66-1.29,3.02-2.95,3.05Z" fill="#2f3541"/><polygon points="16.02 21 17.02 21 18.02 18 17.02 18 16.02 21" fill="#2f3541"/><rect x="6.5" y="4" width="1" height="1" fill="#2f3541"/><rect x="3" y="7.5" width="1" height="1" fill="#2f3541"/><polygon points="10.21 5.5 9.5 4.79 8.79 5.5 9.5 6.21 10.21 5.5" fill="#2f3541"/><polygon points="5.21 5.5 4.5 4.79 3.79 5.5 4.5 6.21 5.21 5.5" fill="#2f3541"/><path d="M3.87,10.47l.09,.09c.31-.19,.64-.33,.99-.42l-.37-.37-.71,.71Z" fill="#2f3541"/></g></svg>