<?xml version="1.0" encoding="UTF-8"?><svg id="a" xmlns="http://www.w3.org/2000/svg" viewBox="0 0 24 24"><rect width="24" height="24" fill="none"/><g><path d="M20,15c-.32,0-.61,.1-.85,.27l-3.06-1.53c.26-.53,.41-1.11,.41-1.74,0-1.05-.42-2.01-1.08-2.72l2.23-2.68c.39,.25,.85,.4,1.35,.4,1.38,0,2.5-1.12,2.5-2.5s-1.12-2.5-2.5-2.5-2.5,1.12-2.5,2.5c0,.52,.16,1,.43,1.4l-2.28,2.73c-.62-.4-1.36-.64-2.15-.64-.66,0-1.28,.18-1.83,.46l-1.45-1.45c.18-.3,.28-.64,.28-1.01,0-1.1-.9-2-2-2s-2,.9-2,2,.9,2,2,2c.37,0,.71-.11,1.01-.28l1.32,1.32c-.81,.73-1.33,1.78-1.33,2.96,0,.28,.03,.56,.09,.83l-3.69,1.48c-.25-.19-.56-.3-.9-.3-.83,0-1.5,.67-1.5,1.5s.67,1.5,1.5,1.5,1.5-.67,1.5-1.5c0-.12-.02-.23-.04-.34l3.47-1.39c.58,1.17,1.72,2.01,3.07,2.18v1.1c-1.14,.23-2,1.24-2,2.45,0,1.38,1.12,2.5,2.5,2.5s2.5-1.12,2.5-2.5c0-1.21-.86-2.22-2-2.45v-1.1c1.02-.13,1.91-.63,2.54-1.37l3.03,1.51c-.04,.13-.06,.27-.06,.41,0,.83,.67,1.5,1.5,1.5s1.5-.67,1.5-1.5-.67-1.5-1.5-1.5ZM6.5,6c0-.55,.45-1,1-1s1,.45,1,1-.45,1-1,1-1-.45-1-1Zm-2.5,10c-.28,0-.5-.22-.5-.5s.22-.5,.5-.5,.5,.22,.5,.5-.22,.5-.5,.5ZM19,3c.83,0,1.5,.67,1.5,1.5s-.67,1.5-1.5,1.5-1.5-.67-1.5-1.5,.67-1.5,1.5-1.5Zm-5,16.5c0,.83-.67,1.5-1.5,1.5s-1.5-.67-1.5-1.5,.67-1.5,1.5-1.5,1.5,.67,1.5,1.5Zm-1.5-4.5c-1.65,0-3-1.35-3-3s1.35-3,3-3,3,1.35,3,3-1.35,3-3,3Zm7.5,2c-.28,0-.5-.22-.5-.5s.22-.5,.5-.5,.5,.22,.5,.5-.22,.5-.5,.5Z" fill="#2f3541"/><path d="M14.75,11.75l-2,2.25h-.5l-2-2.25,.75-1.25h3l.75,1.25Zm-1.45-.75l.45,.75h.38l.02-.03-.43-.72h-.42Zm-.8,2.29l.47-1.04h-.95l.47,1.04Zm-.22-2.29l-.45,.75h1.33l-.45-.75h-.43Zm-1.43,.72l.02,.03h.38l.45-.75h-.42l-.43,.72Zm1.04,1.43l-.41-.9h-.25l.65,.9Zm1.23,0l.65-.9h-.25l-.41,.9Z" fill="#2f3541"/></g></svg>