<?xml version="1.0" encoding="UTF-8"?><svg id="a" xmlns="http://www.w3.org/2000/svg" viewBox="0 0 24 24"><g><path d="M13,19.5H5.06c.33-2.94,2.1-5.49,4.55-6.52,.77,.34,1.57,.52,2.39,.52s1.62-.17,2.39-.52c1.39,.58,2.55,1.66,3.36,3.02h1.15c-1-1.94-2.62-3.44-4.57-4.11-.7,.37-1.49,.61-2.34,.61s-1.64-.23-2.34-.61c-3.28,1.13-5.66,4.55-5.66,8.61H13v-1Z" fill="#fff"/><path d="M12,11.5c2.21,0,4-1.79,4-4s-1.79-4-4-4-4,1.79-4,4,1.79,4,4,4Zm0-7c1.65,0,3,1.35,3,3s-1.35,3-3,3-3-1.35-3-3,1.35-3,3-3Z" fill="#fff"/></g><path d="M17.77,18c.35,.6,.99,1,1.73,1,.6,0,1.13-.26,1.5-.68v2.36c-.37-.42-.9-.68-1.5-.68-.74,0-1.39,.4-1.73,1h-2.77v-3h2.77m4.23-1h-1.5c0,.55-.45,1-1,1s-1-.45-1-1h-4.5v5h4.5c0-.55,.45-1,1-1s1,.45,1,1h1.5v-5h0Z" fill="#fff"/><rect width="24" height="24" fill="none"/></svg>