<?xml version="1.0" encoding="UTF-8"?><svg id="icon" xmlns="http://www.w3.org/2000/svg" width="24" height="24" viewBox="0 0 24 24"><rect id="Rectangle_10877" width="24" height="24" fill="none"/><g><path d="M23,8.9902H1v-.559S12,2.9316,12,2.9316l11,5.4996v.559ZM4.1182,7.9902h15.7637l-7.8818-3.9414-7.8818,3.9414Z" fill="#2f3541"/><rect x="2" y="20" width="20" height="1" fill="#2f3541"/><rect x="3" y="18" width="18" height="1" fill="#2f3541"/><path d="M7,17h-3v-7h3v7Zm-2-1h1v-5h-1v5Z" fill="#2f3541"/><path d="M20,17h-3v-7h3v7Zm-2-1h1v-5h-1v5Z" fill="#2f3541"/><path d="M13.5,17h-3v-7h3v7Zm-2-1h1v-5h-1v5Z" fill="#2f3541"/></g></svg>