<?xml version="1.0" encoding="UTF-8"?><svg id="a" xmlns="http://www.w3.org/2000/svg" viewBox="0 0 24 24"><rect width="24" height="24" fill="none"/><g><g><path d="M18.77,4.25H5.26V14.34c0,3.52,3.03,6.41,6.75,6.41s6.75-2.87,6.75-6.41V4.25Z" fill="#fff"/><rect x="5.23" y="4.26" width="13.5" height="7.86" fill="#c2172e"/><polygon points="11.43 4.66 11.43 5.2 10.15 5.2 10.15 5.82 9.74 5.82 9.74 5.2 8.16 5.2 8.16 6.27 9.32 6.27 9.32 6.74 8.16 6.74 8.16 7.82 9.74 7.82 9.74 7.19 10.15 7.19 10.15 7.82 10.77 7.82 10.77 8.24 10.15 8.24 10.15 8.86 9.74 8.86 9.74 8.24 8.16 8.24 8.16 9.32 9.32 9.32 9.32 9.78 8.16 9.78 8.16 10.86 9.74 10.86 9.74 10.24 10.15 10.24 10.15 10.86 11.43 10.86 11.43 12.51 12.5 12.51 12.5 4.66 11.43 4.66" fill="#fff"/><path d="M16.01,14.59c-.47-.92-1.8-1.28-2.76-.71-.12,.08-.22,.16-.3,.23,.3-.76,.16-1.02-.41-1.09h.26c.1,0,.18-.08,.18-.18,0-.02-.01-.05-.01-.05,.12-.02,.18-.13,.18-.25,0-.17-.22-.18-.22-.18,.01-.03,.07-.25-.12-.25h-1.65c-.21,0-.2,.23-.19,.26-.11,.03-.18,.13-.16,.24,.02,.09,.09,.16,.18,.18,0,0,0,.03,0,.05,0,.1,.08,.18,.18,.18h.23c-.53,.09-.64,.38-.34,1.13-.09-.09-.2-.18-.35-.27-.96-.57-2.28-.14-2.83,.83-.55,.97,.23,2.41,.49,2.63,.26,.22,.49,.34,.69,.4-.09,.08-.15,.2-.15,.33,0,.25,.21,.45,.47,.45,.18,0,.32-.12,.39-.27,.02,1.06,.72,1.92,2.13,1.92s2.33-.66,2.29-1.75c0-.07-.01-.13-.02-.19,.06,.16,.22,.28,.4,.29,.25,0,.46-.2,.47-.45,0-.18-.11-.34-.26-.41,.17-.03,.35-.08,.57-.18,1.02-.45,1.13-1.97,.66-2.89Zm-6.23,3.38c-.03-.11-.09-.21-.18-.27,.28-.15,.43-.48,.46-.77,.04,.09,.11,.16,.2,.2-.22,.11-.41,.36-.48,.83Zm4.36,.06c-.09-.55-.32-.8-.58-.89,.11-.03,.21-.11,.27-.21,0,.31,.16,.65,.57,.73-.14,.07-.24,.2-.26,.36Zm.78-.99c-.79,.42-.88-.26-.88-.59-.07,.02-.12,.1-.16,.18-.04-.21-.21-.38-.43-.38-.25,0-.46,.19-.47,.45,0,.18,.1,.34,.25,.42-.35,.05-.65,.32-.61,.53,.29-.17,.94-.42,.94,.47-.05,.76-.48,1.3-1.66,1.3-.78,0-1.45-.49-1.53-1.25,0-.9,.65-.74,.94-.57,.03-.19-.23-.44-.56-.51,.1-.09,.17-.21,.16-.36,0-.25-.22-.45-.47-.45-.2,0-.37,.15-.42,.34-.03-.08-.07-.15-.13-.17,0,.33-.09,1.01-.88,.59-.54-.39-.69-1.17-.45-1.81,.01-.04,.53-1.38,1.94-.76,.79,.43,.24,.87-.05,1.03,.18,.14,.62-.02,.82-.34,.03,.35,.31,.62,.67,.62,.37,0,.68-.3,.68-.68,.14,.34,.66,.56,.86,.4-.3-.16-.84-.6-.05-1.03,.87-.36,1.4-.26,1.94,.76,.34,.64,.17,1.44-.45,1.81Z" fill="#c2172e"/></g><path d="M11.99,21c-1.95,0-3.89-.78-5.19-2.1-1.18-1.19-1.81-2.77-1.8-4.56V4h14V14.34c0,4.54-4.18,6.66-7.01,6.66ZM5.42,4.42V14.34c0,1.68,.58,3.15,1.68,4.26,1.22,1.24,3.05,1.98,4.89,1.98,2.66,0,6.59-1.98,6.59-6.24V4.42H5.42Z" fill="#171714"/></g></svg>