<?xml version="1.0" encoding="UTF-8"?><svg id="a" xmlns="http://www.w3.org/2000/svg" viewBox="0 0 24 24"><rect width="24" height="24" fill="none"/><g><g><path d="M18.78,4.23H5.22V14.36c0,3.52,2.67,6.41,6.8,6.41,3.73,0,6.75-2.87,6.75-6.41V4.23Z" fill="#c2172e"/><path d="M17.73,6.08v-.87h-1.58v.77h-.64v-.77h-1.43v.77h-.87v-1.14h-1.06v6.82h-.39V4.84h-1.07v1.14h-.87v-.77h-1.43v.77h-.64v-.77h-1.58v.87h.58v.7h-.58v.88h1.58v-.77h.64v.77h.85v.68h-.85v.77h-.64v-.77h-1.58v.87h.58v.7h-.58v.87h1.58v-.77h.64v.77h1.43v-.76h.87v1.64c-.4,0-.29,.42-.29,.42-.21,0-.37,.17-.37,.38,0,.21,.37,.37,.37,.37-.02,.37,.31,.4,.31,.4,0,.05,0,.09,0,.15,0,.45-.47,.22-.47,.22-.44-.41-1.01-.65-1.61-.68-1.32-.05-2.48,1.12-2.48,2.32,.03,1.33,1.13,2.38,2.44,2.35,1.13,0,1.7-.59,1.7-.59-.25,.34-.39,.75-.38,1.17,0,1.12,.9,2.03,2.02,2.03,1.11,0,2.02-.91,2.02-2.03,0-.42-.12-.83-.37-1.17,0,0,1.08,.59,1.68,.59,1.32,.04,2.47-1.11,2.47-2.33s-1.15-2.38-2.47-2.33c-.6,0-1.53,.5-1.63,.59s-.4,.23-.37-.28c.16-.01,.29-.15,.25-.4,.2,0,.37-.17,.37-.37,0-.21-.17-.37-.37-.37,.01-.04,.08-.42-.29-.42v-1.64h.87v.76h1.43v-.77h.64v.77h1.58v-.87h-.58v-.7h.58v-.87h-1.58v.77h-.64v-.77h-.85v-.68h.85v-.77h.64v.77h1.58v-.88h-.58v-.7h.58Zm-3.55,8.17c.33-.19,.7-.3,1.08-.33h0c.75-.03,1.41,.53,1.41,1.34s-.67,1.33-1.42,1.3c-.38-.03-.75-.14-1.08-.33-.38-.3-.9-.34-1.32-.11-.74,.72,.1,1.55,.1,2.06,0,.56-.45,1.01-1.01,1.01-.56,0-1.01-.45-1.01-1.01,0-.78,.88-1.38,.1-2.06-.42-.24-.94-.2-1.32,.11-.34,.19-.71,.3-1.09,.33-.75,.03-1.38-.55-1.41-1.3,.03-.75,.66-1.34,1.41-1.31,.38,.03,.75,.14,1.09,.33,.36,.31,.85,.42,1.32,.31,.21-.07,.57-.17,.64-.56,.05-.26,.06-.55,.06-.8h.54c.01,.23,.03,.49,.08,.73,.04,.28,.24,.51,.51,.59,.46,.12,.95,0,1.32-.3Z" fill="#fff"/></g><path d="M11.99,21c-1.95,0-3.89-.78-5.19-2.1-1.18-1.19-1.81-2.77-1.8-4.56V4h14V14.34c0,4.54-4.18,6.66-7.01,6.66ZM5.42,4.42V14.34c0,1.68,.58,3.15,1.68,4.26,1.22,1.24,3.05,1.98,4.89,1.98,2.66,0,6.59-1.98,6.59-6.24V4.42H5.42Z" fill="#171714"/></g></svg>