<?xml version="1.0" encoding="UTF-8"?><svg id="a" xmlns="http://www.w3.org/2000/svg" viewBox="0 0 24 24"><rect y="0" width="24" height="24" fill="none"/><rect y="0" width="24" height="24" fill="none"/><g opacity=".2"><g isolation="isolate"><polygon points="12.28 19.38 17.93 16.66 18.34 17.38 12.7 20.1 12.28 19.38" fill="#2f3541"/><polygon points="2.12 5.66 7.77 2.93 9.85 3.95 7.09 6.33 7.08 7.2 12.74 9.95 12.04 10.5 2.12 5.66" fill="#2f3541"/><polygon points="12.04 10.5 12.74 9.95 12.7 18.07 12 18.37 12.04 10.5" fill="#2f3541"/><polygon points="16.27 15.94 16.25 18.69 13.42 17.31 13.39 22.56 19.04 19.83 19.07 14.58 16.27 15.94" fill="#2f3541"/><polygon points="16.3 9.95 21.95 7.22 21.9 15.96 16.25 18.69 16.3 9.95" fill="#2f3541"/><g><polygon points="12.7 20.1 12.7 19.18 12.28 19.38 12.7 20.1" fill="none"/><polygon points="12.7 19.18 12.71 18.21 11.28 18.9 12.28 19.38 12.7 19.18" fill="#2f3541"/><polygon points="12.7 20.1 12.28 19.38 11.28 18.9 13.39 22.56 13.41 18.84 12.7 19.18 12.7 20.1" fill="#2f3541"/></g><polygon points="6.39 5.11 12.03 2.39 21.95 7.22 16.3 9.95 6.39 5.11" fill="#2f3541"/></g></g><path d="M12.04,10.5l-.04,7.87-2.84-1.38-4.27,3.18,.03-5.25-2.84-1.38,.04-7.87,9.92,4.84Zm-.75,6.65l.03-6.12L2.82,6.88l-.03,6.12,2.84,1.38-.02,4.01,3.27-2.43,2.42,1.18" fill="#2f3541"/><polygon points="6.39 5.11 16.3 9.95 16.25 18.69 13.42 17.31 13.39 22.56 11.28 18.9 12.28 19.38 12.7 20.1 12.72 16.09 15.55 17.47 15.59 10.48 7.09 6.33 7.08 7.2 6.38 6.86 6.39 5.11" fill="#2f3541"/><g><polygon points="4.89 20.16 10.31 17.54 9.16 16.98 4.89 20.16" fill="#2f3541" opacity=".2"/><polygon points="12.01 15.92 12.01 16.34 12.01 16.34 12.01 15.92" fill="#2f3541"/></g></svg>