<?xml version="1.0" encoding="UTF-8"?><svg id="a" xmlns="http://www.w3.org/2000/svg" viewBox="0 0 24 24"><path d="M22,12c0-2.21-1.79-4-4-4h-3v-.07c0-1.06-.86-1.93-1.93-1.93H3.93c-1.06,0-1.93,.86-1.93,1.93v9.07h1.21c.39,.88,1.26,1.5,2.29,1.5s1.9-.62,2.29-1.5h7.42c.39,.88,1.26,1.5,2.29,1.5s1.9-.62,2.29-1.5h2.21v-5ZM5.5,17.5c-.83,0-1.5-.67-1.5-1.5s.67-1.5,1.5-1.5,1.5,.67,1.5,1.5-.67,1.5-1.5,1.5Zm8.5-1.5h-6c0-1.38-1.12-2.5-2.5-2.5s-2.5,1.12-2.5,2.5V7.93c0-.51,.42-.93,.93-.93H13.07c.51,0,.93,.42,.93,.93v8.07Zm3.5,1.5c-.83,0-1.5-.67-1.5-1.5s.67-1.5,1.5-1.5,1.5,.67,1.5,1.5-.67,1.5-1.5,1.5Zm3.5-1.5h-1c0-1.38-1.12-2.5-2.5-2.5s-2.5,1.12-2.5,2.5v-7h3c1.65,0,3,1.35,3,3v4Z" fill="#2f3541"/><rect x="0" y="0" width="24" height="24" fill="none"/></svg>