<?xml version="1.0" encoding="UTF-8"?><svg id="a" xmlns="http://www.w3.org/2000/svg" viewBox="0 0 24 24"><g><g><path d="M4,8h1c0-1.65,1.35-3,3-3v-1c-2.21,0-4,1.79-4,4Z" fill="#fff"/><path d="M8,7v-1c-1.1,0-2,.9-2,2h1c0-.55,.45-1,1-1Z" fill="#fff"/><path d="M8,2v1c-2.74,0-4.97,2.27-5,5h-1c.03-3.29,2.7-6,6-6Z" fill="#fff"/></g><g><rect x="4" y="18" width="1" height="2" fill="#fff"/><rect x="8" y="18" width="1" height="2" fill="#fff"/><rect x="6" y="18" width="1" height="2" fill="#fff"/><rect x="4" y="15" width="1" height="2" fill="#fff"/><rect x="8" y="15" width="1" height="2" fill="#fff"/><rect x="6" y="15" width="1" height="2" fill="#fff"/><path d="M11,10H5l-3,3v9H11l3-3V10h-3Zm-5.59,1h6.88l-2,2H3.41l2-2Zm4.59,10H3v-7h7v7Zm3-3v.59l-2,2v-6.88l2-2v6.29Z" fill="#fff"/><path d="M19,14h-3l-2,2v6h6l2-2v-6h-3Zm0,7h-4v-4h4v4Zm.29-5h-3.88l1-1h3.88l-1,1Zm1.71,3.59l-1,1v-3.88l1-1v3.88Z" fill="#fff"/><rect x="16" y="20" width="2" height="1" fill="#fff"/><rect x="16" y="18" width="2" height="1" fill="#fff"/><path d="M11,6h5V14h1V5.71l1-1V14h1V3h-7l-2,2v5h1V6Zm1.41-2h4.88l-1,1h-4.88l1-1Z" fill="#fff"/><rect x="14" y="7" width="1" height="1" fill="#fff"/><rect x="14" y="9" width="1" height="1" fill="#fff"/><rect x="12" y="9" width="1" height="1" fill="#fff"/><rect x="14" y="11" width="1" height="1" fill="#fff"/><rect x="14" y="13" width="1" height="1" fill="#fff"/><rect x="12" y="7" width="1" height="1" fill="#fff"/></g></g><rect x="0" y="0" width="24" height="24" fill="none"/></svg>