<?xml version="1.0" encoding="UTF-8"?><svg id="a" xmlns="http://www.w3.org/2000/svg" viewBox="0 0 24 24"><path d="M19,8.5l-2-1.5v-1l2-1.5,2,1.5,1-1-3-2-2.18,1.46c-.18-.27-.47-.46-.82-.46h-2c-.55,0-1,.45-1,1h-3.35c-.56-1.18-1.76-2-3.15-2-1.93,0-3.5,1.57-3.5,3.5,0,.82,.29,1.58,.76,2.17,.09,.11,.24,.33,.24,.33l5.4,8h-3.4c-.55,0-1,.45-1,1v3h13v-3c0-.55-.45-1-1-1h-3.6l-5.11-7.51c.59-.35,1.06-.87,1.36-1.49h3.35c0,.55,.45,1,1,1h2c.35,0,.64-.19,.82-.46l2.18,1.46,3-2-1-1-2,1.5Zm-2,9.5v2H6v-2h11ZM7.43,10l4.8,7h-1.67l-4.8-7h1.67Zm-.93-1c-1.38,0-2.5-1.12-2.5-2.5s1.12-2.5,2.5-2.5,2.5,1.12,2.5,2.5-1.12,2.5-2.5,2.5Zm3.5-2v-1h3v1h-3Zm4,1v-3h2v3h-2Z" fill="#2f3541"/><rect width="24" height="24" fill="none"/><path d="M19,8.5l-2-1.5v-1l2-1.5,2,1.5,1-1-3-2-2.18,1.46c-.18-.27-.47-.46-.82-.46h-2c-.55,0-1,.45-1,1h-3.35c-.56-1.18-1.76-2-3.15-2-1.93,0-3.5,1.57-3.5,3.5,0,.82,.29,1.58,.76,2.17,.09,.11,.24,.33,.24,.33l5.4,8h-3.4c-.55,0-1,.45-1,1v3h13v-3c0-.55-.45-1-1-1h-3.6l-5.11-7.51c.59-.35,1.06-.87,1.36-1.49h3.35c0,.55,.45,1,1,1h2c.35,0,.64-.19,.82-.46l2.18,1.46,3-2-1-1-2,1.5Zm-2,9.5v2H6v-2h11ZM7.43,10l4.8,7h-1.67l-4.8-7h1.67Zm-.93-1c-1.38,0-2.5-1.12-2.5-2.5s1.12-2.5,2.5-2.5,2.5,1.12,2.5,2.5-1.12,2.5-2.5,2.5Zm3.5-2v-1h3v1h-3Zm4,1v-3h2v3h-2Z" fill="#2f3541"/><rect width="24" height="24" fill="none"/></svg>