<?xml version="1.0" encoding="UTF-8"?><svg id="a" xmlns="http://www.w3.org/2000/svg" xmlns:xlink="http://www.w3.org/1999/xlink" viewBox="0 0 24 24"><defs><linearGradient id="c" x1="12" y1="2" x2="12" y2="8" gradientTransform="matrix(1, 0, 0, 1, 0, 0)" gradientUnits="userSpaceOnUse"><stop offset="0" stop-color="#fff"/><stop offset=".15" stop-color="#fbfbfb"/><stop offset=".29" stop-color="#efefef"/><stop offset=".43" stop-color="#dcdcdc"/><stop offset=".56" stop-color="#c2c2c2"/><stop offset=".7" stop-color="#9f9f9f"/><stop offset=".83" stop-color="#757575"/><stop offset=".96" stop-color="#444"/><stop offset="1" stop-color="#333"/></linearGradient></defs><g opacity=".4"><rect x="5" y="2" width="14" height="6" fill="url(#c)"/></g><g><path d="M19,21V8H5v13H2v1H22v-1h-3ZM6,9h12v12H6V9Z" fill="#2f3541"/><rect x="7" y="14" width="1" height="2" fill="#2f3541"/><rect x="10" y="14" width="1" height="2" fill="#2f3541"/><rect x="13" y="14" width="1" height="2" fill="#2f3541"/><rect x="7" y="10" width="1" height="2" fill="#2f3541"/><rect x="10" y="10" width="1" height="2" fill="#2f3541"/><rect x="13" y="10" width="1" height="2" fill="#2f3541"/><rect x="7" y="18" width="1" height="2" fill="#2f3541"/><rect x="10" y="18" width="1" height="2" fill="#2f3541"/><rect x="13" y="18" width="1" height="2" fill="#2f3541"/><rect x="16" y="14" width="1" height="2" fill="#2f3541"/><rect x="16" y="10" width="1" height="2" fill="#2f3541"/><rect x="16" y="18" width="1" height="2" fill="#2f3541"/></g><g><rect width="24" height="24" fill="none"/><rect y="0" width="24" height="24" fill="none"/><rect width="24" height="24" fill="none"/><rect y="0" width="24" height="24" fill="none"/></g></svg>