<?xml version="1.0" encoding="UTF-8"?><svg id="icon" xmlns="http://www.w3.org/2000/svg" width="24" height="24" viewBox="0 0 24 24"><g><path d="M8.3418,14.0488v-2.8379h1.8828v.5352h-1.2988v.5957h1.2393v.5361h-1.2393v1.1709h-.584Z" fill="#fff"/><path d="M10.6416,14.0488v-2.8379h1.1992c.6279,0,.9443,.3193,.9443,.7793,0,.2959-.1484,.5156-.3965,.6279,.2676,.0996,.4355,.3271,.4355,.627,0,.5039-.3281,.8037-.9316,.8037h-1.251Zm.5674-2.3145v.6152h.6279c.2314,0,.3604-.1035,.3604-.3076,0-.1836-.1211-.3076-.3604-.3076h-.6279Zm0,1.1436v.6475h.668c.2402,0,.3594-.1084,.3594-.3242,0-.1992-.1191-.3232-.3594-.3232h-.668Z" fill="#fff"/><path d="M15.0488,11.2109h.7109l-1.0312,1.3945,1.0879,1.4434h-.7314l-.6924-.9795-.6992,.9795h-.7314l1.0869-1.4434-1.043-1.3945h.7236l.6592,.9268,.6602-.9268Z" fill="#fff"/></g><g><rect y="0" width="24" height="24" fill="none"/><path d="M18,8.0004v11.9996H6V4h7.9995l.0022,.0029v-.0029l3.9983,3.9967h-.0029l.0029,.0037Zm-.9998,.4138l-.4175-.4175h-2.5803l-.0007-2.5802-.416-.416H7.0005v13.9991h9.9998V8.4142Z" fill="#fff"/><rect y="0" width="24" height="24" fill="none"/></g></svg>