<?xml version="1.0" encoding="UTF-8"?><svg id="a" xmlns="http://www.w3.org/2000/svg" viewBox="0 0 24 24"><path d="M12,12c1.18,0,2.18,1.04,2.18,2.27,0,.43,.22,.66,.55,1,1.11,1.13,1.68,1.96,1.68,2.47,0,1.29-.82,2.27-1.91,2.27-.18,0-.56-.28-.83-.49-.47-.36-1-.76-1.67-.76s-1.21,.4-1.67,.76c-.27,.21-.64,.49-.83,.49-1.12,0-2-1-2-2.27,0-.39,.34-1.14,1.96-2.49,.31-.26,.6-.5,.6-.98,0-1.29,.84-2.27,1.95-2.27m0-1c-1.69,0-2.95,1.46-2.95,3.27,0,.09-2.55,1.84-2.55,3.47,0,1.8,1.31,3.27,3,3.27,.97,0,1.77-1.25,2.5-1.25s1.53,1.25,2.5,1.25c1.69,0,2.91-1.46,2.91-3.27,0-1.51-2.23-3.36-2.23-3.47,0-1.8-1.49-3.27-3.18-3.27h0Z" fill="#2f3541"/><rect width="24" height="24" fill="none"/><path d="M9.36,5c.39,0,1.01,.71,1.12,1.87,.12,1.21-.41,2.08-.85,2.13-.39,0-1.01-.71-1.12-1.87-.12-1.21,.41-2.08,.81-2.13h.04m0-1c-.05,0-.1,0-.15,0-1.09,.12-1.85,1.57-1.69,3.22,.15,1.58,1.08,2.77,2.12,2.77,.05,0,.1,0,.15,0,1.09-.12,1.85-1.57,1.69-3.22-.15-1.58-1.08-2.77-2.12-2.77h0Z" fill="#2f3541"/><path d="M5.52,10c.37,0,.94,.4,1.27,1.14,.4,.9,.18,1.68-.14,1.83-.05,.02-.1,.03-.16,.03-.37,0-.94-.4-1.27-1.14-.4-.9-.18-1.68,.14-1.83,.05-.02,.1-.03,.16-.03m0-1c-.2,0-.39,.04-.57,.12-.94,.42-1.23,1.83-.65,3.14,.47,1.06,1.36,1.74,2.18,1.74,.2,0,.39-.04,.57-.12,.94-.42,1.23-1.83,.65-3.14-.47-1.06-1.36-1.74-2.18-1.74h0Z" fill="#2f3541"/><path d="M18.48,10c.06,0,.11,.01,.16,.03,.32,.14,.54,.93,.14,1.83-.33,.74-.9,1.14-1.27,1.14-.06,0-.11-.01-.16-.03-.32-.14-.54-.93-.14-1.83,.33-.74,.9-1.14,1.27-1.14m0-1c-.82,0-1.71,.68-2.18,1.74-.58,1.31-.29,2.72,.65,3.14,.18,.08,.37,.12,.57,.12,.82,0,1.71-.68,2.18-1.74,.58-1.31,.29-2.72-.65-3.14-.18-.08-.37-.12-.57-.12h0Z" fill="#2f3541"/><path d="M14.64,5h.04c.4,.05,.92,.92,.81,2.13-.11,1.16-.73,1.87-1.12,1.87-.44-.05-.96-.92-.85-2.13,.11-1.16,.73-1.87,1.12-1.87m0-1c-1.03,0-1.96,1.2-2.12,2.77-.16,1.65,.6,3.09,1.69,3.22,.05,0,.1,0,.15,0,1.03,0,1.96-1.2,2.12-2.77,.16-1.65-.6-3.09-1.69-3.22-.05,0-.1,0-.15,0h0Z" fill="#2f3541"/></svg>