<?xml version="1.0" encoding="UTF-8"?><svg id="a" xmlns="http://www.w3.org/2000/svg" xmlns:xlink="http://www.w3.org/1999/xlink" viewBox="0 0 48 48"><defs><linearGradient id="b" x1="25.9" y1="30.68" x2="41.36" y2="30.68" gradientTransform="matrix(1, 0, 0, 1, 0, 0)" gradientUnits="userSpaceOnUse"><stop offset="0" stop-color="#2f3541" stop-opacity=".6"/><stop offset="1" stop-color="#2f3541" stop-opacity="0"/></linearGradient><linearGradient id="c" x1="26.02" y1="22.74" x2="28.83" y2="28.63" gradientTransform="matrix(1, 0, 0, 1, 0, 0)" gradientUnits="userSpaceOnUse"><stop offset="0" stop-color="#f84"/><stop offset="1" stop-color="#f49"/></linearGradient><linearGradient id="d" x1="18.8" y1="12.19" x2="19.61" y2="13.68" xlink:href="#c"/><linearGradient id="e" x1="28.11" y1="22.24" x2="30.26" y2="26.55" xlink:href="#c"/><linearGradient id="f" x1="21.69" y1="11.26" x2="24.81" y2="17.19" xlink:href="#c"/><linearGradient id="g" x1="25.79" y1="13.83" x2="28.2" y2="18.84" xlink:href="#c"/><linearGradient id="h" x1="28.62" y1="18.21" x2="31.34" y2="23.53" xlink:href="#c"/></defs><g><polyline points="44 30.5 24 20.5 4 30.5 24 40.5 44 30.5 44 30.5" fill="#f2f6ff"/><polygon points="24 40.5 24 42.5 4 32.5 4 30.5 24 40.5" fill="#fff" opacity=".2"/><polygon points="24 40.5 24 42.5 44 32.5 44 30.5 24 40.5" fill="#2f3541"/></g><path d="M35.24,26.12c-1.14-.16-2-.23-2.64-.27-.07,.05-.14,.11-.22,.15l-.37,.18c.29,1.03,.11,2.17-.58,2.5l-5.65,2.73c.11-.06-.13,.07-.38,.09l-1.52,.73c-.36,.17-.7,.06-.71,.06l10.82,3.21,10-5-8.76-4.38Z" fill="url(#b)" opacity=".4"/><path d="M25.75,18.13c-.07-.03-.15-.07-.22-.1-.43-1.68-1.54-2.82-2.58-3.32-.69-.34-1.35-.39-1.74-.13-.38-.64-1.04-1.22-1.72-1.56-1.04-.51-2.16-.45-2.6,.8-.08-.05-.15-.08-.22-.11-2.3-1.12-3.57,2.5-1.58,5.68-.73,.91-.42,2.92,.86,4.39-.47,1.06,.06,3.35,1.79,4.19,.29,1.43,1.04,2.24,1.81,2.62,.61,.3,1.21,.31,1.58,.11,.37,.56,.97,1.14,1.58,1.43,.76,.37,1.53,.29,1.85-.84,1.7,.83,2.25-.94,1.8-2.44,1.28-.22,1.62-1.91,.9-3.53,2.01-1.22,.79-6.06-1.51-7.18Z" fill="#fff3f8"/><rect x="12" y="9.24" width="24" height="24" transform="translate(48 42.49) rotate(180)" fill="none"/><rect x="0" y="0" width="48" height="48" fill="none"/><g opacity=".8"><g isolation="isolate"><path d="M29.54,29.5l-5.65,2.73c.28-.14,.52-.43,.66-.94l5.65-2.73c-.14,.51-.38,.8-.66,.94Z" fill="#f49"/><path d="M31.44,28.68l-5.65,2.73c.7-.34,.87-1.51,.56-2.56l5.65-2.73c.31,1.05,.14,2.22-.56,2.56Z" fill="url(#c)"/><path d="M15.26,13.64l5.65-2.73c.4-.19,.88-.19,1.42,.07,.07,.03,.14,.07,.22,.11l-5.65,2.73c-.08-.05-.15-.08-.22-.11-.54-.26-1.02-.27-1.42-.07Z" fill="url(#d)"/><path d="M32.38,26l-5.65,2.73c.96-.46,1.16-1.96,.52-3.41l5.65-2.73c.64,1.45,.44,2.95-.52,3.41Z" fill="url(#e)"/><path d="M17.68,12.86l5.65-2.73c.52-.25,1.18-.15,1.82,.16,.69,.34,1.34,.92,1.72,1.56l-5.65,2.73c-.38-.64-1.04-1.22-1.72-1.56-.63-.31-1.3-.41-1.82-.16Z" fill="url(#f)"/><path d="M21.32,14.52l5.65-2.73c.4-.19,1-.12,1.64,.19,1.03,.5,2.15,1.65,2.58,3.32l-5.65,2.73c-.43-1.68-1.54-2.82-2.58-3.32-.64-.31-1.24-.38-1.64-.19Z" fill="url(#g)"/><path d="M31.4,15.41c-.07-.03-.15-.07-.22-.1l-5.65,2.73c.07,.03,.15,.06,.22,.1,2.3,1.12,3.52,5.96,1.51,7.18l5.65-2.73c2.01-1.22,.79-6.06-1.51-7.18Z" fill="url(#h)"/></g></g><path d="M25.75,18.13c-.07-.03-.15-.07-.22-.1-.43-1.68-1.54-2.82-2.58-3.32-.69-.34-1.35-.39-1.74-.13-.38-.64-1.04-1.22-1.72-1.56-1.04-.51-2.16-.45-2.6,.8-.08-.05-.15-.08-.22-.11-2.3-1.12-3.57,2.5-1.58,5.68-.73,.91-.42,2.92,.86,4.39-.47,1.06,.06,3.35,1.79,4.19,.29,1.43,1.04,2.24,1.81,2.62,.61,.3,1.21,.31,1.58,.11,.37,.56,.97,1.14,1.58,1.43,.76,.37,1.53,.29,1.85-.84,1.7,.83,2.25-.94,1.8-2.44,1.28-.22,1.62-1.91,.9-3.53,2.01-1.22,.79-6.06-1.51-7.18Zm-4.97,11.6c-.1,.13-.61,.28-1.23-.02-.59-.29-.97-.83-1.13-1.65l-.16-.72-.54-.26c-.47-.23-.81-.6-1.02-1.1-.22-.53-.26-1.16-.1-1.53l.27-.61-.57-.67c-.44-.51-.74-1.12-.85-1.72-.09-.53-.01-.99,.22-1.27l.37-.46-.48-.75c-.87-1.4-.85-2.79-.57-3.56,.25-.67,.82-1.23,1.68-.81l.15,.08,.54,.33,.19-.55c.42-1.18,1.58-.72,1.93-.55,.77,.38,1.37,1.09,1.37,1.45l-.08,14.39Zm6-5.3l-.47,.29,.36,.81c.23,.51,.3,1.04,.2,1.48-.1,.5-.41,.82-.85,.89l-.58,.1,.26,.87c.16,.53,.11,1.11-.12,1.43-.21,.3-.56,.33-1.04,.1l-.54-.27-.15,.57c-.18,.66-.55,.83-1.14,.54-.62-.3-1.12-.94-1.22-1.17l.03-5.55,1.77,.86v.95c-.42-.02-.72,.32-.72,.89,0,.72,.46,1.54,1.05,1.83s1.07-.07,1.07-.8c0-.57-.29-1.2-.7-1.58v-1.83l-.7-.35-1.77-.86v-.87l3.19,1.55,.71,.35v-1.83c.43,.02,.72-.32,.72-.88,0-.72-.47-1.55-1.06-1.83-.59-.29-1.06,.07-1.07,.8,0,.57,.29,1.19,.7,1.57v.96l-3.19-1.55v-.87l1.78,.86v-2.71c.42,.02,.73-.32,.73-.88,0-.72-.47-1.55-1.06-1.83s-1.07,.07-1.07,.8c0,.57,.29,1.19,.71,1.58v1.83l-1.07-.52,.02-4.47c0-.36,.6-.49,1.38-.11,.35,.17,1.52,.85,1.91,2.42l.19,.73,.54,.2,.15,.07c.86,.42,1.42,1.54,1.66,2.44,.27,1.04,.27,2.45-.62,2.98Zm-3.15,2.88c.2,.1,.36,.37,.35,.61,0,.24-.16,.36-.36,.26-.19-.09-.35-.37-.35-.6,0-.24,.16-.36,.35-.27Zm1.1-6.04c0-.24,.16-.36,.35-.27,.2,.1,.36,.37,.35,.61,0,.24-.16,.36-.36,.27-.19-.09-.35-.37-.35-.61Zm-2.11-3.66c0-.24,.16-.36,.35-.27,.2,.1,.36,.37,.35,.61,0,.24-.16,.36-.36,.26-.19-.09-.35-.37-.35-.6Z" fill="#2f3541"/></svg>