<?xml version="1.0" encoding="UTF-8"?><svg id="a" xmlns="http://www.w3.org/2000/svg" viewBox="0 0 24 24"><rect width="24" height="24" fill="none"/><g><g><g><path d="M11.94,20.76c3.73,0,6.86-2.87,6.86-6.41V4.25h-6.84l-.02,16.51Z" fill="#c2172e"/><path d="M11.97,4.24H5.19V14.34c0,3.52,3.02,6.41,6.75,6.41l.03-16.51Z" fill="#fff"/></g><polygon points="11.95 16.67 11.95 16.67 12.43 17.99 13.72 17.99 12.7 18.69 13.09 19.95 11.95 19.21 11.95 19.2 11.95 16.67" fill="#fff"/><polygon points="11.94 16.67 11.94 16.67 11.46 17.99 10.17 17.99 11.2 18.69 10.8 19.95 11.94 19.21 11.94 19.2 11.94 16.67" fill="#c2172e"/><polygon points="11.95 13.68 11.95 13.68 12.43 14.99 13.72 14.99 12.7 15.69 13.09 16.96 11.95 16.21 11.95 16.21 11.95 13.68" fill="#fff"/><polygon points="11.94 13.68 11.94 13.68 11.46 14.99 10.17 14.99 11.2 15.69 10.8 16.96 11.94 16.21 11.94 16.21 11.94 13.68" fill="#c2172e"/><polygon points="11.95 10.68 11.95 10.68 12.43 12 13.72 12 12.7 12.7 13.09 13.96 11.95 13.22 11.95 13.21 11.95 10.68" fill="#fff"/><polygon points="11.94 10.68 11.94 10.68 11.46 12 10.17 12 11.2 12.7 10.8 13.96 11.94 13.22 11.94 13.21 11.94 10.68" fill="#c2172e"/><polygon points="11.95 4.69 11.95 4.7 12.43 6.02 13.72 6.02 12.7 6.72 13.09 7.98 11.95 7.24 11.95 7.24 11.95 4.69" fill="#fff"/><polygon points="11.94 4.69 11.94 4.7 11.46 6.02 10.17 6.02 11.2 6.72 10.8 7.98 11.94 7.24 11.94 7.24 11.94 4.69" fill="#c2172e"/><polygon points="11.94 7.68 11.94 7.69 11.46 9.01 10.17 9.01 11.2 9.71 10.8 10.97 11.94 10.23 11.94 10.22 11.94 7.68" fill="#c2172e"/><polygon points="11.95 7.68 11.95 7.69 12.43 9.01 13.72 9.01 12.7 9.71 13.09 10.97 11.95 10.23 11.95 10.22 11.95 7.68" fill="#fff"/><polygon points="15.74 17.26 14.6 18 14.99 16.74 13.97 16.04 15.25 16.04 15.74 14.72 15.74 14.72 16.23 16.04 17.51 16.04 16.49 16.74 16.89 18 15.74 17.26 15.74 17.26" fill="#fff"/><polygon points="15.74 14.29 14.6 15.03 14.99 13.77 13.97 13.07 15.25 13.07 15.74 11.75 15.74 11.75 16.23 13.07 17.51 13.07 16.49 13.77 16.89 15.04 15.74 14.29 15.74 14.29" fill="#fff"/><polygon points="15.74 11.27 14.6 12.01 14.99 10.75 13.97 10.05 15.25 10.05 15.74 8.73 15.74 8.74 16.23 10.06 17.51 10.06 16.49 10.76 16.89 12.02 15.74 11.28 15.74 11.27" fill="#fff"/><polygon points="15.74 8.29 14.6 9.03 14.99 7.76 13.97 7.07 15.25 7.07 15.74 5.75 15.74 5.75 16.23 7.07 17.51 7.07 16.49 7.77 16.89 9.03 15.74 8.29 15.74 8.29" fill="#fff"/><polygon points="8.15 17.26 9.29 18 8.9 16.74 9.92 16.04 8.63 16.04 8.15 14.72 8.15 14.72 7.66 16.04 6.37 16.04 7.39 16.74 7 18 8.15 17.26 8.15 17.26" fill="#c2172e"/><polygon points="8.15 14.29 9.29 15.03 8.9 13.77 9.92 13.07 8.63 13.07 8.15 11.75 8.15 11.75 7.66 13.07 6.37 13.07 7.39 13.77 7 15.04 8.15 14.29 8.15 14.29" fill="#c2172e"/><polygon points="8.15 11.27 9.29 12.01 8.9 10.75 9.92 10.05 8.63 10.05 8.15 8.73 8.15 8.74 7.66 10.06 6.37 10.06 7.39 10.76 7 12.02 8.15 11.28 8.15 11.27" fill="#c2172e"/><polygon points="8.15 8.29 9.29 9.03 8.9 7.76 9.92 7.07 8.63 7.07 8.15 5.75 8.15 5.75 7.66 7.07 6.37 7.07 7.39 7.77 7 9.03 8.15 8.29 8.15 8.29" fill="#c2172e"/></g><path d="M11.99,21c-1.95,0-3.89-.78-5.19-2.1-1.18-1.19-1.81-2.77-1.8-4.56V4h14V14.34c0,4.54-4.18,6.66-7.01,6.66ZM5.42,4.42V14.34c0,1.68,.58,3.15,1.68,4.26,1.22,1.24,3.05,1.98,4.89,1.98,2.66,0,6.59-1.98,6.59-6.24V4.42H5.42Z" fill="#171714"/></g></svg>