<?xml version="1.0" encoding="UTF-8"?><svg id="a" xmlns="http://www.w3.org/2000/svg" viewBox="0 0 24 24"><path d="m14.35,2.59c-1.49-.73-2.86-.76-3.95-.24l-5.65,2.73c1.09-.53,2.46-.49,3.95.24,3.53,1.72,6.36,6.63,6.33,10.98-.01,2.51-.98,4.28-2.47,5l5.65-2.73c1.49-.72,2.45-2.49,2.47-5,.02-4.35-2.81-9.26-6.33-10.98Z" fill="#fff" opacity=".2"/><path d="m8.71,5.31c3.53,1.72,6.36,6.63,6.33,10.98s-2.89,6.48-6.42,4.76S2.27,14.42,2.29,10.07s2.9-6.48,6.42-4.76Zm-.08,14.87c3.12,1.52,5.68-.38,5.7-4.23s-2.51-8.24-5.63-9.76-5.68.38-5.7,4.23,2.51,8.24,5.63,9.76" fill="#fff"/><polygon points="5.85 9.17 6.34 10.04 4.71 11.25 6.32 14.05 5.82 14.42 3.7 10.76 5.85 9.17" fill="#fff"/><polygon points="7.23 16.61 9.39 9.15 10.08 9.74 7.9 17.19 7.23 16.61" fill="#fff"/><polygon points="11.51 11.94 13.62 15.6 11.49 17.19 10.99 16.33 12.62 15.11 11.01 12.31 11.51 11.94" fill="#fff"/><rect x="0" y="0" width="24" height="24" fill="none"/></svg>