<?xml version="1.0" encoding="UTF-8"?><svg id="a" xmlns="http://www.w3.org/2000/svg" viewBox="0 0 64 64"><rect x="0" y="0" width="64" height="64" fill="none"/><path d="M32,4C16.54,4,4,16.54,4,32s12.54,28,28,28,28-12.54,28-28S47.46,4,32,4Zm15.14,20.35v1c-.05,12.28-10.04,22.2-22.33,22.15-4.21-.02-8.32-1.22-11.87-3.49,.62,.04,1.24,.04,1.86,0,3.52,0,6.95-1.18,9.72-3.36-3.35-.06-6.28-2.24-7.31-5.43,1.17,.22,2.38,.17,3.52-.14-3.65-.74-6.27-3.95-6.26-7.67,1.09,.6,2.3,.94,3.55,.98-3.41-2.31-4.45-6.87-2.38-10.43,3.97,4.89,9.83,7.86,16.12,8.17-1.01-4.19,1.58-8.41,5.77-9.42,2.74-.66,5.62,.21,7.54,2.27,1.75-.35,3.42-.99,4.95-1.9-.58,1.81-1.8,3.35-3.43,4.33,1.54-.18,3.04-.59,4.45-1.21-1.04,1.6-2.36,3.01-3.91,4.14Z" fill="#2f3541"/></svg>