<?xml version="1.0" encoding="UTF-8"?><svg id="a" xmlns="http://www.w3.org/2000/svg" viewBox="0 0 24 24"><path d="M3.62,17.48l2.35-1.13-.23,2.17-2.12-1.04Zm10.61-2.21l-1.21-1.24,.24-.12-.11-1.32h-.03l.05-.5-3.98-2.08-.57,.27-.05,9.62,1.42,.69v.87l5.64-2.73v-.87l-1.42-.69v-1.9Zm7.15-6.88l-7.09-3.46v-1.75l-2.82-1.38-1.81,.87-.33-.16L3.69,5.24l2.12,1.04,1.81-.87,1.03,.5v1.75l7.08,3.46v2.3l-.24,.11-1.35-1.09-.55,.26v1.75l1.41,.69v.87l5.64-2.73v-.87l-1.08-.53,1.81-.87v-2.63Z" fill="#fff" opacity=".2"/><path d="M15.72,13.74l-2.13-1.04v1.75l1.41,.69v.87l-3.54-1.73v-.87l1.42,.69v-1.75l-4.24-2.07-.05,9.62,1.42,.69v.87l-1.43-.69-2.83-1.38-2.12-1.04v-.87l2.13,1.04,.05-9.62-2.12-1.04v-2.63l2.14,1.04v-1.75l2.84,1.38v1.75l7.08,3.46v2.63Zm-2.85-2.26l.71,.35,1.42,.69v-.87l-6.37-3.11v.87l4.25,2.07m-5,5.45v-1.75l-1.41,.19v1.75l1.41-.18m.04-7.87v-1.75l-1.41,.19v1.75l1.41-.18m-.03,5.24v-1.75l-1.41,.18v1.75l1.41-.18m.01-2.62v-1.75l-1.41,.18v1.75l1.41-.18m-.04,7.87v-1.75l-1.41,.18v.87l1.41,.69m-2.07-11.53v-.87l-1.41-.69v.87l1.41,.69m.72-1.41l1.42-.18-1.42-.69v.87" fill="#fff"/><rect y="0" width="24" height="24" fill="none"/></svg>