<?xml version="1.0" encoding="UTF-8"?><svg id="a" xmlns="http://www.w3.org/2000/svg" xmlns:xlink="http://www.w3.org/1999/xlink" viewBox="0 0 48 48"><defs><linearGradient id="c" x1="21.76" y1="16.86" x2="20.69" y2="13.45" gradientUnits="userSpaceOnUse"><stop offset=".05" stop-color="#00d2b2"/><stop offset="1" stop-color="#26f"/></linearGradient><linearGradient id="d" x1="28.22" y1="18.88" x2="28.45" y2="33.32" xlink:href="#c"/><linearGradient id="e" x1="27.9" y1="21.23" x2="25.88" y2="14.61" xlink:href="#c"/><linearGradient id="f" x1="25.15" y1="31.81" x2="41.26" y2="31.81" gradientUnits="userSpaceOnUse"><stop offset="0" stop-color="#2f3541" stop-opacity=".4"/><stop offset="1" stop-color="#2f3541" stop-opacity="0"/></linearGradient><linearGradient id="g" x1="9.24" x2="38.94" xlink:href="#f"/></defs><rect x=".02" y="-.03" width="48" height="48" fill="none"/><polyline points="44.02 30.47 24.02 20.47 4.02 30.47 24.02 40.47 44.02 30.47 44.02 30.47" fill="#f2f6ff"/><polygon points="24.02 40.47 24.02 42.47 4.02 32.47 4.02 30.47 24.02 40.47" fill="#fff" opacity=".2"/><polygon points="24.02 40.47 24.02 42.47 44.02 32.47 44.02 30.47 24.02 40.47" fill="#2f3541"/><rect x="12.02" y="11.41" width="24" height="24" fill="none"/><g fill="none" opacity=".8"><path d="m15.57,16.01l5.65-2.73c2.07,1.01,4,1.39,5.67,1.01l-5.65,2.73c-1.67.38-3.6,0-5.67-1.01Z" fill="url(#c)"/></g><g fill="none" opacity=".8"><path d="m29.77,30.66l-5.65,2.73c1.65-.8,2.72-2.77,2.74-5.56l.03-6.3,5.65-2.73c-.02,2.89-.03,6.13-.03,6.3-.02,2.79-1.08,4.76-2.74,5.56Z" fill="url(#d)"/></g><g fill="none" opacity=".8"><path d="m21.24,17.03l5.65-2.73c1.66,2,3.59,3.5,5.66,4.51l-5.65,2.73c-2.07-1.01-3.99-2.51-5.66-4.51Z" fill="url(#e)"/></g><path d="m26.09,27.49v-5.44c-1.84-1.01-3.61-2.36-5.08-4.03-1.47.25-2.92-.03-4.75-.81l-.03,5.45c-.02,3.67,2.04,7.88,4.92,10.09,2.87.93,4.96-1.38,4.94-5.25" fill="#fff0f5"/><path d="m21.24,17.02c1.66,2.01,3.59,3.51,5.66,4.52l-.03,6.3c-.02,4.23-2.48,6.57-5.71,5.8-3.23-2.38-5.64-7.1-5.62-11.33l.03-6.3c2.07,1.01,4,1.39,5.68,1.01Zm4.85,10.47v-5.44c-1.84-1.01-3.61-2.36-5.08-4.03-1.47.25-2.92-.03-4.75-.81l-.03,5.45c-.02,3.67,2.04,7.88,4.92,10.09,2.87.93,4.96-1.38,4.94-5.25" fill="#2f3541"/><g fill="none" isolation="isolate"><polygon points="23.52 24.29 24.02 25.15 20.57 27.67 18.7 24.45 19.2 24.09 20.57 26.44 23.52 24.29" fill="#2f3541"/></g><path d="m44.02,30.47l-4.27-2.13-8.04.37c-.47.9-1.14,1.57-1.94,1.96l-5.65,2.73s.06-.04.1-.06c-.57.29-1.21.43-1.9.43l12.08,1.51,9.62-4.81Z" fill="url(#f)"/><path d="m44.02,30.47l-4.27-2.13-8.04.37c-.47.9-1.14,1.57-1.94,1.96l-5.65,2.73s.06-.04.1-.06c-.57.29-1.21.43-1.9.43l12.08,1.51,9.62-4.81Z" fill="url(#g)"/></svg>