<?xml version="1.0" encoding="UTF-8"?><svg id="a" xmlns="http://www.w3.org/2000/svg" viewBox="0 0 24 24"><rect width="24" height="24" fill="none"/><g><g><path d="M13.59,19.71l.21-.21H5.06c.33-2.94,2.1-5.49,4.55-6.52,.77,.34,1.57,.52,2.39,.52s1.62-.17,2.39-.52c2.02,.84,3.55,2.72,4.23,4.99l.79-.79c-.89-2.52-2.75-4.48-5.07-5.28-.7,.37-1.49,.61-2.34,.61s-1.64-.23-2.34-.61c-3.28,1.13-5.66,4.55-5.66,8.61H14.38l-.79-.79Z" fill="#fff"/><path d="M12,11.5c2.21,0,4-1.79,4-4s-1.79-4-4-4-4,1.79-4,4,1.79,4,4,4Zm0-7c1.65,0,3,1.35,3,3s-1.35,3-3,3-3-1.35-3-3,1.35-3,3-3Z" fill="#fff"/></g><polygon points="17.35 22.06 15 19.71 15.71 19 17.35 20.65 21 17 21.71 17.71 17.35 22.06" fill="#fff"/></g></svg>