<?xml version="1.0" encoding="UTF-8"?><svg id="a" xmlns="http://www.w3.org/2000/svg" xmlns:xlink="http://www.w3.org/1999/xlink" viewBox="0 0 48 48"><defs><linearGradient id="c" x1="25.95" y1="22.21" x2="29.56" y2="29.97" gradientTransform="matrix(1, 0, 0, 1, 0, 0)" gradientUnits="userSpaceOnUse"><stop offset="0" stop-color="#00d2b2"/><stop offset="1" stop-color="#26f"/></linearGradient><linearGradient id="d" x1="28.89" y1="32.69" x2="28.9" y2="32.69" gradientTransform="matrix(1, 0, 0, 1, 0, 0)" gradientUnits="userSpaceOnUse"><stop offset="0" stop-color="#2f3541" stop-opacity=".6"/><stop offset="1" stop-color="#2f3541" stop-opacity="0"/></linearGradient><linearGradient id="e" x1="28.86" y1="29.67" x2="28.87" y2="29.67" xlink:href="#d"/><linearGradient id="f" x1="28.29" y1="34.62" x2="28.32" y2="34.62" xlink:href="#d"/><linearGradient id="g" x1="28.72" y1="28.5" x2="28.72" y2="28.5" xlink:href="#d"/><linearGradient id="h" x1="28.94" y1="30.8" x2="28.94" y2="30.8" xlink:href="#d"/><linearGradient id="i" x1="28.95" y1="31.79" x2="28.95" y2="31.79" xlink:href="#d"/><linearGradient id="j" x1="29.5" y1="30.72" x2="41.88" y2="30.72" xlink:href="#d"/><linearGradient id="k" x1="17.38" y1="29.99" x2="23.31" y2="29.99" xlink:href="#d"/></defs><g><polyline points="44 30.5 24 20.5 4 30.5 24 40.5 44 30.5 44 30.5" fill="#f2f6ff"/><polygon points="24 40.5 24 42.5 4 32.5 4 30.5 24 40.5" fill="#fff" opacity=".2"/><polygon points="24 40.5 24 42.5 44 32.5 44 30.5 24 40.5" fill="#2f3541"/></g><rect x="0" y="0" width="48" height="48" fill="none"/><g><path d="M26.01,21.46c2.74,2.2,4.32,14.23,1.31,13.52-.32-.08-.59-.18-.84-.3-2.4-1.17-1.59-4.28-5.33-6.1s-2.97,2.05-5.36,.89c-.24-.12-.52-.28-.83-.52-3-2.22-1.31-12.66,1.45-12.18,.34,.06,.68,.17,1,.33,1.5,.73,2.67,2.32,3.8,2.87s2.32,.11,3.82,.84c.32,.16,.65,.36,.99,.64Z" fill="#fff3f8"/><rect x="12" y="12.66" width="24" height="24" fill="none"/><path d="M34.6,28.27c0-.06,0-.11,0-.17,0-.05,0-.11,0-.16,0-.08,0-.17-.01-.25-.01-.21-.03-.43-.05-.64v-.06s-.01-.08-.02-.12c-.02-.17-.03-.34-.06-.51-.02-.13-.03-.25-.05-.38,0-.07-.02-.14-.03-.21,0-.04-.01-.09-.02-.13-.04-.24-.08-.49-.12-.73,0-.04-.02-.07-.02-.11-.01-.06-.03-.13-.04-.19-.03-.14-.05-.27-.08-.41-.03-.16-.07-.32-.11-.48-.01-.04-.02-.09-.03-.13,0-.02,0-.04-.02-.07-.05-.21-.11-.41-.16-.62-.03-.09-.05-.18-.08-.27-.01-.04-.03-.09-.04-.13-.01-.05-.03-.09-.04-.14-.05-.17-.11-.34-.16-.5-.03-.08-.06-.17-.09-.25-.01-.03-.02-.06-.03-.09-.01-.03-.02-.07-.04-.1-.05-.14-.11-.28-.17-.42-.04-.1-.09-.2-.13-.29-.01-.03-.03-.06-.04-.09-.01-.02-.02-.05-.03-.07-.1-.22-.21-.43-.33-.63-.03-.05-.06-.1-.09-.14-.04-.07-.08-.14-.13-.21-.04-.06-.08-.13-.13-.18-.04-.06-.09-.12-.13-.17h0s-.07-.08-.1-.12c-.03-.03-.05-.06-.08-.09s-.05-.05-.08-.08c-.03-.03-.05-.05-.08-.08s-.05-.05-.08-.07c-.02-.01-.03-.03-.05-.04-.03-.02-.06-.05-.09-.07-.06-.05-.12-.09-.18-.13-.06-.04-.11-.08-.17-.12h0c-.06-.04-.11-.07-.16-.11-.05-.03-.11-.07-.16-.1-.05-.03-.11-.06-.16-.09-.02-.01-.05-.02-.07-.04-.03-.02-.06-.03-.1-.05-.06-.03-.12-.05-.17-.08-.06-.03-.12-.05-.18-.07-.03,0-.05-.02-.08-.03h-.04s-.05-.03-.08-.04c-.07-.02-.15-.04-.22-.06-.06-.01-.11-.02-.17-.04-.02,0-.04,0-.06-.01h-.05c-.12-.03-.23-.05-.35-.07-.01,0-.03,0-.04,0-.22-.03-.44-.05-.65-.06-.16-.01-.32-.03-.48-.05-.08,0-.16-.02-.23-.03-.03,0-.06,0-.09-.01-.13-.02-.26-.05-.39-.09h-.02c-.14-.05-.28-.1-.42-.17-.14-.07-.28-.15-.42-.25h-.02c-.13-.1-.26-.2-.39-.31-.03-.02-.06-.05-.08-.07-.07-.06-.15-.12-.22-.19-.16-.14-.33-.29-.5-.44-.21-.19-.43-.39-.66-.58-.02-.02-.04-.03-.06-.05-.11-.09-.23-.19-.34-.28l-.03-.02-.05-.03c-.06-.05-.12-.1-.19-.14-.07-.05-.15-.1-.22-.15-.02-.01-.04-.03-.06-.04l-.04-.02s-.06-.04-.1-.06c-.06-.04-.12-.07-.18-.11-.06-.03-.11-.06-.17-.09-.03-.01-.05-.03-.08-.04-.03-.01-.06-.03-.09-.04-.05-.02-.11-.05-.16-.07-.05-.02-.11-.04-.16-.06-.02,0-.04-.01-.06-.02h-.03s-.05-.03-.07-.03c-.06-.02-.11-.03-.17-.05-.06-.01-.12-.03-.17-.04-.03,0-.05,0-.08-.01-.02,0-.04,0-.06,0-.03,0-.06,0-.08,0-.03,0-.06,0-.08,0s-.06,0-.08,0h-.04s-.03,.01-.05,.01c-.07,.01-.14,.04-.21,.06-.02,0-.05,.02-.07,.03l-5.65,2.73c.11-.05,.21-.09,.33-.1h.01c.11-.02,.22-.02,.34,0,.17,.03,.33,.07,.49,.12h.03c.16,.06,.32,.13,.47,.2,.18,.09,.36,.19,.53,.3l.04,.02c.16,.1,.32,.22,.47,.34l.04,.03c.15,.11,.29,.23,.43,.35,.22,.19,.44,.39,.66,.58,.17,.15,.34,.3,.5,.44,.04,.04,.09,.08,.13,.12,.03,.02,.06,.05,.09,.07,.03,.02,.06,.05,.09,.07,.03,.03,.06,.05,.1,.08,.06,.05,.13,.1,.19,.14,.03,.02,.07,.05,.1,.07h.02l.03,.03s.09,.06,.13,.08c.04,.02,.08,.05,.12,.07,.03,.02,.07,.04,.1,.05l.05,.02,.06,.03s.07,.03,.1,.04c.04,.02,.08,.03,.12,.04,.04,.02,.09,.03,.13,.04,.05,.02,.1,.03,.15,.04,.06,.02,.13,.03,.19,.04,.09,.02,.18,.03,.27,.04,.42,.05,.85,.07,1.31,.13,.06,0,.13,.02,.2,.03,.07,.01,.13,.02,.2,.03,.04,0,.09,.02,.13,.03,.13,.03,.27,.07,.41,.11l.05,.02c.16,.06,.33,.12,.5,.21,.15,.08,.31,.16,.47,.27l.03,.02c.16,.1,.33,.22,.49,.36,.16,.13,.31,.29,.46,.47h0c.13,.17,.26,.36,.38,.57,.03,.05,.06,.09,.09,.14,.12,.22,.24,.45,.36,.69,.01,.03,.03,.06,.04,.09,.12,.26,.23,.53,.33,.82l.03,.09c.1,.29,.2,.59,.29,.89,.01,.04,.03,.09,.04,.13,.09,.31,.18,.63,.26,.95,.01,.04,.02,.09,.03,.13,.07,.29,.13,.59,.19,.89,.01,.06,.03,.13,.04,.19,.06,.33,.12,.65,.17,.98,.01,.07,.02,.14,.03,.2,.04,.3,.08,.6,.11,.89,0,.04,0,.08,.01,.12,.03,.32,.05,.64,.07,.95,0,.05,0,.11,0,.16,.01,.3,.02,.59,.01,.88,0,.04,0,.08,0,.11,0,.29-.02,.57-.05,.83v.05c-.03,.27-.07,.53-.12,.76v.04c-.06,.23-.12,.44-.2,.62v.03c-.09,.18-.17,.34-.27,.46-.01,.01-.02,.02-.03,.04-.1,.12-.21,.22-.33,.28h0l5.65-2.73c.12-.06,.23-.16,.34-.28,.01-.01,.02-.02,.03-.04,0,0,.02-.02,.02-.02,.04-.06,.08-.12,.12-.19,.03-.06,.06-.12,.09-.18,0-.02,.02-.04,.03-.06v-.03s.04-.07,.05-.1c.02-.07,.05-.14,.07-.21,.02-.07,.04-.15,.06-.22,0-.03,.01-.06,.02-.09v-.04s.03-.08,.04-.12c.02-.09,.03-.19,.05-.28,.01-.1,.03-.2,.04-.31v-.1c.02-.09,.03-.18,.03-.27,0-.13,.02-.26,.02-.39,0-.05,0-.11,0-.17v-.11c0-.06,0-.13,0-.19,0-.17,0-.34,0-.51Z" fill="url(#c)" opacity=".8"/><g><path d="M22.61,24.03c.39,.19,.71,.74,.7,1.22s-.32,.72-.71,.53-.71-.74-.7-1.22,.32-.72,.71-.53Z" fill="#2f3541"/><path d="M24.01,26.47c.39,.19,.71,.74,.7,1.22s-.32,.72-.71,.53-.71-.73-.7-1.22,.32-.72,.71-.53Z" fill="#2f3541"/><path d="M26.01,21.46c2.74,2.2,4.32,14.23,1.31,13.52-.32-.08-.59-.18-.84-.3-2.4-1.17-1.59-4.28-5.33-6.1s-2.97,2.05-5.36,.89c-.24-.12-.52-.28-.83-.52-3-2.22-1.31-12.66,1.45-12.18,.34,.06,.68,.17,1,.33,1.5,.73,2.67,2.32,3.8,2.87s2.32,.11,3.82,.84c.32,.16,.65,.36,.99,.64Zm1.17,12.6c.62,.14,1.01-.83,1.06-2.61,.09-3.4-1.17-8.24-2.4-9.22-.27-.22-.54-.4-.82-.53-.69-.34-1.33-.38-1.95-.43-.6-.05-1.22-.1-1.86-.41s-1.25-.86-1.85-1.4c-.62-.56-1.26-1.13-1.95-1.47-.28-.14-.55-.22-.82-.27-1.24-.23-2.54,3.36-2.49,6.83,.02,1.81,.4,3.16,1.02,3.62,.26,.19,.49,.33,.69,.43,.69,.34,.93,.11,1.43-.43,.64-.69,1.51-1.65,3.93-.46s3.29,2.98,3.91,4.3c.49,1.01,.73,1.48,1.42,1.81,.2,.1,.43,.18,.7,.24" fill="#2f3541"/><polygon points="18.36 20.64 18.35 22.39 19.77 23.08 19.76 23.96 18.35 23.27 18.34 25.02 17.63 24.67 17.64 22.93 16.23 22.24 16.23 21.36 17.65 22.05 17.65 20.3 18.36 20.64" fill="#2f3541"/><path d="M24.02,24.72c-.4-.19-.71-.74-.7-1.22s.32-.72,.71-.53,.71,.73,.7,1.22-.32,.72-.71,.53Z" fill="#2f3541"/><path d="M25.44,25.41c.4,.19,.71,.74,.7,1.22s-.32,.72-.71,.53-.71-.74-.7-1.22,.32-.72,.71-.53Z" fill="#2f3541"/></g></g><g><path d="M28.89,32.73v-.07s0,.04,0,.07Z" fill="url(#d)" opacity=".4"/><path d="M28.85,29.59c0,.05,.01,.1,.02,.15v-.03s-.01-.08-.02-.12Z" fill="url(#e)" opacity=".4"/><path d="M28.32,34.59s-.02,.03-.03,.05c0,0,.01-.02,.02-.02,0,0,0-.02,.01-.02Z" fill="url(#f)" opacity=".4"/><polygon points="28.72 28.49 28.72 28.5 28.72 28.5 28.72 28.49" fill="url(#g)" opacity=".4"/><path d="M28.94,30.76v.07h0v-.07Z" fill="url(#h)" opacity=".4"/><path d="M28.95,31.83v0Z" fill="url(#i)" opacity=".4"/><path d="M34.35,25.64s.01,.09,.02,.13c.01,.07,.02,.14,.03,.21,.02,.13,.04,.25,.05,.38,.02,.17,.04,.34,.05,.51,0,.04,0,.08,.01,.12v.06c.03,.22,.04,.43,.06,.64,0,.08,0,.17,.01,.25,0,.05,0,.11,0,.16,0,.06,0,.12,0,.17,0,.17,0,.35,0,.51,0,.07,0,.13,0,.19,0,.04,0,.08,0,.11,0,.06,0,.11,0,.17,0,.13-.01,.27-.02,.39,0,.09-.02,.18-.02,.27v.1c-.02,.11-.03,.21-.05,.31-.01,.1-.03,.19-.05,.28,0,.04-.02,.08-.03,.12v.04s-.02,.06-.03,.09c-.02,.08-.04,.15-.06,.22-.02,.07-.04,.14-.07,.21-.01,.04-.03,.07-.04,.1v.03s-.03,.04-.04,.06c-.03,.06-.06,.12-.09,.18-.04,.07-.08,.14-.12,.19,0,0-.02,.02-.02,.02-.01,.01-.02,.02-.03,.04-.1,.12-.21,.22-.34,.28l-5.65,2.73h0s.04-.03,.06-.04c-.19,.11-.42,.15-.67,.09l6.06,.82,10.62-5.31-9.65-4.86Z" fill="url(#j)" opacity=".4"/><path d="M21.16,28.59c-2.96-1.44-3.1,.68-4.21,1.05,0,0-.27,.1-.6,.03s7.99,2.22,7.99,2.22c-.57-1.15-1.3-2.39-3.17-3.31Z" fill="url(#k)" opacity=".4"/></g><rect x="12" y="12.66" width="24" height="24" fill="none"/></svg>