<?xml version="1.0" encoding="UTF-8"?><svg id="a" xmlns="http://www.w3.org/2000/svg" viewBox="0 0 24 24"><rect width="24" height="24" fill="none"/><g><path d="M20,4.03c.02,2.27-.45,8.1-5.51,10.78l-.53,.28v4.27c0,.26-.13,.48-.35,.6l-3.62,1.53v-4.91l-1.71,1.71-.29,.29-2.58-2.58,.29-.29,1.7-1.71H2.57l1.65-3.55c.13-.26,.38-.45,.61-.45h4.74l.29-.51c2.52-4.47,7.96-5.3,10.15-5.46m.86-1.03c-.92,0-8.6,.18-11.88,6H4.82c-.64,0-1.22,.42-1.5,1L1,15h3.99l-1,1,3.99,4,1-1v4l5.05-2.13c.57-.29,.93-.87,.93-1.51v-3.67c6.99-3.7,5.99-12.69,5.99-12.69,0,0-.03,0-.09,0h0Z" fill="#2f3541"/><path d="M16,7.5c.28,0,.5,.22,.5,.5,0,.28-.22,.5-.5,.5-.28,0-.5-.22-.5-.5,0-.28,.22-.5,.5-.5m0-1c-.83,0-1.5,.67-1.5,1.5,0,.83,.67,1.5,1.5,1.5h0c.83,0,1.5-.67,1.5-1.5,0-.83-.67-1.5-1.5-1.5h0Z" fill="#2f3541"/></g></svg>