<?xml version="1.0" encoding="UTF-8"?><svg id="icon" xmlns="http://www.w3.org/2000/svg" width="24" height="24" viewBox="0 0 24 24"><g><path d="M6.5,9c1.3807,0,2.5-1.1193,2.5-2.5s-1.1193-2.5-2.5-2.5-2.5,1.1193-2.5,2.5,1.1193,2.5,2.5,2.5Zm0-4c.8271,0,1.5,.6729,1.5,1.5s-.6729,1.5-1.5,1.5-1.5-.6729-1.5-1.5,.6729-1.5,1.5-1.5Z" fill="#2f3541"/><rect x="6" y="2" width="1" height="1" fill="#2f3541"/><rect x="8.8284" y="3.1716" width="1" height="1" transform="translate(.136 7.6716) rotate(-45)" fill="#2f3541"/><rect x="8.8284" y="8.8284" width="1" height="1" transform="translate(-3.864 9.3284) rotate(-45)" fill="#2f3541"/><polygon points="21 19 20 19 20 20 19 20 19 18 18 18 18 20 17 20 17 19 16 19 16 20 15 20 15 18 14 18 14 20 13 20 13 18 12 18 12 20 11 20 11 18 10 18 10 20 9 20 9 19 8 19 8 20 7 20 7 18 6 18 6 20 5 20 5 18 4 18 4 20 3 20 3 19 2 19 2 20 2 21 22 21 22 20 21 20 21 19" fill="#2f3541"/><rect x="2" y="6" width="1" height="1" fill="#2f3541"/><rect x="10" y="6" width="1" height="1" fill="#2f3541"/><rect x="6" y="10" width="1" height="1" fill="#2f3541"/><rect x="3.1716" y="8.8284" width="1" height="1" transform="translate(-5.5208 5.3284) rotate(-45)" fill="#2f3541"/><rect x="3.1716" y="3.1716" width="1" height="1" transform="translate(-1.5208 3.6718) rotate(-45.0025)" fill="#2f3541"/></g><rect width="24" height="24" fill="none"/></svg>