<?xml version="1.0" encoding="UTF-8"?><svg id="a" xmlns="http://www.w3.org/2000/svg" viewBox="0 0 24 24"><rect width="24" height="24" fill="none"/><path d="M18,8c.55,0,1,.45,1,1s-.45,1-1,1-1-.45-1-1,.45-1,1-1m0-1c-1.1,0-2,.9-2,2s.9,2,2,2,2-.9,2-2-.9-2-2-2h0Zm-12,1c.55,0,1,.45,1,1s-.45,1-1,1-1-.45-1-1,.45-1,1-1m0-1c-1.1,0-2,.9-2,2s.9,2,2,2,2-.9,2-2-.9-2-2-2h0Zm6,0c1.1,0,2,.9,2,2s-.9,2-2,2-2-.9-2-2,.9-2,2-2m0-1c-1.66,0-3,1.34-3,3s1.34,3,3,3,3-1.34,3-3-1.34-3-3-3h0Zm4.74,6.84s.05-.04,.08-.05c.38,.14,.78,.21,1.18,.21s.8-.07,1.18-.21c.82,.41,1.44,1.23,1.69,2.21h-2.64c.15,.32,.28,.66,.38,1h3.39c0-2.03-1.19-3.74-2.83-4.3-.35,.19-.74,.3-1.17,.3s-.82-.12-1.17-.3c-.31,.11-.6,.27-.88,.45,.28,.21,.54,.44,.78,.69Zm-10.97,2.16H3.13c.25-.98,.87-1.8,1.69-2.21,.38,.14,.78,.21,1.18,.21s.8-.07,1.18-.21c.03,.01,.05,.04,.08,.05,.24-.25,.51-.48,.78-.69-.27-.18-.56-.35-.88-.45-.35,.19-.74,.3-1.17,.3s-.82-.12-1.17-.3c-1.64,.56-2.83,2.28-2.83,4.3h3.39c.11-.34,.23-.68,.38-1Zm8.54-1.57c1.39,.83,2.34,2.34,2.61,4.07H7.08c.27-1.74,1.22-3.24,2.61-4.07,.71,.38,1.5,.57,2.31,.57s1.6-.2,2.31-.57m-.03-1.15c-.65,.45-1.43,.72-2.28,.72s-1.63-.27-2.28-.72c-2.18,1.01-3.72,3.41-3.72,6.22h12c0-2.82-1.54-5.21-3.72-6.22h0Z" fill="#2f3541"/></svg>