<?xml version="1.0" encoding="UTF-8"?><svg id="a" xmlns="http://www.w3.org/2000/svg" viewBox="0 0 24 24"><path d="M12,4c1.88,0,3.64,.69,4.97,1.95,1.31,1.25,2.03,2.91,2.03,4.66,0,1.76-.72,3.41-2.03,4.66l-.02,.02-.02,.02-4.93,5.23-4.93-5.23-.02-.02-.02-.02c-1.31-1.25-2.03-2.9-2.03-4.66s.72-3.42,2.03-4.66c1.32-1.26,3.09-1.95,4.97-1.95m0-1c-2.05,0-4.09,.74-5.66,2.23-3.12,2.98-3.12,7.8,0,10.77l5.66,6,5.66-6c3.12-2.97,3.12-7.8,0-10.77-1.56-1.49-3.61-2.23-5.66-2.23h0Zm0,6c1.1,0,2,.9,2,2s-.9,2-2,2-2-.9-2-2,.9-2,2-2m0-1c-1.66,0-3,1.34-3,3s1.34,3,3,3,3-1.34,3-3-1.34-3-3-3h0Z" fill="#fff"/><rect y="0" width="24" height="24" fill="none"/></svg>