<?xml version="1.0" encoding="UTF-8"?><svg id="a" xmlns="http://www.w3.org/2000/svg" viewBox="0 0 24 24"><rect id="c" y="0" width="24" height="24" fill="none"/><g><path d="M13,14h1v-1h-1v-2h-4v2h-1v1h5Zm-3-2h2v1h-2v-1Z" fill="#fff"/><path d="M13,10h1v-1h-1v-2h-4v2h-1v1h5Zm-3-2h2v1h-2v-1Z" fill="#fff"/><path d="M22,20V10h-6V5l-5-3-5,3V13H2v7H1v1H23v-1h-1ZM11,3.2l3.2,1.8H7.8l3.2-1.8Zm-1,14.8v-2h2v4h-2v-1l1-.5v-1l-1,.5Zm5,2h-2v-5h-4v5H3v-6H7V6H15v14Zm6,0h-5V11h5v9Z" fill="#fff"/><rect x="17" y="12" width="1" height="1" fill="#fff"/><rect x="19" y="12" width="1" height="1" fill="#fff"/><rect x="17" y="14" width="1" height="1" fill="#fff"/><rect x="19" y="14" width="1" height="1" fill="#fff"/><rect x="17" y="16" width="1" height="1" fill="#fff"/><rect x="19" y="16" width="1" height="1" fill="#fff"/><rect x="17" y="18" width="1" height="1" fill="#fff"/><rect x="19" y="18" width="1" height="1" fill="#fff"/><path d="M4,19h4v-4H4v4Zm1-3h2v2h-2v-2Z" fill="#fff"/></g></svg>