<?xml version="1.0" encoding="UTF-8"?><svg id="a" xmlns="http://www.w3.org/2000/svg" viewBox="0 0 24 24"><rect width="24" height="24" fill="none"/><g><g><path d="M5.13,14.36V4.13h13.74V14.36c0,4.33-3.91,6.51-6.87,6.51-3.2,0-6.87-2.17-6.86-6.51" fill="#f2db38"/><path d="M15.68,9.86c.43-.75,1.05-1.54,.66-2.47-.23-.77-1.81-1.39-1.53-2.55-.16,.05-.23,.23-.3,.37-.34,.8,.46,1.28,.77,1.87,.24,.58,.24,1.47-.87,2.51-.14-.11-.47-.27-.7,0-.11-.09-.53-.34-.98,.08-.16-.15-.71-.42-1.24,0-.18-.11-.39-.36-.98-.08-.06-.05-.32-.27-.7,0-.27-.23-1.53-1.3-.86-2.53,.64-1,1.13-1.55,.48-2.24,.25,.98-1.3,1.79-1.53,2.56-.39,.93,.24,1.72,.64,2.49-.61-.19-1.27-.1-1.81,.25,.19,.53,.67,.91,1.23,.97,.26,.04,.52-.05,.76,0,.02,.72,.34,1.39,.89,1.85,.52,.28,.52,.83,.7,1.28,.21,.57,.15,1.21-.17,1.72-.1,.37,0,.76,.24,1.04-.24,.33-.37,.72-.37,1.13,.04,1.13,.98,2.02,2.11,1.99h0c1.12,.03,2.05-.86,2.08-1.99,0-.41-.13-.8-.37-1.13,.25-.29,.34-.68,.24-1.04-.32-.52-.38-1.15-.17-1.72,.18-.45,.18-1,.7-1.28,.55-.46,.87-1.14,.89-1.85,.24-.04,.51,.05,.76,0,.56-.07,1.02-.45,1.21-.98-.53-.34-1.18-.42-1.78-.23Zm-6.97,.52c-.36-.23-.82-.25-1.2-.06,.14,.31,.71,.48,.9,.5v.06c-.43,.01-.83-.21-1.05-.59,.45-.31,1.18-.24,1.54,.05,0,0-.04,.11-.19,.03Zm4.17,6.74s.03,.07,0,.11c-.3,.06-1.1,.1-1.54,0v-.11c.51,.07,1.03,.07,1.54,0Zm-3.02-6.2c.47,.08,1.07-.27,1.45,.11,.3,.3,.44,.88,.45,1.37,.03,1.34-.11,2.69-.41,4,0,0-.09,0-.09-.05,.21-1.62,.7-3.32,.17-4.96-.09-.17-.23-.31-.41-.39-.39-.15-.82,.23-1.17-.08Zm2.17,8.53c-.7-.05-1.26-.61-1.31-1.31,0-.25,.07-.5,.21-.71l.02-.03c.21,.09,.42,.14,.64,.18v.96c0,.3,.24,.54,.53,.54s.53-.24,.53-.54v-.96c.21-.04,.42-.1,.62-.18,.15,.22,.23,.48,.23,.74-.05,.78-.71,1.36-1.49,1.31Zm1.21-8.45c-.18,.07-.33,.21-.41,.39-.53,1.64-.03,3.34,.17,4.96,0,.05-.09,.05-.09,.05-.3-1.31-.44-2.65-.41-4,0-.49,.15-1.08,.45-1.37,.41-.33,.98-.03,1.45-.11-.35,.32-.77-.07-1.17,.08Zm2.59-.12s0-.06,0-.06c.2-.02,.4-.07,.58-.15,.11-.11,.34-.19,.34-.35-.38-.19-.84-.17-1.2,.06-.05,0-.17,.1-.17,0l-.05-.03c.37-.3,.87-.37,1.31-.19,.09,.02,.17,.07,.24,.13-.22,.38-.62,.6-1.05,.59Z" fill="#171714"/><path d="M10.09,11.27c-.02,.3,.24,.59,.52,.59,.24,0,.44-.15,.51-.38l-1.04-.21Z" fill="#fff"/><path d="M12.13,19.59c.81,0,1.5-.62,1.52-1.44,0-.52-.28-1-.73-1.25l.2-.38c.6,.32,.97,.94,.98,1.62-.03,1.06-.91,1.9-1.97,1.87-1.06,.03-1.94-.81-1.97-1.87,0-.68,.38-1.3,.98-1.62l.2,.38c-.45,.25-.73,.72-.73,1.24,.03,.82,.72,1.45,1.53,1.45Z" fill="#c2172e"/><path d="M12.54,18.56v-1.03h-.82v1.05c.01,.22,.19,.38,.41,.38,.21,0,.39-.16,.41-.38v-.02Z" fill="#c2172e"/><path d="M14.16,11.27c.05,.3-.24,.59-.52,.59-.24,0-.44-.15-.51-.38l1.04-.21Z" fill="#fff"/><path d="M13.62,11.66c-.09-.01-.15-.09-.13-.18,.01-.09,.09-.15,.18-.13,.08,.01,.14,.08,.13,.16,0,.09-.09,.16-.18,.15" fill="#171714"/><path d="M10.56,11.66c-.09-.01-.15-.09-.13-.18,.01-.09,.09-.15,.18-.13,.08,.01,.14,.08,.13,.16,0,.09-.09,.16-.18,.15" fill="#171714"/></g><path d="M11.99,21c-1.95,0-3.89-.78-5.19-2.1-1.18-1.19-1.81-2.77-1.8-4.56V4h14V14.34c0,4.54-4.18,6.66-7.01,6.66ZM5.42,4.42V14.34c0,1.68,.58,3.15,1.68,4.26,1.22,1.24,3.05,1.98,4.89,1.98,2.66,0,6.59-1.98,6.59-6.24V4.42H5.42Z" fill="#171714"/></g></svg>