<?xml version="1.0" encoding="UTF-8"?><svg id="a" xmlns="http://www.w3.org/2000/svg" viewBox="0 0 24 24"><rect width="24" height="24" fill="none"/><g opacity=".2"><path d="M9.37,3.57L15.02,.85c.03,.28,.68,5.59,1.39,5.94l-5.65,2.73c-.71-.35-1.36-5.66-1.39-5.94Z" fill="#fff"/></g><g opacity=".2"><path d="M12.87,13.17l5.65-2.73c0,.87,3.35,4.17,3.52,4.35l-5.65,2.73c-.18-.17-3.53-3.47-3.52-4.35Z" fill="#fff"/></g><g opacity=".2"><path d="M16.4,17.52c-.06-.06-.51-.5-1.07-1.09l-1.35,.65c-.25,.12-.42,.37-.42,.8,0,1.76,1.99,5.23,2.1,5.41l5.65-2.73c-.09-.15-1.52-2.64-1.97-4.47l-2.94,1.42Z" fill="#fff"/></g><g opacity=".2"><path d="M10.76,9.51l5.65-2.73c.71,.35,4.08-.51,4.26-.56l-5.65,2.73c-.18,.05-3.55,.9-4.26,.56Z" fill="#fff"/></g><path d="M16.4,17.52c-.14-.07-2.83-1.38-2.84,.37s1.99,5.23,2.1,5.41c-.1-.15-2.07-2.94-3.11-3.45-.18-.09-.32-.1-.42-.02-.71,.53-1.4,2.69-1.43,2.8-.06-.21-1.15-4.18-2.43-4.81-.13-.07-.26-.09-.39-.07-1.42,.18-4.13,2.19-4.28,2.29,.14-.19,2.87-3.86,2.16-5.08-.7-1.23-2.72-3.04-2.83-3.14,.14,.03,2.84,.51,2.85-1.24S3.12,4.2,2.98,3.96c.17,.22,3.34,4.4,4.59,5.01,.16,.08,.28,.1,.36,.04,.71-.53,1.41-5.19,1.45-5.43,.03,.28,.68,5.59,1.39,5.94s4.08-.51,4.26-.56c-.11,.17-2.15,3.34-2.15,4.21s3.35,4.17,3.52,4.35Zm-3.19,1.91c-.22-.68-.36-1.34-.36-1.89,0-1,.52-1.41,1.24-1.47-1.92-2.19-1.92-2.89-1.92-3.24,0-.54,.41-1.46,.96-2.45-1.02,.16-1.94,.22-2.36,.01-.33-.16-.84-.41-1.38-2.74-.27,1.05-.59,1.95-.95,2.22-.15,.11-.42,.2-.86-.02s-1.06-.77-1.7-1.44c.37,.96,.64,1.87,.63,2.53,0,1.23-.8,1.7-1.63,1.85,.54,.58,1.08,1.23,1.4,1.8,.18,.31,.6,1.02,0,2.65,.47-.22,.93-.38,1.3-.43,.22-.02,.47,.02,.71,.14,.33,.16,1.34,.85,2.36,3.49,.28-.61,.63-1.21,.99-1.48,.16-.12,.45-.21,.93,.02,.2,.1,.42,.25,.66,.45" fill="#fff"/><g opacity=".2"><path d="M10.11,7.95h0c-.05-.2-.1-.42-.14-.64,.05,.22,.09,.44,.14,.64Z" fill="#fff"/></g><g opacity=".2"><path d="M9.37,3.57s.01,.09,.02,.17c-.01-.08-.02-.14-.02-.17Z" fill="#fff"/></g><g opacity=".2"><path d="M9.39,3.75c.01,.09,.03,.2,.04,.34-.02-.14-.03-.25-.04-.34Z" fill="#fff"/></g><g opacity=".2"><path d="M9.44,4.1c.04,.28,.09,.66,.16,1.09-.06-.43-.12-.8-.16-1.09Z" fill="#fff"/></g><g opacity=".2"><path d="M9.6,5.2c.1,.64,.22,1.37,.36,2.05-.14-.68-.26-1.42-.36-2.05Z" fill="#fff"/></g><g opacity=".2"><path d="M7.57,8.96c.08,.04,.14,.06,.2,.07,.02,0,.03,0,.05,0,.04,0,.08,0,.11-.02,.71-.53,1.41-5.19,1.45-5.43l.8-.39c-.82-.99-1.48-1.86-1.55-1.95L2.98,3.96c.17,.22,3.34,4.4,4.59,5.01Z" fill="#fff"/></g><g opacity=".2"><path d="M13.21,19.43s-.02-.07-.03-.11l-.07,.03s.07,.05,.1,.08Z" fill="#fff"/></g><g opacity=".2"><path d="M12.55,19.85c-.18-.09-.32-.1-.42-.02-.71,.53-1.4,2.69-1.43,2.8l3.22-1.56c-.49-.55-.99-1.04-1.37-1.22Z" fill="#fff"/></g><g opacity=".2"><path d="M7.88,17.75c-.39,.05-.88,.24-1.39,.49-.13,.06-.25,.13-.38,.2-.03,.02-.07,.04-.1,.06-.15,.08-.3,.17-.44,.25-.03,.02-.05,.03-.08,.05-.12,.07-.24,.15-.36,.22-.04,.02-.07,.04-.11,.07-.13,.08-.26,.17-.38,.25l-.06,.04c-.1,.07-.2,.14-.29,.2l-.08,.05c-.1,.07-.19,.13-.27,.19l-.02,.02c-.07,.05-.13,.09-.18,.13l-.04,.03-.08,.06,4.63-2.23c-.12-.05-.24-.07-.35-.06Z" fill="#fff"/></g><g opacity=".2"><path d="M3.04,11.84s.08,.01,.12,.02h.05c.07,.01,.14,.02,.23,.03h.02c.08,0,.16,.01,.24,.01,.03,0,.06,0,.08,0,.07,0,.15,0,.23,0,.03,0,.06,0,.08,0,.1,0,.21-.01,.31-.03,.02,0,.03,0,.05,0,.09-.01,.18-.03,.26-.05,.03,0,.06-.02,.09-.03,.08-.02,.15-.05,.22-.08,.42-.18,.73-.52,.74-1.11,0-.04,0-.09-.01-.13l-2.84,1.37h.07l.04,.02Z" fill="#fff"/></g><g opacity=".2"><path d="M15.02,8.96l5.65-2.73c-.11,.17-2.15,3.34-2.15,4.21l-5.65,2.73c0-.87,2.04-4.05,2.15-4.21Z" fill="#fff"/></g></svg>