<?xml version="1.0" encoding="UTF-8"?><svg id="a" xmlns="http://www.w3.org/2000/svg" viewBox="0 0 24 24"><rect x="0" y="0" width="24" height="24" fill="none"/><g><path d="M13,5v-1h2v-1h-5v1h2v1h-4l-3,3v12h12l3-3V5h-7Zm3,14H6V9h10v10Zm.29-11H6.41l2-2h3.59v1h1v-1h5.29l-2,2Zm2.71,8.59l-2,2V8.71l2-2v9.88Z" fill="#fff"/><path d="M8.5,14c.83,0,1.5-.67,1.5-1.5s-.67-1.5-1.5-1.5-1.5,.67-1.5,1.5,.67,1.5,1.5,1.5Zm0-2c.28,0,.5,.22,.5,.5s-.22,.5-.5,.5-.5-.22-.5-.5,.22-.5,.5-.5Z" fill="#fff"/><path d="M13.5,14c.83,0,1.5-.67,1.5-1.5s-.67-1.5-1.5-1.5-1.5,.67-1.5,1.5,.67,1.5,1.5,1.5Zm0-2c.28,0,.5,.22,.5,.5s-.22,.5-.5,.5-.5-.22-.5-.5,.22-.5,.5-.5Z" fill="#fff"/><path d="M8,18h6v-3h-6v3Zm1-2h4v1h-4v-1Z" fill="#fff"/></g></svg>