<?xml version="1.0" encoding="UTF-8"?><svg id="a" xmlns="http://www.w3.org/2000/svg" viewBox="0 0 24 24"><rect width="24" height="24" fill="none"/><path d="M9.5,15c.28,0,.5,.22,.5,.5s-.22,.5-.5,.5-.5-.22-.5-.5,.22-.5,.5-.5m0-1c-.83,0-1.5,.67-1.5,1.5s.67,1.5,1.5,1.5,1.5-.67,1.5-1.5-.67-1.5-1.5-1.5h0Z" fill="#fff"/><path d="M9.5,11c2.48,0,4.5,2.02,4.5,4.5s-2.02,4.5-4.5,4.5-4.5-2.02-4.5-4.5,2.02-4.5,4.5-4.5m0-1c-3.04,0-5.5,2.46-5.5,5.5s2.46,5.5,5.5,5.5,5.5-2.46,5.5-5.5-2.46-5.5-5.5-5.5h0Z" fill="#fff"/><polygon points="15 9 7.28 9 5.46 4 4 4 4 3 6.16 3 7.98 8 15 8 15 9" fill="#fff"/><path d="M19.76,19l-1.6-6h-2.67c.13,.32,.24,.66,.32,1h1.58l1.6,6h3v-1h-2.24Z" fill="#fff"/></svg>