<?xml version="1.0" encoding="UTF-8"?><svg id="a" xmlns="http://www.w3.org/2000/svg" viewBox="0 0 24 24"><rect id="c" width="24" height="24" fill="none"/><path d="M10.7,5.99l-6.2,4.59-.03,6.03,4.88,2.38,6.2-4.6L10.7,5.99Zm-4.81,10.44c-.39-.19-.71-.74-.7-1.22s.32-.72,.71-.53c.39,.19,.71,.74,.7,1.22,0,.48-.32,.72-.71,.53Zm1.11-6.01l3.34-2.48,3.48,6.04-3.34,2.48-3.48-6.04Z" fill="none"/><polygon points="10.33 9.18 8 10.91 10.49 15.22 12.82 13.49 10.33 9.18" fill="none"/><path d="M5.89,14.68c-.39-.19-.71,.05-.71,.53s.31,1.03,.7,1.22c.39,.19,.71-.05,.71-.53,0-.48-.31-1.03-.7-1.22Z" fill="#2f3541"/><path d="M10.34,7.94l-3.34,2.48,3.48,6.04,3.34-2.48-3.48-6.04Zm-2.34,2.97l2.33-1.73,2.49,4.31-2.34,1.73-2.48-4.31Z" fill="#2f3541"/><polygon points="16.55 14.88 9.64 20.01 15.28 17.28 22.19 12.16 16.55 14.88" fill="#2f3541" opacity=".2"/><polygon points="22.19 12.16 16.35 2.02 10.7 4.75 16.55 14.88 22.19 12.16" fill="#2f3541" opacity=".2"/><path d="M10.7,4.75L3.79,9.88l-.04,7.26,5.88,2.87,6.91-5.13L10.7,4.75Zm-1.36,14.24l-4.88-2.38,.03-6.03,6.2-4.59,4.85,8.4-6.2,4.6Z" fill="#2f3541"/></svg>