<?xml version="1.0" encoding="UTF-8"?><svg id="a" xmlns="http://www.w3.org/2000/svg" viewBox="0 0 24 24"><rect width="24" height="24" fill="none"/><path d="M12,6c-4.28,0-8,2.42-10,6,2,3.58,5.72,6,10,6s8-2.42,10-6c-2-3.58-5.72-6-10-6Zm3,5c0,1.65-1.35,3-3,3s-3-1.35-3-3,1.35-3,3-3,3,1.35,3,3Zm-3,5c-3.01,0-5.84-1.51-7.63-4,.8-1.11,1.81-2.01,2.94-2.68-.19,.53-.31,1.09-.31,1.68,0,2.76,2.24,5,5,5s5-2.24,5-5c0-.59-.12-1.15-.31-1.68,1.13,.67,2.15,1.57,2.94,2.68-1.79,2.49-4.63,4-7.63,4Z" fill="#2f3541"/></svg>