<?xml version="1.0" encoding="UTF-8"?><svg id="a" xmlns="http://www.w3.org/2000/svg" viewBox="0 0 18 18"><rect id="c" width="18" height="18" fill="none"/><path d="M10,12.5c0-.18-.04-.34-.09-.5h1.18c-.06,.16-.09,.32-.09,.5,0,.83,.67,1.5,1.5,1.5s1.5-.67,1.5-1.5c0-.2-.04-.38-.11-.55,.86-.16,1.57-.72,1.9-1.47,.13-.3,.2-.63,.2-.97v-.02c0-.74-.36-1.43-.89-1.94l-3.2-3.12c-.83-1.03-1.92-1.84-3.19-2.18-.62-.17-1.27-.25-1.92-.25H2V12H7.09c-.06,.16-.09,.32-.09,.5,0,.83,.67,1.5,1.5,1.5s1.5-.67,1.5-1.5Zm-4-4.5h-2v-3h2v3Zm2,0v-3l3,3h-3Zm4.5,6h3.5v2H2v-2H12.5Z" fill="#2f3541"/></svg>