<?xml version="1.0" encoding="UTF-8"?><svg id="a" xmlns="http://www.w3.org/2000/svg" viewBox="0 0 24 24"><path d="M16.36,11.9v2.31l-4.5-2.19v-.88l2.3-1.11v-.37l-.76-.37-2.01,.97-4.52-2.21,4.5-2.17,2.26,1.1,1.15-.55-3.4-1.66-5.01,2.42-1,.48v7.77l.66,.32,5.33,2.6,5.38-2.6,.63-.3v-4.04l-1,.48Zm-5.5,5.11l-4.03-1.97,4.03-1.94v3.91Zm0-5.02l-4.5,2.17v-5.25l4.5,2.19v.88Zm1,5.02v-3.87l3.99,1.95-3.99,1.93Z" fill="#2f3541"/><rect x="0" y="0" width="24" height="24" fill="none"/><g><polygon points="4.2 14.44 9.85 11.72 9.83 14.34 4.19 17.07 4.2 14.44" fill="#2f3541" opacity=".2"/><polygon points="3.49 14.1 9.14 11.37 9.85 11.72 4.2 14.44 3.49 14.1" fill="#2f3541" opacity=".2"/><polygon points="4.19 17.07 9.83 14.34 11.96 15.38 6.31 18.1 4.19 17.07" fill="#2f3541" opacity=".2"/><polygon points="6.31 18.1 11.96 15.38 11.95 16.25 6.3 18.97 6.31 18.1" fill="#2f3541" opacity=".2"/><polygon points="4.2 14.44 4.19 17.07 6.31 18.1 6.3 18.97 3.47 17.59 3.49 14.1 4.2 14.44" fill="#2f3541"/></g><polygon points="6.38 4.98 12.03 2.26 12.02 3.14 6.38 5.86 6.38 4.98" fill="#2f3541" opacity=".2"/><polygon points="6.38 4.98 6.38 5.86 4.25 4.83 4.24 7.45 3.53 7.1 3.55 3.6 6.38 4.98" fill="#2f3541"/><polygon points="6.38 5.86 4.25 4.83 4.24 7.45 9.89 4.72 9.89 4.17 6.38 5.86" fill="#2f3541" opacity=".2"/><polygon points="3.55 3.6 9.2 .88 12.03 2.26 6.38 4.98 3.55 3.6" fill="#2f3541" opacity=".2"/><polygon points="6.38 4.98 6.38 5.86 4.25 4.83 4.24 7.45 3.53 7.1 3.55 3.6 6.38 4.98" fill="#2f3541"/><polygon points="14.11 19.83 11.98 20.86 14.1 21.9 14.11 19.83" fill="#2f3541" opacity=".2"/><polygon points="14.82 19.62 20.47 16.9 20.45 20.39 14.8 23.12 14.82 19.62" fill="#2f3541" opacity=".2"/><polygon points="14.11 19.28 19.76 16.55 20.47 16.9 14.82 19.62 14.11 19.28" fill="#2f3541" opacity=".2"/><polygon points="14.82 19.62 14.8 23.12 11.97 21.74 11.98 20.86 14.1 21.9 14.11 19.28 14.82 19.62" fill="#2f3541"/><path d="M16.36,11.9v2.31l-4.5-2.19v-.88l2.3-1.11v-.37l-.76-.37-2.01,.97-4.52-2.21,4.5-2.17,2.26,1.1,1.15-.55-3.4-1.66-5.01,2.42-1,.48v7.77l.66,.32,5.33,2.6,5.38-2.6,.63-.3v-4.04l-1,.48Zm-5.5,5.11l-4.03-1.97,4.03-1.94v3.91Zm0-5.02l-4.5,2.17v-5.25l4.5,2.19v.88Zm1,5.02v-3.87l3.99,1.95-3.99,1.93Z" fill="#2f3541"/><g><polygon points="14.88 9.13 20.52 6.4 20.51 9.9 14.86 12.63 14.88 9.13" fill="#2f3541" opacity=".2"/><polygon points="12.05 7.75 17.69 5.02 20.52 6.4 14.88 9.13 12.05 7.75" fill="#2f3541" opacity=".2"/><polygon points="14.88 9.13 14.86 12.63 14.15 12.28 14.17 9.66 12.04 8.63 12.05 7.75 14.88 9.13" fill="#2f3541"/></g></svg>