<?xml version="1.0" encoding="UTF-8"?><svg id="a" xmlns="http://www.w3.org/2000/svg" viewBox="0 0 24 24"><rect y="0" width="24" height="24" fill="none"/><rect y="0" width="24" height="24" fill="none"/><rect x="0" y="0" width="24" height="24" transform="translate(24 24) rotate(180)" fill="none"/><g><path d="M17.5,15.5l-2.5,2.5,4,4,2.5-2.5-4-4Zm-1.09,2.5l1.09-1.09,2.59,2.59-1.09,1.09-2.59-2.59Z" fill="#2f3541"/><path d="M18,10c0-4.42-3.58-8-8-8S2,5.58,2,10s3.58,8,8,8,8-3.58,8-8Zm-8,7c-3.86,0-7-3.14-7-7S6.14,3,10,3s7,3.14,7,7-3.14,7-7,7Z" fill="#2f3541"/><rect x="6" y="9.5" width="8" height="1" fill="#2f3541"/></g></svg>