<?xml version="1.0" encoding="UTF-8"?><svg id="a" xmlns="http://www.w3.org/2000/svg" xmlns:xlink="http://www.w3.org/1999/xlink" viewBox="0 0 48 48"><defs><linearGradient id="c" x1="26.38" y1="30.76" x2="41.43" y2="30.76" gradientTransform="matrix(1, 0, 0, 1, 0, 0)" gradientUnits="userSpaceOnUse"><stop offset="0" stop-color="#2f3541" stop-opacity=".4"/><stop offset="1" stop-color="#2f3541" stop-opacity="0"/></linearGradient><linearGradient id="d" x1="21.38" y1="11.66" x2="31.47" y2="32.82" gradientTransform="matrix(1, 0, 0, 1, 0, 0)" gradientUnits="userSpaceOnUse"><stop offset="0" stop-color="#f84"/><stop offset="1" stop-color="#f49"/></linearGradient><linearGradient id="f" x1="27.96" y1="16.87" x2="33.13" y2="27.39" xlink:href="#d"/></defs><g><polyline points="44 30.5 24 20.5 4 30.5 24 40.5 44 30.5 44 30.5" fill="#f2f6ff"/><polygon points="24 40.5 24 42.5 4 32.5 4 30.5 24 40.5" fill="#fff" opacity=".2"/><polygon points="24 40.5 24 42.5 44 32.5 44 30.5 24 40.5" fill="#2f3541"/></g><polygon points="38.05 27.53 33.05 28.24 29.38 30.96 23.73 33.69 37 34 44 30.5 38.05 27.53" fill="url(#c)"/><rect width="48" height="48" fill="none"/><path d="M23.44,32.67l-4.88-2.38,.03-6.03,6.2-4.59,4.85,8.4-6.2,4.6Z" fill="#fff3f8"/><polygon points="30.64 28.56 23.73 33.69 29.38 30.96 36.29 25.83 30.64 28.56" fill="url(#d)" opacity=".8"/><rect id="e" x="14.1" y="13.68" width="24" height="24" fill="none"/><path d="M24.79,19.67l-6.2,4.59-.03,6.03,4.88,2.38,6.2-4.6-4.85-8.4Zm-4.81,10.44c-.39-.19-.71-.74-.7-1.22s.32-.72,.71-.53c.39,.19,.71,.74,.7,1.22,0,.48-.32,.72-.71,.53Zm1.11-6.01l3.34-2.48,3.48,6.04-3.34,2.48-3.48-6.04Z" fill="none"/><polygon points="24.43 22.86 22.1 24.59 24.58 28.9 26.92 27.17 24.43 22.86" fill="none"/><polygon points="36.29 25.83 30.45 15.7 24.8 18.43 30.64 28.56 36.29 25.83" fill="url(#f)" opacity=".8"/><path d="M19.99,28.36c-.39-.19-.71,.05-.71,.53s.31,1.03,.7,1.22c.39,.19,.71-.05,.71-.53,0-.48-.31-1.03-.7-1.22Z" fill="#2f3541"/><path d="M24.44,21.62l-3.34,2.48,3.48,6.04,3.34-2.48-3.48-6.04Zm-2.34,2.97l2.33-1.73,2.49,4.31-2.34,1.73-2.48-4.31Z" fill="#2f3541"/><path d="M24.8,18.43l-6.91,5.13-.04,7.26,5.88,2.87,6.91-5.13-5.84-10.13Zm-1.36,14.24l-4.88-2.38,.03-6.03,6.2-4.59,4.85,8.4-6.2,4.6Z" fill="#2f3541"/></svg>