<?xml version="1.0" encoding="UTF-8"?><svg xmlns="http://www.w3.org/2000/svg" width="32" height="32" viewBox="0 0 32 32"><g id="icon"><circle cx="16" cy="16" r="16" fill="#f49"/></g><g id="text_-_keep_locked_to_avoid_add_icons_here"><g><rect id="Rectangle_10877" x="4" y="4" width="24" height="24" fill="none" opacity="0"/><g><path d="M13.2065,15c-1.0316-.8253-1.7065-2.0791-1.7065-3.5,0-2.4814,2.0186-4.5,4.5-4.5s4.5,2.0186,4.5,4.5c0,1.4209-.6749,2.6747-1.7065,3.5h1.4455c.7872-.9517,1.261-2.1716,1.261-3.5,0-3.0322-2.4678-5.5-5.5-5.5s-5.5,2.4678-5.5,5.5c0,1.3284,.4738,2.5483,1.261,3.5h1.4455Z" fill="#fff"/><circle cx="17.5" cy="14" r=".5" fill="#fff"/><path d="M18.5,10h-2.9932l-.25-1.5h-1.7568v1h.9092l.584,3.5h3.0068l.5-3Zm-1.3471,2h-1.3057l-.1667-1h1.6391l-.1667,1Z" fill="#fff"/><circle cx="15.5" cy="14" r=".5" fill="#fff"/><path d="M6,16v9H26v-9H6Zm3,6v-2h2v3.9999h-2v-.9999l1-.5v-1l-1,.5Zm6,0v-2h2v3.9999h-2v-.9999l1-.5v-1l-1,.5Zm6,0v-2h2v3.9999h-2v-.9999l1-.5v-1l-1,.5Zm4,2h-1v-5h-4v5h-2v-5h-4v5h-2v-5h-4v5h-1v-7H25v7Z" fill="#fff"/></g></g></g></svg>