<?xml version="1.0" encoding="UTF-8"?><svg id="a" xmlns="http://www.w3.org/2000/svg" viewBox="0 0 48 48"><rect x="0" width="48" height="48" fill="none"/><g><path d="M27,19.02c1.66,0,3-1.34,3-3s-1.34-3-3-3-3,1.34-3,3,1.34,3,3,3Zm0-5c1.1,0,2,.9,2,2s-.9,2-2,2-2-.9-2-2,.9-2,2-2Z" fill="#fff"/><path d="M24,16.02c0-1.66-1.34-3-3-3s-3,1.34-3,3,1.34,3,3,3,3-1.34,3-3Zm-5,0c0-1.1,.9-2,2-2s2,.9,2,2-.9,2-2,2-2-.9-2-2Z" fill="#fff"/><path d="M22,44.02h20V24.02l-20,20Zm19-1h-1v-1h-1v1h-2v-2h-1v2h-2v-1h-1v1h-2v-2h-1v2h-2v-1h-1v1h-2.59l16.59-16.59v16.59Z" fill="#fff"/><path d="M38,34.02l-6,6h6v-6Zm-1,5h-2.59l2.59-2.59v2.59Z" fill="#fff"/><path d="M24,23.02c4.42,0,8-3.58,8-8s-3.58-8-8-8-8,3.58-8,8,3.58,8,8,8Zm0-15c3.86,0,7,3.14,7,7s-3.14,7-7,7-7-3.14-7-7,3.14-7,7-7Z" fill="#fff"/><path d="M22,40.02H9.03c.37-7.02,4.63-13.21,10.62-15.27l.67-.23v-.17c1.2,.44,2.43,.67,3.68,.67s2.48-.22,3.68-.67v.17l.67,.23c2.05,.71,3.9,1.91,5.46,3.46l.72-.72c-1.68-1.66-3.66-2.93-5.85-3.68v-1c-1.4,.75-2.98,1.21-4.68,1.21s-3.28-.46-4.68-1.21v1c-6.55,2.25-11.32,9.1-11.32,17.21h13l1-1Z" fill="#fff"/></g></svg>