<?xml version="1.0" encoding="UTF-8"?><svg id="a" xmlns="http://www.w3.org/2000/svg" viewBox="0 0 24 24"><rect width="24" height="24" fill="none"/><g><path d="M12,4.14c2.07,1.09,4.42,1.71,7,1.83v6.22c0,4.2-2.93,7.85-7,8.78-4.07-.92-7-4.58-7-8.78V5.98c2.58-.13,4.93-.74,7-1.83m0-1.14c-2.36,1.36-5.08,2-8,2v7.2c0,4.84,3.44,8.87,8,9.8,4.56-.93,8-4.96,8-9.8V5c-2.92,0-5.64-.64-8-2h0Z" fill="#2f3541"/><polygon points="11.15 15.5 8.5 12.87 9.21 12.17 11.15 14.09 15.29 10 16 10.7 11.15 15.5" fill="#2f3541"/></g></svg>