<?xml version="1.0" encoding="UTF-8"?><svg id="a" xmlns="http://www.w3.org/2000/svg" viewBox="0 0 24 24"><rect y="0" width="24" height="24" fill="none"/><g><path d="M4.56,5.66c.27,0,.55,.07,.85,.22,1.02,.5,2.03,1.73,2.64,3.21l.69,1.67,1.05-1.47c.27-.38,.62-.58,1.04-.58,.27,0,.56,.08,.87,.23,1.77,.86,3.26,3.67,3.24,6.13-.02,3.83-3.98,5.35-5.56,5.8-3.04-3.83-6.4-9.3-6.38-12.84,0-1.42,.64-2.38,1.56-2.38m0-1c-1.46,0-2.55,1.33-2.56,3.37-.03,5.44,6.65,13.54,7,13.97,.35-.07,6.91-1.49,6.94-6.92,.02-2.83-1.69-6.01-3.81-7.04-.46-.22-.9-.33-1.3-.33-.75,0-1.4,.36-1.85,1-.68-1.66-1.83-3.1-3.13-3.73-.45-.22-.88-.32-1.29-.32h0Z" fill="#fff"/><path d="M17.69,5.36c-.84-.41-1.62-.42-2.25-.12l-5.56,2.68c.64-.31,1.41-.29,2.25,.12,2.11,1.03,3.82,4.21,3.81,7.04-.02,3.22-2.36,5.03-4.34,5.98l5.56-2.68c1.98-.96,4.32-2.76,4.34-5.98,.02-2.83-1.69-6.01-3.81-7.04Z" fill="#fff" opacity=".2"/><path d="M9.88,7.92l4.53-2.18c-.69-1.54-1.77-2.85-3-3.45-.83-.41-1.62-.41-2.27-.1L3.59,4.87c.64-.31,1.43-.3,2.27,.1,1.3,.63,2.44,2.07,3.13,3.73,.49-.69,1.2-1.04,2.03-.98h0c-.41-.03-.79,.03-1.13,.2Z" fill="#fff" opacity=".2"/></g><rect x="0" y="0" width="24" height="24" fill="none"/></svg>