<?xml version="1.0" encoding="UTF-8"?><svg id="c" xmlns="http://www.w3.org/2000/svg" xmlns:xlink="http://www.w3.org/1999/xlink" viewBox="0 0 48 48"><defs><linearGradient id="a" x1="29.55" y1="31.23" x2="41.89" y2="31.23" gradientTransform="matrix(1, 0, 0, 1, 0, 0)" gradientUnits="userSpaceOnUse"><stop offset="0" stop-color="#2f3541" stop-opacity=".4"/><stop offset="1" stop-color="#2f3541" stop-opacity="0"/></linearGradient><linearGradient id="d" x1="18.2" y1="16.37" x2="45.93" y2="30.16" gradientTransform="matrix(1, 0, 0, 1, 0, 0)" gradientUnits="userSpaceOnUse"><stop offset="0" stop-color="#f49"/><stop offset="1" stop-color="#26f"/></linearGradient><linearGradient id="e" x1="25.1" y1="17.25" x2="34.2" y2="32.07" gradientTransform="matrix(1, 0, 0, 1, 0, 0)" gradientUnits="userSpaceOnUse"><stop offset="0" stop-color="#f49"/><stop offset="1" stop-color="#26f"/></linearGradient><linearGradient id="f" x1="30.03" y1="21.95" x2="30.32" y2="33.68" xlink:href="#e"/></defs><g><polyline points="44 30.5 24 20.5 4 30.5 24 40.5 44 30.5 44 30.5" fill="#f2f6ff"/><polygon points="24 40.5 24 42.5 4 32.5 4 30.5 24 40.5" fill="#fff" opacity=".2"/><polygon points="24 40.5 24 42.5 44 32.5 44 30.5 24 40.5" fill="#2f3541"/></g><polygon points="44 30.5 35.45 34.77 27.38 35.01 33.03 32.29 33.06 27.44 40.18 28.59 44 30.5" fill="url(#a)"/><rect width="48" height="48" fill="none"/><g isolation="isolate"><polygon points="16.05 28.61 21.7 25.89 21.69 26.76 16.05 29.49 16.05 28.61" fill="#cacaca"/><g opacity=".8"><polygon points="13.99 17.09 19.63 14.36 30.26 19.55 24.61 22.27 13.99 17.09" fill="url(#d)"/></g><g opacity=".8"><polygon points="24.61 22.27 30.26 19.55 33.07 24.42 27.42 27.15 24.61 22.27" fill="url(#e)"/></g><g opacity=".8"><polygon points="27.42 27.15 33.07 24.42 33.03 32.29 27.38 35.01 27.42 27.15" fill="url(#f)"/></g></g><polygon points="20.3 30.69 26.68 33.8 26.71 27.67 23.88 26.29 23.9 22.8 14.69 18.31 14.64 27.92 16.05 28.61 20.3 30.69" fill="#fff3f8"/><path d="M21.39,27.08l-1.03,.37,.41,1.65-1.16-.61-.03,5.35-1.41-1.57-1.44,.18,.04-5.35-1.16-.53,.42-1.25-1.02-1.36,1.02-.38-.41-1.64,1.24,.65,.36-1.3,.98,1.42,.99-.46,.35,1.65,1.24,.56-.42,1.24,1.02,1.37Zm-1.43-.55l.18-.06-.18-.24-.44-.6,.19-.54,.07-.22-.22-.1-.54-.25-.15-.71-.06-.28-.17,.07-.43,.2-.43-.62-.16-.24-.07,.22-.16,.56-.54-.28-.21-.11,.07,.29,.18,.72-.45,.16-.17,.07,.17,.23,.44,.6-.18,.54-.07,.22,.21,.09,.54,.25,.15,.71,.06,.28,.17-.08,.44-.2,.42,.62,.17,.24,.06-.22,.16-.56,.54,.28,.22,.11-.07-.29-.18-.72,.45-.16m-1.08,5.55v-2.73l-.69-1.01-.72,.32-.02,2.73,.4-.05,.32-.04,.31,.35,.39,.44" fill="#2f3541"/><path d="M24.61,22.27l2.81,4.87-.04,7.87-7.08-3.45v-.87l6.38,3.11,.03-6.12-2.83-1.38,.02-3.49-9.21-4.49-.05,9.62,1.41,.69v.87l-2.13-1.04,.06-11.36,10.63,5.18Zm-.02,3.49l1.8,.88-1.79-3.11v2.23" fill="#2f3541"/><polyline points="19.96 26.54 20.14 26.47 19.96 26.24 19.52 25.64 19.71 25.1 19.78 24.88 19.56 24.79 19.02 24.54 18.87 23.83 18.81 23.55 18.64 23.62 18.21 23.82 17.78 23.2 17.62 22.96 17.55 23.18 17.39 23.75 16.85 23.47 16.64 23.35 16.71 23.64 16.89 24.36 16.44 24.52 16.26 24.58 16.44 24.82 16.88 25.41 16.7 25.95 16.63 26.17 16.84 26.27 17.38 26.52 17.53 27.23 17.59 27.51 17.76 27.43 18.19 27.24 18.62 27.85 18.79 28.09 18.85 27.87 19 27.31 19.55 27.59 19.76 27.7 19.69 27.42 19.51 26.7 19.96 26.54" fill="#fff3f8"/><polyline points="18.88 32.08 18.89 29.35 18.19 28.34 17.47 28.66 17.45 31.39 17.85 31.34 18.17 31.3 18.48 31.65 18.88 32.08" fill="#fff3f8"/><polyline points="24.59 25.76 26.4 26.64 24.6 23.54 24.59 25.76" fill="#fff3f8"/></svg>