<?xml version="1.0" encoding="UTF-8"?><svg id="a" xmlns="http://www.w3.org/2000/svg" viewBox="0 0 24 24"><rect width="24" height="24" fill="none"/><g><path d="M16,5H8c-1.66,0-3,1.34-3,3v8c0,1.66,1.34,3,3,3l-2,2h1.5l2-2h5l2,2h1.5l-2-2c1.66,0,3-1.34,3-3V8c0-1.66-1.34-3-3-3ZM6,10h5.5v3H6v-3Zm12,6c0,1.1-.9,2-2,2H8c-1.1,0-2-.9-2-2v-2h12v2Zm0-3h-5.5v-3h5.5v3Zm0-4H6v-1c0-1.1,.9-2,2-2h8c1.1,0,2,.9,2,2v1Z" fill="#2f3541"/><circle cx="8" cy="16" r="1" fill="#2f3541"/><circle cx="16" cy="16" r="1" fill="#2f3541"/></g><rect id="b" width="24" height="24" fill="none"/></svg>