<?xml version="1.0" encoding="UTF-8"?><svg id="a" xmlns="http://www.w3.org/2000/svg" viewBox="0 0 64 64"><rect x="0" y="0" width="64" height="64" fill="none"/><path d="M32,4C16.6,4,4,16.6,4,32s12.6,28,28,28,28-12.6,28-28S47.4,4,32,4Zm12.79,33.77c-3.92,5.24-11.8,15.88-18.33,8.04-2.2-2.6-2.88-6.04-4-9.16-1.24-3.48-3.6-11-8.2-7.04-.52,.4-1.4-.08-1.16-.68-.12-.16-.12-.32-.08-.56,1.2-4.48,5-9.6,9.68-10.68,4.16-1,6.68,2.64,7.68,6.16,.52,1.92,2.56,14.88,5.92,10.76,1.56-1.92,4.08-8.72-.2-9-.36,0-.6-.16-.8-.36-.56,.04-1.12-.28-1.12-1.04,.12-5.56,7.56-10.52,12.72-8.24,8.68,3.76,1.36,17-2.12,21.81Z" fill="#fff"/></svg>