<?xml version="1.0" encoding="UTF-8"?><svg id="a" xmlns="http://www.w3.org/2000/svg" xmlns:xlink="http://www.w3.org/1999/xlink" viewBox="0 0 48 48"><defs><linearGradient id="b" x1="27.86" y1="30.83" x2="41.64" y2="30.83" gradientTransform="matrix(1, 0, 0, 1, 0, 0)" gradientUnits="userSpaceOnUse"><stop offset="0" stop-color="#2f3541" stop-opacity=".6"/><stop offset="1" stop-color="#2f3541" stop-opacity="0"/></linearGradient><linearGradient id="c" x1="18.01" y1="30.45" x2="24.2" y2="30.45" xlink:href="#b"/><linearGradient id="d" x1="17.92" y1="13.45" x2="22.29" y2="22.43" gradientTransform="matrix(1, 0, 0, 1, 0, 0)" gradientUnits="userSpaceOnUse"><stop offset="0" stop-color="#f49"/><stop offset="1" stop-color="#26f"/></linearGradient><linearGradient id="e" x1="25.36" y1="21.25" x2="28.81" y2="30.61" xlink:href="#d"/><linearGradient id="f" x1="25.63" y1="13.34" x2="32.07" y2="25.23" xlink:href="#d"/><linearGradient id="g" x1="24.79" y1="14.1" x2="32.85" y2="29.06" xlink:href="#d"/></defs><g><polyline points="44 30.5 24 20.5 4 30.5 24 40.5 44 30.5 44 30.5" fill="#f2f6ff"/><polygon points="24 40.5 24 42.5 4 32.5 4 30.5 24 40.5" fill="#fff" opacity=".2"/><polygon points="24 40.5 24 42.5 44 32.5 44 30.5 24 40.5" fill="#2f3541"/></g><rect x="12.04" y="10.56" width="24" height="24" fill="none"/><polyline points="44 30.5 36.75 26.87 33.94 26.52 31.1 27.89 31.08 30.39 25.43 33.12 34.71 35.14 44 30.5 44 30.5" fill="url(#b)" opacity=".4"/><rect x="0" y="0" width="48" height="48" fill="none"/><polygon points="16.92 30.72 25.25 32.8 22.77 28.31 22.35 28.1 16.92 30.72" fill="url(#c)"/><g opacity=".8"><g isolation="isolate"><polygon points="21.2 27.54 16.92 30.72 22.35 28.1 21.2 27.54" fill="#0948c7"/><polygon points="14.16 16.22 19.81 13.49 24.06 15.56 18.41 18.29 14.16 16.22" fill="url(#d)"/><polygon points="28.31 26.49 28.29 29.25 25.46 27.87 25.43 33.12 31.08 30.39 31.1 25.14 28.31 26.49" fill="url(#e)"/><polygon points="28.34 20.51 33.99 17.78 33.94 26.52 28.29 29.25 28.34 20.51" fill="url(#f)"/><polygon points="18.42 15.67 24.07 12.94 33.99 17.78 28.34 20.51 18.42 15.67" fill="url(#g)"/></g></g><g><path d="M18.42,15.67l9.92,4.84-.05,8.74-2.84-1.38-.03,5.25-2.66-4.81-1.57-.76-4.28,3.18,.03-5.25-2.83-1.38,.04-7.87,4.25,2.07v-2.62Zm9.18,12.36l.04-7-8.5-4.15v1.75l4.95,2.42-.04,7.87,.7,1.4,.02-3.67,2.84,1.38m-4.26-.33l.03-6.12-8.5-4.14-.03,6.12,2.83,1.38-.02,4.01,3.27-2.43,2.42,1.18" fill="#2f3541"/><polyline points="27.59 28.03 27.63 21.04 19.13 16.89 19.12 18.64 24.08 21.05 24.03 28.92 24.73 30.32 24.75 26.65 27.59 28.03" fill="#fff3f8"/><polyline points="23.33 27.71 23.36 21.58 14.87 17.44 14.83 23.56 17.66 24.94 17.64 28.95 20.91 26.53 23.33 27.71" fill="#fff3f8"/></g></svg>