<?xml version="1.0" encoding="UTF-8"?><svg id="a" xmlns="http://www.w3.org/2000/svg" viewBox="0 0 64 64"><rect x="0" y="0" width="64" height="64" fill="none"/><g><polygon points="28 38.25 38.5 32 28 25.75 28 38.25" fill="#2f3541"/><path d="M32,4c-15.4,0-28,12.6-28,28s12.6,28,28,28,28-12.6,28-28S47.4,4,32,4Zm14.06,40.22c-2.81,.78-14.07,.78-14.07,.78,0,0-11.26,0-14.06-.78-1.55-.43-2.77-1.69-3.18-3.28-.75-2.9-.75-8.94-.75-8.94,0,0,0-6.04,.75-8.94,.41-1.6,1.63-2.86,3.18-3.28,2.81-.78,14.06-.78,14.06-.78,0,0,11.26,0,14.07,.78,1.55,.43,2.77,1.69,3.18,3.28,.75,2.9,.75,8.94,.75,8.94,0,0,0,6.04-.75,8.94-.41,1.6-1.63,2.86-3.18,3.28Z" fill="#2f3541"/></g></svg>