<?xml version="1.0" encoding="UTF-8"?><svg id="a" xmlns="http://www.w3.org/2000/svg" viewBox="0 0 24 24"><rect width="24" height="24" fill="none"/><path d="M21,10c0-2.76-2.24-5-5-5-1.45,0-2.83,.63-3.79,1.73l-.21,.27c-.94-1.23-2.43-2-4-2-2.76,0-5,2.24-5,5,0,1.63,.79,3.13,2.09,4.06-.17,.51-.06,1.1,.34,1.51,.29,.29,.67,.43,1.04,.43,.08,0,.16-.03,.23-.05-.07,.45,.04,.93,.39,1.28,.29,.29,.67,.43,1.04,.43,.08,0,.16-.03,.23-.05-.07,.45,.04,.93,.39,1.28,.29,.29,.67,.43,1.04,.43,.08,0,.16-.03,.23-.05-.07,.45,.04,.93,.39,1.28,.29,.29,.67,.43,1.04,.43s.76-.14,1.04-.43l1.32-1.32c.08-.08,.13-.19,.19-.29,.13,.04,.26,.08,.4,.08,.4,0,.81-.16,1.12-.47,.28-.28,.45-.65,.47-1.04,.37-.02,.74-.17,1.03-.46,.28-.28,.44-.65,.46-1.03,.37-.02,.73-.16,1.02-.45,.42-.42,.53-1,.37-1.52,1.31-.94,2.09-2.44,2.09-4.06ZM6.14,14.86c-.19-.19-.19-.49,0-.68l1.32-1.32c.12-.12,.26-.14,.34-.14s.22,.02,.34,.14,.14,.26,.14,.34-.02,.22-.14,.34l-1.32,1.32c-.12,.12-.26,.14-.34,.14s-.22-.02-.34-.14Zm1.67,1.67c-.12-.12-.14-.26-.14-.34s.02-.22,.14-.34l1.32-1.32c.12-.12,.26-.14,.34-.14s.22,.02,.34,.14c.12,.12,.14,.26,.14,.34s-.02,.22-.14,.34l-1.32,1.32c-.12,.12-.26,.14-.34,.14s-.22-.02-.34-.14Zm2,1.81c-.07,0-.22-.02-.34-.14-.19-.19-.19-.49,0-.68l1.32-1.32c.12-.12,.26-.14,.34-.14s.22,.02,.34,.14,.14,.26,.14,.34-.02,.22-.14,.34l-1.32,1.32c-.12,.12-.26,.14-.34,.14Zm3.33,.2l-1.32,1.32c-.12,.12-.26,.14-.34,.14s-.22-.02-.34-.14c-.19-.19-.19-.49,0-.68l1.32-1.32c.12-.12,.26-.14,.34-.14s.22,.02,.34,.14,.14,.26,.14,.34-.02,.22-.14,.34Zm4.69-3.66c-.21,.21-.53,.22-.72,.03h0l-2.25-2.26c-.2-.2-.51-.2-.71,0s-.2,.51,0,.71l2.25,2.25h0c.09,.09,.13,.22,.13,.35,0,.15-.07,.29-.18,.4-.22,.22-.56,.24-.75,.04l-2.25-2.25c-.2-.2-.51-.2-.71,0s-.2,.51,0,.71l2.25,2.25h0c.09,.1,.14,.22,.13,.36,0,.15-.12,.32-.23,.43-.2,.2-.54,.15-.54,.11-.04-.31-.17-.6-.4-.83-.29-.29-.67-.43-1.04-.43-.08,0-.16,.03-.23,.05,.07-.45-.04-.93-.39-1.28-.29-.29-.67-.43-1.04-.43-.08,0-.16,.03-.23,.05,.07-.45-.04-.93-.39-1.28-.29-.29-.67-.43-1.04-.43-.08,0-.16,.03-.23,.05,.07-.45-.04-.93-.39-1.28-.29-.29-.67-.43-1.04-.43s-.76,.14-1.04,.43l-1.09,1.09c-1.04-.75-1.66-1.95-1.66-3.25,0-2.21,1.79-4,4-4,1.3,0,2.51,.64,3.26,1.69l-1.81,1.81c-.58,.58-.58,1.54,0,2.12s1.55,.57,2.12,0l1.88-1.88,4.4,4.4c.09,.09,.14,.22,.14,.35,0,.14-.06,.28-.16,.38Zm.52-1.64l-4.55-4.55c-.2-.2-.51-.2-.71,0l-2.24,2.24c-.2,.2-.51,.2-.71,0s-.2-.51,0-.71l2.91-2.91c.76-.83,1.82-1.31,2.94-1.31,2.21,0,4,1.79,4,4,0,1.29-.62,2.48-1.65,3.23Z" fill="#2f3541"/></svg>