<?xml version="1.0" encoding="UTF-8"?><svg id="a" xmlns="http://www.w3.org/2000/svg" xmlns:xlink="http://www.w3.org/1999/xlink" viewBox="0 0 48 48"><defs><linearGradient id="b" x1="23.14" y1="31.33" x2="40.95" y2="31.33" gradientTransform="matrix(1, 0, 0, 1, 0, 0)" gradientUnits="userSpaceOnUse"><stop offset="0" stop-color="#2f3541" stop-opacity=".6"/><stop offset="1" stop-color="#2f3541" stop-opacity="0"/></linearGradient><linearGradient id="c" x1="18.75" y1="21.83" x2="22.37" y2="29.25" gradientTransform="matrix(1, 0, 0, 1, 0, 0)" gradientUnits="userSpaceOnUse"><stop offset="0" stop-color="#f49"/><stop offset=".77" stop-color="#26f"/></linearGradient><linearGradient id="d" x1="17.29" y1="19.74" x2="23.95" y2="32.68" gradientTransform="matrix(1, 0, 0, 1, 0, 0)" gradientUnits="userSpaceOnUse"><stop offset="0" stop-color="#f49"/><stop offset="1" stop-color="#26f"/></linearGradient><linearGradient id="e" x1="24.39" y1="17.81" x2="26.9" y2="23.56" xlink:href="#d"/><linearGradient id="f" x1="23.3" y1="16.65" x2="29.96" y2="29.59" xlink:href="#d"/><linearGradient id="g" x1="25.87" y1="18.94" x2="30.41" y2="29.44" gradientTransform="matrix(1, 0, 0, 1, 0, 0)" gradientUnits="userSpaceOnUse"><stop offset="0" stop-color="#f49"/><stop offset=".83" stop-color="#26f"/></linearGradient><linearGradient id="h" x1="23.66" y1="16.8" x2="30.53" y2="29.79" xlink:href="#d"/></defs><g><polyline points="44 30.5 24 20.5 4 30.5 24 40.5 44 30.5 44 30.5" fill="#f2f6ff"/><polygon points="24 40.5 24 42.5 4 32.5 4 30.5 24 40.5" fill="#fff" opacity=".2"/><polygon points="24 40.5 24 42.5 44 32.5 44 30.5 24 40.5" fill="#2f3541"/></g><polygon points="44 30.5 32 27 32 30 28 32 24 30 20 32 33.7 35.65 44 30.5" fill="url(#b)" opacity=".4"/><g><path d="M17,26.62l2,1v2.76l-2-1v-2.76m-1-1.62v5l4,2v-5l-4-2h0Z" fill="#2f3541"/><path d="M21,19.62l2,1v2.76l-2-1v-2.76m-1-1.62v5l4,2v-5l-4-2h0Z" fill="#2f3541"/><path d="M25,26.62l2,1v2.76l-2-1v-2.76m-1-1.62v5l4,2v-5l-4-2h0Z" fill="#2f3541"/><rect x="12" y="12" width="24" height="24" fill="none"/></g><polyline points="17 26.62 19 27.62 19 30.38 17 29.38 17 26.62" fill="#fff3f8"/><polyline points="21 19.62 23 20.62 23 23.38 21 22.38 21 19.62" fill="#fff3f8"/><polyline points="25 26.62 27 27.62 27 30.38 25 29.38 25 26.62" fill="#fff3f8"/><rect x="0" y="0" width="48" height="48" fill="none"/><polygon points="20 27 24 25 24 30 20 32 20 27" fill="url(#c)" opacity=".8"/><polygon points="16 25 20 23 24 25 20 27 16 25" fill="url(#d)" opacity=".8"/><polyline points="24 20 28 18 28 23 24 25 24 20" fill="url(#e)" opacity=".8"/><polygon points="20 18 24 16 28 18 24 20 20 18" fill="url(#f)" opacity=".8"/><polygon points="28 27 32 25 32 30 28 32 28 27" fill="url(#g)" opacity=".8"/><polygon points="24 25 28 23 32 25 28 27 24 25" fill="url(#h)" opacity=".8"/></svg>