<?xml version="1.0" encoding="UTF-8"?><svg id="a" xmlns="http://www.w3.org/2000/svg" viewBox="0 0 24 24"><rect y="0" width="24" height="24" fill="none"/><rect width="24" height="24" fill="none"/><g isolation="isolate"><path d="M8.83,9.45h-.03c-.79-.4-1.6-.37-2.19,.08,.5-.59,1.28-.82,2.16-.55,.15,.05,.31,.11,.46,.18,.63,.31,1.27,.84,1.82,1.54l-.58,.19c-.47-.64-1.05-1.15-1.66-1.45Z" fill="#fff"/><path d="M8.86,7.7l-.07-.03c-1.14-.56-2.29-.53-3.14,.09,.78-.77,1.94-.99,3.2-.51,.14,.05,.28,.11,.43,.18,1.09,.53,2.19,1.54,3.05,2.84l-.6,.2c-.76-1.22-1.79-2.25-2.87-2.77Z" fill="#fff"/><path d="M9.27,5.37c3.91,1.91,7.06,7.37,7.03,12.2-.01,1.98-.56,3.52-1.46,4.55l-.07-.03-.15-.07L3.76,16.71l-.15-.07-.08-.04c-.88-1.9-1.41-3.97-1.4-5.95,.03-4.83,3.22-7.2,7.13-5.29Zm5.22,15.7c.69-.93,1.1-2.23,1.11-3.85,.02-4.34-2.82-9.27-6.33-10.98s-6.39,.42-6.42,4.76c0,1.62,.38,3.31,1.06,4.9l10.58,5.16" fill="#fff"/><path d="M8.83,11.22s-.05-.03-.08-.04c-.42-.19-.86-.16-1.18,.12,.22-.41,.62-.64,1.12-.58,.17,.02,.36,.08,.54,.17,.15,.07,.3,.16,.45,.28l-.61,.2c-.08-.06-.16-.1-.24-.14Z" fill="#fff"/><path d="M9.5,12.53l3.25-1.08-2.16,2.92c.02,.15,.04,.3,.04,.44,0,.97-.65,1.44-1.42,1.06s-1.41-1.47-1.41-2.44,.64-1.44,1.42-1.06c.1,.05,.18,.1,.27,.17Zm-.29,2.46c.39,.19,.71-.05,.71-.53s-.31-1.03-.7-1.22-.71,.05-.71,.53,.31,1.03,.7,1.22" fill="#fff"/><path d="M14.91,2.64c-1.65-.81-3.18-.85-4.39-.27l-5.65,2.73c1.21-.58,2.74-.54,4.39,.27,3.91,1.91,7.06,7.37,7.03,12.2-.01,1.98-.56,3.52-1.46,4.55l5.65-2.73c.9-1.03,1.45-2.58,1.46-4.55,.03-4.83-3.13-10.29-7.03-12.2Z" fill="#fff" opacity=".2"/></g></svg>