<?xml version="1.0" encoding="UTF-8"?><svg id="a" xmlns="http://www.w3.org/2000/svg" viewBox="0 0 24 24"><rect width="24" height="24" fill="none"/><g><g><path d="M18.76,4.24l-13.51,.02V14.34c0,3.52,3.03,6.41,6.75,6.41s6.75-2.87,6.75-6.41V4.24Z" fill="#69a33d"/><rect x="5.25" y="4.26" width="13.5" height="7.86" fill="#fff"/><g><path d="M13.96,6.74c-.13-.2,.02-.21-.16-.52l-.22-.23c.18-.04,.3-.19,.31-.38-.01-.16-.11-.3-.25-.37-.16-.05-.33-.07-.5-.05h-.58l.09,.08c.05,.1,.07,.2,.08,.31l-.03,.94c0,.16,0,.22-.05,.27l-.06,.08h.57l-.06-.11c-.04-.08-.06-.18-.06-.27v-.35s-.03-.04,.05-.04,.26-.02,.31,.06c.06,.17,.12,.35,.16,.53q.11,.18,.41,.18h.13l-.14-.14Zm-.83-.87q-.05,0-.05-.04v-.47s.04-.04,.04-.04c.27,0,.4,.04,.4,.29s-.15,.26-.38,.26Z" fill="#f2db38"/><path d="M10.42,5.87c.13-.05,.22-.16,.24-.3,.02-.14-.05-.27-.17-.33-.26-.15-1.2-.09-1.2-.09l.07,.09c.06,.05,.06,.39,.06,.64,0,0,.08,.78-.06,.8l-.1,.12s1.13,.06,1.29-.14c.1-.08,.16-.2,.15-.33,0-.29-.18-.46-.28-.46Zm-.66-.56h.17c.16,0,.4,0,.4,.28s-.33,.28-.52,.28q-.06,0-.06-.04v-.52Zm.03,1.37s-.03-.03-.03-.25v-.38q.01-.07,.07-.07c.27,0,.55,.05,.55,.36s-.17,.34-.58,.34Z" fill="#f2db38"/><path d="M9.06,9.4c-.17-.07-.36-.1-.55-.08h-.58l.1,.08c.06,.05,.08,.12,.08,.19v1.02c0,.12-.03,.24-.12,.33l-.06,.08h.67l-.08-.09c-.09-.09-.09-.15-.09-.32v-.4h.41c.23-.02,.41-.19,.44-.42,0-.16-.09-.31-.23-.4Zm-.43,.66h-.2v-.56c.08,0,.48,.02,.48,.26s-.1,.3-.27,.3Z" fill="#f2db38"/><path d="M10.11,11.01h.68l-.08-.09c-.08-.06-.14-.14-.17-.24l-.68-1.42-.44,1.17c-.08,.18-.19,.34-.31,.49l-.12,.09h.52l-.04-.1c0-.12,.04-.23,.1-.33h.53s.16,.28,.11,.33l-.1,.09Zm-.48-.52l.22-.59,.22,.56-.44,.03Z" fill="#f2db38"/><path d="M13.54,10.89c-.12-.2,.02-.21-.16-.52l-.22-.23c.18-.04,.3-.19,.31-.38-.01-.16-.1-.3-.24-.37-.16-.05-.33-.07-.5-.05h-.58l.09,.08c.05,.1,.08,.2,.08,.31l-.04,.93c0,.16,0,.22-.05,.27l-.06,.09h.58l-.06-.11c-.04-.08-.07-.18-.07-.27v-.38c.09,0,.26-.1,.36,.06,.09,.16,.06,.35,.16,.53,.1,.18,.11,.18,.41,.18,.04,0,.09,0,.13,0l-.15-.13Zm-.87-.87v-.55c.26,0,.43,.03,.44,.29,0,.32-.44,.26-.44,.26Z" fill="#f2db38"/><path d="M7.58,6.63s.13,.05,.33,.05,.37-.22,.37-.22l-.09,.39h-1.17l.19-.19v-1.07c0-.25-.05-.33-.05-.33l-.05-.1h.58l-.08,.11s-.06,.11-.06,.31c0,0,.02,1.06,.02,1.06Z" fill="#f2db38"/><path d="M8.2,6.87h-1.25l.23-.23s0-1.06,0-1.06c0-.24,0-.3-.03-.31l-.07-.15h.67l-.11,.15c-.05,.05-.05,.09-.05,.29l.02,1.04s.15,.04,.3,.04c.17,0,.41-.27,.41-.27l-.12,.48Zm-1.12-.05h1.08l.07-.29s-.13,.18-.33,.18c-.12,0-.35-.03-.35-.08l-.02-1.06c0-.2,0-.26,.07-.33l.05-.06h-.49l.03,.06s.08,0,.05,.35v1.08l-.16,.15Z" fill="#171714"/><path d="M10.05,6.83s-.84,0-.84,0l.13-.16c.05-.04,.06-.09,.06-.24v-.87c0-.25-.06-.3-.06-.3l-.1-.13h.63c.21-.03,.43,0,.63,.09,.13,.07,.21,.21,.19,.35-.02,.12-.09,.23-.2,.29,.11,.06,.24,.23,.24,.47,0,.14-.06,.27-.16,.35-.16,.1-.34,.15-.52,.15Zm-.73-.05h.65s.05,0,.08,0c.17,0,.34-.05,.49-.14,.09-.07,.14-.19,.14-.31,0-.27-.11-.46-.39-.44,.21-.05,.33-.2,.35-.33,.01-.12-.05-.25-.16-.3-.19-.08-.4-.11-.6-.09h-.54l.04,.05c.07,.05,.07,.09,.07,.33v.87c0,.15,0,.22-.07,.27l-.06,.08Z" fill="#171714"/><path d="M9.03,6.86l-.1-.12c-.06-.05-.08-.1-.08-.25v-.92c-.03-.32,.14-.41,.14-.41h-.64s.16,.06,.14,.39v.95c0,.15,0,.21-.08,.25l-.1,.12h.7Z" fill="#f2db38"/><path d="M8.27,6.89l.14-.17c.06-.04,.06-.07,.06-.23v-.95s.02-.24-.06-.29-.12-.12-.12-.12h.75l-.11,.14c-.05,.04-.05,.05-.05,.3v.92c0,.15,.01,.19,.06,.23l.14,.17h-.81Zm.17-.12l-.06,.08h.6l-.06-.08c-.08-.06-.08-.13-.08-.27v-.92c0-.25,0-.28,.07-.33l.04-.05h-.52l.02,.02c.08,.05,.08,.3,.08,.34v.95c0,.15,0,.22-.08,.27Z" fill="#171714"/><path d="M9.79,6.71c-.06,0-.06-.03-.06-.28h0v-.38c.01-.08,.02-.09,.1-.09,.25,0,.57,.04,.57,.38s-.22,.37-.61,.37Zm0-.05c.44,0,.56-.04,.56-.32,0-.23-.25-.34-.56-.33,0,0-.03,.59,0,.65Z" fill="#171714"/><path d="M9.81,5.89c-.06,0-.08,0-.08-.07v-.54c.3,0,.63,0,.63,.31s-.35,.3-.54,.3Zm-.03-.05c.19,.02,.53-.02,.53-.25s-.25-.26-.52-.26v.51Z" fill="#171714"/><path d="M14.16,6.91h-.19c-.3,0-.31,0-.43-.19,0,0-.1-.37-.17-.53-.03-.05-.17-.05-.24-.04-.03,0-.05,0-.06,0v.36c0,.09,.02,.18,.06,.26l.08,.14h-.66l.09-.12s.04-.1,.04-.25l.03-.94c0-.1-.03-.2-.07-.29l-.14-.12h.65c.17-.02,.34,0,.5,.05,.15,.07,.25,.22,.27,.39-.01,.18-.13,.33-.29,.39l.19,.2c.11,.18,.11,.26,.11,.34,0,.06,0,.1,.06,.19l.18,.18Zm-.58-.22c.1,.17,.1,.17,.38,.17h.07s-.19-.11-.17-.32c0-.07,0-.14-.1-.31,0,0-.16-.18-.25-.26,.18-.04,.33-.19,.34-.36-.01-.15-.1-.28-.24-.34-.15-.05-.32-.07-.48-.05h-.52l.05,.05c.05,.1,.08,.21,.08,.32h0l-.03,.94c0,.16,0,.23-.05,.29l-.03,.04h.48l-.04-.07c-.04-.09-.07-.18-.07-.28,0,0-.01-.38,0-.39,.01-.02,.14-.02,.17-.02,.09,0,.19,0,.23,.07,.06,.17,.12,.35,.17,.53Z" fill="#171714"/><path d="M13.13,5.89c-.06,0-.08,0-.08-.07v-.47s.03-.06,.07-.06c.25,0,.42,.02,.42,.32s-.17,.28-.41,.28Zm-.03-.05c.2,.01,.39,0,.39-.23,.02-.32-.39-.27-.39-.26v.49Z" fill="#171714"/><path d="M15.68,5.54c0-.27,0-.24-.07-.32l-.07-.07h1.21s0,.25,.04,.35c-.09-.07-.19-.13-.29-.18h-.37q-.11,0-.11,.15v.3c0,.06,0,.07,.06,.07h.12c.22,0,.31,0,.42-.06l.06-.05v.44l-.12-.1c-.05-.07-.2-.06-.34-.06h-.12q-.06,0-.06,.07v.32c0,.2,0,.21,.04,.21,.49,.03,.66-.05,.77-.21-.01,.14-.05,.27-.11,.4h-1.22l.09-.08c.1-.1,.1,0,.1-.29v-.89Z" fill="#f2db38"/><path d="M16.74,6.84h-1.3s.18-.17,.19-.17t.03-.23v-.89q-.01-.23-.06-.28l-.13-.13h1.29c-.02,.27,.07,.46,.07,.46,0,0-.21-.18-.36-.24-.06,0-.37,0-.37,0q-.08,0-.08,.13s0,.34,0,.35h.15c.22,0,.3,0,.41-.06l.1-.09v.55l-.16-.14s-.15-.05-.26-.05c-.01,0-.21,0-.22,0,0,0,0,.54,0,.55,0,0,.21,.03,.3,.01,0,0,.36,0,.51-.28-.03,.29-.13,.51-.13,.51Zm-1.18-.05h1.14c.04-.09,.08-.19,.09-.29-.12,.12-.27,.18-.74,.15-.06,0-.06-.03-.06-.24v-.32c0-.08,0-.1,.08-.1h.19c.13,0,.25,0,.3,.07l.07,.06v-.33s-.05,.09-.45,.08h-.12c-.08,0-.08-.02-.08-.1v-.3c0-.16,0-.18,.14-.18h.38c.08,.04,.16,.09,.24,.14-.02-.08-.02-.19-.02-.26h-1.12l.05,.05c.06,.06,.06,.07,.06,.32v.89c.01,.22,.01,.23-.04,.27-.01,0-.1,.08-.1,.08Z" fill="#171714"/><path d="M16.22,5.03s.19-.19,.23-.32h.28s-.12,.35-.51,.32Z" fill="#f2db38"/><path d="M16.15,5.05c.2-.1,.28-.36,.28-.36h.33s-.06,.41-.61,.36Zm.32-.31c-.03,.1-.09,.2-.18,.27,.17,0,.33-.11,.4-.27h-.22Z" fill="#171714"/><path d="M8.66,11.05h-.78l.09-.12c.08-.08,.12-.2,.11-.31v-1.02c0-.07-.02-.13-.07-.17l-.15-.13h.65c.18-.02,.38,0,.56,.08,.15,.09,.24,.25,.24,.42-.03,.24-.23,.42-.47,.44h-.39v.38c0,.17,0,.22,.08,.3l.11,.13Zm-.67-.05h.56l-.04-.05c-.1-.09-.1-.16-.1-.33v-.42h.44c.22-.02,.39-.18,.42-.4,0-.15-.08-.29-.22-.37-.17-.07-.35-.09-.53-.07h-.52l.04,.04c.06,.05,.09,.13,.08,.22v1.02c.01,.13-.03,.25-.12,.35l-.03,.03Z" fill="#171714"/><path d="M8.64,10.08h-.23v-.54c0-.06,.02-.07,.07-.07,.17,0,.46,.06,.46,.28s-.1,.33-.3,.33Zm-.18-.05h.18c.18,0,.25-.08,.25-.28,0-.23-.41-.23-.42-.23v.51Z" fill="#171714"/><path d="M10.84,11.04h-.79l.15-.14s-.07-.3-.12-.3h-.49c-.05,.1-.08,.21-.09,.31l.05,.13h-.63l.17-.14c.12-.14,.22-.31,.3-.48l.46-1.23,.7,1.48c.03,.09,.09,.17,.17,.23l.12,.14Zm-.67-.05h.56l-.04-.05c-.08-.06-.15-.15-.18-.25l-.65-1.37-.42,1.12c-.08,.18-.19,.35-.31,.5l-.07,.05h.41l-.03-.08c0-.12,.04-.25,.11-.35h.51c.09-.01,.12,.11,.14,.16,.03,.09,.08,.16,.03,.21l-.06,.05Z" fill="#171714"/><path d="M9.59,10.52l.26-.68,.25,.65-.51,.03Zm.26-.54l-.18,.49,.36-.02-.18-.46Z" fill="#171714"/><path d="M11.12,5.54c0-.27,0-.24-.07-.32l-.07-.07h1.21s0,.25,.04,.35c-.09-.07-.18-.13-.29-.18-.07,0-.14,0-.2,0h-.17q-.11,0-.11,.15v.3c0,.06,0,.07,.06,.07h.12c.22,0,.31,0,.42-.06h.04v.44l-.09-.12c-.05-.07-.2-.06-.34-.06h-.12q-.06,0-.06,.07v.32c0,.2,0,.21,.04,.21,.09,.01,.19,.01,.29,0,.19,.03,.37-.05,.48-.21-.01,.14-.05,.27-.12,.4h-1.22l.09-.08c.06-.06,.07-.07,.07-.29v-.92Z" fill="#f2db38"/><path d="M12.19,6.87h-1.3l.13-.13c.05-.05,.06-.06,.06-.27v-.92q0-.23-.04-.28l-.13-.13h1.29s0,.31,.07,.46c-.1-.08-.25-.19-.35-.24-.07,0-.37,0-.37,0q-.09,0-.09,.13s0,.34,0,.35h.15c.22,0,.31,0,.41-.05h.08v.54l-.13-.19c-.06-.09-.48-.05-.48-.05v.37c0,.11,0,.18,0,.18,.34,.04,.6-.02,.81-.27,.03,.12-.14,.52-.14,.52Zm-1.17-.05h1.14c.04-.09,.08-.19,.09-.29-.12,.12-.33,.18-.74,.15-.06,0-.06-.03-.06-.24v-.32c0-.08,0-.1,.08-.1,0,0,.42-.03,.49,.08l.04,.06v-.34h0c-.11,.06-.2,.06-.43,.06h-.12c-.08,0-.08-.02-.08-.1v-.3c0-.16,0-.18,.14-.18h.38c.08,.04,.16,.09,.23,.14-.02-.08-.02-.19-.02-.26h-1.12l.05,.05c.06,.06,.06,.07,.06,.32v.92c0,.23-.01,.25-.08,.31l-.04,.04Z" fill="#171714"/><path d="M15.45,5.15c.02,.13,.04,.27,.04,.4-.08-.13-.22-.21-.37-.23h-.1c-.06,0-.07,0-.07,.11v1.06c0,.27,0,.18,.06,.28l.1,.11h-.66s.22-.16,.16-.38v-1.03c0-.11,0-.11-.07-.11h-.1c-.15,.02-.28,.11-.36,.23,0-.15,.02-.29,.04-.43h1.33Z" fill="#f2db38"/><path d="M15.17,6.89h-.77s.16-.19,.17-.2c.02-.02,.02-.02,.02-.21v-1.03q0-.09-.04-.09h-.1c-.19,.01-.39,.3-.39,.3,0,0,0-.35,.05-.55h1.37c.05,.14,.05,.52,.05,.52,0,0-.17-.26-.4-.3h-.1s-.03,0-.04,0c0,0,0,.06,0,.08v1.05q0,.19,.02,.21s.18,.19,.18,.19Zm-.66-.05h.54l-.1-.11s-.04-.04-.04-.25v-1.05c0-.11,0-.14,.09-.14h.11c.13,.02,.25,.08,.34,.18,0-.1-.02-.2-.03-.3h-1.29c-.02,.11-.03,.22-.04,.33,.08-.1,.2-.16,.33-.18h.11c.1,0,.1,.03,.1,.14v1.03c0,.2,0,.21-.04,.25,0,0-.09,.11-.09,.11Z" fill="#171714"/><path d="M14.53,11.06l-.17-.21v-1.36l.13-.12h-.64l.13,.12v1.37l-.18,.2h.72Z" fill="#f2db38"/><path d="M14.58,11.08h-.82l.14-.17c.05-.05,.06-.07,.06-.23v-.97s0-.22-.02-.23c0,0-.15-.13-.15-.13h.76l-.14,.13s-.04,.03-.04,.24v.97c0,.15,.01,.16,.07,.23l.14,.17Zm-.72-.05h.61l-.07-.08c-.06-.07-.08-.11-.08-.27v-.97c0-.23,0-.24,.07-.28l.04-.04h-.51s.04,.03,.05,.04c.05,.03,.05,.04,.05,.16,0,.03,0,1.09,0,1.09,0,.15-.02,.19-.08,.27l-.07,.08Z" fill="#171714"/><path d="M13.54,11.05c-.28,0-.3,0-.41-.19-.06-.1-.07-.19-.09-.29-.02-.09-.03-.17-.07-.24-.06-.1-.13-.08-.21-.06-.04,0-.07,.02-.1,.02v.36c0,.09,.03,.18,.07,.26l.08,.14h-.68l.09-.13s.04-.1,.04-.25l.04-.93c0-.1-.03-.21-.08-.29l-.13-.12h.65c.24,0,.34,0,.5,.05,.15,.08,.25,.23,.26,.39-.01,.18-.13,.33-.29,.39l.19,.2c.11,.18,.11,.27,.11,.34,0,.05,0,.1,.05,.18l.19,.17s-.17,0-.21,0Zm-.7-.85c.06,0,.11,.02,.16,.1,.05,.08,.06,.17,.08,.26,.02,.09,.03,.18,.08,.27q.1,.17,.39,.17s.05,0,.07,0l-.11-.1c-.05-.09-.06-.15-.06-.21,0-.07,0-.14-.1-.31l-.25-.26s.31-.05,.34-.36c0-.14-.1-.28-.23-.34-.15-.05-.29-.06-.48-.05h-.52l.05,.05c.05,.1,.08,.21,.08,.32h0l-.04,.93c0,.16,0,.23-.05,.29l-.03,.05h.49l-.04-.07c-.04-.09-.07-.18-.07-.28v-.39c.11,0,.2-.05,.24-.05Z" fill="#171714"/><path d="M12.72,10.04c-.06,0-.08,0-.08-.07v-.47s.03-.06,.07-.06c.25,0,.42,.02,.42,.31s-.17,.28-.41,.28Zm-.03-.05c.24,0,.39,0,.39-.23s-.14-.26-.4-.26c0,0,.01,.49,.01,.49Z" fill="#171714"/><path d="M14.85,9.48l-.09-.15h1.16s0,.25,.04,.35c-.09-.07-.29-.18-.29-.18h-.46l-.03,.05v.47h.19c.22,0,.31,.04,.42-.05h.04v.44l-.11-.1c-.05-.07-.2-.06-.34-.06h-.18v.6s.24,.02,.33,0c.19,.03,.37-.05,.48-.21-.01,.14-.05,.27-.12,.4h-1.2l.09-.09c.06-.06,.07-.07,.07-.29v-1.18Z" fill="#f2db38"/><path d="M15.91,11.07h-1.28l.14-.13c.05-.05,.06-.06,.06-.27v-.97q0-.23-.04-.28l-.15-.11h1.31s.01,.35,.07,.46c-.1-.08-.25-.19-.35-.24-.06,0-.37,0-.37,0q-.09,0-.09,.13s0,.34,0,.35c0,0,.31,0,.37,0,.08,0,.21-.04,.27-.13v.59l-.16-.14c-.04-.05-.17-.06-.29-.05h-.19v.37q0,.19,.02,.19c.09,.02,.25,0,.36,0,.15,0,.34-.12,.45-.28,0,.21-.14,.52-.14,.52Zm-1.15-.05h1.12c.04-.09,.08-.19,.1-.29-.2,.17-.28,.15-.74,.15-.06-.02-.06-.03-.06-.24v-.32c0-.08,0-.1,.08-.1h.18c.13,0,.25,0,.3,.07l.07,.06v-.36c-.08,.07-.17,.07-.31,.07-.04,0-.25,0-.25,0-.08,0-.08-.02-.08-.1v-.3c0-.16,0-.18,.14-.18h.39c.08,.04,.16,.09,.23,.14-.02-.08-.02-.19-.02-.26h-1.1l.02,.03c.06,.06,.06,.07,.06,.32v.97c0,.23-.01,.25-.08,.31l-.05,.04Z" fill="#171714"/><path d="M12.01,9.33c.02,.13,.04,.27,.04,.4-.08-.13-.21-.21-.36-.23h-.17v1.32l.15,.2h-.66l.16-.19v-1.32h-.17c-.15,.01-.28,.1-.36,.23,0-.14,.02-.27,.04-.4h1.33Z" fill="#f2db38"/><path d="M11.73,11.04h-.78s.17-.18,.17-.19c.02-.02,.02-.02,.02-.21v-1.03q0-.09-.04-.09h-.1c-.14,.02-.32,.17-.39,.3,0-.28,.05-.52,.05-.52h1.38s.06,.39,.05,.52c-.03-.13-.25-.28-.39-.3h-.14s0,.06,0,.09v1.03q0,.19,.02,.21s.17,.19,.17,.19Zm-.66-.05h.55s-.08-.1-.09-.11c-.03-.04-.03-.04-.03-.25v-1.03c0-.11,0-.14,.1-.14h.1c.13,.02,.25,.08,.33,.18,0-.1-.02-.2-.03-.3h-1.29c-.02,.1-.03,.2-.03,.3,.08-.1,.2-.16,.33-.18h.11c.1,0,.1,.03,.1,.14v1.03c0,.2,0,.21-.04,.25,0,0-.09,.11-.09,.11Z" fill="#171714"/><path d="M10.84,7.6c0-.27,0-.24-.07-.32l-.07-.05h1.21s0,.24,.04,.35c-.09-.07-.19-.13-.29-.18-.07,0-.38,0-.38,0q-.1,0-.1,.15v.37h.18c.22,0,.31,0,.42-.05l.03-.03v.4l-.11-.1c-.04-.08-.19-.08-.34-.08h-.18v.6h.33s.38-.02,.5-.16c-.01,.14-.05,.27-.12,.39h-1.24l.09-.08c.09-.1,.1,0,.1-.29v-.94Z" fill="#f2db38"/><path d="M11.91,8.94h-1.32s.18-.17,.19-.18c.03-.02,.03-.02,.03-.22v-.94q0-.23-.04-.28l-.15-.11h1.31s0,.28,.07,.45c-.15-.13-.25-.18-.35-.22-.06,0-.37,0-.37,0q-.08,0-.08,.13v.35h.16c.22,0,.31,0,.41-.05l.07-.06v.51l-.16-.14c-.07-.06-.18-.06-.32-.06h-.16v.55c.41,.04,.67,0,.83-.21-.01,.27-.13,.49-.13,.49Zm-1.19-.05h1.16c.05-.09,.08-.19,.1-.3-.15,.09-.24,.13-.75,.12-.06,0-.06-.03-.06-.24v-.32c0-.08,0-.1,.08-.1h.12c.15,0,.28,0,.36,.09l.07,.06v-.3c-.11,.06-.21,.06-.43,.06h-.12c-.08,0-.08-.02-.08-.1v-.3c0-.16,0-.18,.13-.18,0,0,.34,0,.39,0s.16,.08,.24,.14c-.01-.07-.02-.16-.02-.26h-1.1l.02,.03c.06,.06,.06,.07,.06,.32v.94c0,.21,0,.23-.06,.26-.01,0-.1,.08-.1,.08Z" fill="#171714"/><path d="M13.48,7.23c.02,.13,.04,.27,.04,.4-.08-.13-.21-.21-.36-.23l-.17,.02,.02,1.33,.14,.18h-.65l.17-.17v-1.35l-.18-.02c-.15,.02-.28,.11-.36,.23,0-.14,.02-.27,.04-.4l1.32,.02Z" fill="#f2db38"/><path d="M13.2,8.95h-.77s.17-.19,.18-.2c.02-.02,.02-.02,.02-.21v-1.04s0-.08,0-.08h-.15c-.14,.02-.31,.15-.39,.3,0-.24,.05-.52,.05-.52l1.36,.02c.02,.19,.06,.33,.05,.52-.06-.12-.25-.28-.39-.3h-.14s0,.06,0,.09v1.03q0,.19,.02,.21s.17,.2,.17,.2Zm-.65-.05h.54s-.09-.1-.09-.11c-.03-.04-.03-.04-.03-.24v-1.03c0-.11,0-.14,.1-.14h.1c.13,.02,.25,.08,.33,.18,0-.1-.02-.2-.03-.3l-1.28-.02c-.02,.1-.03,.2-.03,.3,.08-.1,.2-.16,.33-.18h.12c.09,0,.09,.03,.09,.14v1.04c0,.2,0,.21-.04,.25,0,0-.1,.11-.1,.11Z" fill="#171714"/></g></g><path d="M11.99,21c-1.95,0-3.89-.78-5.19-2.1-1.18-1.19-1.81-2.77-1.8-4.56V4h14V14.34c0,4.54-4.18,6.66-7.01,6.66ZM5.42,4.42V14.34c0,1.68,.58,3.15,1.68,4.26,1.22,1.24,3.05,1.98,4.89,1.98,2.66,0,6.59-1.98,6.59-6.24V4.42H5.42Z" fill="#171714"/></g></svg>