<?xml version="1.0" encoding="UTF-8"?><svg id="a" xmlns="http://www.w3.org/2000/svg" viewBox="0 0 24 24"><rect id="c" y="0" width="24" height="24" fill="none"/><g><path d="M20,20V5h-6v5.67l-1.25-.42-.75-5.25h-2l-.81,4.06-.64-.21-.55-3.85h-2l-.56,2.81-2.44-.81v13h-1v1H22v-1h-2ZM10.82,6h.31l.56,3.9-1.55-.52,.68-3.38Zm-4,0h.31l.36,2.5-1.1-.37,.43-2.13Zm-2.82,14V8.39l10,3.33v8.28H4Zm11,0V6h4v1h-3v1h3v1h-3v1h3v1h-3v1h3v1h-3v1h3v1h-3v1h3v1h-3v1h3v2h-4Z" fill="#fff"/><polygon points="6 13 5 13 5 15 7 15 7 14 6 14 6 13" fill="#fff"/><polygon points="6 16 5 16 5 18 7 18 7 17 6 17 6 16" fill="#fff"/><polygon points="9 13 8 13 8 15 10 15 10 14 9 14 9 13" fill="#fff"/><polygon points="9 16 8 16 8 18 10 18 10 17 9 17 9 16" fill="#fff"/><polygon points="12 13 11 13 11 15 13 15 13 14 12 14 12 13" fill="#fff"/><polygon points="12 16 11 16 11 18 13 18 13 17 12 17 12 16" fill="#fff"/></g></svg>