<?xml version="1.0" encoding="UTF-8"?><svg id="a" xmlns="http://www.w3.org/2000/svg" viewBox="0 0 24 24"><rect width="24" height="24" fill="none"/><g><g><g><path d="M14.4,20.34c2.55-.92,4.35-3.04,4.35-5.77V4.26h-4.35V20.34Z" fill="#c2172e"/><path d="M14.4,4.26h-4.48V20.43c1.47,.45,3.04,.41,4.48-.11V4.26Z" fill="#fff"/><path d="M9.92,4.26H5.26V14.57c0,2.85,1.95,5.05,4.66,5.86V4.26Z" fill="#69a33d"/></g><polygon points="16.69 6.42 16.69 4.87 16.19 4.87 16.19 6.42 14.64 6.42 14.64 6.93 16.19 6.93 16.19 8.48 16.7 8.48 16.69 6.93 18.24 6.93 18.24 6.42 16.69 6.42" fill="#fff"/></g><path d="M11.99,21c-1.95,0-3.89-.78-5.19-2.1-1.18-1.19-1.81-2.77-1.8-4.56V4h14V14.34c0,4.54-4.18,6.66-7.01,6.66ZM5.42,4.42V14.34c0,1.68,.58,3.15,1.68,4.26,1.22,1.24,3.05,1.98,4.89,1.98,2.66,0,6.59-1.98,6.59-6.24V4.42H5.42Z" fill="#171714"/></g></svg>