<?xml version="1.0" encoding="UTF-8"?><svg id="a" xmlns="http://www.w3.org/2000/svg" viewBox="0 0 64 64"><path d="M32,4C16.54,4,4,16.54,4,32s12.54,28,28,28,28-12.54,28-28S47.46,4,32,4Zm12.88,40.43c-.5,.83-1.58,1.09-2.41,.58-6.6-4.03-14.9-4.94-24.68-2.71-.94,.21-1.88-.38-2.1-1.32-.22-.94,.37-1.88,1.32-2.1,10.7-2.45,19.88-1.39,27.29,3.13,.83,.51,1.09,1.58,.58,2.41Zm3.44-7.65h0c-.63,1.03-1.98,1.36-3.01,.72-7.55-4.64-19.06-5.99-28-3.27-1.16,.35-2.38-.3-2.73-1.46-.35-1.16,.3-2.38,1.46-2.73,10.2-3.1,22.89-1.6,31.56,3.73,1.03,.63,1.36,1.98,.72,3.01Zm.3-7.97h0c-9.05-5.38-23.99-5.87-32.64-3.25-1.39,.42-2.86-.36-3.28-1.75-.42-1.39,.36-2.86,1.75-3.28,9.92-3.01,26.42-2.43,36.85,3.76,1.25,.74,1.66,2.35,.92,3.6-.74,1.25-2.36,1.66-3.6,.92Z" fill="#2f3541"/><rect x="0" y="0" width="64" height="64" fill="none"/></svg>