<?xml version="1.0" encoding="UTF-8"?><svg id="a" xmlns="http://www.w3.org/2000/svg" viewBox="0 0 24 24"><rect width="24" height="24" fill="none"/><g><g><path d="M5.15,14.36V4.13h13.71V14.36c0,4.33-3.9,6.51-6.86,6.51-3.19,0-6.85-2.17-6.84-6.51" fill="#fff"/><path d="M16.93,7.83c-.02-.31-.11-.6-.24-.88,.17-.07,.28-.24,.27-.42,0-.26-.21-.47-.47-.47-.12,0-.24,.05-.32,.13-.26-.25-.57-.46-.9-.62,.03-.06,.05-.13,.05-.21,0-.26-.21-.47-.47-.47-.23,0-.42,.16-.47,.39-.17-.02-.34-.03-.51-.03-.21,0-.42,.02-.62,.06-.04-.21-.23-.37-.45-.36-.26,0-.47,.21-.47,.47,0,.04,0,.09,0,.13-.35,.15-.68,.35-.98,.59-.09-.11-.22-.17-.36-.17-.25,.02-.44,.24-.43,.49,0,.11,.05,.21,.12,.29-.25,.3-.47,.63-.63,.99-.06-.03-.14-.05-.21-.05-.26-.01-.48,.19-.49,.44-.01,.24,.16,.45,.4,.49-.09,.37-.13,.74-.13,1.12h-.93v.4h-.59v.57h.59v.39h.75l-.87,7.49,1.52-2.67,.87,3.41,.87-3.41,1.51,2.67-.86-7.49h.83v-.39h.56v-.57h-.56v-.4h-1.05c0-1,.09-2.71,1.89-2.71,.65-.03,1.22,.45,1.3,1.11,0,.78-.68,1.04-1.5,1,.3,.48,.83,.76,1.4,.75,.02,.26,.24,.45,.5,.43,.26-.02,.45-.25,.43-.5,0-.09-.03-.19-.08-.26,.22-.21,.4-.47,.52-.76,.05,0,.09,0,.14,0,.26,0,.47-.21,.47-.47,0-.24-.17-.45-.41-.49Z" fill="#c2172e"/></g><path d="M11.99,21c-1.95,0-3.89-.78-5.19-2.1-1.18-1.19-1.81-2.77-1.8-4.56V4h14V14.34c0,4.54-4.18,6.66-7.01,6.66ZM5.42,4.42V14.34c0,1.68,.58,3.15,1.68,4.26,1.22,1.24,3.05,1.98,4.89,1.98,2.66,0,6.59-1.98,6.59-6.24V4.42H5.42Z" fill="#171714"/></g></svg>