<?xml version="1.0" encoding="UTF-8"?><svg id="icon" xmlns="http://www.w3.org/2000/svg" width="24" height="24" viewBox="0 0 24 24"><rect id="Rectangle_53608" width="24" height="24" fill="none"/><rect id="Rectangle_53609" width="24" height="24" fill="none"/><rect id="Rectangle_51875" width="24" height="24" fill="none"/><rect id="Rectangle_53610" width="24" height="24" fill="none" opacity="0"/><path id="Path_95512" d="M15,6.41l4.59,4.59-4.59,4.59v-2.59h-1.17c-2.1345,.0106-4.2491,.4105-6.24,1.18-.9238,.3944-1.8193,.8521-2.68,1.37,.782-1.8632,2.0325-3.4926,3.63-4.73,1.623-1.0871,3.5093-1.7159,5.46-1.82h1v-2.59m-1-2.41v4c-2.1449,.1073-4.2197,.7989-6,2-3.72,2.61-5,8-5,8,1.5665-1.127,3.2415-2.0951,5-2.89,1.8698-.7225,3.8555-1.0986,5.86-1.11h.14v4l7-7-7-7Z" fill="#2f3541"/></svg>