<?xml version="1.0" encoding="UTF-8"?><svg id="c" xmlns="http://www.w3.org/2000/svg" xmlns:xlink="http://www.w3.org/1999/xlink" viewBox="0 0 48 48"><defs><linearGradient id="a" x1="23.02" y1="31.28" x2="40.93" y2="31.28" gradientUnits="userSpaceOnUse"><stop offset="0" stop-color="#2f3541" stop-opacity=".4"/><stop offset="1" stop-color="#2f3541" stop-opacity="0"/></linearGradient><linearGradient id="e" x1="20.47" y1="30.4" x2="20.48" y2="30.44" gradientUnits="userSpaceOnUse"><stop offset="0" stop-color="#f49"/><stop offset="1" stop-color="#26f"/></linearGradient><linearGradient id="f" x1="26.13" y1="33.16" x2="26.15" y2="33.2" xlink:href="#e"/><linearGradient id="g" x1="20.48" y1="30.1" x2="20.59" y2="30.34" xlink:href="#e"/><linearGradient id="h" x1="20.37" y1="30.49" x2="20.4" y2="30.54" xlink:href="#e"/><linearGradient id="i" x1="20.5" y1="23.4" x2="20.52" y2="23.44" xlink:href="#e"/><linearGradient id="j" x1="22.55" y1="26.61" x2="22.63" y2="26.76" xlink:href="#e"/><linearGradient id="k" x1="19.08" y1="22.72" x2="22.42" y2="29.58" xlink:href="#e"/><linearGradient id="l" x1="20.52" y1="23.1" x2="20.63" y2="23.34" xlink:href="#e"/><linearGradient id="m" x1="20.41" y1="23.49" x2="20.44" y2="23.55" xlink:href="#e"/><linearGradient id="n" x1="24.02" y1="19.58" x2="24.09" y2="19.73" xlink:href="#e"/><linearGradient id="o" x1="20.62" y1="14.99" x2="23.96" y2="21.85" xlink:href="#e"/><linearGradient id="p" x1="22.42" y1="26.65" x2="22.43" y2="26.67" xlink:href="#e"/><linearGradient id="q" x1="26.04" y1="33.26" x2="26.06" y2="33.31" xlink:href="#e"/><linearGradient id="r" x1="26.25" y1="24.75" x2="29.6" y2="31.63" xlink:href="#e"/><linearGradient id="s" x1="29.63" y1="23.96" x2="29.64" y2="23.97" xlink:href="#e"/><linearGradient id="t" x1="27.6" y1="24.94" x2="27.61" y2="24.96" xlink:href="#e"/><linearGradient id="u" x1="25.4" y1="26" x2="25.41" y2="26.02" xlink:href="#e"/><linearGradient id="v" x1="23.89" y1="19.63" x2="23.9" y2="19.64" xlink:href="#e"/><linearGradient id="w" x1="26" y1="18.56" x2="28.83" y2="24.36" xlink:href="#e"/></defs><rect x="4" y="14" width="24" height="24" fill="none"/><rect width="48" height="48" fill="none"/><polyline points="44 30.5 24 20.5 4 30.5 24 40.5 44 30.5 44 30.5" fill="#f2f6ff"/><polygon points="24 40.5 24 42.5 4 32.5 4 30.5 24 40.5" fill="#fff" opacity=".2"/><polygon points="24 40.5 24 42.5 44 32.5 44 30.5 24 40.5" fill="#2f3541"/><polygon points="19.86 30.58 25.52 33.34 34.38 35.31 44 30.5 39.73 28.37 22.01 27.25 21.99 29.79 20.32 30.58 19.86 30.58" fill="url(#a)"/><path d="m19.89,25.34c.39.19.71.74.7,1.22l-.02,3.49c0,.49-.32.72-.71.53l-2.84-1.38c-.39-.19-.71-.73-.7-1.22l.02-3.49c0-.48.32-.72.71-.53l2.84,1.38Zm-.02,4.37l.02-3.49-2.84-1.38-.02,3.49,2.84,1.38" fill="#2f3541"/><path d="m19.93,18.34c.39.19.71.74.7,1.22l-.02,3.49c0,.49-.32.73-.71.54l-2.84-1.38c-.39-.19-.71-.74-.7-1.23l.02-3.49c0-.48.32-.72.71-.53l2.84,1.38Zm-.02,4.37l.02-3.49-2.84-1.38-.02,3.49,2.84,1.38" fill="#2f3541"/><path d="m25.55,28.1c.4.19.71.74.71,1.22l-.02,3.49c0,.49-.32.72-.72.53l-2.83-1.38c-.39-.19-.71-.73-.7-1.22l.02-3.49c0-.48.32-.72.71-.53l2.83,1.38Zm-.02,4.37l.02-3.49-2.83-1.38-.02,3.49,2.83,1.38" fill="#2f3541"/><path d="m26.67,23.64c.27.47.27,1.02,0,1.24l-2.02,1.49c-.14.1-.32.1-.5,0s-.36-.26-.5-.5l-1.99-3.45c-.27-.48-.27-1.03,0-1.24l2.02-1.5c.14-.1.32-.1.5-.01s.36.26.5.5l1.99,3.46Zm-2.52,1.86l2.02-1.49-1.99-3.45-2.02,1.49,1.99,3.45" fill="#2f3541"/><g opacity=".8"><path d="m20.5,30.38s-.04.05-.05.07c.02-.03.04-.04.05-.07Z" fill="url(#e)"/><path d="m26.17,33.15s-.04.05-.05.07c.02-.03.04-.04.05-.07Z" fill="url(#f)"/><path d="m20.57,30.05c0,.13-.03.24-.07.33.04-.09.07-.2.07-.33Z" fill="url(#g)"/><path d="m20.45,30.45c-.04.05-.08.1-.13.13.05-.03.09-.08.13-.13Z" fill="url(#h)"/><path d="m20.49,23.46s.04-.04.05-.07c-.01.03-.04.05-.05.07Z" fill="url(#i)"/><path d="m22.46,26.65c.08,0,.17.02.26.06-.09-.04-.18-.06-.26-.06Z" fill="url(#j)"/><path d="m23.72,25.99s-.06-.06-.08-.11l-.36-.63-.7-1.22-.68-1.18-1.56.76s.01-.02.02-.03c-.13.07-.28.09-.46,0l-1.04-.51-.24-.12-2,.96s.07-.01.11-.02c.02,0,.05-.01.07-.01.08,0,.17.02.26.06l2.84,1.38c.39.19.71.74.7,1.22l-.02,3.5c0,.13-.03.24-.07.33-.01.03-.04.05-.05.07-.04.05-.07.1-.13.13,0,0-.01.02-.02.03l1.7-.82v-.42s.01-2.13.01-2.13c0-.33.16-.54.38-.58-.04,0-.08,0-.11.02l1.44-.7Z" fill="url(#k)"/><path d="m20.54,23.39c.04-.09.07-.2.07-.33,0,.13-.03.24-.07.33Z" fill="url(#l)"/><path d="m20.49,23.46c-.04.05-.08.1-.13.13.05-.03.09-.08.13-.13Z" fill="url(#m)"/><path d="m23.93,19.63c.08,0,.16.02.25.06-.08-.04-.17-.06-.25-.06Z" fill="url(#n)"/><path d="m26.28,16.84c0-.49-.31-1.04-.7-1.23l-2.84-1.38c-.16-.08-.32-.08-.44-.03l-5.65,2.73s.07-.01.11-.02c.02,0,.05-.01.07-.01.08,0,.17.02.26.06l2.84,1.38c.39.19.71.74.7,1.23v2.43s-.01.24-.01.24v.83c0,.13-.03.24-.08.33-.01.03-.04.05-.05.07-.04.05-.07.1-.13.13,0,0-.01.02-.02.03l1.56-.76-.19-.33-.05-.1c-.12-.2-.17-.41-.19-.61,0-.09,0-.16,0-.24.03-.16.08-.3.19-.38l2.02-1.49c.05-.04.12-.05.18-.06-.04,0-.08,0-.12.02l2.53-1.22v-1.6Z" fill="url(#o)"/><path d="m22.39,26.67s.05-.01.07-.01c-.03,0-.05,0-.07.01Z" fill="url(#p)"/><path d="m26.11,33.22c-.04.05-.08.1-.13.13.05-.03.09-.08.13-.13Z" fill="url(#q)"/><path d="m31.2,25.37l-2.22-1.08-2.75,1.33-1.65.79s.04-.02.06-.04c-.14.1-.32.1-.5,0-.1-.05-.2-.13-.29-.22-.05-.05-.09-.11-.13-.17l-1.44.7s.07-.01.11-.02c.02,0,.05-.01.07-.01.08,0,.17.02.26.06l2.37,1.16.43.21h.03c.39.2.71.75.7,1.23l-.02,3.5c0,.13-.03.24-.07.33-.01.03-.04.05-.05.07-.04.05-.07.1-.13.13,0,0-.01.02-.02.03l5.65-2.73c.17-.08.27-.28.27-.55l.02-3.5c0-.48-.31-1.03-.7-1.22Z" fill="url(#r)"/><path d="m30.29,23.65l-1.32.64h0s1.25-.6,1.25-.6c.02-.01.04-.02.06-.04Z" fill="url(#s)"/><polygon points="26.23 25.61 26.23 25.62 28.98 24.29 28.97 24.28 26.23 25.61" fill="url(#t)"/><path d="m24.58,26.41l1.65-.79h0s-1.58.76-1.58.76c-.02.01-.04.03-.06.04Z" fill="url(#u)"/><path d="m23.86,19.64s.05-.01.07-.01c-.03,0-.05,0-.07.01Z" fill="url(#v)"/><path d="m32.31,20.91l-1.99-3.45c-.14-.24-.32-.41-.5-.5-.16-.08-.31-.09-.44-.03l-3.12,1.51-2.53,1.22s.08-.02.12-.02c.02,0,.05-.01.07-.01.08,0,.16.02.25.06.18.09.36.26.5.5l.41.71.19.33,1.39,2.41c.17.29.22.6.18.85-.02.12-.06.22-.12.29-.02.03-.04.07-.07.09l-.43.32-1.59,1.18,1.58-.76,2.75-1.32,1.32-.64,2.02-1.5c.28-.2.29-.75,0-1.24Z" fill="url(#w)"/></g><polyline points="19.9 22.71 19.92 19.22 17.09 17.83 17.07 21.33 19.9 22.71" fill="#fff0f5"/><polyline points="24.15 25.5 26.16 24.01 24.17 20.56 22.16 22.06 24.15 25.5" fill="#fff0f5"/><polyline points="19.87 29.71 19.89 26.21 17.05 24.83 17.03 28.32 19.87 29.71" fill="#fff0f5"/><polyline points="25.53 32.47 25.55 28.97 22.72 27.59 22.7 31.09 25.53 32.47" fill="#fff0f5"/></svg>