<?xml version="1.0" encoding="UTF-8"?><svg id="c" xmlns="http://www.w3.org/2000/svg" xmlns:xlink="http://www.w3.org/1999/xlink" viewBox="0 0 48 48"><defs><linearGradient id="a" x1="20.62" y1="31.84" x2="40.59" y2="31.84" gradientTransform="matrix(1, 0, 0, 1, 0, 0)" gradientUnits="userSpaceOnUse"><stop offset="0" stop-color="#2f3541" stop-opacity=".4"/><stop offset="1" stop-color="#2f3541" stop-opacity="0"/></linearGradient><linearGradient id="d" x1="19.01" y1="28.41" x2="20.17" y2="30.09" gradientTransform="matrix(1, 0, 0, 1, 0, 0)" gradientUnits="userSpaceOnUse"><stop offset="0" stop-color="#00d2b2"/><stop offset="1" stop-color="#26f"/></linearGradient><linearGradient id="e" x1="17.2" y1="26.79" x2="21.11" y2="31.28" gradientTransform="matrix(1, 0, 0, 1, 0, 0)" gradientUnits="userSpaceOnUse"><stop offset="0" stop-color="#00d2b2"/><stop offset="1" stop-color="#26f"/></linearGradient><linearGradient id="f" x1="16.68" y1="24.49" x2="19.37" y2="26.47" xlink:href="#e"/><linearGradient id="g" x1="15.03" y1="24.07" x2="19.41" y2="28.07" xlink:href="#e"/><linearGradient id="h" x1="14.4" y1="22.81" x2="19.04" y2="27.13" xlink:href="#e"/><linearGradient id="i" x1="13.56" y1="25.82" x2="16.7" y2="28.65" xlink:href="#e"/><linearGradient id="j" x1="14.72" y1="23.2" x2="18.85" y2="27.13" xlink:href="#e"/><linearGradient id="k" x1="15.61" y1="25.54" x2="17.09" y2="26.52" xlink:href="#e"/><linearGradient id="l" x1="16.05" y1="24.7" x2="20.4" y2="29.81" xlink:href="#e"/><linearGradient id="m" x1="16.64" y1="24.65" x2="20.59" y2="29.19" xlink:href="#e"/><linearGradient id="n" x1="15.05" y1="26.47" x2="19.08" y2="30.87" xlink:href="#d"/><linearGradient id="o" x1="18.48" y1="26.02" x2="19.78" y2="28.21" xlink:href="#e"/><linearGradient id="p" x1="20.81" y1="29.78" x2="16.98" y2="24.8" gradientTransform="matrix(1, 0, 0, 1, 0, 0)" gradientUnits="userSpaceOnUse"><stop offset="0" stop-color="#26f"/><stop offset="1" stop-color="#f49"/></linearGradient><linearGradient id="q" x1="22.91" y1="15.58" x2="29.75" y2="27.95" xlink:href="#d"/><linearGradient id="r" x1="25.61" y1="16.68" x2="30.66" y2="29.67" xlink:href="#d"/><linearGradient id="s" x1="25.21" y1="15.61" x2="31.14" y2="23.55" xlink:href="#d"/><linearGradient id="t" x1="26.87" y1="16.16" x2="32" y2="27.6" xlink:href="#d"/><linearGradient id="u" x1="28.61" y1="23.11" x2="31.79" y2="30.23" xlink:href="#d"/><linearGradient id="v" x1="28.69" y1="20.74" x2="30.89" y2="24.49" xlink:href="#d"/><linearGradient id="w" x1="22.51" y1="13.56" x2="26.13" y2="19.3" xlink:href="#d"/><linearGradient id="x" x1="27.51" y1="20.09" x2="30.24" y2="25.06" xlink:href="#d"/><linearGradient id="y" x1="25.5" y1="16.21" x2="29.4" y2="21.51" xlink:href="#d"/><linearGradient id="z" x1="18.69" y1="18.37" x2="21.05" y2="19.91" xlink:href="#d"/><linearGradient id="aa" x1="24.36" y1="16.56" x2="30.71" y2="26.98" xlink:href="#d"/><linearGradient id="ab" x1="25.41" y1="15.92" x2="31.76" y2="26.34" xlink:href="#d"/><linearGradient id="ac" x1="19.36" y1="19.61" x2="25.71" y2="30.03" xlink:href="#d"/><linearGradient id="ad" x1="22.77" y1="17.53" x2="29.12" y2="27.95" xlink:href="#d"/><linearGradient id="ae" x1="24.48" y1="16.48" x2="30.83" y2="26.91" xlink:href="#d"/></defs><rect x="0" width="48" height="48" fill="none"/><g><polyline points="44 30.5 24 20.5 4 30.5 24 40.5 44 30.5 44 30.5" fill="#f2f6ff"/><polygon points="24 40.5 24 42.5 4 32.5 4 30.5 24 40.5" fill="#fff" opacity=".2"/><polygon points="24 40.5 24 42.5 44 32.5 44 30.5 24 40.5" fill="#2f3541"/></g><polygon points="17.11 32.42 34.38 35.31 44 30.5 39.73 28.37 23.11 29.42 17.11 32.42" fill="url(#a)"/><rect x="12" y="12" width="24" height="24" fill="none"/><polygon points="19.14 26.41 19.07 26.39 19.07 26.39 19.14 26.41" fill="#f84"/><path d="M26.15,26.3c0-.26-.02-.52-.06-.78l.64-.4c-.09-.48-.23-.96-.4-1.42l-.85-.37c-.24-.53-.53-1.03-.86-1.49l.05-1.02c-.31-.37-.64-.7-.99-.99l-.57,.5c-.2-.14-.4-.27-.61-.38s-.41-.16-.61-.22l-.57-1.06c-.35-.05-.68-.05-.99,.02l.03,1.07c-.33,.13-.63,.35-.87,.64l-.85-.46c-.18,.29-.32,.63-.42,1.02l.63,1.02c-.04,.23-.07,.46-.07,.72s.02,.52,.06,.79l-.64,.39c.1,.48,.23,.96,.41,1.43l.85,.36c.23,.52,.52,1.03,.85,1.49l-.04,1.03c.3,.36,.64,.7,.99,.99l.58-.5c.2,.14,.39,.26,.61,.37s.41,.17,.61,.23l.56,1.06c.35,.05,.68,.04,1-.02l-.04-1.07c.33-.14,.63-.36,.87-.65l.85,.47c.17-.3,.32-.64,.41-1.03l-.63-1.01c.04-.23,.07-.46,.07-.72" fill="#fff3f8"/><path d="M19.95,28.8l-1.08,.52,.75,.36,.8-.38c-.16-.16-.31-.33-.46-.5Z" fill="url(#d)"/><polygon points="22.83 30.16 19.02 32.01 18.51 32.38 22.89 30.27 22.83 30.16" fill="#26f" opacity=".8"/><path d="M22.79,30.07c-.11-.04-.22-.09-.34-.15-.11-.06-.22-.12-.33-.18l-.33,.27-.3,.26-.42-.35s-.04-.03-.05-.05l-2.53,1.22,.53,.9,3.82-1.84-.05-.09Z" fill="url(#e)" opacity=".8"/><path d="M17.7,24.47l-1.26,.61,.71,.35,.73-.35c-.07-.2-.13-.4-.18-.6Z" fill="url(#f)" opacity=".8"/><polygon points="19.59 27.41 19.04 27.68 18.51 28.06 19.59 27.54 19.59 27.41" fill="url(#g)" opacity=".8"/><path d="M18,25.45c-.05-.13-.08-.26-.12-.38l-.73,.35v.91l1-.49-.15-.39Z" fill="url(#h)" opacity=".8"/><path d="M15.04,26.4l-1.1,.53,.75,.36c.05-.37,.18-.66,.35-.89Z" fill="url(#i)" opacity=".8"/><path d="M17.81,24.83c-.1-.31-.18-.63-.25-.94l-2.52,1.22,.53,.9,.88-.42v-.51l1.26-.61c.03,.12,.07,.24,.11,.36Z" fill="url(#j)" opacity=".8"/><path d="M16.44,25.99v-.4l-.88,.42c.26-.1,.55-.12,.88-.02Z" fill="url(#k)" opacity=".8"/><path d="M19.93,28.78l-.38-.45,.03-.53v-.26l-1.07,.52c.18,.41,.3,.83,.36,1.26l1.08-.52-.02-.02Z" fill="url(#l)" opacity=".8"/><path d="M19.14,26.41l-.48-.2-.43-.19-.07-.18-1.01,.49c.32,.22,.62,.52,.87,.87l.53-.39,.65-.31s-.04-.06-.05-.09Z" fill="url(#m)" opacity=".8"/><path d="M18.86,30.2c-.06,.37-.18,.68-.37,.9l1.11-.54-.74-.36Z" fill="url(#n)"/><path d="M17.99,31.47c-.26,.1-.56,.11-.88,.02v.92l1.11-.54-.23-.41Z" fill="#26f" opacity=".8"/><path d="M20.41,29.31l-.8,.38v.87l1.41-.68c-.21-.18-.41-.37-.61-.58Z" fill="#26f" opacity=".8"/><path d="M19.6,27.22c-.15-.23-.28-.47-.41-.71l-.65,.31,.5,.86,.55-.27v-.2Z" fill="url(#o)" opacity=".8"/><path d="M22.49,22.76c.78,.38,1.41,1.47,1.41,2.44s-.64,1.44-1.42,1.06-1.41-1.47-1.41-2.44,.64-1.44,1.42-1.06Zm-.01,2.62c.39,.19,.71-.05,.71-.53s-.31-1.03-.7-1.22-.71,.05-.71,.53,.31,1.03,.7,1.22" fill="#2f3541"/><path d="M26.85,27.06l.35,.56,.32,.52-.12,.46c-.12,.44-.28,.84-.49,1.19l-.22,.36-.43-.23-.48-.27c-.14,.14-.3,.26-.47,.35l.02,.61,.02,.55-.38,.07c-.36,.08-.75,.08-1.15,.03l-.42-.06-.29-.54-.32-.59c-.11-.05-.22-.09-.34-.15s-.22-.12-.33-.18l-.33,.27-.3,.26-.42-.35c-.4-.34-.79-.72-1.14-1.15l-.38-.45,.03-.53,.02-.59c-.16-.25-.32-.53-.46-.8l-.48-.2-.43-.19-.21-.57c-.2-.55-.36-1.11-.47-1.66l-.11-.58,.33-.2,.36-.22c-.01-.14-.02-.28-.02-.43s0-.27,.02-.4l-.35-.57-.32-.52,.12-.47c.12-.44,.28-.84,.49-1.18l.22-.37,.43,.24,.48,.27c.15-.14,.3-.26,.47-.36l-.02-.61-.02-.55,.38-.08c.36-.08,.75-.08,1.15-.03l.42,.06,.29,.54,.32,.6c.11,.04,.22,.08,.33,.14s.23,.12,.34,.19l.32-.29,.3-.26,.42,.35c.4,.34,.79,.72,1.14,1.15l.38,.45-.02,.53-.03,.59c.16,.26,.32,.53,.46,.81l.48,.2,.43,.18,.21,.58c.2,.54,.36,1.1,.47,1.65l.11,.58-.33,.2-.35,.22c0,.14,.01,.27,.01,.42s0,.28-.02,.41Zm-.69-.76c0-.26-.02-.52-.06-.78l.64-.4c-.09-.48-.23-.96-.4-1.42l-.85-.37c-.24-.53-.53-1.03-.86-1.49l.05-1.02c-.31-.37-.64-.7-.99-.99l-.57,.5c-.2-.14-.4-.27-.61-.38s-.41-.16-.61-.22l-.57-1.06c-.35-.05-.68-.05-.99,.02l.03,1.07c-.33,.13-.63,.35-.87,.64l-.85-.46c-.18,.29-.32,.63-.42,1.02l.63,1.02c-.04,.23-.07,.46-.07,.72s.02,.52,.06,.79l-.64,.39c.1,.48,.23,.96,.41,1.43l.85,.36c.23,.52,.52,1.03,.85,1.49l-.04,1.03c.3,.36,.64,.7,.99,.99l.58-.5c.2,.14,.39,.26,.61,.37s.41,.17,.61,.23l.56,1.06c.35,.05,.68,.04,1-.02l-.04-1.07c.33-.14,.63-.36,.87-.65l.85,.47c.17-.3,.32-.64,.41-1.03l-.63-1.01c.04-.23,.07-.46,.07-.72" fill="#2f3541"/><g opacity=".8"><path d="M22.12,29.74l-.33,.27-.3,.26,.85-.41c-.08-.04-.15-.08-.23-.12Z" fill="#26f"/></g><g opacity=".8"><path d="M15.54,30.28l-.53,.4,.62-.3s-.06-.06-.08-.1Z" fill="#26f"/></g><polygon points="19.57 27.84 19.58 27.8 19.57 27.84 19.57 27.84" fill="#f84"/><polygon points="18.54 26.82 18.6 26.92 18.6 26.92 18.54 26.82" fill="url(#p)"/><path d="M26.79,15.02c-.4-.05-.79-.05-1.15,.03l-.38,.08-5.65,2.73,.38-.08c.36-.08,.75-.08,1.15-.03l.42,.06,5.65-2.73-.42-.06Z" fill="url(#q)" opacity=".8"/><path d="M27.52,28.14l-.12,.46c-.12,.44-.28,.84-.49,1.19l-.22,.36,5.65-2.73,.22-.36c.21-.35,.37-.75,.49-1.19l.12-.46-5.65,2.73Z" fill="url(#r)" opacity=".8"/><path d="M30.67,17.51c-.36-.43-.74-.81-1.14-1.15l-.42-.35-5.65,2.73,.42,.35c.4,.34,.79,.72,1.14,1.15l.38,.45,5.65-2.73-.38-.45Z" fill="url(#s)" opacity=".8"/><path d="M33.07,22.5c-.11-.55-.27-1.11-.47-1.65l-.21-.58-5.65,2.73,.21,.58c.2,.54,.36,1.1,.47,1.65l.11,.58,5.65-2.73-.11-.58Z" fill="url(#t)" opacity=".8"/><polygon points="32.84 24.9 32.49 24.33 26.85 27.06 27.2 27.62 27.52 28.14 33.17 25.42 32.84 24.9" fill="url(#u)" opacity=".8"/><polygon points="31.95 20.09 31.46 19.88 25.82 22.61 26.3 22.81 26.74 22.99 32.38 20.27 31.95 20.09" fill="url(#v)" opacity=".8"/><polygon points="27.5 15.63 27.21 15.09 21.56 17.81 21.85 18.36 22.17 18.96 27.82 16.23 27.5 15.63" fill="url(#w)" opacity=".8"/><polygon points="27.53 25.81 27.2 26.01 26.85 26.23 32.5 23.51 32.85 23.28 33.18 23.08 27.53 25.81" fill="url(#x)" opacity=".8"/><polygon points="25.41 20.69 25.38 21.21 25.35 21.8 31 19.08 31.03 18.49 31.05 17.96 25.41 20.69" fill="url(#y)" opacity=".8"/><path d="M19.17,19.37c.15-.14,.3-.26,.47-.36l-.02-.61v-.21l-1.37,.66,.43,.24,.48,.27Z" fill="url(#z)" opacity=".8"/><g opacity=".8"><path d="M26.85,26.23l5.65-2.73c0,.14,.01,.27,.01,.42s0,.28-.02,.41l-5.65,2.73c0-.13,.01-.27,.02-.41s0-.28-.01-.42Z" fill="url(#aa)"/></g><g opacity=".8"><path d="M25.35,21.8l5.65-2.73c.16,.26,.32,.53,.46,.81l-5.65,2.73c-.14-.28-.3-.55-.46-.81Z" fill="url(#ab)"/></g><g opacity=".8"><path d="M25.78,29.65c-.14,.14-.3,.26-.47,.35l.59-.28-.12-.06Z" fill="url(#ac)"/></g><g opacity=".8"><polygon points="23.65 18.89 23.46 18.74 23.65 18.89 23.65 18.89" fill="url(#ad)"/><path d="M22.84,19.28l.32-.29,.3-.26,4.79-2.31s-.07-.04-.1-.06c-.11-.06-.22-.1-.33-.14l-5.65,2.73c.11,.04,.22,.08,.33,.14s.23,.12,.34,.19Z" fill="url(#ae)"/></g><g opacity=".8"><polygon points="26.7 30.16 26.26 29.92 25.9 29.72 25.31 30 25.33 30.61 25.35 31.16 31 28.44 30.99 28.09 26.7 30.16" fill="#26f"/><path d="M27.25,29.07c-.1,.26-.2,.51-.33,.73,.13-.22,.24-.47,.33-.73h0Z" fill="#26f"/></g><g><path d="M19.61,30.56v-.87l-.74-.36c-.06-.43-.17-.85-.36-1.26l.53-.39-.5-.86-.53,.39c-.25-.35-.55-.66-.87-.87v-.91l-.7-.35v.91c-.33-.1-.62-.08-.88,.02l-.53-.9-.5,.37,.52,.9c-.18,.24-.31,.54-.36,.91l-.75-.36v.87l.74,.36c.05,.42,.17,.85,.35,1.25l-.53,.39,.49,.86,.53-.4c.25,.35,.55,.65,.87,.87v.92l.7,.35v-.92c.32,.08,.62,.08,.88-.02l.52,.91,.51-.38-.53-.9c.19-.22,.31-.54,.37-.9l.75,.36Zm-2.84-.08c-.78-.38-1.41-1.47-1.41-2.44,0-.97,.64-1.44,1.42-1.06,.78,.38,1.41,1.47,1.41,2.44,0,.97-.64,1.44-1.42,1.06Z" fill="#2f3541"/><path d="M16.77,30.49c-.78-.38-1.41-1.47-1.41-2.44,0-.97,.64-1.44,1.42-1.06,.78,.38,1.41,1.47,1.41,2.44,0,.97-.64,1.44-1.42,1.06Z" fill="#fff3f8"/><path d="M16.77,28.31c.2,.1,.36,.36,.35,.61s-.16,.36-.36,.27-.35-.37-.35-.61,.16-.36,.35-.26Z" fill="#2f3541"/></g></svg>