<?xml version="1.0" encoding="UTF-8"?><svg id="a" xmlns="http://www.w3.org/2000/svg" viewBox="0 0 24 24"><rect width="24" height="24" fill="none"/><polygon points="7.01 8.8 9.54 13.19 11.1 12.04 11.59 12.89 11.46 12.99 11.44 12.98 11.45 13 9.53 14.42 6.5 9.17 7.01 8.8" fill="#fff"/><g opacity=".2"><path d="M19.09,18.31l-5.65,2.73c.69-.33,1.27-.89,1.69-1.64l5.65-2.73c-.42,.75-1,1.31-1.69,1.64Z" fill="#fff"/></g><g opacity=".2"><polygon points="14.61 18.48 20.26 15.75 20.78 16.67 15.13 19.4 14.61 18.48" fill="#fff"/></g><g opacity=".2"><polygon points="17.69 16.03 23.34 13.3 21.2 14.89 15.55 17.62 17.69 16.03" fill="#fff"/></g><g opacity=".2"><polygon points="15.88 15.14 21.53 12.42 23.34 13.3 17.69 16.03 15.88 15.14" fill="#fff"/></g><path d="M15.23,2.34c-1.49-.73-2.86-.76-3.95-.24l-5.65,2.73c1.09-.53,2.46-.49,3.95,.24,3.28,1.6,5.96,5.98,6.3,10.08l5.65-2.73c-.34-4.1-3.02-8.48-6.3-10.08Z" fill="#fff" opacity=".2"/><path d="M9.58,5.06c3.28,1.6,5.96,5.98,6.3,10.08l1.81,.88-2.14,1.59-2.11-3.67,1.73,.84c-.33-3.61-2.7-7.45-5.59-8.86-3.12-1.52-5.68,.37-5.7,4.23s2.51,8.23,5.63,9.75c2.24,1.09,4.17,.42,5.11-1.45l.53,.92c-1.08,1.94-3.21,2.59-5.64,1.41-3.52-1.72-6.36-6.63-6.33-10.98s2.9-6.48,6.42-4.76Z" fill="#fff"/><rect y="0" width="24" height="24" fill="none"/></svg>