<?xml version="1.0" encoding="UTF-8"?><svg id="a" xmlns="http://www.w3.org/2000/svg" viewBox="0 0 24 24"><rect width="24" height="24" fill="none"/><g><g><path d="M5.13,14.36V4.13h13.73V14.36c0,4.33-3.91,6.51-6.87,6.51-3.19,0-6.86-2.17-6.86-6.51" fill="#c2172e"/><polygon points="15.91 5.03 15.27 5.03 15.27 7.01 13.3 7.01 13.3 7.66 15.27 7.66 15.27 9.65 15.92 9.65 15.92 7.66 17.89 7.66 17.89 7.01 15.91 7.01 15.91 5.03" fill="#fff"/></g><path d="M11.99,21c-1.95,0-3.89-.78-5.19-2.1-1.18-1.19-1.81-2.77-1.8-4.56V4h14V14.34c0,4.54-4.18,6.66-7.01,6.66ZM5.42,4.42V14.34c0,1.68,.58,3.15,1.68,4.26,1.22,1.24,3.05,1.98,4.89,1.98,2.66,0,6.59-1.98,6.59-6.24V4.42H5.42Z" fill="#171714"/></g></svg>