<?xml version="1.0" encoding="UTF-8"?><svg id="a" xmlns="http://www.w3.org/2000/svg" viewBox="0 0 24 24"><g><polygon points="10 14.59 10 14 3.41 14 5 12.41 5 11 1 15 9.59 15 10 14.59" fill="#2f3541"/><path d="M10,12h-3v-4h4v2.59l1-1v-1.88l1-1v2.29h1V5h-6l-2,2v6h4v-1Zm-1.59-6h3.88l-1,1h-3.88l1-1Z" fill="#2f3541"/></g><path d="M19,10v6l-2,2h-6v-6l2-2h6Zm-6.59,2h3.88l1-1h-3.88l-1,1Zm3.59,5v-4h-4v4h4Zm1-.41l1-1v-3.88l-1,1v3.88Zm3-2.59v1h1.59l-4,4H8.41l1.59-1.59v-1.41l-4,4h12l6-6h-4Z" fill="#2f3541" opacity=".4"/><rect width="24" height="24" fill="none"/></svg>