<?xml version="1.0" encoding="UTF-8"?><svg id="a" xmlns="http://www.w3.org/2000/svg" viewBox="0 0 24 24"><rect x="0" width="24" height="24" fill="none"/><g><g><path d="M18.76,4.22H5.27V14.32c0,3.52,3.02,6.41,6.74,6.41s6.74-2.87,6.74-6.41V4.22Z" fill="#fff"/><path d="M13.04,19.38c-.06,.13-.23,.39-.06,.59,.1-.12,.22-.35,.42-.38l-.36-.21Z" fill="#c21a24"/><path d="M13.42,19.6c0,.13,.05,.39,.28,.47,0-.26,0-.37,.14-.49h-.42Z" fill="#c21a24"/><path d="M12.74,18.69c-.15,.06-.52,.19-.54,.45,.16-.04,.47-.17,.65-.07l-.11-.38Z" fill="#c21a24"/><path d="M12.83,19.07c-.1,.1-.41,.36-.34,.59,.13-.08,.33-.33,.58-.29l-.24-.29Z" fill="#c21a24"/><path d="M12.86,18.38c-.17,0-.6-.07-.74,.14,.15,.05,.53,.07,.63,.24l.11-.38Z" fill="#c21a24"/><path d="M8.05,17.24c-.16-.03-.53-.11-.7,.06,.14,.06,.49,.12,.58,.29l.12-.35Z" fill="#c21a24"/><path d="M7.92,17.48c-.16,0-.51,0-.62,.25,.16,0,.48,0,.58,.12l.03-.37Z" fill="#c21a24"/><path d="M7.87,17.77c-.12,.06-.49,.22-.49,.45,.14-.04,.41-.22,.64-.11l-.15-.35Z" fill="#c21a24"/><path d="M7.96,18.07c-.1,.09-.34,.27-.27,.5,.13-.08,.33-.25,.52-.21l-.25-.29Z" fill="#c21a24"/><path d="M8.12,18.28c-.06,.12-.19,.33-.05,.52,.17-.2,.22-.29,.4-.32l-.34-.2Z" fill="#c21a24"/><path d="M7.13,9.36c-.12-.1-.48-.45-.73-.36,.09,.11,.47,.46,.44,.62l.29-.26Z" fill="#c21a24"/><path d="M6.88,9.59c-.13-.05-.58-.25-.77-.1,.12,.08,.51,.18,.58,.42l.19-.32Z" fill="#c21a24"/><path d="M6.68,9.88c-.15,0-.44-.05-.58,.15,.15,.04,.41,.06,.51,.22l.07-.37Z" fill="#c21a24"/><path d="M7.51,9.33c-.04-.15-.24-.59-.49-.67,0,.15,.22,.59,.09,.72l.4-.05Z" fill="#c21a24"/><path d="M6.61,10.25s-.47,.15-.47,.4c.17-.07,.35-.11,.53-.12l-.07-.28Z" fill="#c21a24"/><path d="M14.9,5.4c.05,.14,.01,.3-.08,.42-.39,.09-.33-.47-.72-.59,.21-.19,.54-.17,.72,.05,.03,.04,.06,.08,.08,.12" fill="#171714"/><path d="M7.83,5.66c-.06-.13-.31-.59-.58-.59,.09,.1,.3,.5,.19,.69l.39-.1Z" fill="#c21a24"/><path d="M7.6,5.72c-.1-.09-.41-.4-.66-.35,.15,.08,.4,.33,.34,.59l.32-.24Z" fill="#c21a24"/><path d="M7.52,5.82c-.13-.06-.63-.19-.84-.06,.16,.04,.58,.19,.64,.36l.2-.3Z" fill="#c21a24"/><path d="M8.11,5.6c0-.15-.12-.64-.34-.74,.04,.15,.09,.59-.06,.72l.4,.02Z" fill="#c21a24"/><path d="M7.34,5.98s-.49-.03-.58,.21c.18-.01,.37,.01,.54,.08l.04-.28Z" fill="#c21a24"/><path d="M7.34,5.71c.21-.13,.44-.23,.68-.28,.08,.03,.14,.09,.16,.18,.24,.59-.08,1.44,.69,1.76,.87,.24,1.72,.55,2.54,.91l.08,.09c-.34,.37-.53,.86-.55,1.36-.13,.1-.3,.12-.44,.05-.04-.07-.06,0-.12,0l-.05,.05c-.19-.04-.22-.42-.4-.25l-.27-.23s-.06,.04-.05,.06c-.15,0-.19-.18-.23-.28-.04,.03-.09,.04-.13,.04h-.05l-.15-.23s-.07,.04-.11,.03c-.09-.03-.13-.21-.21-.26,0,.04-.07,0-.1,0-.05-.07-.1-.14-.13-.22-.04,.04-.1,.04-.14,0-.03-.02-.04-.04-.05-.08,.09-.38-.49-.34-.43-.71-.74-.17-.49-1.01-.74-1.47-.03-.02-.06-.04-.09-.05,.04-.19,.14-.36,.28-.47" fill="#171714"/><path d="M5.98,12.75v.04c.21,.03,.39,.14,.51,.32,.51,1.12,.96,2.26,1.36,3.43h.06c.42-1.07,.88-2.22,1.34-3.38,.2-.4,.36-.3,.58-.35v-.02h-1.27c.15,0,.32,0,.39,.18-.06,.44-.18,.87-.37,1.27-.2,.59-.34,.96-.55,1.5-.31-.87-.72-1.71-.95-2.65,0-.23,.1-.29,.42-.3v-.04h-1.54Z" fill="#171714"/><path d="M16.47,16.31h0c-.13-.06-.23-.04-.34-.24,0-.52-.03-1.04,0-1.55,0-.03,.05-.05,.1,.04,.27,.45,.83,1.76,1.55,1.71h.15c-.4-.38-.72-.84-.95-1.34-.08-.16-.15-.28-.14-.35,0-.18,.33,0,.82-.32,.24-.19,.37-.48,.34-.79-.1-.81-1.27-.76-2.03-.66-.13,.02-.25,.02-.38,0-.2,0-.41-.07-.36-.05s.26,.07,.36,.21c.04,1.23,.03,1.85,0,3.01-.08,.27-.42,.31-.42,.31h1.3Z" fill="#171714"/><path d="M17.5,13.25c.12,.25,.15,.59,0,.78s-.75,.32-1.17,.24c-.04-.46-.04-.81,0-1.27,.4-.22,.91-.13,1.17,.25" fill="#fff"/><path d="M7.99,17.23c.2-.08,.52,.14,.82,.15,.15,.05,.31,.01,.42-.11,.16,.05,0-.36,0-.74,0-.08-.04-.18,.05-.23-.04-.1-.12,0-.17-.05-.01-.16,.03-.32,.12-.45l-.16-.03c-.09-.14,.22-.36-.05-.43,0-.18,.37-.43,.03-.51l.3-.48c-.06,0-.08-.04-.12-.06-.04-.2,.58-.39,.19-.48,.27-.29,.61-.52,.98-.67,.48-.11,.99-.11,1.47,0,.53,.41,.58,.72,.73,1.08,0,0-.06,.36-.08,.3-.66-.05-1.3,.28-1.63,.86-.42,.88-.1,1.98,0,2.88-.46,.47-1.25,.34-1.91,.32-.19,0-.43-.11-.58-.05,0,0-.49-.39-.53-.7-.03-.21,.03-.42,.15-.59l-.03-.03Z" fill="#171714"/><path d="M11.68,13.48c.21-.04,.59,.04,.61,.06,.05,.06,.24,.43,.17,.36,0,0-.52-.31-.79-.42Z" fill="#c21a24"/><path d="M11.61,6.82v-.03c-.09-.14-.1-.3-.06-.45l.34,.04c-.07,.07-.1,.13-.12,.2-.03,.07-.05,.15-.13,.22l-.02,.02Zm-.02-.45c-.03,.12-.02,.25,.04,.37,.05-.06,.08-.12,.1-.18,.02-.06,.04-.12,.1-.18h-.23Z" fill="#171714"/><path d="M12.97,7.15v-.13c-.29-.1-.59-.17-.9-.21-.49,0-.94,.21-1.4-.06-.1-.09-.2-.23-.3-.3-.07,.1-.1,.23-.06,.35,.06,.29,.44,.36,.73,.4,.47,.06,.94-.08,1.16-.1s.77,.04,.77,.04Z" fill="#c21a24"/><path d="M11.93,6.82v-.03c-.09-.14-.11-.3-.06-.45l.34,.04c-.07,.06-.09,.13-.12,.2-.03,.07-.06,.15-.14,.22l-.02,.02Zm-.02-.45c-.03,.12-.02,.25,.04,.37,.06-.06,.08-.12,.1-.18,.02-.06,.04-.12,.09-.18h-.23Z" fill="#171714"/><g><path d="M11.74,7.47c-.12-.1-.08-.33-.02-.43,.15,.13,.09,.28,.25,.43h-.23Z" fill="#fff"/><path d="M11.72,7.49c-.13-.11-.09-.35-.03-.46v-.02l.04,.02c.08,.07,.1,.14,.13,.21,.02,.07,.05,.14,.12,.22l-.26,.03Zm.02-.04h.16c-.05-.06-.08-.13-.1-.19-.02-.06-.04-.12-.09-.17-.04,.1-.07,.28,.02,.36Z" fill="#171714"/></g><g><path d="M11.99,7.46c-.04-.15-.02-.3,.05-.43,.15,.14,.11,.29,.26,.42h-.3Z" fill="#fff"/><path d="M11.97,7.47c-.04-.15-.03-.31,.05-.45v-.03l.04,.02c.08,.07,.11,.15,.14,.22,.03,.11,.16,.24,.16,.24h-.38Zm.08-.4c-.05,.12-.07,.25-.04,.37h.23c-.05-.07-.07-.13-.09-.19-.02-.06-.05-.12-.1-.18Z" fill="#171714"/></g><path d="M12.81,6.94c0-.15-.04-.26-.12-.37-.13-.1-.29-.14-.45-.13h-.77c0-.06,.01-.11,.03-.16,.02-.04,.03-.08,.03-.12-.06-.19-.08-.39-.03-.59,.81,.29,1.46-.33,2.29-.3,.31-.04,.42,.08,.65,.38,.24,.49,.66,0,.92,.31,.15,.16,.2,.38,.13,.59-.16,.19-.4,.3-.65,.3,.29,.1,.3,.39,.37,.59,0,.39-.33,.81-.04,1.17-.04,.08-.16,.04-.2,.08,.14,.15,.13,.39,.2,.54-.09,.13-.16-.05-.26,0,.01,.16,.06,.31,.15,.45-.08,.09-.29,0-.35,0,.07,.12,.07,.27,0,.39-.06-.05-.13-.05-.19-.11-.03,.1,.08,.25,0,.33-.06,0-.12-.08-.19-.08-.02,.67,.04,1.35,.18,2,.22,.64,1.08,1.17,.75,1.91l-.17-.18v.22s-.06,.06-.1,.08c-.13,.04-.12-.29-.32-.31,.33,.59,.15,1.34,.16,2.03-.03,.96,.55,1.69,.87,2.5-.39,.64-1.05,1.06-1.79,1.13-.26,.07-.52,.08-.75-.06-.55-.32-.44-.99-.38-1.11,.37-.26,.88-.3,1.3-.13,.23,.05,.28,.06,.28,.06,0-.44-.51-.71-.72-1.08l-.07,.11c-.15-.1-.12-.22-.15-.36h-.05c-.08,.05,.08,.11-.04,.15-.13-.12-.13-.28-.2-.43v.16c-.16-.07-.17-.28-.16-.45-.08,.05-.09,.12-.13,.18-.16-.12-.1-.37-.05-.52l-.16,.09c-.17-.13,.06-.25,0-.42-.04,.04-.1,.04-.14,0h0c.04-.5,.12-1,.25-1.48,.06-.42-1.31-2.07-1.34-2.16s-.17-.28,0-.39c.29,0,.58-.04,.86-.13,.22-.16,.38-.39,.47-.65-.13,0-.13,.16-.2,.25-.26,.46-.81,.46-1.31,.49-.1,0-.35-.16-.35,.05-.12-.06-.29,0-.39-.13v.09c-.12,.11-.23-.04-.35,0-.03,.05-.08,.07-.13,.07-.15,0-.34-.16-.41,0-.1-.08-.27,0-.35-.15-.13-.05-.06,.11-.16,.13l-.33-.18-.15,.05c-.39,.04-.65-.22-.94-.41s-.39-.48-.69-.64c-.1-.05-.21-.05-.3,0-.05-.11-.07-.22-.08-.33,0-.19,.07-.38,.18-.54,.15-.26,.43-.42,.73-.42,.5,.26,.54,.8,.96,1.14-.28,.13-.27,0-.07,.13,.94-.13,1.87-.39,2.74-.78l-.05-.05c-.01-.68,.36-1.31,.97-1.61,.58-.55,1.65-.06,2.22-.67,.41-.36,.03-1.06,.53-1.36,.2-.05,.4-.03,.58,.06-.05-.11-.19-.13-.3-.15-.81-.08-.48,.77-.72,1.17-.42,1-1.79,.35-2.58,.43,0,0-.18-.16-.13-.27,.36,.02,.72,.02,1.08,0,0,0,.1-.14,.11-.38Z" fill="#171714"/><path d="M13.79,5.95c-.26-.02-.52-.02-.77,0l-.05-.05c.17-.22,.9-.15,1.16,.05,0,0-.15,.03-.34,0Z" fill="#c21a24"/><path d="M13.35,6.17c.04-.08,.13-.13,.22-.13,.09,0,.18,.05,.22,.13-.07,.12-.23,.16-.35,.09-.04-.02-.07-.05-.09-.09" fill="#fff"/><path d="M13.58,6.25c.06,0,.11-.04,.12-.11h0c0-.06-.05-.11-.11-.11h0c-.06,0-.11,.05-.12,.11,0,.06,.06,.11,.12,.11h0" fill="#171714"/></g><path d="M11.99,21c-1.95,0-3.89-.78-5.19-2.1-1.18-1.19-1.81-2.77-1.8-4.56V4h14V14.34c0,4.54-4.18,6.66-7.01,6.66ZM5.42,4.42V14.34c0,1.68,.58,3.15,1.68,4.26,1.22,1.24,3.05,1.98,4.89,1.98,2.66,0,6.59-1.98,6.59-6.24V4.42H5.42Z" fill="#171714"/></g></svg>