<?xml version="1.0" encoding="UTF-8"?><svg id="a" xmlns="http://www.w3.org/2000/svg" xmlns:xlink="http://www.w3.org/1999/xlink" viewBox="0 0 48 48"><defs><linearGradient id="b" x1="17.91" y1="1.82" x2="29.26" y2="25.6" gradientTransform="matrix(1, 0, 0, 1, 0, 0)" gradientUnits="userSpaceOnUse"><stop offset="0" stop-color="#00d2b2"/><stop offset="1" stop-color="#26f"/></linearGradient><linearGradient id="c" x1="23.98" y1="14.39" x2="28.03" y2="22.63" xlink:href="#b"/><linearGradient id="d" x1="27.82" y1="30.72" x2="41.64" y2="30.72" gradientTransform="matrix(1, 0, 0, 1, 0, 0)" gradientUnits="userSpaceOnUse"><stop offset="0" stop-color="#2f3541" stop-opacity=".4"/><stop offset="1" stop-color="#2f3541" stop-opacity="0"/></linearGradient></defs><g><polyline points="44 30.5 24 20.5 4 30.5 24 40.5 44 30.5 44 30.5" fill="#f2f6ff"/><polygon points="24 40.5 24 42.5 4 32.5 4 30.5 24 40.5" fill="#fff" opacity=".2"/><polygon points="24 40.5 24 42.5 44 32.5 44 30.5 24 40.5" fill="#2f3541"/></g><rect x="0" width="48" height="48" fill="none"/><rect x="0" y="0" width="48" height="48" fill="none"/><path d="M16.96,16.3l8.5,4.14-.08,13.99-8.5-4.14,.08-13.99Zm7.72,16.92l.07-12.25-7.08-3.45-.07,12.25,7.08,3.45" fill="#2f3541"/><path d="M24.68,33.21l.07-12.25-7.08-3.45-.07,12.25,7.08,3.45" fill="#fff3f8"/><polygon points="23.29 28.15 23.29 29.02 19.03 26.95 19.04 26.07 23.29 28.15" fill="#2f3541"/><polygon points="23.3 25.53 23.3 26.4 19.05 24.33 19.05 23.45 23.3 25.53" fill="#2f3541"/><polygon points="23.32 22.9 23.31 23.78 19.06 21.71 19.07 20.82 23.32 22.9" fill="#2f3541"/><polygon points="25.46 20.44 33.11 16.71 33.03 30.71 25.38 34.43 25.46 20.44" fill="url(#b)" opacity=".8"/><polygon points="16.95 16.3 24.59 12.57 33.09 16.71 25.44 20.44 16.95 16.3" fill="url(#c)" opacity=".8"/><polygon points="37 27 33.05 27 33.03 30.71 31.03 31.68 31.03 31.71 25.38 34.43 37 34 44 30.5 37 27" fill="url(#d)"/></svg>