<?xml version="1.0" encoding="UTF-8"?><svg id="a" xmlns="http://www.w3.org/2000/svg" viewBox="0 0 48 48"><rect width="48" height="48" fill="none"/><g><path d="M24,23.02c4.42,0,8-3.58,8-8s-3.58-8-8-8-8,3.58-8,8,3.58,8,8,8Zm0-15c3.86,0,7,3.14,7,7s-3.14,7-7,7-7-3.14-7-7,3.14-7,7-7Zm5,14l-4,2h-2l-4-2-.74,2.23c-5.99,2.6-10.26,9.11-10.26,16.77H26.06c-.03-.32-.06-.64-.06-1H9.03c.34-6.48,4.01-12.23,9.28-14.7l3.7,3.7,.5-2.5,.86,.86-2.36,8.64,3,3,3-3-2.36-8.64,.86-.86,.5,2.5,3.69-3.69c.27,.12,.53,.24,.79,.38l.1-.1c.12-.12,.38-.33,.77-.56-.52-.3-1.06-.56-1.61-.79l-.74-2.23Zm-7.61,4.97l-2.24-2.24,.44-1.32,2.29,1.14-.48,2.42Zm4.5,8.73l-1.88,1.88-1.88-1.88,1.88-6.9,1.88,6.9Zm-.62-10.38l-1.26,1.26-1.26-1.26,.06-.32h2.4l.06,.32Zm1.35,1.65l-.48-2.42,2.29-1.14,.44,1.32-2.24,2.24Z" fill="#2f3541"/><g><rect x="33" y="31" width="6" height="1" rx=".5" ry=".5" fill="#2f3541"/><path d="M36,27c1.17,0,1.98,.17,2.5,.34l-1.25,1.66h-2.5l-1.25-1.66c.53-.17,1.33-.34,2.5-.34m0-1c-3,0-4,1-4,1l2.25,3h3.5l2.25-3s-1-1-4-1h0Z" fill="#2f3541"/><path d="M38.64,34c1.79,1.5,4.36,4.26,4.36,6,0,3.79-1.7,5-7,5s-7-1.21-7-5c0-1.74,2.57-4.5,4.36-6h5.29m.36-1h-6s-5,4-5,7c0,4.97,3.03,6,8,6s8-1.03,8-6c0-3-5-7-5-7h0Z" fill="#2f3541"/><g><path d="M37.47,39.99c-.81,0-1.48,.66-1.48,1.48s.66,1.48,1.48,1.48,1.48-.66,1.48-1.48-.66-1.48-1.48-1.48Zm0,1.97c-.27,0-.49-.22-.49-.49s.22-.49,.49-.49,.49,.22,.49,.49-.22,.49-.49,.49Z" fill="#2f3541"/><path d="M34.52,36.05c-.81,0-1.48,.66-1.48,1.48s.66,1.48,1.48,1.48,1.48-.66,1.48-1.48-.66-1.48-1.48-1.48Zm0,1.97c-.27,0-.49-.22-.49-.49s.22-.49,.49-.49,.49,.22,.49,.49-.22,.49-.49,.49Z" fill="#2f3541"/><rect x="31.54" y="39.01" width="8.92" height=".98" transform="translate(-17.39 37.03) rotate(-45)" fill="#2f3541"/></g></g></g></svg>