<?xml version="1.0" encoding="UTF-8"?><svg id="icon" xmlns="http://www.w3.org/2000/svg" width="24" height="24" viewBox="0 0 24 24"><path d="m12,2c-4.9706,0-9,1.3431-9,3,0,1.1772,2.0392,2.1932,5,2.6844v-1.0144c-2.6337-.468-4-1.3085-4-1.67,0-.514,2.7507-2,8-2s8,1.486,8,2c0,.3615-1.3663,1.2021-4,1.67v1.0144c2.9608-.4912,5-1.5072,5-2.6844,0-1.6569-4.0294-3-9-3Z" fill="#2f3541"/><rect y="0" width="24" height="24" fill="none"/><rect width="24" height="24" fill="none"/><rect id="Rectangle_10877" width="24" height="24" fill="none"/><path d="m10.667,12c-1.0372,0-1.667.4806-1.667.692v2.539c0,.0567.0803.1937.3015.3388l.3393.2225.0883.396,1.0726,4.8116h2.3967l1.0726-4.8116.0883-.396.3393-.2225c.2212-.1451.3015-.2821.3015-.3388v-2.539c0-.2114-.6298-.692-1.667-.692h-2.666m0-1h2.666c1.473,0,2.667.758,2.667,1.692v2.539c0,.457-.288.87-.753,1.175l-1.247,5.594h-4l-1.247-5.594c-.465-.305-.753-.718-.753-1.175v-2.539c0-.934,1.194-1.692,2.667-1.692Z" fill="#2f3541"/><path d="m12,5c1.1028,0,2,.8972,2,2s-.8972,2-2,2-2-.8972-2-2,.8972-2,2-2m0-1c-1.6568,0-3,1.3431-3,3s1.3432,3,3,3,3-1.3431,3-3-1.3432-3-3-3h0Z" fill="#2f3541"/></svg>