<?xml version="1.0" encoding="UTF-8"?><svg id="a" xmlns="http://www.w3.org/2000/svg" viewBox="0 0 24 24"><g><path d="M6.98,12.34c.56,.58,1.14,1.01,1.74,1.3,.59,.29,1.18,.43,1.77,.43h.05c1.72,1.74,2.99,4.52,3.36,7.25l-9.87-4.93c.17-2.4,1.29-3.94,2.96-4.05m.19-1.01c-2.32,0-4.15,2.06-4.16,5.66l12,6c.02-3.73-1.67-7.73-4.1-9.96-.13,.02-.27,.03-.41,.03-.41,0-.86-.1-1.33-.33-.63-.31-1.22-.81-1.74-1.4-.09,0-.17,0-.25,0h0Zm.74-6.13h0c.19,0,.42,.06,.65,.18,1.31,.64,2.41,2.57,2.4,4.22,0,.25-.05,1.51-.9,1.51-.19,0-.42-.06-.66-.18-1.31-.64-2.4-2.57-2.39-4.22,0-.73,.24-1.5,.9-1.5m0-1c-1.1,0-1.89,.95-1.9,2.5-.01,2.03,1.31,4.33,2.95,5.13,.39,.19,.76,.28,1.1,.28,1.11,0,1.89-.95,1.9-2.5,.01-2.03-1.31-4.32-2.96-5.12-.38-.19-.75-.28-1.09-.28h0Z" fill="#2f3541"/><g><g><path d="M16.83,10.18h0c-.52,.09-1.11,.02-1.74-.3-.63-.31-1.22-.81-1.74-1.4l-1.43,.69c.01,.14,.03,.29,.03,.43-.01,2.03-1.35,3.03-3,2.23-.36-.18-.7-.43-1.02-.73-.12-.11-.23-.23-.34-.36l-1.85,.88h.01c.51-.22,1.07-.31,1.66-.27,.52,.59,1.11,1.1,1.74,1.4,.64,.31,1.23,.38,1.74,.3,2.43,2.22,4.12,6.23,4.1,9.96l6-3c.02-3.73-1.74-7.6-4.17-9.82Z" fill="#2f3541" opacity=".2"/><path d="M11.87,8.73c.02,.15,.03,.29,.05,.44l1.43-.69c-.53-.03-1.02,.07-1.48,.25Z" fill="#2f3541" opacity=".2"/></g><path d="M7.15,4.37L13.08,1.51c.51-.25,1.15-.23,1.84,.11,1.65,.8,2.97,3.1,2.96,5.12,0,1.17-.46,2-1.15,2.34l-5.93,2.86c.7-.34,1.15-1.16,1.15-2.34,.01-2.03-1.31-4.32-2.96-5.12-.69-.34-1.33-.36-1.84-.11Z" fill="#2f3541" opacity=".2"/></g></g><rect y="0" width="24" height="24" fill="none"/></svg>