<?xml version="1.0" encoding="UTF-8"?><svg id="a" xmlns="http://www.w3.org/2000/svg" viewBox="0 0 64 64"><rect x="0" y="0" width="64" height="64" fill="none"/><path d="M32,4c-15.4,0-28,12.6-28,28s12.6,28,28,28,28-12.6,28-28S47.4,4,32,4Zm-6.63,31.64v-9.51c0-1.87,1.51-3.39,3.38-3.39,1.18,0,2.23,.61,2.83,1.53l4.46,7v-5.15c0-1.87,1.52-3.39,3.39-3.39,1.18,0,2.23,.61,2.83,1.53l4.46,7v-8.54h2.32v15.11c0,.23-.19,.41-.41,.41-.13,0-.25-.06-.33-.16l-7.97-12.58c-.19-.29-.52-.48-.89-.48-.6,0-1.08,.48-1.08,1.08v11.73c0,.23-.18,.41-.41,.41-.13,0-.25-.06-.33-.16l-7.97-12.58c-.19-.29-.52-.48-.89-.48-.6,0-1.08,.48-1.08,1.08v11.82c0,.18-.14,.33-.32,.33h-6.12c-3.45,0-6.25-2.83-6.25-6.28s2.8-6.28,6.25-6.28c0,0,3.44-.01,3.44,0v2.33h-3.44c-2.18,0-3.95,1.77-3.95,3.95s1.77,3.98,3.95,3.98h3.81c.18,0,.33-.15,.33-.33Zm23.25,5.61c-1.18,0-2.22-.61-2.82-1.52l-4.47-7.07v5.2c0,1.87-1.51,3.39-3.38,3.39-1.18,0-2.22-.61-2.82-1.52l-4.47-7.07v5.64c0,1.63-1.32,2.94-2.95,2.94h-6.47c-5.1,0-9.23-4.13-9.23-9.24s4.13-9.24,9.23-9.24c0,0,3.44,0,3.44,0v2.3h-3.44c-3.82,0-6.92,3.11-6.92,6.94s3.1,6.93,6.92,6.93h6.47c.35,0,.64-.28,.64-.64v-12.16c0-.23,.18-.41,.41-.41,.14,0,.26,.07,.34,.18l7.96,12.56c.19,.29,.52,.48,.89,.48,.6,0,1.08-.48,1.08-1.08v-11.73c0-.23,.18-.41,.41-.41,.14,0,.26,.07,.34,.18l7.96,12.56c.19,.29,.52,.48,.89,.48,.6,0,1.08-.48,1.08-1.08v-15.11h2.3v15.11c0,1.87-1.51,3.39-3.38,3.39Z" fill="#fff"/></svg>