<?xml version="1.0" encoding="UTF-8"?><svg id="a" xmlns="http://www.w3.org/2000/svg" xmlns:xlink="http://www.w3.org/1999/xlink" viewBox="0 0 48 48"><defs><linearGradient id="b" x1="25.68" y1="15.04" x2="28.55" y2="20.77" gradientTransform="matrix(1, 0, 0, 1, 0, 0)" gradientUnits="userSpaceOnUse"><stop offset="0" stop-color="#00d2b2"/><stop offset="1" stop-color="#26f"/></linearGradient><linearGradient id="c" x1="23.75" y1="8.71" x2="29.37" y2="23.44" xlink:href="#b"/><linearGradient id="d" x1="27.51" y1="22.36" x2="32.55" y2="32.21" xlink:href="#b"/><linearGradient id="e" x1="28.15" y1="22.26" x2="31.22" y2="29.14" xlink:href="#b"/><linearGradient id="f" x1="18.59" y1="19.7" x2="18.59" y2="25.53" gradientTransform="matrix(1, 0, 0, 1, 0, 0)" gradientUnits="userSpaceOnUse"><stop offset="0" stop-color="#00d2b2"/><stop offset="1" stop-color="#26f"/></linearGradient><linearGradient id="g" x1="18.21" y1="21.82" x2="22.53" y2="30.85" xlink:href="#b"/><linearGradient id="h" x1="18.85" y1="21.29" x2="21.92" y2="28.47" xlink:href="#b"/><linearGradient id="i" x1="22.45" y1="31.28" x2="42.56" y2="31.28" gradientTransform="matrix(1, 0, 0, 1, 0, 0)" gradientUnits="userSpaceOnUse"><stop offset="0" stop-color="#2f3541" stop-opacity=".4"/><stop offset="1" stop-color="#2f3541" stop-opacity="0"/></linearGradient></defs><g><polyline points="44 30.5 24 20.5 4 30.5 24 40.5 44 30.5 44 30.5" fill="#f2f6ff"/><polygon points="24 40.5 24 42.5 4 32.5 4 30.5 24 40.5" fill="#fff" opacity=".2"/><polygon points="24 40.5 24 42.5 44 32.5 44 30.5 24 40.5" fill="#2f3541"/></g><rect x="0" y="0" width="48" height="48" fill="none"/><polyline points="18.2 32.18 18.24 26.06 13.28 23.64 13.25 29.76 18.2 32.18" fill="#fff3f8"/><polyline points="27.65 31.85 27.67 28.36 24.84 26.98 24.82 30.47 27.65 31.85" fill="#fff3f8"/><polygon points="20.97 21.04 21 16.24 24.54 17.97 24.51 25.58 20.97 21.04" fill="#fff3f8"/><rect x="11.07" y="11.05" width="24" height="24" fill="none"/><g><polygon points="22.29 19.57 22.29 20.44 21.58 20.1 21.59 19.22 22.29 19.57" fill="#2f3541"/><polygon points="22.28 21.68 22.29 21.31 21.58 20.97 21.58 21.33 22.28 21.68" fill="#2f3541"/><polygon points="23.7 22.37 23.7 22 22.99 21.66 22.99 22.02 23.7 22.37" fill="#2f3541"/><polygon points="22.3 17.82 22.3 18.69 21.59 18.35 21.6 17.47 22.3 17.82" fill="#2f3541"/><polygon points="23.71 20.26 23.7 21.13 23 20.79 23 19.91 23.71 20.26" fill="#2f3541"/><polygon points="23.72 18.51 23.71 19.38 23.01 19.04 23.01 18.16 23.72 18.51" fill="#2f3541"/><polygon points="26.85 28.9 26.85 29.77 25.43 29.08 25.44 28.21 26.85 28.9" fill="#2f3541"/><polygon points="26.85 30.9 26.85 31.77 25.43 31.08 25.44 30.21 26.85 30.9" fill="#2f3541"/><polygon points="15.99 28.54 15.98 30.28 15.27 29.94 15.28 28.19 15.99 28.54" fill="#2f3541"/><polygon points="14.59 25.22 14.58 26.97 13.87 26.63 13.88 24.88 14.59 25.22" fill="#2f3541"/><polygon points="17.41 29.23 17.4 30.97 16.69 30.63 16.7 28.88 17.41 29.23" fill="#2f3541"/><polygon points="14.57 27.84 14.56 29.59 13.85 29.25 13.86 27.5 14.57 27.84" fill="#2f3541"/><polygon points="16.01 25.92 16 27.66 15.28 27.32 15.29 25.57 16.01 25.92" fill="#2f3541"/><polygon points="17.42 26.61 17.41 28.35 16.7 28.01 16.71 26.26 17.42 26.61" fill="#2f3541"/></g><path d="M12.58,22.42l6.37,3.11-.04,7.87-6.37-3.11,.04-7.87Zm5.62,9.76l.03-6.12-4.95-2.42-.03,6.12,4.95,2.42" fill="#2f3541"/><g><polygon points="20.29 15.02 25.94 12.29 30.9 14.71 25.25 17.44 20.29 15.02" fill="url(#b)" opacity=".8"/><polygon points="29.78 23.03 30.84 23.55 30.9 14.71 25.25 17.44 25.2 25.24 29.78 23.03" fill="url(#c)" opacity=".8"/><polygon points="24.13 25.76 29.78 23.03 34.03 25.11 28.39 27.83 24.13 25.76" fill="url(#d)" opacity=".8"/><polygon points="28.39 27.83 34.03 25.11 34 30.35 28.36 33.07 28.39 27.83" fill="url(#e)" opacity=".8"/><polygon points="12.58 22.42 18.23 19.7 24.6 22.81 18.96 25.53 12.58 22.42" fill="url(#f)" opacity=".8"/><polygon points="12.58 22.42 18.23 19.7 24.6 22.81 18.96 25.53 12.58 22.42" fill="url(#g)" opacity=".8"/><polygon points="24.13 25.76 24.59 25.54 24.6 22.81 18.96 25.53 18.91 33.4 24.56 30.68 24.59 25.98 24.13 25.76" fill="url(#h)" opacity=".8"/></g><path d="M24.13,25.76l4.25,2.07-.03,5.24-4.25-2.07,.03-5.24Zm3.51,6.09l.02-3.49-2.83-1.38-.02,3.49,2.83,1.38" fill="#2f3541"/><polygon points="24.51 25.58 25.2 25.24 25.25 17.44 20.29 15.02 20.25 20.69 20.97 21.04 21 16.24 24.54 17.97 24.51 25.58" fill="#2f3541"/><polygon points="34.03 25.52 34 30.35 28.36 33.07 24.11 31 24.11 30.9 18.91 33.4 30.89 37.05 44 30.5 34.03 25.52" fill="url(#i)"/></svg>