<?xml version="1.0" encoding="UTF-8"?><svg id="a" xmlns="http://www.w3.org/2000/svg" xmlns:xlink="http://www.w3.org/1999/xlink" viewBox="0 0 48 48"><defs><linearGradient id="b" x1="27.82" y1="31.33" x2="41.64" y2="31.33" gradientTransform="matrix(1, 0, 0, 1, 0, 0)" gradientUnits="userSpaceOnUse"><stop offset="0" stop-color="#2f3541" stop-opacity=".6"/><stop offset="1" stop-color="#2f3541" stop-opacity="0"/></linearGradient><linearGradient id="c" x1="21.16" y1="16.27" x2="24.18" y2="22.66" gradientTransform="matrix(1, 0, 0, 1, 0, 0)" gradientUnits="userSpaceOnUse"><stop offset="0" stop-color="#f49"/><stop offset="1" stop-color="#26f"/></linearGradient><linearGradient id="d" x1="23.36" y1="15.49" x2="24.82" y2="18.87" xlink:href="#c"/><linearGradient id="e" x1="24.06" y1="15.99" x2="26.4" y2="20.52" xlink:href="#c"/><linearGradient id="f" x1="24.77" y1="14.91" x2="26.53" y2="18.88" xlink:href="#c"/><linearGradient id="g" x1="22.62" y1="12.93" x2="27.97" y2="25.36" gradientTransform="matrix(1, 0, 0, 1, 0, 0)" gradientUnits="userSpaceOnUse"><stop offset="0" stop-color="#f49"/><stop offset=".92" stop-color="#26f"/></linearGradient><linearGradient id="h" x1="23.81" y1="16.08" x2="29.56" y2="24.5" gradientTransform="matrix(1, 0, 0, 1, 0, 0)" gradientUnits="userSpaceOnUse"><stop offset=".12" stop-color="#f49"/><stop offset="1" stop-color="#26f"/></linearGradient></defs><g><polyline points="44 30.5 24 20.5 4 30.5 24 40.5 44 30.5 44 30.5" fill="#f2f6ff"/><polygon points="24 40.5 24 42.5 4 32.5 4 30.5 24 40.5" fill="#fff" opacity=".2"/><polygon points="24 40.5 24 42.5 44 32.5 44 30.5 24 40.5" fill="#2f3541"/></g><polygon points="44 30.5 31 27 31 29.77 25.39 32.5 33.7 35.65 44 30.5" fill="url(#b)" opacity=".4"/><polyline points="24.69 31.28 24.74 22.53 21.55 20.98 20.84 20.63 17.65 19.08 17.6 27.82 24.69 31.28" fill="#fff3f8"/><rect x="12" y="11" width="24" height="24" fill="none"/><path d="M19.41,21.69c.59,.29,1.06,1.11,1.06,1.83s-.49,1.07-1.07,.79-1.05-1.1-1.05-1.82,.48-1.08,1.07-.8Zm0,1.75c.2,.1,.36-.02,.36-.26s-.16-.52-.35-.61-.35,.03-.35,.27,.16,.51,.35,.6" fill="#2f3541"/><path d="M22.96,23.42c.59,.29,1.05,1.11,1.05,1.83s-.48,1.08-1.07,.79-1.06-1.1-1.06-1.83,.49-1.08,1.07-.8Zm0,1.75c.19,.09,.35-.03,.35-.26s-.16-.52-.35-.61-.36,.02-.36,.27,.16,.51,.35,.61" fill="#2f3541"/><path d="M19.04,25.01l4.25,2.07v2.63l-4.26-2.07v-2.63Zm3.54,3.48v-.88l-2.83-1.38v.88l2.83,1.38" fill="#2f3541"/><rect x="0" y="0" width="48" height="48" fill="none"/><g><polygon points="16.95 17.86 22.59 15.13 26.49 17.03 20.84 19.76 16.95 17.86" fill="url(#c)" opacity=".8"/><polygon points="21.56 18.35 27.21 15.62 27.2 17.38 21.55 20.11 21.56 18.35" fill="url(#d)" opacity=".8"/><polygon points="19.44 16.44 25.09 13.71 28.63 15.44 22.98 18.17 19.44 16.44" fill="url(#e)" opacity=".8"/><polygon points="22.98 18.17 28.63 15.44 28.63 16.32 22.98 19.04 22.98 18.17" fill="url(#f)" opacity=".8"/><polygon points="31 19.28 31 29.77 25.39 32.5 25.45 22 31 19.28" fill="url(#g)" opacity=".8"/><polygon points="25.45 22 21.55 20.11 27.2 17.38 31 19.28 25.45 22" fill="url(#h)" opacity=".8"/></g><path d="M21.55,20.11l3.95,1.9-.11,10.49-8.5-4.15,.06-10.49,3.89,1.9v-1.75l-1.41-.69v-.87l3.55,1.73v.87l-1.42-.69v1.75Zm3.13,11.17l.05-8.74-3.19-1.55-.71-.35-3.19-1.55-.05,8.74,7.09,3.46" fill="#2f3541"/></svg>