<?xml version="1.0" encoding="UTF-8"?><svg id="a" xmlns="http://www.w3.org/2000/svg" viewBox="0 0 24 24"><g opacity=".2"><polygon points="8.78 20.25 7.21 19.48 6.31 19.91 8.78 21.12 8.78 20.25" fill="#fff"/><polygon points="9.5 20.59 9.49 21.47 10.4 21.03 9.5 20.59" fill="#fff"/><polygon points="13.74 22.67 13.75 21.81 11.97 22.67 11.96 23.55 17.61 20.82 17.61 20.8 13.74 22.67" fill="#fff"/><polygon points="10.4 21.03 9.49 21.47 11.97 22.67 12.87 22.24 10.4 21.03" fill="#fff"/><polygon points="13.82 7.8 19.47 5.07 19.39 19.94 13.74 22.67 13.82 7.8" fill="#fff"/><polygon points="4.62 3.31 10.27 .58 19.47 5.07 13.82 7.8 4.62 3.31" fill="#fff"/></g><g><polygon points="12.35 18.48 12.34 19.35 5.97 16.25 5.97 15.37 12.35 18.48" fill="#fff"/><polygon points="12.36 15.85 12.36 16.73 5.98 13.62 5.99 12.74 12.36 15.85" fill="#fff"/><path d="M8.49,9.59c-.59-.29-1.06-1.11-1.06-1.83s.49-1.08,1.07-.8,1.06,1.11,1.06,1.83-.49,1.08-1.07,.8Zm0-1.75c-.2-.1-.36,.02-.36,.27s.16,.52,.35,.61,.35-.03,.35-.27-.16-.52-.35-.61" fill="#fff"/><polygon points="12.38 13.23 12.37 14.11 6 11 6 10.12 12.38 13.23" fill="#fff"/><path d="M11.32,10.97c-.59-.29-1.05-1.11-1.05-1.83s.48-1.08,1.07-.8,1.06,1.11,1.06,1.83-.49,1.08-1.07,.8Zm0-1.75c-.19-.09-.35,.03-.35,.27s.16,.52,.35,.61,.36-.02,.36-.27-.16-.52-.35-.61" fill="#fff"/><path d="M13.74,22.67l-4.25-2.07v.87l2.47,1.21v.87l-2.48-1.21-.71-.35-2.47-1.21v-.87l2.48,1.21v-.87l-4.24-2.07,.08-14.87L13.82,7.8l-.08,14.87Zm-4.95-3.29l.71,.35,3.54,1.73,.07-13.12-7.79-3.8-.07,13.12,3.54,1.73" fill="#fff"/></g><rect width="24" height="24" fill="none"/></svg>