<?xml version="1.0" encoding="UTF-8"?><svg id="a" xmlns="http://www.w3.org/2000/svg" viewBox="0 0 24 24"><g opacity=".2"><polygon points="13.22 12.31 18.87 9.59 21.92 20.84 16.28 23.56 13.22 12.31" fill="#fff"/></g><rect width="24" height="24" fill="none"/><g opacity=".2"><polygon points="4.46 7.9 5.08 7.89 5.11 7.59 4.46 7.9" fill="#fff"/><polygon points="8.28 14.64 8.29 14.63 8.28 14.64 8.28 14.64" fill="#fff"/><polygon points="14.2 11.23 14.2 11.24 14.2 11.24 14.2 11.23" fill="#fff"/><path d="M19.69,5.19l.35-.51-.66-.14-.44-.81-5.1,2.46-.4-.69,1.05-.5,.1-.46,1.45-.7-1.08-1.36,.1-1.53-1.03,.49-1.13-1.12c-.58,.33-1.16,.63-1.72,.93-.04-.12-.1-.25-.21-.4-.28-.35-.57-.29-.57-.29L4.76,3.29h.06c.07,0,.15,0,.23,.04,.14,.07,.28,.2,.39,.39,.21,.36,.21,.8,0,.96q-.05,.04,0,0l2.02-.97-.19-.67,1.18,1.17,.78-.43,.2-.11-.03,.52-.06,1.01,1.08,1.36-1.24-.23-.31,1.39-.67-1.67-.43-.17-2.6,1.25,.44,.81,.22,.05,.44,.09-.31,.44h0l-.04,.06,.35,.85-.66-.5-.44,.38-.03-.4-1.38,.67h.06c.07,0,.15,0,.23,.04,.14,.07,.28,.2,.39,.39,.04,.06,.06,.12,.08,.19,.08,.22,.1,.44,.04,.61-.03,.07-.07,.13-.12,.17h0l-.04,.03,3.39-1.64-.53-.92,.5-.38,.59,1.02,.81,1.41h0l1.07,1.86-.5,.38-1.13-1.96-3.27,1.58h0s.77-.01,1.64,.41c.87,.43,1.6,1.15,1.64,1.18l-.28,.67,5.64-2.72,.28-.67s-.15-.15-.36-.33l4.08-1.97h0v-.05l-.02-.03s-.02-.1-.04-.17v-.06c-.02-.05-.04-.12-.05-.18v-.06h-.01s0-.06-.01-.08c-.01-.06-.02-.12-.03-.19,0-.02,0-.05,0-.07-.01-.07-.02-.14-.03-.21v-.08c-.02-.09-.03-.19-.03-.28v-.02c0-.09,0-.19,0-.28l2.36-1.14-.34-.84Zm-7.42,6.48l-.65,.02s-.31-1.1-.31-2.18c0-1.09,.32-1.84,.33-1.87l.65,.65s-.26,.66-.26,1.57c0,.9,.25,1.8,.25,1.81Zm2.11-2.91l-.66-.5-.44,.38-.05-.82-.62-.61h.62l.06-.76,.44,.81,.66,.14-.35,.51,.34,.84Z" fill="#fff"/></g><g><polygon points="13.29 6.45 13.73 7.27 14.39 7.41 14.04 7.92 14.38 8.76 13.73 8.26 13.28 8.64 13.23 7.83 12.61 7.22 13.23 7.21 13.29 6.45" fill="#fff"/><path d="M4,9.63c.14,.07,.28,.2,.39,.39,.21,.36,.21,.8,0,.96-.11,.08-.25,.07-.39,0s-.28-.2-.39-.38c-.22-.37-.21-.81,0-.96,.11-.08,.25-.08,.39-.01Z" fill="#fff"/><path d="M5.04,3.33c.14,.07,.28,.2,.39,.39,.21,.36,.21,.8,0,.96-.11,.08-.25,.07-.39,0s-.28-.2-.39-.38c-.22-.37-.21-.81,0-.96,.11-.08,.25-.08,.39-.01Z" fill="#fff"/><polygon points="5.14 7.13 5.58 7.95 6.24 8.09 5.88 8.59 6.23 9.44 5.57 8.94 5.13 9.32 5.08 8.51 4.46 7.9 5.08 7.89 5.14 7.13" fill="#fff"/><polygon points="7.71 8.08 10.18 12.37 9.68 12.75 7.21 8.46 7.71 8.08" fill="#fff"/><path d="M13.22,12.31l3.06,11.25-7.86-7.69,4.8-3.56Zm-2.73,3.26l-.71,.53,4.4,2.15-.27-1.01-3.42-1.67m.77,2.13l1.79,1.75,1.68,.82-.28-1.02-3.19-1.56m.66-3.18l-.71,.53,2.43,1.18-.28-1.01-1.44-.7m1.04-.77l-.33,.24,.45,.22-.13-.46" fill="#fff"/><polygon points="9.41 3.67 9.31 5.2 10.39 6.56 9.15 6.34 8.84 7.72 8.17 6.05 6.9 5.54 7.72 4.73 7.25 3.04 8.43 4.21 9.41 3.67" fill="#fff"/><path d="M11.64,7.64l.65,.65s-.26,.66-.26,1.57,.25,1.8,.25,1.81l-.65,.02s-.31-1.1-.31-2.18,.32-1.84,.33-1.87Z" fill="#fff"/><path d="M6.92,12.77c.87,.43,1.6,1.15,1.64,1.18l-.28,.68s-.64-.63-1.36-.99-1.36-.35-1.37-.34l-.27-.94s.77-.01,1.64,.41Z" fill="#fff"/></g></svg>