<?xml version="1.0" encoding="UTF-8"?><svg id="a" xmlns="http://www.w3.org/2000/svg" viewBox="0 0 24 24"><rect x="0" y="0" width="24" height="24" fill="none"/><g><path d="M9.55,15.24l.71,.71-2.13,2.13-.71-.71,2.13-2.13m0-1.41l-3.55,3.55,2.13,2.13,3.55-3.55-2.13-2.13h0Z" fill="#fff"/><path d="M15.75,5c-1.42,0-2.89,.58-4.03,1.72-2.15,2.15-2.3,5.47-.35,7.42,.91,.91,2.13,1.37,3.38,1.37,1.42,0,2.89-.58,4.03-1.72,2.15-2.15,2.3-5.47,.35-7.42-.91-.91-2.13-1.37-3.38-1.37h0Zm-.53,2.44l-1.11-1.11c.53-.21,1.08-.33,1.63-.33,.28,0,.56,.03,.82,.09l-1.35,1.35h0Zm2.13,2.13l-1.42-1.42,1.67-1.67c.3,.16,.58,.35,.82,.59,.25,.25,.43,.53,.6,.82l-1.67,1.67h0Zm-4.26,0l-1.32-1.32c.19-.29,.4-.56,.65-.82,.23-.23,.49-.44,.75-.62l1.34,1.34-1.42,1.42h0Zm2.13,2.13l-1.42-1.42,1.42-1.42,1.42,1.42-1.42,1.42h0Zm3.94-.31l-1.11-1.11,1.34-1.34c.16,.79,.08,1.64-.23,2.44h0Zm-8.07,.18c-.16-.77-.09-1.59,.2-2.37l1.08,1.08-1.29,1.29h0Zm6.16,2.16l-1.32-1.32,1.42-1.42,1.34,1.34c-.18,.26-.38,.52-.61,.75-.25,.25-.53,.46-.82,.65h0Zm-4.36,.3c-.3-.16-.58-.35-.82-.59-.25-.25-.43-.53-.6-.82l1.62-1.62,1.42,1.42-1.62,1.62h0Zm1.85,.48c-.28,0-.56-.03-.82-.09l1.3-1.3,1.08,1.08c-.5,.19-1.03,.3-1.56,.3h0Z" fill="#fff"/><path d="M6,8c.55,0,1,.45,1,1s-.45,1-1,1-1-.45-1-1,.45-1,1-1m0-1c-1.1,0-2,.9-2,2s.9,2,2,2,2-.9,2-2-.9-2-2-2h0Z" fill="#fff"/></g></svg>