<?xml version="1.0" encoding="UTF-8"?><svg id="a" xmlns="http://www.w3.org/2000/svg" viewBox="0 0 24 24"><rect x="0" y="0" width="24" height="24" fill="none"/><rect x="0" y="0" width="24" height="24" fill="none"/><g><polyline points="22 16 12 11 2 16 12 21 22 16 22 16" fill="#2f3541" opacity=".2"/><polygon points="12 21 12 22 2 17 2 16 12 21" fill="#2f3541"/></g><rect x="0" y="0" width="24" height="24" fill="none"/><g><polyline points="22 12 12 7 2 12 12 17 22 12 22 12" fill="#2f3541" opacity=".2"/><polygon points="12 17 12 18 2 13 2 12 12 17" fill="#2f3541"/></g><g><polyline points="22 8 12 3 2 8 12 13 22 8 22 8" fill="#2f3541" opacity=".2"/><polygon points="12 13 12 14 2 9 2 8 12 13" fill="#2f3541"/></g></svg>