<?xml version="1.0" encoding="UTF-8"?><svg id="icon" xmlns="http://www.w3.org/2000/svg" width="24" height="24" viewBox="0 0 24 24"><g opacity=".2"><path d="M20.8634,11.1512l2.134-1.0298,.0026-.4879L15.2368,1.0259l-7.8157,1.0093L1.7736,4.7606l7.8157-1.0093,7.7632,8.6076-.0027,.4879L4.7996,6.7256l-.9108,.4395,2.1226,1.0353-.0333,6.1227-1.9323-.9424-.9027,.4356,1.0882,.5308-1.8053,.8712,14.1638,6.9081-.0048,.8735,5.6475-2.7255,.0048-.8735-1.6053-.783,.9026-.4356,.0048-.8736-1.6055-.783,.9026-.4356,.0269-4.939Zm-10.2766,5.4198l-2.129-1.0385,.0334-6.1227,2.129,1.0384-.0334,6.1227Zm4.6023,2.2446l-2.129-1.0384,.0333-6.1227,2.129,1.0384-.0333,6.1227Z" fill="#fff"/></g><g><polygon points="16.5899 22.1265 16.5851 23 2.4213 16.0919 2.4261 15.2183 16.5899 22.1265" fill="#fff"/><polygon points="15.8918 20.0343 15.8871 20.9078 3.1384 14.6899 3.1432 13.8164 15.8918 20.0343" fill="#fff"/><path d="M3.8888,7.1652l2.1227,1.0353-.0334,6.1227-2.1227-1.0353,.0334-6.1227Zm1.3865,5.9393l.0238-4.3756-.7076-.3451-.0238,4.3756,.7076,.3451" fill="#fff"/><path d="M8.4911,9.4099l2.129,1.0384-.0334,6.1227-2.129-1.0384,.0334-6.1227Zm1.3865,5.9393l.0238-4.3756-.7076-.3451-.0238,4.3756,.7076,.3451" fill="#fff"/><path d="M13.0934,11.6546l2.129,1.0384-.0334,6.1227-2.129-1.0384,.0334-6.1227Zm1.3928,5.9424l.0238-4.3756-.7075-.3451-.0238,4.3756,.7075,.3451" fill="#fff"/><path d="M9.5893,3.7513l7.7632,8.6076-.0027,.4879L1.771,5.2485l.0027-.4879,7.8157-1.0093Zm-5.608,1.6994l11.1678,5.4469-5.5651-6.1704-5.6027,.7235" fill="#fff"/></g><rect width="24" height="24" fill="none"/></svg>