<?xml version="1.0" encoding="UTF-8"?><svg xmlns="http://www.w3.org/2000/svg" width="32" height="32" viewBox="0 0 32 32"><g id="icon"><circle cx="16" cy="16" r="16" fill="#e5b9e6"/></g><g id="text_-_keep_locked_to_avoid_add_icons_here"><g><rect id="Rectangle_10877" x="4" y="4" width="24" height="24" fill="none" opacity="0"/><g><path d="M24,24V14h-6v-4.2308L8,7V24h-2v1H26v-1h-2ZM14,13v3h-2v-3h2Zm-2-1v-2.8547l2,.5538v2.3008h-2Zm2,5v3h-2v-3h2Zm1,0h2v3h-2v-3Zm2-1h-2v-3h2v3Zm0-4h-2v-2.0239l2,.5538v1.4701Zm-8-3.6854l2,.5538v3.1316h-2v-3.6854Zm0,4.6854h2v3h-2v-3Zm0,4h2v3h-2v-3Zm0,7v-3h2v3h-2Zm3,0v-3h2v3h-2Zm3,0v-3h2v3h-2Zm3,0V15h5v9h-5Z" fill="#2f3541"/><rect x="19" y="16" width="1" height="1" fill="#2f3541"/><rect x="21" y="16" width="1" height="1" fill="#2f3541"/><rect x="19" y="18" width="1" height="1" fill="#2f3541"/><rect x="21" y="18" width="1" height="1" fill="#2f3541"/><rect x="19" y="20" width="1" height="1" fill="#2f3541"/><rect x="21" y="20" width="1" height="1" fill="#2f3541"/><rect x="19" y="22" width="1" height="1" fill="#2f3541"/><rect x="21" y="22" width="1" height="1" fill="#2f3541"/></g></g></g></svg>