<?xml version="1.0" encoding="UTF-8"?><svg id="a" xmlns="http://www.w3.org/2000/svg" viewBox="0 0 24 24"><rect y="0" width="24" height="24" fill="none"/><g><path d="M19.36,6.48c-1.1-1.85-2.55-3.22-4-3.93-1.28-.63-2.57-.74-3.62-.23l-5.65,2.74c1.05-.51,2.34-.4,3.62,.23,1.46,.71,2.9,2.08,4,3.93,2.2,3.7,2.18,7.94-.05,9.47l-4.16,3.31,5.77-2.74,4.04-3.31c2.23-1.53,2.25-5.77,.05-9.47Z" fill="#2f3541" opacity=".2"/><path d="M7.53,5.74h0c.53,0,1.13,.16,1.73,.45,1.34,.66,2.61,1.91,3.58,3.54,1.9,3.2,2.01,6.92,.24,8.13l-.03,.02-.03,.02-3.22,2.56-3.32-6.22c-1.9-3.19-2.01-6.92-.24-8.13,.37-.25,.8-.38,1.28-.38m0-1c-.67,0-1.3,.18-1.85,.55-2.23,1.53-2.25,5.77-.05,9.47l3.86,7.24,4.16-3.31c2.23-1.53,2.25-5.77,.05-9.47-1.1-1.85-2.55-3.22-4-3.93-.74-.36-1.48-.55-2.17-.55h0Zm2.15,4.95c.79,.38,1.42,1.49,1.41,2.45,0,.85-.48,.99-.79,1.09-.13,.04-.28,.08-.28,.15v.89l-.71-.35v-.89c0-.55,.36-.65,.62-.73,.29-.09,.46-.15,.46-.5,0-.48-.31-1.03-.71-1.23s-.71,.05-.71,.53l-.71-.35c0-.97,.65-1.44,1.43-1.06Zm.32,6.33v-.88l-.7-.35v.88l.7,.35Z" fill="#2f3541"/></g></svg>