<?xml version="1.0" encoding="UTF-8"?><svg id="a" xmlns="http://www.w3.org/2000/svg" viewBox="0 0 24 24"><rect y="0" width="24" height="24" fill="none"/><path id="b" d="M12,6c3.31,0,6,2.69,6,6s-2.69,6-6,6-6-2.69-6-6c0-3.31,2.69-6,6-6m0-1c-3.87,0-7,3.13-7,7s3.13,7,7,7,7-3.13,7-7-3.13-7-7-7Zm.5-3h-1V4h1V2Zm0,18h-1v2h1v-2ZM2,11.5v1h2v-1H2Zm18,0v1h2v-1h-2Zm-.58-6.22l-.71-.71-1.42,1.41,.71,.71,1.42-1.41ZM6.7,18.01l-.71-.71-1.41,1.42,.71,.71,1.42-1.42Zm-1.42-13.44l-.71,.71,1.41,1.42,.71-.71-1.42-1.41Zm12.73,12.72l-.71,.71,1.41,1.42,.71-.71-1.41-1.42Z" fill="#fff"/></svg>