<?xml version="1.0" encoding="UTF-8"?><svg id="a" xmlns="http://www.w3.org/2000/svg" viewBox="0 0 24 24"><rect width="24" height="24" fill="none"/><g><g><g><path d="M5.13,14.36V4.13h13.74V14.36c0,4.33-3.91,6.51-6.87,6.51-3.2,0-6.87-2.17-6.86-6.51" fill="#fff"/><path d="M10.75,5.21c.92,.16,1.74,.7,2.24,1.5,.27,.38,.46,.8,.58,1.25,.19,.72,.3,1.47,.32,2.22h-3.06c.1-.54,.14-1.1,.1-1.65-.06-.59-.44-1.09-1-1.29-.21-.07-.43-.07-.64,0-.33,.1-.58,.36-.68,.69-.07,.29,0,.7,.32,.74,.14,.02,.28-.05,.36-.18,.07-.21-.15-.32-.32-.36,.02-.12,.1-.51,.57-.43,.3,.06,.54,.27,.65,.56,.14,.41,.02,.87-.29,1.17-.37,.33-.87,.47-1.35,.36-.56-.15-1.01-.57-1.22-1.11-.48-1.36,.35-2.9,1.57-3.34,.94-.35,1.85-.13,1.85-.13Z" fill="#171714"/><path d="M14.77,11.81c.23,0,.41-.18,.41-.41s-.18-.41-.41-.41h-4.79c-.23,0-.41,.18-.41,.41,0,.23,.18,.41,.41,.41h4.79Z" fill="#171714"/><path d="M14.24,10.84c.15,0,.27-.12,.27-.27s-.12-.27-.27-.27h-3.8c-.15,0-.27,.12-.27,.27s.12,.27,.27,.27h3.8Z" fill="#171714"/><path d="M14.51,12.48c.14-.02,.23-.15,.21-.29-.02-.11-.1-.19-.21-.21h-4.33c-.14,.02-.23,.15-.21,.29,.02,.11,.1,.19,.21,.21h4.33Z" fill="#171714"/></g><polygon points="10.36 12.61 9.31 19.17 11.09 17.83 12.34 19.18 13.6 17.83 15.37 19.17 14.33 12.61 10.36 12.61" fill="#171714"/></g><path d="M11.99,21c-1.95,0-3.89-.78-5.19-2.1-1.18-1.19-1.81-2.77-1.8-4.56V4h14V14.34c0,4.54-4.18,6.66-7.01,6.66ZM5.42,4.42V14.34c0,1.68,.58,3.15,1.68,4.26,1.22,1.24,3.05,1.98,4.89,1.98,2.66,0,6.59-1.98,6.59-6.24V4.42H5.42Z" fill="#171714"/></g></svg>