<?xml version="1.0" encoding="UTF-8"?><svg id="a" xmlns="http://www.w3.org/2000/svg" viewBox="0 0 24 24"><rect width="24" height="24" fill="none"/><rect width="24" height="24" fill="none"/><g><rect width="24" height="24" fill="none"/><g><path d="M18,8v12H6V4H14l4,4h0Zm-1,.42l-.42-.42h-2.58v-2.58l-.42-.42H7v14h10V8.41Zm-6.5,3.08c.28,0,.5,.22,.5,.5s-.22,.5-.5,.5-.5-.22-.5-.5,.22-.5,.5-.5m0-1c-.83,0-1.5,.67-1.5,1.5s.67,1.5,1.5,1.5,1.5-.67,1.5-1.5-.67-1.5-1.5-1.5h0Zm3,5c.28,0,.5,.22,.5,.5s-.22,.5-.5,.5-.5-.22-.5-.5,.22-.5,.5-.5m0-1c-.83,0-1.5,.67-1.5,1.5s.67,1.5,1.5,1.5,1.5-.67,1.5-1.5-.67-1.5-1.5-1.5h0Z" fill="#2f3541"/><rect x="7.47" y="13.5" width="9.06" height="1" transform="translate(-6.38 12.59) rotate(-45)" fill="#2f3541"/></g></g></svg>