<?xml version="1.0" encoding="UTF-8"?><svg id="a" xmlns="http://www.w3.org/2000/svg" viewBox="0 0 24 24"><path id="b" d="M24,24H0V0H24" fill="none"/><g><path d="M18,6H3v12.99h3v-1h-2V7h13v4h4v7H12v1h10V10l-4-4Zm0,4v-2.55l2.55,2.55h-2.55Z" fill="#fff"/><path d="M12.06,14.27l1.44-.99-1.44-.99,.58-1.65-1.75,.04-.5-1.68-1.39,1.07-1.39-1.07-.5,1.68-1.75-.04,.58,1.65-1.44,.99,1.45,.99-.58,1.65,1.64-.04-.02,6.12,2.02-1,2,1v-6.12l1.64,.04-.58-1.65Zm-2.06,6.11l-.55-.28-.45-.22-.45,.22-.57,.28v-3.12l1.02-.77,1,.77v3.12Zm1.49-6.93l-.63,.44,.26,.72,.1,.28h-.3l-.77-.03-.22,.73-.08,.29-.24-.18-.61-.47-.61,.47-.24,.18-.09-.29-.22-.73-.77,.02h-.3l.1-.27,.26-.72-.63-.44-.25-.17,.25-.17,.63-.43-.26-.72-.1-.28h.3l.77,.03,.22-.73,.09-.29,.24,.18,.61,.46,.61-.46,.24-.18,.08,.29,.22,.73,.77-.02h.3l-.1,.28-.26,.72,.63,.43,.25,.17-.25,.17Z" fill="#fff"/></g></svg>