<?xml version="1.0" encoding="UTF-8"?><svg id="a" xmlns="http://www.w3.org/2000/svg" viewBox="0 0 64 64"><rect width="64" height="64" fill="none"/><g><path d="M34.97,25.39l-.25,.29c1.64,.44,3.17,1.22,4.48,2.29-4.16-2.24-9.13-2.44-13.45-.52-.67,.31-1.06,.52-1.06,.52,1.39-1.13,3-1.93,4.74-2.36l-.18-.21c-1.84,.09-3.61,.75-5.06,1.89-1.65,3.26-2.54,6.84-2.6,10.49,1.26,1.77,3.32,2.79,5.49,2.74,0,0,.67-.81,1.21-1.49-1.27-.32-2.38-1.07-3.15-2.12,.26,.18,.7,.43,.74,.45,3.46,1.89,7.58,2.12,11.23,.63,.73-.27,1.42-.63,2.07-1.06-.8,1.08-1.95,1.83-3.26,2.14,.54,.68,1.19,1.46,1.19,1.46,2.18,.05,4.24-.97,5.51-2.74-.06-3.65-.94-7.24-2.59-10.49-1.45-1.14-3.22-1.8-5.06-1.89Zm-6.23,10.71c-1-.07-1.79-.86-1.86-1.86-.08-1.1,.75-2.06,1.86-2.14h.03c1.05,.05,1.86,.95,1.81,2h0c.04,1.06-.78,1.96-1.84,2Zm8.41-2c-.09,1.01-.98,1.77-1.99,1.68-1.01-.09-1.77-.98-1.68-1.99,.08-.95,.88-1.69,1.84-1.69,1.06,.04,1.88,.94,1.84,2h0Z" fill="#fff"/><path d="M32,4c-15.46,0-28,12.54-28,28s12.54,28,28,28,28-12.54,28-28S47.46,4,32,4Zm15.75,49c-4.53-4.01-3.08-2.68-8.35-7.58l.95,3.33H19.94c-2.04,0-3.69-1.67-3.69-3.71V20.71c0-2.04,1.65-3.7,3.69-3.71h24.12c2.04,0,3.69,1.67,3.69,3.71V53Z" fill="#fff"/></g></svg>