<?xml version="1.0" encoding="UTF-8"?><svg id="c" xmlns="http://www.w3.org/2000/svg" xmlns:xlink="http://www.w3.org/1999/xlink" viewBox="0 0 48 48"><defs><linearGradient id="a" x1="24.88" y1="31.84" x2="41.21" y2="31.84" gradientTransform="matrix(1, 0, 0, 1, 0, 0)" gradientUnits="userSpaceOnUse"><stop offset="0" stop-color="#2f3541" stop-opacity=".4"/><stop offset="1" stop-color="#2f3541" stop-opacity="0"/></linearGradient><linearGradient id="d" x1="26.28" y1="19.42" x2="30.07" y2="26.68" gradientTransform="matrix(1, 0, 0, 1, 0, 0)" gradientUnits="userSpaceOnUse"><stop offset="0" stop-color="#f84"/><stop offset="1" stop-color="#f49"/></linearGradient><linearGradient id="e" x1="21.42" y1="14.14" x2="25.37" y2="22.04" xlink:href="#d"/></defs><g><polyline points="44 30.5 24 20.5 4 30.5 24 40.5 44 30.5 44 30.5" fill="#f2f6ff"/><polygon points="24 40.5 24 42.5 4 32.5 4 30.5 24 40.5" fill="#fff" opacity=".2"/><polygon points="24 40.5 24 42.5 44 32.5 44 30.5 24 40.5" fill="#2f3541"/></g><polygon points="22 32 34.38 35.31 44 30.5 39.73 28.37 28 29 22 32" fill="url(#a)"/><rect x="0" width="48" height="48" fill="none"/><rect x="13" y="10" width="24" height="24" fill="none"/><rect x="13" y="10" width="24" height="24" fill="none"/><g><path d="M22.19,31.44c-1.46-1.82-6.72-8.7-6.69-13.41,0-1.72,.84-2.88,2.06-2.88,.34,0,.7,.09,1.07,.27,1.14,.56,2.22,1.85,2.88,3.47l.34,.84,.53-.74c.37-.51,.87-.79,1.44-.79,.34,0,.71,.09,1.09,.28,1.92,.94,3.54,3.95,3.52,6.58-.02,4.47-4.88,6.02-6.25,6.37Z" fill="#fff3f8"/><path d="M17.56,15.66c.27,0,.55,.07,.85,.22,1.02,.5,2.03,1.73,2.64,3.21l.69,1.67,1.05-1.47c.27-.38,.62-.58,1.04-.58,.27,0,.56,.08,.87,.23,1.77,.86,3.26,3.67,3.24,6.13-.02,3.83-3.98,5.35-5.56,5.8-3.04-3.83-6.4-9.3-6.38-12.84,0-1.42,.64-2.38,1.56-2.38m0-1c-1.46,0-2.55,1.33-2.56,3.37-.03,5.44,6.65,13.54,7,13.97,.35-.07,6.91-1.49,6.94-6.92,.02-2.83-1.69-6.01-3.81-7.04-.46-.22-.9-.33-1.3-.33-.75,0-1.4,.36-1.85,1-.68-1.66-1.83-3.1-3.13-3.73-.45-.22-.88-.32-1.29-.32h0Z" fill="#2f3541"/></g><g><path d="M30.69,15.36c-.84-.41-1.62-.42-2.25-.12l-5.56,2.68c.64-.31,1.41-.29,2.25,.12,2.11,1.03,3.82,4.21,3.81,7.04-.02,3.22-2.36,5.03-4.34,5.98l5.56-2.68c1.98-.96,4.32-2.76,4.34-5.98,.02-2.83-1.69-6.01-3.81-7.04Z" fill="url(#d)" opacity=".8"/><path d="M22.88,17.92l4.53-2.18c-.69-1.54-1.77-2.85-3-3.45-.83-.41-1.62-.41-2.27-.1l-5.56,2.68c.64-.31,1.43-.3,2.27,.1,1.3,.63,2.44,2.07,3.13,3.73,.49-.69,1.2-1.04,2.03-.98h0c-.41-.03-.79,.03-1.13,.2Z" fill="url(#e)" opacity=".8"/></g></svg>