<?xml version="1.0" encoding="UTF-8"?><svg id="a" xmlns="http://www.w3.org/2000/svg" xmlns:xlink="http://www.w3.org/1999/xlink" viewBox="0 0 48 48"><defs><linearGradient id="c" x1="11.47" y1="31.39" x2="43.5" y2="31.39" gradientTransform="matrix(1, 0, 0, 1, 0, 0)" gradientUnits="userSpaceOnUse"><stop offset="0" stop-color="#2f3541" stop-opacity=".4"/><stop offset="1" stop-color="#2f3541" stop-opacity="0"/></linearGradient><linearGradient id="d" x1="13.64" y1="9.52" x2="22.68" y2="16.98" gradientTransform="matrix(1, 0, 0, 1, 0, 0)" gradientUnits="userSpaceOnUse"><stop offset="0" stop-color="#f49"/><stop offset="1" stop-color="#f84"/></linearGradient><linearGradient id="e" x1="30.61" y1="29.01" x2="29.84" y2="16.59" xlink:href="#d"/><linearGradient id="f" x1="16.62" y1="21.92" x2="19.83" y2="24.81" xlink:href="#d"/><linearGradient id="g" x1="22.87" y1="30.18" x2="23.12" y2="23.59" xlink:href="#d"/><linearGradient id="h" x1="28.14" y1="25.77" x2="28.82" y2="25.77" xlink:href="#d"/><linearGradient id="i" x1="33.48" y1="26.86" x2="31.79" y2="19.8" xlink:href="#d"/><linearGradient id="j" x1="29.51" y1="22.63" x2="29.51" y2="22.63" xlink:href="#d"/><linearGradient id="k" x1="30.94" y1="25.9" x2="30.94" y2="25.91" xlink:href="#d"/><linearGradient id="l" x1="29.25" y1="26.52" x2="29.19" y2="23.4" xlink:href="#d"/><linearGradient id="m" x1="29.01" y1="26.91" x2="31.38" y2="30.61" xlink:href="#d"/><linearGradient id="n" x1="22.93" y1="14.77" x2="28.6" y2="17.75" xlink:href="#d"/><linearGradient id="o" x1="23.16" y1="23.83" x2="23.23" y2="8.76" xlink:href="#d"/></defs><g><polyline points="44 30.5 24 20.5 4 30.5 24 40.5 44 30.5 44 30.5" fill="#f2f6ff"/><polygon points="24 40.5 24 42.5 4 32.5 4 30.5 24 40.5" fill="#fff" opacity=".2"/><polygon points="24 40.5 24 42.5 44 32.5 44 30.5 24 40.5" fill="#2f3541"/></g><rect width="48" height="48" fill="none"/><polygon points="44 30.5 33.45 35.77 21 31 24 27 40.18 28.59 44 30.5" fill="url(#c)"/><g><path d="M21.65,30.24c.11,.32,.09,.64-.04,.83-.13,.2-.36,.24-.61,.12l-2.12-1.04c-.33-.16-.6-.57-.68-1l-.7-4.93,2.83,1.38,1.32,4.64Z" fill="#fff5fa"/><path d="M21.65,30.24c.11,.32,.09,.64-.04,.83-.13,.2-.36,.24-.61,.12l-2.12-1.04c-.33-.16-.6-.57-.68-1l-.7-4.93,2.83,1.38,1.32,4.64Zm-2.76-.96l2.12,1.04v-.03l-.02-.04-1.14-4-1.5-.73,.54,3.76" fill="#2f3541"/><path d="M23.9,13.97c-.66-.32-1.27-.34-1.75-.1l-5.65,2.73c.48-.23,1.09-.22,1.75,.1l2.12,1.04,5.65-2.73-2.12-1.04Z" fill="url(#d)" opacity=".8"/><path d="M18.25,16.7l2.12,1.04-.04,7-2.12-1.04c-1.56-.76-2.82-2.95-2.81-4.88s1.29-2.88,2.85-2.11Z" fill="#fff5fa"/><path d="M18.25,16.7l2.12,1.04-.04,7-2.12-1.04c-1.56-.76-2.82-2.95-2.81-4.88s1.29-2.88,2.85-2.11Zm1.38,6.81l.03-5.25-1.41-.69c-1.17-.57-2.13,.14-2.14,1.59s.94,3.09,2.11,3.66l1.41,.69" fill="#2f3541"/><polygon points="27.47 18.57 33.11 15.84 33.05 28.08 27.4 30.8 27.47 18.57" fill="url(#e)" opacity=".8"/><path d="M21.08,18.08l6.39,.49-.07,12.24-6.36-5.73,.04-7Z" fill="#fff5fa"/><polygon points="21.04 25.08 21.04 24.39 20.33 24.73 18.4 23.79 17.5 24.22 20.33 25.6 21.17 25.2 21.04 25.08" fill="url(#f)" opacity=".8"/><path d="M21.45,31.23l4.18-2.02-4.45-4.01-.85,.41,1.32,4.64c.11,.32,.09,.64-.04,.83-.04,.07-.1,.12-.17,.15Z" fill="url(#g)" opacity=".8"/><path d="M21.08,18.08l6.39,.49-.07,12.24-6.36-5.73,.04-7Zm5.62,11.17l.05-9.81-4.96-.38-.03,5.74,4.94,4.45" fill="#2f3541"/><path d="M28.16,23.28c.78,.38,1.41,1.48,1.41,2.44s-.65,1.44-1.42,1.06v-.88c.39,.19,.71-.04,.72-.53s-.31-1.03-.7-1.22v-.87Z" fill="#2f3541"/><path d="M28.47,25.95c.17-.03,.29-.16,.35-.37l-.68,.33c.09,.04,.18,.06,.26,.06,.03,0,.05,0,.07-.01Z" fill="url(#h)" opacity=".8"/><path d="M35.53,25.91l-5.65,2.73c.66-.32,1.09-1.11,1.1-2.23,.01-1.93-1.25-4.11-2.81-4.87l5.65-2.73c1.56,.76,2.82,2.95,2.81,4.87,0,1.12-.43,1.91-1.1,2.23Z" fill="url(#i)" opacity=".8"/><path d="M28.17,21.54c1.56,.76,2.82,2.95,2.81,4.87s-1.29,2.88-2.85,2.12v-.87c1.17,.57,2.13-.15,2.14-1.59s-.94-3.09-2.11-3.66v-.87Z" fill="#2f3541"/><g><polygon points="29.51 22.63 29.51 22.63 29.51 22.63 29.51 22.63" fill="url(#j)" opacity=".8"/><polygon points="30.94 25.91 30.94 25.91 30.94 25.9 30.94 25.91" fill="url(#k)" opacity=".8"/><path d="M29.56,25.72c0,.56-.22,.96-.55,1.12l1.24-.6c0-.06,.02-.11,.02-.17,0-1.13-.58-2.37-1.38-3.13l-.73,.35c.78,.38,1.41,1.48,1.41,2.44Z" fill="url(#l)" opacity=".8"/></g><path d="M28.65,27.82c.09,.01,.17,.03,.25,.03,.04,0,.09,0,.13,0,.07,0,.15-.02,.21-.04,.04-.01,.08-.02,.12-.04,.4-.16,.7-.55,.83-1.1l-2.06,1c.14,.07,.27,.11,.4,.14,.04,.01,.08,.01,.12,.02Z" fill="url(#m)" opacity=".8"/><polygon points="21.08 18.08 26.73 15.35 33.11 15.84 27.47 18.57 21.08 18.08" fill="url(#n)" opacity=".8"/><polygon points="21.08 18.08 26.01 15.7 26.02 15.01 20.37 17.73 20.33 24.73 21.04 24.39 21.08 18.08 22.03 18.15 21.08 18.08" fill="url(#o)" opacity=".8"/></g></svg>