<?xml version="1.0" encoding="UTF-8"?><svg id="a" xmlns="http://www.w3.org/2000/svg" viewBox="0 0 24 24"><rect x="0" y="0" width="24" height="24" fill="none"/><path d="m18.83,8l-2.83-2.83-2.83,2.83,2.83,2.83,2.83-2.83m.71-.71c.39.39.39,1.02,0,1.41l-2.83,2.83c-.39.39-1.02.39-1.41,0l-2.83-2.83c-.39-.39-.39-1.02,0-1.41l2.83-2.83c.39-.39,1.02-.39,1.41,0l2.83,2.83h0Zm-9.54-1.29h-4v4h4v-4m0-1c.55,0,1,.45,1,1v4c0,.55-.45,1-1,1h-4c-.55,0-1-.45-1-1v-4c0-.55.45-1,1-1h4Zm0,9h-4v4h4v-4m0-1c.55,0,1,.45,1,1v4c0,.55-.45,1-1,1h-4c-.55,0-1-.45-1-1v-4c0-.55.45-1,1-1h4Zm8,1h-4v4h4v-4m0-1c.55,0,1,.45,1,1v4c0,.55-.45,1-1,1h-4c-.55,0-1-.45-1-1v-4c0-.55.45-1,1-1h4Z" fill="#fff"/></svg>