<?xml version="1.0" encoding="UTF-8"?><svg id="a" xmlns="http://www.w3.org/2000/svg" xmlns:xlink="http://www.w3.org/1999/xlink" viewBox="0 0 48 48"><defs><linearGradient id="c" x1="17.08" y1="31.63" x2="43.58" y2="31.63" gradientTransform="matrix(1, 0, 0, 1, 0, 0)" gradientUnits="userSpaceOnUse"><stop offset="0" stop-color="#2f3541" stop-opacity=".4"/><stop offset="1" stop-color="#2f3541" stop-opacity="0"/></linearGradient><linearGradient id="d" x1="25.75" y1="5.01" x2="27.69" y2="26.66" gradientTransform="matrix(1, 0, 0, 1, 0, 0)" gradientUnits="userSpaceOnUse"><stop offset="0" stop-color="#00d2b2"/><stop offset="1" stop-color="#26f"/></linearGradient><linearGradient id="e" x1="24.85" y1="8.52" x2="33.33" y2="27.9" xlink:href="#d"/></defs><g><polyline points="44 30.5 24 20.5 4 30.5 24 40.5 44 30.5 44 30.5" fill="#f2f6ff"/><polygon points="24 40.5 24 42.5 4 32.5 4 30.5 24 40.5" fill="#fff" opacity=".2"/><polygon points="24 40.5 24 42.5 44 32.5 44 30.5 24 40.5" fill="#2f3541"/></g><polygon points="44 30.5 35.45 34.77 24.97 31.02 31.13 28.48 40.18 28.59 44 30.5" fill="url(#c)"/><rect width="48" height="48" fill="none"/><rect width="48" height="48" fill="none"/><g><rect x="12" y="9" width="24" height="24" fill="none"/><polygon points="27.57 22.85 33.22 20.12 27.5 26.98 21.85 29.7 27.57 22.85" fill="url(#d)" opacity=".8"/><polygon points="28.99 13.68 24.74 11.6 22.61 10.57 16.97 13.29 19.09 14.33 23.34 16.4 25.46 17.44 31.11 14.71 28.99 13.68" fill="#40dec6" opacity=".8"/><polygon points="25.46 17.44 31.11 14.71 33.22 20.12 27.57 22.85 25.46 17.44" fill="url(#e)" opacity=".8"/><path d="M25.46,17.44l2.11,5.41-5.72,6.85-1.42-.69-5.61-12.38,2.15-3.34,8.5,4.14Z" fill="#fff5fa"/><path d="M25.46,17.44l2.11,5.41-5.72,6.85-1.42-.69-5.61-12.38,2.15-3.34,2.12,1.04,4.25,2.07,2.12,1.04Zm-4.11,11.15l2.36-6.74-5.05-2.47,2.27,9,.43,.21m-5.15-10.4l3.37,7.43-1.67-6.6-1.7-.83m6.53,8.97l3.43-4.11-1.7-.83-1.73,4.94m-3.18-11.72l-1.15,2.95,5.55,2.71-1.11-4.05-3.3-1.61m-3.89,1.56l.03,.06,1.96,.95,1.15-2.95-1.44-.7-1.7,2.64m9.06,4.47l1.96,.95,.03-.03-1.66-4.27-1.44-.7,1.12,4.06" fill="#2f3541"/></g></svg>