<?xml version="1.0" encoding="UTF-8"?><svg id="a" xmlns="http://www.w3.org/2000/svg" viewBox="0 0 24 24"><rect width="24" height="24" fill="none"/><g><g><g><path d="M12.18,20.69V4.23H5.27V14.54c0,3.52,3.02,6.23,6.72,6.23l.19-.08Z" fill="#f2db38"/><path d="M10.02,17.34s0-.08-.02-.11c-.27-.09-.57-.11-.85-.04-.05-.02-.03-.07,0-.13,.33-.55,.85-.94,1.2-1.52,0,0-.2-.13-.29-.13l-1.35,1.57c-.11,.07-.19,.13-.34,.13-.41-.03-.47-.32-.65-.59l-.15-.03s-.04,.04-.07,.06c-.03-.06-.09-.11-.09-.11-.07-.03-.38-.17-.54,.12-.03,.05-.04,.11-.05,.16,.09-.06,.19-.24,.36-.17,0,0,.09,.09,.17,.14-.01,.02-.02,.04-.02,.07,.15,.22,.35,.4,.58,.53,0,0,.13,.01,.1,.07-.24,.13-.45-.12-.82-.06-.01,.01-.01,.04-.02,.06-.09,.01-.12,.05-.24,.18-.15,.17-.08,.26,0,.45,.03-.09,.06-.36,.26-.42,.03,.08,.08,.16,.11,.16,0,0,.27,.01,.5-.09,.18-.02,.3-.15,.45,0l-.23,.23c-.12,.17-.51,.4-.34,.8,.03,0,.05,0,.08,0-.03,.07-.02,.17-.02,.17,.09,.1,.22,.17,.36,.18-.15-.09-.17-.27-.17-.36,.06-.02,.11-.04,.15-.08,.12-.44,.4-.82,.78-1.07-.02,0,.14-.04,.14-.04l.36,.04c.2,0,.48,.3,.65,.02,.11,.09,.23,.13,.2,.4,.19-.13,.12-.37,.12-.37-.07-.1-.18-.17-.29-.22Z" fill="#c2172e"/><path d="M9.96,8.33c-.15-.16-.33-.31-.51-.43-.46-.21-1.12,.1-1.47-.18-.09-.11-.11-.25-.06-.38-.12,.03-.21,.13-.23,.22s-.02,.3,.08,.42c.23,.19,.58,.06,.88,.05,.23-.03,.47-.03,.7,0,.23,.08,.62,.3,.62,.3Z" fill="#c2172e"/><path d="M12.05,8.17c-.07-.09-.15-.17-.24-.25,.21-.08,.23-.28,.23-.28-.12,.08-.26,0-.38-.08s-.06-.1-.06-.1c0,0,.19-.17,.26-.25-.07,0-.13,0-.2,0-.36,0-.31-.43-.32-.45h-1.82l-.17,.38,1.63,1.76c.1,.19,.18,.38,.24,.59-.2-.09-.43-.09-.63,0l-.29,.26c-.71-.44-1.27,.59-2.02,.09-.12-.09-.07-.28-.06-.4s.17-.17,.27-.23c-.12-.33-.44-.55-.62-.86-.74-1.05-1.41-2.14-2.02-3.27-.11,.1-.15,.23-.21,.37-.3,.89,.3,1.58,.75,2.26,.35,.42,.74,.82,1.17,1.17l.06,.15h-.13c-.66-.28-1.28-.65-1.85-1.08-.19,.4-.09,.88,.24,1.17,.5,.28,1.05,.46,1.61,.53v.04c-.63,.14-1.29,.16-1.93,.08-.07,.21,0,.45,.18,.59,.54,.4,1.33,.12,1.84-.12h0v.08c-.59,.43-1.25,.76-1.94,.99,.05,.19,.18,.35,.34,.45,.83,.23,1.44-.5,1.93-1.06h.06c-.03,.19-.1,.37-.22,.52-.56,.89-1.2,1.74-1.89,2.53,.23,.22,.58,.15,.86,.08,1.04-.48,1.26-1.63,1.75-2.51l.15-.35h.09v.21c-.44,1.59-.97,3.16-1.58,4.69,.18,0,.36-.03,.53-.09,1.17-.39,1.17-1.69,1.43-2.66,.12-.7,.33-2.1,.33-2.1h.1s0,2.06-.09,3.09l-.05,.66c.52-.22,.9-.69,1.01-1.25,.01-.89-.04-1.78-.16-2.66,.02-.17,.16-.12,.16-.12,.23,.66,.42,1.33,.62,2.01-.41,1.01-1,1.96-1.43,2.97l.7-.16c.13,.45,.28,.88,.45,1.31h0c.24-.83,.43-1.69,.66-2.51h.04c.34,1.09,.75,2.46,.15,3.56-.22,.65-.77,1.14-1.44,1.28-.14,.02-.24,0-.27-.14-.06-.26,.27-.4,.22-.67-.04-.16-.14-.29-.29-.36-.28-.1-.59-.03-.8,.18-.06,.06-.18,.14-.15,.25,.12,.05,.24-.08,.36-.11s.17,0,.2,.11c0,.29-.38,.43-.5,.67-.11,.2-.11,.44,0,.63,.25,.36,.72,.32,1.1,.21,.76-.29,1.39-.83,1.78-1.55,.06,0,.06,.08,.08,.12-.05,.59-.52,.96-.81,1.4-.07,.16,.1,.3,.23,.38,.27,.08,.55,.25,.72,.49l.03-12.6Z" fill="#171714"/><path d="M10.34,5.2c.18,0,.33-.13,.33-.31h0c-.02-.18-.19-.31-.37-.29-.15,.02-.27,.14-.29,.29,0,.18,.15,.31,.33,.31" fill="#c2172e"/><path d="M11.43,6.22c-.01,.06-.06,.1-.12,.09-.07,0-.12-.05-.13-.12h0c0-.13-.09-.51-.87-.51-.63,0-.87,.3-.87,.51,0,.05-.05,.12-.12,.12s-.12-.07-.12-.12,.08-.77,1.12-.77c1.1,0,1.12,.8,1.12,.8Z" fill="#c2172e"/><path d="M11.46,6.44c0-.06-.08-.11-.15-.1h-1.92c-.07,0-.14,.05-.15,.12h0c0,.07,.06,.11,.12,.11-.02,.02-.04,.04-.05,.07-.01,.07,.03,.13,.09,.15h1.8c.1,0,.13-.03,.15-.09,.01-.06-.02-.12-.08-.14,0,0,.18,.02,.18-.12Z" fill="#c2172e"/><path d="M10.35,6.05c.08,0,.14-.07,.14-.15s-.07-.14-.15-.14c-.08,0-.14,.07-.14,.15,0,.08,.07,.15,.15,.15" fill="#c2172e"/><path d="M10.35,5.75c.08,0,.14-.07,.14-.15s-.07-.14-.15-.14c-.08,0-.14,.07-.14,.15,0,.08,.07,.15,.15,.15" fill="#c2172e"/><path d="M10.35,6.33c.08,0,.14-.07,.14-.15s-.07-.14-.15-.14c-.08,0-.14,.07-.14,.15,0,.08,.07,.15,.15,.15" fill="#c2172e"/><path d="M11.55,6.19c.08,0,.14-.07,.14-.15s-.07-.14-.15-.14c-.08,0-.14,.07-.14,.15,0,.08,.07,.15,.15,.15" fill="#c2172e"/><path d="M11.43,5.92c.08,0,.14-.07,.14-.15s-.07-.14-.15-.14c-.08,0-.14,.07-.14,.15,0,.08,.07,.15,.15,.15" fill="#c2172e"/><path d="M11.23,5.7c.08,0,.14-.07,.14-.15s-.07-.14-.15-.14c-.08,0-.14,.07-.14,.15,0,.08,.07,.15,.15,.15" fill="#c2172e"/><path d="M10.97,5.55c.08,0,.14-.07,.14-.15s-.07-.14-.15-.14c-.08,0-.14,.07-.14,.15,0,.08,.07,.15,.15,.15" fill="#c2172e"/><path d="M10.68,5.46c.08,0,.14-.07,.14-.15s-.07-.14-.15-.14c-.08,0-.14,.07-.14,.15,0,.08,.07,.15,.15,.15" fill="#c2172e"/><path d="M10.37,5.46c.08,0,.14-.07,.14-.15s-.07-.14-.15-.14c-.08,0-.14,.07-.14,.15,0,.08,.07,.15,.15,.15" fill="#c2172e"/><path d="M10.06,5.45c.08,0,.14-.07,.14-.15s-.07-.14-.15-.14c-.08,0-.14,.07-.14,.15,0,.08,.07,.15,.15,.15" fill="#c2172e"/><path d="M9.75,5.53c.08,0,.14-.07,.14-.15s-.07-.14-.15-.14c-.08,0-.14,.07-.14,.15,0,.08,.07,.15,.15,.15" fill="#c2172e"/><path d="M9.45,5.67c.08,0,.14-.07,.14-.15s-.07-.14-.15-.14c-.08,0-.14,.07-.14,.15,0,.08,.07,.15,.15,.15" fill="#c2172e"/><path d="M9.24,5.88c.08,0,.14-.07,.14-.15s-.07-.14-.15-.14c-.08,0-.14,.07-.14,.15,0,.08,.07,.15,.15,.15" fill="#c2172e"/><path d="M9.09,6.16c.08,0,.14-.07,.14-.15s-.07-.14-.15-.14c-.08,0-.14,.07-.14,.15,0,.08,.07,.15,.15,.15" fill="#c2172e"/><path d="M9.56,7.82c-.19-.14-.66-.24-1.01-.23-.13,0-.15,.11-.21,.19-.12-.07-.18-.21-.16-.35,.02-.13,.1-.24,.22-.29,.19-.14,.44,.12,.58-.06,.05-.21,.36-.08,.35-.08l.09,.08,.38,.39c.33,.34,1.18,1.45,1.18,1.45-.64-.38-1.4-.56-2.15-.56,.05-.11,.49-.26,.59-.25s.64,.22,.64,.22c0,0-.32-.36-.51-.49Z" fill="#c2172e"/><path d="M10.3,7.33c.1,0,.19-.05,.19-.12s-.08-.12-.19-.12-.19,.05-.19,.12,.09,.12,.19,.12" fill="#fff"/><path d="M10.24,7.27s.09-.03,.09-.08h0s-.04-.09-.09-.09h0s-.09,.03-.09,.08h0c0,.05,.05,.09,.09,.09" fill="#171714"/><path d="M9.96,6.92l-.06,.09c-.05,.14,.4-.11,.74,0-.42-.05-.76,.22-.83,.06s.08-.13,.15-.15" fill="#fff"/><path d="M11.99,20.77c3.72,0,6.75-2.87,6.75-6.41V4.23h-6.75V20.77Z" fill="#c2172e"/></g><path d="M18.25,6.28v-.89h-1.01v.61h-.8v-.61h-1.03v1.54h-.37v-1.55c0-.12-.04-.24-.13-.32,0,0,0,0,0-.01,0-.18-.15-.33-.33-.32h0c-.18,0-.32,.15-.32,.33-.1,.08-.15,.2-.15,.32v7.98h-.07c-.13,0-.24,.11-.24,.24s.11,.24,.24,.24h.07v.05h-.07c-.13,0-.24,.11-.24,.24s.11,.24,.24,.24h.07v.19h.05c-.04,.68-.42,1.29-1.04,1.6,0-.13-.11-.23-.23-.23s-.24,.11-.24,.24v.19c-.18,0-.33,.15-.33,.34s.15,.34,.33,.34v.19c0,.13,.11,.24,.24,.24s.23-.1,.23-.23c.6,.31,.98,.9,1.03,1.56h-.11c-.13,0-.24,.11-.24,.24s.11,.24,.24,.24h.19c0,.18,.15,.32,.33,.32,.18,0,.32-.14,.33-.32h.2c.13,0,.24-.11,.24-.24s-.11-.24-.24-.24h-.11c.05-.67,.43-1.26,1.03-1.56,.02,.1,.1,.17,.19,.19,.13,.02,.25-.07,.27-.2v-.19c.19,0,.34-.15,.34-.34s-.15-.34-.34-.34v-.19c0-.13-.11-.24-.24-.24s-.23,.1-.23,.23c-.61-.31-.99-.92-1.03-1.6h.06v-.19h.05c.13,0,.24-.11,.24-.24s-.11-.24-.24-.24h-.05v-.05h.05c.13,0,.24-.11,.24-.24s-.11-.24-.24-.24h-.05v-3.9h.37v1.54h1.03v-.61h.8v.61h1.01v-.89h-.63v-.65h.63v-2.53h-.63v-.65h.63Zm-2.99,10.38c0,.2-.16,.35-.35,.35,0,.2-.16,.35-.35,.35s-.35-.16-.35-.35c-.19,0-.35-.16-.35-.35s.16-.35,.35-.35c0-.2,.16-.35,.35-.35s.35,.16,.35,.35c.19,0,.35,.16,.35,.35Zm2.18-8.19h-.62v.92h-.56v-.92h-.62v-.55h.62v-.92h.56v.92h.62v.55Z" fill="#f2db38"/></g><path d="M11.99,21c-1.95,0-3.89-.78-5.19-2.1-1.18-1.19-1.81-2.77-1.8-4.56V4h14V14.34c0,4.54-4.18,6.66-7.01,6.66ZM5.42,4.42V14.34c0,1.68,.58,3.15,1.68,4.26,1.22,1.24,3.05,1.98,4.89,1.98,2.66,0,6.59-1.98,6.59-6.24V4.42H5.42Z" fill="#171714"/></g></svg>