<?xml version="1.0" encoding="UTF-8"?><svg id="d" xmlns="http://www.w3.org/2000/svg" xmlns:xlink="http://www.w3.org/1999/xlink" viewBox="0 0 48 48"><defs><linearGradient id="b" x1="7.4" y1="2.04" x2="13.92" y2="9.47" gradientTransform="matrix(1, 0, 0, 1, 0, 0)" gradientUnits="userSpaceOnUse"><stop offset="0" stop-color="#00d2b2"/><stop offset="1" stop-color="#26f"/></linearGradient><linearGradient id="c" x1="11.02" y1="2.1" x2="14.16" y2="7.54" xlink:href="#b"/><symbol id="a" viewBox="0 0 20 13"><g><polyline points="20 5 10 0 0 5 10 10 20 5 20 5" fill="url(#b)" opacity=".8"/><g><polygon points=".4 7.75 .4 5.65 9.6 10.25 9.6 12.35 .4 7.75" fill="#fff3f8"/><path d="M.8,6.29l8.4,4.2v1.21L.8,7.51v-1.21M0,5v3l10,5v-3L0,5H0Z" fill="#2f3541"/></g><polygon points="10 10 10 13 20 8 20 5 10 10" fill="url(#c)" opacity=".8"/></g></symbol><linearGradient id="f" x1="24" y1="30.5" x2="44" y2="30.5" gradientTransform="matrix(1, 0, 0, 1, 0, 0)" gradientUnits="userSpaceOnUse"><stop offset="0" stop-color="#2f3541" stop-opacity=".4"/><stop offset="1" stop-color="#2f3541" stop-opacity="0"/></linearGradient></defs><g><polyline points="44 30.5 24 20.5 4 30.5 24 40.5 44 30.5 44 30.5" fill="#f2f6ff"/><polygon points="24 40.5 24 42.5 4 32.5 4 30.5 24 40.5" fill="#fff" opacity=".2"/><polygon points="24 40.5 24 42.5 44 32.5 44 30.5 24 40.5" fill="#2f3541"/></g><rect x="12" y="10" width="24" height="24" fill="none"/><rect x="12" y="10" width="24" height="24" fill="none"/><rect x="12" y="10" width="24" height="24" fill="none"/><rect x="0" y="0" width="48" height="48" fill="none"/><use width="20" height="13" transform="translate(14 22)" xlink:href="#a"/><use width="20" height="13" transform="translate(14 18)" xlink:href="#a"/><use width="20" height="13" transform="translate(14 14)" xlink:href="#a"/><polygon points="34 26 34 30 24 35 29 35 29 34 30 35 35 35 35 34 35.67 34.67 44 30.5 35 26 34 26" fill="url(#f)"/></svg>