<?xml version="1.0" encoding="UTF-8"?><svg id="a" xmlns="http://www.w3.org/2000/svg" viewBox="0 0 24 24"><rect width="24" height="24" fill="none"/><g><path d="M1,15.73c0,.15,.12,.27,.27,.27H7.04c.14,0,.25-.11,.25-.25,.13-2.48,2.19-4.47,4.71-4.47V5C6.02,5,1.15,9.79,1,15.73Z" fill="#2f3541" opacity=".8"/><path d="M23,15.73c0,.15-.12,.27-.27,.27h-5.77c-.14,0-.25-.11-.25-.25-.13-2.48-2.19-4.47-4.71-4.47V5c5.98,0,10.85,4.79,11,10.73Z" fill="#2f3541" opacity=".4"/><path d="M12,3l-1,13c0,.55,.45,1,1,1s1-.45,1-1l-1-13Z" fill="#2f3541"/></g></svg>