<?xml version="1.0" encoding="UTF-8"?><svg id="a" xmlns="http://www.w3.org/2000/svg" viewBox="0 0 24 24"><g><polygon points="9.1 13.43 7 14.48 7 19.48 9 18.48 9 16.62 10.86 17.55 11 17.48 11 14.38 9.1 13.43" fill="#2f3541" opacity=".2"/><polygon points="9 13.38 9 11.5 7 10.5 6 11 6 11.88 5.12 11.44 3 12.5 7 14.5 9.12 13.44 9 13.38" fill="#2f3541" opacity=".2"/></g><g><polygon points="17 14.5 17 19.5 21 17.5 21 12.5 17 14.5" fill="#2f3541" opacity=".2"/><polygon points="17 14.5 17 19.5 13 17.5 13 12.5 17 14.5" fill="#2f3541" opacity=".2"/><polyline points="21 12.5 17 10.5 13 12.5 17 14.5 21 12.5 21 12.5" fill="#2f3541" opacity=".2"/></g><g><polygon points="17 8.5 17 13.5 21 11.5 21 6.5 17 8.5" fill="#2f3541" opacity=".2"/><polyline points="21 6.5 17 4.5 13 6.5 17 8.5 21 6.5 21 6.5" fill="#2f3541" opacity=".2"/><polygon points="17 8.5 17 13.5 13 11.5 13 6.5 17 8.5" fill="#2f3541" opacity=".2"/></g><g><polyline points="16 4 12 2 8 4 12 6 16 4 16 4" fill="#2f3541" opacity=".2"/><polygon points="12 6.02 12 11.02 8 9.02 8 4.02 12 6.02" fill="#2f3541" opacity=".2"/><polygon points="12 6.02 12 11.02 16 9.02 16 4.02 12 6.02" fill="#2f3541" opacity=".2"/></g><rect width="24" height="24" fill="none"/><path d="M4,14.12l2,1v2.76l-2-1v-2.76m-1-1.62v5l4,2v-5l-4-2h0Z" fill="#2f3541"/><path d="M3,6.5v5l4,2v-5L3,6.5Zm3,5.38l-2-1v-2.76l2,1v2.76Z" fill="#2f3541"/><path d="M9,16.62l2,1v2.76l-2-1v-2.76m-1-1.62v5l4,2v-5l-4-2h0Z" fill="#2f3541"/><path d="M9,10.62l2,1v2.76l-2-1v-2.76m-1-1.62v5l4,2v-5l-4-2h0Z" fill="#2f3541"/><g><polygon points="12 11 12 16 16 14 16 9 12 11" fill="#2f3541" opacity=".4"/><polyline points="16 9 12 7 8 9 12 11 16 9 16 9" fill="#2f3541" opacity=".2"/></g><g><polyline points="11 6.5 7 4.5 3 6.5 7 8.5 11 6.5 11 6.5" fill="#2f3541" opacity=".2"/><polygon points="7 8.5 7 13.5 9 12.5 9 10.62 10.88 11.56 11 11.5 11 6.5 7 8.5" fill="#2f3541" opacity=".2"/></g><g><polygon points="12 17 12 22 16 20 16 15 12 17" fill="#2f3541" opacity=".2"/><polygon points="12 13 11 13.5 11 14.38 10.12 13.94 8 15 12 17 16 15 12 13" fill="#2f3541" opacity=".2"/></g></svg>