<?xml version="1.0" encoding="UTF-8"?><svg id="a" xmlns="http://www.w3.org/2000/svg" viewBox="0 0 24 24"><rect y="0" width="24" height="24" fill="none"/><g><path d="M12.5,12c0-.08,.21-.21,.4-.33,.44-.28,1.1-.71,1.1-1.67,0-1.1-.9-2-2-2s-2,.9-2,2h1c0-.55,.45-1,1-1s1,.45,1,1c0,.4-.23,.56-.64,.83-.36,.23-.86,.55-.86,1.17v2h1v-2Zm0,3h-1v1h1v-1Zm0-3c0-.08,.21-.21,.4-.33,.44-.28,1.1-.71,1.1-1.67,0-1.1-.9-2-2-2s-2,.9-2,2h1c0-.55,.45-1,1-1s1,.45,1,1c0,.4-.23,.56-.64,.83-.36,.23-.86,.55-.86,1.17v2h1v-2Zm0,3h-1v1h1v-1Z" fill="#fff"/><path d="M12,5c3.86,0,7,3.14,7,7,0,1.07-.24,2.11-.72,3.08l-.15,.3,.06,.33,.56,3.05-3.05-.56-.33-.06-.3,.15c-.97,.48-2.01,.72-3.08,.72-3.86,0-7-3.14-7-7s3.14-7,7-7m0-1c-4.42,0-8,3.58-8,8s3.58,8,8,8c1.27,0,2.46-.3,3.52-.83l4.48,.83-.83-4.48c.52-1.06,.83-2.26,.83-3.52,0-4.42-3.58-8-8-8h0Z" fill="#fff"/></g></svg>