<?xml version="1.0" encoding="UTF-8"?><svg id="a" xmlns="http://www.w3.org/2000/svg" viewBox="0 0 24 24"><rect width="24" height="24" fill="none"/><g><rect width="24" height="24" fill="none"/><path d="M12,8.09l.69,1.62,.47,1.1,1.2,.1,1.73,.15-1.31,1.13-.92,.79,.28,1.18,.4,1.68-1.5-.9-1.03-.62-1.03,.62-1.51,.91,.39-1.69,.27-1.18-.92-.79-1.31-1.13,1.74-.15,1.2-.1,.47-1.1,.69-1.62m0-5.09l-2.53,5.92-6.47,.55,4.9,4.23-1.47,6.29,5.56-3.34,5.56,3.34-1.48-6.29,4.91-4.23-6.47-.55-2.53-5.92h0Z" fill="#2f3541"/></g><rect width="24" height="24" fill="none"/></svg>