<?xml version="1.0" encoding="UTF-8"?><svg id="c" xmlns="http://www.w3.org/2000/svg" xmlns:xlink="http://www.w3.org/1999/xlink" viewBox="0 0 48 48"><defs><linearGradient id="a" x1="22.27" y1="31.84" x2="40.83" y2="31.84" gradientTransform="matrix(1, 0, 0, 1, 0, 0)" gradientUnits="userSpaceOnUse"><stop offset="0" stop-color="#2f3541" stop-opacity=".4"/><stop offset="1" stop-color="#2f3541" stop-opacity="0"/></linearGradient><linearGradient id="e" x1="23.12" y1="15.34" x2="29.29" y2="27.38" gradientTransform="matrix(1, 0, 0, 1, 0, 0)" gradientUnits="userSpaceOnUse"><stop offset="0" stop-color="#00d2b2"/><stop offset="1" stop-color="#26f"/></linearGradient><linearGradient id="f" x1="20.11" y1="9.77" x2="26.35" y2="26.66" gradientTransform="matrix(1, 0, 0, 1, 0, 0)" gradientUnits="userSpaceOnUse"><stop offset="0" stop-color="#00d2b2"/><stop offset="1" stop-color="#26f"/></linearGradient></defs><g><polyline points="44 30.5 24 20.5 4 30.5 24 40.5 44 30.5 44 30.5" fill="#f2f6ff"/><polygon points="24 40.5 24 42.5 4 32.5 4 30.5 24 40.5" fill="#fff" opacity=".2"/><polygon points="24 40.5 24 42.5 44 32.5 44 30.5 24 40.5" fill="#2f3541"/></g><polygon points="19 33.2 34.38 35.31 44 30.5 39.73 28.37 25.6 30 19 33.2" fill="url(#a)"/><rect x="12" y="12" width="24" height="24" fill="none"/><path d="M14.78,15.38l12.81,6.22-.06,10.49-4.25-2.07-4.28,3.18v-5.25l-4.22-2.07V15.38Zm12.05,15.49l.05-8.74-11.33-5.53-.05,8.74,3.54,1.73,.71,.35v.87l-.02,3.14,3.06-2.27,.21-.16,.29,.14,3.54,1.73" fill="#2f3541"/><polyline points="26.88 30.87 26.88 22.13 15.5 16.6 15.5 25.35 19.73 27.42 19.73 31.43 23 29.01 26.83 30.87" fill="#fff3f8"/><g><polygon points="14.84 15.38 20.49 12.66 33.24 18.88 27.59 21.6 14.84 15.38" fill="url(#e)"/><path d="M33.24,18.88v10.49l-5.7,2.73v-10.49l5.7-2.73Zm-14.23,14.32l5.42-2.62-1.14-.56-4.28,3.18Z" fill="url(#f)" opacity=".8"/></g><rect x="0" y="0" width="48" height="48" fill="none"/></svg>