<?xml version="1.0" encoding="UTF-8"?><svg xmlns="http://www.w3.org/2000/svg" width="32" height="32" viewBox="0 0 32 32"><g id="icon"><circle cx="16" cy="16" r="16" fill="#f49"/></g><g id="text_-_keep_locked_to_avoid_add_icons_here"><g><rect id="Rectangle_10877" x="4" y="4" width="24" height="24" fill="none" opacity="0"/><path d="M25,24V10l-4.5-3-4.5,3-4.5-3-4.5,3v14h-1v1H26v-1h-1ZM11.5,8.2018l2.6972,1.7982h-5.3944l2.6972-1.7982Zm4,15.7982h-7.5V11h7.5v13Zm5-15.7982l2.6972,1.7982h-5.3944l2.6972-1.7982Zm.5,15.7982h-1v-3h1v3Zm3,0h-2v-4h-3v4h-2.5V11h7.5v13ZM13,15h1v-1h-1v-2h-3v2h-1v1h4Zm-2-2h1v1h-1v-1Zm2,6h1v-1h-1v-2h-3v2h-1v1h4Zm-2-2h1v1h-1v-1Zm2,6h1v-1h-1v-2h-3v2h-1v1h4Zm-2-2h1v1h-1v-1Zm11-3h1v-1h-1v-4h-3v4h-1v1h4Zm-2-2v-2h1v3h-1v-1Z" fill="#fff"/></g></g></svg>