<?xml version="1.0" encoding="UTF-8"?><svg id="a" xmlns="http://www.w3.org/2000/svg" viewBox="0 0 24 24"><rect x="0" width="24" height="24" fill="none"/><path d="M8,8.94c-.62-.63-1-1.49-1-2.44,0-1.93,1.57-3.5,3.5-3.5s3.5,1.57,3.5,3.5c0,.32-.06,.62-.13,.91-.26-.17-.55-.3-.87-.36v-.55c0-1.38-1.12-2.5-2.5-2.5s-2.5,1.12-2.5,2.5v2.44Zm2-2.44v7.5c0,.45-.32,.64-.62,.64-.15,0-.29-.05-.38-.14-.39-.39-1.69-1.49-2.14-1.85,0,0-.26-.15-.36-.15-.28,0-.5,.22-.5,.5,0,.1,.08,.27,.08,.27l1.92,2.73,3,3.5h4s2-4,2-5v-3c0-.28-.22-.5-.5-.5s-.5,.22-.5,.5v1c0,.28-.22,.5-.5,.5s-.5-.22-.5-.5v-2c0-.28-.22-.5-.5-.5s-.5,.22-.5,.5v1.5c0,.28-.22,.5-.5,.5s-.5-.22-.5-.5v-2.5c0-.28-.22-.5-.5-.5s-.5,.22-.5,.5v2c0,.28-.22,.5-.5,.5s-.5-.22-.5-.5V6.5c0-.28-.22-.5-.5-.5s-.5,.22-.5,.5Zm.5-1.5c.84,0,1.5,.67,1.5,1.5v1.59c.16-.06,.32-.09,.5-.09,.69,0,1.27,.47,1.45,1.11,.17-.07,.36-.11,.55-.11,.69,0,1.27,.47,1.45,1.11,.17-.07,.36-.11,.55-.11,.83,0,1.5,.67,1.5,1.5v3c0,1.12-1.47,4.18-2.11,5.45l-.28,.55h-5.08s-4.29-4.86-5.27-6.65c-.1-.17-.27-.38-.27-.85,0-.84,.67-1.5,1.5-1.5,.69,0,1.08,.46,2.5,1.65V6.5c0-.83,.66-1.5,1.5-1.5Z" fill="#2f3541"/></svg>