<?xml version="1.0" encoding="UTF-8"?><svg id="icon" xmlns="http://www.w3.org/2000/svg" width="32" height="32" xmlns:xlink="http://www.w3.org/1999/xlink" viewBox="0 0 32 32"><defs><linearGradient id="linear-gradient" x1="16" y1="6" x2="16" y2="12" gradientUnits="userSpaceOnUse"><stop offset=".0006" stop-color="#f49" stop-opacity=".6"/><stop offset=".2085" stop-color="#ff4695" stop-opacity=".5853"/><stop offset=".4041" stop-color="#ff4e8c" stop-opacity=".5408"/><stop offset=".5948" stop-color="#ff5a7c" stop-opacity=".4662"/><stop offset=".7825" stop-color="#ff6c66" stop-opacity=".3614"/><stop offset=".9664" stop-color="#ff8349" stop-opacity=".2278"/><stop offset="1" stop-color="#f84" stop-opacity=".2"/></linearGradient></defs><circle cx="16" cy="16" r="16" fill="#fff"/><g><rect x="9" y="6.0002" width="14" height="5.9998" fill="url(#linear-gradient)"/><g><path d="M23,25V12.0004l-14-.0004v13.0001h-3v.9999H26v-1h-3ZM10,13l12,.0004v11.9996l-12-.0003V13Z" fill="#2f3541"/><rect x="11" y="18" width="1" height="2" fill="#2f3541"/><rect x="14" y="18" width="1" height="2" fill="#2f3541"/><rect x="17" y="18" width="1" height="2" fill="#2f3541"/><rect x="11" y="14" width="1" height="2" fill="#2f3541"/><rect x="14" y="14" width="1" height="2" fill="#2f3541"/><rect x="17" y="14" width="1" height="2" fill="#2f3541"/><rect x="11" y="22" width="1" height="2" fill="#2f3541"/><rect x="14" y="22" width="1" height="2" fill="#2f3541"/><rect x="17" y="22" width="1" height="2" fill="#2f3541"/><rect x="20" y="18" width="1" height="2" fill="#2f3541"/><rect x="20" y="14" width="1" height="2" fill="#2f3541"/><rect x="20" y="22" width="1" height="2" fill="#2f3541"/></g><g><rect x="4" y="4" width="24" height="24" fill="none"/><rect x="4" y="4" width="24" height="24" fill="none"/><rect x="4" y="4" width="24" height="24" fill="none"/><rect x="4" y="4" width="24" height="24" fill="none" opacity="0"/></g></g></svg>