<?xml version="1.0" encoding="UTF-8"?><svg id="a" xmlns="http://www.w3.org/2000/svg" viewBox="0 0 24 24"><path d="M12,6c-4.28,0-8,2.42-10,6,2,3.58,5.72,6,10,6s8-2.42,10-6c-2-3.58-5.72-6-10-6Zm4,5c0,2.21-1.79,4-4,4s-4-1.79-4-4,1.79-4,4-4,4,1.79,4,4Zm-4,6c-3.56,0-6.9-1.9-8.84-5,1.23-1.96,3.03-3.44,5.08-4.27-.76,.88-1.24,2.01-1.24,3.27,0,2.76,2.24,5,5,5s5-2.24,5-5c0-1.25-.48-2.39-1.24-3.27,2.05,.82,3.85,2.3,5.08,4.27-1.94,3.1-5.28,5-8.84,5Z" fill="#fff"/><rect y="0" width="24" height="24" fill="none"/></svg>