<?xml version="1.0" encoding="UTF-8"?><svg id="a" xmlns="http://www.w3.org/2000/svg" viewBox="0 0 64 64"><rect x="0" y="0" width="64" height="64" fill="none"/><path d="M44.6,25h-5.6v-5.6h5.6v5.6Zm-12.6,12.6c3.08,0,5.6-2.52,5.6-5.6s-2.52-5.6-5.6-5.6-5.6,2.52-5.6,5.6,2.52,5.6,5.6,5.6Zm28-5.6c0,15.4-12.6,28-28,28S4,47.4,4,32,16.6,4,32,4s28,12.6,28,28Zm-11.2-10.36c0-3.64-2.8-6.44-6.44-6.44H21.64c-3.64,0-6.44,2.8-6.44,6.44v20.72c0,3.64,2.8,6.44,6.44,6.44h20.72c3.64,0,6.44-2.8,6.44-6.44V21.64Zm-7.56,10.36c0,5.04-4.2,9.24-9.24,9.24s-9.24-4.2-9.24-9.24c0-1.12,.28-1.96,.56-2.8h-5.32v13.72c0,1.68,1.4,3.08,3.36,3.08h21.56c1.68,0,3.08-1.4,3.08-3.08v-13.72h-5.32c.28,.84,.56,1.68,.56,2.8Z" fill="#2f3541"/></svg>