<?xml version="1.0" encoding="UTF-8"?><svg id="icon" xmlns="http://www.w3.org/2000/svg" width="24" height="24" viewBox="0 0 24 24"><g id="Rechteck_55747"><rect x="0" y="-.075" width="24" height="24" fill="none"/></g><path d="m20,20v1H4v-1h16Zm-14-2.9998c0-.5522.4477-1,1-1,.0864,0,.1636.0286.2436.0492l7.8672-7.8672-1.605-1.605,6.376-2.4521-2.4941,6.334-1.5698-1.5698-7.8671,7.8671c.0206.0801.0493.1573.0493.2439,0,.5523-.4477,1-1,1s-1-.4477-1-1ZM15.3008,6.958l1.7158,1.7158,1.1016-2.7988-2.8174,1.083Z" fill="#2f3541"/></svg>