<?xml version="1.0" encoding="UTF-8"?><svg id="a" xmlns="http://www.w3.org/2000/svg" xmlns:xlink="http://www.w3.org/1999/xlink" viewBox="0 0 48 48"><defs><linearGradient id="b" x1="18.42" y1="29.93" x2="44" y2="29.93" gradientTransform="matrix(1, 0, 0, 1, 0, 0)" gradientUnits="userSpaceOnUse"><stop offset="0" stop-color="#2f3541" stop-opacity=".4"/><stop offset="1" stop-color="#2f3541" stop-opacity="0"/></linearGradient><linearGradient id="c" x1="19.36" y1="17.13" x2="25.05" y2="27.03" gradientTransform="matrix(1, 0, 0, 1, 0, 0)" gradientUnits="userSpaceOnUse"><stop offset="0" stop-color="#f84"/><stop offset="1" stop-color="#f49"/></linearGradient><linearGradient id="d" x1="19.43" y1="15.52" x2="21.48" y2="19.85" xlink:href="#c"/><linearGradient id="e" x1="21.95" y1="15.65" x2="27.64" y2="25.54" xlink:href="#c"/><linearGradient id="f" x1="27.13" y1="21.65" x2="31" y2="28.09" xlink:href="#c"/><linearGradient id="g" x1="26.9" y1="18.13" x2="29.25" y2="23.08" xlink:href="#c"/><linearGradient id="h" x1="28.32" y1="19" x2="31.21" y2="24.88" xlink:href="#c"/><linearGradient id="i" x1="26.22" y1="15.02" x2="31.36" y2="25.25" xlink:href="#c"/><linearGradient id="j" x1="13.99" y1="19.59" x2="14.78" y2="20.89" xlink:href="#c"/></defs><g><polyline points="44 30.5 24 20.5 4 30.5 24 40.5 44 30.5 44 30.5" fill="#f2f6ff"/><polygon points="24 40.5 24 42.5 4 32.5 4 30.5 24 40.5" fill="#fff" opacity=".2"/><polygon points="24 40.5 24 42.5 44 32.5 44 30.5 24 40.5" fill="#2f3541"/></g><rect x="12" y="11.2" width="24" height="24" transform="translate(48 46.4) rotate(180)" fill="none"/><path d="M33.75,25.9l-.02,3.93-5.65,2.73-3.19-1.55v-.7l-.71,.35-3.85-1.88-1.51,.73s-.12,.07-.4,.05l8.55,2.44,1.12,.56,7.58,2.11,8.33-4.17-10.6-5.3-.54,.26,.9,.44Z" fill="url(#b)"/><rect x="0" y="0" width="48" height="48" fill="none"/><g><path d="M24.21,29.3l-.02,1.36,.71-.35v-.62c0-.27-.16-.51-.34-.6s-.33,.01-.35,.22Z" fill="#f49" opacity=".8"/><polygon points="14.68 17.25 20.32 14.53 23.51 16.08 17.86 18.81 14.68 17.25" fill="url(#c)" opacity=".8"/><path d="M23.86,18s-.1-.06-.14-.1h0s-.07-.09-.1-.14c0-.01-.01-.02-.02-.03-.03-.05-.05-.1-.07-.16h0c-.02-.06-.03-.13-.03-.19v-1.31l-5.64,2.73v1.31h0s0,.01,0,.02v.12l.02,.02v.02h0v.04l.02,.02v.02l.02,.03s.02,.03,.02,.04c0,.01,.01,.02,.02,.03,0,0,.01,.02,.02,.03l.02,.03,.02,.02,.02,.02,.02,.02h.01v.02l.02,.02h.02l.02,.03h.02l.02,.02h.02l.02,.02h.02v.02h.04v.02h.08s.01,.01,.02,.01h.07l.02-.02,5.65-2.73c-.06,.03-.13,.03-.22-.01Z" fill="url(#d)" opacity=".8"/><polygon points="27.41 17.98 26.7 17.64 24.22 16.43 18.57 19.15 21.05 20.36 21.76 20.71 23.53 21.57 29.18 18.85 27.41 17.98" fill="url(#e)" opacity=".8"/><path d="M32.7,25.38s-.1-.06-.14-.1h0s-.07-.09-.1-.14l-.02-.03s-.05-.1-.07-.16h0c-.02-.06-.03-.13-.03-.19,0-.07,.01-.13,.04-.17h0s.06-.08,.1-.1l-5.65,2.73s-.06,.04-.08,.07l-.02,.03h0v.04l-.02,.02v.07l-.02,.02v.03h0v.14l.02,.02v.02h0v.04l.02,.02v.02l.02,.03s.02,.03,.02,.04l.02,.03s.01,.02,.02,.03l.02,.03,.02,.02,.02,.02,.02,.02h.01v.02l.02,.02h.02l.02,.03h.02l.02,.02h.02l.02,.02h.02l1.06,.53,5.65-2.73-1.06-.52Z" fill="url(#f)" opacity=".8"/><path d="M31.31,19.39s0-.04,0-.05c0-.02,0-.04,0-.06v-.06s-.01-.04-.01-.06c0-.02,0-.04-.01-.06,0-.02,0-.04-.01-.06,0-.02,0-.04-.01-.06,0-.02-.01-.04-.02-.06v-.02h0v-.04s-.02-.04-.03-.06c0-.02-.02-.05-.02-.07,0-.02-.02-.05-.03-.07-.01-.03-.02-.06-.04-.08-.02-.05-.05-.09-.08-.14-.02-.04-.04-.07-.06-.1-.02-.03-.03-.06-.05-.09-.02-.03-.04-.06-.06-.09-.02-.02-.04-.05-.06-.07-.02-.02-.04-.04-.05-.06-.02-.02-.03-.04-.05-.06l-.03-.03h0l-.02-.02s-.03-.03-.05-.05c-.02-.01-.03-.03-.05-.04-.02-.01-.03-.03-.05-.04-.02-.01-.03-.02-.05-.03-.02-.01-.03-.02-.05-.03l-.04-.03-.04-.03-.04-.02h-.02l-.02-.02-.04-.02-.04-.02h-.04s-.03-.02-.05-.03c-.02,0-.03,0-.05-.01-.02,0-.03,0-.05,0-.02,0-.03,0-.05,0h-.01s-.03,0-.04,0c-.02,0-.04,0-.06,0-.02,0-.04,0-.06,0-.03,0-.05,.01-.08,.02-.02,0-.04,.02-.06,.03l-5.65,2.73c.09-.04,.19-.06,.31-.06h0c.11,0,.23,.04,.36,.1,.15,.07,.28,.18,.41,.3h0c.11,.12,.21,.26,.3,.4,.02,.03,.04,.07,.06,.1,.08,.15,.15,.3,.2,.46h0c.05,.19,.08,.37,.08,.55v.44l5.65-2.73v-.44h0s0-.04,0-.06Z" fill="url(#g)"/><polygon points="25.66 22.61 31.31 19.89 33.78 21.09 28.13 23.82 25.66 22.61" fill="url(#h)" opacity=".8"/><polygon points="28.09 32.56 33.73 29.83 33.75 25.9 28.11 28.63 28.09 32.56" fill="#f49" opacity=".8"/><polygon points="28.13 23.82 28.11 27.75 33.76 25.03 33.78 21.09 28.13 23.82" fill="url(#i)" opacity=".8"/><path d="M19.24,28.24v.43c0,.1-.01,.19-.03,.27h0v.02s-.02,.04-.02,.06c-.01,.05-.03,.11-.05,.15,0,0,0,.02,0,.02h0s-.02,.04-.03,.05c-.06,.11-.15,.19-.24,.24,0,0-.01,.01-.02,.02l1.51-.73-1.1-.54Z" fill="#f49" opacity=".8"/><path d="M13.93,20.05s.01,0,.02,0h0s.02,0,.03,0c.1,0,.21,.03,.32,.09l.35,.17v-.7l-1.01,.49s.02,0,.02,0c.08-.04,.17-.05,.27-.05Z" fill="url(#j)" opacity=".8"/></g><g><path d="M27.05,27.24c-.2-.1-.36,.02-.36,.26s.16,.52,.35,.61l1.06,.52-.02,3.93-3.19-1.55v-1.31c0-.24-.14-.51-.34-.6s-.36,.02-.36,.26v1.31l-2.49-1.21-.71-.35-1.77-.86v.43c0,.73-.49,1.08-1.07,.8s-1.06-1.1-1.06-1.83v-.43l-2.48-1.21,.02-3.06-.35-.17c-.59-.29-1.06-1.11-1.06-1.83s.49-1.07,1.07-.79l.35,.17,.02-3.06,3.19,1.55v1.31c0,.24,.15,.52,.35,.61s.35-.03,.35-.27v-1.31l2.49,1.21,.71,.35,1.77,.86v-.44c0-.72,.49-1.07,1.07-.79s1.06,1.1,1.06,1.83v.44l2.47,1.21-.02,3.93-1.06-.52Zm-6.05,1v-2.19l-.34-.17c-.59-.29-1.06-1.11-1.06-1.83s.49-1.07,1.07-.79l.35,.17v-2.19l-1.75-.86v.43c0,.72-.49,1.08-1.07,.8s-1.06-1.11-1.06-1.83v-.43l-1.77-.86v2.19l-.02,.87-.71-.35-.35-.17c-.2-.1-.36,.02-.36,.26s.16,.52,.35,.61l.35,.17,.71,.35v.87l-.02,2.19,1.77,.86,.71,.35v1.31c0,.24,.15,.52,.35,.61s.35-.03,.35-.27v-1.31l.72,.35,1.77,.86m6.04,.75c-.59-.29-1.06-1.11-1.06-1.83s.49-1.07,1.07-.79l.35,.17v-2.19l-1.75-.86-.71-.35v-1.31c0-.24-.15-.51-.34-.6s-.36,.02-.36,.26v1.31l-.71-.35-1.77-.86v2.62l-.02,.44-.71-.35-.35-.17c-.2-.1-.36,.02-.36,.26s.16,.52,.35,.61l.35,.17,.71,.35v.87l-.02,2.19,1.77,.86v-.44c0-.72,.49-1.07,1.07-.79s1.06,1.1,1.06,1.83v.44l1.76,.86v-2.19l-.34-.17" fill="#2f3541"/><g><path d="M19.61,24.04c0-.72,.49-1.07,1.07-.79l.35,.17v-2.19l-1.75-.86v.43c0,.72-.49,1.08-1.07,.79-.59-.29-1.06-1.11-1.06-1.83v-.43l-1.77-.86v2.19l-.02,.87-.71-.35-.35-.17c-.2-.1-.36,.02-.36,.26,0,.24,.16,.52,.35,.61l.35,.17,.71,.35v.87l-.02,2.19,1.77,.86,.71,.35v1.31c0,.24,.15,.52,.35,.61,.19,.09,.35-.03,.35-.27v-1.31l.72,.35,1.77,.86v-2.19l-.34-.17c-.59-.29-1.06-1.11-1.06-1.83Z" fill="#fff3f8"/><path d="M27.06,26.36l.35,.17v-2.19l-1.75-.86-.71-.35v-1.31c0-.24-.15-.51-.34-.6-.2-.1-.36,.02-.36,.26v1.31l-.71-.35-1.77-.86v2.62l-.02,.44-.71-.35-.35-.17c-.2-.1-.36,.02-.36,.26,0,.24,.16,.52,.35,.61l.35,.17,.71,.35v.87l-.02,2.19,1.77,.86v-.44c0-.72,.49-1.07,1.07-.79,.59,.29,1.06,1.1,1.06,1.83v.44l1.76,.86v-2.19l-.34-.17c-.59-.29-1.06-1.11-1.06-1.83,0-.72,.49-1.07,1.07-.79Z" fill="#fff3f8"/></g></g></svg>