<?xml version="1.0" encoding="UTF-8"?><svg id="a" xmlns="http://www.w3.org/2000/svg" viewBox="0 0 24 24"><g><path d="M7.3,5.53v.87c-1.18-.57-2.13,.14-2.14,1.59l-.71-.35c.01-1.93,1.28-2.88,2.85-2.11Z" fill="#2f3541"/><g><path d="M7.3,7.27v.87c-.39-.19-.71,.05-.72,.53l-.71-.35c0-.97,.64-1.44,1.42-1.06Z" fill="#2f3541"/><path d="M7.31,3.77v.87c-1.95-.95-3.53,.23-3.57,2.61l-.71-.35c.03-2.87,1.94-4.28,4.27-3.14Z" fill="#2f3541"/></g></g><g><g isolation="isolate"><g><polygon points="10.6 15.47 10.59 17.22 9.88 16.87 9.89 15.12 10.6 15.47" fill="#2f3541"/><polygon points="12.02 16.16 12.01 17.91 11.3 17.56 11.31 15.82 12.02 16.16" fill="#2f3541"/><polygon points="10.62 11.98 10.61 13.72 9.9 13.37 9.91 11.63 10.62 11.98" fill="#2f3541"/><polygon points="12.04 12.67 12.03 14.41 11.32 14.07 11.33 12.32 12.04 12.67" fill="#2f3541"/><polygon points="10.64 8.47 10.63 10.22 9.92 9.87 9.93 8.13 10.64 8.47" fill="#2f3541"/><polygon points="13.45 13.36 13.44 15.1 12.73 14.76 12.74 13.01 13.45 13.36" fill="#2f3541"/><polygon points="12.06 9.16 12.05 10.91 11.34 10.57 11.35 8.82 12.06 9.16" fill="#2f3541"/><path d="M8.53,4.81l6.37,3.11-.08,13.99-6.37-3.11,.08-13.99Zm5.6,15.87l.07-12.24-4.96-2.42-.07,12.24,4.96,2.42" fill="#2f3541"/><polygon points="13.43 16.85 13.42 18.6 12.71 18.25 12.72 16.51 13.43 16.85" fill="#2f3541"/><polygon points="13.47 9.85 13.46 11.6 12.75 11.26 12.76 9.51 13.47 9.85" fill="#2f3541"/></g></g><g opacity=".2"><polygon points="14.9 7.92 20.55 5.2 20.47 19.19 14.82 21.92 14.9 7.92" fill="#2f3541"/></g><g opacity=".2"><polygon points="8.53 4.81 14.17 2.09 20.55 5.2 14.9 7.92 8.53 4.81" fill="#2f3541"/></g></g><rect id="c" y="0" width="24" height="24" fill="none"/></svg>