<?xml version="1.0" encoding="UTF-8"?><svg id="a" xmlns="http://www.w3.org/2000/svg" viewBox="0 0 24 24"><rect x="0" width="24" height="24" fill="none"/><path id="c" d="M16.05,6c1.73,.11,3.05,1.6,2.95,3.33,0,3.13-4.45,6.67-7,8.31-2.54-1.71-7-5.39-7-8.56,.03-1.66,1.34-3.01,3-3.08,.97,.02,1.87,.53,2.37,1.37l1.63,2.56,1.67-2.56c.51-.84,1.4-1.35,2.38-1.37m0-2c-1.65,.02-3.17,.87-4.05,2.27-.87-1.38-2.37-2.23-4-2.27-2.76,.08-4.97,2.32-5,5.08,0,5.61,9,10.92,9,10.92,0,0,9-5.06,9-10.67,.09-2.83-2.12-5.21-4.95-5.33Z" fill="#fff"/><rect id="d" x="0" width="24" height="24" fill="none"/></svg>