<?xml version="1.0" encoding="UTF-8"?><svg id="a" xmlns="http://www.w3.org/2000/svg" viewBox="0 0 24 24"><rect x="0" width="24" height="24" fill="none"/><g><path d="M20.5,14l3-3h-2.56c-.5-4.5-4.31-8-8.94-8C7.03,3,3,7.03,3,12s4.03,9,9,9c3.43,0,6.41-1.92,7.93-4.74l-.75-.75c-1.3,2.66-4.03,4.49-7.18,4.49-4.41,0-8-3.59-8-8S7.59,4,12,4c4.07,0,7.44,3.06,7.93,7h-2.43l3,3Z" fill="#fff"/><polygon points="14.89 10.82 14.18 10.11 12 12.29 8.4 8.7 7.7 9.4 12 13.71 14.69 11.02 14.67 11 14.71 11 14.89 10.82" fill="#fff"/></g></svg>