<?xml version="1.0" encoding="UTF-8"?><svg id="a" xmlns="http://www.w3.org/2000/svg" viewBox="0 0 24 24"><rect y="0" width="24" height="24" fill="none"/><path d="M10.67,5c1.37,0,2.02,.41,2.77,.88,.84,.53,1.8,1.12,3.57,1.12,.97,0,1.77-.1,2.4-.24-.1,.3-.21,.59-.32,.86-.5,1.22-.9,1.8-.9,1.8l-.27,.38,.12,.45c.04,.15,.41,1.47,1.21,2.39,.15,.17,.28,.32,.4,.45-.45,.41-1.28,.9-2.65,.9-1.15,0-1.64-.33-2.32-.78-.83-.55-1.86-1.22-3.99-1.22-1.26,0-2.37,.37-3.3,1.09l-.39,.3v6.61h-1V5h1v1.59l1.57-1.08c.5-.34,1.2-.51,2.1-.51m0-1c-1.28,0-2.12,.31-2.67,.69v-.69h-3V21h3v-7.12c.59-.46,1.45-.88,2.69-.88,3.53,0,3.3,2,6.31,2s4-2,4-2c0,0-.35-.24-1-1-.67-.78-1-2-1-2,0,0,.45-.63,1.01-2,.5-1.23,.99-3,.99-3,0,0-.98,1-4,1s-3.09-2-6.33-2h0Z" fill="#fff"/></svg>