<?xml version="1.0" encoding="UTF-8"?><svg id="c" xmlns="http://www.w3.org/2000/svg" xmlns:xlink="http://www.w3.org/1999/xlink" viewBox="0 0 48 48"><defs><linearGradient id="a" x1="23.29" y1="30.1" x2="40.97" y2="30.1" gradientTransform="matrix(1, 0, 0, 1, 0, 0)" gradientUnits="userSpaceOnUse"><stop offset="0" stop-color="#2f3541" stop-opacity=".4"/><stop offset="1" stop-color="#2f3541" stop-opacity="0"/></linearGradient><linearGradient id="d" x1="23.06" y1="28.55" x2="24.32" y2="28.55" gradientTransform="matrix(1, 0, 0, 1, 0, 0)" gradientUnits="userSpaceOnUse"><stop offset="0" stop-color="#f84"/><stop offset="1" stop-color="#f49"/></linearGradient><linearGradient id="e" x1="24.55" y1="27.66" x2="25.83" y2="27.66" xlink:href="#d"/><linearGradient id="f" x1="14.94" y1="14.38" x2="16.12" y2="16.08" xlink:href="#d"/><linearGradient id="g" x1="25.98" y1="27.83" x2="26.01" y2="27.83" xlink:href="#d"/><linearGradient id="h" x1="24.44" y1="28.12" x2="25.97" y2="28.12" xlink:href="#d"/><linearGradient id="i" x1="20.17" y1="23.78" x2="24.32" y2="31.74" xlink:href="#d"/><linearGradient id="j" x1="26.03" y1="27.38" x2="26.15" y2="27.38" xlink:href="#d"/><linearGradient id="k" x1="26.18" y1="26.87" x2="26.18" y2="26.87" xlink:href="#d"/><linearGradient id="l" x1="16.13" y1="10.46" x2="19.89" y2="17.99" xlink:href="#d"/><linearGradient id="m" x1="20.52" y1="11.07" x2="24.27" y2="19.51" xlink:href="#d"/><linearGradient id="n" x1="21.74" y1="13.34" x2="26.37" y2="22.92" xlink:href="#d"/><linearGradient id="o" x1="23.09" y1="20.96" x2="26.22" y2="29.74" xlink:href="#d"/><linearGradient id="p" x1="26.4" y1="21.93" x2="31.83" y2="32.63" xlink:href="#d"/><linearGradient id="q" x1="26.21" y1="21.11" x2="27.6" y2="24.02" xlink:href="#d"/><linearGradient id="r" x1="20.53" y1="12.04" x2="22.27" y2="15.79" xlink:href="#d"/><linearGradient id="s" x1="24.63" y1="16.27" x2="27.78" y2="22.31" xlink:href="#d"/><linearGradient id="t" x1="23.79" y1="13.84" x2="26.98" y2="20.33" xlink:href="#d"/><linearGradient id="u" x1="24.25" y1="15.45" x2="27.71" y2="21.22" xlink:href="#d"/><linearGradient id="v" x1="22.39" y1="10.56" x2="27.62" y2="21.09" xlink:href="#d"/><linearGradient id="w" x1="24.97" y1="14.66" x2="29.59" y2="26.04" xlink:href="#d"/><linearGradient id="x" x1="25.34" y1="17.52" x2="30.6" y2="25.47" xlink:href="#d"/><linearGradient id="y" x1="24.78" y1="19.67" x2="28.33" y2="27.27" xlink:href="#d"/><linearGradient id="z" x1="28.3" y1="22.57" x2="31.71" y2="29.2" xlink:href="#d"/></defs><g><polyline points="44 30.5 24 20.5 4 30.5 24 40.5 44 30.5 44 30.5" fill="#f2f6ff"/><polygon points="24 40.5 24 42.5 4 32.5 4 30.5 24 40.5" fill="#fff" opacity=".2"/><polygon points="24 40.5 24 42.5 44 32.5 44 30.5 24 40.5" fill="#2f3541"/></g><path d="M17.22,24.03c.23,.53,.52,1.04,.85,1.49l-.04,1.03c.3,.37,.64,.7,.99,.99l.58-.5c.2,.14,.39,.27,.61,.37s.41,.16,.61,.22l.56,1.06c.35,.05,.68,.05,1-.02l-.04-1.07c.33-.13,.63-.35,.87-.65l.85,.47c.17-.29,.32-.64,.41-1.02l-.63-1.02c.04-.23,.07-.46,.07-.72s-.02-.52-.06-.79l.64-.4c-.09-.47-.23-.96-.4-1.42l-.85-.36c-.23-.53-.52-1.03-.85-1.49l.05-1.02c-.31-.36-.64-.7-.99-.99l-.57,.5c-.2-.14-.4-.27-.61-.37s-.41-.17-.61-.22l-.57-1.06c-.35-.05-.68-.04-.99,.02l.03,1.07c-.33,.14-.63,.35-.87,.65l-.85-.47c-.18,.29-.32,.64-.42,1.02l.63,1.02c-.04,.23-.07,.46-.07,.72s.02,.52,.06,.78l-.64,.4c.1,.47,.23,.96,.41,1.42l.85,.36" fill="#fff3f8"/><path d="M44,30.5l-10,4.94-13.83-3.4,.82-.39,3.35-.08,5.65-2.73s2.09-.78,2.53-4.09l11.48,5.75Z" fill="url(#a)"/><rect width="48" height="48" fill="none"/><g opacity=".8"><g isolation="isolate"><path d="M20.18,31.32v.72l.81-.39c-.27-.09-.54-.2-.81-.33Z" fill="#f49"/><path d="M19.98,28.16s-.08-.04-.12-.07l-.33,.28-.3,.26,.85-.41s-.07-.04-.11-.06Z" fill="#f49"/><polygon points="20.92 29.15 18.76 30.19 20.19 29.71 21.01 29.32 20.92 29.15" fill="#f49"/><g><path d="M21.56,29.62l-.42-.06-.13-.25-.82,.4v.73l1.67-.81c-.1,0-.19,0-.29-.02Z" fill="#f49"/><path d="M23.06,28.36l.02,.6v.08l1.24-.6-.31-.18-.39-.22-.45,.22s-.07,.06-.11,.09Z" fill="url(#d)"/><path d="M25,27.39c-.1,.27-.21,.53-.34,.76l-.11,.19,1.28-.62v-.73l-.82,.4Z" fill="url(#e)"/></g><path d="M20.08,15.35c-1.36-.61-2.6-.62-3.59-.12-.12,.06-.24,.13-.35,.21-.04,.03-.08,.05-.12,.08-.15,.11-.29,.23-.43,.37-.03,.03-.06,.07-.08,.1-.1,.11-.2,.22-.29,.35-.04,.06-.08,.12-.12,.18-.07,.11-.14,.22-.2,.34-.04,.07-.07,.15-.11,.22-.06,.12-.11,.24-.16,.37-.03,.08-.06,.17-.09,.25-.04,.13-.08,.27-.12,.42-.02,.09-.04,.18-.06,.27-.03,.16-.06,.33-.08,.5-.01,.08-.03,.16-.03,.25-.03,.26-.04,.52-.04,.79h0l1.08-.51-.11-.18,.12-.46c.12-.45,.28-.84,.49-1.19l.22-.36,.43,.23,.48,.27c.15-.13,.3-.26,.47-.36l-.02-.6-.02-.56,.38-.08c.36-.08,.75-.08,1.15-.02l.42,.06,.29,.54,.26,.48" fill="#f49"/><path d="M16.92,17.72c.15-.13,.3-.26,.47-.36l-.02-.6v-.2l-1.37,.66,.43,.23,.48,.27Z" fill="url(#f)"/><g><path d="M25.98,27.87s.02-.04,.03-.07h0s-.01,.05-.02,.07Z" fill="url(#g)"/><path d="M24.44,28.51l1.52-.74s-.09-.04-.14-.06l-1.28,.62-.11,.18Z" fill="url(#h)"/><path d="M23.09,29.51h0l-.38,.08c-.27,.06-.56,.06-.86,.04l-1.67,.81c.19,.09,.38,.17,.57,.24,.06,.02,.12,.04,.18,.06,.13,.04,.25,.08,.38,.11,.07,.02,.14,.03,.2,.04,.12,.02,.23,.04,.34,.06,.07,0,.14,.02,.2,.02,.11,0,.23,.01,.34,.01,.06,0,.12,0,.18,0,.13,0,.26-.02,.38-.04,.04,0,.07,0,.11-.01,.16-.03,.31-.07,.46-.12,.04-.01,.08-.03,.12-.05,1.03-.39,1.87-1.27,2.26-2.62l-2.81,1.36Z" fill="url(#i)"/></g><g><path d="M24.44,28.51l.22-.37c.13-.22,.24-.47,.33-.72l-1.94,.93,.02,.6,.02,.55,2.81-1.36c.04-.13,.07-.27,.11-.4l-1.57,.76Z" fill="#f49"/><path d="M26.15,27.07c-.03,.21-.07,.41-.11,.61,.05-.19,.08-.4,.11-.61Z" fill="url(#j)"/><path d="M26.18,26.89s0-.02,0-.04h0s0,.03,0,.04Z" fill="url(#k)"/></g><path d="M23.52,28c-.14,.14-.3,.26-.47,.36l.59-.29-.12-.07Z" fill="#f49"/><path d="M20.26,15.43c-.24-.12-.47-.21-.7-.29l-2.21,1.07,.38-.08c.36-.08,.75-.08,1.15-.02l.42,.06,.95-.46v-.28Z" fill="url(#l)"/><polygon points="25.24 13.98 24.95 13.45 19.31 16.17 19.6 16.71 19.92 17.31 25.57 14.58 25.24 13.98" fill="url(#m)"/><path d="M19.92,17.31l5.65-2.73c.1,.03,.22,.08,.33,.14s.23,.12,.34,.19l-5.65,2.73c-.11-.07-.22-.13-.34-.19s-.23-.1-.33-.14Z" fill="url(#n)"/><path d="M26.23,26.03l-.97,.47-.12,.46c-.12,.45-.28,.84-.49,1.19l-.22,.37,1.58-.76c.13-.52,.21-1.1,.22-1.73Z" fill="url(#o)"/><polygon points="30.59 23.25 30.24 22.68 24.59 25.41 24.94 25.97 25.26 26.49 30.91 23.77 30.59 23.25" fill="url(#p)"/><path d="M24.6,24.58l5.65-2.73c0,.14,.01,.27,.01,.42,0,.14,0,.27-.02,.4l-5.65,2.73c0-.13,.01-.26,.02-.4,0-.15,0-.29-.01-.42Z" fill="url(#q)"/><path d="M16.1,14.31l5.65-2.73c1.15-.56,2.6-.52,4.17,.25l-5.65,2.73c-1.57-.76-3.02-.8-4.17-.25Z" fill="url(#r)"/><path d="M23.1,20.15l5.65-2.73c.16,.26,.32,.53,.46,.81l-5.65,2.73c-.15-.28-.3-.55-.46-.81Z" fill="url(#s)"/><polygon points="25.28 24.16 24.95 24.36 24.6 24.58 30.24 21.86 30.6 21.63 30.92 21.43 25.28 24.16" fill="#f49"/><polygon points="23.15 19.04 23.13 19.57 23.1 20.15 28.75 17.43 28.78 16.85 28.8 16.31 23.15 19.04" fill="url(#t)"/><path d="M28.42,15.86c-.36-.43-.74-.81-1.14-1.14l-.42-.35-5.65,2.73,.42,.35c.4,.33,.79,.72,1.14,1.14l.38,.45,5.65-2.73-.38-.45Z" fill="url(#u)"/><polygon points="20.27 13.82 25.92 11.1 27.33 12.96 21.68 15.69 20.27 13.82" fill="url(#v)"/><path d="M30.81,20.86c-.11-.56-.27-1.11-.47-1.66l-.21-.57-5.65,2.73,.21,.57c.2,.55,.36,1.1,.47,1.66l.11,.58,5.65-2.73-.11-.58Z" fill="url(#w)"/><polygon points="29.69 18.44 29.69 18.44 29.21 18.24 23.56 20.96 24.05 21.17 24.05 21.17 24.48 21.35 30.13 18.63 29.69 18.44" fill="url(#x)"/><path d="M29.99,28.84l-5.65,2.73c1.57-.76,2.59-2.63,2.61-5.27l5.65-2.73c-.01,2.64-1.03,4.51-2.61,5.27Z" fill="url(#y)"/><polygon points="26.24 25.94 31.89 23.22 32.6 23.57 26.95 26.29 26.24 25.94" fill="url(#z)"/></g></g><g><path d="M20.26,15.43c-3.32-1.62-6.04,.4-6.06,4.5l-.71-.35c.02-4.58,3.07-6.84,6.78-5.03v-.73l1.41,1.86-1.42,.47v-.73Z" fill="#2f3541"/><path d="M19.24,28.64l-.42-.35c-.4-.33-.79-.72-1.14-1.14l-.38-.45,.03-.53,.02-.58c-.16-.26-.32-.53-.46-.81l-.48-.2-.43-.18-.21-.58c-.2-.54-.36-1.1-.47-1.66l-.11-.58,.33-.2,.36-.22c-.01-.14-.02-.28-.02-.42,0-.15,0-.28,.02-.41l-.35-.57-.32-.52,.12-.46c.12-.45,.28-.84,.49-1.19l.22-.36,.43,.24,.48,.27c.15-.13,.3-.26,.47-.36l-.02-.6-.02-.56,.38-.08c.36-.08,.75-.08,1.15-.02l.42,.06,.29,.54,.32,.6c.1,.03,.22,.08,.33,.14s.23,.12,.34,.19l.32-.29,.3-.25,.42,.35c.4,.33,.79,.72,1.14,1.14l.38,.45-.02,.53-.03,.58c.16,.26,.32,.53,.46,.81l.48,.2,.43,.19,.21,.57c.2,.55,.36,1.1,.47,1.66l.11,.58-.33,.2-.35,.22c0,.14,.01,.27,.01,.42,0,.14,0,.27-.02,.4l.35,.56,.32,.52-.12,.46c-.12,.45-.28,.84-.49,1.19l-.22,.37-.43-.24-.48-.27c-.14,.14-.3,.26-.47,.36l.02,.6,.02,.55-.38,.08c-.36,.08-.75,.08-1.15,.02l-.42-.06-.29-.54-.32-.6c-.11-.04-.22-.09-.34-.14s-.22-.12-.33-.19l-.33,.28-.3,.26Zm-2.02-4.61c.23,.53,.52,1.04,.85,1.49l-.04,1.03c.3,.37,.64,.7,.99,.99l.58-.5c.2,.14,.39,.27,.61,.37s.41,.16,.61,.22l.56,1.06c.35,.05,.68,.05,1-.02l-.04-1.07c.33-.13,.63-.35,.87-.65l.85,.47c.17-.29,.32-.64,.41-1.02l-.63-1.02c.04-.23,.07-.46,.07-.72s-.02-.52-.06-.79l.64-.4c-.09-.47-.23-.96-.4-1.42l-.85-.36c-.23-.53-.52-1.03-.85-1.49l.05-1.02c-.31-.36-.64-.7-.99-.99l-.57,.5c-.2-.14-.4-.27-.61-.37s-.41-.17-.61-.22l-.57-1.06c-.35-.05-.68-.04-.99,.02l.03,1.07c-.33,.14-.63,.35-.87,.65l-.85-.47c-.18,.29-.32,.64-.42,1.02l.63,1.02c-.04,.23-.07,.46-.07,.72s.02,.52,.06,.78l-.64,.4c.1,.47,.23,.96,.41,1.42l.85,.36" fill="#2f3541"/><path d="M26.24,25.94l.71,.35c-.02,4.58-3.07,6.84-6.78,5.03v.72l-1.41-1.85,1.42-.47v.73c3.32,1.62,6.03-.4,6.05-4.5Z" fill="#2f3541"/><path d="M20.23,21.11c-.78-.38-1.42,.1-1.42,1.06,0,.96,.62,2.05,1.41,2.44s1.42-.1,1.42-1.06c0-.97-.62-2.06-1.41-2.45Zm-.01,2.63c-.39-.19-.71-.74-.7-1.22,0-.49,.32-.73,.71-.54,.39,.19,.71,.74,.7,1.23,0,.48-.32,.72-.71,.53Z" fill="#2f3541"/></g></svg>