<?xml version="1.0" encoding="UTF-8"?><svg id="a" xmlns="http://www.w3.org/2000/svg" viewBox="0 0 24 24"><rect width="24" height="24" fill="none"/><rect width="24" height="24" fill="none"/><g><polygon points="11.5 11.33 11.5 12.54 12.3 12 12.5 12 12.5 11 12 11 11.5 11.33" fill="#fff"/><polygon points="15.5 14.13 15.7 14 16 14 16.35 12.94 15.5 12.94 15.5 14.13" fill="#fff"/><polygon points="5.74 18.3 6.43 17.84 5.35 16.76 4.22 15.91 2.44 16.36 2.39 16.28 5.57 14.16 4.85 13.44 5.92 13.08 7 13.62 8.24 13 8.5 13 8.5 12 8 12 7 12.5 6 12 3 13 4 14 1 16 2 17.5 4 17 5.74 18.3" fill="#fff"/><path d="M9.87,14.99h.32c.45-.05,.8-.25,.8-.49,0-.18-.21-.34-.5-.42V7.94h2v-1h-2v-1.94h4.5v1h.5v1h.5v-3h-5.5v-1h-1V14.08c-.29,.09-.5,.24-.5,.42,0,.25,.38,.46,.87,.49Z" fill="#fff"/><polygon points="17.77 14.35 18.49 15.08 18.71 15.12 18.5 14.5 17.77 14.35" fill="#fff"/></g><path d="M23,20h-1.48l-.52,1h-1l-2,.5-1,1.5-2-1.5-5,1-2-1.5-2,.5-1-1.5,3-2-1-1,3-1,1,.5,1-.5h.5v1h-.26l-1.24,.62-1.08-.54-1.07,.36,.72,.72-3.18,2.12,.05,.08,1.78-.44,2.02,1.52,5-1,1.51,1.13,.63-.94,2.49-.62h.52l.43-.82-2.13-.43,.5-1.5-1.69-.34-.92-.92h-.28l-.8,.54v-1.2l.5-.33h1l1,1,2.5,.5-.5,1.5,2.5,.5,.5,1.5ZM14.5,11.94v6.14c.29,.09,.5,.24,.5,.42,0,.28-.45,.5-1,.5s-1-.22-1-.5c0-.18,.21-.34,.5-.42V7h1v1h5.5v3.94h-5.5Zm0-1h4.5v-1.94h-4.5v1.94Z" fill="#fff" opacity=".4"/></svg>