<?xml version="1.0" encoding="UTF-8"?><svg id="a" xmlns="http://www.w3.org/2000/svg" viewBox="0 0 24 24"><rect id="c" y="0" width="24" height="24" fill="none"/><path d="M21,20V6l-4.5-3-4.5,3L7.5,3,3,6v14h-1v1H22v-1h-1ZM7.5,4.2l2.7,1.8H4.8l2.7-1.8Zm4,15.8H4V7h7.5v13Zm5-15.8l2.7,1.8h-5.39l2.7-1.8Zm.5,15.8h-1v-3h1v3Zm3,0h-2v-4h-3v4h-2.5V7h7.5v13ZM9,11h1v-1h-1v-2h-3v2h-1v1h4Zm-2-2h1v1h-1v-1Zm2,6h1v-1h-1v-2h-3v2h-1v1h4Zm-2-2h1v1h-1v-1Zm2,6h1v-1h-1v-2h-3v2h-1v1h4Zm-2-2h1v1h-1v-1Zm11-3h1v-1h-1v-4h-3v4h-1v1h4Zm-2-2v-2h1v3h-1v-1Z" fill="#fff"/></svg>