<?xml version="1.0" encoding="UTF-8"?><svg id="a" xmlns="http://www.w3.org/2000/svg" viewBox="0 0 24 24"><rect width="24" height="24" fill="none"/><path d="M21,12c0,4.97-4.03,9-9,9S3,16.97,3,12C3,7.37,6.5,3.56,11,3.06V1l2.07,2.07,.43,.43-.56,.56-1.94,1.94v-1.93c-3.94,.49-7,3.86-7,7.93,0,4.41,3.59,8,8,8s8-3.59,8-8c0-3.65-2.46-6.73-5.81-7.69l.79-.79c3.5,1.23,6.02,4.56,6.02,8.48Zm-4.5-1.5l-4,5.5h-1l-4-5.5,1.5-2.5h6l1.5,2.5Zm-2.9-1.5l.9,1.5h.76l.04-.05-.87-1.45h-.83Zm-1.6,4.58l.95-2.08h-1.89l.95,2.08Zm-.43-4.58l-.9,1.5h2.67l-.9-1.5h-.87Zm-2.87,1.45l.04,.05h.76l.9-1.5h-.83l-.87,1.45Zm2.07,2.85l-.82-1.8h-.49l1.31,1.8Zm2.46,0l1.31-1.8h-.49l-.82,1.8Z" fill="#2f3541"/></svg>