<?xml version="1.0" encoding="UTF-8"?><svg id="icon" xmlns="http://www.w3.org/2000/svg" width="24" height="24" viewBox="0 0 24 24"><path d="M13.0672,14.7062l4.2517,2.0737-.0286,5.2413-4.2517-2.0737,.0286-5.2413Zm3.514,6.0932l.019-3.4942-2.8302-1.3804-.019,3.4942,2.8302,1.3804" fill="#fff"/><g opacity=".2"><g isolation="isolate"><polygon points="9.2246 3.9669 14.8721 1.2415 19.8313 3.6603 14.1838 6.3857 9.2246 3.9669" fill="#fff"/><g><polygon points="18.7147 11.9808 19.7729 12.4969 19.8313 3.6602 14.1838 6.3857 14.1323 14.1922 18.7147 11.9808" fill="#fff"/><polygon points="14.1254 15.2224 14.1219 15.7574 14.6752 15.4904 14.1254 15.2224" fill="#fff"/></g></g></g><g opacity=".2"><g isolation="isolate"><polygon points="1.5145 11.3713 7.162 8.6459 13.5363 11.7549 7.8888 14.4803 1.5145 11.3713" fill="#fff"/><polygon points="1.5145 11.3713 7.162 8.6459 13.5363 11.7549 7.8888 14.4803 1.5145 11.3713" fill="#fff"/><polygon points="13.0671 14.7062 13.5214 14.4869 13.5363 11.7548 7.8889 14.4803 7.8459 22.35 13.4935 19.6246 13.519 14.9266 13.0671 14.7062" fill="#fff"/></g></g><g opacity=".2"><g isolation="isolate"><polygon points="13.0672 14.7062 18.7147 11.9808 22.9663 14.0544 17.3188 16.7799 13.0672 14.7062" fill="#fff"/><polygon points="17.3188 16.7799 22.9663 14.0544 22.9378 19.2957 17.2903 22.0212 17.3188 16.7799" fill="#fff"/></g></g><rect y="0" width="24" height="24" fill="none"/><g><polygon points="11.2275 8.5148 11.2228 9.3883 10.5152 9.0432 10.52 8.1697 11.2275 8.5148" fill="#fff"/><polygon points="11.2161 10.6232 11.218 10.2619 10.5104 9.9168 10.5085 10.2781 11.2161 10.6232" fill="#fff"/><polygon points="12.6312 11.3134 12.6331 10.9521 11.9255 10.607 11.9236 10.9683 12.6312 11.3134" fill="#fff"/><polygon points="11.237 6.7677 11.2323 7.6413 10.5247 7.2962 10.5295 6.4226 11.237 6.7677" fill="#fff"/><polygon points="12.6426 9.205 12.6379 10.0785 11.9303 9.7334 11.9351 8.8599 12.6426 9.205" fill="#fff"/><polygon points="12.6521 7.4579 12.6474 8.3314 11.9398 7.9863 11.9446 7.1128 12.6521 7.4579" fill="#fff"/><polygon points="15.7846 17.8468 15.7798 18.7203 14.3647 18.0301 14.3695 17.1566 15.7846 17.8468" fill="#fff"/><polygon points="15.7846 19.8468 15.7798 20.7203 14.3647 20.0301 14.3695 19.1566 15.7846 19.8468" fill="#fff"/><polygon points="4.9251 17.4855 4.9156 19.2326 4.2017 18.8844 4.2112 17.1373 4.9251 17.4855" fill="#fff"/><polygon points="3.5179 14.1716 3.5084 15.9186 2.8009 15.5736 2.8104 13.8265 3.5179 14.1716" fill="#fff"/><polygon points="6.3402 18.1757 6.3307 19.9228 5.6232 19.5777 5.6327 17.8306 6.3402 18.1757" fill="#fff"/><polygon points="3.5036 16.7922 3.4941 18.5393 2.7866 18.1942 2.7961 16.4471 3.5036 16.7922" fill="#fff"/><polygon points="4.9394 14.8649 4.9299 16.612 4.216 16.2637 4.2255 14.5167 4.9394 14.8649" fill="#fff"/><polygon points="6.3545 15.5551 6.345 17.3021 5.6374 16.957 5.647 15.21 6.3545 15.5551" fill="#fff"/></g><path d="M1.5145,11.3713l6.3743,3.109-.0429,7.8698-6.3743-3.109,.0429-7.8698Zm5.6223,9.757l.0334-6.1226-4.9529-2.4157-.0334,6.1226,4.9529,2.4157" fill="#fff"/><g><polygon points="13.519 14.9266 13.5161 15.462 14.1219 15.7574 14.1254 15.2224 13.519 14.9266" fill="#fff"/><polygon points="13.4454 14.5232 14.1323 14.1922 14.1838 6.3857 9.2246 3.9669 9.1871 9.6336 9.9077 9.985 9.9338 5.1886 13.4715 6.9141 13.4454 14.5232" fill="#fff"/></g></svg>