<?xml version="1.0" encoding="UTF-8"?><svg id="a" xmlns="http://www.w3.org/2000/svg" viewBox="0 0 24 24"><rect y="0" width="24" height="24" fill="none"/><g><path d="M7.62,4.02l-.19,.81-.43-.71c.21-.05,.42-.08,.63-.1m.38-1.02c-.85,0-1.7,.2-2.5,.6l2.33,3.8,1.04-4.34c-.29-.05-.58-.07-.88-.07h0Z" fill="#fff"/><path d="M10.38,4.68c.59,.37,1.09,.87,1.46,1.47,1.02,1.67,.81,3.8-.4,5.25l-1.92-3.14,.86-3.58m-.69-1.41l-1.24,5.16,2.77,4.53c2.31-1.67,2.98-4.86,1.47-7.33-.71-1.17-1.79-1.97-3-2.36h0Z" fill="#fff"/><path d="M4.56,5.6l4.45,7.28c-.33,.08-.67,.12-1.01,.12-1.58,0-3.02-.8-3.84-2.15-1.02-1.67-.81-3.8,.4-5.25m.22-1.56c-2.31,1.67-2.98,4.86-1.47,7.33,1.04,1.69,2.84,2.63,4.69,2.63,.85,0,1.7-.2,2.5-.6L4.78,4.04h0Z" fill="#fff"/><path d="M16,15v5h-1v-5h1m1-1h-3v7h3v-7h0Z" fill="#fff"/><path d="M20,11v9h-1V11h1m1-1h-3v11h3V10h0Z" fill="#fff"/><path d="M12,17v3h-1v-3h1m1-1h-3v5h3v-5h0Z" fill="#fff"/></g></svg>