<?xml version="1.0" encoding="UTF-8"?><svg id="a" xmlns="http://www.w3.org/2000/svg" xmlns:xlink="http://www.w3.org/1999/xlink" viewBox="0 0 48 48"><defs><linearGradient id="c" x1="27.05" y1="30.5" x2="41.52" y2="30.5" gradientUnits="userSpaceOnUse"><stop offset="0" stop-color="#2f3541" stop-opacity=".4"/><stop offset="1" stop-color="#2f3541" stop-opacity="0"/></linearGradient><linearGradient id="d" x1="33.76" y1="15.88" x2="34.26" y2="15.88" gradientUnits="userSpaceOnUse"><stop offset="0" stop-color="#f49"/><stop offset="1" stop-color="#26f"/></linearGradient><linearGradient id="e" x1="23.19" y1="13.93" x2="28.11" y2="24.21" xlink:href="#d"/><linearGradient id="f" x1="27.22" y1="30.39" x2="20.33" y2="11.97" gradientUnits="userSpaceOnUse"><stop offset="0" stop-color="#26f"/><stop offset="1" stop-color="#f49"/></linearGradient><linearGradient id="g" x1="29.69" y1="28.51" x2="28.04" y2="24.89" gradientUnits="userSpaceOnUse"><stop offset="0" stop-color="#26f"/><stop offset="1" stop-color="#f49"/></linearGradient><linearGradient id="h" x1="29.39" y1="27.55" x2="27.43" y2="23.56" xlink:href="#f"/><linearGradient id="i" x1="26.19" y1="23.37" x2="29.71" y2="29.13" gradientUnits="userSpaceOnUse"><stop offset="0" stop-color="#f49"/><stop offset=".75" stop-color="#26f"/></linearGradient><linearGradient id="j" x1="31.34" y1="34.62" x2="27.19" y2="23.53" xlink:href="#f"/><linearGradient id="k" x1="31.31" y1="31.61" x2="22.27" y2="18.04" xlink:href="#f"/><linearGradient id="l" x1="32.97" y1="29.57" x2="22.48" y2="19.6" xlink:href="#f"/><linearGradient id="m" x1="32.53" y1="36" x2="28.04" y2="24.01" xlink:href="#f"/><linearGradient id="n" x1="29.47" y1="30.03" x2="27.45" y2="25.9" xlink:href="#f"/><linearGradient id="o" x1="30.12" y1="28.56" x2="28.2" y2="24.63" xlink:href="#f"/><linearGradient id="p" x1="33.39" y1="33.32" x2="24.16" y2="19.47" xlink:href="#f"/><linearGradient id="q" x1="27.7" y1="26.86" x2="25.9" y2="23.19" xlink:href="#f"/><linearGradient id="r" x1="25.26" y1="22.88" x2="28.57" y2="29.12" xlink:href="#d"/><linearGradient id="s" x1="25.31" y1="16.48" x2="27.83" y2="23.43" xlink:href="#d"/></defs><polyline points="44 30.5 24 20.5 4 30.5 24 40.5 44 30.5 44 30.5" fill="#f2f6ff" stroke-width="0"/><polygon points="24 40.5 24 42.5 4 32.5 4 30.5 24 40.5" fill="#fff" opacity=".2" stroke-width="0"/><polygon points="24 40.5 24 42.5 44 32.5 44 30.5 24 40.5" fill="#2f3541" stroke-width="0"/><polygon points="37 27 31.91 27.04 31.87 27.36 32.29 28.03 32.02 28.72 30.87 29.26 30.9 29.55 30.16 29.9 30.15 30.39 30.14 31.27 24.5 34 37 34 44 30.5 37 27" fill="url(#c)" stroke-width="0"/><polygon points="23.79 32.77 16.71 29.32 16.78 17.08 21.44 19.36 21.73 19.86 21.72 22.12 23.55 23.01 23.84 23.52 23.79 32.77" fill="#fff3f8" stroke-width="0"/><rect x="0" width="48" height="48" fill="#fff" opacity="0" stroke-width="0"/><rect y="0" width="48" height="48" fill="#fff" opacity="0" stroke-width="0"/><rect x="0" width="48" height="48" fill="#fff" opacity="0" stroke-width="0"/><polygon points="16.07 15.86 21.72 13.14 27.39 15.9 21.74 18.63 16.07 15.86" fill="url(#d)" opacity=".8" stroke-width="0"/><polygon points="21.74 18.63 27.39 15.9 30.16 20.78 24.56 23.52 21.74 18.63" fill="url(#e)" opacity=".8" stroke-width="0"/><path d="m23.8,30.59c-.98-.48-1.77-1.85-1.76-3.05,0-1.21.8-1.8,1.78-1.32.98.48,1.77,1.84,1.76,3.05,0,1.2-.81,1.8-1.78,1.32Z" fill="#fff3f8" stroke-width="0"/><path d="m23.82,27.96c-.2-.1-.36.02-.36.27,0,.24.16.51.35.61.2.1.35-.02.35-.26,0-.24-.15-.52-.35-.61Z" fill="#2f3541" stroke-width="0"/><path d="m30.9,29.55l-.03-.29-4.5,2.18-.57-.32s-.23.23-.29.28-.29.16-.29.16l.03.72-.36.03-.31-.03-.08-.16v1.88l5.66-2.73v-1.37l.73-.35Z" fill="url(#f)" opacity=".8" stroke-width="0"/><polygon points="26.65 28.81 32.3 26.08 31.88 26.35 26.23 29.08 26.65 28.81" fill="url(#g)" opacity=".8" stroke-width="0"/><path d="m24.62,25.29l5.65-2.73c.24.2.46.42.66.66l-5.65,2.73c-.2-.24-.43-.46-.66-.66Z" fill="url(#h)" opacity=".8" stroke-width="0"/><path d="m29.65,22.75s-.05-.03-.08-.04c-.02-.01-.05-.02-.07-.04,0,0-.02,0-.03-.01-.01,0-.02-.01-.04-.02-.02-.01-.05-.02-.07-.03-.03-.01-.05-.02-.08-.03-.03-.01-.06-.02-.09-.03-.04-.01-.09-.03-.13-.04l-5.65,2.73s.09.02.13.04c.03,0,.06.02.09.03.03,0,.05.02.08.03.02,0,.05.02.07.03.01,0,.02.01.04.02,0,0,.02,0,.03.01.02.01.05.02.07.04.03.01.05.03.08.04.03.02.06.04.09.06l.14.1.38-.34,5.13-2.48s-.06-.04-.09-.06Z" fill="url(#i)" opacity=".8" stroke-width="0"/><polygon points="26.22 30.08 31.87 27.36 32.29 28.03 26.64 30.75 26.22 30.08" fill="url(#j)" opacity=".8" stroke-width="0"/><path d="m31.92,26.79s0-.06,0-.09c0-.04,0-.07,0-.11,0-.05,0-.09-.02-.14,0-.03,0-.07-.01-.1l-5.65,2.73c.02.18.04.35.04.53,0,.17-.02.33-.05.48l5.65-2.73s.01-.06.02-.1c0-.04.01-.08.02-.13,0-.03,0-.07,0-.1,0-.03,0-.06,0-.09,0-.02,0-.05,0-.08h0s0-.06,0-.09Z" fill="url(#k)" opacity=".8" stroke-width="0"/><polygon points="25.28 25.95 30.93 23.22 30.89 23.91 25.25 26.63 25.28 25.95" fill="url(#l)" opacity=".8" stroke-width="0"/><polygon points="25.82 27.62 31.47 24.9 32.04 25.14 26.39 27.87 25.82 27.62" fill="url(#m)" opacity=".8" stroke-width="0"/><path d="m26.64,30.75s-.02.09-.04.13c-.02.06-.03.11-.05.16-.02.06-.04.11-.06.16-.03.06-.05.11-.08.17-.01.02-.02.04-.04.07l5.65-2.73s.03-.04.04-.07c.03-.05.06-.11.08-.17.02-.05.04-.11.06-.16.02-.05.04-.11.05-.16.01-.04.03-.09.04-.13l-5.65,2.73Z" fill="url(#n)" opacity=".8" stroke-width="0"/><path d="m32.28,25.97c-.01-.06-.03-.12-.04-.18-.01-.06-.03-.12-.05-.18-.02-.06-.03-.12-.05-.17-.02-.06-.04-.11-.05-.17-.01-.04-.03-.08-.04-.13l-5.65,2.73s.03.08.04.13c.02.06.04.11.05.17.02.06.03.12.05.17.02.06.03.12.05.18.02.06.03.12.04.18,0,.04.02.07.02.11l5.65-2.73s-.01-.07-.02-.11Z" fill="url(#o)" opacity=".8" stroke-width="0"/><path d="m31.45,24.85c-.12-.27-.27-.52-.43-.77-.04-.06-.08-.12-.12-.17l-5.65,2.73c.04.06.08.11.12.17.16.24.31.5.43.77,0,.02.02.04.02.05l5.65-2.73s-.02-.04-.02-.05Z" fill="url(#p)" opacity=".8" stroke-width="0"/><polygon points="23.04 24.51 28.49 21.91 29.07 22.51 23.43 25.23 23.04 24.51" fill="url(#q)" opacity=".8" stroke-width="0"/><polygon points="22.39 24.53 27.74 21.96 28.49 21.91 23.04 24.51 22.39 24.53" fill="url(#r)" opacity=".8" stroke-width="0"/><path d="m18.14,27.39l2.42,1.18c.11.37.25.72.42,1.08l-2.84-1.39v-.87Zm.01-2.63v.87s2.12,1.04,2.12,1.04c0-.3.03-.58.08-.84l-2.2-1.07Zm3.58-.88l-3.56-1.74v.87s2.84,1.39,2.84,1.39c.21-.23.45-.41.72-.53Zm1.35,8.55l-6.37-3.11.07-12.24,4.67,2.28.29.51v2.26s1.82.89,1.82.89l.29.51v.35s.72-.35.72-.35l-2.82-4.89-5.67-2.76-.08,13.99,8.5,4.14v-.88l-.7-.35-.71-.35Zm3.14-2.34l.42.67c-.07.26-.16.49-.27.69l-.57-.32c-.16.2-.36.35-.58.43l.03.72c-.2.04-.43.04-.66,0l-.37-.7c-.13-.03-.27-.08-.41-.14-.14-.07-.27-.16-.41-.25l-.39.33c-.23-.19-.45-.41-.65-.65l.03-.69c-.22-.31-.41-.64-.57-1l-.57-.24c-.11-.31-.2-.63-.27-.95l.43-.26c-.02-.18-.04-.35-.04-.53,0-.17.02-.33.05-.48l-.42-.68c.07-.25.16-.48.28-.68l.57.31c.16-.2.35-.34.58-.43l-.02-.71c.2-.04.43-.04.66-.02l.38.71c.13.03.27.08.41.14.14.07.27.16.41.25l.38-.34c.24.2.46.42.66.66l-.04.68c.22.31.42.64.58.99l.57.25c.11.31.2.63.26.94l-.42.27c.02.18.04.35.04.53,0,.17-.02.33-.05.48Zm-.63-.81c0-1.21-.78-2.58-1.76-3.05-.98-.48-1.78.11-1.78,1.32,0,1.2.78,2.57,1.76,3.05.98.48,1.78-.12,1.78-1.32Z" fill="#2f3541" stroke-width="0"/><path d="m30.16,20.78l-.02,1.84-.4.18s-.17-.12-.33-.18-.34-.11-.34-.11l-.59-.6-.75.05-3.18,1.56,5.6-2.74Z" fill="url(#s)" opacity=".8" stroke-width="0"/></svg>