<?xml version="1.0" encoding="UTF-8"?><svg id="a" xmlns="http://www.w3.org/2000/svg" viewBox="0 0 24 24"><rect x="0" width="24" height="24" fill="none"/><g opacity=".2"><g isolation="isolate"><path d="M2.38,8.54l5.65-2.73c.12-.06,.27-.05,.44,.03l-5.65,2.73c-.16-.08-.32-.09-.44-.03Z" fill="#fff"/><polygon points="2.82 8.57 8.46 5.84 9.17 6.19 3.52 8.91 2.82 8.57" fill="#fff"/><path d="M7.08,15.01c-.05,.02-.1,.05-.14,.08-.18,.09-.35,.21-.5,.36-.02,.02-.03,.04-.05,.06-.15,.16-.28,.34-.39,.55,0,.02-.02,.04-.03,.06-.11,.22-.2,.46-.26,.73,0,.01,0,.03,0,.04-.06,.28-.1,.59-.1,.93l2.79-1.35c-.49-.36-.94-.86-1.31-1.46Z" fill="#fff"/><polygon points="4.23 9.26 9.88 6.53 10.67 6.92 5.02 9.64 4.23 9.26" fill="#fff"/><path d="M1.41,5.26L7.06,2.53c.07,.03,1.33,.65,2.12,1.04L3.54,6.29l-2.12-1.04Z" fill="#fff"/><polygon points="4.24 7.51 9.89 4.78 9.88 6.53 4.23 9.26 4.24 7.51" fill="#fff"/><polygon points="4.25 6.2 9.9 3.47 9.89 3.93 4.25 6.66 4.25 6.2" fill="#fff"/><path d="M3.68,5.58l5.65-2.73c.06-.03,.14-.03,.22,.01,.2,.1,.36,.37,.35,.61l-5.65,2.73c0-.24-.16-.51-.35-.61-.08-.04-.16-.04-.22-.01Z" fill="#fff"/><path d="M4.25,6.66l5.65-2.73c.1,.04,.18,.07,.3,.12,1.22,.59,1.82,1.52,1.82,1.76l-5.65,2.73c0-.24-.6-1.17-1.82-1.76-.11-.06-.2-.08-.3-.12Z" fill="#fff"/><path d="M11.9,16.85l5.65-2.73c.93,1.42,1.5,3.15,1.5,4.76l-5.65,2.73c0-1.61-.57-3.34-1.5-4.76Z" fill="#fff"/><path d="M12.51,16.51c-.19,.1-.39,.21-.61,.35l1.26-.61c-.21,.06-.43,.15-.65,.26Z" fill="#fff"/><path d="M5.02,9.64l5.65-2.73c.15,.07,.29,.09,.42,.04,.51-.18,2.04-.6,3.76,.24s3.24,2.74,3.75,3.42c.12,.16,.26,.28,.41,.36l-5.65,2.73c-.15-.07-.29-.19-.41-.36-.51-.68-2.02-2.58-3.75-3.42s-3.25-.43-3.76-.24c-.12,.04-.27,.03-.42-.04Z" fill="#fff"/><polygon points="13.35 13.71 19 10.98 19.8 11.37 14.15 14.09 13.35 13.71" fill="#fff"/><polygon points="14.86 14.44 20.5 11.71 21.21 12.06 15.56 14.78 14.86 14.44" fill="#fff"/><path d="M21.64,13.85l-5.65,2.73c.17-.08,.28-.28,.28-.57l5.65-2.73c0,.29-.11,.48-.28,.57Z" fill="#fff"/><path d="M12.03,10.44l5.65-2.73,2.13,1.04-5.65,2.73-2.13-1.04Z" fill="#fff"/><polygon points="14.87 12.69 20.51 9.97 20.5 11.71 14.86 14.44 14.87 12.69" fill="#fff"/><path d="M15.56,14.78l5.65-2.73c.4,.19,.71,.74,.71,1.23l-5.65,2.73c0-.49-.31-1.04-.71-1.23Z" fill="#fff"/><polygon points="14.87 11.38 20.52 8.65 20.52 9.12 14.87 11.84 14.87 11.38" fill="#fff"/><path d="M14.3,10.76l5.65-2.73c.06-.03,.13-.03,.22,.01,.2,.1,.36,.37,.35,.61l-5.65,2.73c0-.24-.16-.51-.35-.61-.08-.04-.16-.04-.22-.01Z" fill="#fff"/><path d="M14.87,11.84l5.65-2.73c.09,.04,.18,.07,.3,.12,1.22,.59,1.82,1.52,1.82,1.76l-5.65,2.73c0-.24-.6-1.17-1.82-1.76-.11-.06-.21-.09-.3-.12Z" fill="#fff"/></g></g><path d="M15.56,14.78l-.7-.34v-1.75c.79,.38,2.07,1,2.13,1.04,0-.24-.6-1.17-1.82-1.76-.11-.06-.21-.09-.3-.12v-.46c0-.24-.15-.51-.35-.61-.2-.1-.35,.03-.35,.26v.44c-.79-.39-2.06-1.01-2.13-1.04,0,.24,.61,1.17,1.82,1.77,.11,.05,.2,.08,.3,.11v1.78l-.81-.39c-.15-.07-.29-.2-.41-.36-.51-.68-2.02-2.58-3.75-3.42-1.73-.84-3.25-.43-3.76-.24-.12,.04-.27,.03-.42-.04l-.79-.39v-1.75c.8,.39,2.07,1,2.13,1.04,0-.24-.6-1.17-1.82-1.76-.11-.06-.2-.08-.3-.12v-.46c0-.24-.15-.51-.35-.61-.19-.09-.35,.03-.35,.26v.44c-.79-.39-2.06-1-2.13-1.04,0,.24,.6,1.17,1.82,1.76,.11,.06,.2,.08,.3,.11v1.78l-.72-.35c-.4-.19-.71,.05-.71,.55,0,.47,.29,.99,.66,1.21,1.17,.69,2.58,1.84,3.79,3.81-1,.48-1.65,1.65-1.66,3.33l.71,.35c0-1.45,.59-2.44,1.48-2.81,.51,.82,1.17,1.47,1.88,1.81l.6,.29c.66,.32,1.28,.33,1.79,.08,.82,1.2,1.35,2.68,1.34,4.08l.71,.35c0-1.61-.57-3.34-1.5-4.76,1.35-.88,2.2-.92,3.68-.29,.38,.16,.68-.08,.69-.56,0-.49-.31-1.04-.71-1.23Zm-4.25,1.27c-.09,.07-.18,.11-.27,.18-.1,.07-.21,.12-.32,.16-.34,.1-.74,.06-1.16-.15l-.6-.29c-.47-.23-.9-.62-1.23-1.09-.1-.14-.2-.29-.27-.43-.09-.16-.19-.32-.28-.49-1.13-1.93-2.6-3.44-4.36-4.5l2.21,1.08c.29,.14,.57,.17,.82,.08,.4-.15,1.81-.55,3.36,.2,1.55,.76,2.95,2.54,3.35,3.07,.24,.32,.52,.57,.81,.71l2.21,1.1c-1.7-.73-2.71-.65-4.25,.38Z" fill="#fff"/><path d="M15.56,14.78l-.7-.34v-1.75c.79,.38,2.07,1,2.13,1.04,0-.24-.6-1.17-1.82-1.76-.11-.06-.21-.09-.3-.12v-.46c0-.24-.15-.51-.35-.61-.2-.1-.35,.03-.35,.26v.44c-.79-.39-2.06-1.01-2.13-1.04,0,.24,.61,1.17,1.82,1.77,.11,.05,.2,.08,.3,.11v1.78l-.81-.39c-.15-.07-.29-.2-.41-.36-.51-.68-2.02-2.58-3.75-3.42-1.73-.84-3.25-.43-3.76-.24-.12,.04-.27,.03-.42-.04l-.79-.39v-1.75c.8,.39,2.07,1,2.13,1.04,0-.24-.6-1.17-1.82-1.76-.11-.06-.2-.08-.3-.12v-.46c0-.24-.15-.51-.35-.61-.19-.09-.35,.03-.35,.26v.44c-.79-.39-2.06-1-2.13-1.04,0,.24,.6,1.17,1.82,1.76,.11,.06,.2,.08,.3,.11v1.78l-.72-.35c-.4-.19-.71,.05-.71,.55,0,.47,.29,.99,.66,1.21,1.17,.69,2.58,1.84,3.79,3.81-1,.48-1.65,1.65-1.66,3.33l.71,.35c0-1.45,.59-2.44,1.48-2.81,.51,.82,1.17,1.47,1.88,1.81l.6,.29c.66,.32,1.28,.33,1.79,.08,.82,1.2,1.35,2.68,1.34,4.08l.71,.35c0-1.61-.57-3.34-1.5-4.76,1.35-.88,2.2-.92,3.68-.29,.38,.16,.68-.08,.69-.56,0-.49-.31-1.04-.71-1.23Zm-4.25,1.27c-.09,.07-.18,.11-.27,.18-.1,.07-.21,.12-.32,.16-.34,.1-.74,.06-1.16-.15l-.6-.29c-.47-.23-.9-.62-1.23-1.09-.1-.14-.2-.29-.27-.43-.09-.16-.19-.32-.28-.49-1.13-1.93-2.6-3.44-4.36-4.5l2.21,1.08c.29,.14,.57,.17,.82,.08,.4-.15,1.81-.55,3.36,.2,1.55,.76,2.95,2.54,3.35,3.07,.24,.32,.52,.57,.81,.71l2.21,1.1c-1.7-.73-2.71-.65-4.25,.38Z" fill="#fff"/></svg>