<?xml version="1.0" encoding="UTF-8"?><svg id="a" xmlns="http://www.w3.org/2000/svg" viewBox="0 0 24 24"><rect width="24" height="24" fill="none"/><g><g><rect x="11" y="12" width="1" height="1" fill="#2f3541"/><rect x="11" y="10" width="1" height="1" fill="#2f3541"/><rect x="11" y="14" width="1" height="1" fill="#2f3541"/><path d="M15,5h-4l-2,2v11h5l2-2V5h-1Zm-3.59,1h2.88l-1,1h-2.88l1-1Zm-1.41,11V8h3v9h-3Zm4-9v-.29l1-1V15.59l-1,1V8Z" fill="#2f3541"/></g><polygon points="17 14 17 15 19.59 15 15.59 19 5.41 19 8 16.41 8 15 3 20 16 20 22 14 17 14" fill="#2f3541"/></g></svg>