<?xml version="1.0" encoding="UTF-8"?><svg id="c" xmlns="http://www.w3.org/2000/svg" xmlns:xlink="http://www.w3.org/1999/xlink" viewBox="0 0 48 48"><defs><linearGradient id="a" x1="29.56" y1="30.96" x2="41.89" y2="30.96" gradientTransform="matrix(1, 0, 0, 1, 0, 0)" gradientUnits="userSpaceOnUse"><stop offset="0" stop-color="#2f3541" stop-opacity=".4"/><stop offset="1" stop-color="#2f3541" stop-opacity="0"/></linearGradient><linearGradient id="d" x1="30.23" y1="13.21" x2="30.23" y2="33.24" gradientTransform="matrix(1, 0, 0, 1, 0, 0)" gradientUnits="userSpaceOnUse"><stop offset=".28" stop-color="#f49"/><stop offset="1" stop-color="#26f"/></linearGradient><linearGradient id="e" x1="19.05" y1="20.42" x2="43.47" y2="32.3" gradientTransform="matrix(1, 0, 0, 1, 0, 0)" gradientUnits="userSpaceOnUse"><stop offset="0" stop-color="#f49"/><stop offset="1" stop-color="#26f"/></linearGradient></defs><g><polyline points="44 30.5 24 20.5 4 30.5 24 40.5 44 30.5 44 30.5" fill="#f2f6ff"/><polygon points="24 40.5 24 42.5 4 32.5 4 30.5 24 40.5" fill="#fff" opacity=".2"/><polygon points="24 40.5 24 42.5 44 32.5 44 30.5 24 40.5" fill="#2f3541"/></g><polygon points="44 30.5 35.45 34.77 27.39 34.23 33.03 31.51 33.06 27.14 40.18 28.59 44 30.5" fill="url(#a)"/><rect width="48" height="48" fill="none"/><g><g opacity=".8"><g isolation="isolate"><polygon points="27.42 27.24 33.07 24.51 33.03 31.51 27.39 34.23 27.42 27.24" fill="url(#d)"/><polygon points="13.97 20.67 19.62 17.95 33.07 24.51 27.42 27.24 13.97 20.67" fill="url(#e)"/></g></g><path d="M13.97,20.67l13.46,6.56-.04,7-13.46-6.56,.04-7Zm12.72,12.34l.03-5.25-12.04-5.87-.03,5.25,1.42,.69v-1.75l.72,.35v1.75l1.41,.69v-1.75l.72,.35v1.75l1.41,.69,.02-3.5,.71,.35-.02,3.5,1.42,.69v-1.75l.72,.35v1.75l1.41,.69v-1.75l.72,.35v1.75l1.41,.69" fill="#2f3541"/><polyline points="26.68 33.01 26.71 27.77 14.67 21.89 14.64 27.14 16.06 27.83 16.07 26.08 16.77 26.43 16.77 28.18 18.18 28.87 18.19 27.12 18.9 27.47 18.89 29.21 20.31 29.91 20.33 26.4 21.04 26.75 21.02 30.25 22.43 30.94 22.44 29.19 23.15 29.54 23.14 31.29 24.55 31.98 24.56 30.23 25.28 30.58 25.27 32.32 26.68 33.01" fill="#fff3f8"/></g></svg>