<?xml version="1.0" encoding="UTF-8"?><svg id="a" xmlns="http://www.w3.org/2000/svg" viewBox="0 0 24 24"><path d="M8,6V15.52c-.47-.32-1.07-.52-1.74-.52-.09,0-.17,0-.26,0-1.66,.12-3,1.33-2.99,2.71,0,1.3,1.21,2.29,2.74,2.29,.09,0,.17,0,.26,0,1.66-.12,3-1.33,2.99-2.71v-7.47l9-1.64v6.34c-.47-.32-1.07-.52-1.74-.52-.09,0-.17,0-.26,0-1.66,.12-3,1.33-2.99,2.71,0,1.3,1.21,2.29,2.74,2.29,.09,0,.17,0,.26,0,1.66-.12,3-1.33,2.99-2.71V4l-11,2Zm-2.07,12.99c-.06,0-.13,0-.19,0-.98,0-1.74-.57-1.74-1.29,0-.84,.94-1.63,2.07-1.71,.06,0,.13,0,.19,0,.98,0,1.74,.57,1.74,1.29,0,.84-.94,1.63-2.07,1.71Zm10-1c-.06,0-.13,0-.19,0-.98,0-1.74-.57-1.74-1.29,0-.84,.94-1.63,2.07-1.71,.06,0,.13,0,.19,0,.98,0,1.74,.57,1.74,1.29,0,.84-.94,1.63-2.07,1.71Zm2.07-10.83l-9,1.64v-1.97l9-1.64v1.97Z" fill="#2f3541"/><rect x="0" y="0" width="24" height="24" fill="none"/></svg>