<?xml version="1.0" encoding="UTF-8"?><svg id="a" xmlns="http://www.w3.org/2000/svg" viewBox="0 0 24 24"><path d="M20.5,12c0,4.76-3.81,8.64-8.5,8.64v-.85l-2,1.35,2,1.35v-.85c5.24,0,9.5-4.33,9.5-9.65h-1Z" fill="#fff"/><g><g><path d="M12,14c1.1,0,2-.9,2-2s-.9-2-2-2-2,.9-2,2,.9,2,2,2Zm0-3c.55,0,1,.45,1,1s-.45,1-1,1-1-.45-1-1,.45-1,1-1Z" fill="#fff"/><path d="M10.69,19l.41-.45,.44-.49c.15,.01,.3,.02,.46,.02s.31,0,.46-.02l.44,.49,.41,.45,.58-.16c.56-.15,1.1-.38,1.6-.66l.53-.3-.03-.61-.03-.67c.23-.2,.45-.42,.65-.65l.67,.03,.61,.03,.3-.53c.28-.5,.5-1.04,.66-1.6l.16-.58-.45-.41-.49-.44c.01-.15,.02-.3,.02-.46s0-.31-.02-.46l.49-.44,.45-.41-.16-.58c-.15-.56-.38-1.1-.66-1.6l-.3-.53-.61,.03-.67,.03c-.2-.23-.42-.45-.65-.65l.03-.67,.03-.61-.53-.3c-.5-.28-1.04-.5-1.6-.66l-.58-.16-.41,.45-.44,.49c-.15-.01-.3-.02-.46-.02s-.32,0-.46,.02l-.44-.49-.41-.45-.58,.16c-.56,.15-1.1,.38-1.6,.66l-.53,.3,.03,.61,.03,.67c-.23,.2-.45,.42-.65,.65l-.67-.03-.61-.03-.3,.53c-.28,.5-.5,1.03-.66,1.6l-.16,.58,.45,.41,.49,.44c-.01,.15-.02,.3-.02,.46s0,.31,.02,.46l-.49,.44-.45,.41,.16,.58c.16,.56,.38,1.1,.66,1.6l.3,.53,.61-.03,.67-.03c.2,.23,.42,.45,.65,.65l-.03,.67-.03,.61,.53,.3c.5,.28,1.04,.5,1.6,.66l.58,.16Zm-2.83-4.05l-1.18,.06c-.24-.43-.43-.89-.57-1.37l.88-.79c-.05-.28-.08-.56-.08-.84s.04-.57,.08-.84l-.88-.79c.13-.48,.32-.95,.57-1.37l1.18,.06c.33-.46,.74-.87,1.2-1.2l-.06-1.18c.43-.24,.89-.43,1.37-.57l.79,.88c.28-.05,.55-.08,.84-.08s.57,.04,.84,.08l.79-.88c.48,.13,.95,.32,1.37,.57l-.06,1.18c.46,.33,.87,.74,1.2,1.2l1.18-.06c.24,.43,.43,.89,.57,1.37l-.88,.79c.05,.28,.09,.56,.09,.84s-.04,.57-.09,.84l.88,.79c-.13,.48-.32,.95-.57,1.37l-1.18-.06c-.33,.46-.74,.87-1.2,1.2l.06,1.18c-.43,.24-.89,.43-1.37,.57l-.79-.88c-.28,.05-.56,.09-.84,.09s-.57-.04-.84-.09l-.79,.88c-.48-.13-.95-.32-1.37-.57l.06-1.18c-.46-.33-.87-.74-1.2-1.2Z" fill="#fff"/></g><path d="M12,3.36v.85l2-1.35-2-1.35v.85C6.76,2.35,2.5,6.68,2.5,12h1C3.5,7.24,7.31,3.36,12,3.36Z" fill="#fff"/><path id="b" d="M24,24H0V0H24" fill="none"/></g></svg>