<?xml version="1.0" encoding="UTF-8"?><svg id="a" xmlns="http://www.w3.org/2000/svg" viewBox="0 0 24 24"><g><path d="M13,5V3h-2v2H3v14H21V5H13Zm-6.87,13c.25-.97,.86-1.78,1.67-2.19,.39,.12,.79,.19,1.2,.19s.81-.06,1.2-.19c.81,.41,1.42,1.22,1.67,2.19H6.13Zm13.87,0h-7.12c-.31-1.55-1.33-2.79-2.66-3.26-.37,.17-.78,.26-1.22,.26s-.85-.1-1.22-.26c-1.33,.47-2.35,1.72-2.66,3.26h-1.12V6h7v1h2v-1h7v12Z" fill="#fff"/><path d="M9,10c-1.1,0-2,.9-2,2s.9,2,2,2,2-.9,2-2-.9-2-2-2Zm0,3c-.55,0-1-.45-1-1s.45-1,1-1,1,.45,1,1-.45,1-1,1Z" fill="#fff"/><rect x="14" y="10" width="4" height="1" fill="#fff"/><rect x="14" y="12" width="4" height="1" fill="#fff"/><rect x="14" y="14" width="4" height="1" fill="#fff"/></g><rect x="0" width="24" height="24" fill="none"/></svg>