<?xml version="1.0" encoding="UTF-8"?><svg id="a" xmlns="http://www.w3.org/2000/svg" viewBox="0 0 24 24"><rect width="24" height="24" fill="none"/><path d="M17,16l4-8H6l-1-4H2.5c-.28,0-.5,.22-.5,.5s.22,.5,.5,.5h1.75l.75,3,1.75,7,.25,1,.75,3h.34c-.06,.16-.09,.32-.09,.5,0,.83,.67,1.5,1.5,1.5s1.5-.67,1.5-1.5c0-.18-.04-.34-.09-.5h2.18c-.06,.16-.09,.32-.09,.5,0,.83,.67,1.5,1.5,1.5s1.5-.67,1.5-1.5c0-.18-.04-.34-.09-.5h.59l.25-1H8.5l-.5-2h9Zm-7,3.5c0,.28-.22,.5-.5,.5s-.5-.22-.5-.5,.22-.5,.5-.5,.5,.22,.5,.5Zm5,0c0,.28-.22,.5-.5,.5s-.5-.22-.5-.5,.22-.5,.5-.5,.5,.22,.5,.5ZM6.28,9h13.1l-3,6H7.78l-1.5-6Z" fill="#2f3541"/></svg>