<?xml version="1.0" encoding="UTF-8"?><svg xmlns="http://www.w3.org/2000/svg" xmlns:xlink="http://www.w3.org/1999/xlink" viewBox="0 0 48 48"><defs><linearGradient id="a" x1="30.29" y1="31.83" x2="42" y2="31.83" gradientTransform="matrix(1, 0, 0, 1, 0, 0)" gradientUnits="userSpaceOnUse"><stop offset="0" stop-color="#2f3541" stop-opacity=".4"/><stop offset="1" stop-color="#2f3541" stop-opacity="0"/></linearGradient><linearGradient id="f" x1="21.2" y1="22.38" x2="21.2" y2="16.63" gradientTransform="matrix(1, 0, 0, 1, 0, 0)" gradientUnits="userSpaceOnUse"><stop offset="0" stop-color="#26f"/><stop offset="1" stop-color="#f49"/></linearGradient><linearGradient id="g" x1="29.7" y1="25.32" x2="29.7" y2="21.87" xlink:href="#f"/><linearGradient id="h" x1="31.08" y1="35.26" x2="31.08" y2="24.18" xlink:href="#f"/><linearGradient id="i" x1="25.98" y1="25.06" x2="25.98" y2="20.62" xlink:href="#f"/></defs><g id="c"><g><polyline points="44 30.5 24 20.5 4 30.5 24 40.5 44 30.5 44 30.5" fill="#f2f6ff"/><polygon points="24 40.5 24 42.5 4 32.5 4 30.5 24 40.5" fill="#fff" opacity=".2"/><polygon points="24 40.5 24 42.5 44 32.5 44 30.5 24 40.5" fill="#2f3541"/></g><rect width="48" height="48" fill="none"/></g><g id="e"><g><g><path d="M25.45,24.18c0,.97-.64,1.45-1.42,1.06-.78-.38-1.41-1.48-1.41-2.45l-8.5-4.14-.06,10.5,8.5,4.14c0-.97,.64-1.44,1.42-1.06,.78,.38,1.41,1.47,1.41,2.44l2.84,1.38,.06-10.5-2.84-1.38Zm2.08,10.66l-1.54-.75c-.25-1.01-.88-1.99-1.64-2.52v-.04c0-.24-.15-.51-.35-.61-.2-.1-.35,.03-.35,.3-.77-.22-1.4,.15-1.66,.91l-7.2-3.51,.05-8.74,7.2,3.51c.25,1.01,.88,1.98,1.64,2.55,0,.24,.15,.51,.35,.6,.2,.1,.36-.02,.36-.26v-.04c.76,.22,1.39-.15,1.65-.9l1.54,.75-.05,8.74Z" fill="#2f3541"/><path d="M24,29.62c-.2-.1-.35,.03-.35,.27,0,.24,.15,.51,.35,.6,.2,.1,.36-.02,.36-.26,0-.24-.16-.52-.35-.61Z" fill="#2f3541"/><path d="M24.01,28.31c-.2-.1-.35,.02-.35,.26,0,.24,.15,.52,.35,.61,.2,.1,.36-.02,.36-.27,0-.24-.16-.51-.35-.61Z" fill="#2f3541"/><path d="M24.02,26.99c-.2-.1-.35,.03-.35,.26,0,.24,.15,.52,.35,.61,.2,.1,.36-.02,.36-.27,0-.24-.16-.51-.35-.61Z" fill="#2f3541"/></g><rect x="12" y="14" width="24" height="24" fill="none"/><path d="M23.99,32.24c-.36-.17-.68-.16-.93-.02-.05,.03-.09,.06-.13,.09-.03,.02-.05,.05-.07,.08-.04,.04-.07,.09-.1,.14-.02,.03-.04,.06-.05,.1-.03,.06-.05,.13-.07,.2,0,.03-.02,.07-.03,.1-.02,.11-.04,.23-.04,.36l1.75-.85c-.11-.08-.21-.16-.33-.21Z" fill="#26f" opacity=".8"/><path d="M25.45,24.18l2.84,1.38-.06,10.5-2.84-1.38c0-.97-.62-2.05-1.41-2.44s-1.42,.09-1.42,1.06l-8.5-4.14,.06-10.5,8.5,4.14c0,.97,.62,2.06,1.41,2.45s1.42-.1,1.42-1.06Z" fill="#fff5fa"/><g><path d="M25.45,24.18c0,.97-.64,1.45-1.42,1.06-.78-.38-1.41-1.48-1.41-2.45l-8.5-4.14-.06,10.5,8.5,4.14c0-.97,.64-1.44,1.42-1.06,.78,.38,1.41,1.47,1.41,2.44l2.84,1.38,.06-10.5-2.84-1.38Zm2.08,10.66l-1.54-.75c-.25-1.01-.88-1.99-1.64-2.52v-.04c0-.24-.15-.51-.35-.61-.2-.1-.35,.03-.35,.3-.77-.22-1.4,.15-1.66,.91l-7.2-3.51,.05-8.74,7.2,3.51c.25,1.01,.88,1.98,1.64,2.55,0,.24,.15,.51,.35,.6,.2,.1,.36-.02,.36-.26v-.04c.76,.22,1.39-.15,1.65-.9l1.54,.75-.05,8.74Z" fill="#2f3541"/><path d="M24,29.62c-.2-.1-.35,.03-.35,.27,0,.24,.15,.51,.35,.6,.2,.1,.36-.02,.36-.26,0-.24-.16-.52-.35-.61Z" fill="#2f3541"/><path d="M24.01,28.31c-.2-.1-.35,.02-.35,.26,0,.24,.15,.52,.35,.61,.2,.1,.36-.02,.36-.27,0-.24-.16-.51-.35-.61Z" fill="#2f3541"/><path d="M24.02,26.99c-.2-.1-.35,.03-.35,.26,0,.24,.15,.52,.35,.61,.2,.1,.36-.02,.36-.27,0-.24-.16-.51-.35-.61Z" fill="#2f3541"/></g><g opacity=".8"><polygon points="14.13 18.66 19.77 15.93 28.27 20.08 22.62 22.8 14.13 18.66" fill="url(#f)"/></g><g opacity=".8"><polygon points="25.45 24.18 31.1 21.46 33.94 22.84 28.29 25.57 25.45 24.18" fill="url(#g)"/></g><g opacity=".8"><polygon points="28.29 25.57 33.94 22.84 33.88 33.34 28.23 36.06 28.29 25.57" fill="url(#h)"/></g><g opacity=".8"><path d="M25,25.24c.28-.19,.45-.55,.45-1.06l3.89-1.88c-.62-.49-1.08-1.4-1.07-2.23l-5.65,2.73c0,.97,.62,2.06,1.41,2.45,.33,.16,.63,.17,.88,.05l.1-.05h0Z" fill="url(#i)"/></g></g><polygon points="37 27 33.92 27 33.88 33.34 28.23 36.06 31.69 36.66 44 30.5 37 27" fill="url(#a)"/></g></svg>