<?xml version="1.0" encoding="UTF-8"?><svg id="a" xmlns="http://www.w3.org/2000/svg" xmlns:xlink="http://www.w3.org/1999/xlink" viewBox="0 0 48 48"><defs><linearGradient id="b" x1="21.96" y1="31.5" x2="40.78" y2="31.5" gradientTransform="matrix(1, 0, 0, 1, 0, 0)" gradientUnits="userSpaceOnUse"><stop offset="0" stop-color="#2f3541" stop-opacity=".6"/><stop offset="1" stop-color="#2f3541" stop-opacity="0"/></linearGradient><linearGradient id="c" x1="20.59" y1="21.27" x2="23.86" y2="26.82" gradientTransform="matrix(1, 0, 0, 1, 0, 0)" gradientUnits="userSpaceOnUse"><stop offset="0" stop-color="#00d2b2"/><stop offset="1" stop-color="#26f"/></linearGradient><linearGradient id="d" x1="21.99" y1="22.68" x2="25.77" y2="30.91" xlink:href="#c"/><linearGradient id="e" x1="24.01" y1="11.78" x2="29.3" y2="25.67" xlink:href="#c"/><linearGradient id="f" x1="26.1" y1="18.01" x2="29.38" y2="23.56" xlink:href="#c"/></defs><g><polyline points="44 30.5 24 20.5 4 30.5 24 40.5 44 30.5 44 30.5" fill="#f2f6ff"/><polygon points="24 40.5 24 42.5 4 32.5 4 30.5 24 40.5" fill="#fff" opacity=".2"/><polygon points="24 40.5 24 42.5 44 32.5 44 30.5 24 40.5" fill="#2f3541"/></g><polygon points="37 27 22.81 28.99 19.01 30.66 18.65 34 33 36 44 30.5 37 27" fill="url(#b)" opacity=".4"/><rect x="12" y="12" width="24" height="24" fill="none"/><rect width="48" height="48" fill="none"/><g><g opacity=".8"><path d="M21.42,17.76c-.26-.12-.5-.12-.7-.03l-5.67,2.7c.2-.1,.44-.1,.7,.03l2.96,1.43,5.67-2.7-2.96-1.43Z" fill="url(#c)"/></g><g opacity=".8"><path d="M22.95,29.73l-.02,3.17c0,.46-.17,.8-.46,.93l5.67-2.7c.29-.14,.46-.47,.46-.93l.02-3.17-5.67,2.7Z" fill="url(#d)"/></g><g opacity=".8"><path d="M29.83,26.66l-5.67,2.7c3.69-1.75,3.16-8.2,3.13-8.57l5.67-2.7c.03,.37,.56,6.81-3.13,8.57Z" fill="url(#e)"/></g><g opacity=".8"><polygon points="18.67 30.54 17.95 31.06 18.67 30.72 18.67 30.54" fill="#26f"/><polygon points="18.67 30.54 17.95 31.06 18.67 30.72 18.67 30.54" fill="#2f3541" opacity=".2"/></g><g opacity=".8"><path d="M32.89,18.06c-.52-.25-4.03-1.84-6.65-.59l-5.67,2.7c2.62-1.25,6.13,.34,6.65,.59l.06,.03,5.67-2.7-.06-.03Z" fill="url(#f)"/></g></g><g><path d="M27.28,20.79c.03,.41,.67,8.13-4.34,8.94l-.02,3.17c0,.56-.26,.94-.67,.99l-3.61,.11,.02-3.46-.72,.52-2.82-4.83,.72-.53-2.84-1.37,1.68-3.53c.21-.4,.62-.57,1.07-.35l2.96,1.43c2.37-3.91,7.85-1.44,8.51-1.12l.06,.03Z" fill="#fff5fa"/><path d="M27.28,20.79c.03,.41,.67,8.13-4.34,8.94l-.02,3.17c0,.56-.26,.94-.67,.99l-3.61,.11,.02-3.46-.72,.52-2.82-4.83,.72-.53-2.84-1.37,1.68-3.53c.21-.4,.62-.57,1.07-.35l2.96,1.43c2.37-3.91,7.85-1.44,8.51-1.12l.06,.03Zm-1,3.69c.26-1.19,.31-2.36,.31-3.12-1.56-.62-5.45-1.76-7.27,1.24l-.21,.35-.42-.2-2.96-1.43c-.16-.08-.34,0-.44,.18l-1.19,2.51,1.73,.83,1.72,.82-1.22,.9-.21,.16,1.83,3.12,.21-.16,1.22-.89v2.09l-.02,2.16,2.59-.08c.15-.03,.25-.18,.25-.4l.02-3.17v-.52l.38-.07c1.88-.29,3.11-1.75,3.67-4.32m-2.58-2.8c.79,.38,1.42,1.46,1.41,2.42s-.64,1.43-1.43,1.05-1.42-1.46-1.41-2.41,.65-1.43,1.43-1.05Zm-.01,2.6c.4,.19,.71-.05,.72-.52s-.31-1.02-.71-1.21-.71,.04-.72,.52,.32,1.02,.71,1.21" fill="#2f3541"/></g></svg>