<?xml version="1.0" encoding="UTF-8"?><svg id="a" xmlns="http://www.w3.org/2000/svg" viewBox="0 0 24 24"><path d="M12,3C7.03,3,3,7.03,3,12s4.03,9,9,9,9-4.03,9-9S16.97,3,12,3Zm4.93,10.48c.04-.48,.07-.97,.07-1.48s-.03-1-.07-1.48c2.03,.48,3.07,1.16,3.07,1.48s-1.05,1-3.07,1.48Zm-12.93-1.48c0-.32,1.05-1,3.07-1.48-.04,.48-.07,.97-.07,1.48s.03,1,.07,1.48c-2.03-.48-3.07-1.16-3.07-1.48Zm4,0c0-.56,.04-1.13,.11-1.69,.97-.17,2.1-.28,3.39-.3v3.98c-1.29-.02-2.43-.14-3.39-.3-.07-.56-.11-1.13-.11-1.69Zm7.73-2.73c-.99-.15-2.08-.24-3.23-.26V4.07c1.55,.4,2.72,2.64,3.23,5.2Zm-4.23-5.2v4.94c-1.15,.02-2.23,.11-3.23,.26,.5-2.56,1.68-4.8,3.23-5.2Zm0,10.92v4.94c-1.55-.4-2.72-2.64-3.23-5.2,.99,.15,2.08,.24,3.23,.26Zm1,4.94v-4.94c1.15-.02,2.23-.11,3.23-.26-.5,2.56-1.68,4.8-3.23,5.2Zm0-5.94v-3.98c1.29,.02,2.43,.14,3.39,.3,.07,.56,.11,1.13,.11,1.69s-.04,1.13-.11,1.69c-.97,.17-2.1,.28-3.39,.3Zm7.36-3.45c-.74-.44-1.79-.81-3.06-1.08-.33-2.05-1.06-3.8-2.03-4.96,2.61,.96,4.58,3.25,5.1,6.04ZM9.24,4.5c-.97,1.16-1.7,2.91-2.03,4.96-1.27,.27-2.33,.64-3.06,1.08,.52-2.79,2.49-5.07,5.1-6.04ZM4.14,13.46c.74,.44,1.79,.81,3.06,1.08,.33,2.05,1.06,3.8,2.03,4.96-2.61-.96-4.58-3.25-5.1-6.04Zm10.62,6.04c.97-1.16,1.7-2.91,2.03-4.96,1.27-.27,2.33-.64,3.06-1.08-.52,2.79-2.49,5.07-5.1,6.04Z" fill="#fff"/><path id="b" d="M24,24H0V0H24" fill="none"/></svg>