<?xml version="1.0" encoding="UTF-8"?><svg id="c" xmlns="http://www.w3.org/2000/svg" xmlns:xlink="http://www.w3.org/1999/xlink" viewBox="0 0 48 48"><defs><linearGradient id="a" x1="27.9" y1="30.1" x2="41.65" y2="30.1" gradientTransform="matrix(1, 0, 0, 1, 0, 0)" gradientUnits="userSpaceOnUse"><stop offset="0" stop-color="#2f3541" stop-opacity=".4"/><stop offset="1" stop-color="#2f3541" stop-opacity="0"/></linearGradient><linearGradient id="d" x1="16.62" y1="19.54" x2="23.65" y2="31.16" gradientTransform="matrix(1, 0, 0, 1, 0, 0)" gradientUnits="userSpaceOnUse"><stop offset="0" stop-color="#f49"/><stop offset="1" stop-color="#26f"/></linearGradient><linearGradient id="e" x1="23.51" y1="13.29" x2="32.77" y2="37.14" gradientTransform="matrix(1, 0, 0, 1, 0, 0)" gradientUnits="userSpaceOnUse"><stop offset="0" stop-color="#f49"/><stop offset=".32" stop-color="#a751c1"/><stop offset=".6" stop-color="#5f5ce2"/><stop offset=".8" stop-color="#3363f7"/><stop offset=".9" stop-color="#26f"/></linearGradient><linearGradient id="f" x1="21.09" y1="14.37" x2="34.55" y2="41.07" xlink:href="#d"/><linearGradient id="g" x1="28.62" y1="24.84" x2="30.77" y2="29.91" xlink:href="#d"/><linearGradient id="h" x1="24.46" y1="18.33" x2="35.55" y2="37.91" xlink:href="#d"/></defs><g><polyline points="44 30.5 24 20.5 4 30.5 24 40.5 44 30.5 44 30.5" fill="#f2f6ff"/><polygon points="24 40.5 24 42.5 4 32.5 4 30.5 24 40.5" fill="#fff" opacity=".2"/><polygon points="24 40.5 24 42.5 44 32.5 44 30.5 24 40.5" fill="#2f3541"/></g><polygon points="44 30.5 35.45 34.77 25.48 33.03 26.85 32.36 27.87 32.86 33.52 30.14 33.54 26.64 32.01 25.42 40.18 28.59 44 30.5" fill="url(#a)"/><rect width="48" height="48" fill="none"/><path d="M18.29,28.19c-.01,.13-.04,.25-.07,.35h0c-.03,.11-.07,.2-.12,.29v.02s-.06,.06-.09,.09c-.09,.12-.2,.22-.32,.28l1.76-.85-.76-.38-.39,.19Z" fill="#0948c7" opacity=".8"/><polygon points="13.72 22.46 19.37 19.73 21.5 19.89 15.86 22.61 13.72 22.46" fill="url(#d)" opacity=".8"/><path d="M26.08,31.99c-.01,.13-.04,.25-.07,.35h0c-.03,.11-.07,.2-.12,.29v.02s-.06,.06-.09,.09c-.09,.12-.2,.22-.32,.28l1.72-.83-.66-.43-.45,.22Z" fill="#0948c7" opacity=".8"/><polygon points="23.67 21.17 29.32 18.45 30.71 24.38 25.06 27.1 23.67 21.17" fill="url(#e)" opacity=".8"/><polygon points="25.78 16.72 25.07 16.37 22.24 14.99 16.59 17.72 19.42 19.1 20.13 19.44 23.67 21.17 29.32 18.45 25.78 16.72" fill="url(#f)" opacity=".8"/><polygon points="27.89 29.37 33.54 26.64 33.52 30.14 27.87 32.86 27.89 29.37" fill="url(#g)" opacity=".8"/><polygon points="25.06 27.1 30.71 24.38 33.54 26.64 27.89 29.37 25.06 27.1" fill="url(#h)" opacity=".8"/><path d="M25.06,27.1l2.83,2.26-.02,3.49-1.79-.87c-.09,.94-.77,1.38-1.58,.98s-1.48-1.49-1.56-2.51l-4.64-2.26c-.09,.94-.77,1.38-1.58,.98s-1.49-1.49-1.57-2.52l-1.43-.7,.02-3.49,2.13,.16,.74-4.9,2.83,1.38,.71,.35,3.54,1.73,1.39,5.93Zm2.11,4.54v-1.94l-2.2-1.76-4.88-2.38-.71-.35-3.42-1.67-1.53-.12v1.99l.79,.39c.22-.66,.81-.92,1.51-.58s1.27,1.17,1.48,2.04l4.8,2.34c.23-.65,.81-.92,1.51-.58s1.27,1.17,1.49,2.04l1.16,.57m-7.05-11.33l-.02,4.37,4.21,2.06-1.16-4.94-3.03-1.48m-2.94-1.43l-.62,4.08,2.82,1.38,.02-4.37-2.23-1.09m-.47,9.41c.48,.24,.89-.06,.89-.66s-.4-1.29-.88-1.53-.89,.06-.89,.66,.39,1.29,.88,1.53m7.79,3.8c.48,.24,.89-.06,.89-.66s-.4-1.29-.88-1.53-.89,.06-.89,.66,.39,1.29,.88,1.53" fill="#2f3541"/><path d="M27.17,31.64v-1.94l-2.2-1.76-4.88-2.38-.71-.35-3.42-1.67-1.53-.12v1.99l.79,.39c.22-.66,.81-.92,1.51-.58s1.27,1.17,1.48,2.04l4.8,2.34c.23-.65,.81-.92,1.51-.58s1.27,1.17,1.49,2.04l1.16,.57" fill="#fff3f8"/><polyline points="20.12 20.32 20.1 24.69 24.31 26.74 23.16 21.8 20.12 20.32" fill="#fff3f8"/><polyline points="17.19 18.88 16.57 22.96 19.39 24.34 19.42 19.97 17.19 18.88" fill="#fff3f8"/><path d="M16.71,28.3c.48,.24,.89-.06,.89-.66s-.4-1.29-.88-1.53-.89,.06-.89,.66,.39,1.29,.88,1.53" fill="#fff3f8"/><path d="M24.5,32.1c.48,.24,.89-.06,.89-.66s-.4-1.29-.88-1.53-.89,.06-.89,.66,.39,1.29,.88,1.53" fill="#fff3f8"/></svg>