<?xml version="1.0" encoding="UTF-8"?><svg id="a" xmlns="http://www.w3.org/2000/svg" viewBox="0 0 24 24"><rect width="24" height="24" fill="none"/><g><g><path d="M5.25,14.33V4.25h13.5V14.33c0,4.28-3.87,6.42-6.78,6.42-3.11,0-6.71-2.14-6.72-6.42" fill="#fff"/><path d="M5.25,4.25V14.33c.01,4.28,3.61,6.42,6.72,6.42,2.91,0,5.19-1.91,5.87-3.2L5.26,4.28h0v-.03Z" fill="#2673bd"/><path d="M5.25,14.33V4.25h13.5V14.33c0,4.28-3.87,6.42-6.78,6.42l-6.72-6.42" fill="#fff"/><path d="M5.25,4.25V14.33c.01,4.28,3.61,6.42,6.72,6.42,2.91,0,5.19-1.91,5.87-3.2L5.26,4.28h0v-.03Z" fill="#2673bd"/></g><path d="M11.99,21c-1.95,0-3.89-.78-5.19-2.1-1.18-1.19-1.81-2.77-1.8-4.56V4h14V14.34c0,4.54-4.18,6.66-7.01,6.66ZM5.42,4.42V14.34c0,1.68,.58,3.15,1.68,4.26,1.22,1.24,3.05,1.98,4.89,1.98,2.66,0,6.59-1.98,6.59-6.24V4.42H5.42Z" fill="#171714"/></g></svg>