<?xml version="1.0" encoding="UTF-8"?><svg id="a" xmlns="http://www.w3.org/2000/svg" viewBox="0 0 24 24"><rect y="0" width="24" height="24" fill="none"/><path d="M20.5,11.5h1.5V7h-3.5v-.5c0-.83-.67-1.5-1.5-1.5s-1.5,.67-1.5,1.5v.5h-7v1.5c0,.28-.22,.5-.5,.5s-.5-.22-.5-.5v-1.5H3v3.5h-.5c-.83,0-1.5,.67-1.5,1.5s.67,1.5,1.5,1.5h.5v3.5h3.5v.5c0,.83,.67,1.5,1.5,1.5s1.5-.67,1.5-1.5v-.5h7v-1.5c0-.28,.22-.5,.5-.5s.5,.22,.5,.5v1.5h4.5v-4.5h-1.5c-.28,0-.5-.22-.5-.5s.22-.5,.5-.5Zm-8.5,4.5h-3.5v1.5c0,.28-.22,.5-.5,.5s-.5-.22-.5-.5v-1.5h-3.5v-3.5h-1.5c-.28,0-.5-.22-.5-.5s.22-.5,.5-.5h1.5v-3.5h2.5v.5c0,.83,.67,1.5,1.5,1.5s1.5-.67,1.5-1.5v-.5h2.5v2.5h-.5c-.83,0-1.5,.67-1.5,1.5s.67,1.5,1.5,1.5h.5v2.5Zm8.5-2.5h.5v2.5h-2.5v-.5c0-.83-.67-1.5-1.5-1.5s-1.5,.67-1.5,1.5v.5h-2.5v-3.5h-1.5c-.28,0-.5-.22-.5-.5s.22-.5,.5-.5h1.5v-3.5h3.5v-1.5c0-.28,.22-.5,.5-.5s.5,.22,.5,.5v1.5h3.5v2.5h-.5c-.83,0-1.5,.67-1.5,1.5s.67,1.5,1.5,1.5Z" fill="#2f3541"/></svg>