<?xml version="1.0" encoding="UTF-8"?><svg id="a" xmlns="http://www.w3.org/2000/svg" viewBox="0 0 24 24"><rect width="24" height="24" fill="none"/><g><path d="M15.96,13.56c.4,.65,.66,1.39,.7,2.19,0,.14,.11,.25,.25,.25h5.77c.15,0,.27-.13,.27-.27-.05-1.99-.64-3.85-1.62-5.45l-5.37,3.28Z" fill="none"/><path d="M21.33,10.28l-5.37,3.28h0c.4,.65,.66,1.39,.7,2.19,0,.14,.11,.25,.25,.25h5.77c.15,0,.27-.13,.27-.27,0,0-.29-3.28-1.62-5.45Z" fill="#fff" opacity=".4"/><path d="M11.95,5C5.98,5,1.1,9.79,.95,15.73c0,.15,.12,.27,.27,.27H6.99c.14,0,.25-.11,.25-.25,.13-2.48,2.19-4.47,4.71-4.47,1.7,0,3.18,.92,4.01,2.27l5.37-3.28c-1.94-3.16-5.41-5.28-9.38-5.28Z" fill="#fff" opacity=".8"/><path d="M23,9.15l-11.58,6c-.47,.29-.61,.91-.32,1.38s.91,.61,1.38,.32l10.52-7.7Z" fill="#fff"/></g></svg>