<?xml version="1.0" encoding="UTF-8"?><svg xmlns="http://www.w3.org/2000/svg" width="24" height="24" viewBox="0 0 24 24"><g id="icon"><rect x="0" y="0" width="24" height="24" fill="none"/><path d="m18.8284,8l-2.8284-2.8284-2.8284,2.8284,2.8284,2.8284,2.8284-2.8284m.7071-.7071c.3905.3905.3905,1.0237,0,1.4142l-2.8284,2.8284c-.3905.3905-1.0237.3905-1.4142,0l-2.8284-2.8284c-.3905-.3905-.3905-1.0237,0-1.4142l2.8284-2.8284c.3905-.3905,1.0237-.3905,1.4142,0l2.8284,2.8284h0Zm-9.5356-1.2929h-3.9999v4h3.9999v-4m0-1c.5523,0,1,.4478,1,1v4c0,.5522-.4477,1-1,1h-3.9999c-.5523,0-1-.4478-1-1v-4c0-.5522.4477-1,1-1h3.9999Zm0,9h-4v4h4v-4m0-1c.5523,0,1,.4478,1,1v4c0,.5522-.4477,1-1,1h-4c-.5523,0-1-.4478-1-1v-4c0-.5522.4477-1,1-1h4Zm8,1h-4v4h4v-4m0-1c.5523,0,1,.4478,1,1v4c0,.5522-.4477,1-1,1h-4c-.5523,0-1-.4478-1-1v-4c0-.5522.4477-1,1-1h4Z" fill="#2f3541"/></g><g id="text_-_keep_locked_to_avoid_add_icons_here"><text transform="translate(8710.6465 9815.1797)" fill="#fff" font-family="Eina03-Regular, Eina03" font-size="4"><tspan x="0" y="0">brush</tspan></text><text transform="translate(8553.5137 9814)" fill="#fff" font-family="Eina03-Regular, Eina03" font-size="4"><tspan x="0" y="0">mic</tspan><tspan x="7.0137" y="0" letter-spacing="-.022em">r</tspan><tspan x="8.3301" y="0">ophone</tspan></text><text transform="translate(9000.8204 9864)" fill="#fff" font-family="Eina03-Regular, Eina03" font-size="4"><tspan x="0" y="0">document_tick</tspan></text><text transform="translate(9107.1758 9865.0605)" fill="#fff" font-family="Eina03-Regular, Eina03" font-size="4"><tspan x="0" y="0" letter-spacing="-.0059em">c</tspan><tspan x="2.2852" y="0">ont</tspan><tspan x="8.3105" y="0" letter-spacing="-.022em">r</tspan><tspan x="9.627" y="0">act</tspan></text><text transform="translate(8601.8506 9814)" fill="#fff" font-family="Eina03-Regular, Eina03" font-size="4"><tspan x="0" y="0">video_</tspan><tspan x="12.5049" y="0" letter-spacing="-.0059em">c</tspan><tspan x="14.79" y="0">ame</tspan><tspan x="23.4346" y="0" letter-spacing="-.022em">r</tspan><tspan x="24.751" y="0">a</tspan></text><text transform="translate(8851.8419 9766.5215)" fill="#fff" font-family="Eina03-Regular, Eina03" font-size="4"><tspan x="0" y="0" letter-spacing="-.0149em">triangle_d</tspan><tspan x="18.334" y="0" letter-spacing="-.0312em">o</tspan><tspan x="20.6777" y="0" letter-spacing="-.0151em">wn</tspan></text><text transform="translate(9248.9503 9866.1211)" fill="#fff" font-family="Eina03-Regular, Eina03" font-size="4"><tspan x="0" y="0" letter-spacing="-.0149em">ci</tspan><tspan x="3.1719" y="0" letter-spacing="-.0369em">r</tspan><tspan x="4.4287" y="0" letter-spacing="-.0151em">cle_chart_pie</tspan></text><text transform="translate(9052.4522 9765.2617)" fill="#fff" font-family="Eina03-Regular, Eina03" font-size="4"><tspan x="0" y="0">ar</tspan><tspan x="3.9561" y="0" letter-spacing="-.022em">r</tspan><tspan x="5.2725" y="0" letter-spacing="-.0161em">o</tspan><tspan x="7.6768" y="0" letter-spacing="-.0039em">w</tspan><tspan x="10.9697" y="0">s_</tspan><tspan x="14.9854" y="0" letter-spacing="-.0039em">s</tspan><tspan x="16.9854" y="0">wi</tspan><tspan x="21.2783" y="0" letter-spacing="-.0112em">t</tspan><tspan x="22.3975" y="0">ch</tspan></text><text transform="translate(9101.7618 9765.2617)" fill="#fff" font-family="Eina03-Regular, Eina03" font-size="4"><tspan x="0" y="0">ar</tspan><tspan x="3.9551" y="0" letter-spacing="-.022em">r</tspan><tspan x="5.2715" y="0" letter-spacing="-.0161em">o</tspan><tspan x="7.6758" y="0" letter-spacing="-.0039em">w</tspan><tspan x="10.9688" y="0">s_upda</tspan><tspan x="24.9863" y="0" letter-spacing="-.0107em">t</tspan><tspan x="26.1074" y="0">e</tspan></text><text transform="translate(8759.8594 9864)" fill="#fff" font-family="Eina03-Regular, Eina03" font-size="4"><tspan x="0" y="0">clock</tspan></text><text transform="translate(8404.2129 9714)" fill="#fff" font-family="Eina03-Regular, Eina03" font-size="4"><tspan x="0" y="0">lines_menu</tspan></text><text transform="translate(8459.2715 9764)" fill="#fff" font-family="Eina03-Regular, Eina03" font-size="4"><tspan x="0" y="0">minus</tspan></text><text transform="translate(8459.082 9814)" fill="#fff" font-family="Eina03-Regular, Eina03" font-size="4"><tspan x="0" y="0">pause</tspan></text><text transform="translate(8513.92 9764)" fill="#fff" font-family="Eina03-Regular, Eina03" font-size="4"><tspan x="0" y="0">x</tspan></text><text transform="translate(8554.2715 9764)" fill="#fff" font-family="Eina03-Regular, Eina03" font-size="4"><tspan x="0" y="0">ar</tspan><tspan x="3.957" y="0" letter-spacing="-.022em">r</tspan><tspan x="5.2734" y="0" letter-spacing="-.0161em">o</tspan><tspan x="7.6777" y="0">w_right</tspan></text><text transform="translate(8607.9922 9864)" fill="#fff" font-family="Eina03-Regular, Eina03" font-size="4"><tspan x="0" y="0">alpha_i</tspan></text><text transform="translate(8546.3282 9715)" fill="#fff" font-family="Eina03-Regular, Eina03" font-size="4"><tspan x="0" y="0">shaded_ar</tspan><tspan x="20.3926" y="0" letter-spacing="-.022em">r</tspan><tspan x="21.709" y="0" letter-spacing="-.0161em">o</tspan><tspan x="24.1133" y="0">w_cu</tspan><tspan x="34.0742" y="0" letter-spacing="-.0049em">r</tspan><tspan x="35.459" y="0">sor</tspan></text><text transform="translate(8710.4727 9864)" fill="#fff" font-family="Eina03-Regular, Eina03" font-size="4"><tspan x="0" y="0" letter-spacing="-.0107em">t</tspan><tspan x="1.1211" y="0">ools</tspan></text><text transform="translate(8811.6661 9764)" fill="#fff" font-family="Eina03-Regular, Eina03" font-size="4"><tspan x="0" y="0">tick</tspan></text><text transform="translate(8748.9024 9764)" fill="#fff" font-family="Eina03-Regular, Eina03" font-size="4"><tspan x="0" y="0">ar</tspan><tspan x="3.957" y="0" letter-spacing="-.022em">r</tspan><tspan x="5.2734" y="0" letter-spacing="-.0161em">o</tspan><tspan x="7.6777" y="0">w_d</tspan><tspan x="15.5391" y="0" letter-spacing="-.0161em">o</tspan><tspan x="17.9434" y="0">wnload</tspan></text><text transform="translate(8701.7813 9764)" fill="#fff" font-family="Eina03-Regular, Eina03" font-size="4"><tspan x="0" y="0">ar</tspan><tspan x="3.957" y="0" letter-spacing="-.022em">r</tspan><tspan x="5.2734" y="0" letter-spacing="-.0161em">o</tspan><tspan x="7.6777" y="0">w_upload</tspan></text><text transform="translate(8803.6876 9814)" fill="#fff" font-family="Eina03-Regular, Eina03" font-size="4"><tspan x="0" y="0">ruler</tspan><tspan x="8.5078" y="0">_st</tspan><tspan x="13.6875" y="0" letter-spacing="-.022em">r</tspan><tspan x="15.0039" y="0">aight</tspan></text><text transform="translate(8494.1006 9715)" fill="#fff" font-family="Eina03-Regular, Eina03" font-size="4"><tspan x="0" y="0">dots_hori</tspan><tspan x="17.4482" y="0" letter-spacing="-.0239em">z</tspan><tspan x="19.4561" y="0">on</tspan><tspan x="24.3174" y="0" letter-spacing="-.0112em">t</tspan><tspan x="25.4365" y="0">al_menu</tspan></text><text transform="translate(8853.5567 9814)" fill="#fff" font-family="Eina03-Regular, Eina03" font-size="4"><tspan x="0" y="0">ruler</tspan><tspan x="8.5078" y="0">_triangle</tspan></text><text transform="translate(8900.2774 9764)" fill="#fff" font-family="Eina03-Regular, Eina03" font-size="4"><tspan x="0" y="0">ar</tspan><tspan x="3.957" y="0" letter-spacing="-.022em">r</tspan><tspan x="5.2734" y="0" letter-spacing="-.0161em">o</tspan><tspan x="7.6777" y="0" letter-spacing="-.0039em">w</tspan><tspan x="10.9707" y="0">s_</tspan><tspan x="14.9863" y="0" letter-spacing="-.0298em">e</tspan><tspan x="17.2383" y="0">xpand</tspan></text><text transform="translate(8860.8809 9864)" fill="#fff" font-family="Eina03-Regular, Eina03" font-size="4"><tspan x="0" y="0">mail</tspan></text><text transform="translate(8946.4083 9714)" fill="#fff" font-family="Eina03-Regular, Eina03" font-size="4"><tspan x="0" y="0">shaded_ar</tspan><tspan x="20.3945" y="0" letter-spacing="-.022em">r</tspan><tspan x="21.7109" y="0" letter-spacing="-.0161em">o</tspan><tspan x="24.1152" y="0">w_left</tspan></text><text transform="translate(8893.962 9714)" fill="#fff" font-family="Eina03-Regular, Eina03" font-size="4"><tspan x="0" y="0">shaded_ar</tspan><tspan x="20.3936" y="0" letter-spacing="-.022em">r</tspan><tspan x="21.71" y="0" letter-spacing="-.0161em">o</tspan><tspan x="24.1143" y="0">w_d</tspan><tspan x="31.9756" y="0" letter-spacing="-.0161em">o</tspan><tspan x="34.3799" y="0">wn</tspan></text><text transform="translate(8845.0547 9714)" fill="#fff" font-family="Eina03-Regular, Eina03" font-size="4"><tspan x="0" y="0">shaded_ar</tspan><tspan x="20.3945" y="0" letter-spacing="-.022em">r</tspan><tspan x="21.7109" y="0" letter-spacing="-.0161em">o</tspan><tspan x="24.1152" y="0">w_right</tspan></text><text transform="translate(8796.8419 9714)" fill="#fff" font-family="Eina03-Regular, Eina03" font-size="4"><tspan x="0" y="0">shaded_ar</tspan><tspan x="20.3945" y="0" letter-spacing="-.022em">r</tspan><tspan x="21.7109" y="0" letter-spacing="-.0161em">o</tspan><tspan x="24.1152" y="0">w_up</tspan></text><text transform="translate(8598.7364 9764)" fill="#fff" font-family="Eina03-Regular, Eina03" font-size="4"><tspan x="0" y="0">ar</tspan><tspan x="3.957" y="0" letter-spacing="-.022em">r</tspan><tspan x="5.2734" y="0" letter-spacing="-.0161em">o</tspan><tspan x="7.6777" y="0">w_d</tspan><tspan x="15.5391" y="0" letter-spacing="-.022em">r</tspan><tspan x="16.8555" y="0">opd</tspan><tspan x="24.4297" y="0" letter-spacing="-.0161em">o</tspan><tspan x="26.834" y="0">wn</tspan></text><text transform="translate(8411.0527 9764)" fill="#fff" font-family="Eina03-Regular, Eina03" font-size="4"><tspan x="0" y="0">plus</tspan></text><text transform="translate(8400.3164 9864)" fill="#fff" font-family="Eina03-Regular, Eina03" font-size="4"><tspan x="0" y="0">speech_bubble</tspan></text><text transform="translate(8449.3086 9864)" fill="#fff" font-family="Eina03-Regular, Eina03" font-size="4"><tspan x="0" y="0">speech_bubbles</tspan></text><text transform="translate(8553.3262 9864)" fill="#fff" font-family="Eina03-Regular, Eina03" font-size="4"><tspan x="0" y="0">megaphone</tspan></text><text transform="translate(8905.3399 9864)" fill="#fff" font-family="Eina03-Regular, Eina03" font-size="4"><tspan x="0" y="0">document</tspan></text><text transform="translate(8402.7021 9814)" fill="#fff" font-family="Eina03-Regular, Eina03" font-size="4"><tspan x="0" y="0">triangle_play</tspan></text><text transform="translate(8651.9102 9765.2617)" fill="#fff" font-family="Eina03-Regular, Eina03" font-size="4"><tspan x="0" y="0">questionmark</tspan></text><text transform="translate(8371.0645 9693)" fill="#fff" font-family="Eina03-Bold, Eina03" font-size="12" font-weight="700"><tspan x="0" y="0">2D</tspan></text><text transform="translate(8808.1563 9864)" fill="#fff" font-family="Eina03-Regular, Eina03" font-size="4"><tspan x="0" y="0">sui</tspan><tspan x="5.3438" y="0" letter-spacing="-.0107em">t</tspan><tspan x="6.4648" y="0" letter-spacing="-.0063em">c</tspan><tspan x="8.748" y="0">ase</tspan></text><text transform="translate(8500.9199 9814)" fill="#fff" font-family="Eina03-Regular, Eina03" font-size="4"><tspan x="0" y="0" letter-spacing="-.022em">r</tspan><tspan x="1.3164" y="0">ec</tspan><tspan x="5.9961" y="0" letter-spacing="-.0112em">t</tspan><tspan x="7.1152" y="0">angle_play</tspan></text><text transform="translate(8955.3321 9864)" fill="#fff" font-family="Eina03-Regular, Eina03" font-size="4"><tspan x="0" y="0">documents</tspan></text><text transform="translate(8660.3516 9864)" fill="#fff" font-family="Eina03-Regular, Eina03" font-size="4"><tspan x="0" y="0" letter-spacing="-.0059em">c</tspan><tspan x="2.2852" y="0">ogs</tspan></text><text transform="translate(9352.8829 9865)" fill="#fff" font-family="Eina03-Regular, Eina03" font-size="4"><tspan x="0" y="0">chart_pie_bar</tspan></text><text transform="translate(8908.5098 9816.3613)" fill="#fff" font-family="Eina03-Regular, Eina03" font-size="4"><tspan x="0" y="0" letter-spacing="-.0107em">f</tspan><tspan x="1.2012" y="0">older</tspan></text><text transform="translate(8953.6192 9816.3613)" fill="#fff" font-family="Eina03-Regular, Eina03" font-size="4"><tspan x="0" y="0" letter-spacing="-.0107em">f</tspan><tspan x="1.2012" y="0">older_open</tspan></text><text transform="translate(9246.6251 9765.2617)" fill="#fff" font-family="Eina03-Regular, Eina03" font-size="4"><tspan x="0" y="0">ar</tspan><tspan x="3.957" y="0" letter-spacing="-.022em">r</tspan><tspan x="5.2734" y="0" letter-spacing="-.0161em">o</tspan><tspan x="7.6777" y="0">w_</tspan><tspan x="12.9863" y="0" letter-spacing="-.022em">r</tspan><tspan x="14.3027" y="0">o</tspan><tspan x="16.7715" y="0" letter-spacing="-.0107em">t</tspan><tspan x="17.8926" y="0">a</tspan><tspan x="20.4453" y="0" letter-spacing="-.0112em">t</tspan><tspan x="21.5645" y="0">e_y_axis</tspan></text><text transform="translate(9303.1837 9765)" fill="#fff" font-family="Eina03-Regular, Eina03" font-size="4"><tspan x="0" y="0">ar</tspan><tspan x="3.957" y="0" letter-spacing="-.022em">r</tspan><tspan x="5.2734" y="0" letter-spacing="-.0161em">o</tspan><tspan x="7.6777" y="0">w_sha</tspan><tspan x="19.9473" y="0" letter-spacing="-.022em">r</tspan><tspan x="21.2637" y="0">e</tspan></text><text transform="translate(8759.2051 9816.3613)" fill="#fff" font-family="Eina03-Regular, Eina03" font-size="4"><tspan x="0" y="0">pencil</tspan></text><text transform="translate(8447.0459 9714.1406)" fill="#fff" font-family="Eina03-Regular, Eina03" font-size="4"><tspan x="0" y="0">dots_</tspan><tspan x="10.2002" y="0" letter-spacing="-.022em">v</tspan><tspan x="12.2412" y="0">erti</tspan><tspan x="18.165" y="0" letter-spacing="-.0059em">c</tspan><tspan x="20.4502" y="0">al_menu</tspan></text><text transform="translate(9007.9981 9815.1797)" fill="#fff" font-family="Eina03-Regular, Eina03" font-size="4"><tspan x="0" y="0">dustbin</tspan></text><text transform="translate(9206.4551 9865.0605)" fill="#fff" font-family="Eina03-Regular, Eina03" font-size="4"><tspan x="0" y="0" letter-spacing="-.0059em">c</tspan><tspan x="2.2852" y="0">alendar</tspan></text><text transform="translate(9149.9932 9865.0605)" fill="#fff" font-family="Eina03-Regular, Eina03" font-size="4"><tspan x="0" y="0" letter-spacing="-.0059em">c</tspan><tspan x="2.2852" y="0">ont</tspan><tspan x="8.3105" y="0" letter-spacing="-.022em">r</tspan><tspan x="9.627" y="0">act_smart</tspan></text><text transform="translate(8955.6085 9764.0898)" fill="#fff" font-family="Eina03-Regular, Eina03" font-size="4"><tspan x="0" y="0">ar</tspan><tspan x="3.957" y="0" letter-spacing="-.022em">r</tspan><tspan x="5.2734" y="0" letter-spacing="-.0161em">o</tspan><tspan x="7.6777" y="0">w_up</tspan></text><text transform="translate(9002.7276 9764.0898)" fill="#fff" font-family="Eina03-Regular, Eina03" font-size="4"><tspan x="0" y="0">ar</tspan><tspan x="3.957" y="0" letter-spacing="-.022em">r</tspan><tspan x="5.2734" y="0" letter-spacing="-.0161em">o</tspan><tspan x="7.6777" y="0">w_d</tspan><tspan x="15.5391" y="0" letter-spacing="-.0161em">o</tspan><tspan x="17.9434" y="0">wn</tspan></text><text transform="translate(8747.2793 9715)" fill="#fff" font-family="Eina03-Regular, Eina03" font-size="4"><tspan x="0" y="0">shaded_c</tspan><tspan x="18.7461" y="0" letter-spacing="-.022em">r</tspan><tspan x="20.0625" y="0">o</tspan><tspan x="22.5312" y="0" letter-spacing="-.0112em">s</tspan><tspan x="24.502" y="0">s_cu</tspan><tspan x="33.1699" y="0" letter-spacing="-.0049em">r</tspan><tspan x="34.5547" y="0">sor</tspan></text><text transform="translate(9200.1212 9765.2617)" fill="#fff" font-family="Eina03-Regular, Eina03" font-size="4"><tspan x="0" y="0">ar</tspan><tspan x="3.957" y="0" letter-spacing="-.022em">r</tspan><tspan x="5.2734" y="0" letter-spacing="-.0161em">o</tspan><tspan x="7.6777" y="0">w_turn_right</tspan></text><text transform="translate(9152.6797 9765.2617)" fill="#fff" font-family="Eina03-Regular, Eina03" font-size="4"><tspan x="0" y="0">ar</tspan><tspan x="3.957" y="0" letter-spacing="-.022em">r</tspan><tspan x="5.2734" y="0" letter-spacing="-.0161em">o</tspan><tspan x="7.6777" y="0" letter-spacing="-.0039em">w</tspan><tspan x="10.9707" y="0">s_d</tspan><tspan x="17.5391" y="0" letter-spacing="-.0161em">o</tspan><tspan x="19.9434" y="0">wn</tspan></text><text transform="translate(9042.9102 9864)" fill="#fff" font-family="Eina03-Regular, Eina03" font-size="4"><tspan x="0" y="0">document_pe</tspan><tspan x="26.2461" y="0" letter-spacing="-.022em">r</tspan><tspan x="27.5625" y="0" letter-spacing="-.0059em">c</tspan><tspan x="29.8477" y="0">en</tspan><tspan x="34.6113" y="0" letter-spacing="-.0112em">t</tspan><tspan x="35.7305" y="0">age</tspan></text><text transform="translate(9297.0001 9865)" fill="#fff" font-family="Eina03-Regular, Eina03" font-size="4"><tspan x="0" y="0">chart_ar</tspan><tspan x="15.7793" y="0" letter-spacing="-.022em">r</tspan><tspan x="17.0957" y="0" letter-spacing="-.0161em">o</tspan><tspan x="19.5" y="0">w_d</tspan><tspan x="27.3613" y="0" letter-spacing="-.0161em">o</tspan><tspan x="29.7656" y="0">wn</tspan></text><text transform="translate(8646.7949 9815.1797)" fill="#fff" font-family="Eina03-Regular, Eina03" font-size="4"><tspan x="0" y="0">image_lands</tspan><tspan x="24.6543" y="0" letter-spacing="-.0059em">c</tspan><tspan x="26.9395" y="0">ape</tspan></text></g><g id="clean_up"><text transform="translate(8213.9999 9607.5)" fill="#e0b4e1" font-family="Eina03-Regular, Eina03" font-size="4"><tspan x="0" y="0">I’</tspan><tspan x="1.9639" y="0" letter-spacing="-.022em">v</tspan><tspan x="4.0039" y="0">e a</tspan><tspan x="9.9678" y="0" letter-spacing="-.011em">d</tspan><tspan x="12.4756" y="0">ded </tspan><tspan x="20.9912" y="0" letter-spacing="-.0061em">c</tspan><tspan x="23.2744" y="0">omments in purple </tspan><tspan x="59.8291" y="0" letter-spacing="-.011em">t</tspan><tspan x="60.9492" y="0">o the</tspan><tspan x="70.3848" y="0" letter-spacing="-.022em"> </tspan><tspan x="71.3369" y="0">AI doc with </tspan><tspan x="0" y="4.7998">su</tspan><tspan x="4.3594" y="4.7998" letter-spacing="-.011em">g</tspan><tspan x="6.8438" y="4.7998">gestions on naming and an</tspan><tspan x="58.8086" y="4.7998" letter-spacing="-.0039em">s</tspan><tspan x="60.8086" y="4.7998" letter-spacing="-.022em">w</tspan><tspan x="64.0283" y="4.7998">e</tspan><tspan x="66.4004" y="4.7998" letter-spacing="-.0051em">r</tspan><tspan x="67.7842" y="4.7998">s </tspan><tspan x="70.8398" y="4.7998" letter-spacing="-.011em">t</tspan><tspan x="71.96" y="4.7998">o a</tspan><tspan x="78.0195" y="4.7998" letter-spacing="-.0259em">n</tspan><tspan x="80.3076" y="4.7998">y </tspan><tspan x="0" y="9.5996">questions </tspan><tspan x="19.3467" y="9.5996" letter-spacing="-.022em">r</tspan><tspan x="20.6631" y="9.5996">aised. I’</tspan><tspan x="35.0068" y="9.5996" letter-spacing="-.022em">v</tspan><tspan x="37.0469" y="9.5996">e also a</tspan><tspan x="52.0703" y="9.5996" letter-spacing="-.011em">d</tspan><tspan x="54.5781" y="9.5996">ded </tspan><tspan x="63.0938" y="9.5996" letter-spacing="-.022em">r</tspan><tspan x="64.4102" y="9.5996">ed dots n</tspan><tspan x="82.0049" y="9.5996" letter-spacing="-.03em">e</tspan><tspan x="84.2568" y="9.5996">xt </tspan><tspan x="88.6211" y="9.5996" letter-spacing="-.011em">t</tspan><tspan x="89.7412" y="9.5996">o </tspan><tspan x="0" y="14.4004">i</tspan><tspan x=".9844" y="14.4004" letter-spacing="-.0061em">c</tspan><tspan x="3.2676" y="14.4004">ons that </tspan><tspan x="19.4941" y="14.4004" letter-spacing="-.0059em">c</tspan><tspan x="21.7783" y="14.4004">an be m</tspan><tspan x="37.4453" y="14.4004" letter-spacing="-.0181em">o</tspan><tspan x="39.8408" y="14.4004" letter-spacing="-.022em">v</tspan><tspan x="41.8809" y="14.4004">ed in</tspan><tspan x="51.2207" y="14.4004" letter-spacing="-.011em">t</tspan><tspan x="52.3408" y="14.4004">o the</tspan><tspan x="61.7764" y="14.4004" letter-spacing="-.022em"> </tspan><tspan x="62.7285" y="14.4004">WIP document </tspan><tspan x="91.9385" y="14.4004" letter-spacing="-.022em">w</tspan><tspan x="95.1582" y="14.4004">e </tspan><tspan x="0" y="19.2002">discu</tspan><tspan x="10.2031" y="19.2002" letter-spacing="-.011em">s</tspan><tspan x="12.1748" y="19.2002">sed (these a</tspan><tspan x="35.3213" y="19.2002" letter-spacing="-.022em">r</tspan><tspan x="36.6377" y="19.2002">e i</tspan><tspan x="41.0342" y="19.2002" letter-spacing="-.0061em">c</tspan><tspan x="43.3174" y="19.2002">ons that a</tspan><tspan x="62.0957" y="19.2002" letter-spacing="-.022em">r</tspan><tspan x="63.4121" y="19.2002">e either old and </tspan><tspan x="0" y="24">need updating, no longer used, </tspan><tspan x="59.9746" y="24" letter-spacing="-.022em">r</tspan><tspan x="61.291" y="24">epeats or in </tspan><tspan x="0" y="28.7998">p</tspan><tspan x="2.5518" y="28.7998" letter-spacing="-.022em">r</tspan><tspan x="3.8682" y="28.7998">og</tspan><tspan x="8.8643" y="28.7998" letter-spacing="-.022em">r</tspan><tspan x="10.1807" y="28.7998">e</tspan><tspan x="12.5527" y="28.7998" letter-spacing="-.011em">s</tspan><tspan x="14.5244" y="28.7998">s).</tspan></text><text transform="translate(8218.9999 9803)" fill="#e0b4e1" font-family="Eina03-Regular, Eina03" font-size="4"><tspan x="0" y="0" letter-spacing="-.022em">y</tspan><tspan x="2.04" y="0">es - these </tspan><tspan x="21.4473" y="0" letter-spacing="-.0061em">c</tspan><tspan x="23.7305" y="0">ould be a</tspan><tspan x="41.6338" y="0" letter-spacing="-.011em">d</tspan><tspan x="44.1416" y="0">ded </tspan><tspan x="52.6572" y="0" letter-spacing="-.011em">t</tspan><tspan x="53.7773" y="0">o the n</tspan><tspan x="66.6445" y="0" letter-spacing="-.022em">e</tspan><tspan x="68.9287" y="0">w „icn_shaded_“ </tspan><tspan x="101.3779" y="0" letter-spacing="-.0059em">c</tspan><tspan x="103.6621" y="0">omponent type</tspan></text><text transform="translate(8218.7714 9797)" fill="#ff0" font-family="Eina03-Regular, Eina03" font-size="4"><tspan x="0" y="0">m</tspan><tspan x="3.7197" y="0" letter-spacing="-.0181em">o</tspan><tspan x="6.1152" y="0" letter-spacing="-.022em">v</tspan><tspan x="8.1553" y="0">e them in a sepe</tspan><tspan x="39.5742" y="0" letter-spacing="-.022em">r</tspan><tspan x="40.8906" y="0">a</tspan><tspan x="43.4424" y="0" letter-spacing="-.011em">t</tspan><tspan x="44.5625" y="0">e line with all „special </tspan><tspan x="86.4746" y="0" letter-spacing="-.0059em">c</tspan><tspan x="88.7588" y="0">olou</tspan><tspan x="97.0225" y="0" letter-spacing="-.022em">r</tspan><tspan x="98.3389" y="0">ed“ basic i</tspan><tspan x="118.21" y="0" letter-spacing="-.0061em">c</tspan><tspan x="120.4932" y="0">ons?</tspan></text><text transform="translate(8213.9999 9727.5)" fill="#ff0" font-family="Eina03-Regular, Eina03" font-size="4"><tspan x="0" y="0">m</tspan><tspan x="3.7197" y="0" letter-spacing="-.0181em">o</tspan><tspan x="6.1152" y="0" letter-spacing="-.022em">v</tspan><tspan x="8.1553" y="0">e artboa</tspan><tspan x="24.2588" y="0" letter-spacing="-.022em">r</tspan><tspan x="25.5752" y="0">ds </tspan><tspan x="31.1826" y="0" letter-spacing="-.011em">t</tspan><tspan x="32.3027" y="0">ogether:</tspan><tspan x="0" y="4.7998">- menu</tspan><tspan x="0" y="9.5996">- ar</tspan><tspan x="6.5801" y="9.5996" letter-spacing="-.022em">r</tspan><tspan x="7.8965" y="9.5996" letter-spacing="-.0161em">o</tspan><tspan x="10.2998" y="9.5996" letter-spacing="-.085em">w</tspan><tspan x="13.2676" y="9.5996">, +, -</tspan><tspan x="0" y="14.4004">- document, mail, </tspan><tspan x="33.9912" y="14.4004" letter-spacing="-.011em">f</tspan><tspan x="35.1914" y="14.4004">older</tspan><tspan x="0" y="19.2002">- model</tspan><tspan x="0" y="24">- buildings</tspan></text><text transform="translate(8213.9999 9848)" fill="#ff0" font-family="Eina03-Regular, Eina03" font-size="4"><tspan x="0" y="0">= i</tspan><tspan x="4.3525" y="0" letter-spacing="-.0061em">c</tspan><tspan x="6.6357" y="0">on not pi</tspan><tspan x="23.1348" y="0" letter-spacing="-.022em">x</tspan><tspan x="25.207" y="0">el per</tspan><tspan x="35.9316" y="0" letter-spacing="-.011em">f</tspan><tspan x="37.1318" y="0">ect </tspan><tspan x="44.0156" y="0" letter-spacing="-.022em">y</tspan><tspan x="46.0557" y="0">et</tspan></text></g></svg>