<?xml version="1.0" encoding="UTF-8"?><svg id="a" xmlns="http://www.w3.org/2000/svg" viewBox="0 0 24 24"><rect y="0" width="24" height="24" fill="none"/><path d="M18.41,4.35c-.1,0-.2,0-.31,.01-.61-1.68-2.19-2.36-3.65-2.36-.98,0-1.9,.31-2.45,.83-.54-.52-1.47-.83-2.45-.83-1.46,0-3.04,.68-3.65,2.36-.1,0-.21-.01-.31-.01-3.25,0-5.01,4.85-2.18,7.36-1.02,1.45-.56,3.56,1.25,4.53-.65,1.47,.11,3.79,2.51,3.79h.03c.41,1.46,1.49,1.98,2.57,1.98,.85,0,1.71-.32,2.22-.75,.52,.43,1.37,.75,2.22,.75,1.08,0,2.15-.51,2.57-1.98h.03c2.4,0,3.16-2.32,2.51-3.79,1.81-.97,2.27-3.08,1.25-4.53,2.83-2.51,1.07-7.36-2.18-7.36Zm-10.23,15.4l-.24-.73h-.76c-.66,0-1.15-.23-1.45-.7-.32-.48-.38-1.18-.15-1.69l.37-.85-.82-.44c-.62-.33-1.05-.87-1.2-1.49-.13-.56-.03-1.12,.3-1.57l.52-.73-.67-.59c-1.25-1.11-1.23-2.71-.84-3.74,.34-.9,1.14-1.87,2.35-1.87,.07,0,.14,0,.22,.01l.77,.07,.26-.73c.57-1.58,2.22-1.7,2.71-1.7,1.1,0,1.95,.48,1.95,.9h0V20.34c-.15,.21-.85,.66-1.72,.66s-1.37-.41-1.6-1.25Zm11.89-5.89c-.15,.63-.57,1.16-1.2,1.49l-.82,.44,.37,.85c.23,.51,.16,1.21-.15,1.69-.3,.46-.79,.7-1.47,.7h-.77l-.21,.73c-.24,.84-.76,1.25-1.6,1.25s-1.58-.44-1.72-.66v-6.34h2.5v1.09c-.58,.21-1,.76-1,1.41,0,.83,.67,1.5,1.5,1.5s1.5-.67,1.5-1.5c0-.65-.42-1.2-1-1.41v-2.09h-3.5v-1h5.5v-2.09c.58-.21,1-.76,1-1.41,0-.83-.67-1.5-1.5-1.5s-1.5,.67-1.5,1.5c0,.65,.42,1.2,1,1.41v1.09h-4.5v-1h2.5v-3.09c.58-.21,1-.76,1-1.41,0-.83-.67-1.5-1.5-1.5s-1.5,.67-1.5,1.5c0,.65,.42,1.2,1,1.41v2.09h-1.5V3.9c0-.41,.85-.9,1.95-.9,.49,0,2.14,.12,2.71,1.7l.26,.73,.77-.07c.07,0,.14-.01,.22-.01,1.21,0,2.01,.96,2.35,1.87,.39,1.03,.41,2.63-.84,3.74l-.67,.59,.52,.73c.32,.46,.43,1.02,.3,1.57Zm-4.06,2.64c0,.28-.22,.5-.5,.5s-.5-.22-.5-.5,.22-.5,.5-.5,.5,.22,.5,.5Zm1-8c0-.28,.22-.5,.5-.5s.5,.22,.5,.5-.22,.5-.5,.5-.5-.22-.5-.5Zm-3-3c0-.28,.22-.5,.5-.5s.5,.22,.5,.5-.22,.5-.5,.5-.5-.22-.5-.5Z" fill="#2f3541"/></svg>