<?xml version="1.0" encoding="UTF-8"?><svg id="a" xmlns="http://www.w3.org/2000/svg" xmlns:xlink="http://www.w3.org/1999/xlink" viewBox="0 0 48 48"><defs><linearGradient id="b" x1="21.3" y1="30.34" x2="40.68" y2="30.34" gradientTransform="matrix(1, 0, 0, 1, 0, 0)" gradientUnits="userSpaceOnUse"><stop offset="0" stop-color="#2f3541" stop-opacity=".6"/><stop offset="1" stop-color="#2f3541" stop-opacity="0"/></linearGradient><linearGradient id="c" x1="14.9" y1="17" x2="21.69" y2="17" gradientTransform="matrix(1, 0, 0, 1, 0, 0)" gradientUnits="userSpaceOnUse"><stop offset="0" stop-color="#f49"/><stop offset="1" stop-color="#26f"/></linearGradient><linearGradient id="d" x1="22.71" y1="20.44" x2="23.58" y2="20.44" xlink:href="#c"/><linearGradient id="e" x1="16.75" y1="22.01" x2="17.86" y2="24.35" xlink:href="#c"/><linearGradient id="f" x1="17.57" y1="13.56" x2="19.9" y2="18.27" xlink:href="#c"/><linearGradient id="g" x1="18.42" y1="15.52" x2="20.75" y2="17.85" xlink:href="#c"/><linearGradient id="h" x1="19.28" y1="14.05" x2="20.68" y2="17.06" xlink:href="#c"/><linearGradient id="i" x1="19.97" y1="14.37" x2="22.77" y2="20.52" xlink:href="#c"/><linearGradient id="j" x1="25.79" y1="21.82" x2="28.76" y2="28.01" xlink:href="#c"/><linearGradient id="k" x1="22.77" y1="17.62" x2="27.23" y2="26.11" xlink:href="#c"/><linearGradient id="l" x1="25.98" y1="16.63" x2="30.46" y2="24.9" xlink:href="#c"/><linearGradient id="m" x1="27.91" y1="19.39" x2="29.27" y2="22.15" xlink:href="#c"/><linearGradient id="n" x1="28.29" y1="20.3" x2="30.33" y2="24.32" xlink:href="#c"/><linearGradient id="o" x1="28.05" y1="17.64" x2="29.57" y2="20.81" xlink:href="#c"/><linearGradient id="p" x1="28.7" y1="18.15" x2="31.64" y2="23.75" xlink:href="#c"/></defs><g><polyline points="44 30.5 24 20.5 4 30.5 24 40.5 44 30.5 44 30.5" fill="#f2f6ff"/><polygon points="24 40.5 24 42.5 4 32.5 4 30.5 24 40.5" fill="#fff" opacity=".2"/><polygon points="24 40.5 24 42.5 44 32.5 44 30.5 24 40.5" fill="#2f3541"/></g><path d="M44,30.5l-10.28-5.14c-7.92-.6-15.32,.29-15.82,3.24-.5,2.99,8.21,4.91,16.09,6.9l10-5Z" fill="url(#b)" opacity=".4"/><rect x="0" y="0" width="48" height="48" fill="none"/><g opacity=".8"><g isolation="isolate"><path d="M20.99,15.5c-.17-.08-.32-.09-.44-.03l-5.65,2.73c.12-.06,.27-.05,.44,.03l.71,.35,5.65-2.73-.71-.35Z" fill="url(#c)"/><g><path d="M23,20.79c.17-.25,.36-.47,.59-.64-.01-.02-.03-.03-.04-.05l-.83,.4c.1,.1,.19,.19,.29,.29Z" fill="url(#d)"/><path d="M18.77,23.14c-.12-.19-.25-.37-.37-.55-.07,.03-.14,.08-.21,.12-.06,.03-.11,.06-.17,.1-.06,.04-.12,.1-.18,.15-.05,.04-.1,.08-.15,.13-.06,.06-.1,.12-.16,.18-.04,.05-.09,.1-.13,.15-.05,.07-.09,.15-.13,.22-.03,.06-.07,.11-.1,.17-.04,.08-.08,.17-.11,.26-.03,.06-.06,.12-.08,.19-.03,.09-.06,.19-.08,.29-.02,.07-.04,.14-.06,.21-.02,.11-.04,.23-.06,.35-.01,.07-.03,.13-.03,.2-.02,.19-.03,.39-.03,.6l3.07-1.48c-.37-.38-.71-.81-1.01-1.3Z" fill="url(#e)"/></g><path d="M13.93,14.91l5.65-2.73c.07,.03,1.34,.65,2.13,1.04l-5.65,2.73c-.79-.39-2.06-1.01-2.13-1.04Z" fill="url(#f)"/><polygon points="16.76 17.17 22.41 14.45 22.4 16.19 16.75 18.92 16.76 17.17" fill="url(#g)"/><path d="M22.06,12.52c-.08-.04-.16-.04-.22-.01l-5.65,2.73c.06-.03,.14-.03,.22,.01,.2,.1,.36,.37,.35,.61v.47l5.64-2.73v-.47c0-.24-.15-.51-.35-.61Z" fill="url(#h)"/><path d="M16.77,16.33l5.65-2.73c.09,.03,.19,.06,.3,.11,1.22,.59,1.82,1.52,1.82,1.76l-5.65,2.73c0-.24-.6-1.17-1.82-1.76-.11-.06-.21-.09-.3-.11Z" fill="url(#i)"/><path d="M24.29,25.04l5.65-2.73c1.01,1.62,1.64,3.55,1.63,5.36l-5.65,2.73c0-1.81-.63-3.75-1.63-5.36Z" fill="url(#j)"/><path d="M30.44,20.11c-.15-.07-.3-.2-.42-.38-.47-.67-1.82-2.47-3.36-3.22-1.54-.75-2.91-.28-3.38-.07-.12,.06-.27,.04-.42-.03l-.46-.22-5.65,2.73,.46,.22c.15,.07,.3,.09,.42,.03,.47-.21,1.84-.68,3.38,.07,1.54,.75,2.89,2.54,3.36,3.22,.12,.18,.27,.3,.42,.38l.46,.22,5.65-2.73-.46-.22Z" fill="url(#k)"/><path d="M23.14,19.41l5.65-2.73,2.12,1.04-5.65,2.73-2.12-1.04Z" fill="url(#l)"/><polygon points="25.97 21.66 31.62 18.93 31.61 20.68 25.96 23.41 25.97 21.66" fill="url(#m)"/><path d="M32.31,21.03l-.71-.35-5.65,2.73,.71,.35c.4,.19,.71,.74,.71,1.22,0,.28-.11,.48-.28,.56l5.65-2.73c.17-.08,.27-.28,.28-.56,0-.48-.31-1.03-.71-1.22Z" fill="url(#n)"/><path d="M31.27,17.02c-.08-.04-.16-.04-.22-.01l-5.65,2.73c.06-.03,.14-.03,.22,.01,.19,.09,.35,.37,.35,.6v.47l5.64-2.73v-.47c0-.24-.15-.51-.35-.6Z" fill="url(#o)"/><path d="M25.97,20.82l5.65-2.73c.1,.03,.19,.06,.3,.11,1.22,.59,1.83,1.52,1.82,1.77l-5.65,2.73c0-.24-.61-1.17-1.82-1.77-.11-.05-.2-.08-.3-.11Z" fill="url(#p)"/></g></g><g><polygon points="17.4 30.63 18.11 30.98 18.32 30.21 17.61 29.86 17.4 30.63" fill="#2f3541"/><polygon points="17.81 29.08 18.52 29.43 18.73 28.65 18.02 28.3 17.81 29.08" fill="#2f3541"/><polygon points="18.23 27.53 18.94 27.87 19.14 27.1 18.44 26.75 18.23 27.53" fill="#2f3541"/><polygon points="19.19 31.51 19.9 31.86 19.91 30.98 19.2 30.63 19.19 31.51" fill="#2f3541"/><polygon points="20.61 32.2 21.32 32.55 21.32 31.67 20.62 31.33 20.61 32.2" fill="#2f3541"/><polygon points="22.03 32.89 22.73 33.24 22.74 32.36 22.03 32.02 22.03 32.89" fill="#2f3541"/><polygon points="23.57 32.77 23.77 33.74 24.48 34.09 24.28 33.12 23.57 32.77" fill="#2f3541"/><polygon points="23.89 31.16 23.18 30.82 23.38 31.8 24.09 32.15 23.89 31.16" fill="#2f3541"/><polygon points="19.56 25.55 18.85 25.2 18.64 25.98 19.35 26.32 19.56 25.55" fill="#2f3541"/><polygon points="23.49 29.22 22.78 28.87 22.98 29.85 23.69 30.19 23.49 29.22" fill="#2f3541"/><polygon points="23.1 27.28 22.39 26.93 22.59 27.9 23.3 28.25 23.1 27.28" fill="#2f3541"/><path d="M26.67,23.75l-.71-.35v-1.75c.8,.39,2.07,1.01,2.14,1.04,0-.24-.61-1.17-1.82-1.77-.11-.05-.2-.08-.3-.11v-.47c0-.24-.15-.51-.35-.6-.2-.1-.36,.02-.36,.26v.44c-.79-.38-2.06-1-2.12-1.04,0,.24,.6,1.17,1.82,1.76,.11,.06,.21,.09,.3,.12v1.77l-.47-.22c-.15-.07-.3-.2-.42-.38-.47-.67-1.82-2.47-3.36-3.22-1.54-.75-2.91-.28-3.38-.07-.12,.06-.27,.04-.42-.03l-.46-.22v-1.75c.8,.39,2.07,1,2.13,1.04,0-.24-.6-1.17-1.82-1.76-.11-.06-.21-.09-.3-.11v-.47c0-.24-.15-.51-.35-.61-.19-.09-.35,.03-.35,.26v.44c-.79-.39-2.06-1.01-2.13-1.04,0,.24,.61,1.17,1.82,1.77,.11,.06,.2,.08,.3,.12v1.77l-.72-.35c-.4-.19-.71,.05-.71,.54,0,.47,.3,1.01,.68,1.21,.75,.39,1.61,.94,2.43,1.82-1.05,.62-1.72,1.93-1.73,3.77l.71,.35c0-1.68,.67-2.86,1.68-3.33,.13,.18,.25,.36,.37,.55,.64,1.02,1.44,1.85,2.31,2.28,.81,.39,1.6,.4,2.22,.04,.13-.08,.26-.14,.38-.19,.94,1.42,1.54,3.17,1.53,4.8l.71,.35c0-1.81-.63-3.75-1.63-5.36,.77-.18,1.43,.03,2.38,.47,.39,.18,.71-.05,.71-.54,0-.48-.31-1.03-.71-1.22Zm-2.97,.43c-.19,.06-.4,.15-.61,.26-.08,.05-.16,.08-.24,.13-.5,.29-1.12,.28-1.75-.03-.65-.32-1.3-.96-1.84-1.83-.08-.12-.15-.22-.23-.33-.21-.31-.42-.6-.64-.86-1.05-1.24-2.14-1.94-3.04-2.42l.71,.35,.71,.35,.46,.22c.31,.15,.61,.18,.86,.07,.35-.16,1.59-.63,2.95,.03,1.34,.66,2.58,2.33,2.92,2.83,.25,.35,.54,.61,.85,.76l1.87,.92c-1.18-.55-2-.77-2.97-.45Z" fill="#2f3541"/></g><rect x="11.81" y="11.06" width="24" height="24" transform="translate(47.61 46.13) rotate(180)" fill="none"/><path d="M23.69,24.18c-.19,.06-.4,.15-.61,.26-.08,.05-.16,.08-.24,.13-.5,.29-1.12,.28-1.75-.03-.65-.32-1.3-.96-1.84-1.83-.08-.12-.15-.22-.23-.33-.21-.31-.42-.6-.64-.86-1.05-1.24-2.14-1.94-3.04-2.42l.71,.35,.71,.35,.46,.22c.31,.15,.61,.18,.86,.07,.35-.16,1.59-.63,2.95,.03,1.34,.66,2.58,2.33,2.92,2.83,.25,.35,.54,.61,.85,.76l1.87,.92c-1.18-.55-2-.77-2.97-.45Z" fill="#fff3f8"/></svg>