<?xml version="1.0" encoding="UTF-8"?><svg id="a" xmlns="http://www.w3.org/2000/svg" viewBox="0 0 24 24"><rect x="0" y="0" width="24" height="24" fill="none"/><path d="M17,13c-.43,0-.83,.09-1.21,.22-.17-.4-.29-.81-.29-1.22s.11-.82,.29-1.22c.39,.13,.79,.22,1.21,.22,2.21,0,4-1.79,4-4s-1.79-4-4-4-4,1.79-4,4c0,.43,.09,.83,.22,1.21-.4,.17-.81,.29-1.22,.29s-.82-.11-1.22-.29c.13-.39,.22-.79,.22-1.21,0-2.21-1.79-4-4-4s-4,1.79-4,4,1.79,4,4,4c.43,0,.83-.09,1.21-.22,.17,.4,.29,.81,.29,1.22s-.11,.82-.29,1.22c-.39-.13-.79-.22-1.21-.22-2.21,0-4,1.79-4,4s1.79,4,4,4,4-1.79,4-4c0-.43-.09-.83-.22-1.21,.4-.17,.81-.29,1.22-.29s.82,.11,1.22,.29c-.13,.39-.22,.79-.22,1.21,0,2.21,1.79,4,4,4s4-1.79,4-4-1.79-4-4-4Zm-3-6c0-1.65,1.35-3,3-3s3,1.35,3,3-1.35,3-3,3c-.26,0-.5-.04-.74-.1,.3-.48,.66-.94,1-1.38l.04-.05c.69-.14,1.21-.74,1.21-1.47,0-.83-.67-1.5-1.5-1.5-.73,0-1.33,.51-1.47,1.21l-.05,.04c-.44,.34-.9,.69-1.38,1-.06-.24-.1-.48-.1-.74Zm-7,3c-1.65,0-3-1.35-3-3s1.35-3,3-3,3,1.35,3,3c0,.26-.04,.5-.1,.74-.48-.3-.94-.66-1.38-1l-.05-.04c-.14-.69-.74-1.21-1.47-1.21-.83,0-1.5,.67-1.5,1.5,0,.73,.51,1.33,1.21,1.47l.04,.05c.34,.44,.69,.9,1,1.38-.24,.06-.48,.1-.74,.1Zm3,7c0,1.65-1.35,3-3,3s-3-1.35-3-3,1.35-3,3-3c.26,0,.5,.04,.74,.1-.3,.48-.66,.94-1,1.38l-.04,.05c-.69,.14-1.21,.74-1.21,1.47,0,.83,.67,1.5,1.5,1.5,.73,0,1.33-.51,1.47-1.2l.05-.04c.44-.34,.9-.69,1.38-1,.06,.24,.1,.48,.1,.74Zm-2.1-.53l-.4,.31v.24c-.02,.27-.23,.49-.5,.49s-.5-.22-.5-.5,.21-.49,.49-.49h.24l.31-.41c.92-1.2,1.97-2.55,1.97-4.1s-1.05-2.9-1.97-4.1l-.31-.4h-.24c-.27-.01-.49-.23-.49-.5s.22-.5,.5-.5,.49,.21,.49,.49v.24l.41,.31c1.2,.92,2.55,1.97,4.1,1.97s2.9-1.04,4.1-1.97l.4-.31v-.24c.01-.27,.23-.49,.5-.49s.5,.22,.5,.5-.21,.49-.49,.49h-.24l-.31,.41c-.92,1.2-1.97,2.55-1.97,4.1s1.05,2.9,1.97,4.1l.31,.4h.24c.27,.01,.49,.23,.49,.5s-.22,.5-.5,.5-.49-.21-.49-.49v-.24l-.41-.31c-1.2-.92-2.55-1.97-4.1-1.97s-2.9,1.04-4.1,1.97Zm9.1,3.53c-1.65,0-3-1.35-3-3,0-.26,.04-.5,.1-.74,.48,.3,.94,.66,1.38,1l.05,.04c.14,.69,.74,1.2,1.47,1.2,.83,0,1.5-.67,1.5-1.5,0-.73-.51-1.33-1.21-1.47l-.04-.05c-.34-.44-.69-.9-1-1.38,.24-.06,.48-.1,.74-.1,1.65,0,3,1.35,3,3s-1.35,3-3,3Z" fill="#2f3541"/></svg>