<?xml version="1.0" encoding="UTF-8"?><svg id="a" xmlns="http://www.w3.org/2000/svg" viewBox="0 0 24 24"><rect id="c" x="0" y="0" width="24" height="24" fill="none"/><g><path d="M20,20V10h-6V5.77L4,3V20H2v1H22v-1h-2ZM10,9v3h-2v-3h2Zm-2-1v-2.85l2,.55v2.3h-2Zm2,5v3h-2v-3h2Zm1,0h2v3h-2v-3Zm2-1h-2v-3h2v3Zm0-4h-2v-2.02l2,.55v1.47ZM5,4.31l2,.55v3.13h-2v-3.69Zm0,4.69h2v3h-2v-3Zm0,4h2v3h-2v-3Zm0,7v-3h2v3h-2Zm3,0v-3h2v3h-2Zm3,0v-3h2v3h-2Zm3,0V11h5v9h-5Z" fill="#2f3541"/><rect x="15" y="12" width="1" height="1" fill="#2f3541"/><rect x="17" y="12" width="1" height="1" fill="#2f3541"/><rect x="15" y="14" width="1" height="1" fill="#2f3541"/><rect x="17" y="14" width="1" height="1" fill="#2f3541"/><rect x="15" y="16" width="1" height="1" fill="#2f3541"/><rect x="17" y="16" width="1" height="1" fill="#2f3541"/><rect x="15" y="18" width="1" height="1" fill="#2f3541"/><rect x="17" y="18" width="1" height="1" fill="#2f3541"/></g></svg>