<?xml version="1.0" encoding="UTF-8"?><svg id="a" xmlns="http://www.w3.org/2000/svg" xmlns:xlink="http://www.w3.org/1999/xlink" viewBox="0 0 48 48"><defs><linearGradient id="b" x1="28.3" y1="35.02" x2="22.04" y2="23.34" gradientTransform="matrix(1, 0, 0, 1, 0, 0)" gradientUnits="userSpaceOnUse"><stop offset="0" stop-color="#26f"/><stop offset="1" stop-color="#f49"/></linearGradient><linearGradient id="c" x1="29.33" y1="31.61" x2="25.05" y2="23.72" xlink:href="#b"/><linearGradient id="d" y1="31.02" y2="19.34" xlink:href="#b"/><linearGradient id="e" x1="29.33" y1="27.61" x2="25.05" y2="19.72" xlink:href="#b"/><linearGradient id="f" y1="27.02" y2="15.34" xlink:href="#b"/><linearGradient id="g" x1="29.33" y1="23.61" x2="25.05" y2="15.72" xlink:href="#b"/><linearGradient id="i" x1="24" y1="30.5" x2="44" y2="30.5" gradientTransform="matrix(1, 0, 0, 1, 0, 0)" gradientUnits="userSpaceOnUse"><stop offset="0" stop-color="#2f3541" stop-opacity=".4"/><stop offset="1" stop-color="#2f3541" stop-opacity="0"/></linearGradient></defs><g><polyline points="44 30.5 24 20.5 4 30.5 24 40.5 44 30.5 44 30.5" fill="#f2f6ff"/><polygon points="24 40.5 24 42.5 4 32.5 4 30.5 24 40.5" fill="#fff" opacity=".2"/><polygon points="24 40.5 24 42.5 44 32.5 44 30.5 24 40.5" fill="#2f3541"/></g><rect x="12" y="10" width="24" height="24" fill="none"/><rect x="12" y="10" width="24" height="24" fill="none"/><rect x="12" y="10" width="24" height="24" fill="none"/><rect x="0" width="48" height="48" fill="none"/><g><polyline points="34 27 24 22 14 27 24 32 34 27 34 27" fill="url(#b)" opacity=".8"/><g><polygon points="14.4 29.75 14.4 27.65 23.6 32.25 23.6 34.35 14.4 29.75" fill="#fff3f8"/><path d="M14.8,28.29l8.4,4.2v1.21l-8.4-4.2v-1.21m-.8-1.29v3l10,5v-3l-10-5h0Z" fill="#2f3541"/></g><polygon points="24 32 24 35 34 30 34 27 24 32" fill="url(#c)" opacity=".8"/></g><g><polyline points="34 23 24 18 14 23 24 28 34 23 34 23" fill="url(#d)" opacity=".8"/><g><polygon points="14.4 25.75 14.4 23.65 23.6 28.25 23.6 30.35 14.4 25.75" fill="#fff3f8"/><path d="M14.8,24.29l8.4,4.2v1.21l-8.4-4.2v-1.21m-.8-1.29v3l10,5v-3l-10-5h0Z" fill="#2f3541"/></g><polygon points="24 28 24 31 34 26 34 23 24 28" fill="url(#e)" opacity=".8"/></g><g><polyline points="34 19 24 14 14 19 24 24 34 19 34 19" fill="url(#f)" opacity=".8"/><g><polygon points="14.4 21.75 14.4 19.65 23.6 24.25 23.6 26.35 14.4 21.75" fill="#fff3f8"/><path d="M14.8,20.29l8.4,4.2v1.21l-8.4-4.2v-1.21m-.8-1.29v3l10,5v-3l-10-5h0Z" fill="#2f3541"/></g><polygon points="24 24 24 27 34 22 34 19 24 24" fill="url(#g)" opacity=".8"/></g><polygon points="34 26 34 30 24 35 29 35 29 34 30 35 35 35 35 34 35.67 34.67 44 30.5 35 26 34 26" fill="url(#i)"/></svg>