<?xml version="1.0" encoding="UTF-8"?><svg xmlns="http://www.w3.org/2000/svg" width="32" height="32" viewBox="0 0 32 32"><g id="icon"><circle cx="16" cy="16" r="16" fill="#9ec5e6"/></g><g id="text_-_keep_locked_to_avoid_add_icons_here"><g><rect id="Rectangle_10877" x="4" y="4" width="24" height="24" fill="none" opacity="0"/><g><path d="M24,24V9h-6v5.6667l-1.25-.4167-.75-5.25h-2l-.8125,4.0625-.6375-.2125-.55-3.85h-2l-.5625,2.8125-2.4375-.8125v13h-1v1H26v-1h-2ZM14.8198,10h.3129l.5567,3.8965-1.5458-.5153,.6763-3.3812Zm-4,0h.3129l.3566,2.4965-1.0958-.3653,.4263-2.1312Zm-2.8198,14V12.3874l10,3.3334v8.2792H8Zm11,0V10h4v1h-3v1h3v1h-3v1h3v1h-3v1h3v1h-3v1h3v1h-3v1h3v1h-3v1h3v2h-4Z" fill="#2f3541"/><polygon points="10 17 9 17 9 19 11 19 11 18 10 18 10 17" fill="#2f3541"/><polygon points="10 20 9 20 9 22 11 22 11 21 10 21 10 20" fill="#2f3541"/><polygon points="13 17 12 17 12 19 14 19 14 18 13 18 13 17" fill="#2f3541"/><polygon points="13 20 12 20 12 22 14 22 14 21 13 21 13 20" fill="#2f3541"/><polygon points="16 17 15 17 15 19 17 19 17 18 16 18 16 17" fill="#2f3541"/><polygon points="16 20 15 20 15 22 17 22 17 21 16 21 16 20" fill="#2f3541"/></g></g></g></svg>