<?xml version="1.0" encoding="UTF-8"?><svg id="a" xmlns="http://www.w3.org/2000/svg" viewBox="0 0 24 24"><rect y="0" width="24" height="24" fill="none"/><g><path d="M12.39,11.04c-.13-.03-.26-.04-.39-.04-1.1,0-2,.9-2,2s.9,2,2,2,2-.9,2-2c0-.17-.03-.33-.06-.48l3.01-4.52-4.56,3.04Zm-.39,2.96c-.55,0-1-.45-1-1s.45-1,1-1,1,.45,1,1-.45,1-1,1Z" fill="#2f3541"/><path d="M11.77,9.95l.85-.57c-.47-.1-.96-.09-1.39,.04-.7,.21-1.26,.7-1.57,1.28,.44-.49,1.06-.77,1.65-.79,.15,0,.31,0,.45,.03Z" fill="#2f3541"/><path d="M13.75,8.63l.81-.54c-.98-.6-2.15-.85-3.23-.69-1.24,.18-2.35,.87-3.04,1.82,.83-.85,1.97-1.32,3.08-1.32,.87,0,1.7,.27,2.38,.73Z" fill="#2f3541"/><path d="M15.51,7.46l.85-.56c-1.39-1.13-3.2-1.67-4.93-1.51-1.77,.15-3.41,1.04-4.5,2.35,1.21-1.2,2.88-1.88,4.52-1.85,1.52,0,2.98,.59,4.06,1.57Z" fill="#2f3541"/><path d="M12,3C6.48,3,2,7.48,2,13c0,2.26,.76,4.33,2.02,6h15.96c1.26-1.67,2.02-3.74,2.02-6,0-5.52-4.48-10-10-10Zm7.47,15H4.53c-.96-1.43-1.53-3.15-1.53-5,0-4.96,4.04-9,9-9s9,4.04,9,9c0,1.85-.57,3.57-1.53,5Z" fill="#2f3541"/></g></svg>