<?xml version="1.0" encoding="UTF-8"?><svg id="a" xmlns="http://www.w3.org/2000/svg" viewBox="0 0 24 24"><rect width="24" height="24" fill="none"/><g><g><path d="M18.75,4.23H5.25V14.32c0,3.52,3.02,6.42,6.75,6.42s6.75-2.87,6.75-6.42V4.23Z" fill="#fff"/><path d="M5.25,4.29V14.56c0,3.52,3.02,6.21,6.75,6.21,2.39,0,4.61-1.23,5.89-3.25L5.25,4.29Z" fill="#69a33d"/><path d="M9.42,12.39s.09-.34,.16-.35c.15,.12,.17,.35,.36,.32,.09-.15,.49-.44,.36-.7-.07-.07-.15-.14-.23-.19,0,0-.08-.02-.08-.04-.05-.08-.06-.18-.05-.27,.05-.12,.24-.11,.3-.25,.19,.06,.26,.34,.48,.19,.35,.23,.65,.52,.89,.87-.05,.05-.19-.05-.22,0s.45,.21,.51,.29c0,0,.16,.25-.02,.37-.02,.01-.31,.15-.31,.15,.08,.35-.37,.74-.52,1,0-.1,0-.21,0-.31,0-.09-.17,.42-.31,.49,.43,.3,1.65,.91,1.91,1.37,.96,.16,1.68,.98,2.57,1.36,.23-.06,.03-.32,0-.5-.53-.46-1.14-.82-1.79-1.07-.69-.22-.93-.83-1.22-1.42-.08-.15-.22-.25-.39-.27,.41-.11,1.15,.07,1.3,.21,.23,.31,.36,.68,.36,1.07,.58,.32,.58,.46,1.01,.59,.49,.22,.91,.57,1.22,1,.05,.22,.01,.45-.09,.65-.13,.11-.3,.15-.47,.1-.64-.27-1.68-.97-1.68-.97,.17,.36,.55,.8,.89,1.02,.09,.2,.4,.26,.58,.3-.05,.66-.54,1.04-.89,1.6,0,.04-.66,.28-.64,.42-.19,.11-.44-.15-.58,.16-.06-.33,.02-.32-.1-.42s-.19,0-.39,.09c0-.11,.17-.41,.17-.41,.03-.12-.22-.23-.38-.21,.12-.18,.14-.4,.42-.33s.27-.21,.26-.24l-.32-.09c.17-.06,.35-.06,.52,0,.1,.09,.21,.5,.22,.51,0,.21,.58,.03,.49-.69-.42-.49-1.04-.26-1.43-.98-.13,0-.72,.12-.68,.84-.09,.15,.42,.47,.19,.51-.93,.52-2.08,.47-2.96-.13-.17,0-.3,0-.38-.18s-.12-.18-.18-.18,.31,0,.31,0c-.2-.06-.12-.22-.21-.4-.08-.03-.17-.03-.25,0,.08-.12,.15-.11,.21-.17,.22-.07,.48,.13,.44-.24l-.2-.13c.16-.1,.21-.11,.38,0,.05,.05,.17,.16,.27,.13,.19,0,.05-.22,.03-.32,.17,0,.2,0,.3,.19,.18,.32-.22,.45-.08,.66v.05c.32,.21,.71,.28,1.08,.18,.27-.47-.45-.73-.03-1.24,.17-.35,.8-.48,1.1-.56-1.68-.54-2.01-.12-3.38-.74-.28-.24-.54-.5-.77-.78h-.42c-.44-.72-.41-1.99-.61-2.84-.33-.06-.2-1.02-.34-1.28,.22-.32,0-.59,.09-.59-.07-.04,.41,.3,.37,.18,.12-.13,.05-.47,.05-.47,0,0,.05,0,0,0s.27,.41,.27,.41c0,0,.27-.02,.26-.19,0,0,.15,.1,.21,.36,0,.07,0,.13,0,.2,.1,0,.15,.18,.24,.07l.08-.19c.03,.13,.02,.27-.03,.39-.08,.22-.29,.23-.49,.25-.06,0-.08,.1-.08,.1,.06,.67,.3,1.31,.7,1.85h0c.01-.56,.07-1.12,.18-1.67-.12-.24-.12-.52,0-.76-.15-.12,0-.46,.05-.62,0-.07,0-.08-.08-.12,0,0,.03-.06,.19,0s.15-.18,.27-.18c0-.09-.04-.18-.09-.25,.1,.05,.15,0,.25,.12s.24,.31,.36,.09c0,0,.07,.01,.13,.1,.06,.06-.09,.66,.26,.53l.07-.2c.08,.12,.13,.22,.06,.32,.09,.33-.41,.45-.68,.59-.05,.53,.05,1.21,.22,1.72,0,0,.33,.09,.48,.17Z" fill="#f2db38"/><path d="M10.71,11.78c-.09-.12,.16-.23,0-.35,.23,.07,.4,.27,.42,.5,0,0-.23,.03-.42-.16Z" fill="#171714"/><path d="M12.08,16.37c-.23-.05-.45-.14-.65-.25,.09-.04,.5-.13,.58,0l.07,.25Z" fill="#c21a24"/><path d="M15.72,16.27c-.32-.44-.75-.79-1.24-1.02-.23-.07-.33-.14-.48-.25-.11-.08-.25-.19-.5-.32,0-.38-.13-.76-.37-1.07-.16-.14-.78-.42-1.51-.15,.42,.02,.54,.2,.61,.42,.26,.53,.52,1.08,1.17,1.29,.65,.25,1.24,.6,1.77,1.06,.01,.05,.03,.11,.05,.16,.04,.09,.07,.18,.04,.24,0,.02-.03,.03-.06,.04-.35-.15-.68-.38-1-.59-.48-.32-.97-.66-1.54-.76-.2-.33-.85-.73-1.38-1.04-.19-.12-.36-.22-.48-.3,.07-.07,.13-.19,.2-.33,0,.05,.01,.28,.01,.28,0,0,.17-.25,.23-.33,.18-.23,.36-.45,.37-.77,0,0,.24-.09,.29-.14,.13-.1,.21-.48-.32-.64,.03,0,.08,0,.08-.06s-.49-.65-.94-.92c0,0-.14,.15-.28-.04-.07-.11-.23-.14-.23-.14,0,0-.04,.1-.16,.14-.06,.03-.13,.06-.16,.14-.02,.1,0,.2,.04,.28,0,.02-.1,.2-.05,.24,0,0,.04,.01,.06-.02,.02-.03,.08-.09,.12-.13,.07,.05,.14,.11,.2,.17,.08,.16-.09,.35-.23,.5l-.45-.18c-.1,.02-.18,.33-.18,.33-.13-.07-.27-.12-.41-.17l-.04-.08c-.17-.5-.23-1.02-.19-1.54,.05-.03,.11-.05,.17-.08,.26-.11,.58-.25,.52-.53,.1-.19-.12-.42-.12-.42l-.09,.26s-.08,.01-.11,0c-.07-.05-.07-.22-.07-.34,0-.11,0-.16-.02-.18-.06-.08-.28-.35-.28-.35,0,0,0,.17,.06,.28-.02,.03-.04,.05-.07,.05-.09-.01-.13-.08-.19-.15,0,0-.07-.12-.21-.14-.08,0-.21-.08-.21-.08,0,0,.15,.18,.16,.32-.05,.02-.08,.06-.1,.1-.04,.07-.08,.09-.16,.04-.11-.05-.19-.08-.29,.04l-.05,.07h.19c.1,.03,.04,.12,.03,.14-.06,.18-.15,.44-.04,.56-.11,.24-.1,.52,0,.76-.1,.51-.16,1.03-.18,1.54-.35-.51-.56-1.1-.62-1.72l.02-.04c.14,0,.27-.06,.27-.06,.18,0,.19-.02,.26-.22,0,0,.12-.33,.01-.55,0,0-.04,.27-.14,.31,0-.02-.05-.06-.14-.08,0-.05,0-.19,0-.19-.04-.16-.26-.53-.3-.55-.03-.02-.05-.01-.06,0-.03,.03-.01,.05,.04,.13,.01,.02,.06,.2-.19,.21-.04-.07-.24-.37-.24-.37,0,0-.05-.09-.11-.03-.01,.01,.05,.15,.05,.15,0,0,.08,.24-.06,.35-.03,.02-.33-.2-.33-.2,0,0-.05-.05-.07,0-.02,.04,.01,.1,.02,.15,.07,.21-.08,.49-.08,.49,0,0,.09,.23,.09,.51,.03,.36,.05,.74,.27,.8,.06,.28,.1,.61,.14,.95,.08,.69,.18,1.45,.48,1.93,0,0,.37-.04,.41-.04,.23,.28,.49,.55,.78,.78,.46,.27,1.15,.36,1.83,.44,.51,.06,1.03,.13,1.46,.27-1.34,.23-1.19,1.02-1.05,1.25,.08,.16,.17,.32,.06,.51-.35,.08-.71,.02-1.01-.17v-.05c-.05-.07-.02-.12,.03-.22,.07-.11,.15-.24,.04-.43-.1-.27-.38-.21-.38-.21,0,0,0,.08,.04,.13,.02,.05,.06,.14,.04,.17-.11,.08-.31-.11-.31-.11-.25-.21-.47,.03-.47,.03l.24,.16c0,.08,0,.13-.02,.15-.03,.03-.09,.02-.16,.02-.07,0-.24,.02-.24,.02,0,0-.27,.12-.28,.28,0,0,.19-.08,.32-.04,.02,.05,.03,.1,.04,.15,.01,.06,.02,.12,.06,.17h-.18v.08h.02s.06,0,.13,.15c.1,.2,.23,.2,.41,.2,.9,.61,2.04,.66,2.99,.13,.17-.08,.04-.2-.04-.29-.07-.08-.13-.17-.13-.24,.04-.15-.03-.71,.62-.82,.23,.41,.53,.51,.82,.62,.22,.08,.42,.15,.59,.34,.05,.44-.16,.62-.22,.67-.08,.05-.14,.06-.17,.04,0,0-.14-.3-.15-.36,0-.17-.11-.22-.11-.22-.37-.12-.66,.04-.66,.04l.42,.12s0,.17-.16,.17c-.4-.1-.57,.42-.57,.42h.09c.1-.03,.25,.02,.32,.09,.03,.04,.01,.08,.01,.08-.23,.23-.15,.41-.15,.45,.11-.03,.27-.19,.38-.12,.02,.02,.05,.03,.07,.03-.03,.07,.04,.49,.04,.49,0,0,.11-.33,.36-.25,.19,.07,.29-.03,.29-.03v-.03c-.02-.07,.31-.22,.43-.28,.14-.07,.17-.09,.19-.12,.1-.16,.21-.31,.32-.45,.62-.75,.56-1.14,.57-1.2-.4-.02-.6-.3-.6-.3-.33-.21-.59-.5-.77-.86,.47,.35,.99,.65,1.53,.88,.18,.06,.38,0,.5-.11,.22-.34,.1-.7,.1-.7Zm-4.17,1.38c-.04,.09,.06,.21,.15,.32,.14,.11,.06,.17,.06,.17-.93,.52-2.05,.46-2.93-.14,0,0-.28,.05-.36-.16-.03-.05-.05-.09-.07-.12h.41l-.24-.08c-.11-.03-.12-.09-.13-.19-.02-.17-.06-.2-.06-.2,0,0-.1-.05-.2-.02,.01,0,.1-.07,.15-.08,.06-.02,.13-.01,.19,0,.08,0,.17,.02,.22-.04,.04-.04,.06-.14,.04-.25l-.17-.11c.11-.06,.15-.05,.28,.03,0,0,.12,.15,.31,.14,.05,0,.09-.02,.11-.05,.07-.09-.03-.26-.04-.27,.11,0,.13,.02,.21,.17,.09,.15,.03,.25-.04,.35-.05,.09-.11,.18-.04,.29l.02,.07c.43,.36,1.13,.18,1.13,.18,0,0,.21-.2-.04-.62-.36-.77,.63-1.13,1.14-1.17,.11,.08,.2,.11,.2,.11,.12,.24,.26,.57,.36,.83-.2,.02-.67,.14-.66,.84Zm4.01-.73c-.12,.1-.28,.13-.42,.09-1.15-.52-2.05-1.29-2.05-1.29l.42,.51c.18,.37,.45,.68,.79,.89,.16,.23,.4,.27,.57,.3-.04,.43-.29,.75-.54,1.09-.11,.15-.33,.46-.33,.46-.07,.03-.63,.27-.64,.42-.06,.02-.12,.01-.19,0-.11-.02-.23-.04-.33,.08-.02-.13-.03-.2,.02-.25,.04-.03,.27-.16,.27-.16,0,0-.01-.03-.06-.04-.05,0-.21,.1-.25,.13-.03,0-.06,0-.09-.01-.14-.13-.34,.04-.36,.05,.03-.1,.1-.25,.16-.29,.18-.11,.49-.15,.49-.15l-.27-.09-.22,.13s-.11-.21-.34-.19c.13-.29,.41-.25,.41-.25,.33,.01,.23-.31,.23-.31l-.19-.05c.11-.02,.23,0,.34,.03,.04,.04,.05,.1,.07,.17,.01,.07,.16,.4,.19,.42,.07,.03,.16,.01,.25-.05,.38-.26,.25-.77,.25-.77,0,0-.18-.28-.64-.39-.29-.1-.57-.2-.79-.6,0,0-.39-1.01-.56-1.18,0,0-.03-.03-.07,0-.02,.02-.04,.04,.11,.25-.03-.02-.09-.06-.09-.06-.46-.19-1.08-.26-1.65-.33-.66-.08-1.35-.17-1.79-.43-.26-.22-.55-.56-.77-.82l-.42,.03c-.28-.47-.36-1.16-.44-1.83-.06-.6-.16-1.01-.16-1.01-.06-.04-.24-.03-.25-.74-.01-.2-.03-.39-.08-.5,.14-.21,.07-.52,.07-.52,.09,.07,.28,.22,.36,.17s.12-.21,.13-.3c.1,.12,.18,.37,.23,.37,.02,0,.03-.08,0-.18,.07-.03,.22-.05,.22-.17,.06,.1,.14,.22,.16,.33-.02,.13,0,.24,0,.24,0,0,.16,.03,.22,.1,.07,0,.11-.1,.11-.1,0,.07-.02,.15-.05,.22v.02q-.07,.16-.2,.17s-.23,.08-.33,.05l-.04,.13c.03,1.16,.78,1.97,.78,1.97,.04-1.15,.12-1.26,.18-1.79-.18-.35,.01-.78,.01-.78-.15-.07-.04-.35,.01-.5,0-.03,.08-.14-.03-.22,.06,.03,.08,.04,.11,.05,.11,.05,.17-.04,.21-.1,.06-.11,.12-.07,.12-.07,0,0,.02-.12-.05-.23,.12,.02,.16,.11,.16,.11,.05,.08,.12,.18,.26,.18,.05,0,.1-.04,.14-.11,.02,.03,.05,.07,.07,.1,0,.01,0,.08,0,.13,0,.15,0,.33,.1,.4,.05,.04,.12,.04,.2,.01l.07-.15c.05,.08,.05,.18,.01,.22,.09,.26-.18,.35-.68,.57,0,0-.13,.89,.24,1.76l.64,.27s-.07-.16-.09-.2c.01-.05,.07-.18,.1-.22l.5,.16c.15-.16,.36-.39,.25-.61,0,0-.25-.22-.27-.23l-.04,.04s0-.03,0-.04c-.04-.07-.06-.16-.04-.23,.02-.05,.07-.07,.12-.09,.06-.03,.12-.06,.16-.12,.05,.02,.09,.06,.13,.1,.08,.08,.18,.17,.33,.08,.32,.21,.6,.48,.82,.79-.36-.02-.12,.11,.04,.17,.45,.14,.36,.42,.27,.49-.01,.01-.18,.08-.33,.15,.07,.28-.39,.84-.44,.9,0-.06,0-.21-.03-.24s-.05,.01-.11,.14c-.07,.22-.28,.4-.28,.4,0,0,.37,.24,.58,.37,1.11,.68,1.37,1.04,1.37,1.04,0,0,.59,.12,1.55,.75,.41,.36,1.06,.61,1.06,.61,.06-.02,.1-.05,.12-.09,.04-.08,0-.19-.04-.3-.02-.06-.05-.17-.05-.17,0,0-.76-.75-1.82-1.09-.62-.19-.86-.71-1.13-1.25-.02-.05-.1-.32-.34-.4,.17-.02,.35,0,.5,.07,.16,.13,.23,.16,.24,.15,.01-.01-.02-.09-.06-.14,0,0,.25,0,.42,.16,.31,.4,.35,1.07,.35,1.07,0,0,.4,.22,.53,.34,.14,.12,.26,.19,.5,.26,.48,.22,.89,.56,1.2,.98,.04,.21,.01,.42-.09,.61Z" fill="#171714"/><path d="M14.9,8.56c.74,.52,1.36,1.19,1.81,1.97,.49,.25,.51,1.1,1.17,1.07,.23-.08,.09-.3,.06-.49-.43-1.03-1.17-1.91-1.47-3.05-.16-.71,.31-1.25,.68-1.76,.14-.25,.04-.33-.12-.59,.26,.11,.46,.33,.54,.61,.15-.03,.32,.35,.3,.59-.13,.46-.49,.83-.96,.96-.15,.49,.09,.77,.26,1.17,.43,.68,.79,1.41,1.09,2.16,.05,.22,.11,.86-.56,.77-.25-.09-.51-.36-.51-.36,.2,.44,.05,.54,.24,1.01,.11,.18,.29,.29,.5,.3,.04,.67-.08,1.34-.35,1.95-.09,.27-.54,.16-.48,.5-.19,.12-.44-.13-.58,.19-.06-.33-.19-.75-.53-.67,.03-.09,.07-.18,.12-.26,.04-.13-.23-.22-.38-.19,.12-.16,.32-.24,.52-.19,0,0,.04-.28,.02-.46,0,0,.29,.06,.39,.1s.09,.32,.19,.41h0c.23-.24,.29-.6,.14-.9-.43-.53-1.32-.77-1.2-1.61-.18,.01-.35,.11-.45,.26-.08,.2-.12,.42-.12,.63-.27,0-.53-.03-.78-.12-.58-.28-1.22-.36-1.64-.97-.17-.04-.29-.06-.34-.23,.02-.09-.04-.18-.04-.18l.2-.02s-.08-.24-.13-.42c-.08-.04-.17-.05-.25-.04,.28-.29,.69,.06,.72-.32l-.18-.12c.29-.11,.55,.36,.65,.34,.19,0,.09-.21,.09-.31,.17,0,.19,.05,.26,.23,.12,.33-.3,.51-.2,.71s.5,.42,.82,.35c.16-.14,.07-.43,.17-.62,.17-.35,.53-.29,.83-.27,0,0-.26-.55-2.95-.82-.45-.28-.69-.34-.59-.26-.82-.47-1.57-1.1-2.18-1.83-.34-.06-.53-.46-.8-.59,0-.26-.25-.32-.25-.32,0,0,.32-.02,.36-.17,.07-.25-.22-.42-.22-.42,0,0,.05,0,0,0s.28-.04,.51-.08c.05-.1,.16-.18,.1-.3,0,0,.2,0,.38,.17,.04,.05,.06,.12,.12,.16,.09-.05,.34,0,.36-.16l-.03-.19c.1,.09,.16,.21,.17,.34-.04,.31-.46,.62-.46,.62,.15,.54,.94,.74,1.64,1.05h0c-.1-.46-.23-.91-.41-1.34-.1-.42-.08-.86,.04-1.27,0-.07-.08-.16-.08-.16,0,0,.05-.03,.2,.04,.15,.07,.23-.11,.36-.12-.01-.09-.04-.18-.09-.25,.1,.04,.15,0,.25,.11s.31,.3,.44,.07c0,0,.07-.15,.19,.09,.06,.06-.22,.68,.13,.54l.16-.14c-.07,.54-.55,.46-.82,.52-.14,.38,.22,.87,.45,1.14l.55-.08v-.12c.24-.02,.49,.02,.73,.1l.03-.32,.5,.25s.45-.48,.28-.82c-.07-.07-.15-.13-.23-.18l-.07,.05s-.08-.25-.07-.34c.05-.13,.31-.12,.38-.26,.19,.05,.33,.42,.58,.25,.35,.21,.66,.48,.9,.81-.34,.03,.19,.22,.25,.3h0c.06,.09,.29,.25-.12,.47l-.31,.04c-.18,.79-.54,1.11-.54,1.11l-.13-.25-.23,.4Z" fill="#f2db38"/><path d="M15.32,6.45c-.14,0-.29-.03-.4-.12-.09-.12,.16-.24,0-.35,.23,.06,.39,.25,.43,.49" fill="#171714"/><path d="M15.73,11.33c-.23-.1-.45-.23-.65-.39,.1,0,.62,0,.64,.14v.25Z" fill="#c21a24"/><path d="M18.31,11.19c-.3-.75-.66-1.48-1.09-2.16-.04-.08-.37-.76-.27-1.12,.46-.14,.83-.51,.96-.99,.08-.49-.3-.67-.3-.67-.09-.25-.24-.45-.68-.62,.32,.42,.28,.53,.08,.78-.35,.46-.74,.99-.59,1.66,.18,.69,.52,1.29,.85,1.87,.22,.38,.45,.78,.61,1.18,.07,.2,.11,.43-.06,.44-.33,0-.49-.26-.65-.53-.12-.21-.25-.42-.45-.53-.44-.76-1.06-1.43-1.77-1.94,.1-.1,.16-.31,.16-.33,0,.03,.09,.2,.09,.35,.16-.26,.43-.49,.62-1.25,0,0,.5,0,.54-.3,.02-.1-.09-.36-.49-.49,.15,0,.12-.08,.12-.08-.27-.49-.93-.84-.93-.84,0,0-.18,.12-.36-.09-.07-.06-.2-.17-.25-.16s-.11,.12-.19,.15c-.08,.03-.17,.07-.21,.16-.02,.1,0,.2,.05,.29,0,.02-.07,.2-.01,.22,.03,0,.12-.11,.15-.15,.07,.05,.13,.1,.19,.15,.15,.25-.22,.68-.22,.68l-.46-.25c-.1,.02-.19,.23-.17,.36-.25-.07-.6-.14-.78-.08,.05,.06,.07,.12,.06,.12-.16,0-.32,.02-.47,.07h0c-.37-.44-.52-.8-.44-1.06,.56-.05,.75-.07,.83-.65,0,0-.22,.26-.33,.21-.05-.04-.01-.21,0-.32,.03-.12,.04-.18,0-.22-.04-.08-.24-.35-.24-.35,0,0,.05,.32-.12,.35-.11,0-.23-.12-.27-.17-.1-.15-.38-.17-.38-.17,0,0,.14,.14,.15,.3-.04,.01-.2,.18-.33,.09-.19-.17-.36,.09-.36,.09,0,0,.21-.07,.22,.07-.13,.42-.14,.86-.04,1.29,.16,.41,.29,.83,.39,1.26-.13-.06-1.57-.54-1.52-.98,.04-.1,.43-.32,.43-.62-.01-.14-.13-.37-.27-.44l.04,.29c-.01,.07-.1,.08-.31,.11-.02-.02-.08-.12-.09-.14-.39-.29-.59-.24-.59-.24l.12,.08s.11,.12,0,.19c-.03,.03-.07,.06-.08,.12-.15-.03-.42-.01-.6,.1,.34,.04,.3,.42,.3,.42-.05,.06-.46,.1-.45,.16,.36,.09,.33,.33,.33,.33,0,0,.22,.11,.32,.26,.14,.15,.29,.3,.5,.34,.61,.73,1.34,1.34,2.16,1.81l.2,.03c.12,.11,.26,.19,.43,.24,.27,.05,.54,.08,.8,.12,.74,.09,1.45,.18,2.04,.61-.27-.02-.6-.03-.76,.3-.07,.19-.03,.46-.16,.6-.29,.07-.67-.14-.76-.36-.02-.08,0-.15,.08-.24,.09-.1,.19-.23,.12-.44-.07-.33-.33-.26-.33-.26,.03,.15,.06,.29-.06,.31-.1,.02-.2-.16-.2-.16-.14-.17-.27-.28-.5-.16l.2,.16c0,.08-.03,.2-.22,.14-.07-.02-.15-.03-.22-.02,0,0-.33,.11-.36,.25,.14,.02,.22-.06,.34,0,0,.05-.03,.23,.05,.35,0,0-.18-.02-.2,0-.03,.02,0,.06,0,.06,0,0,.12,.1,.11,.17,0,0,.07,.27,.36,.27,.32,.46,.76,.62,1.19,.79,.73,.39,1.29,.31,1.29,.31,0,0-.03-.92,.49-.89-.05,.56,.34,.85,.71,1.14,.18,.14,.37,.28,.5,.44,.13,.27,.09,.59-.1,.82-.02-.04-.07-.32-.17-.38-.11-.05-.5-.28-.69,.05,.18-.08,.24-.04,.24-.04,.03,.04-.03,.3-.03,.34-.37-.11-.57,.3-.57,.3,0,0,.34-.08,.44,.1-.1,.09-.15,.36-.15,.36,0,0,.19-.13,.36,.1,.19,.19,.22,.63,.22,.63,0,0,.13-.33,.36-.27,.2,.05,.29-.05,.29-.05,0,0-.04-.23,.2-.28,.11-.04,.23-.09,.28-.23,.49-1,.35-2,.35-2,0,0-.34,0-.5-.28-.09-.22-.1-.36-.11-.49,0-.1-.02-.21-.06-.36,.11,.11,.25,.2,.4,.25,.35,.1,.51-.14,.51-.14,.11-.21,.15-.45,.09-.69Zm-3.01,.87c-.08,.19-.12,.4-.12,.61-.45,.05-1.03-.25-1.18-.3-.44-.17-.9-.36-1.17-.79-.18-.01-.28-.06-.33-.2,0-.06,0-.11-.04-.16h.27s-.18-.03-.2-.49c-.03-.05-.11-.05-.16-.05,.02,0,.07-.05,.13-.06,.06,0,.3,.11,.41,.01,.05-.04,.09-.25,.09-.25l-.13-.09c.22-.05,.33,.38,.53,.37,.07,0,.24-.04,.16-.31,.1-.03,.12,.05,.17,.21,.06,.16-.02,.26-.11,.36-.07,.09-.14,.18-.1,.3,.21,.46,.69,.48,.88,.42,.3-.25-.12-1.05,.97-.88,0,0,.29,.24,.32,.25,.03,.25,.04,.52,.04,.77-.11,.01-.3,.04-.44,.29Zm2.85-.22c-.11,.1-.27,.14-.42,.11-.24-.09-.44-.27-.56-.52-.03-.04-.05-.02-.06-.02-.04,.02-.03,.04,.07,.23,.1,.22,.11,.35,.12,.49,0,.14,.02,.28,.12,.52,.11,.18,.29,.3,.5,.32,.03,.65-.09,1.3-.35,1.9-.03,.1-.13,.14-.23,.18-.13,.05-.27,.11-.26,.31-.06,.03-.3-.09-.52,.1,0-.05-.08-.57-.49-.61,.02-.07,.05-.13,.09-.19,.01-.05,0-.09-.04-.13-.06-.06-.18-.11-.29-.11,.09-.2,.46-.09,.46-.09-.05-.04,.06-.31,.02-.48,.11,.02,.23,.06,.33,.1,.09,.07,.11,.37,.2,.43,.17-.11,.38-.58,.17-.98-.14-.18-.32-.34-.51-.46-.7-.43-.7-.9-.69-1.08,0-.17-.05-1.12-.12-1.25-.01-.03-.02-.04-.05-.03-.02,0-.03,.03-.02,.05,.04,.09,.05,.25,.06,.29-.02-.01-.13-.11-.13-.11-.66-.62-1.5-.73-2.31-.83-.26-.03-.53-.07-.79-.12-.12-.04-.23-.1-.33-.17,.06-.01,.44-.02,.44-.02,0,0-.45-.14-.72-.08-.35-.22-1.46-.99-2.15-1.81-.4-.14-.46-.45-.78-.58,0-.13-.07-.23-.22-.28,.25-.06,.32-.1,.33-.15,0-.02-.01-.34-.15-.44,.12-.03,.31-.05,.37,0,.07,.06,.13,.09,.16,.06,.02-.03-.09-.15-.09-.15-.01-.05,.17-.1,.09-.27,.11,.04,.24,.1,.31,.17,.01,.02,.09,.16,.13,.17,.29-.05,.43-.03,.41-.26,.13,.14,.04,.42-.08,.52-.08,.07-.32,.29-.32,.29,.09,.47,.67,.71,1.21,.92,.15,.06,.53,.22,.53,.22,0,0-.19-.94-.42-1.42-.1-.41-.08-.84,.04-1.25,0,0,.04-.09-.09-.16,.39,.22,.43-.09,.57-.05-.02-.14-.03-.17-.06-.23h0s.08,.01,.14,.08c.33,.36,.48,.16,.54,.02,.03,.04,.06,.09,.08,.13,0,.05-.14,.48,0,.55,.1,.07,.26-.06,.26-.06-.09,.28-.21,.3-.77,.36-.19,.45,.37,1.09,.46,1.21,.29-.07,.63-.08,.63-.08,.02-.05,.01-.1-.02-.12,.21,0,.64,.04,.76,.16,.07-.02-.16-.08,.04-.43l.51,.22c.08-.08,.4-.52,.23-.78-.04-.08-.27-.22-.27-.22,0,0-.03,.04-.04,.05,.02-.12-.1-.11-.05-.28,.02-.05,.09-.08,.16-.1s.15-.06,.2-.13c.05,.02,.1,.07,.15,.12,.11,.1,.24,.22,.41,.13,.33,.19,.6,.44,.83,.75-.02,0-.19-.04-.2,.02,0,.13,.59,.23,.59,.54-.02,.25-.53,.25-.53,.25,0,0-.1,.62-.5,1.11-.06-.22-.14-.29-.16-.29,0,0-.16,.44-.25,.47,1.16,.79,1.84,2.01,1.84,2.01,.19,.1,.31,.31,.43,.5,.17,.28,.34,.57,.72,.57,.26-.02,.21-.28,.13-.54-.17-.42-.4-.81-.62-1.2-.33-.57-.67-1.17-.85-1.85-.14-.63,.22-1.12,.57-1.59,.31-.29,.17-.47,.06-.64,.18,.11,.32,.3,.38,.51-.04,.16,.03,.26,.12,.04,.13,.14,.2,.34,.19,.53-.24,.72-.77,.88-.95,.93-.16,.42,.16,.97,.26,1.23,.43,.68,.79,1.4,1.08,2.14,.04,.21,.01,.43-.09,.62Z" fill="#171714"/><path d="M10.06,12.29c-.54-.87-.76-.89-.45-1.45-.15-.05-.31,0-.41,.13-.13,.49,.58,1.44,.67,1.45s.19-.13,.19-.13Z" fill="#c21a24"/><path d="M9.86,12.46c-.07-.01-.28-.3-.39-.48-.15-.25-.39-.71-.31-1.02,0,0,.18-.3,.5-.14-.02,.15-.36,.43,.11,.97,.09,.13,.33,.5,.33,.5,0,0-.11,.19-.25,.17Zm-.63-1.48c-.11,.45,.55,1.35,.65,1.4,0,0,.07,0,.13-.1-.12-.19-.22-.34-.3-.46-.29-.41-.38-.55-.16-.96-.02,0-.18-.04-.31,.12Z" fill="#171714"/><path d="M14.27,6.92c-.23-.42-.92-.88-.78-1.43-.09,0-.17,.03-.23,.08-.16,.59,.63,1.36,.82,1.41s.2-.06,.2-.06" fill="#c21a24"/><path d="M14.06,7.01c-.13-.03-.48-.34-.69-.71-.16-.28-.23-.62-.15-.76,.04-.07,.28-.15,.32-.1-.12,.33,.17,.72,.44,1.02,.13,.15,.25,.29,.33,.43,0,0,.03,.2-.24,.12Zm-.77-1.42c-.06,.24,.05,.5,.15,.68,.2,.35,.54,.64,.64,.67,.08,.02,.12,0,.13,0,0,0,.01,0,.01-.01-.07-.13-.19-.26-.31-.4-.25-.29-.54-.62-.48-.99-.05,0-.1,.03-.15,.06Z" fill="#171714"/></g><path d="M11.99,21c-1.95,0-3.89-.78-5.19-2.1-1.18-1.19-1.81-2.77-1.8-4.56V4h14V14.34c0,4.54-4.18,6.66-7.01,6.66ZM5.42,4.42V14.34c0,1.68,.58,3.15,1.68,4.26,1.22,1.24,3.05,1.98,4.89,1.98,2.66,0,6.59-1.98,6.59-6.24V4.42H5.42Z" fill="#171714"/></g></svg>