<?xml version="1.0" encoding="UTF-8"?><svg id="a" xmlns="http://www.w3.org/2000/svg" viewBox="0 0 24 24"><rect width="24" height="24" fill="none"/><g><path d="M3,4V20H21V4H3Zm17,1v5h-5.5l-4,3h-.5V5h10ZM4,19V5h5V13H4v1h7l4-3h5v8H4Z" fill="#2f3541"/><rect x="6" y="16" width="3" height="1" fill="#2f3541"/><polygon points="11 17 14 17 14 14 11 16 11 17" fill="#2f3541"/><rect x="16" y="13" width="2" height="4" fill="#2f3541"/><rect x="15" y="7" width="4" height="1" fill="#2f3541"/><polygon points="13 7 12 7 12 10 13 9.25 13 7" fill="#2f3541"/><rect x="6" y="7" width="1" height="4" fill="#2f3541"/></g></svg>