<?xml version="1.0" encoding="UTF-8"?><svg id="a" xmlns="http://www.w3.org/2000/svg" viewBox="0 0 18 18"><rect id="c" width="18" height="18" fill="none"/><path d="M15.97,12.5c-.06-1.5-.22-2.99-.46-4.46l-.16-.95c-.11-.67-.36-1.3-.72-1.85s-.83-1.04-1.4-1.42c-.2-.13-.41-.25-.63-.35-.43-.2-.9-.34-1.37-.41-.24-.04-.48-.05-.72-.05H2V14h6c0,1.1,.9,2,2,2s2-.9,2-2h4c0-.5-.01-1-.03-1.5Zm-7.97-4.5H4v-3h4v3Zm2,3V5h.52c.57,0,1.13,.17,1.61,.49,.66,.44,1.12,1.15,1.25,1.94l.1,.58h-1.47v2h1.75c.04,.33,.07,.67,.1,1h-3.86Z" fill="#2f3541"/></svg>