<?xml version="1.0" encoding="UTF-8"?><svg xmlns="http://www.w3.org/2000/svg" viewBox="0 0 24 24"><g id="a"><path d="m24,24H0V0h24v24Zm-3-17v11h1V6c-.55,0-1,.45-1,1ZM2,6v12h1V7c0-.55-.45-1-1-1Zm17,2v10H5v-10c0-1.1.9-2,2-2h10c1.1,0,2,.9,2,2Zm-1,0c0-.55-.45-1-1-1H7c-.55,0-1,.45-1,1v9h12v-9ZM24,0H0v24h24V0Z" fill="#fff"/></g><g id="d"><text transform="translate(9101.84 9866.52)" fill="#fff" font-family="Eina03-Regular, Eina03" font-size="4"><tspan x="0" y="0" letter-spacing="-.01em">triangle_d</tspan><tspan x="18.33" y="0" letter-spacing="-.03em">o</tspan><tspan x="20.68" y="0" letter-spacing="-.02em">wn</tspan></text><text transform="translate(9302.45 9865.26)" fill="#fff" font-family="Eina03-Regular, Eina03" font-size="4"><tspan x="0" y="0">ar</tspan><tspan x="3.96" y="0" letter-spacing="-.02em">r</tspan><tspan x="5.27" y="0" letter-spacing="-.02em">o</tspan><tspan x="7.68" y="0" letter-spacing="0em">w</tspan><tspan x="10.97" y="0">s_</tspan><tspan x="14.99" y="0" letter-spacing="0em">s</tspan><tspan x="16.99" y="0">wi</tspan><tspan x="21.28" y="0" letter-spacing="-.01em">t</tspan><tspan x="22.4" y="0">ch</tspan></text><text transform="translate(9351.76 9865.26)" fill="#fff" font-family="Eina03-Regular, Eina03" font-size="4"><tspan x="0" y="0">ar</tspan><tspan x="3.96" y="0" letter-spacing="-.02em">r</tspan><tspan x="5.27" y="0" letter-spacing="-.02em">o</tspan><tspan x="7.68" y="0" letter-spacing="0em">w</tspan><tspan x="10.97" y="0">s_upda</tspan><tspan x="24.99" y="0" letter-spacing="-.01em">t</tspan><tspan x="26.11" y="0">e</tspan></text><text transform="translate(8654.21 9814)" fill="#fff" font-family="Eina03-Regular, Eina03" font-size="4"><tspan x="0" y="0">lines_menu</tspan></text><text transform="translate(8709.27 9864)" fill="#fff" font-family="Eina03-Regular, Eina03" font-size="4"><tspan x="0" y="0">minus</tspan></text><text transform="translate(8763.92 9864)" fill="#fff" font-family="Eina03-Regular, Eina03" font-size="4"><tspan x="0" y="0">x</tspan></text><text transform="translate(8804.27 9864)" fill="#fff" font-family="Eina03-Regular, Eina03" font-size="4"><tspan x="0" y="0">ar</tspan><tspan x="3.96" y="0" letter-spacing="-.02em">r</tspan><tspan x="5.27" y="0" letter-spacing="-.02em">o</tspan><tspan x="7.68" y="0">w_right</tspan></text><text transform="translate(8796.33 9815)" fill="#fff" font-family="Eina03-Regular, Eina03" font-size="4"><tspan x="0" y="0">shaded_ar</tspan><tspan x="20.39" y="0" letter-spacing="-.02em">r</tspan><tspan x="21.71" y="0" letter-spacing="-.02em">o</tspan><tspan x="24.11" y="0">w_cu</tspan><tspan x="34.07" y="0" letter-spacing="0em">r</tspan><tspan x="35.46" y="0">sor</tspan></text><text transform="translate(9061.67 9864)" fill="#fff" font-family="Eina03-Regular, Eina03" font-size="4"><tspan x="0" y="0">tick</tspan></text><text transform="translate(8998.9 9864)" fill="#fff" font-family="Eina03-Regular, Eina03" font-size="4"><tspan x="0" y="0">ar</tspan><tspan x="3.96" y="0" letter-spacing="-.02em">r</tspan><tspan x="5.27" y="0" letter-spacing="-.02em">o</tspan><tspan x="7.68" y="0">w_d</tspan><tspan x="15.54" y="0" letter-spacing="-.02em">o</tspan><tspan x="17.94" y="0">wnload</tspan></text><text transform="translate(8951.78 9864)" fill="#fff" font-family="Eina03-Regular, Eina03" font-size="4"><tspan x="0" y="0">ar</tspan><tspan x="3.96" y="0" letter-spacing="-.02em">r</tspan><tspan x="5.27" y="0" letter-spacing="-.02em">o</tspan><tspan x="7.68" y="0">w_upload</tspan></text><text transform="translate(8744.1 9815)" fill="#fff" font-family="Eina03-Regular, Eina03" font-size="4"><tspan x="0" y="0">dots_hori</tspan><tspan x="17.45" y="0" letter-spacing="-.02em">z</tspan><tspan x="19.46" y="0">on</tspan><tspan x="24.32" y="0" letter-spacing="-.01em">t</tspan><tspan x="25.44" y="0">al_menu</tspan></text><text transform="translate(9150.28 9864)" fill="#fff" font-family="Eina03-Regular, Eina03" font-size="4"><tspan x="0" y="0">ar</tspan><tspan x="3.96" y="0" letter-spacing="-.02em">r</tspan><tspan x="5.27" y="0" letter-spacing="-.02em">o</tspan><tspan x="7.68" y="0" letter-spacing="0em">w</tspan><tspan x="10.97" y="0">s_</tspan><tspan x="14.99" y="0" letter-spacing="-.03em">e</tspan><tspan x="17.24" y="0">xpand</tspan></text><text transform="translate(9196.41 9814)" fill="#fff" font-family="Eina03-Regular, Eina03" font-size="4"><tspan x="0" y="0">shaded_ar</tspan><tspan x="20.39" y="0" letter-spacing="-.02em">r</tspan><tspan x="21.71" y="0" letter-spacing="-.02em">o</tspan><tspan x="24.12" y="0">w_left</tspan></text><text transform="translate(9143.96 9814)" fill="#fff" font-family="Eina03-Regular, Eina03" font-size="4"><tspan x="0" y="0">shaded_ar</tspan><tspan x="20.39" y="0" letter-spacing="-.02em">r</tspan><tspan x="21.71" y="0" letter-spacing="-.02em">o</tspan><tspan x="24.11" y="0">w_d</tspan><tspan x="31.98" y="0" letter-spacing="-.02em">o</tspan><tspan x="34.38" y="0">wn</tspan></text><text transform="translate(9095.05 9814)" fill="#fff" font-family="Eina03-Regular, Eina03" font-size="4"><tspan x="0" y="0">shaded_ar</tspan><tspan x="20.39" y="0" letter-spacing="-.02em">r</tspan><tspan x="21.71" y="0" letter-spacing="-.02em">o</tspan><tspan x="24.12" y="0">w_right</tspan></text><text transform="translate(9046.84 9814)" fill="#fff" font-family="Eina03-Regular, Eina03" font-size="4"><tspan x="0" y="0">shaded_ar</tspan><tspan x="20.39" y="0" letter-spacing="-.02em">r</tspan><tspan x="21.71" y="0" letter-spacing="-.02em">o</tspan><tspan x="24.12" y="0">w_up</tspan></text><text transform="translate(8848.74 9864)" fill="#fff" font-family="Eina03-Regular, Eina03" font-size="4"><tspan x="0" y="0">ar</tspan><tspan x="3.96" y="0" letter-spacing="-.02em">r</tspan><tspan x="5.27" y="0" letter-spacing="-.02em">o</tspan><tspan x="7.68" y="0">w_d</tspan><tspan x="15.54" y="0" letter-spacing="-.02em">r</tspan><tspan x="16.86" y="0">opd</tspan><tspan x="24.43" y="0" letter-spacing="-.02em">o</tspan><tspan x="26.83" y="0">wn</tspan></text><text transform="translate(8661.05 9864)" fill="#fff" font-family="Eina03-Regular, Eina03" font-size="4"><tspan x="0" y="0">plus</tspan></text><text transform="translate(8901.91 9865.26)" fill="#fff" font-family="Eina03-Regular, Eina03" font-size="4"><tspan x="0" y="0">questionmark</tspan></text><text transform="translate(8621.06 9793)" fill="#fff" font-family="Eina03-Bold, Eina03" font-size="12" font-weight="700"><tspan x="0" y="0">2D</tspan></text><text transform="translate(8697.05 9814.14)" fill="#fff" font-family="Eina03-Regular, Eina03" font-size="4"><tspan x="0" y="0">dots_</tspan><tspan x="10.2" y="0" letter-spacing="-.02em">v</tspan><tspan x="12.24" y="0">erti</tspan><tspan x="18.17" y="0" letter-spacing="0em">c</tspan><tspan x="20.45" y="0">al_menu</tspan></text><text transform="translate(9205.61 9864.09)" fill="#fff" font-family="Eina03-Regular, Eina03" font-size="4"><tspan x="0" y="0">ar</tspan><tspan x="3.96" y="0" letter-spacing="-.02em">r</tspan><tspan x="5.27" y="0" letter-spacing="-.02em">o</tspan><tspan x="7.68" y="0">w_up</tspan></text><text transform="translate(9252.73 9864.09)" fill="#fff" font-family="Eina03-Regular, Eina03" font-size="4"><tspan x="0" y="0">ar</tspan><tspan x="3.96" y="0" letter-spacing="-.02em">r</tspan><tspan x="5.27" y="0" letter-spacing="-.02em">o</tspan><tspan x="7.68" y="0">w_d</tspan><tspan x="15.54" y="0" letter-spacing="-.02em">o</tspan><tspan x="17.94" y="0">wn</tspan></text><text transform="translate(8997.28 9815)" fill="#fff" font-family="Eina03-Regular, Eina03" font-size="4"><tspan x="0" y="0">shaded_c</tspan><tspan x="18.75" y="0" letter-spacing="-.02em">r</tspan><tspan x="20.06" y="0">o</tspan><tspan x="22.53" y="0" letter-spacing="-.01em">s</tspan><tspan x="24.5" y="0">s_cu</tspan><tspan x="33.17" y="0" letter-spacing="0em">r</tspan><tspan x="34.55" y="0">sor</tspan></text></g><g id="e"><text transform="translate(8464 9707.5)" fill="#e0b4e1" font-family="Eina03-Regular, Eina03" font-size="4"><tspan x="0" y="0">I’</tspan><tspan x="1.96" y="0" letter-spacing="-.02em">v</tspan><tspan x="4" y="0">e a</tspan><tspan x="9.97" y="0" letter-spacing="-.01em">d</tspan><tspan x="12.48" y="0">ded </tspan><tspan x="20.99" y="0" letter-spacing="0em">c</tspan><tspan x="23.27" y="0">omments in purple </tspan><tspan x="59.83" y="0" letter-spacing="-.01em">t</tspan><tspan x="60.95" y="0">o the</tspan><tspan x="70.38" y="0" letter-spacing="-.02em"> </tspan><tspan x="71.34" y="0">AI doc with </tspan><tspan x="0" y="4.8">su</tspan><tspan x="4.36" y="4.8" letter-spacing="-.01em">g</tspan><tspan x="6.84" y="4.8">gestions on naming and an</tspan><tspan x="58.81" y="4.8" letter-spacing="0em">s</tspan><tspan x="60.81" y="4.8" letter-spacing="-.02em">w</tspan><tspan x="64.03" y="4.8">e</tspan><tspan x="66.4" y="4.8" letter-spacing="0em">r</tspan><tspan x="67.78" y="4.8">s </tspan><tspan x="70.84" y="4.8" letter-spacing="-.01em">t</tspan><tspan x="71.96" y="4.8">o a</tspan><tspan x="78.02" y="4.8" letter-spacing="-.03em">n</tspan><tspan x="80.31" y="4.8">y </tspan><tspan x="0" y="9.6">questions </tspan><tspan x="19.35" y="9.6" letter-spacing="-.02em">r</tspan><tspan x="20.66" y="9.6">aised. I’</tspan><tspan x="35.01" y="9.6" letter-spacing="-.02em">v</tspan><tspan x="37.05" y="9.6">e also a</tspan><tspan x="52.07" y="9.6" letter-spacing="-.01em">d</tspan><tspan x="54.58" y="9.6">ded </tspan><tspan x="63.09" y="9.6" letter-spacing="-.02em">r</tspan><tspan x="64.41" y="9.6">ed dots n</tspan><tspan x="82" y="9.6" letter-spacing="-.03em">e</tspan><tspan x="84.26" y="9.6">xt </tspan><tspan x="88.62" y="9.6" letter-spacing="-.01em">t</tspan><tspan x="89.74" y="9.6">o </tspan><tspan x="0" y="14.4">i</tspan><tspan x=".98" y="14.4" letter-spacing="0em">c</tspan><tspan x="3.27" y="14.4">ons that </tspan><tspan x="19.49" y="14.4" letter-spacing="0em">c</tspan><tspan x="21.78" y="14.4">an be m</tspan><tspan x="37.45" y="14.4" letter-spacing="-.02em">o</tspan><tspan x="39.84" y="14.4" letter-spacing="-.02em">v</tspan><tspan x="41.88" y="14.4">ed in</tspan><tspan x="51.22" y="14.4" letter-spacing="-.01em">t</tspan><tspan x="52.34" y="14.4">o the</tspan><tspan x="61.78" y="14.4" letter-spacing="-.02em"> </tspan><tspan x="62.73" y="14.4">WIP document </tspan><tspan x="91.94" y="14.4" letter-spacing="-.02em">w</tspan><tspan x="95.16" y="14.4">e </tspan><tspan x="0" y="19.2">discu</tspan><tspan x="10.2" y="19.2" letter-spacing="-.01em">s</tspan><tspan x="12.17" y="19.2">sed (these a</tspan><tspan x="35.32" y="19.2" letter-spacing="-.02em">r</tspan><tspan x="36.64" y="19.2">e i</tspan><tspan x="41.03" y="19.2" letter-spacing="0em">c</tspan><tspan x="43.32" y="19.2">ons that a</tspan><tspan x="62.1" y="19.2" letter-spacing="-.02em">r</tspan><tspan x="63.41" y="19.2">e either old and </tspan><tspan x="0" y="24">need updating, no longer used, </tspan><tspan x="59.97" y="24" letter-spacing="-.02em">r</tspan><tspan x="61.29" y="24">epeats or in </tspan><tspan x="0" y="28.8">p</tspan><tspan x="2.55" y="28.8" letter-spacing="-.02em">r</tspan><tspan x="3.87" y="28.8">og</tspan><tspan x="8.86" y="28.8" letter-spacing="-.02em">r</tspan><tspan x="10.18" y="28.8">e</tspan><tspan x="12.55" y="28.8" letter-spacing="-.01em">s</tspan><tspan x="14.52" y="28.8">s).</tspan></text><text transform="translate(8469 9903)" fill="#e0b4e1" font-family="Eina03-Regular, Eina03" font-size="4"><tspan x="0" y="0" letter-spacing="-.02em">y</tspan><tspan x="2.04" y="0">es - these </tspan><tspan x="21.45" y="0" letter-spacing="0em">c</tspan><tspan x="23.73" y="0">ould be a</tspan><tspan x="41.63" y="0" letter-spacing="-.01em">d</tspan><tspan x="44.14" y="0">ded </tspan><tspan x="52.66" y="0" letter-spacing="-.01em">t</tspan><tspan x="53.78" y="0">o the n</tspan><tspan x="66.64" y="0" letter-spacing="-.02em">e</tspan><tspan x="68.93" y="0">w „icn_shaded_“ </tspan><tspan x="101.38" y="0" letter-spacing="0em">c</tspan><tspan x="103.66" y="0">omponent type</tspan></text><text transform="translate(8468.77 9897)" fill="#ff0" font-family="Eina03-Regular, Eina03" font-size="4"><tspan x="0" y="0">m</tspan><tspan x="3.72" y="0" letter-spacing="-.02em">o</tspan><tspan x="6.12" y="0" letter-spacing="-.02em">v</tspan><tspan x="8.16" y="0">e them in a sepe</tspan><tspan x="39.57" y="0" letter-spacing="-.02em">r</tspan><tspan x="40.89" y="0">a</tspan><tspan x="43.44" y="0" letter-spacing="-.01em">t</tspan><tspan x="44.56" y="0">e line with all „special </tspan><tspan x="86.47" y="0" letter-spacing="0em">c</tspan><tspan x="88.76" y="0">olou</tspan><tspan x="97.02" y="0" letter-spacing="-.02em">r</tspan><tspan x="98.34" y="0">ed“ basic i</tspan><tspan x="118.21" y="0" letter-spacing="0em">c</tspan><tspan x="120.49" y="0">ons?</tspan></text><text transform="translate(8464 9827.5)" fill="#ff0" font-family="Eina03-Regular, Eina03" font-size="4"><tspan x="0" y="0">m</tspan><tspan x="3.72" y="0" letter-spacing="-.02em">o</tspan><tspan x="6.12" y="0" letter-spacing="-.02em">v</tspan><tspan x="8.16" y="0">e artboa</tspan><tspan x="24.26" y="0" letter-spacing="-.02em">r</tspan><tspan x="25.58" y="0">ds </tspan><tspan x="31.18" y="0" letter-spacing="-.01em">t</tspan><tspan x="32.3" y="0">ogether:</tspan><tspan x="0" y="4.8">- menu</tspan><tspan x="0" y="9.6">- ar</tspan><tspan x="6.58" y="9.6" letter-spacing="-.02em">r</tspan><tspan x="7.9" y="9.6" letter-spacing="-.02em">o</tspan><tspan x="10.3" y="9.6" letter-spacing="-.08em">w</tspan><tspan x="13.27" y="9.6">, +, -</tspan><tspan x="0" y="14.4">- document, mail, </tspan><tspan x="33.99" y="14.4" letter-spacing="-.01em">f</tspan><tspan x="35.19" y="14.4">older</tspan><tspan x="0" y="19.2">- model</tspan><tspan x="0" y="24">- buildings</tspan></text></g></svg>