<?xml version="1.0" encoding="UTF-8"?><svg id="a" xmlns="http://www.w3.org/2000/svg" viewBox="0 0 24 24"><rect x="0" width="24" height="24" fill="none"/><rect x="0" y="0" width="24" height="24" fill="none"/><rect id="c" x="0" y="0" width="24" height="24" fill="none"/><rect x="0" y="0" width="24" height="24" fill="none"/><g opacity=".2"><g isolation="isolate"><polygon points="10.95 12.47 16.6 9.75 16.58 14.12 10.93 16.85 10.95 12.47" fill="#fff"/><polygon points="9.21 7.24 14.86 4.52 18.37 10.61 12.73 13.34 9.21 7.24" fill="#fff"/></g><path d="m9.85,11.72v.87c0,.34.16.71.39.97v-1.43s.01-.87.01-.87l.71.35.06.03-1.82-3.15-1.85,1.36.06.03.71.35v.87s0,.77,0,.77l1.02-.49.71.35Z" fill="none"/><path d="m7.39,15.12v-1.35s-3.2,1.55-3.2,1.55c0,.48.31,1.03.7,1.22l2.71-1.31-.21-.1Z" fill="#fff"/><polygon points="7.41 12.21 3.49 14.1 4.2 14.44 7.4 12.9 7.41 12.21" fill="#fff"/><polygon points="7.4 12.9 4.2 14.44 4.2 15.32 7.4 13.77 7.4 12.9" fill="#fff"/><polygon points="14.82 19.62 14.11 19.28 17.96 17.42 10.95 14 10.93 16.85 7.61 15.23 4.9 16.53 13.4 20.68 14.82 19.99 14.82 19.62" fill="#fff"/><path d="m13.4,20.68c.16.08.32.08.44.03l.98-.47v-.24s-1.42.69-1.42.69Z" fill="#fff"/><path d="m14.27,21.61l5.65-2.73c.33-.16.54-.55.55-1.11l-5.65,2.73c0,.56-.22.95-.55,1.11Z" fill="#fff"/><path d="m18.66,17.77l.38.19c.16.08.32.08.44.03l-4.66,2.25v.27s5.65-2.73,5.65-2.73v-.87s-1.8.87-1.8.87Z" fill="#fff"/><polygon points="14.82 19.99 19.04 17.95 18.66 17.77 14.82 19.62 14.82 19.99" fill="#fff"/><path d="m19.04,17.95l-4.22,2.04v.24s4.66-2.25,4.66-2.25c-.12.06-.27.05-.44-.03Z" fill="#fff"/><polygon points="20.47 16.9 19.76 16.55 17.96 17.42 18.66 17.77 20.47 16.9" fill="#fff"/><polygon points="14.82 19.62 18.66 17.77 17.96 17.42 14.11 19.28 14.82 19.62" fill="#fff"/></g><path d="m14.11,19.28l.71.35v.87c-.01.97-.65,1.44-1.43,1.06l-8.5-4.14c-.78-.38-1.41-1.47-1.41-2.44v-.87s.71.35.71.35v.87c0,.48.31,1.03.7,1.22l8.5,4.14c.39.19.71-.05.71-.53v-.87Z" fill="#fff"/><path d="m7.39,15.12l.02-4.38-1.77-.86,3.57-2.64,3.51,6.09-1.77-.86-.02,4.38-3.54-1.73Zm-.04-5.28l.06.03.71.35v.87s-.02,3.5-.02,3.5l2.12,1.04.02-3.5v-.87s.71.35.71.35l.06.03-1.82-3.15-1.85,1.36" fill="#fff"/></svg>