<?xml version="1.0" encoding="UTF-8"?><svg id="a" xmlns="http://www.w3.org/2000/svg" viewBox="0 0 24 24"><rect width="24" height="24" fill="none"/><g><path d="M19.5,14.5c-.32,0-.61,.05-.85,.13l-3.06-.77c.26-.26,.41-.56,.41-.87,0-.53-.42-1-1.08-1.36l2.23-1.34c.39,.13,.85,.2,1.35,.2,1.38,0,2.5-.56,2.5-1.25s-1.12-1.25-2.5-1.25-2.5,.56-2.5,1.25c0,.26,.16,.5,.43,.7l-2.06,1.23v.91c.39,.25,.62,.56,.62,.91,0,.83-1.35,1.5-3,1.5s-3-.67-3-1.5c0-.34,.24-.65,.62-.91v-1.13h0l-.91-.46c.18-.15,.28-.32,.28-.51,0-.55-.9-1-2-1s-2,.45-2,1,.9,1,2,1c.37,0,.71-.05,1.01-.14l1.32,.66c-.81,.37-1.33,.89-1.33,1.48,0,.14,.03,.28,.09,.41l-3.69,.74c-.25-.09-.56-.15-.9-.15-.83,0-1.5,.34-1.5,.75s.67,.75,1.5,.75,1.5-.34,1.5-.75c0-.06-.02-.12-.04-.17l3.47-.69c.58,.59,1.72,1.01,3.07,1.09v.55c-1.14,.12-2,.62-2,1.22,0,.69,1.12,1.25,2.5,1.25s2.5-.56,2.5-1.25c0-.6-.86-1.11-2-1.22v-.55c1.02-.06,1.91-.32,2.54-.69l3.03,.76c-.04,.07-.06,.13-.06,.2,0,.41,.67,.75,1.5,.75s1.5-.34,1.5-.75-.67-.75-1.5-.75Zm-1-6c.83,0,1.5,.34,1.5,.75s-.67,.75-1.5,.75-1.5-.34-1.5-.75,.67-.75,1.5-.75Zm-11.5,2c-.55,0-1-.22-1-.5s.45-.5,1-.5,1,.22,1,.5-.45,.5-1,.5Zm-3.5,4.5c-.28,0-.5-.11-.5-.25s.22-.25,.5-.25,.5,.11,.5,.25-.22,.25-.5,.25Zm10,1.75c0,.41-.67,.75-1.5,.75s-1.5-.34-1.5-.75,.67-.75,1.5-.75,1.5,.34,1.5,.75Zm6-1.25c-.28,0-.5-.11-.5-.25s.22-.25,.5-.25,.5,.11,.5,.25-.22,.25-.5,.25Z" fill="#2f3541"/><g><polygon points="10.5 13.5 10.5 11.5 11.25 10.75 13.25 10.75 13.25 12.75 12.5 13.5 10.5 13.5" fill="#2f3541" opacity=".4"/><rect x="10.5" y="11.5" width="2" height="2" fill="#2f3541" opacity=".4"/></g></g></svg>