<?xml version="1.0" encoding="UTF-8"?><svg id="a" xmlns="http://www.w3.org/2000/svg" viewBox="0 0 24 24"><g><path d="M19,4H5V21h1v-7h13V4Zm-1,5h-2v2h2v2h-2v-2h-2v2h-2v-2h-2v2h-2v-2h-2v-2h2v-2h-2v-2h2v2h2v-2h2v2h2v-2h2v2h2v2Z" fill="#2f3541"/><rect x="8" y="9" width="2" height="2" fill="#2f3541"/><rect x="10" y="7" width="2" height="2" fill="#2f3541"/><rect x="12" y="9" width="2" height="2" fill="#2f3541"/><rect x="14" y="7" width="2" height="2" fill="#2f3541"/></g><rect y="0" width="24" height="24" fill="none"/></svg>