<?xml version="1.0" encoding="UTF-8"?><svg id="a" xmlns="http://www.w3.org/2000/svg" viewBox="0 0 24 24"><rect x="0" width="24" height="24" fill="none"/><g><g><path d="M5.27,14.33V4.25h13.5V14.33c0,4.27-3.85,6.42-6.76,6.42-3.13,0-6.73-2.15-6.74-6.42" fill="#fff"/><path d="M18.77,9.62H5.22v5.31h13.56v-5.31Z" fill="#2673bd"/></g><path d="M11.99,21c-1.95,0-3.89-.78-5.19-2.1-1.18-1.19-1.81-2.77-1.8-4.56V4h14V14.34c0,4.54-4.18,6.66-7.01,6.66ZM5.42,4.42V14.34c0,1.68,.58,3.15,1.68,4.26,1.22,1.24,3.05,1.98,4.89,1.98,2.66,0,6.59-1.98,6.59-6.24V4.42H5.42Z" fill="#171714"/></g></svg>