<?xml version="1.0" encoding="UTF-8"?><svg id="a" xmlns="http://www.w3.org/2000/svg" viewBox="0 0 24 24"><rect y="0" width="24" height="24" transform="translate(24 0) rotate(90)" fill="none"/><rect width="24" height="24" fill="none"/><g><path d="M12,3c4.96,0,9,4.04,9,9s-4.04,9-9,9S3,16.96,3,12,7.04,3,12,3m0-1C6.48,2,2,6.48,2,12s4.48,10,10,10,10-4.48,10-10S17.52,2,12,2h0Z" fill="#2f3541"/><g><path d="M7.55,9.38c-.73,0-1.35,.24-1.83,.73-.48,.48-.72,1.12-.72,1.9s.24,1.42,.72,1.9c.48,.48,1.09,.73,1.83,.73,1.29,0,2.26-.75,2.45-1.98h-1.11c-.15,.63-.66,.99-1.34,.99-.92,0-1.45-.63-1.45-1.64s.53-1.64,1.45-1.64c.68,0,1.19,.36,1.34,.99h1.11c-.19-1.22-1.16-1.98-2.45-1.98h0Z" fill="#2f3541"/><polygon points="14.5 9.5 13.51 9.5 13.51 11.49 11.49 11.49 11.49 9.5 10.5 9.5 10.5 14.5 11.49 14.5 11.49 12.44 13.51 12.44 13.51 14.5 14.5 14.5 14.5 9.5 14.5 9.5" fill="#2f3541"/><polygon points="18.76 9.5 15.5 9.5 15.5 14.5 16.51 14.5 16.51 12.44 18.66 12.44 18.66 11.49 16.51 11.49 16.51 10.44 18.76 10.44 18.76 9.5 18.76 9.5" fill="#2f3541"/></g></g></svg>