<?xml version="1.0" encoding="UTF-8"?><svg id="a" xmlns="http://www.w3.org/2000/svg" viewBox="0 0 24 24"><path id="b" d="M24,24H0V0H24V24Z" fill="none"/><g><polygon points="5 12 11.5 12 11.5 14 12.5 14 12.5 12 19 12 19 14 20 14 20 11 12.5 11 12.5 9 11.5 9 11.5 11 4 11 4 14 5 14 5 12" fill="#fff"/><path d="M19.5,15c-1.38,0-2.5,1.12-2.5,2.5s1.12,2.5,2.5,2.5,2.5-1.12,2.5-2.5-1.12-2.5-2.5-2.5Zm0,4c-.83,0-1.5-.67-1.5-1.5s.67-1.5,1.5-1.5,1.5,.67,1.5,1.5-.67,1.5-1.5,1.5Z" fill="#fff"/><path d="M9,20h6l-3-5-3,5Zm1.77-1l1.23-2.06,1.23,2.06h-2.47Z" fill="#fff"/><path d="M2,20H7v-5H2v5Zm1-4h3v3H3v-3Z" fill="#fff"/><path d="M14.5,5.5c0-1.38-1.12-2.5-2.5-2.5s-2.5,1.12-2.5,2.5v2.5h2.5c1.38,0,2.5-1.12,2.5-2.5Zm-4,0c0-.83,.67-1.5,1.5-1.5s1.5,.67,1.5,1.5-.67,1.5-1.5,1.5h-1.5v-1.5Z" fill="#fff"/></g></svg>