<?xml version="1.0" encoding="UTF-8"?><svg id="icon" xmlns="http://www.w3.org/2000/svg" width="24" height="24" viewBox="0 0 24 24"><g id="Rechteck_55747"><rect x="0" width="24" height="24" fill="none"/></g><path d="m21.4936,11.8739h-.9999c.0006.0424.0063.0834.0063.1259,0,4.6865-3.8135,8.5-8.5,8.5S3.5,16.6863,3.5,11.9998,7.313,3.4998,12,3.4998c1.452,0,2.8063.3883,4.0024,1.0344l-1.6274,1.6277,6.334,2.4932-2.4531-6.375-1.5178,1.5181c-1.3985-.8118-3.008-1.2984-4.7381-1.2984C6.7617,2.4998,2.5,6.7615,2.5,11.9998s4.2617,9.5,9.5,9.5,9.5-4.2617,9.5-9.5c0-.0425-.0059-.0836-.0064-.1259Zm-3.6186-7.7989l1.084,2.8164-2.7988-1.1006,1.7148-1.7158Zm-5.875,6.925c.5523,0,1,.4478,1,1s-.4477,1-1,1-1-.4477-1-1,.4477-1,1-1Z" fill="#fff"/></svg>