<?xml version="1.0" encoding="UTF-8"?><svg id="icon" xmlns="http://www.w3.org/2000/svg" width="24" height="24" viewBox="0 0 24 24"><path d="M3,17.5v-1.8208l4.1981-4.203c.5431-.5165,.7989-1.0775,.7989-1.7144,0-.7896-.6029-1.3358-1.4478-1.3358-.9508,0-1.4488,.6073-1.4488,1.4867l.0451,.5874H2.9734c-.0304-.1676-.0451-.3745-.0451-.617,0-2.0939,1.4635-3.4899,3.621-3.4899,2.2173,0,3.6504,1.3506,3.6504,3.3223,0,1.4265-.4519,2.3068-1.7645,3.4899l-2.429,2.2947h3.9938v2H3Z" fill="#fff"/><path d="M12,17.5V6.5h3.8474c3.575,0,5.6526,2.1941,5.6526,5.5s-2.0776,5.5-5.6526,5.5h-3.8474Zm2.25-9v7h1.5367c2.2781,0,3.3798-1.3523,3.3798-3.5104s-1.1018-3.4896-3.3798-3.4896h-1.5367Z" fill="#fff"/><rect width="24" height="24" fill="none"/></svg>