<?xml version="1.0" encoding="UTF-8"?><svg id="a" xmlns="http://www.w3.org/2000/svg" viewBox="0 0 24 24"><rect y="0" width="24" height="24" fill="none"/><g><polyline points="16 4 12 2 8 4 12 6 16 4 16 4" fill="#2f3541" opacity=".2"/><polygon points="7 14.5 7 19.5 3 17.5 3 12.5 7 14.5" fill="#2f3541" opacity=".8"/><g><polygon points="7 8.5 7 13.5 3 11.5 3 6.5 7 8.5" fill="#2f3541" opacity=".8"/><polyline points="11 6.5 7 4.5 3 6.5 7 8.5 11 6.5 11 6.5" fill="#2f3541" opacity=".2"/></g><polygon points="17 14.5 17 19.5 21 17.5 21 12.5 17 14.5" fill="#2f3541" opacity=".4"/><g><polygon points="17 8.5 17 13.5 21 11.5 21 6.5 17 8.5" fill="#2f3541" opacity=".4"/><polyline points="21 6.5 17 4.5 13 6.5 17 8.5 21 6.5 21 6.5" fill="#2f3541" opacity=".2"/></g><g><polygon points="12 17 12 22 8 20 8 15 12 17" fill="#2f3541" opacity=".8"/><polygon points="12 17 12 22 16 20 16 15 12 17" fill="#2f3541" opacity=".4"/></g><g><polygon points="12 11 12 16 8 14 8 9 12 11" fill="#2f3541" opacity=".8"/><polygon points="12 11 12 16 16 14 16 9 12 11" fill="#2f3541" opacity=".4"/><polyline points="16 9 12 7 8 9 12 11 16 9 16 9" fill="#2f3541" opacity=".2"/></g></g></svg>