<?xml version="1.0" encoding="UTF-8"?><svg id="a" xmlns="http://www.w3.org/2000/svg" xmlns:xlink="http://www.w3.org/1999/xlink" viewBox="0 0 48 48"><defs><linearGradient id="b" x1="20.53" y1="31.08" x2="40.57" y2="31.08" gradientTransform="matrix(1, 0, 0, 1, 0, 0)" gradientUnits="userSpaceOnUse"><stop offset="0" stop-color="#2f3541" stop-opacity=".4"/><stop offset="1" stop-color="#2f3541" stop-opacity="0"/></linearGradient><linearGradient id="c" x1="25.18" y1="20.69" x2="30.97" y2="32.62" gradientTransform="matrix(1, 0, 0, 1, 0, 0)" gradientUnits="userSpaceOnUse"><stop offset="0" stop-color="#f49"/><stop offset="1" stop-color="#26f"/></linearGradient><linearGradient id="d" x1="28.5" y1="20.59" x2="31.55" y2="26.42" xlink:href="#c"/><linearGradient id="e" x1="24.32" y1="17.53" x2="27.81" y2="25.6" xlink:href="#c"/></defs><g><polyline points="44 30.5 24 20.5 4 30.5 24 40.5 44 30.5 44 30.5" fill="#f2f6ff"/><polygon points="24 40.5 24 42.5 4 32.5 4 30.5 24 40.5" fill="#fff" opacity=".2"/><polygon points="24 40.5 24 42.5 44 32.5 44 30.5 24 40.5" fill="#2f3541"/></g><path d="M17,31.08c0,2.42,6.49,4.39,14.5,4.39,.93,0,1.84-.03,2.72-.08l9.78-4.89-6.94-3.47c-1.71-.22-3.59-.34-5.56-.34-8.01,0-14.5,1.96-14.5,4.39Z" fill="url(#b)"/><rect x="12" y="10" width="24" height="24" fill="none"/><ellipse cx="20.49" cy="23.39" rx="5.69" ry="9.16" transform="translate(-8.13 11.23) rotate(-25.76)" fill="#fff3f8"/><rect x="0" y="0" width="48" height="48" fill="none"/><polygon points="18.01 19.4 20.54 23.79 22.1 22.64 22.59 23.5 22.46 23.59 22.44 23.58 22.45 23.6 20.53 25.02 17.5 19.78 18.01 19.4" fill="#2f3541"/><polygon points="24.44 24.56 26.55 28.22 28.69 26.63 24.44 24.56" fill="#2f3541"/><path d="M22.83,31c-.61,0-1.26-.17-1.95-.5-3.21-1.57-5.9-6.27-5.88-10.27,.01-2.71,1.25-4.45,3.15-4.45,.61,0,1.26,.17,1.94,.5,2.93,1.43,5.34,5.28,5.8,8.99l1.06,.52c-.29-4.22-3.04-8.75-6.42-10.4-.84-.41-1.64-.6-2.38-.6-2.41,0-4.13,2.07-4.15,5.45-.02,4.42,2.86,9.43,6.44,11.17,.84,.41,1.65,.61,2.39,.61,1.43,0,2.61-.74,3.34-2.04l-.59-1.06s-1,2.1-2.74,2.1Z" fill="#2f3541"/><g><polygon points="28.69 26.63 34.46 23.84 32.33 25.43 26.55 28.22 28.69 26.63" fill="#225acd" opacity=".8"/><g><polygon points="25.57 28.9 31.33 26.13 31.93 27.19 26.17 29.96 25.57 28.9" fill="url(#c)"/><g opacity=".8"><path d="M26.18,29.95c-.43,.77-1.01,1.35-1.71,1.69l5.75-2.77c.7-.34,1.27-.91,1.7-1.67l-5.73,2.75Z" fill="#225acd"/></g><polygon points="26.95 25.78 32.72 22.98 34.47 23.84 28.69 26.63 26.95 25.78" fill="url(#d)"/><g opacity=".8"><path d="M32.69,23c-.29-4.21-3.04-8.75-6.42-10.39-1.51-.74-2.91-.78-4.02-.24l-5.75,2.77c1.11-.54,2.51-.5,4.02,.24,3.38,1.65,6.13,6.18,6.42,10.4l5.75-2.78Z" fill="url(#e)"/></g></g></g></svg>