<?xml version="1.0" encoding="UTF-8"?><svg xmlns="http://www.w3.org/2000/svg" width="32" height="32" viewBox="0 0 32 32"><g id="icon"><circle cx="16" cy="16" r="16" fill="#f49"/></g><g id="text_-_keep_locked_to_avoid_add_icons_here"><g><rect x="4" y="4" width="24" height="24" fill="none" opacity="0"/><path d="M24,24V8H8V24h-2v1H26v-1h-2ZM9,9h3.4351l-3.4351,3.435v-3.435Zm0,4.8492l4.8492-4.8492h2.8284l-7.6776,7.6777v-2.8284Zm0,4.2426l9.0919-9.0919h2.8284l-11.9203,11.9203v-2.8285Zm0,5.9081v-1.6655l13.3345-13.3345h.6655v2.163l-12.837,12.837h-1.163Zm2.5771,0l11.4229-11.4229v2.8285l-8.5944,8.5944h-2.8284Zm4.2426,0l7.1802-7.1802v2.8284l-4.3517,4.3518h-2.8285Zm4.2427,0l2.9375-2.9375v2.9375h-2.9375Z" fill="#fff"/></g></g></svg>