<?xml version="1.0" encoding="UTF-8"?><svg id="a" xmlns="http://www.w3.org/2000/svg" viewBox="0 0 24 24"><rect x="0" y="0" width="24" height="24" fill="none"/><polygon points="12 10 9.11 11.45 11.2 12.49 11.2 13.71 7.89 12.05 5.11 13.45 11.2 16.49 11.2 17.71 3.89 14.05 2 15 12 20 22 15 12 10" fill="#fff" opacity=".2"/><path d="M2.8,16.29l8.4,4.2v1.21L2.8,17.51v-1.21m-.8-1.29v3l10,5v-3L2,15h0Z" fill="#fff"/><polygon points="12 20 12 23 22 18 22 15 12 20" fill="#fff" opacity=".2"/><polygon points="12 6 5.11 9.45 11.2 12.49 11.2 13.71 3.89 10.05 2 11 12 16 22 11 12 6" fill="#fff" opacity=".2"/><path d="M2.8,12.29l8.4,4.2v1.21L2.8,13.51v-1.21m-.8-1.29v3l10,5v-3L2,11h0Z" fill="#fff"/><polygon points="12 16 12 19 22 14 22 11 12 16" fill="#fff" opacity=".2"/><polyline points="22 7 12 2 2 7 12 12 22 7 22 7" fill="#fff" opacity=".2"/><path d="M2.8,8.29l8.4,4.2v1.21L2.8,9.51v-1.21m-.8-1.29v3l10,5v-3L2,7h0Z" fill="#fff"/><polygon points="12 12 12 15 22 10 22 7 12 12" fill="#fff" opacity=".2"/></svg>