<?xml version="1.0" encoding="UTF-8"?><svg id="a" xmlns="http://www.w3.org/2000/svg" viewBox="0 0 24 24"><rect width="24" height="24" fill="none"/><g><path d="M12,6c-2.76,0-5,2.24-5,5s2.24,5,5,5,5-2.24,5-5-2.24-5-5-5Zm-4,5c0-2.21,1.79-4,4-4,.92,0,1.76,.33,2.44,.85l-5.59,5.59c-.53-.68-.85-1.52-.85-2.44Zm4,4c-.92,0-1.76-.33-2.44-.85l5.59-5.59c.53,.68,.85,1.52,.85,2.44,0,2.21-1.79,4-4,4Z" fill="#fff"/><path d="M17.66,5.23c-1.56-1.49-3.61-2.23-5.66-2.23s-4.09,.74-5.66,2.23c-3.12,2.98-3.12,7.8,0,10.77l5.66,6,5.66-6c3.12-2.97,3.12-7.8,0-10.77Zm-.69,10.05l-.02,.02-.02,.02-4.93,5.23-4.93-5.23-.02-.02-.02-.02c-1.31-1.25-2.03-2.9-2.03-4.66s.72-3.42,2.03-4.66c1.32-1.26,3.09-1.95,4.97-1.95s3.64,.69,4.97,1.95c1.31,1.25,2.03,2.91,2.03,4.66,0,1.76-.72,3.41-2.03,4.66Z" fill="#fff"/></g></svg>