<?xml version="1.0" encoding="UTF-8"?><svg id="a" xmlns="http://www.w3.org/2000/svg" viewBox="0 0 24 24"><rect x="0" width="24" height="24" fill="none"/><path d="m12,4.14c2.07,1.09,4.42,1.71,7,1.83v6.22c0,4.2-2.93,7.85-7,8.78-4.07-.92-7-4.58-7-8.78v-6.22c2.58-.13,4.93-.74,7-1.83m0-1.14c-2.36,1.36-5.08,2-8,2v7.2c0,4.84,3.44,8.87,8,9.8,4.56-.93,8-4.96,8-9.8v-7.2c-2.92,0-5.64-.64-8-2h0Z" fill="#2f3541"/><path d="m15,10c0-1.66-1.34-3-3-3s-3,1.34-3,3c0,1.49,1.08,2.71,2.5,2.95v5.05h2.5v-1h-1.5v-1h1.5v-1h-1.5v-2.05c1.42-.24,2.5-1.46,2.5-2.95Zm-5,0c0-1.1.9-2,2-2s2,.9,2,2-.9,2-2,2-2-.9-2-2Z" fill="#2f3541"/></svg>