<?xml version="1.0" encoding="UTF-8"?><svg id="a" xmlns="http://www.w3.org/2000/svg" viewBox="0 0 24 24"><polygon points="7.14 14.41 7.07 14.39 7.07 14.39 7.14 14.41" fill="#f84"/><path d="M14.79,3.02c-.4-.05-.79-.05-1.15,.03l-.38,.08-5.65,2.73,.38-.08c.36-.08,.75-.08,1.15-.03l.42,.06,5.65-2.73-.42-.06Z" fill="#2f3541" opacity=".2"/><path d="M15.52,16.14l-.12,.46c-.12,.44-.28,.84-.49,1.19l-.22,.36,5.65-2.73,.22-.36c.21-.35,.37-.75,.49-1.19l.12-.46-5.65,2.73Z" fill="#2f3541" opacity=".2"/><path d="M18.67,5.51c-.36-.43-.74-.81-1.14-1.15l-.42-.35-5.65,2.73,.42,.35c.4,.34,.79,.72,1.14,1.15l.38,.45,5.65-2.73-.38-.45Z" fill="#2f3541" opacity=".2"/><path d="M21.07,10.5c-.11-.55-.27-1.11-.47-1.65l-.21-.58-5.65,2.73,.21,.58c.2,.54,.36,1.1,.47,1.65l.11,.58,5.65-2.73-.11-.58Z" fill="#2f3541" opacity=".2"/><polygon points="20.84 12.9 20.49 12.33 14.85 15.06 15.2 15.62 15.52 16.14 21.17 13.42 20.84 12.9" fill="#2f3541" opacity=".2"/><polygon points="19.95 8.09 19.46 7.88 13.82 10.61 14.3 10.81 14.74 10.99 20.38 8.27 19.95 8.09" fill="#2f3541" opacity=".2"/><path d="M7.95,16.8l-1.08,.52,.75,.36,.8-.38c-.16-.16-.31-.33-.46-.5Z" fill="#2f3541" opacity=".2"/><polygon points="10.83 18.16 7.02 20.01 6.51 20.38 10.89 18.27 10.83 18.16" fill="#2f3541" opacity=".2"/><path d="M10.79,18.07c-.11-.04-.22-.09-.34-.15-.11-.06-.22-.12-.33-.18l-.33,.27-.3,.26-.42-.35s-.04-.03-.05-.05l-2.53,1.22,.53,.9,3.82-1.84-.05-.09Z" fill="#2f3541" opacity=".2"/><path d="M5.7,12.47l-1.26,.61,.71,.35,.73-.35c-.07-.2-.13-.4-.18-.6Z" fill="#2f3541" opacity=".2"/><path d="M10.12,17.74l-.33,.27-.3,.26,.85-.41c-.08-.04-.15-.08-.23-.12Z" fill="#2f3541" opacity=".2"/><rect y="0" width="24" height="24" fill="none"/><polygon points="15.5 3.63 15.21 3.09 9.56 5.81 9.85 6.36 10.17 6.96 15.82 4.23 15.5 3.63" fill="#2f3541" opacity=".2"/><polygon points="15.53 13.81 15.2 14.01 14.85 14.23 20.5 11.51 20.85 11.28 21.18 11.08 15.53 13.81" fill="#2f3541" opacity=".2"/><polygon points="13.41 8.69 13.38 9.21 13.35 9.8 19 7.08 19.03 6.49 19.05 5.96 13.41 8.69" fill="#2f3541" opacity=".2"/><path d="M7.17,7.37c.15-.14,.3-.26,.47-.36l-.02-.61v-.21l-1.37,.66,.43,.24,.48,.27Z" fill="#2f3541" opacity=".2"/><path d="M14.85,14.23l5.65-2.73c0,.14,.01,.27,.01,.42s0,.28-.02,.41l-5.65,2.73c0-.13,.01-.27,.02-.41s0-.28-.01-.42Z" fill="#2f3541" opacity=".2"/><path d="M13.35,9.8l5.65-2.73c.16,.26,.32,.53,.46,.81l-5.65,2.73c-.14-.28-.3-.55-.46-.81Z" fill="#2f3541" opacity=".2"/><path d="M13.78,17.65c-.14,.14-.3,.26-.47,.35l.59-.28-.12-.06Z" fill="#2f3541" opacity=".2"/><polygon points="11.65 6.89 11.46 6.74 11.65 6.89 11.65 6.89" fill="#2f3541" opacity=".2"/><path d="M10.84,7.28l.32-.29,.3-.26,4.79-2.31s-.07-.04-.1-.06c-.11-.06-.22-.1-.33-.14l-5.65,2.73c.11,.04,.22,.08,.33,.14s.23,.12,.34,.19Z" fill="#2f3541" opacity=".2"/><path d="M3.54,18.28l-.53,.4,.62-.3s-.06-.06-.08-.1Z" fill="#2f3541" opacity=".2"/><path d="M10.49,10.76c.78,.38,1.41,1.47,1.41,2.44s-.64,1.44-1.42,1.06-1.41-1.47-1.41-2.44,.64-1.44,1.42-1.06Zm-.01,2.62c.39,.19,.71-.05,.71-.53s-.31-1.03-.7-1.22-.71,.05-.71,.53,.31,1.03,.7,1.22m4.38,1.68l.35,.56,.32,.52-.12,.46c-.12,.44-.28,.84-.49,1.19l-.22,.36-.43-.23-.48-.27c-.14,.14-.3,.26-.47,.35l.02,.61,.02,.55-.38,.07c-.36,.08-.75,.08-1.15,.03l-.42-.06-.29-.54-.32-.59c-.11-.05-.22-.09-.34-.15s-.22-.12-.33-.18l-.33,.27-.3,.26-.42-.35c-.4-.34-.79-.72-1.14-1.15l-.38-.45,.03-.53,.02-.59c-.16-.25-.32-.53-.46-.8l-.48-.2-.43-.19-.21-.57c-.2-.55-.36-1.11-.47-1.66l-.11-.58,.33-.2,.36-.22c-.01-.14-.02-.28-.02-.43s0-.27,.02-.4l-.35-.57-.32-.52,.12-.47c.12-.44,.28-.84,.49-1.18l.22-.37,.43,.24,.48,.27c.15-.14,.3-.26,.47-.36l-.02-.61-.02-.55,.38-.08c.36-.08,.75-.08,1.15-.03l.42,.06,.29,.54,.32,.6c.11,.04,.22,.08,.33,.14s.23,.12,.34,.19l.32-.29,.3-.26,.42,.35c.4,.34,.79,.72,1.14,1.15l.38,.45-.02,.53-.03,.59c.16,.26,.32,.53,.46,.81l.48,.2,.43,.18,.21,.58c.2,.54,.36,1.1,.47,1.65l.11,.58-.33,.2-.35,.22c0,.14,.01,.27,.01,.42s0,.28-.02,.41Zm-.69-.76c0-.26-.02-.52-.06-.78l.64-.4c-.09-.48-.23-.96-.4-1.42l-.85-.37c-.24-.53-.53-1.03-.86-1.49l.05-1.02c-.31-.37-.64-.7-.99-.99l-.57,.5c-.2-.14-.4-.27-.61-.38s-.41-.16-.61-.22l-.57-1.06c-.35-.05-.68-.05-.99,.02l.03,1.07c-.33,.13-.63,.35-.87,.64l-.85-.46c-.18,.29-.32,.63-.42,1.02l.63,1.02c-.04,.23-.07,.46-.07,.72s.02,.52,.06,.79l-.64,.39c.1,.48,.23,.96,.41,1.43l.85,.36c.23,.52,.52,1.03,.85,1.49l-.04,1.03c.3,.36,.64,.7,.99,.99l.58-.5c.2,.14,.39,.26,.61,.37s.41,.17,.61,.23l.56,1.06c.35,.05,.68,.04,1-.02l-.04-1.07c.33-.14,.63-.36,.87-.65l.85,.47c.17-.3,.32-.64,.41-1.03l-.63-1.01c.04-.23,.07-.46,.07-.72m-9.73,2.27c0,.24,.16,.52,.35,.61s.36-.02,.36-.27-.16-.51-.35-.61-.35,.02-.35,.26Zm2.09-.51c.18,.41,.3,.83,.36,1.26l.75,.36v.87l-.75-.36c-.06,.37-.18,.68-.37,.9l.53,.9-.51,.38-.52-.91c-.26,.1-.56,.11-.88,.02v.92l-.71-.35v-.92c-.32-.23-.61-.52-.87-.87l-.53,.4-.49-.86,.53-.39c-.18-.4-.3-.83-.35-1.25l-.75-.36v-.87l.75,.36c.05-.38,.18-.68,.36-.91l-.52-.9,.5-.37,.53,.9c.26-.1,.55-.12,.88-.02v-.91l.71,.35v.91c.31,.22,.61,.52,.87,.87l.53-.39,.5,.86-.53,.39Zm-.35,1.65l.05-.27-.04-.31c-.03-.28-.11-.56-.23-.83l-.14-.31-.2-.27c-.17-.23-.37-.43-.58-.58l-.24-.16-.24-.07c-.21-.06-.4-.05-.58,.02l-.2,.08-.14,.18c-.13,.15-.21,.36-.25,.6l-.04,.27,.04,.31c.04,.29,.11,.56,.24,.83l.13,.31,.2,.27c.17,.23,.37,.43,.58,.57l.24,.17,.24,.06c.22,.07,.41,.06,.58,0l.2-.08,.14-.18c.12-.15,.21-.35,.24-.6" fill="#2f3541"/><polygon points="7.59 15.41 7.04 15.68 6.51 16.06 7.59 15.54 7.59 15.41" fill="#2f3541" opacity=".2"/><path d="M6,13.45c-.05-.13-.08-.26-.12-.38l-.73,.35v.91l1-.49-.15-.39Z" fill="#2f3541" opacity=".2"/><path d="M3.04,14.4l-1.1,.53,.75,.36c.05-.37,.18-.66,.35-.89Z" fill="#2f3541" opacity=".2"/><path d="M5.81,12.83c-.1-.31-.18-.63-.25-.94l-2.52,1.22,.53,.9,.88-.42v-.51l1.26-.61c.03,.12,.07,.24,.11,.36Z" fill="#2f3541" opacity=".2"/><path d="M4.44,13.99v-.4l-.88,.42c.26-.1,.55-.12,.88-.02Z" fill="#2f3541" opacity=".2"/><path d="M7.93,16.78l-.38-.45,.03-.53v-.26l-1.07,.52c.18,.41,.3,.83,.36,1.26l1.08-.52-.02-.02Z" fill="#2f3541" opacity=".2"/><polygon points="7.57 15.84 7.58 15.8 7.57 15.84 7.57 15.84" fill="#f84"/><path d="M7.14,14.41l-.48-.2-.43-.19-.07-.18-1.01,.49c.32,.22,.62,.52,.87,.87l.53-.39,.65-.31s-.04-.06-.05-.09Z" fill="#2f3541" opacity=".2"/><polygon points="6.54 14.82 6.6 14.92 6.6 14.92 6.54 14.82" fill="#2f3541" opacity=".2"/><path d="M6.86,18.2c-.06,.37-.18,.68-.37,.9l1.11-.54-.74-.36Z" fill="#2f3541" opacity=".2"/><path d="M5.99,19.47c-.26,.1-.56,.11-.88,.02v.92l1.11-.54-.23-.41Z" fill="#2f3541" opacity=".2"/><path d="M8.41,17.31l-.8,.38v.87l1.41-.68c-.21-.18-.41-.37-.61-.58Z" fill="#2f3541" opacity=".2"/><polygon points="14.7 18.16 14.26 17.92 13.9 17.72 13.31 18 13.33 18.61 13.35 19.16 19 16.44 18.99 16.09 14.7 18.16" fill="#2f3541" opacity=".2"/><path d="M15.25,17.07c-.1,.26-.2,.51-.33,.73,.13-.22,.24-.47,.33-.73h0Z" fill="#2f3541" opacity=".2"/><path d="M7.6,15.22c-.15-.23-.28-.47-.41-.71l-.65,.31,.5,.86,.55-.27v-.2Z" fill="#2f3541" opacity=".2"/></svg>