<?xml version="1.0" encoding="UTF-8"?><svg id="a" xmlns="http://www.w3.org/2000/svg" viewBox="0 0 24 24"><rect y="0" width="24" height="24" fill="none"/><path d="M17.01,9.03c1.47,0,2.86,1.24,3.81,2.72-.7-.39-1.48-.66-2.3-.66-2.77,0-5.26,2.61-6.52,4.2-1.26-1.59-3.75-4.2-6.52-4.2-.82,0-1.6,.27-2.3,.66,.94-1.48,2.34-2.72,3.81-2.72,1.27,0,2.73,1.02,4.23,2.94l.78,1.01,.78-1.01c1.5-1.92,2.96-2.94,4.23-2.94m0-1.03c-2.09,0-3.94,1.94-5.01,3.33-1.08-1.38-2.92-3.33-5.01-3.33-3.13,0-5.69,4.09-5.99,6.69,1.17-.96,2.74-2.58,4.48-2.58,3.33,0,6.52,4.89,6.52,4.89,0,0,3.19-4.89,6.52-4.89,1.74,0,3.31,1.62,4.48,2.58-.29-2.6-2.86-6.69-5.99-6.69h0Z" fill="#2f3541"/></svg>