<?xml version="1.0" encoding="UTF-8"?><svg id="a" xmlns="http://www.w3.org/2000/svg" viewBox="0 0 48 48"><rect x="0" y="0" width="48" height="48" fill="none"/><rect width="48" height="48" fill="none"/><g><path d="M23.98,23.02c4.41,0,7.99-3.58,7.99-8s-3.58-8-7.99-8-7.99,3.58-7.99,8,3.58,8,7.99,8Zm0-15c3.85,0,6.99,3.14,6.99,7s-3.14,7-6.99,7-6.99-3.14-6.99-7,3.14-7,6.99-7Z" fill="#2f3541"/><path d="M38.67,36.07l-.7,.7,4.94,4.89c.39,.39,.39,1.01,0,1.4l-.17,.17c-.19,.18-.44,.29-.71,.29s-.52-.1-.71-.29l-3.83-3.79c-.1,.14-.67,.73-.67,.73l3.79,3.76c.39,.39,.9,.58,1.41,.58s1.03-.19,1.41-.58l.17-.17c.78-.77,.78-2.03,0-2.8l-4.94-4.89Z" fill="#2f3541"/><path d="M31,35.44c.32,0,.9-.11,.89-.11l.49,.48s.6-.56,.74-.66l-.95-.94c-.36,.15-.75,.23-1.17,.23-1.5,0-2.75-1.1-2.97-2.53l1.7,1.68,2.56-.85,.85-2.54-1.7-1.68c1.44,.21,2.55,1.45,2.55,2.94,0,.41-.08,.8-.24,1.16l2.06,2.04,.7-.7-1.63-1.62s.11-.57,.11-.88c0-2.19-1.79-3.96-4-3.96-.59,0-1.14,.13-1.64,.36l2.64,2.61-.5,1.49-1.5,.5-2.64-2.62c-.23,.5-.36,1.04-.36,1.62,0,2.19,1.79,3.96,4,3.96Z" fill="#2f3541"/><path d="M26.92,40.02H15.03c.1-1.2,.96-3.67,.96-3.67v-9.69s1.66-1.04,2-1.21v8.57h7.62c-.15-.32-.27-.65-.36-1h-6.26v-8.02c.08-.03,.17-.08,.25-.11,1.53,.75,3.12,1.13,4.74,1.13s3.21-.38,4.74-1.13c.09,.03,.17,.07,.25,.11v.88c.33-.12,.66-.21,1-.27v-.16c.08,.04,.15,.08,.22,.12,.87-.1,1.68,0,2.09,.08-1.03-.71-3.08-1.61-3.63-1.85-1.4,.75-2.98,1.21-4.67,1.21s-3.27-.46-4.67-1.21c-.11,.04-.21,.09-.32,.13h0c-6.38,2.36-10.98,9.11-10.98,17.09H26.31c.14-.36,.35-.69,.6-1Zm-11.93-3.87c-.51,1.19-.84,2.5-.95,3.87h-5.02c.27-5.02,2.52-9.6,5.97-12.57v8.69Z" fill="#2f3541"/><path d="M36.66,36.65l4.05-4.01h2.29l2-2.97-2-1.98-3,1.98v2.27l-4.05,4.01c-.78-.52-1.85-.44-2.53,.24l-4.83,4.79c-.78,.77-.78,2.03,0,2.8l.17,.17c.39,.39,.9,.58,1.41,.58s1.02-.19,1.41-.58l4.83-4.79c.39-.39,.58-.89,.58-1.4,0-.39-.12-.78-.34-1.11Zm4.34-6.45l1.87-1.24,.84,.83-1.25,1.85h-1.46v-1.45Zm-5.29,8.26l-4.83,4.79c-.19,.18-.44,.29-.71,.29s-.52-.1-.71-.29l-.17-.17c-.39-.39-.39-1.01,0-1.4l4.83-4.78c.39-.39,1.02-.39,1.41,0l.17,.17c.19,.19,.29,.43,.29,.7s-.1,.51-.29,.7Z" fill="#2f3541"/></g></svg>