<?xml version="1.0" encoding="UTF-8"?><svg id="a" xmlns="http://www.w3.org/2000/svg" viewBox="0 0 24 24"><rect width="24" height="24" fill="none"/><g><path d="M16,4l-4-2-4,2,4,2,4-2Zm-4-.88l1.76,.88-1.76,.88-1.76-.88,1.76-.88Z" fill="#2f3541"/><path d="M3,17.5l4,2v-5.31l-4-2.02v5.33Zm1-3.7l2,1.01v3.08l-2-1v-3.09Z" fill="#2f3541"/><path d="M7,4.5L3,6.5v4.74l4,1.94v-4.68l4-2-4-2Zm-3,6.11v-3.05l2,1v3.02l-2-.97Zm2.55-3.01l-.11,.06-1.76-.88,2.32-1.16,1.76,.88-2.21,1.11Z" fill="#2f3541"/><path d="M17,19.5l4-2v-5.33l-4,2.02v5.31Zm1-4.7l2-1.01v3.09l-2,1v-3.08Z" fill="#2f3541"/><path d="M8,14.51v5.49l4,2,4-2v-5.49l-4,2.02-4-2.02Zm1,1.62l2.5,1.26v3.23l-2.5-1.25v-3.24Zm6,3.24l-2.5,1.25v-3.23l2.5-1.26v3.24Z" fill="#2f3541"/><path d="M8,9v4.5l4,1.98,4-1.98v-4.5l-4-2-4,2Zm6.32,.28l-2.32,1.16-2.32-1.16,2.32-1.16,2.32,1.16Zm-5.32,.78l2.5,1.25v2.81l-2.5-1.24v-2.82Zm3.5,4.06v-2.81l2.5-1.25v2.82l-2.5,1.24Z" fill="#2f3541"/><path d="M17,4.5l-4,2,4,2v4.68l4-1.94V6.5l-4-2Zm-1.76,2l1.76-.88,2.32,1.16-1.76,.88-.11-.06-2.21-1.11Zm2.76,5.08v-3.02l2-1v3.05l-2,.97Z" fill="#2f3541"/></g></svg>