<?xml version="1.0" encoding="UTF-8"?><svg xmlns="http://www.w3.org/2000/svg" width="32" height="32" xmlns:xlink="http://www.w3.org/1999/xlink" viewBox="0 0 32 32"><defs><linearGradient id="linear-gradient" x1="16" y1="18" x2="16" y2="24" gradientUnits="userSpaceOnUse"><stop offset="0" stop-color="#fff" stop-opacity=".6"/><stop offset=".208" stop-color="#fff" stop-opacity=".5853"/><stop offset=".4037" stop-color="#fff" stop-opacity=".5408"/><stop offset=".5946" stop-color="#fff" stop-opacity=".4662"/><stop offset=".7824" stop-color="#fff" stop-opacity=".3614"/><stop offset=".9664" stop-color="#fff" stop-opacity=".2278"/><stop offset="1" stop-color="#fff" stop-opacity=".2"/></linearGradient></defs><g id="icon"><circle cx="16" cy="16" r="16" fill="#f49"/></g><g id="text_-_keep_locked_to_avoid_add_icons_here"><g><rect x="9" y="18.0002" width="14" height="5.9998" fill="url(#linear-gradient)"/><g><path d="M10.5,13c1.3807,0,2.5-1.1193,2.5-2.5s-1.1193-2.5-2.5-2.5-2.5,1.1193-2.5,2.5,1.1193,2.5,2.5,2.5Zm0-4c.8271,0,1.5,.6729,1.5,1.5s-.6729,1.5-1.5,1.5-1.5-.6729-1.5-1.5,.6729-1.5,1.5-1.5Z" fill="#fff"/><rect x="10" y="6" width="1" height="1" fill="#fff"/><rect x="12.8284" y="7.1716" width="1" height="1" transform="translate(-1.5208 11.6716) rotate(-45)" fill="#fff"/><rect x="12.8284" y="12.8284" width="1" height="1" transform="translate(-5.5208 13.3284) rotate(-45)" fill="#fff"/><polygon points="25 23 24 23 24 24 23 24 23 22 22 22 22 24 21 24 21 23 20 23 20 24 19 24 19 22 18 22 18 24 17 24 17 22 16 22 16 24 15 24 15 22 14 22 14 24 13 24 13 23 12 23 12 24 11 24 11 22 10 22 10 24 9 24 9 22 8 22 8 24 7 24 7 23 6 23 6 24 6 25 26 25 26 24 25 24 25 23" fill="#fff"/><rect x="6" y="10" width="1" height="1" fill="#fff"/><rect x="14" y="10" width="1" height="1" fill="#fff"/><rect x="10" y="14" width="1" height="1" fill="#fff"/><rect x="7.1716" y="12.8284" width="1" height="1" transform="translate(-7.1777 9.3284) rotate(-45)" fill="#fff"/><rect x="7.1716" y="7.1716" width="1" height="1" transform="translate(-3.1777 7.672) rotate(-45.0025)" fill="#fff"/></g><rect x="4" y="4" width="24" height="24" fill="none" opacity="0"/></g></g></svg>