<?xml version="1.0" encoding="UTF-8"?><svg id="a" xmlns="http://www.w3.org/2000/svg" viewBox="0 0 24 24"><rect width="24" height="24" fill="none"/><g><g><polygon points="9 9 10 9 10 8.59 10 8 9 8 9 9" fill="#fff"/><rect x="9" y="10" width="1" height="1" fill="#fff"/><rect x="9" y="12" width="1" height="1" fill="#fff"/><polygon points="8.59 17 3.41 17 6 14.41 6 13 1 18 7.59 18 8.59 17" fill="#fff"/><polygon points="19 13 20 12 19 12 19 13" fill="#fff"/><path d="M10,15.59v-.59h-2V6h3v1.59l1-1v-.88l1-1v1.29h1V3h-5l-2,2v11h2.59l.41-.41Zm-.59-11.59h2.88l-1,1h-2.88l1-1Z" fill="#fff"/></g><g><polygon points="21.59 16 19 16 19 17 20.59 17 21.59 16" fill="#fff" opacity=".4"/><polygon points="23.21 16.79 24 16 22.41 16 23.21 16.79" fill="#fff" opacity=".4"/><rect x="13" y="16" width="1" height="1" fill="#fff" opacity=".4"/><path d="M14.59,19.71l1.41-1.41V9.71l1-1v8.88l-.15,.15,.71,.71,.44-.44V7h-5l-2,2v11h3.88l-.29-.29Zm-1.17-11.71h2.88l-1,1h-2.88l1-1Zm-1.41,2h3v9h-3V10Z" fill="#fff" opacity=".4"/><polygon points="15.88 21 7.41 21 10 18.41 10 17 5 22 16.88 22 15.88 21" fill="#fff" opacity=".4"/><rect x="13" y="14" width="1" height="1" fill="#fff" opacity=".4"/><rect x="13" y="12" width="1" height="1" fill="#fff" opacity=".4"/></g><polygon points="18.35 22.06 16 19.71 16.71 19 18.35 20.65 22 17 22.71 17.71 18.35 22.06" fill="#fff"/></g></svg>