<?xml version="1.0" encoding="UTF-8"?><svg id="a" xmlns="http://www.w3.org/2000/svg" viewBox="0 0 24 24"><rect width="24" height="24" fill="none"/><g><path d="M15.54,15.52c.9-.9,1.46-2.15,1.46-3.52s-.56-2.62-1.46-3.52l-.71,.71c.72,.72,1.17,1.72,1.17,2.82s-.45,2.1-1.17,2.82l.71,.71Z" fill="#2f3541"/><path d="M19.07,19.04l.71,.71c1.99-1.98,3.22-4.72,3.22-7.75s-1.23-5.77-3.22-7.75l-.71,.71c1.81,1.8,2.93,4.3,2.93,7.04s-1.12,5.24-2.93,7.04Z" fill="#2f3541"/><path d="M16.95,16.93l.71,.71c1.45-1.44,2.34-3.44,2.34-5.64s-.9-4.19-2.34-5.64l-.71,.71c1.27,1.26,2.05,3.01,2.05,4.93s-.79,3.67-2.05,4.93Z" fill="#2f3541"/><path d="M8.46,15.52l.71-.71c-.72-.72-1.17-1.72-1.17-2.82s.45-2.1,1.17-2.82l-.71-.71c-.9,.9-1.46,2.15-1.46,3.52s.56,2.62,1.46,3.52Z" fill="#2f3541"/><path d="M4.93,19.04c-1.81-1.8-2.93-4.3-2.93-7.04s1.12-5.24,2.93-7.04l-.71-.71c-1.99,1.98-3.22,4.72-3.22,7.75s1.23,5.77,3.22,7.75l.71-.71Z" fill="#2f3541"/><path d="M6.34,17.64l.71-.71c-1.27-1.26-2.05-3.01-2.05-4.93s.79-3.67,2.05-4.93l-.71-.71c-1.45,1.44-2.34,3.44-2.34,5.64s.9,4.19,2.34,5.64Z" fill="#2f3541"/><path d="M12,13.99c1.1,0,2-.89,2-1.99s-.9-1.99-2-1.99-2,.89-2,1.99,.9,1.99,2,1.99Zm0-2.99c.55,0,1,.45,1,1s-.45,1-1,1-1-.45-1-1,.45-1,1-1Z" fill="#2f3541"/></g></svg>