<?xml version="1.0" encoding="UTF-8"?><svg id="a" xmlns="http://www.w3.org/2000/svg" viewBox="0 0 24 24"><rect width="24" height="24" fill="none"/><rect id="b" width="24" height="24" fill="none"/><path d="M19,4v-1H5v1h6.94l-1,2h-2.94c-1.66,0-3,1.34-3,3v7c0,1.66,1.34,3,3,3l-2,2h1.5l2-2h5l2,2h1.5l-2-2c1.66,0,3-1.34,3-3v-7c0-1.66-1.34-3-3-3h-3.94l1-2h5.94ZM6,10h12v3H6v-3Zm12,6c0,1.1-.9,2-2,2H8c-1.1,0-2-.9-2-2v-2h12v2Zm0-7H6c0-1.1,.9-2,2-2h8c1.1,0,2,.9,2,2Zm-7,7c0-.55,.45-1,1-1s1,.45,1,1-.45,1-1,1-1-.45-1-1Z" fill="#fff"/></svg>