<?xml version="1.0" encoding="UTF-8"?><svg id="a" xmlns="http://www.w3.org/2000/svg" xmlns:xlink="http://www.w3.org/1999/xlink" viewBox="0 0 48 48"><defs><linearGradient id="b" x1="18.38" y1="24.63" x2="20.56" y2="28.93" gradientTransform="matrix(1, 0, 0, 1, 0, 0)" gradientUnits="userSpaceOnUse"><stop offset="0" stop-color="#f49"/><stop offset="1" stop-color="#26f"/></linearGradient><linearGradient id="c" x1="17.7" y1="23.44" x2="19.67" y2="27.46" xlink:href="#b"/><linearGradient id="d" x1="18.52" y1="24.33" x2="19.78" y2="26.86" xlink:href="#b"/><linearGradient id="e" x1="19.8" y1="25.67" x2="21.15" y2="28.92" xlink:href="#b"/><linearGradient id="f" x1="24.31" y1="24.35" x2="29.22" y2="34.58" xlink:href="#b"/><linearGradient id="g" x1="20.97" y1="14.42" x2="28.72" y2="29.92" xlink:href="#b"/><linearGradient id="h" x1="26.7" y1="24.97" x2="30.73" y2="32.54" xlink:href="#b"/><linearGradient id="i" x1="17.68" y1="13.69" x2="20.82" y2="20.04" xlink:href="#b"/><linearGradient id="j" x1="20.28" y1="13.97" x2="23.23" y2="19.83" xlink:href="#b"/><linearGradient id="k" x1="21.72" y1="18.58" x2="26.82" y2="28.96" xlink:href="#b"/><linearGradient id="l" x1="22.03" y1="30.32" x2="42.53" y2="30.32" gradientTransform="matrix(1, 0, 0, 1, 0, 0)" gradientUnits="userSpaceOnUse"><stop offset="0" stop-color="#2f3541" stop-opacity=".4"/><stop offset="1" stop-color="#2f3541" stop-opacity="0"/></linearGradient><linearGradient id="m" x1="26.92" y1="16.02" x2="32.02" y2="26.41" xlink:href="#b"/><linearGradient id="n" x1="25.87" y1="11.31" x2="30.71" y2="23.81" xlink:href="#b"/></defs><g><polyline points="44 30.5 24 20.5 4 30.5 24 40.5 44 30.5 44 30.5" fill="#f2f6ff"/><polygon points="24 40.5 24 42.5 4 32.5 4 30.5 24 40.5" fill="#fff" opacity=".2"/><polygon points="24 40.5 24 42.5 44 32.5 44 30.5 24 40.5" fill="#2f3541"/></g><g><polygon points="16.3 29.03 21.95 26.3 24.07 27.33 18.42 30.06 16.3 29.03" fill="url(#b)" opacity=".8"/><g opacity=".8"><polygon points="16.31 26.4 21.96 23.68 21.95 26.3 16.3 29.03 16.31 26.4" fill="url(#c)"/><polygon points="15.61 26.06 21.25 23.33 21.96 23.68 16.31 26.4 15.61 26.06" fill="url(#d)"/><polygon points="18.42 30.06 24.07 27.33 24.06 28.21 18.42 30.93 18.42 30.06" fill="url(#e)"/></g></g><g opacity=".8"><polygon points="24.09 32.82 29.74 30.1 31.86 31.13 26.21 33.86 24.09 32.82" fill="url(#f)"/><polygon points="26.93 31.58 32.58 28.86 32.56 32.35 26.91 35.08 26.93 31.58" fill="url(#g)"/><polygon points="26.23 31.24 31.87 28.51 32.58 28.86 26.93 31.58 26.23 31.24" fill="url(#h)"/></g><g opacity=".8"><polygon points="16.37 16.79 22.01 14.06 22 16.68 16.35 19.41 16.37 16.79" fill="url(#i)"/><polygon points="18.49 16.94 24.14 14.22 24.14 15.1 18.49 17.82 18.49 16.94" fill="url(#j)"/><polygon points="15.66 15.56 21.31 12.84 24.14 14.22 18.49 16.94 15.66 15.56" fill="url(#k)"/></g><polygon points="32.74 24.87 28.4 25.08 23.99 30.6 21.59 29.4 18.42 30.93 24.92 32.42 26.23 31.79 26.23 31.24 31.87 28.51 32.58 28.86 32.56 32.35 26.91 35.08 33.47 35.77 44 30.5 32.74 24.87" fill="url(#l)"/><rect x="12.11" y="11.96" width="24" height="24" fill="none"/><path d="M29,19.43l-4.99-2.43-5.01,2.42-1,.48v7.77l.66,.32,5.33,2.6,5.38-2.6,.63-.3v-7.78l-1-.49Zm-5.5,9.81l-4.03-1.97,4.03-1.94v3.91Zm0-5.02l-4.5,2.17v-5.25l4.5,2.19v.88Zm-3.99-3.94l4.5-2.17,4.52,2.21-4.5,2.17-4.52-2.21Zm4.99,8.96v-3.87l3.99,1.95-3.99,1.93Zm4.5-2.79l-4.5-2.19v-.88l4.5-2.17v5.25Z" fill="#2f3541"/><g><polygon points="23.5 29.25 19.47 27.28 23.5 25.33 23.5 29.25" fill="#fff3f8"/><polygon points="23.5 24.22 19 26.4 19 21.15 23.5 23.34 23.5 24.22" fill="#fff3f8"/><polygon points="19.51 20.28 24.01 18.11 28.53 20.32 24.03 22.49 19.51 20.28" fill="#fff3f8"/><polygon points="24.5 29.24 24.5 25.37 28.49 27.31 24.5 29.24" fill="#fff3f8"/><polygon points="29 26.45 24.5 24.25 24.5 23.37 29 21.2 29 26.45" fill="#fff3f8"/></g><g><polygon points="16.31 26.4 16.3 29.03 18.42 30.06 18.42 30.93 15.59 29.55 15.61 26.06 16.31 26.4" fill="#2f3541"/><polygon points="26.93 31.58 26.91 35.08 24.08 33.7 24.09 32.82 26.21 33.86 26.23 31.24 26.93 31.58" fill="#2f3541"/><polygon points="26.99 21.09 26.97 24.59 26.26 24.24 26.28 21.62 24.16 20.59 24.16 19.71 26.99 21.09" fill="#2f3541"/><polygon points="18.49 16.94 18.49 17.82 16.37 16.79 16.35 19.41 15.64 19.06 15.66 15.56 18.49 16.94" fill="#2f3541"/></g><rect x="0" width="48" height="48" fill="none"/><g opacity=".8"><polygon points="24.16 19.71 29.81 16.98 32.64 18.36 26.99 21.09 24.16 19.71" fill="url(#m)"/></g><polygon points="26.99 21.09 32.64 18.36 32.62 21.86 26.97 24.59 26.99 21.09" fill="url(#n)" opacity=".8"/></svg>