<?xml version="1.0" encoding="UTF-8"?><svg id="a" xmlns="http://www.w3.org/2000/svg" viewBox="0 0 24 24"><rect x="0" y="0" width="24" height="24" fill="none"/><g><path d="M7,20h3v-7h-3v7Zm1-6h1v5h-1v-5Z" fill="#2f3541"/><path d="M3,20h3V7H3v13Zm1-12h1v11h-1V8Z" fill="#2f3541"/><path d="M11,20h3v-5h-3v5Zm1-4h1v3h-1v-3Z" fill="#2f3541"/><path d="M15,20h3v-3h-3v3Zm1-2h1v1h-1v-1Z" fill="#2f3541"/><polygon points="19.38 11.71 9.65 3 9 3.72 18.71 12.41 17.11 14 21 14 21 10.13 19.38 11.71" fill="#2f3541"/></g></svg>