<?xml version="1.0" encoding="UTF-8"?><svg id="a" xmlns="http://www.w3.org/2000/svg" viewBox="0 0 24 24"><rect width="24" height="24" fill="none"/><g><path d="M3.5,14L.5,11H3.06C3.56,6.5,7.37,3,12,3c4.97,0,9,4.03,9,9s-4.03,9-9,9c-3.43,0-6.41-1.92-7.93-4.74l.75-.75c1.3,2.66,4.03,4.49,7.18,4.49,4.41,0,8-3.59,8-8s-3.59-8-8-8c-4.07,0-7.44,3.06-7.93,7h2.43l-3,3Z" fill="#fff"/><polygon points="9.11 10.82 9.82 10.11 12 12.29 15.6 8.7 16.3 9.4 12 13.71 9.31 11.02 9.33 11 9.29 11 9.11 10.82" fill="#fff"/></g></svg>