<?xml version="1.0" encoding="UTF-8"?><svg id="a" xmlns="http://www.w3.org/2000/svg" viewBox="0 0 24 24"><g opacity=".2"><polygon points="14.16 13.75 14.4 13.87 15.53 13.33 13.41 12.29 7.76 15.02 9.88 16.05 14.15 13.99 14.16 13.75" fill="#fff"/><g><polygon points="9.88 16.05 9.86 20.42 11.28 19.73 11.3 15.86 12.01 16.21 11.99 19.39 14.13 18.36 14.15 13.99 9.88 16.05" fill="#fff"/><polygon points="14.4 13.87 14.86 14.1 14.84 18.01 15.5 17.7 15.53 13.33 14.4 13.87" fill="#fff"/></g><path d="M3.98,3.94L9.62,1.21s.09-.04,.13-.06L4.1,3.88s-.09,.04-.13,.06Z" fill="#fff"/><path d="M12.09,7.07l-.44-1.09-1.9-4.83L4.1,3.88l1.9,4.83,.44,1.09,1.6,4.06,5.65-2.73-1.6-4.06Zm-6.15-1.66l-.28-.7c.13,.03,.27,.07,.4,.12l-.12,.58Zm2.77,7.02l-1.3-3.31,.61-2.75c.4,.5,.74,1.1,.99,1.73,.7,1.76,.55,3.5-.29,4.33Z" fill="#fff"/><g><polygon points="14.15 15 12.73 15.68 12.69 21.8 14.12 21.12 14.15 15" fill="#fff"/><polygon points="14.86 14.65 14.83 20.77 18.34 19.08 18.37 12.96 14.86 14.65" fill="#fff"/></g><polygon points="14.16 13.75 14.86 14.1 14.86 14.65 18.37 12.96 16.25 11.92 10.6 14.64 12.73 15.68 14.15 15 14.16 13.75" fill="#fff"/><path d="M4.61,3.75L10.26,1.03c.56-.08,1.15,.04,1.74,.33,.2,.1,.41,.21,.61,.35l-5.65,2.73c-.2-.14-.41-.25-.61-.35-.59-.29-1.18-.41-1.74-.33Z" fill="#fff"/><path d="M6.96,4.43l-.75,3.38,1.65-.8,.14-.64c.11,.13,.2,.29,.29,.43l3.56-1.72,.75-3.38-5.65,2.73Z" fill="#fff"/><path d="M14.32,10.94l-5.65,2.73c1.51-.73,1.94-3.17,.93-5.74-.49-1.24-1.24-2.29-2.07-3.04l5.65-2.73c.83,.75,1.58,1.8,2.07,3.04,1.01,2.57,.58,5.01-.93,5.74Z" fill="#fff"/><polygon points="14.16 13.75 14.86 14.1 14.82 21.28 19.76 18.9 19.8 11.03 14.16 13.75" fill="#fff"/><polygon points="13.45 12.53 19.1 9.81 21.22 10.84 15.58 13.57 13.45 12.53" fill="#fff"/><polygon points="15.58 13.57 21.22 10.84 21.17 20.46 15.52 23.18 15.58 13.57" fill="#fff"/></g><rect x="0" width="24" height="24" transform="translate(24 24) rotate(180)" fill="none"/><g><path d="M7.73,19.39l.02-4.37,2.12,1.04-.02,4.37-2.12-1.04Zm.73-3.15v2.62l.69,.35v-2.62l-.69-.35" fill="#fff"/><path d="M6.44,9.8l1.6,4.06c-.56,.08-1.16-.04-1.74-.33-1.29-.63-2.54-2.04-3.25-3.85-1.04-2.63-.56-5.14,1.05-5.79l1.9,4.83,.44,1.09Zm-2.79-.29c.57,1.43,1.56,2.61,2.65,3.14,.23,.11,.46,.19,.68,.24l-1.15-2.93-.43-1.08-1.46-3.7c-.84,.84-.99,2.57-.29,4.34" fill="#fff"/><path d="M10.56,20.77l.03-6.12,2.13,1.04-.03,6.12-2.13-1.04Zm.74-4.9l-.02,4.38,.71,.35,.02-4.38-.71-.35" fill="#fff"/><path d="M6.35,4.08c-.59-.29-1.18-.41-1.74-.33l1.6,4.06,.75-3.38c-.2-.14-.41-.25-.61-.35Zm-.41,1.33l-.28-.7c.13,.03,.27,.07,.4,.12l-.12,.58Z" fill="#fff"/><path d="M7.53,4.88c.83,.75,1.58,1.8,2.07,3.04,1.04,2.64,.55,5.15-1.06,5.8l-1.9-4.83,.89-4.01Zm1.17,7.54c.84-.83,.99-2.57,.29-4.33-.25-.63-.59-1.23-.99-1.73l-.61,2.75,1.3,3.31" fill="#fff"/><path d="M13.45,12.53l2.12,1.04-.05,9.62-2.12-1.04,.05-9.62Zm1.37,9.43l.04-7.87-.71-.35-.04,7.87,.71,.35" fill="#fff"/></g></svg>