<?xml version="1.0" encoding="UTF-8"?><svg id="a" xmlns="http://www.w3.org/2000/svg" viewBox="0 0 24 24"><rect y="0" width="24" height="24" fill="none"/><g><path d="M12,6c-3.04,0-5.5,2.46-5.5,5.5,0,1.93,1,3.62,2.5,4.61v2.89c0,.55,.45,1,1,1h4c.55,0,1-.45,1-1v-2.89c1.5-.98,2.5-2.68,2.5-4.61,0-3.04-2.46-5.5-5.5-5.5Zm2.45,9.27l-.45,.3v3.44h-4v-3.44l-.45-.3c-1.28-.84-2.05-2.25-2.05-3.77,0-2.48,2.02-4.5,4.5-4.5s4.5,2.02,4.5,4.5c0,1.52-.77,2.93-2.05,3.77Z" fill="#2f3541"/><path d="M10,21.25c0,.41,.34,.75,.75,.75h2.5c.41,0,.75-.34,.75-.75v-.25h-4v.25Z" fill="#2f3541"/><rect x="2.5" y="11" width="2.5" height="1" fill="#2f3541"/><rect x="11.5" y="2" width="1" height="2.5" fill="#2f3541"/><rect x="19" y="11" width="2.5" height="1" fill="#2f3541"/><rect x="5.67" y="4.42" width="1" height="2.5" transform="translate(-2.2 6.02) rotate(-45)" fill="#2f3541"/><rect x="16.58" y="5.17" width="2.5" height="1" transform="translate(1.22 14.27) rotate(-45)" fill="#2f3541"/></g></svg>