<?xml version="1.0" encoding="UTF-8"?><svg id="a" xmlns="http://www.w3.org/2000/svg" viewBox="0 0 24 24"><rect width="24" height="24" fill="none"/><rect width="24" height="24" fill="none"/><g><path d="M20.7,13.83c.17,.66,.27,1.33,.3,2.01l-3.78-.33,3.48-1.68m.6-1.4l-7.79,3.75,8.46,.75c.02-.25,.04-.5,.04-.75,0-1.32-.26-2.59-.71-3.75h0Z" fill="#fff"/><path d="M3.28,13.92l3.47,1.62-3.75,.36c.02-.67,.11-1.33,.28-1.98m-.61-1.39c-.43,1.13-.67,2.36-.67,3.65,0,.28,.02,.55,.04,.82l8.46-.82-7.83-3.65h0Z" fill="#fff"/><path d="M17.03,8.58c.57,.39,1.09,.85,1.56,1.37l-3.18,2.27,1.62-3.64m-.45-1.44l-3.58,8.02,7.04-5.02c-.91-1.25-2.09-2.29-3.46-3.01h0Z" fill="#fff"/><path d="M12,7c.36,0,.73,.02,1.1,.07l-1.08,3.88-1.1-3.88c.37-.05,.73-.07,1.08-.07m0-1c-.81,0-1.59,.11-2.34,.29l2.37,8.36,2.32-8.36c-.76-.19-1.54-.29-2.35-.29h0Z" fill="#fff"/><path d="M6.73,8.74l1.71,3.47-3.15-2.14c.43-.5,.92-.94,1.45-1.33m.4-1.45c-1.31,.74-2.43,1.78-3.29,3.01l7.16,4.86-3.87-7.87h0Z" fill="#fff"/></g></svg>