<?xml version="1.0" encoding="UTF-8"?><svg id="a" xmlns="http://www.w3.org/2000/svg" viewBox="0 0 24 24"><rect width="24" height="24" fill="none"/><g><g><g><path d="M18.76,4.24H5.21V14.38c0,3.56,3.04,6.45,6.77,6.45s6.77-2.89,6.77-6.45V4.24Z" fill="#f2db38"/><path d="M5.21,12.85v1.57c0,3.52,3.02,6.42,6.74,6.42,1.48,0,2.93-.47,4.13-1.35L5.21,12.85Z" fill="#c2172e"/><path d="M6.62,9.3c.08-.29,0-.61-.23-.82,.17,0,.33,.09,.42,.23,.1,.15,.17,.33,.2,.5l-.4,.08Z" fill="#c2172e"/><path d="M5.93,9.88c-.1-.44-.28-.37-.55-.38,.11-.14,.29-.2,.47-.17,.17,.02,.33,.07,.48,.16l-.4,.39Z" fill="#c2172e"/><path d="M6.23,9.49c0-.43-.38-.5-.53-.55,.14-.09,.32-.1,.48-.03,.18,.07,.34,.18,.49,.31l-.43,.27Z" fill="#c2172e"/><path d="M7,9.15c.18-.17,.25-.43,.19-.67,.34,.27,.23,.67,.19,.77l-.37-.1Z" fill="#c2172e"/><path d="M7.27,9.25c.51-.08,.44-.21,.55-.37,.06,.17-.11,.54-.31,.66l-.24-.29Z" fill="#c2172e"/><path d="M8.42,7.64c-.39-.62-1.31-.84-1.67-1-.39-.24-.68-.6-.85-1.03,0-.05,0-.07-.04,0-.25,.9,.5,1.17,1.23,1.39,0,0,1.08,.22,1.05,.63h.28Z" fill="#c2172e"/><path d="M7.87,6.37c-.45,.05-.48,.25-.58,.39-.06-.21-.02-.44,.09-.63l.49,.23Z" fill="#fff"/><path d="M7.27,6.83v-.04c-.06-.23-.03-.47,.1-.67l.55,.27c-.36,.04-.44,.17-.53,.3-.02,.04-.05,.07-.08,.11l-.03,.03Zm.13-.67c-.1,.17-.13,.37-.1,.57,.02-.02,.03-.04,.05-.07,.09-.13,.17-.26,.48-.31l-.43-.19Z" fill="#171714"/><path d="M6.99,6.03c-.08,.2-.12,.41-.09,.63,.13-.15,.2-.42,.65-.47l-.56-.16Z" fill="#fff"/><path d="M6.87,6.73v-.05c-.03-.23,0-.46,.09-.67l.6,.2c-.36,.04-.47,.22-.57,.37-.03,.04-.05,.08-.08,.12l-.04,.04Zm.12-.69c-.07,.18-.1,.38-.09,.57,.01-.02,.03-.04,.04-.07,.09-.14,.2-.31,.5-.38l-.45-.13Z" fill="#171714"/><path d="M7.79,7.58c-.4-.23-.3-.23-.36-.43-.11,.18-.22,.23-.15,.4l.51,.03Z" fill="#fff"/><path d="M7.26,7.57c-.06-.15,0-.23,.07-.34,.02-.03,.05-.07,.08-.12l.03-.05,.02,.05s.02,.09,.03,.12c.02,.1,.02,.15,.34,.34h-.56Zm.04-.03l.42,.02c-.24-.15-.26-.21-.28-.32,0-.02,0-.04-.01-.06-.02,.03-.04,.05-.05,.08-.07,.1-.11,.16-.07,.28Z" fill="#171714"/><path d="M6.9,7.48c-.07-.16-.04-.35,.07-.49,.02,.22,.15,.41,.34,.53l-.41-.04Z" fill="#fff"/><path d="M6.88,7.51c-.09-.19-.06-.42,.08-.58l.04-.04v.06c.02,.23,.15,.44,.34,.57h-.46Zm.04-.04l.33,.03c-.15-.12-.25-.3-.28-.5-.09,.14-.11,.31-.04,.47Z" fill="#171714"/><path d="M9.72,5.52s.27,.26,.42,.4c.03,0,.25-.09,.39-.06,0-.19-.05-.29-.3-.46-.15-.1-.37,0-.52,.12" fill="#171714"/><path d="M8.43,13.4c-.23-.49-.48-.36-.72-.45,.08-.21,.47-.18,.58-.12s.3,.32,.37,.4l-.24,.16Z" fill="#c2172e"/><path d="M8.31,14.02c-.19-.13-.44-.16-.66-.09,.03-.13,.13-.23,.26-.26,.12-.05,.26-.07,.39-.08v.43Z" fill="#c2172e"/><path d="M8.34,13.73c-.16-.25-.73-.22-.86-.19,.08-.14,.2-.24,.35-.28,.22-.02,.45,0,.66,.08l-.16,.39Z" fill="#c2172e"/><path d="M8.6,13.25c.03-.26-.05-.52-.21-.72,.17,0,.34,.21,.42,.3,.07,.08,.12,.19,.13,.29l-.34,.12Z" fill="#c2172e"/><path d="M8.87,13.17c.31-.22,.2-.41,.21-.55,.12,.12,.19,.28,.18,.45,0,.1-.04,.09-.1,.18l-.29-.09Z" fill="#c2172e"/><path d="M11.74,15.04c-.07-.26-.32-.43-.58-.39,.14-.12,.32-.17,.5-.15,.16,0,.31,.18,.45,.25l-.37,.29Z" fill="#c2172e"/><path d="M11.86,15.71c-.28-.03-.55,.08-.74,.29-.04-.17,.02-.35,.16-.46,.13-.1,.28-.18,.44-.23l.14,.4Z" fill="#c2172e"/><path d="M11.74,15.34c-.23-.15-.53-.15-.77,0,0-.18,.13-.26,.3-.34,.19-.03,.39-.03,.58,0l-.12,.34Z" fill="#c2172e"/><path d="M11.91,14.65c-.05-.22-.22-.4-.44-.46,.18-.05,.37-.02,.52,.08,.13,.07,.15,.13,.22,.25l-.31,.14Z" fill="#c2172e"/><path d="M12.15,14.57c.25-.35,.15-.36,.08-.54,.14-.02,.27,.08,.3,.22,.04,.1,.05,.21,.03,.32h-.41Z" fill="#c2172e"/><path d="M15.12,17.06c-.43-.3-.52-.31-.73-.28,.1-.19,.16-.23,.35-.25,.2,0,.39,.05,.58,.12l-.2,.41Z" fill="#c2172e"/><path d="M15.52,17.66c-.47,.28-.53,.28-.66,.51-.07-.17-.04-.37,.08-.52,.1-.14,.22-.26,.37-.35l.22,.36Z" fill="#c2172e"/><path d="M15.24,17.5c-.25-.18-.58-.22-.86-.09,0-.15,.12-.28,.2-.35s.44-.07,.58-.11l.08,.54Z" fill="#c2172e"/><path d="M15.2,16.66c-.1-.26-.32-.46-.58-.54,.16-.11,.36-.14,.53-.07,.14,.05,.27,.14,.37,.25l-.33,.36Z" fill="#c2172e"/><path d="M15.4,16.5c.13-.29,.1-.62-.07-.89,.18,0,.35,.1,.45,.26,.06,.13,0,.3,0,.3l-.38,.32Z" fill="#c2172e"/><path d="M5.84,9.74c-.03,.27-.03,.54,0,.8,.03,.08,.08,.15,.14,.21,.13,.16,.38,.14,.35,.27s-.22-.09-.32-.07,0,.12,0,.15c.17,.27,.28,.59,.58,.7,.44,.1,.91,.09,1.34-.04,.18,0,.34-.07,.52-.11,.31-.07,.62-.16,.92-.27,.15-.05,.39-.11,.44-.3,.03-.23,.03-.46,0-.69-.03-.2-.09-.4-.16-.59-.09-.24-.22-.47-.39-.66-.66,.48-1.12,1.25-1.91,1.54,.06,.05,.17,.4,.12,.47-.03,.02-.06,.02-.09,0-.18-.36-.21-.79-.08-1.17,.08-.21,.2-.41,.35-.59-.58-.91-1.84,.19-1.84,.3" fill="#171714"/><path d="M15.19,11.7c-.05-.33-.2-.64-.43-.89,0,0,.03-.05,.05-.05,.13,0,.2,.11,.28,.21,.09,.13,.16,.28,.19,.44,.19,.7,.14,1.4,.31,2.11,.03,.15,.07,.3,.14,.44,.38,.6,.69,1.24,.95,1.91,.11,.27,.11,.57,0,.83,0,.05-.11,.16-.15,.06s.09-.28,0-.4c-.14-.15-.32-.25-.52-.28-.06-.02-.11-.06-.15-.1-1.16,.3-.9,1.85-.58,1.88,.18-.07,.08-.04,.3-.11,.38-.13,.8,0,1.16-.18s.58-.59,.87-.87c.11-.09,.19-.21,.24-.34,.12-.85,.18-1.71,.17-2.57,.02-.36,.01-.73-.04-1.09-.09-.47-.21-.93-.37-1.38,0-.04,.02-.07,.05-.08,.1,.09,.16,.2,.19,.33,.04,.12,.1,.4,.2,.44s.08-.1,.11-.15c.09-.2,.09-.43,0-.63-.03-.07-.04-.15-.08-.21-.23-.39-.52-.74-.87-1.03-.7-.61-1.5-1.09-2.37-1.42-.24-.09-.49-.18-.73-.29-.6-.25-1.22-.45-1.86-.59h-.26s-.08-.02-.08-.06,.02-.08,.06-.09h0c.13-.04,.27-.06,.41-.06-.22-.13-.48-.18-.73-.14,.15-.13,.35-.19,.54-.16-.27-.1-.56-.13-.85-.09,.11-.07,.24-.11,.38-.13-.27-.09-.56-.06-.8,.08-.05,.04-.64,.04-.52-.2,.06-.13,.23-.04,.35-.11s.22-.06,.2-.45c0-.23-.31-.29-.45-.3-.12,0-.25,.02-.37,.05-.08,0-.26-.24-.4-.36-.22-.16-.48-.28-.75-.33-.15-.04-.31-.04-.47,0-.07,0-.12,.11-.17,.14-.26,.05-.53,.05-.8,0-.16,0-.28-.18-.39-.3,0,0-.1,0-.09,0,.08,.32-.19,.46-.35,.66-.04,.05-.05,.11-.03,.16,.03,.06,0,.07,.15,.13s1.31,.31,1.49,1.45c-.49-.13-.99-.21-1.49-.23-.04,.02-.08,.04-.11,.06-.05,.04,.03,.12,.05,.16,.59-.03,1.17,.13,1.66,.46,.2,.12,.38,.26,.53,.43,.29,.3,.53,.64,.72,1.01,.28,.68,.39,1.42,.33,2.15-.01,.25-.05,.5-.12,.74-.08,.22-.17,.41-.27,.62s-.1,.73-.2,.79c-.02,.02-.07,.02-.09,0-.03-.03-.04-.27-.03-.35,.07-.4-.37-.42-.73-.28s-.48,.82-.48,.82c0,0,.28,.41,.47,.47,.62,.21,1.84-.06,1.9-.23,.43-1.21,.96-2.39,1.56-3.52-.03-.14-.2-.29-.31-.45,0,0,0-.09,0-.08,.19,.08,.35,.21,.47,.38,.07,.13-.27,.71-.22,.72,.96-.02,1.92,.07,2.86,.26,0,0,.09,.08,.06,.09-.71,.09-1.74,.05-1.92,.9,.14,.7,.22,1.41,.24,2.12,0,.26,.4,.17,.58,.25,0,0,0,.06-.03,.08-.09,.02-.18,.02-.27,0-.23-.05-.46-.13-.67-.23-.11-.05-.17-.25-.31-.28-1.29-.37-1.07,1.25-.9,1.3s.3,.11,.4,.05-.03-.2,.05-.29,.05,0,.09,0,0,.08,0,.12,.04,.16,.1,.22,.18,.04,.27,.06c.38,.09,.78,.09,1.16,0,.33-.15,.6-.38,.81-.68,.1-.37,.08-.75,.2-1.11,.09-.27,.24-.52,.44-.73,.06-.06,.17-.12,.17-.19l-.12-1.51Z" fill="#171714"/><path d="M15.23,12.18c-.2-.13-.45-.18-.68-.13,.08-.11,.2-.17,.34-.18,.11-.01,.22,0,.32,.04l.02,.26Z" fill="#c2172e"/><path d="M8.77,6.08s-.12-.04-.12-.11,.09-.07,.13-.09,.05-.11-.08-.11c-.12,.01-.22,.11-.23,.23,0,.13,.19,.23,.23,.23,.04,0,.07,0,.09-.07s-.02-.1-.02-.1Z" fill="#fff"/><path d="M8.81,5.66c.05,0,.08,.06,.08,.22s-.1,.45,0,.45,0-.21,.06-.33,0-.48-.15-.48c-.05,0-.1,.04-.1,.07s.05,.07,.1,.07" fill="#fff"/></g><polygon points="8.75 4.16 18.79 10.29 18.79 4.16 8.75 4.16" fill="#c2172e"/></g><path d="M11.99,21c-1.95,0-3.89-.78-5.19-2.1-1.18-1.19-1.81-2.77-1.8-4.56V4h14V14.34c0,4.54-4.18,6.66-7.01,6.66ZM5.42,4.42V14.34c0,1.68,.58,3.15,1.68,4.26,1.22,1.24,3.05,1.98,4.89,1.98,2.66,0,6.59-1.98,6.59-6.24V4.42H5.42Z" fill="#171714"/></g></svg>