<?xml version="1.0" encoding="UTF-8"?><svg id="a" xmlns="http://www.w3.org/2000/svg" viewBox="0 0 24 24"><g><g opacity=".2"><polygon points="6.73 8.04 12.37 5.31 13.4 7.08 7.75 9.81 6.73 8.04" fill="#2f3541"/></g><g opacity=".2"><path d="M4.65,4.76l5.65-2.73c.24-.12,.55-.11,.88,.05,.78,.38,1.41,1.48,1.41,2.45,0,.32-.08,.58-.21,.78l-5.65,2.73c.13-.2,.21-.46,.21-.78,0-.97-.63-2.07-1.41-2.45-.33-.16-.64-.17-.88-.05Z" fill="#2f3541"/></g><g opacity=".2"><polygon points="11.56 16.29 17.21 13.57 19.37 15.96 13.72 18.69 11.56 16.29" fill="#2f3541"/></g><g opacity=".2"><path d="M19.98,16.03c-.23-.11-.43-.12-.61-.07l-5.65,2.73c.17-.06,.38-.04,.61,.07,.59,.29,1.05,1.1,1.05,1.82,0,.42-.16,.72-.41,.84l5.65-2.73c.25-.12,.41-.42,.41-.84,0-.72-.46-1.54-1.05-1.82Z" fill="#2f3541"/></g><g opacity=".2"><path d="M4.03,13.86c.01,.1,.02,.21,.02,.31,0,.1-.01,.19-.03,.27,0,.03-.02,.05-.02,.08-.01,.05-.03,.1-.05,.15-.01,.03-.03,.05-.04,.07-.02,.04-.05,.08-.08,.11-.02,.02-.04,.04-.06,.06-.03,.03-.06,.05-.1,.07-.01,0-.02,.02-.04,.03l2.41-1.16h-2.02Z" fill="#2f3541"/></g><g opacity=".2"><path d="M2.63,12.26s.03,0,.05,0c.1,0,.21,.03,.32,.09,.24,.12,.46,.32,.63,.57l2.62-1.26c.11-.77,.43-1.33,.91-1.63l-.02-.03-4.8,2.32s.02,0,.02,0c.08-.04,.17-.05,.27-.05Z" fill="#2f3541"/></g><g opacity=".2"><path d="M7.9,17.84s.04,0,.05-.01c.08-.03,.16-.05,.24-.07,.03,0,.06,0,.1-.01,.11,0,.23,0,.36,.03v-.3l-.75,.36Z" fill="#2f3541"/></g><g opacity=".2"><path d="M11.17,16.84c-.46,.42-1.08,.56-1.8,.32v.97l2.06-1-.26-.29Z" fill="#2f3541"/></g><g opacity=".2"><path d="M9.05,10.04c.56,.27,1.08,.73,1.52,1.3l1.63-1.6c-.2-.45-.3-.92-.3-1.38,0-.22,.04-.42,.09-.6l-4.24,2.05c.39-.05,.83,0,1.3,.23Z" fill="#2f3541"/></g><g opacity=".2"><path d="M13.26,19.54c0-.13,.02-.23,.05-.33l-1.87-2.08-2.07,1c.81,.59,1.41,1.77,1.4,2.83,0,.16-.02,.31-.05,.45,0,.05-.03,.08-.04,.13-.02,.09-.05,.17-.09,.25-.02,.04-.04,.08-.07,.12-.04,.06-.08,.12-.13,.18-.03,.03-.06,.06-.09,.09-.05,.04-.1,.08-.16,.12-.02,.01-.04,.03-.06,.05l3.51-1.69c-.2-.34-.33-.74-.33-1.11Z" fill="#2f3541"/></g><g opacity=".2"><path d="M12.71,10.59l-1.6,1.57,2.14-1.03c-.19-.15-.38-.33-.54-.54Z" fill="#2f3541"/></g><g opacity=".2"><path d="M12.59,6.97l5.65-2.73c.3-.15,.68-.14,1.09,.06,.98,.48,1.77,1.85,1.76,3.05,0,.7-.27,1.19-.69,1.39l-5.65,2.73c.41-.2,.68-.69,.69-1.39,0-1.2-.78-2.57-1.76-3.05-.41-.2-.79-.21-1.09-.06Z" fill="#2f3541"/></g><g opacity=".2"><path d="M14.75,11.48c.41-.2,.68-.69,.69-1.39h0l-4.33,2.08c.47,.85,.76,1.83,.76,2.75,0,.55-.12,1.01-.3,1.38l5.65-2.73c.18-.37,.3-.83,.3-1.38,0-.62-.14-1.26-.36-1.87l-2.4,1.16Z" fill="#2f3541"/></g><g opacity=".2"><path d="M6.2,12.15c0-.18,.03-.33,.05-.49l-2.62,1.26h2.63c-.04-.26-.06-.52-.06-.77Z" fill="#2f3541"/></g><path d="M14.33,18.75c-.23-.11-.43-.12-.61-.07l-2.16-2.39c.18-.37,.3-.82,.3-1.38,0-.92-.29-1.9-.76-2.75l1.6-1.57c.27,.35,.6,.65,.95,.82,.98,.48,1.78-.12,1.78-1.32,0-1.2-.78-2.57-1.76-3.05-.98-.48-1.77,.12-1.78,1.33,0,.46,.1,.93,.3,1.38l-1.63,1.6c-.44-.57-.96-1.03-1.52-1.3-.47-.23-.91-.28-1.3-.23l-1.03-1.77c.13-.2,.21-.46,.21-.78,0-.97-.63-2.07-1.41-2.45-.78-.38-1.43,.09-1.43,1.06,0,.96,.63,2.06,1.41,2.44,.26,.13,.5,.15,.72,.1l.93,1.61c-.58,.37-.95,1.1-.96,2.13,0,.25,.02,.51,.06,.76H3.63c-.17-.24-.39-.44-.63-.55-.59-.29-1.07,.06-1.07,.79,0,.72,.47,1.55,1.06,1.83,.59,.29,1.06-.07,1.07-.8,0-.1-.01-.21-.02-.31h2.46c.41,1.21,1.21,2.33,2.17,2.95v.97c-.82-.2-1.43,.38-1.44,1.45,0,1.2,.78,2.57,1.76,3.04,.98,.48,1.78-.11,1.78-1.32,0-1.06-.59-2.24-1.4-2.83v-.97c.73,.24,1.35,.11,1.81-.32l2.13,2.37c-.03,.1-.05,.21-.05,.33,0,.72,.47,1.55,1.06,1.83,.59,.29,1.06-.07,1.07-.8,0-.72-.46-1.54-1.05-1.82Zm-.66-10.85c.59,.29,1.06,1.11,1.06,1.83,0,.72-.49,1.08-1.07,.8-.58-.28-1.05-1.11-1.05-1.83,0-.72,.49-1.08,1.07-.8Zm-8.16-.47c-.4-.19-.71-.74-.7-1.22,0-.49,.32-.72,.71-.53,.39,.19,.71,.73,.7,1.22,0,.48-.32,.72-.71,.53Zm-2.52,6.66c-.2-.1-.36-.37-.35-.61,0-.24,.16-.36,.36-.26,.19,.09,.35,.37,.35,.6,0,.24-.16,.36-.35,.27Zm7.07,6.52c0,.72-.49,1.07-1.07,.79-.59-.29-1.05-1.1-1.05-1.82,0-.72,.48-1.08,1.07-.8,.59,.29,1.06,1.11,1.06,1.83Zm-1.04-4.45c-1.17-.57-2.12-2.22-2.11-3.66,0-1.44,.96-2.16,2.14-1.59,1.17,.57,2.12,2.22,2.11,3.66,0,1.45-.97,2.16-2.14,1.59Zm5.31,4.34c-.2-.1-.36-.37-.35-.61,0-.24,.16-.36,.36-.26,.19,.09,.35,.37,.35,.6,0,.24-.16,.36-.35,.27Z" fill="#2f3541"/></g><rect y="0" width="24" height="24" fill="none"/></svg>