<?xml version="1.0" encoding="UTF-8"?><svg id="a" xmlns="http://www.w3.org/2000/svg" viewBox="0 0 24 24"><g><path d="M20,11l-.5-2,.5-3c-2,0-3,1-3,1,0,0-1.46-.58-3.43-.86-.19,.35-.42,.66-.71,.93,2.09,.21,3.75,.85,3.77,.86l.6,.22,.46-.43s.38-.35,1.1-.56l-.28,1.67-.03,.21,.05,.2,.5,2,.07,.27,.2,.2,1.6,1.6-.67,2.69h-1.22c-1,0-1.93-.49-2.49-1.32l-.83,.56c.51,.76,1.26,1.3,2.1,1.57l-.49,.49-.17,.17-.07,.22-.77,2.32h-1.28v-2h-5v2h-1.66c-1.04-.84-4.99-4.42-3.41-8.65,.73-1.94,2-3.22,3.76-3.87-.33-.2-.62-.45-.87-.75-1.58,.71-2.98,2.01-3.83,4.26-.07,.18-.1,.35-.15,.52-.18,.29-.5,.48-.85,.48-.55,0-1-.45-1-1s.45-1,1-1v-1c-1.1,0-2,.9-2,2s.9,2,2,2c.2,0,.4-.04,.58-.1-.34,4.67,4.42,8.1,4.42,8.1h3v-2h3v2h3l1-3,1-1h2l1-4-2-2Z" fill="#2f3541"/><path d="M17,11.5c0-.83-.67-1.5-1.5-1.5s-1.5,.67-1.5,1.5,.67,1.5,1.5,1.5,1.5-.67,1.5-1.5Zm-2,0c0-.28,.22-.5,.5-.5s.5,.22,.5,.5-.22,.5-.5,.5-.5-.22-.5-.5Z" fill="#2f3541"/><path d="M8.85,6.37h0c.11,.1,.23,.19,.35,.26h0c.12,.08,.25,.14,.38,.2,.04,.02,.08,.02,.12,.04,.1,.03,.2,.07,.31,.09,.15,.03,.31,.05,.48,.05,.19,0,.37-.03,.55-.07,.04,0,.08-.03,.12-.04,.14-.04,.27-.09,.4-.15,.03-.01,.06-.03,.09-.05,.14-.07,.27-.16,.39-.26l.04-.03c.55-.46,.91-1.14,.91-1.91,0-1.38-1.12-2.5-2.5-2.5s-2.5,1.12-2.5,2.5c0,.75,.33,1.41,.85,1.87Zm1.65-3.37c.83,0,1.5,.67,1.5,1.5s-.67,1.5-1.5,1.5-1.5-.67-1.5-1.5,.67-1.5,1.5-1.5Z" fill="#2f3541"/><path d="M8.36,9.17l.51,.86c1.59-.94,3.69-.64,4.81-.38l.23-.97c-1.54-.36-3.75-.58-5.55,.49Z" fill="#2f3541"/></g><path id="b" d="M24,24H0V0H24" fill="none"/></svg>