<?xml version="1.0" encoding="UTF-8"?><svg id="a" xmlns="http://www.w3.org/2000/svg" viewBox="0 0 24 24"><rect y="0" width="24" height="24" fill="none"/><g><path d="M12.13,14.99l-.93,.93c.26,.04,.52,.08,.8,.08,2.76,0,5-2.24,5-5,0-.27-.03-.54-.08-.8l-.94,.94c-.07,2.1-1.76,3.78-3.85,3.85Z" fill="#2f3541"/><path d="M7.14,15.74c-1.59-.86-2.97-2.14-3.98-3.74,1.23-1.96,3.03-3.44,5.08-4.27-.76,.88-1.24,2.01-1.24,3.27,0,1.35,.54,2.57,1.41,3.47l.71-.71c-.69-.72-1.12-1.69-1.12-2.76,0-2.21,1.79-4,4-4,1.07,0,2.04,.43,2.76,1.12l1.32-1.32c-1.27-.5-2.64-.8-4.08-.8-4.28,0-8,2.42-10,6,1.05,1.88,2.58,3.42,4.4,4.48l.74-.74Z" fill="#2f3541"/><path d="M18.8,8.32l-.71,.71c1.08,.79,2.02,1.79,2.75,2.96-1.94,3.1-5.28,5-8.84,5-.58,0-1.15-.07-1.71-.17l-.85,.85c.83,.19,1.68,.32,2.56,.32,4.28,0,8-2.42,10-6-.81-1.45-1.91-2.69-3.2-3.68Z" fill="#2f3541"/><rect x="2" y="12.25" width="20.51" height="1" transform="translate(-5.43 12.4) rotate(-45)" fill="#2f3541"/></g></svg>