<?xml version="1.0" encoding="UTF-8"?><svg id="a" xmlns="http://www.w3.org/2000/svg" viewBox="0 0 24 24"><rect y="0" width="24" height="24" fill="none"/><g fill="none" opacity=".2"><path d="m3.55,4.6l5.65-2.73c2.07,1.01,4,1.39,5.67,1.01l-5.65,2.73c-1.67.38-3.6,0-5.67-1.01Z" fill="#fff"/></g><g fill="none" opacity=".2"><path d="m17.75,19.25l-5.65,2.73c1.65-.8,2.72-2.77,2.74-5.56l.03-6.3,5.65-2.73c-.02,2.89-.03,6.13-.03,6.3-.02,2.79-1.08,4.76-2.74,5.56Z" fill="#fff"/></g><g fill="none" opacity=".2"><path d="m9.22,5.61l5.65-2.73c1.66,2,3.59,3.5,5.66,4.51l-5.65,2.73c-2.07-1.01-3.99-2.51-5.66-4.51Z" fill="#fff"/></g><path d="m9.22,5.61c1.66,2.01,3.59,3.51,5.66,4.52l-.03,6.3c-.02,4.23-2.48,6.57-5.71,5.8-3.23-2.38-5.64-7.1-5.62-11.33l.03-6.3c2.07,1.01,4,1.39,5.68,1.01Zm4.85,10.47v-5.44c-1.84-1.01-3.61-2.36-5.08-4.03-1.47.25-2.92-.03-4.75-.81l-.03,5.45c-.02,3.67,2.04,7.88,4.92,10.09,2.87.93,4.96-1.38,4.94-5.25" fill="#fff"/><path d="m11.31,12.77c0,1.3-.78,2-1.79,1.72v1.79s1.05.52,1.05.52v.87s-1.07-.52-1.07-.52v.87s1.06.52,1.06.52v.87s-1.78-.86-1.78-.86l.02-4.41c-1-.7-1.77-2.15-1.76-3.45,0-1.45.97-2.15,2.14-1.58s2.12,2.21,2.11,3.66Zm-2.13.71c.78.38,1.42-.09,1.42-1.06s-.63-2.06-1.41-2.44-1.42.1-1.42,1.06.62,2.05,1.41,2.44" fill="#fff"/></svg>