<?xml version="1.0" encoding="UTF-8"?><svg id="a" xmlns="http://www.w3.org/2000/svg" xmlns:xlink="http://www.w3.org/1999/xlink" viewBox="0 0 48 48"><defs><linearGradient id="b" x1="21.15" y1="24.32" x2="21.2" y2="24.32" gradientTransform="matrix(1, 0, 0, 1, 0, 0)" gradientUnits="userSpaceOnUse"><stop offset="0" stop-color="#2f3541" stop-opacity=".4"/><stop offset="1" stop-color="#2f3541" stop-opacity="0"/></linearGradient><linearGradient id="c" x1="21.67" y1="28.74" x2="42.51" y2="28.74" xlink:href="#b"/><linearGradient id="d" x1="23.03" y1="23.96" x2="25.08" y2="28.04" gradientTransform="matrix(1, 0, 0, 1, 0, 0)" gradientUnits="userSpaceOnUse"><stop offset="0" stop-color="#f84"/><stop offset="1" stop-color="#f49"/></linearGradient><linearGradient id="e" x1="20.69" y1="21.52" x2="25.8" y2="31.83" xlink:href="#d"/><linearGradient id="f" x1="26.97" y1="24.33" x2="26.97" y2="29.01" xlink:href="#d"/><linearGradient id="g" x1="15.98" y1="13.55" x2="21.75" y2="13.55" xlink:href="#d"/><linearGradient id="h" x1="16.45" y1="8.04" x2="20.98" y2="18.71" xlink:href="#d"/><linearGradient id="i" x1="22.13" y1="22.31" x2="25.99" y2="30.62" xlink:href="#d"/><linearGradient id="j" x1="28.6" y1="23.96" x2="28.6" y2="31.77" xlink:href="#d"/><linearGradient id="k" x1="25.69" y1="23.44" x2="28.65" y2="28.49" xlink:href="#d"/><linearGradient id="l" x1="21.34" y1="15.28" x2="26.16" y2="25.53" xlink:href="#d"/><linearGradient id="m" x1="20.53" y1="14" x2="21.72" y2="16.38" xlink:href="#d"/><linearGradient id="n" x1="21.51" y1="15.2" x2="26.34" y2="25.45" xlink:href="#d"/><linearGradient id="o" x1="26.16" y1="27.15" x2="31.8" y2="27.15" xlink:href="#d"/><linearGradient id="p" x1="29.34" y1="22.7" x2="31.76" y2="26.62" xlink:href="#d"/><linearGradient id="q" x1="26.82" y1="20.55" x2="31.42" y2="30.21" xlink:href="#d"/></defs><g><polyline points="44 30.5 24 20.5 4 30.5 24 40.5 44 30.5 44 30.5" fill="#f2f6ff"/><polygon points="24 40.5 24 42.5 4 32.5 4 30.5 24 40.5" fill="#fff" opacity=".2"/><polygon points="24 40.5 24 42.5 44 32.5 44 30.5 24 40.5" fill="#2f3541"/></g><g><path d="M21.2,24.3l-.03,.02s-.02,.02-.03,.03c.02-.02,.04-.03,.06-.05Z" fill="url(#b)"/><path d="M27.04,22.02c-.43,.05-.85,.12-1.26,.18l-5.1,2.46c.08-.04,.15-.1,.22-.15-.11,.08-.22,.16-.35,.21l-.04-.09-.46,.22c-.42,.06-.86,0-1.31-.15-.47,.43-.74,.9-.74,1.38,0,1.15,1.75,2.09,1.75,2.09l-.02,2.21,2.12,1.04h.71v.35l2.13,1.04,.71,.03v.31l2.12,1.04,6.56,1.28,9.92-4.96-16.96-8.48Z" fill="url(#c)"/></g><rect x="12" y="11" width="24" height="24" transform="translate(48 46) rotate(180)" fill="none"/><rect x="0" width="48" height="48" fill="none"/><g opacity=".8"><polygon points="26.16 24.75 26.4 24.87 27.53 24.33 25.41 23.29 19.76 26.02 21.88 27.05 26.15 24.99 26.16 24.75" fill="url(#d)"/><g><polygon points="21.88 27.05 21.86 31.42 23.28 30.73 23.3 26.86 24.01 27.21 23.99 30.39 26.13 29.36 26.15 24.99 21.88 27.05" fill="url(#e)"/><polygon points="26.4 24.87 26.86 25.1 26.84 29.01 27.5 28.7 27.53 24.33 26.4 24.87" fill="url(#f)"/></g><path d="M15.98,14.94l5.65-2.73s.09-.04,.13-.06l-5.65,2.73s-.09,.04-.13,.06Z" fill="url(#g)"/><path d="M24.09,18.07l-.44-1.09-1.9-4.83-5.65,2.73,1.9,4.83,.44,1.09,1.6,4.06,5.65-2.73-1.6-4.06Zm-6.15-1.66l-.28-.7c.13,.03,.27,.07,.4,.12l-.12,.58Zm2.77,7.02l-1.3-3.31,.61-2.75c.4,.5,.74,1.1,.99,1.73,.7,1.76,.55,3.5-.29,4.33Z" fill="url(#h)"/><g><polygon points="26.15 26 24.73 26.68 24.69 32.8 26.12 32.12 26.15 26" fill="url(#i)"/><polygon points="26.86 25.65 26.83 31.77 30.34 30.08 30.37 23.96 26.86 25.65" fill="url(#j)"/></g><polygon points="26.16 24.75 26.86 25.1 26.86 25.65 30.37 23.96 28.25 22.92 22.6 25.64 24.73 26.68 26.15 26 26.16 24.75" fill="url(#k)"/><path d="M16.61,14.75l5.65-2.73c.56-.08,1.15,.04,1.74,.33,.2,.1,.41,.21,.61,.35l-5.65,2.73c-.2-.14-.41-.25-.61-.35-.59-.29-1.18-.41-1.74-.33Z" fill="url(#l)"/><path d="M18.96,15.43l-.75,3.38,1.65-.8,.14-.64c.11,.13,.2,.29,.29,.43l3.56-1.72,.75-3.38-5.65,2.73Z" fill="url(#m)"/><path d="M26.32,21.94l-5.65,2.73c1.51-.73,1.94-3.17,.93-5.74-.49-1.24-1.24-2.29-2.07-3.04l5.65-2.73c.83,.75,1.58,1.8,2.07,3.04,1.01,2.57,.58,5.01-.93,5.74Z" fill="url(#n)"/><polygon points="26.16 24.75 26.86 25.1 26.82 32.28 31.76 29.9 31.8 22.03 26.16 24.75" fill="url(#o)"/><polygon points="25.45 23.53 31.1 20.81 33.22 21.84 27.58 24.57 25.45 23.53" fill="url(#p)"/><polygon points="27.58 24.57 33.22 21.84 33.17 31.46 27.52 34.18 27.58 24.57" fill="url(#q)"/></g><g><path d="M19.73,30.39l.02-4.37,2.12,1.04-.02,4.37-2.12-1.04Zm.73-3.15v2.62l.69,.35v-2.62l-.69-.35" fill="#2f3541"/><path d="M18.44,20.8l1.6,4.06c-.56,.08-1.16-.04-1.74-.33-1.29-.63-2.54-2.04-3.25-3.85-1.04-2.63-.56-5.14,1.05-5.79l1.9,4.83,.44,1.09Zm-2.79-.29c.57,1.43,1.56,2.61,2.65,3.14,.23,.11,.46,.19,.68,.24l-1.15-2.93-.43-1.08-1.46-3.7c-.84,.84-.99,2.57-.29,4.34" fill="#2f3541"/><path d="M22.56,31.77l.03-6.12,2.13,1.04-.03,6.12-2.13-1.04Zm.74-4.9l-.02,4.38,.71,.35,.02-4.38-.71-.35" fill="#2f3541"/><path d="M18.35,15.08c-.59-.29-1.18-.41-1.74-.33l1.6,4.06,.75-3.38c-.2-.14-.41-.25-.61-.35Zm-.41,1.33l-.28-.7c.13,.03,.27,.07,.4,.12l-.12,.58Z" fill="#2f3541"/><path d="M19.53,15.88c.83,.75,1.58,1.8,2.07,3.04,1.04,2.64,.55,5.15-1.06,5.8l-1.9-4.83,.89-4.01Zm1.17,7.54c.84-.83,.99-2.57,.29-4.33-.25-.63-.59-1.23-.99-1.73l-.61,2.75,1.3,3.31" fill="#2f3541"/><path d="M25.45,23.53l2.12,1.04-.05,9.62-2.12-1.04,.05-9.62Zm1.37,9.43l.04-7.87-.71-.35-.04,7.87,.71,.35" fill="#2f3541"/></g><g><polygon points="20.45 29.86 21.15 30.2 21.17 27.58 20.46 27.24 20.45 29.86" fill="#fff3f8"/><path d="M17.41,19.87l-1.46-3.7c-.84,.84-.99,2.57-.29,4.34,.57,1.43,1.56,2.61,2.65,3.14,.23,.11,.46,.19,.68,.24l-1.15-2.93-.43-1.08Z" fill="#fff3f8"/><polygon points="23.28 31.24 23.98 31.58 24.01 27.21 23.3 26.86 23.28 31.24" fill="#fff3f8"/><path d="M18.06,15.83c-.13-.05-.27-.09-.4-.12l.28,.7,.12-.58Z" fill="#fff"/><path d="M20.01,17.36l-.61,2.75,1.3,3.31c.84-.83,.99-2.57,.29-4.33-.25-.63-.59-1.23-.99-1.73Z" fill="#fff3f8"/><polygon points="26.16 24.75 26.11 32.62 26.82 32.97 26.86 25.1 26.16 24.75" fill="#fff3f8"/></g></svg>