<?xml version="1.0" encoding="UTF-8"?><svg id="a" xmlns="http://www.w3.org/2000/svg" xmlns:xlink="http://www.w3.org/1999/xlink" viewBox="0 0 48 48"><defs><linearGradient id="b" x1="24.09" y1="29.83" x2="41.09" y2="29.83" gradientTransform="matrix(1, 0, 0, 1, 0, 0)" gradientUnits="userSpaceOnUse"><stop offset="0" stop-color="#2f3541" stop-opacity=".6"/><stop offset="1" stop-color="#2f3541" stop-opacity="0"/></linearGradient><linearGradient id="c" x1="23.8" y1="18.56" x2="27.01" y2="25.62" gradientTransform="matrix(1, 0, 0, 1, 0, 0)" gradientUnits="userSpaceOnUse"><stop offset="0" stop-color="#00d2b2"/><stop offset="1" stop-color="#26f"/></linearGradient><linearGradient id="d" x1="22.23" y1="11.34" x2="27.79" y2="25.46" xlink:href="#c"/></defs><g><polyline points="44 30.5 24 20.5 4 30.5 24 40.5 44 30.5 44 30.5" fill="#f2f6ff"/><polygon points="24 40.5 24 42.5 4 32.5 4 30.5 24 40.5" fill="#fff" opacity=".2"/><polygon points="24 40.5 24 42.5 44 32.5 44 30.5 24 40.5" fill="#2f3541"/></g><polygon points="44 30.5 25.11 24 21.09 26.53 24 33 33.7 35.65 44 30.5" fill="url(#b)" opacity=".4"/><rect x="0" y="0" width="48" height="48" fill="none"/><g opacity=".8"><polygon points="16 19 24 15 32 19 24 23 16 19" fill="url(#c)"/><polygon points="24 23 32 19 32 29 24 33 24 23" fill="url(#d)"/></g><path d="M16,19v10l8,4v-10l-8-4Zm6.61,4.42l-5.61,4.21v-7.01l5.61,2.8Zm-5.21,5.16l5.6-4.21v7.01l-5.6-2.8Z" fill="#2f3541"/><rect x="12" y="12" width="24" height="24" transform="translate(48 48) rotate(180)" fill="none"/><polygon points="22.61 23.42 17 27.63 17 20.62 22.61 23.42" fill="#fff3f8"/><polygon points="17.4 28.58 23 24.37 23 31.38 17.4 28.58" fill="#fff3f8"/></svg>