<?xml version="1.0" encoding="UTF-8"?><svg id="a" xmlns="http://www.w3.org/2000/svg" xmlns:xlink="http://www.w3.org/1999/xlink" viewBox="0 0 48 48"><defs><linearGradient id="c" x1="20.53" y1="31.07" x2="40.57" y2="31.07" gradientUnits="userSpaceOnUse"><stop offset="0" stop-color="#2f3541" stop-opacity=".4"/><stop offset="1" stop-color="#2f3541" stop-opacity="0"/></linearGradient><linearGradient id="d" x1="22.54" y1="14.68" x2="30.45" y2="30.89" gradientUnits="userSpaceOnUse"><stop offset="0" stop-color="#f84"/><stop offset="1" stop-color="#f49"/></linearGradient></defs><rect width="48" height="48" fill="none"/><polyline points="44 30.5 24 20.5 4 30.5 24 40.5 44 30.5 44 30.5" fill="#f2f6ff"/><polygon points="24 40.5 24 42.5 4 32.5 4 30.5 24 40.5" fill="#fff" opacity=".2"/><polygon points="24 40.5 24 42.5 44 32.5 44 30.5 24 40.5" fill="#2f3541"/><path d="m17,31.07c0,2.42,6.49,4.39,14.5,4.39.93,0,1.84-.03,2.72-.08l9.78-4.89-6.94-3.47c-1.71-.22-3.59-.34-5.56-.34-8.01,0-14.5,1.96-14.5,4.39Z" fill="url(#c)"/><path d="m33.2,25.75c-.01,2.51-.98,4.28-2.47,5l-5.65,2.73c1.49-.72,2.45-2.49,2.47-5,.02-4.35-2.81-9.26-6.33-10.98-1.49-.73-2.86-.76-3.95-.24l5.65-2.73c1.09-.53,2.46-.49,3.95.24,3.53,1.72,6.36,6.63,6.33,10.98Z" fill="url(#d)" opacity=".8"/><path d="m21.14,32.36c3.12,1.52,5.68-.38,5.7-4.23s-2.51-8.24-5.63-9.76-5.68.38-5.7,4.23,2.51,8.24,5.63,9.76" fill="#fff0f5"/><path d="m21.22,17.49c3.53,1.72,6.36,6.63,6.33,10.98s-2.89,6.48-6.42,4.76-6.36-6.63-6.33-10.98,2.9-6.48,6.42-4.76Zm-.08,14.87c3.12,1.52,5.68-.38,5.7-4.23s-2.51-8.24-5.63-9.76-5.68.38-5.7,4.23,2.51,8.24,5.63,9.76m-4.92-9.42l2.11,3.66.5-.37-1.61-2.8,1.63-1.22-.49-.86-2.14,1.59Zm4.2,6.43l2.18-7.45-.68-.58-2.17,7.46.67.58Zm3.11-4.88l1.61,2.8-1.64,1.21.5.86,2.14-1.59-2.11-3.66-.51.38Z" fill="#2f3541"/></svg>