<?xml version="1.0" encoding="UTF-8"?><svg id="a" xmlns="http://www.w3.org/2000/svg" xmlns:xlink="http://www.w3.org/1999/xlink" viewBox="0 0 48 48"><defs><linearGradient id="b" x1="19.31" y1="31.42" x2="40.39" y2="31.42" gradientTransform="matrix(1, 0, 0, 1, 0, 0)" gradientUnits="userSpaceOnUse"><stop offset="0" stop-color="#2f3541" stop-opacity=".6"/><stop offset="1" stop-color="#2f3541" stop-opacity="0"/></linearGradient><linearGradient id="c" x1="25.76" y1="24.81" x2="18.1" y2="14.14" gradientTransform="matrix(1, 0, 0, 1, 0, 0)" gradientUnits="userSpaceOnUse"><stop offset="0" stop-color="#26f"/><stop offset="1" stop-color="#f49"/></linearGradient><linearGradient id="d" x1="27.21" y1="23.27" x2="19.55" y2="12.6" xlink:href="#c"/><linearGradient id="e" x1="27.1" y1="23.35" x2="19.45" y2="12.68" xlink:href="#c"/><linearGradient id="f" x1="29.04" y1="26.88" x2="18.2" y2="11.77" xlink:href="#c"/><linearGradient id="g" x1="26.25" y1="24.46" x2="18.59" y2="13.79" xlink:href="#c"/><linearGradient id="h" x1="25.17" y1="30.94" x2="24.8" y2="46.82" xlink:href="#c"/><linearGradient id="i" x1="23.12" y1="13.57" x2="31.34" y2="29.52" gradientTransform="matrix(1, 0, 0, 1, 0, 0)" gradientUnits="userSpaceOnUse"><stop offset="0" stop-color="#f49"/><stop offset="1" stop-color="#26f"/></linearGradient><linearGradient id="j" x1="25.24" y1="18.72" x2="32.53" y2="31.43" xlink:href="#i"/><linearGradient id="k" x1="23.62" y1="19.42" x2="29.25" y2="31.27" xlink:href="#i"/><linearGradient id="l" x1="27.01" y1="18.48" x2="30.02" y2="24.4" xlink:href="#i"/><linearGradient id="m" x1="20.24" y1="18.34" x2="24.15" y2="25.43" xlink:href="#i"/><linearGradient id="n" x1="15.07" y1="20.52" x2="19.76" y2="30.07" xlink:href="#i"/><linearGradient id="o" x1="24.84" y1="10.75" x2="30.39" y2="26.2" xlink:href="#i"/></defs><g><polyline points="44 30.5 24 20.5 4 30.5 24 40.5 44 30.5 44 30.5" fill="#f2f6ff"/><polygon points="24 40.5 24 42.5 4 32.5 4 30.5 24 40.5" fill="#fff" opacity=".2"/><polygon points="24 40.5 24 42.5 44 32.5 44 30.5 24 40.5" fill="#2f3541"/></g><polygon points="37 27 23 27 15.6 32.05 22.69 34.61 27.66 35.29 33.3 35.85 44 30.5 37 27" fill="url(#b)" opacity=".4"/><rect x="12" y="12" width="24" height="24" fill="none"/><path d="M28.4,29.52c-.14-.07-2.83-1.38-2.84,.37s1.99,5.23,2.1,5.41c-.1-.15-2.07-2.94-3.11-3.45-.18-.09-.32-.1-.42-.02-.71,.53-1.4,2.69-1.43,2.8-.06-.21-1.15-4.18-2.43-4.81-.13-.07-.26-.09-.39-.07-1.42,.18-4.13,2.19-4.28,2.29,.14-.19,2.87-3.86,2.16-5.08-.7-1.23-2.72-3.04-2.83-3.14,.14,.03,2.84,.51,2.85-1.24,0-1.75-2.67-6.39-2.81-6.63,.17,.22,3.34,4.4,4.59,5.01,.16,.08,.28,.1,.36,.04,.71-.53,1.41-5.69,1.45-5.93,.03,.28,.68,6.09,1.39,6.44,.71,.35,4.08-.51,4.26-.56-.11,.17-2.15,3.34-2.15,4.21s3.35,4.17,3.52,4.35Z" fill="#fff5fa"/><g opacity=".8"><path d="M22.11,19.95h0c-.05-.2-.1-.42-.14-.64,.05,.22,.09,.44,.14,.64Z" fill="url(#c)"/></g><g opacity=".8"><path d="M21.37,15.07s.01,.09,.02,.17c-.01-.08-.02-.14-.02-.17Z" fill="url(#d)"/></g><g opacity=".8"><path d="M21.39,15.25c.01,.09,.03,.2,.04,.34-.02-.14-.03-.25-.04-.34Z" fill="url(#e)"/></g><g opacity=".8"><path d="M21.44,15.6c.04,.28,.09,1.16,.16,1.59-.06-.43-.12-1.3-.16-1.59Z" fill="url(#f)"/></g><g opacity=".8"><path d="M21.6,17.2c.1,.64,.22,1.37,.36,2.05-.14-.68-.26-1.42-.36-2.05Z" fill="url(#g)"/></g><g opacity=".8"><path d="M25.21,31.43s-.02-.07-.03-.11l-.07,.03s.07,.05,.1,.08Z" fill="url(#h)"/></g><rect x="0" width="48" height="48" fill="none"/><rect x="0" width="48" height="48" fill="none"/><g><g opacity=".8"><path d="M21.37,15.07l5.65-2.73c.03,.28,.68,6.09,1.39,6.44l-5.65,2.73c-.71-.35-1.36-6.16-1.39-6.44Z" fill="url(#i)"/></g><g opacity=".8"><path d="M24.87,25.17l5.65-2.73c0,.87,3.35,4.17,3.52,4.35l-5.65,2.73c-.18-.17-3.53-3.47-3.52-4.35Z" fill="url(#j)"/></g><g opacity=".8"><path d="M28.4,29.52c-.06-.06-.51-.5-1.07-1.09l-1.35,.65c-.25,.12-.42,.37-.42,.8,0,1.76,1.99,5.23,2.1,5.41l5.65-2.73c-.09-.15-1.52-2.64-1.97-4.47l-2.94,1.42Z" fill="url(#k)"/></g><g opacity=".8"><path d="M22.76,21.51l5.65-2.73c.71,.35,4.08-.51,4.26-.56l-5.65,2.73c-.18,.05-3.55,.9-4.26,.56Z" fill="url(#l)"/></g><g opacity=".8"><g opacity=".8"><path d="M19.57,20.96c.08,.04,.14,.06,.2,.07,.02,0,.03,0,.05,0,.04,0,.08,0,.11-.02,.71-.53,1.41-5.69,1.45-5.93l.8-.39c-.82-.99-1.48-1.36-1.55-1.45l-5.65,2.73c.17,.22,3.34,4.4,4.59,5.01Z" fill="url(#m)"/></g></g><g opacity=".8"><path d="M24.55,31.85c-.18-.09-.32-.1-.42-.02-.71,.53-1.4,2.69-1.43,2.8l3.22-1.56c-.49-.55-.99-1.04-1.37-1.22Z" fill="#26f"/></g><g opacity=".8"><path d="M19.88,29.75c-.39,.05-.88,.24-1.39,.49-.13,.06-.25,.13-.38,.2-.03,.02-.07,.04-.1,.06-.15,.08-.3,.17-.44,.25-.03,.02-.05,.03-.08,.05-.12,.07-.24,.15-.36,.22-.04,.02-.07,.04-.11,.07-.13,.08-.26,.17-.38,.25l-.06,.04c-.1,.07-.2,.14-.29,.2l-.08,.05c-.1,.07-.19,.13-.27,.19l-.02,.02c-.07,.05-.13,.09-.18,.13l-.04,.03-.08,.06,4.63-2.23c-.12-.05-.24-.07-.35-.06Z" fill="#26f"/></g><g opacity=".8"><path d="M15.04,23.84s.08,.01,.12,.02h.05c.07,.01,.14,.02,.23,.03h.02c.08,0,.16,.01,.24,.01,.03,0,.06,0,.08,0,.07,0,.15,0,.23,0,.03,0,.06,0,.08,0,.1,0,.21-.01,.31-.03,.02,0,.03,0,.05,0,.09-.01,.18-.03,.26-.05,.03,0,.06-.02,.09-.03,.08-.02,.15-.05,.22-.08,.42-.18,.73-.52,.74-1.11,0-.04,0-.09-.01-.13l-2.84,1.37h.07l.04,.02Z" fill="url(#n)"/></g><g opacity=".8"><path d="M27.02,20.96l5.65-2.73c-.11,.17-2.15,3.34-2.15,4.21l-5.65,2.73c0-.87,2.04-4.05,2.15-4.21Z" fill="url(#o)"/></g></g><path d="M28.4,29.52c-.14-.07-2.83-1.38-2.84,.37s1.99,5.23,2.1,5.41c-.1-.15-2.07-2.94-3.11-3.45-.18-.09-.32-.1-.42-.02-.71,.53-1.4,2.69-1.43,2.8-.06-.21-1.15-4.18-2.43-4.81-.13-.07-.26-.09-.39-.07-1.42,.18-4.13,2.19-4.28,2.29,.14-.19,2.87-3.86,2.16-5.08-.7-1.23-2.72-3.04-2.83-3.14,.14,.03,2.84,.51,2.85-1.24,0-1.75-2.67-6.39-2.81-6.63,.17,.22,3.34,4.4,4.59,5.01,.16,.08,.28,.1,.36,.04,.71-.53,1.41-5.69,1.45-5.93,.03,.28,.68,6.09,1.39,6.44,.71,.35,4.08-.51,4.26-.56-.11,.17-2.15,3.34-2.15,4.21s3.35,4.17,3.52,4.35Zm-3.19,1.91c-.22-.68-.36-1.34-.36-1.89,0-1,.52-1.41,1.24-1.47-1.92-2.19-1.92-2.89-1.92-3.24,0-.54,.41-1.46,.96-2.45-1.02,.16-1.94,.22-2.36,.01-.33-.16-.84-.41-1.38-2.74-.27,1.05-.59,1.95-.95,2.22-.15,.11-.42,.2-.86-.02s-1.06-.77-1.7-1.44c.37,.96,.64,1.87,.63,2.53,0,1.23-.8,1.7-1.63,1.85,.54,.58,1.08,1.23,1.4,1.8,.18,.31,.6,1.02,0,2.65,.47-.22,.93-.38,1.3-.43,.22-.02,.47,.02,.71,.14,.33,.16,1.34,.85,2.36,3.49,.28-.61,.63-1.21,.99-1.48,.16-.12,.45-.21,.93,.02,.2,.1,.42,.25,.66,.45" fill="#2f3541"/></svg>