<?xml version="1.0" encoding="UTF-8"?><svg id="a" xmlns="http://www.w3.org/2000/svg" viewBox="0 0 24 24"><rect width="24" height="24" fill="none"/><path d="M17.36,4c.91,0,1.64,.74,1.64,1.65v14.35l-3.71-3.37,.42,1.37H6.64c-.91,0-1.64-.74-1.64-1.65V5.65c0-.91,.73-1.65,1.64-1.65h10.72m0-1H6.64c-1.46,0-2.64,1.19-2.64,2.65v10.7c0,1.46,1.18,2.64,2.64,2.65h9.73l3.63,3.22V5.65c0-1.46-1.18-2.64-2.64-2.65h0Zm-3.95,4.49c.88,.04,1.72,.36,2.41,.9,.78,1.55,1.21,3.26,1.23,4.99-.59,.82-1.54,1.3-2.54,1.3-.03,0-.05,0-.08,0,0,0-.31-.37-.57-.69,.62-.15,1.17-.51,1.55-1.02-.31,.21-.64,.37-.98,.51-.76,.31-1.56,.46-2.36,.46-1.03,0-2.06-.26-2.99-.76-.02-.01-.23-.13-.35-.21,.37,.5,.9,.86,1.5,1.01-.26,.33-.57,.71-.57,.71-.03,0-.06,0-.08,0-1,0-1.94-.48-2.53-1.3,.03-1.74,.45-3.44,1.23-4.99,.69-.54,1.53-.86,2.41-.9l.09,.1c-.82,.2-1.59,.59-2.25,1.12,0,0,.19-.1,.51-.25,.94-.42,1.94-.62,2.94-.62,1.19,0,2.38,.29,3.45,.87-.63-.51-1.35-.88-2.13-1.09l.12-.14m-2.27-1.02l-.5,.02c-1.09,.05-2.12,.44-2.97,1.11l-.17,.14-.1,.2c-.85,1.67-1.31,3.55-1.34,5.43v.33l.19,.27c.77,1.08,2.02,1.72,3.34,1.72h.57l.29-.37s.19-.23,.4-.49c.41,.07,.83,.11,1.24,.11s.8-.03,1.19-.1c.21,.26,.4,.49,.4,.49l.29,.35h.56c1.33,.01,2.58-.63,3.35-1.71l.19-.27v-.33c-.04-1.88-.5-3.75-1.35-5.43l-.1-.2-.17-.14c-.86-.67-1.89-1.06-2.97-1.11l-.48-.02-.32,.36-.03,.04c-.22-.02-.44-.03-.65-.03-.17,0-.34,0-.51,.02h0l-.32-.39h0Zm2.36,4.28c-.41,0-.75,.34-.75,.75s.34,.75,.75,.75,.75-.34,.75-.75-.34-.75-.75-.75Zm-3,0c-.41,0-.75,.34-.75,.75s.34,.75,.75,.75,.75-.34,.75-.75-.34-.75-.75-.75Z" fill="#fff"/></svg>