<?xml version="1.0" encoding="UTF-8"?><svg id="a" xmlns="http://www.w3.org/2000/svg" viewBox="0 0 24 24"><rect y="0" width="24" height="24" fill="none"/><rect id="b" y="0" width="24" height="24" fill="none"/><g><path d="M12,9c1.66,0,3-1.34,3-3s-1.34-3-3-3-3,1.34-3,3,1.34,3,3,3Zm0-5c1.1,0,2,.9,2,2s-.9,2-2,2-2-.9-2-2,.9-2,2-2Z" fill="#2f3541"/><path d="M15.55,15.17s.45-.56,.45-.94v-2.54c0-.93-1.19-1.69-2.67-1.69h-2.67c-1.47,0-2.67,.76-2.67,1.69v2.54c0,.38,.48,.96,.45,.94l-1.45,4.83h2.78l.22,1h4l.22-1h2.78l-1.45-4.83Zm-7.21,3.83l.69-2.31,.52,2.31h-1.21Zm5.93-3.81l-1.07,4.81h-2.4l-1.07-4.81-.09-.4-.34-.22c-.22-.15-.3-.28-.3-.34v-2.54c0-.21,.63-.69,1.67-.69h2.67c1.04,0,1.67,.48,1.67,.69v2.54c0,.06-.08,.19-.3,.34l-.34,.22-.09,.4Zm.69,1.5l.69,2.31h-1.21l.52-2.31Z" fill="#2f3541"/></g></svg>