<?xml version="1.0" encoding="UTF-8"?><svg xmlns="http://www.w3.org/2000/svg" width="32" height="32" viewBox="0 0 32 32"><g id="icon"><circle cx="16" cy="16" r="16" fill="#d3d1a9"/></g><g id="text_-_keep_locked_to_avoid_add_icons_here"><g><rect id="Rectangle_10877" x="4" y="4" width="24" height="24" fill="none" opacity="0"/><g><path d="M17,18h1v-1h-1v-2h-4v2h-1v1h5Zm-3-2h2v1h-2v-1Z" fill="#2f3541"/><path d="M17,14h1v-1h-1v-2h-4v2h-1v1h5Zm-3-2h2v1h-2v-1Z" fill="#2f3541"/><path d="M26,24V14h-6v-5l-5-3-5,3v8H6v7h-1v1H27v-1h-1ZM15,7.2018l3.1972,1.7982h-6.3944l3.1972-1.7982Zm-1,14.7982v-2h2v4h-2v-1l1-.5v-1l-1,.5Zm5,2h-2v-5h-4v5H7v-6h4V10h8v14Zm6,0h-5V15h5v9Z" fill="#2f3541"/><rect x="21" y="16" width="1" height="1" fill="#2f3541"/><rect x="23" y="16" width="1" height="1" fill="#2f3541"/><rect x="21" y="18" width="1" height="1" fill="#2f3541"/><rect x="23" y="18" width="1" height="1" fill="#2f3541"/><rect x="21" y="20" width="1" height="1" fill="#2f3541"/><rect x="23" y="20" width="1" height="1" fill="#2f3541"/><rect x="21" y="22" width="1" height="1" fill="#2f3541"/><rect x="23" y="22" width="1" height="1" fill="#2f3541"/><path d="M8,23h4v-4h-4v4Zm1-3h2v2h-2v-2Z" fill="#2f3541"/></g></g></g></svg>