<?xml version="1.0" encoding="UTF-8"?><svg id="a" xmlns="http://www.w3.org/2000/svg" viewBox="0 0 64 64"><rect x="0" width="64" height="64" fill="none"/><path d="M32,4C16.54,4,4,16.54,4,32s12.54,28,28,28,28-12.54,28-28S47.46,4,32,4Zm3.39,46.17c-.4,1.49-1.92,1.83-3.39,1.83s-2.99-.35-3.39-1.83c-.85-3.4-1.39-6.88-1.61-10.38,0-2.75,2.43-3.42,5-3.42s5,.67,5,3.42c-.22,3.5-.76,6.97-1.61,10.38Zm-3.39-15.67c-2.76,0-5-2.24-5-5s2.24-5,5-5,5,2.24,5,5-2.24,5-5,5Zm5.29,.76s-.04-.03-.06-.05c-.18-.19-.17-.48,.01-.66,.04-.04,.08-.08,.12-.12,2.9-2.96,2.84-7.71-.12-10.61-2.96-2.9-7.71-2.84-10.61,.12-2.9,2.96-2.84,7.71,.12,10.61,.02,.02,.04,.04,.05,.06,.15,.21,.11,.5-.1,.66-.71,.51-1.28,1.19-1.66,1.98-.02,.04-.05,.09-.08,.12-.17,.19-.47,.2-.66,.03-.18-.17-.35-.34-.52-.52-4.25-4.53-4.02-11.65,.52-15.9,4.53-4.25,11.65-4.02,15.9,.52,4.25,4.53,4.02,11.65-.52,15.9-.04,.03-.08,.06-.12,.08-.23,.11-.51,0-.62-.23-.38-.79-.95-1.47-1.66-1.98Zm2.38,9.97c-.09,.04-.18,.06-.27,.04-.26-.04-.43-.28-.39-.53,.2-1.3,.37-2.59,.44-3.69,1.58-1.02,2.94-2.35,3.98-3.92,4.22-6.31,2.52-14.85-3.79-19.07-6.31-4.22-14.85-2.52-19.07,3.79-4.22,6.31-2.52,14.85,3.79,19.07,.12,.08,.2,.21,.21,.35,.08,1.05,.24,2.25,.42,3.46,.01,.09,0,.19-.04,.27-.11,.23-.39,.33-.63,.22-6.01-2.93-9.82-9.04-9.82-15.72,0-9.67,7.83-17.51,17.5-17.51,6.68,0,12.78,3.82,15.72,9.82,4.24,8.69,.64,19.17-8.04,23.41Z" fill="#2f3541"/></svg>