<?xml version="1.0" encoding="UTF-8"?><svg id="a" xmlns="http://www.w3.org/2000/svg" viewBox="0 0 24 24"><rect width="24" height="24" fill="none"/><path d="M12,5.55l1.61,3.77,.24,.55,.6,.05,4.1,.35-3.11,2.68-.46,.4,.14,.59,.94,3.99-3.53-2.12-.51-.31-.51,.31-3.54,2.12,.93-3.99,.14-.59-.46-.4-3.11-2.68,4.11-.35,.6-.05,.24-.55,1.61-3.77m0-2.55l-2.53,5.92-6.47,.55,4.9,4.23-1.47,6.29,5.56-3.34,5.56,3.34-1.48-6.29,4.91-4.23-6.47-.55-2.53-5.92h0Z" fill="#fff"/><rect width="24" height="24" fill="none"/></svg>