<?xml version="1.0" encoding="UTF-8"?><svg id="c" xmlns="http://www.w3.org/2000/svg" xmlns:xlink="http://www.w3.org/1999/xlink" viewBox="0 0 48 48"><defs><linearGradient id="a" x1="24.44" y1="31.84" x2="41.14" y2="31.84" gradientTransform="matrix(1, 0, 0, 1, 0, 0)" gradientUnits="userSpaceOnUse"><stop offset="0" stop-color="#2f3541" stop-opacity=".4"/><stop offset="1" stop-color="#2f3541" stop-opacity="0"/></linearGradient><linearGradient id="e" x1="22.64" y1="15.14" x2="27.59" y2="25.75" gradientTransform="matrix(1, 0, 0, 1, 0, 0)" gradientUnits="userSpaceOnUse"><stop offset="0" stop-color="#f84"/><stop offset="1" stop-color="#f49"/></linearGradient></defs><g><polyline points="44 30.5 24 20.5 4 30.5 24 40.5 44 30.5 44 30.5" fill="#f2f6ff"/><polygon points="24 40.5 24 42.5 4 32.5 4 30.5 24 40.5" fill="#fff" opacity=".2"/><polygon points="24 40.5 24 42.5 44 32.5 44 30.5 24 40.5" fill="#2f3541"/></g><polygon points="21.5 32 34.38 35.31 44 30.5 39.73 28.37 27.27 29.26 21.5 32" fill="url(#a)"/><rect x="0" y="0" width="48" height="48" fill="none"/><path d="M19.92,14.83c-.67,0-1.3,.18-1.84,.55-2.23,1.53-2.25,5.74-.05,9.42l3.98,7.2,4.03-3.29c2.23-1.52,2.25-5.74,.05-9.42-1.1-1.84-2.55-3.2-3.99-3.9-.74-.36-1.48-.55-2.18-.55h0Z" fill="#fff3f8"/><path d="M21.29,20.56h0c.07,0,.18,.02,.35,.1,.83,.4,1.55,1.69,1.55,2.75,0,.29-.08,.79-.36,.79-.07,0-.18-.02-.34-.1-.83-.41-1.56-1.69-1.55-2.75,0-.03,0-.79,.36-.79m0-1c-.79,0-1.35,.68-1.36,1.78,0,1.45,.94,3.08,2.11,3.66,.28,.13,.54,.2,.78,.2,.79,0,1.35-.68,1.36-1.78,0-1.45-.94-3.08-2.11-3.66-.28-.14-.54-.2-.79-.2h0Z" fill="#2f3541"/><path d="M19.92,15.83h0c.54,0,1.12,.15,1.74,.45,1.32,.64,2.62,1.93,3.57,3.52,1.9,3.18,2.01,6.88,.24,8.08l-.04,.02-.03,.03-3.1,2.53-3.42-6.18c-1.9-3.17-2.01-6.87-.25-8.08,.37-.25,.8-.38,1.28-.38m0-1c-.67,0-1.3,.18-1.84,.55-2.23,1.53-2.25,5.74-.05,9.42l3.98,7.2,4.03-3.29c2.23-1.52,2.25-5.74,.05-9.42-1.1-1.84-2.55-3.2-3.99-3.9-.74-.36-1.48-.55-2.18-.55h0Z" fill="#2f3541"/><rect x="13" y="10" width="24" height="24" fill="none"/><path d="M31.74,16.57c-1.1-1.84-2.55-3.2-3.99-3.9-1.29-.63-2.57-.74-3.62-.23l-5.65,2.73c1.05-.51,2.34-.39,3.62,.23,1.45,.71,2.9,2.07,3.99,3.9,2.2,3.68,2.17,7.9-.05,9.42l-4.03,3.29,5.65-2.73,4.03-3.29c2.23-1.52,2.25-5.74,.05-9.42Z" fill="url(#e)" opacity=".8"/></svg>