<?xml version="1.0" encoding="UTF-8"?><svg id="a" xmlns="http://www.w3.org/2000/svg" viewBox="0 0 24 24"><rect x="0" y="0" width="24" height="24" fill="none"/><path d="M21,4L2,12l6,2.5,2,5.5,3.76-2.77,4.24,1.77,3-15Zm-3.7,2.64L7.88,13.37l-3.3-1.37,12.71-5.35Zm-8.36,7.52l-.1-.27,7.76-5.58-5.03,6.93h0l-.43,.77-.93,1.63-1.26-3.47Zm2.05,4.11l1.01-1.77,.89,.37-1.9,1.4Zm1.53-2.64l6.73-9.23,.3-.21-2.28,11.42-4.75-1.98Z" fill="#2f3541"/><rect x="0" y="0" width="24" height="24" fill="none"/><rect x="0" y="0" width="24" height="24" fill="none"/></svg>