<?xml version="1.0" encoding="UTF-8"?><svg id="a" xmlns="http://www.w3.org/2000/svg" viewBox="0 0 24 24"><path id="c" d="M24,24H0V0H24" fill="none"/><g><path d="M12.06,13.27l1.44-.99-1.44-.99,.58-1.65-1.75,.04-.5-1.68-1.39,1.07-1.39-1.07-.5,1.68-1.75-.04,.58,1.65-1.44,.99,1.45,.99-.58,1.65,1.64-.04-.02,6.12,2.02-1,2,1v-6.12l1.64,.04-.58-1.65Zm-2.06,6.11l-.55-.28-.45-.22-.45,.22-.57,.28v-3.12l1.02-.77,1,.77v3.12Zm1.49-6.93l-.63,.44,.26,.72,.1,.28h-.3l-.77-.03-.22,.73-.08,.29-.24-.18-.61-.47-.61,.47-.24,.18-.09-.29-.22-.73-.77,.02h-.3l.1-.27,.26-.72-.63-.44-.25-.17,.25-.17,.63-.43-.26-.72-.1-.28h.3l.77,.03,.22-.73,.09-.29,.24,.18,.61,.46,.61-.46,.24-.18,.08,.29,.22,.73,.77-.02h.3l-.1,.28-.26,.72,.63,.43,.25,.17-.25,.17Z" fill="#fff"/><path d="M21,20.09V10l-4-4H4V3.91c.58-.21,1-.76,1-1.41,0-.83-.67-1.5-1.5-1.5s-1.5,.67-1.5,1.5c0,.65,.42,1.2,1,1.41v14.09h3v-1h-2V7h12v4h4v6H12v1h8v2.09c-.58,.21-1,.76-1,1.41,0,.83,.67,1.5,1.5,1.5s1.5-.67,1.5-1.5c0-.65-.42-1.2-1-1.41ZM3.5,2c.28,0,.5,.22,.5,.5s-.22,.5-.5,.5-.5-.22-.5-.5,.22-.5,.5-.5Zm13.5,8v-2.55l2.55,2.55h-2.55Zm3.5,12c-.28,0-.5-.22-.5-.5s.22-.5,.5-.5,.5,.22,.5,.5-.22,.5-.5,.5Z" fill="#fff"/></g></svg>