<?xml version="1.0" encoding="UTF-8"?><svg id="a" xmlns="http://www.w3.org/2000/svg" viewBox="0 0 24 24"><rect width="24" height="24" fill="none"/><g><path d="M12,8c-1.66,0-3,1.34-3,3s1.34,3,3,3,3-1.34,3-3-1.34-3-3-3h0Zm0,5c-1.1,0-2-.9-2-2s.9-2,2-2,2,.9,2,2-.9,2-2,2h0Z" fill="#fff"/><path d="M12,3c-2.36,1.36-5.08,2-8,2v7.2c0,4.84,3.44,8.87,8,9.8,4.56-.93,8-4.96,8-9.8V5c-2.92,0-5.64-.64-8-2h0Zm-5.32,14.42c-1.06-1.49-1.68-3.29-1.68-5.21V5.98c2.58-.13,4.93-.74,7-1.83,2.07,1.09,4.42,1.71,7,1.83v6.22c0,1.92-.62,3.73-1.68,5.22-.65-1.41-1.72-2.53-3.04-3.14-.65,.45-1.43,.72-2.28,.72s-1.63-.27-2.28-.72c-1.31,.61-2.39,1.73-3.04,3.14h0Zm5.32-1.42c.81,0,1.6-.2,2.31-.57,1.06,.63,1.84,1.67,2.28,2.89-1.2,1.3-2.78,2.25-4.59,2.66-1.81-.41-3.39-1.36-4.59-2.66,.44-1.22,1.22-2.26,2.28-2.89,.71,.38,1.5,.57,2.31,.57h0Z" fill="#fff"/></g></svg>