<?xml version="1.0" encoding="UTF-8"?><svg id="a" xmlns="http://www.w3.org/2000/svg" viewBox="0 0 24 24"><g><g><polygon points="9 9 10 9 10 8.59 10 8 9 8 9 9" fill="#2f3541"/><rect x="9" y="10" width="1" height="1" fill="#2f3541"/><rect x="9" y="12" width="1" height="1" fill="#2f3541"/><polygon points="8.59 17 3.41 17 6 14.41 6 13 1 18 7.59 18 8.59 17" fill="#2f3541"/><polygon points="19 13 20 12 19 12 19 13" fill="#2f3541"/><path d="M10,15.59v-.59h-2V6h3v1.59l1-1v-.88l1-1v1.29h1V3h-5l-2,2v11h2.59l.41-.41Zm-.59-11.59h2.88l-1,1h-2.88l1-1Z" fill="#2f3541"/></g><path d="M13,14h1v1h-1v-1Zm0-1h1v-1h-1v1Zm0,4h1v-1h-1v1Zm5-10v11l-2,2h-5V9l2-2h5Zm-5.59,2h2.88l1-1h-2.88l-1,1Zm2.59,10V10h-3v9h3Zm1-.41l1-1V8.71l-1,1v8.88Zm3-2.59v1h2.59l-4,4H7.41l2.59-2.59v-1.41l-5,5h13l6-6h-5Z" fill="#2f3541" opacity=".4"/></g><rect width="24" height="24" fill="none"/></svg>