<?xml version="1.0" encoding="UTF-8"?><svg id="a" xmlns="http://www.w3.org/2000/svg" viewBox="0 0 24 24"><rect y="0" width="24" height="24" fill="none"/><path d="m19.02,9.13c-.19-2.34-2.15-4.14-4.49-4.13-2.32-.02-4.27,1.74-4.49,4.06-.09-.02-.18-.04-.27-.05-1.35-.15-2.57.82-2.73,2.18-.35-.13-.72-.2-1.1-.19-1.65.03-2.97,1.39-2.94,3.05.03,1.66,1.39,2.98,3.04,2.95h11.98c1.81,0,3.39-1.23,3.85-2.99.56-2.14-.72-4.32-2.85-4.88Zm-1,6.87H6.04c-1.1,0-2-.9-2-2s.89-2,2-2c.23,0,.46.06.67.14l1.18.43.15-1.25c0-.09.02-.17.04-.26.2-.79,1-1.26,1.78-1.06l1.06.28.11-1.12c.17-1.8,1.69-3.18,3.49-3.16,1.83-.02,3.36,1.38,3.49,3.21v.72l.72.17c1.3.34,2.21,1.51,2.23,2.85.03,1.66-1.29,3.02-2.95,3.05Z" fill="#fff"/></svg>