<?xml version="1.0" encoding="UTF-8"?><svg id="a" xmlns="http://www.w3.org/2000/svg" viewBox="0 0 64 64"><path d="M32,4C16.54,4,4,16.54,4,32s12.54,28,28,28,28-12.54,28-28S47.46,4,32,4ZM11.5,39c0,.83-.67,1.5-1.5,1.5s-1.5-.67-1.5-1.5v-8c0-.83,.67-1.5,1.5-1.5s1.5,.67,1.5,1.5v8Zm6,1.5c0,.83-.67,1.5-1.5,1.5s-1.5-.67-1.5-1.5v-15c0-.83,.67-1.5,1.5-1.5s1.5,.67,1.5,1.5v15Zm6,0c0,.83-.67,1.5-1.5,1.5s-1.5-.67-1.5-1.5v-14c0-.83,.67-1.5,1.5-1.5s1.5,.67,1.5,1.5v14Zm6,0c0,.83-.67,1.5-1.5,1.5s-1.5-.67-1.5-1.5V20.5c0-.83,.67-1.5,1.5-1.5s1.5,.67,1.5,1.5v20Zm19.5,1.5h-15c-.83,0-1.5-.67-1.5-1.5V17.5c0-.83,.67-1.5,1.5-1.5,6.99,0,12.76,4.35,13.44,11.16,.5-.11,1.03-.16,1.56-.16,4.14,0,7.5,3.37,7.5,7.5s-3.36,7.5-7.5,7.5Z" fill="#2f3541"/><rect y="0" width="64" height="64" fill="none"/></svg>