<?xml version="1.0" encoding="UTF-8"?><svg id="a" xmlns="http://www.w3.org/2000/svg" viewBox="0 0 24 24"><rect width="24" height="24" fill="none"/><g id="c"><path d="M15.26,21c-.28,0-.5-.22-.5-.5v-2.95c.05-.63-.16-1.21-.58-1.64-.13-.14-.18-.34-.11-.52,.07-.18,.23-.31,.42-.33,2.23-.25,4.5-1.01,4.5-4.83,0-.94-.36-1.83-1.01-2.51-.13-.14-.17-.34-.11-.52,.27-.72,.29-1.49,.05-2.21-.34,.04-1.11,.22-2.37,1.06-.12,.08-.27,.11-.41,.07-1.67-.45-3.44-.45-5.11,0-.14,.04-.29,.01-.41-.07-1.25-.83-2.02-1.02-2.38-1.05-.24,.72-.22,1.49,.05,2.2,.07,.18,.03,.38-.11,.52-.66,.69-1.02,1.58-1.01,2.53,0,3.76,2.17,4.54,4.51,4.83,.19,.02,.35,.15,.41,.33,.06,.18,.02,.38-.11,.51-.41,.42-.62,1-.58,1.58v2.98c0,.28-.22,.5-.5,.5s-.5-.22-.5-.5v-1.64c-2.39,.49-3.33-.7-4.04-1.58-.33-.41-.61-.77-.96-.86-.27-.07-.43-.34-.37-.61,.07-.27,.34-.43,.61-.36,.69,.17,1.11,.7,1.51,1.21,.67,.84,1.31,1.65,3.24,1.18v-.28c-.04-.54,.08-1.1,.34-1.59-2.16-.42-4.57-1.6-4.57-5.69,0-1.1,.38-2.15,1.09-2.99-.29-.97-.23-2.01,.18-2.95,.06-.14,.18-.24,.32-.28,.18-.05,1.18-.25,3.24,1.07,1.71-.42,3.49-.42,5.2,0,2.05-1.31,3.05-1.12,3.24-1.07,.14,.04,.26,.15,.32,.28,.41,.94,.47,1.98,.18,2.95,.7,.83,1.09,1.88,1.08,2.97,0,4.14-2.41,5.31-4.57,5.7,.26,.5,.38,1.07,.33,1.65v2.91c0,.28-.22,.5-.5,.5Z" fill="#fff"/></g></svg>