<?xml version="1.0" encoding="UTF-8"?><svg id="a" xmlns="http://www.w3.org/2000/svg" viewBox="0 0 24 24"><rect width="24" height="24" fill="none"/><g><g><path d="M18.75,4.29H5.24V14.38c0,3.52,3.02,6.41,6.75,6.41s6.75-2.87,6.75-6.41V4.29Z" fill="#fff"/><rect x="12" y="4.2" width="6.75" height="2.36" fill="#c2172e"/><rect x="12" y="9.01" width="6.75" height="2.36" fill="#c2172e"/><g><path d="M18.75,13.72h-6.76v2.34h6.53c.16-.55,.24-1.12,.24-1.7v-.64h0Z" fill="#c2172e"/><path d="M11.99,20.8c2,.02,3.92-.83,5.24-2.34h-5.24v2.34Z" fill="#c2172e"/></g><rect x="7.69" y="9.7" width="3.65" height=".39" fill="#c2172e"/><rect x="8.21" y="10.23" width="2.6" height=".39" fill="#c2172e"/><rect x="8.21" y="9.16" width="2.6" height=".39" fill="#c2172e"/><polygon points="8.61 16.66 7.46 18 8.34 10.78 10.67 10.78 11.55 18 10.41 16.66 9.51 19.54 8.6 16.66 8.61 16.66" fill="#c2172e"/><g><path d="M8.59,9.02c.18-.72,.23-1.46,.14-2.2-.07-.43-.4-.76-.82-.83-.8-.11-.94,.59-.9,.55,.28-.16,.63-.14,.9,.04,.4,.34,.44,.94,.1,1.34-.41,.48-1.11,.44-1.52,.15-.25-.14-.44-.38-.53-.65-.19-.66-.04-1.38,.41-1.89,.72-.7,1.81-.86,2.7-.39,1.25,.59,1.32,3.89,1.32,3.89h-1.79" fill="#c2172e"/><rect x="11.77" y="4.2" width=".45" height="16.53" fill="#171714"/></g></g><path d="M11.99,21c-1.95,0-3.89-.78-5.19-2.1-1.18-1.19-1.81-2.77-1.8-4.56V4h14V14.34c0,4.54-4.18,6.66-7.01,6.66ZM5.42,4.42V14.34c0,1.68,.58,3.15,1.68,4.26,1.22,1.24,3.05,1.98,4.89,1.98,2.66,0,6.59-1.98,6.59-6.24V4.42H5.42Z" fill="#171714"/></g></svg>