<?xml version="1.0" encoding="UTF-8"?><svg id="a" xmlns="http://www.w3.org/2000/svg" viewBox="0 0 24 24"><g><rect x="0" y="0" width="24" height="24" fill="none"/><path d="M20.2,10.02c.49-.53,.8-1.24,.8-2.02,0-1.66-1.34-3-3-3-.85,0-1.62,.36-2.16,.93-.47-1.69-2-2.93-3.84-2.93-2.21,0-4,1.79-4,4,0,1.2,.54,2.27,1.38,3h-.38c-.89,0-1.64,.59-1.9,1.4L2,8v12l5.1-3.4c.26,.81,1.01,1.4,1.9,1.4h11c1.1,0,2-.9,2-2v-4c0-1.03-.79-1.87-1.8-1.98Zm-2.2-4.02c1.1,0,2,.9,2,2s-.9,2-2,2-2-.9-2-2,.9-2,2-2Zm-2.22,4h-1.16c.25-.22,.48-.46,.67-.73,.13,.27,.29,.51,.49,.73Zm-6.78-3c0-1.65,1.35-3,3-3s3,1.35,3,3-1.35,3-3,3-3-1.35-3-3Zm-6,2.87l4,2.67v2.93l-4,2.67V9.87Zm18,6.13c0,.55-.45,1-1,1H9c-.55,0-1-.45-1-1v-4c0-.55,.45-1,1-1h11c.55,0,1,.45,1,1v4Z" fill="#fff"/></g><circle cx="12.5" cy="14" r=".5" fill="#fff"/><circle cx="14.5" cy="14" r=".5" fill="#fff"/><circle cx="16.5" cy="14" r=".5" fill="#fff"/></svg>