<?xml version="1.0" encoding="UTF-8"?><svg id="a" xmlns="http://www.w3.org/2000/svg" viewBox="0 0 24 24"><rect y="0" width="24" height="24" transform="translate(24 0) rotate(90)" fill="none"/><rect y="0" width="24" height="24" fill="none"/><path d="M10,10c0,.55-.45,1-1,1s-1-.45-1-1,.45-1,1-1,1,.45,1,1Zm7.5-4c-.28,0-.5,.22-.5,.5s.22,.5,.5,.5,.5-.22,.5-.5-.22-.5-.5-.5Zm-3-3c-.28,0-.5,.22-.5,.5s.22,.5,.5,.5,.5-.22,.5-.5-.22-.5-.5-.5Zm7,4c-.28,0-.5,.22-.5,.5s.22,.5,.5,.5,.5-.22,.5-.5-.22-.5-.5-.5Zm-6.5,7c-.55,0-1,.45-1,1s.45,1,1,1,1-.45,1-1-.45-1-1-1Zm-5,1c-.55,0-1,.45-1,1s.45,1,1,1,1-.45,1-1-.45-1-1-1Zm1.04-10.94c-3.96,.47-7.04,3.86-7.04,7.94,0,4.41,3.59,8,8,8,4.07,0,7.44-3.06,7.94-7-1.38,0-2.58-.82-3.14-2.02-.11,.01-.23,.02-.34,.02-2.21,0-4-1.79-4-4,0-.21,.02-.43,.05-.64-.77-.54-1.31-1.37-1.46-2.31m.96-1.06s.03,0,.05,0c-.03,.16-.05,.33-.05,.5,0,1.09,.71,2.01,1.68,2.35-.15,.35-.23,.74-.23,1.15,0,1.66,1.34,3,3,3,.36,0,.71-.07,1.03-.19,.15,1.23,1.19,2.19,2.47,2.19,.37,0,.72-.09,1.04-.23,0,.08,.01,.15,.01,.23,0,4.97-4.03,9-9,9S3,16.97,3,12,7.03,3,12,3h0Z" fill="#fff"/></svg>