<?xml version="1.0" encoding="UTF-8"?><svg id="a" xmlns="http://www.w3.org/2000/svg" viewBox="0 0 24 24"><rect x="0" y="0" width="24" height="24" fill="none"/><rect x="0" y="0" width="24" height="24" fill="none"/><rect id="b" x="0" y="0" width="24" height="24" fill="none"/><path d="M23,10c0,2.21-1.79,4-4,4v-1c1.65,0,3-1.35,3-3s-1.35-3-3-3v-1c2.21,0,4,1.79,4,4Zm-4-2v1c.55,0,1,.45,1,1s-.45,1-1,1v1c1.1,0,2-.9,2-2s-.9-2-2-2Zm-3-2.56l-6,2.25v4.61l6,2.25V5.44m1-1.44v12l-8-3V7l8-3h0ZM7,8h-1c-1.1,0-2,.9-2,2s.9,2,2,2h1v-4m1-1v6h-2c-1.66,0-3-1.34-3-3s1.34-3,3-3h2Zm-.5,8h-1.25l.75,3h2l-1.5-3m.62-1l1.78,3.55c.16,.31,.14,.68-.04,.97s-.5,.47-.85,.47h-2c-.46,0-.86-.31-.97-.76l-1-4c-.02-.08,0-.16,0-.24h3.09Z" fill="#fff"/></svg>