<?xml version="1.0" encoding="UTF-8"?><svg id="a" xmlns="http://www.w3.org/2000/svg" viewBox="0 0 24 24"><g><g isolation="isolate"><g><polygon points="7.6 15.47 7.59 17.22 6.88 16.87 6.89 15.12 7.6 15.47" fill="#2f3541"/><polygon points="9.02 16.16 9.01 17.91 8.3 17.56 8.31 15.82 9.02 16.16" fill="#2f3541"/><polygon points="7.62 11.98 7.61 13.72 6.9 13.37 6.91 11.63 7.62 11.98" fill="#2f3541"/><polygon points="9.04 12.67 9.03 14.41 8.32 14.07 8.33 12.32 9.04 12.67" fill="#2f3541"/><polygon points="7.64 8.47 7.63 10.22 6.92 9.87 6.93 8.13 7.64 8.47" fill="#2f3541"/><polygon points="10.45 13.36 10.44 15.1 9.73 14.76 9.74 13.01 10.45 13.36" fill="#2f3541"/><polygon points="9.06 9.16 9.05 10.91 8.34 10.57 8.35 8.82 9.06 9.16" fill="#2f3541"/><path d="M5.53,4.81l6.37,3.11-.08,13.99-6.37-3.11,.08-13.99Zm5.6,15.87l.07-12.24-4.96-2.42-.07,12.24,4.96,2.42" fill="#2f3541"/><polygon points="10.43 16.85 10.42 18.6 9.71 18.25 9.72 16.51 10.43 16.85" fill="#2f3541"/><polygon points="10.47 9.85 10.46 11.6 9.75 11.26 9.76 9.51 10.47 9.85" fill="#2f3541"/></g></g><g opacity=".2"><polygon points="11.9 7.92 17.55 5.2 17.47 19.19 11.82 21.92 11.9 7.92" fill="#2f3541"/></g><g opacity=".2"><polygon points="5.53 4.81 11.17 2.09 17.55 5.2 11.9 7.92 5.53 4.81" fill="#2f3541"/></g></g><rect id="c" y="0" width="24" height="24" fill="none"/></svg>