<?xml version="1.0" encoding="UTF-8"?><svg id="a" xmlns="http://www.w3.org/2000/svg" viewBox="0 0 24 24"><rect y="0" width="24" height="24" fill="none"/><rect id="b" y="0" width="24" height="24" fill="none"/><g><path d="M10.67,11c-1.04,0-1.67,.48-1.67,.69v2.54c0,.06,.08,.19,.3,.34l.34,.22,.09,.4,1.07,4.81h2.4l1.07-4.81,.09-.4,.34-.22c.22-.15,.3-.28,.3-.34v-2.54c0-.21-.63-.69-1.67-.69h-2.67m0-1h2.67c1.47,0,2.67,.76,2.67,1.69v2.54c0,.46-.29,.87-.75,1.17l-1.25,5.59h-4l-1.25-5.59c-.47-.31-.75-.72-.75-1.17v-2.54c0-.93,1.19-1.69,2.67-1.69Z" fill="#2f3541"/><path d="M12,4c1.1,0,2,.9,2,2s-.9,2-2,2-2-.9-2-2,.9-2,2-2m0-1c-1.66,0-3,1.34-3,3s1.34,3,3,3,3-1.34,3-3-1.34-3-3-3h0Z" fill="#2f3541"/></g></svg>