<?xml version="1.0" encoding="UTF-8"?><svg id="e" xmlns="http://www.w3.org/2000/svg" xmlns:xlink="http://www.w3.org/1999/xlink" viewBox="0 0 48 48"><defs><linearGradient id="a" x1="17.05" y1="22.76" x2="17.05" y2="23.24" gradientTransform="matrix(1, 0, 0, 1, 0, 0)" gradientUnits="userSpaceOnUse"><stop offset="0" stop-color="#00d2b2"/><stop offset="1" stop-color="#26f"/></linearGradient><linearGradient id="c" x1="26.59" y1="31.63" x2="41.46" y2="31.63" gradientTransform="matrix(1, 0, 0, 1, 0, 0)" gradientUnits="userSpaceOnUse"><stop offset="0" stop-color="#2f3541" stop-opacity=".4"/><stop offset="1" stop-color="#2f3541" stop-opacity="0"/></linearGradient><linearGradient id="g" x1="18.82" y1="12.59" x2="22.06" y2="15.48" gradientTransform="matrix(1, 0, 0, 1, 0, 0)" gradientUnits="userSpaceOnUse"><stop offset="0" stop-color="#00d2b2"/><stop offset="1" stop-color="#26f"/></linearGradient><linearGradient id="h" x1="18.8" y1="11.7" x2="22.02" y2="17.6" xlink:href="#a"/><linearGradient id="i" x1="22.81" y1="20.37" x2="28.72" y2="26.92" xlink:href="#a"/><linearGradient id="j" x1="24.81" y1="17.58" x2="27.49" y2="24.35" xlink:href="#a"/><linearGradient id="k" x1="25.93" y1="21.24" x2="27.91" y2="24.69" xlink:href="#g"/><linearGradient id="l" x1="28.64" y1="26.79" x2="31" y2="30.12" xlink:href="#a"/><linearGradient id="m" x1="28.23" y1="15.2" x2="30.27" y2="18.74" xlink:href="#a"/><linearGradient id="n" x1="16.59" y1="20.21" x2="17.91" y2="22.55" xlink:href="#g"/><linearGradient id="o" x1="22.61" y1="17.03" x2="25.51" y2="20.36" xlink:href="#g"/><linearGradient id="p" x1="25.51" y1="27.54" x2="26.86" y2="30.14" xlink:href="#a"/><linearGradient id="q" x1="22.69" y1="29.01" x2="24.05" y2="31.61" xlink:href="#a"/></defs><g><polyline points="44 30.5 24 20.5 4 30.5 24 40.5 44 30.5 44 30.5" fill="#f2f6ff"/><polygon points="24 40.5 24 42.5 4 32.5 4 30.5 24 40.5" fill="#fff" opacity=".2"/><polygon points="24 40.5 24 42.5 44 32.5 44 30.5 24 40.5" fill="#2f3541"/></g><rect width="48" height="48" fill="none"/><rect width="48" height="48" fill="none"/><polygon points="44 30.5 35.45 34.77 23.97 32.02 32.13 28.48 40.18 28.59 44 30.5" fill="url(#c)"/><rect x="12" y="10" width="24" height="24" fill="none"/><path d="M20.12,29.67l5.65-2.73c.15-.07,.33-.1,.53-.06l-5.65,2.73c-.2-.03-.37-.01-.53,.06Z" fill="#fff"/><path d="M22.47,10.93c-.33-.16-.63-.17-.88-.05l-5.65,2.73c.24-.12,.55-.11,.88,.05,.78,.38,1.42,1.47,1.41,2.44,0,.33-.08,.59-.2,.79l5.65-2.73c.13-.2,.2-.47,.2-.79,0-.97-.63-2.06-1.41-2.44Z" fill="url(#g)" opacity=".8"/><polygon points="23.68 14.16 18.03 16.89 19.23 18.96 24.87 16.23 23.68 14.16" fill="url(#h)" opacity=".8"/><polygon points="23.67 26.57 29.32 23.85 29.8 24.46 24.15 27.18 23.67 26.57" fill="#fff"/><polygon points="24.05 26.01 29.7 23.28 29.32 23.85 23.67 26.57 24.05 26.01" fill="#fff"/><polygon points="24.05 26.01 29.7 23.28 30.07 23.76 24.43 26.49 24.05 26.01" fill="#fff"/><polygon points="26.03 29.55 31.68 26.83 32.14 27.41 26.49 30.14 26.03 29.55" fill="#fff"/><polygon points="24.43 26.49 30.07 23.76 32.12 26.36 26.48 29.08 24.43 26.49" fill="url(#i)" opacity=".8"/><polygon points="26.48 29.08 32.12 26.36 32.51 26.85 26.87 29.58 26.48 29.08" fill="#fff"/><polygon points="26.87 29.58 32.51 26.85 32.14 27.41 26.49 30.14 26.87 29.58" fill="#fff"/><polygon points="23.79 22.17 29.44 19.44 29.42 19.45 23.78 22.18 23.79 22.17" fill="#fff"/><polygon points="23.3 21.31 28.94 18.58 29.42 19.45 23.78 22.18 23.3 21.31" fill="#26f"/><g opacity=".8"><path d="M23.78,22.18l5.65-2.73c.51,.99,.81,2.1,.8,3.15,0,.43-.05,.82-.15,1.16l-5.65,2.73c.09-.34,.15-.73,.15-1.16,0-1.05-.29-2.16-.8-3.15Z" fill="url(#j)"/><path d="M23.78,22.18l5.65-2.73c.51,.99,.81,2.1,.8,3.15,0,.43-.05,.82-.15,1.16l-5.65,2.73c.09-.34,.15-.73,.15-1.16,0-1.05-.29-2.16-.8-3.15Z" fill="url(#k)"/></g><path d="M32.69,26.43c-.21-.1-.4-.12-.57-.07l-5.65,2.73c.16-.05,.36-.03,.57,.07,.59,.29,1.05,1.11,1.05,1.83,0,.42-.16,.71-.41,.83l5.65-2.73c.25-.12,.41-.41,.41-.83,0-.72-.46-1.54-1.05-1.83Z" fill="url(#l)" opacity=".8"/><path d="M32.04,14.72c-.41-.2-.79-.21-1.09-.07l-5.65,2.73c.3-.15,.68-.14,1.09,.07,.98,.48,1.77,1.84,1.76,3.04,0,.7-.27,1.19-.68,1.39l5.65-2.73c.41-.2,.68-.69,.68-1.39,0-1.2-.78-2.57-1.76-3.04Z" fill="url(#m)" opacity=".8"/><path d="M16.81,16.28c-.39-.19-.71-.74-.7-1.22s.32-.72,.71-.53c.4,.19,.71,.74,.71,1.22,0,.48-.32,.72-.72,.53Z" fill="#fff5fa"/><path d="M16.49,23.26l1.13-.14c-.02-.13-.04-.25-.06-.38l-1.08,.52Z" fill="url(#a)" opacity=".8"/><path d="M26.38,18.32c.59,.29,1.06,1.11,1.06,1.83,0,.72-.49,1.08-1.07,.79-.58-.28-1.05-1.11-1.05-1.83,0-.72,.49-1.07,1.07-.79Z" fill="#fff5fa"/><path d="M19.25,23l-2.51,1.21c.02,.13,.02,.26,.02,.38,0,.7-.27,1.19-.68,1.38l3.17-1.53v-1.45Z" fill="url(#a)" opacity=".8"/><path d="M19.25,18.9l-5.34,2.58c.3-.15,.69-.14,1.1,.07,.62,.3,1.16,.96,1.48,1.72l2.76-1.33v-3.03Z" fill="url(#n)"/><path d="M27.04,29.16c-.21-.1-.4-.12-.57-.07l-2.05-2.59c.09-.34,.15-.73,.15-1.16,0-1.05-.29-2.16-.8-3.15h.01l1.6-1.2c.28,.37,.61,.66,.97,.84,.98,.48,1.78-.11,1.78-1.32,0-1.2-.78-2.57-1.76-3.04-.98-.48-1.77,.11-1.78,1.32,0,.45,.1,.92,.29,1.35h0l-1.6,1.19c-.61-.92-1.39-1.67-2.24-2.09-.67-.33-1.29-.4-1.83-.26l-1.19-2.07h0c.13-.2,.2-.47,.2-.79,0-.97-.63-2.06-1.41-2.44-.78-.38-1.42,.09-1.42,1.06,0,.97,.63,2.06,1.41,2.44,.26,.13,.51,.16,.72,.11h0l1.13,1.95c-.71,.46-1.15,1.39-1.16,2.66,0,.41,.04,.83,.12,1.24l-1.13,.14c-.31-.75-.85-1.42-1.48-1.72-.98-.48-1.78,.11-1.78,1.32,0,1.2,.78,2.57,1.76,3.04,.98,.48,1.77-.11,1.78-1.32,0-.13,0-.25-.02-.38l1.13-.15c.53,1.55,1.56,2.97,2.79,3.72v1.83h0c-.61-.11-1.07,.36-1.07,1.17,0,.97,.62,2.05,1.41,2.44,.78,.38,1.42-.09,1.42-1.06,0-.82-.44-1.72-1.05-2.21h0v-1.83c1.21,.44,2.24,.05,2.79-.94l1.88,2.37c-.04,.12-.06,.25-.06,.4,0,.72,.47,1.54,1.06,1.83,.59,.29,1.06-.07,1.07-.79,0-.72-.46-1.54-1.05-1.83Zm-.66-10.84c.59,.29,1.06,1.11,1.06,1.83,0,.72-.49,1.08-1.07,.79-.58-.28-1.05-1.11-1.05-1.83,0-.72,.49-1.07,1.07-.79Zm-10.28-3.26c0-.48,.32-.72,.71-.53,.4,.19,.71,.74,.71,1.22,0,.48-.32,.72-.72,.53-.39-.19-.71-.74-.7-1.22Zm-1.12,9.97c-.59-.29-1.06-1.1-1.06-1.83,0-.72,.49-1.08,1.07-.8,.59,.29,1.05,1.11,1.05,1.83,0,.72-.48,1.08-1.07,.79Zm6.71,6.78c0,.48-.32,.72-.71,.53-.39-.19-.71-.74-.7-1.22,0-.48,.32-.72,.71-.53,.39,.19,.71,.74,.7,1.22Zm-.68-4.72c-1.56-.76-2.82-2.95-2.81-4.87,.01-1.93,1.29-2.88,2.85-2.12,1.56,.76,2.83,2.96,2.82,4.89s-1.29,2.87-2.86,2.11Zm6.02,3.81c-.2-.1-.36-.37-.35-.61,0-.24,.16-.36,.36-.27,.19,.09,.35,.37,.35,.61,0,.24-.16,.36-.35,.26Z" fill="#2f3541"/><path d="M21.06,19.22c.85,.42,1.63,1.17,2.24,2.09l1.6-1.19h0c-.18-.44-.29-.91-.29-1.35,0-1.2,.8-1.79,1.78-1.32,.61,.3,1.14,.94,1.46,1.67l1.09-.53c-.61-.92-1.39-1.67-2.24-2.09-.67-.33-1.29-.4-1.83-.26l-5.65,2.73c.53-.14,1.16-.06,1.83,.26Z" fill="url(#o)"/><path d="M27.04,30.03c-.2-.1-.36,.02-.36,.27,0,.19,.1,.4,.25,.53l.46-.22c-.01-.23-.16-.49-.34-.57Z" fill="url(#p)" opacity=".8"/><path d="M25.97,29.95c0-.15,.02-.28,.06-.4l-1.07-1.34-3.61,1.74h0s.01,.01,.02,.02c.45,.37,.81,.96,.96,1.57,.05,.21,.08,.42,.08,.62,0,.13-.01,.25-.04,.36,0,.04-.02,.07-.03,.1-.02,.07-.04,.14-.07,.2-.02,.03-.04,.06-.05,.1-.03,.05-.06,.1-.1,.14-.02,.03-.05,.05-.07,.08-.04,.04-.08,.07-.13,.09-.02,.01-.03,.03-.05,.04l4.48-2.16c-.22-.35-.37-.76-.37-1.16Z" fill="url(#q)" opacity=".8"/><g opacity=".8"><path d="M24.15,27.18c-.55,.99-1.58,1.38-2.78,.94v1.83l3.6-1.74-.82-1.03Z" fill="#26f"/></g><path d="M24.15,27.18c-.11,.19-.24,.35-.38,.5-.02,.02-.05,.05-.07,.07-.14,.13-.29,.24-.46,.32-.01,0-.03,.02-.04,.03l1.21-.58-.27-.34Z" fill="#26f" opacity=".8"/><path d="M21.01,27.09c-1.56-.76-2.82-2.95-2.81-4.87,.01-1.93,1.29-2.88,2.85-2.12,1.56,.76,2.83,2.96,2.82,4.89s-1.29,2.87-2.86,2.11Z" fill="#fff5fa"/><path d="M22.46,22.54l-2.83-1.38-.71,.96,1.87,3.55,.47,.23,1.9-1.71-.7-1.65Zm-.91,.87l-1.03-.5,.36-.7h0l.31,.15,.35,1.05Zm-1.73-1.72l.68,.33h0l-.35,.7h0l-.75-.37h0l-.03-.05,.46-.61Zm-.11,1.26h0l.58,.28,.47,1.7-1.05-1.98Zm1.33,1.81h0l-.37-1.34,.75,.37-.38,.97Zm1.34-.51l-1.05,.95,.48-1.22,.57,.28,.08,.04-.08-.04Zm.32-.29l-.75-.36h0l-.35-1.04,.68,.33,.44,1.05-.03,.03h0Z" fill="#2f3541"/><path d="M14.99,25.03c-.59-.29-1.06-1.1-1.06-1.83,0-.72,.49-1.08,1.07-.8,.59,.29,1.05,1.11,1.05,1.83,0,.72-.48,1.08-1.07,.79Z" fill="#fff5fa"/><path d="M21.7,31.81c0,.48-.32,.72-.71,.53-.39-.19-.71-.74-.7-1.22,0-.48,.32-.72,.71-.53,.39,.19,.71,.74,.7,1.22Z" fill="#fff5fa"/><path d="M27.03,30.91c-.2-.1-.36-.37-.35-.61,0-.24,.16-.36,.36-.27,.19,.09,.35,.37,.35,.61,0,.24-.16,.36-.35,.26Z" fill="#fff5fa"/></svg>