<?xml version="1.0" encoding="UTF-8"?><svg id="a" xmlns="http://www.w3.org/2000/svg" xmlns:xlink="http://www.w3.org/1999/xlink" viewBox="0 0 48 48"><defs><linearGradient id="b" x1="20.53" y1="31.09" x2="40.57" y2="31.09" gradientTransform="matrix(1, 0, 0, 1, 0, 0)" gradientUnits="userSpaceOnUse"><stop offset="0" stop-color="#2f3541" stop-opacity=".4"/><stop offset="1" stop-color="#2f3541" stop-opacity="0"/></linearGradient><linearGradient id="c" x1="23.7" y1="15.1" x2="28.96" y2="25.55" gradientTransform="matrix(1, 0, 0, 1, 0, 0)" gradientUnits="userSpaceOnUse"><stop offset="0" stop-color="#f84"/><stop offset="1" stop-color="#f49"/></linearGradient></defs><g><polyline points="44 30.5 24 20.5 4 30.5 24 40.5 44 30.5 44 30.5" fill="#f2f6ff"/><polygon points="24 40.5 24 42.5 4 32.5 4 30.5 24 40.5" fill="#fff" opacity=".2"/><polygon points="24 40.5 24 42.5 44 32.5 44 30.5 24 40.5" fill="#2f3541"/></g><path d="M37.06,27.03c-1.3-.16-2.7-.27-4.16-.31-.02,.04-.03,.08-.04,.11-.03,.06-.06,.12-.09,.19-.02,.04-.03,.07-.05,.11-.02,.03-.03,.06-.04,.09-.09,.16-.18,.32-.29,.46h0c-.17,.24-.37,.45-.58,.64-.05,.05-.1,.09-.16,.14-.22,.18-.44,.34-.69,.46l-5.65,2.73c.25-.12,.48-.28,.69-.46,.05-.04,.11-.09,.16-.14,.21-.19,.41-.4,.58-.64,.12-.17,.23-.36,.33-.55,.02-.03,.03-.07,.05-.11,.09-.19,.18-.38,.25-.59,0-.02,.01-.04,.02-.06,.07-.22,.14-.45,.19-.69v-.07c.07-.25,.11-.51,.14-.79v-.03c.03-.22,.03-.44,.04-.67-6.19,.5-10.76,2.2-10.76,4.24,0,2.42,6.49,4.39,14.5,4.39,.93,0,1.84-.03,2.72-.08l9.78-4.89-6.94-3.47Z" fill="url(#b)"/><path d="M21.36,30.52c3.12,1.52,5.68-.38,5.7-4.23,.02-3.86-2.51-8.24-5.63-9.76s-5.68,.38-5.7,4.23,2.51,8.24,5.63,9.76" fill="#fff3f8"/><g><path d="M19.27,22.49l2.16-5.08,2.09,7.16-2.16,5.09-2.1-7.16Zm2.11,4.94l1.22-2.88-2.4-1.17,1.19,4.05m-1.18-4.92l2.4,1.17-1.18-4.05-1.22,2.88" fill="#2f3541"/><path d="M21.44,15.65c3.52,1.72,6.36,6.63,6.33,10.98s-2.9,6.48-6.42,4.76c-3.53-1.72-6.36-6.63-6.33-10.98,.02-4.34,2.89-6.48,6.42-4.76Zm-.08,14.87c3.12,1.52,5.68-.38,5.7-4.23,.02-3.86-2.51-8.24-5.63-9.76s-5.68,.38-5.7,4.23,2.51,8.24,5.63,9.76" fill="#2f3541"/></g><rect x="12" y="10.66" width="24" height="24" fill="none"/><rect x="0" y="0" width="48" height="48" fill="none"/><path d="M33.41,23.56c0-.11,0-.22-.01-.33,0-.04,0-.07,0-.11v-.07c0-.05-.01-.11-.02-.16-.01-.12-.02-.23-.04-.35-.01-.08-.02-.16-.03-.24v-.06l-.02-.06c-.02-.12-.04-.25-.06-.38-.02-.12-.05-.23-.07-.35v-.05c-.04-.14-.08-.29-.11-.43-.03-.1-.06-.21-.09-.31,0-.03-.02-.06-.03-.09,0-.02-.01-.04-.02-.06-.05-.17-.11-.35-.17-.52-.01-.04-.03-.08-.04-.12-.03-.08-.06-.16-.09-.23-.03-.09-.07-.19-.1-.28-.02-.06-.05-.11-.07-.17-.07-.18-.15-.35-.23-.53-.03-.07-.06-.15-.09-.22-.02-.03-.03-.06-.05-.09-.16-.34-.34-.67-.52-.99-.03-.06-.07-.11-.1-.16-.17-.27-.34-.54-.52-.8-.03-.04-.06-.09-.09-.14-.03-.04-.06-.08-.09-.12-.1-.14-.2-.27-.31-.4-.05-.07-.1-.14-.16-.21-.03-.04-.06-.07-.09-.11-.05-.06-.11-.12-.16-.18-.06-.07-.11-.13-.17-.2-.07-.08-.15-.15-.22-.23-.03-.03-.06-.07-.1-.1-.02-.02-.03-.04-.05-.05-.11-.11-.22-.21-.33-.31-.04-.04-.09-.08-.13-.12-.02-.02-.05-.04-.07-.07-.03-.03-.06-.06-.09-.08-.1-.08-.2-.16-.29-.24-.05-.04-.1-.08-.15-.12l-.06-.04s-.04-.03-.07-.05c-.09-.07-.18-.13-.27-.19-.09-.06-.18-.12-.27-.17h0c-.09-.05-.18-.11-.27-.16-.09-.05-.18-.1-.26-.14-.04-.02-.08-.04-.12-.06-.05-.02-.1-.05-.15-.07-.09-.04-.18-.08-.26-.11-.04-.01-.07-.03-.11-.04l-.06-.02s-.06-.02-.09-.04c-.09-.03-.18-.06-.27-.09-.04-.01-.08-.02-.11-.03l-.07-.02s-.06-.02-.09-.02c-.09-.02-.18-.04-.27-.06-.03,0-.06,0-.09-.02h-.08s-.08-.03-.12-.03c-.1-.01-.2-.02-.29-.03h-.04s-.05,0-.07,0c-.07,0-.14,0-.21,0-.05,0-.1,0-.16,0-.04,0-.08,0-.12,0-.02,0-.05,0-.07,0-.09,0-.18,.03-.27,.04-.03,0-.07,0-.1,.01h-.02s-.09,.03-.13,.04c-.11,.03-.21,.05-.31,.09,0,0-.02,0-.03,0-.12,.04-.24,.09-.36,.15l-5.65,2.73c.13-.06,.26-.11,.39-.16,.1-.03,.2-.06,.31-.08,.05-.01,.1-.03,.16-.04,.03,0,.06,0,.09-.01,.11-.02,.23-.04,.35-.04,.04,0,.08,0,.12,0,.12,0,.24,0,.37,0,.02,0,.05,0,.07,0,.15,0,.29,.03,.44,.05,.03,0,.05,0,.08,.01,.15,.03,.3,.06,.46,.1l.07,.02c.16,.04,.31,.1,.47,.16l.06,.02c.17,.07,.34,.14,.52,.23,.22,.11,.44,.23,.65,.36h0c.21,.13,.41,.26,.61,.41l.06,.04c.18,.14,.36,.28,.54,.44,.02,.02,.05,.04,.07,.07,.17,.15,.35,.32,.51,.48,.03,.03,.06,.07,.1,.1,.13,.14,.26,.28,.39,.43,.05,.06,.11,.12,.16,.18,.09,.1,.17,.21,.25,.31,.1,.13,.21,.26,.31,.4,.06,.08,.12,.17,.18,.25,.18,.26,.36,.53,.52,.8,.03,.05,.07,.11,.1,.16,.19,.32,.36,.65,.52,.99,.05,.1,.1,.2,.14,.31,.08,.18,.16,.35,.23,.53,.06,.15,.12,.29,.17,.44,.03,.08,.06,.16,.09,.24,.08,.23,.16,.47,.23,.7,0,.03,.02,.06,.02,.09,.07,.25,.14,.51,.19,.76v.03c.06,.26,.11,.53,.15,.79v.06c.04,.25,.07,.5,.09,.75v.07c.02,.26,.03,.53,.03,.79,0,.31-.02,.6-.05,.89v.03c-.03,.27-.07,.54-.13,.79v.07c-.07,.24-.13,.47-.21,.69,0,.02-.01,.04-.02,.06-.07,.21-.16,.4-.25,.59-.02,.04-.03,.07-.05,.11-.1,.19-.21,.38-.33,.55-.17,.24-.37,.45-.58,.64-.05,.05-.1,.09-.16,.14-.22,.18-.44,.34-.69,.46l5.65-2.73c.25-.12,.48-.28,.69-.46,.05-.04,.11-.09,.16-.14,.21-.19,.41-.4,.58-.64h0c.1-.14,.2-.3,.29-.46,.02-.03,.03-.06,.04-.09,.02-.04,.04-.07,.05-.11,.03-.06,.06-.12,.09-.19,.05-.11,.1-.23,.14-.35,0-.02,.01-.03,.02-.05,0-.02,.01-.04,.02-.06,.03-.08,.05-.15,.08-.23,.03-.11,.06-.22,.09-.33,.01-.04,.02-.09,.03-.13v-.06s.03-.08,.04-.13c.02-.1,.04-.21,.06-.32,.02-.1,.03-.21,.04-.31v-.06c.01-.09,.02-.17,.03-.26,0-.1,.01-.21,.02-.32,0-.1,0-.21,0-.31v-.02c0-.11,0-.22,0-.33Z" fill="url(#c)" opacity=".8"/></svg>