<?xml version="1.0" encoding="UTF-8"?><svg id="a" xmlns="http://www.w3.org/2000/svg" viewBox="0 0 24 24"><g><g opacity=".4"><polygon points="12 11 12 21 20 17 20 7 12 11" fill="#fff"/></g><g opacity=".8"><polygon points="12 11 12 21 4 17 4 7 12 11" fill="#fff"/></g><g opacity=".2"><polyline points="20 7 12 3 4 7 12 11 20 7 20 7" fill="#fff"/></g></g><path d="M20,7L12,3,4,7v10l8.01,4,8-4V7Zm-8.51,3.22l-5.83-2.82,5.82-3.02v5.85Zm-.45,.88l-6.04,4.41v-7.23l6.04,2.81Zm.46,.89v7.65l-6.2-3.1,6.2-4.54Zm1-7.62l6.05,3.02-6.05,2.82V4.37Zm0,7.62l6.2,4.54-6.2,3.1v-7.65Zm.48-.89l6.02-2.81v7.23l-6.02-4.41Z" fill="#fff" opacity=".5"/></svg>