<?xml version="1.0" encoding="UTF-8"?><svg id="a" xmlns="http://www.w3.org/2000/svg" viewBox="0 0 24 24"><g opacity=".2"><g isolation="isolate"><path d="M9.13,21.83v.72l.81-.39c-.27-.09-.54-.2-.81-.33Z" fill="#fff"/><polygon points="9.87 19.66 7.72 20.7 9.14 20.22 9.96 19.83 9.87 19.66" fill="#fff"/><g><path d="M12.01,18.87l.02,.6v.08l1.24-.6-.31-.18-.39-.22-.45,.22s-.07,.06-.11,.09Z" fill="#fff"/><path d="M10.51,20.13l-.42-.06-.13-.25-.82,.4v.73l1.67-.81c-.1,0-.19,0-.29-.02Z" fill="#fff"/><path d="M13.96,17.9c-.1,.27-.21,.53-.34,.76l-.11,.19,1.28-.62v-.73l-.82,.4Z" fill="#fff"/></g><path d="M8.93,18.67s-.08-.04-.12-.07l-.33,.28-.3,.26,.85-.41s-.07-.04-.11-.06Z" fill="#fff"/><path d="M9.04,5.86c-1.36-.61-2.6-.62-3.59-.12-.12,.06-.24,.13-.35,.21-.04,.03-.08,.05-.12,.08-.15,.11-.29,.23-.43,.37-.03,.03-.06,.07-.08,.1-.1,.11-.2,.22-.29,.35-.04,.06-.08,.12-.12,.18-.07,.11-.14,.22-.2,.34-.04,.07-.07,.15-.11,.22-.06,.12-.11,.24-.16,.37-.03,.08-.06,.17-.09,.25-.04,.13-.08,.27-.12,.42-.02,.09-.04,.18-.06,.27-.03,.16-.06,.33-.08,.5-.01,.08-.03,.16-.03,.25-.03,.26-.04,.52-.04,.79h0l1.08-.51-.11-.18,.12-.46c.12-.45,.28-.84,.49-1.19l.22-.36,.43,.23,.48,.27c.15-.13,.3-.26,.47-.36l-.02-.6-.02-.56,.38-.08c.36-.08,.75-.08,1.15-.02l.42,.06,.29,.54,.26,.48" fill="#fff"/><path d="M5.87,8.23c.15-.13,.3-.26,.47-.36l-.02-.6v-.2l-1.37,.66,.43,.23,.48,.27Z" fill="#fff"/><g><path d="M14.94,18.38s.02-.04,.03-.07h0s-.01,.05-.02,.07Z" fill="#fff"/><path d="M13.4,19.02l1.52-.74s-.09-.04-.14-.06l-1.28,.62-.11,.18Z" fill="#fff"/><path d="M12.05,20.02h0l-.38,.08c-.27,.06-.56,.06-.86,.04l-1.67,.81c.19,.09,.38,.17,.57,.24,.06,.02,.12,.04,.18,.06,.13,.04,.25,.08,.38,.11,.07,.02,.14,.03,.2,.04,.12,.02,.23,.04,.34,.06,.07,0,.14,.02,.2,.02,.11,0,.23,.01,.34,.01,.06,0,.12,0,.18,0,.13,0,.26-.02,.38-.04,.04,0,.07,0,.11-.01,.16-.03,.31-.07,.46-.12,.04-.01,.08-.03,.12-.05,1.03-.39,1.87-1.27,2.26-2.62l-2.81,1.36Z" fill="#fff"/></g><g><path d="M15.1,17.58c-.03,.21-.07,.41-.11,.61,.05-.19,.08-.4,.11-.61Z" fill="#fff"/><path d="M13.4,19.02l.22-.37c.13-.22,.24-.47,.33-.72l-1.94,.93,.02,.6,.02,.55,2.81-1.36c.04-.13,.07-.27,.11-.4l-1.57,.76Z" fill="#fff"/><path d="M15.13,17.4s0-.02,0-.04h0s0,.03,0,.04Z" fill="#fff"/></g><path d="M12.48,18.51c-.14,.14-.3,.26-.47,.36l.59-.29-.12-.07Z" fill="#fff"/><path d="M9.22,5.94c-.24-.12-.47-.21-.7-.29l-2.21,1.07,.38-.08c.36-.08,.75-.08,1.15-.02l.42,.06,.95-.46v-.28Z" fill="#fff"/><polygon points="14.2 4.49 13.91 3.95 8.26 6.68 8.55 7.22 8.87 7.82 14.52 5.09 14.2 4.49" fill="#fff"/><path d="M8.87,7.82l5.65-2.73c.1,.03,.22,.08,.33,.14s.23,.12,.34,.19l-5.65,2.73c-.11-.07-.22-.13-.34-.19s-.23-.1-.33-.14Z" fill="#fff"/><path d="M15.19,16.53l-.97,.47-.12,.46c-.12,.45-.28,.84-.49,1.19l-.22,.37,1.58-.76c.13-.52,.21-1.1,.22-1.73Z" fill="#fff"/><polygon points="19.54 13.76 19.19 13.19 13.55 15.92 13.9 16.48 14.22 17 19.87 14.28 19.54 13.76" fill="#fff"/><path d="M11.05,8.38l-.67,.32-.57,.5,1.4-.67c-.05-.05-.11-.1-.16-.15Z" fill="#fff"/><path d="M13.55,15.09l5.65-2.73c0,.14,.01,.27,.01,.42,0,.14,0,.27-.02,.4l-5.65,2.73c0-.13,.01-.26,.02-.4,0-.15,0-.29-.01-.42Z" fill="#fff"/><polygon points="13.9 14.87 19.55 12.14 19.2 12.37 13.55 15.09 13.9 14.87" fill="#fff"/><path d="M5.05,4.82l5.65-2.73c1.15-.56,2.6-.52,4.17,.25l-5.65,2.73c-1.57-.76-3.02-.8-4.17-.25Z" fill="#fff"/><path d="M12.05,10.66l5.65-2.73c.16,.26,.32,.53,.46,.81l-5.65,2.73c-.15-.28-.3-.55-.46-.81Z" fill="#fff"/><polygon points="14.23 14.67 19.88 11.94 19.55 12.14 13.9 14.87 14.23 14.67" fill="#fff"/><polygon points="12.11 9.55 12.08 10.08 12.05 10.66 17.7 7.94 17.73 7.36 17.75 6.82 12.11 9.55" fill="#fff"/><path d="M17.37,6.37c-.36-.43-.74-.81-1.14-1.14l-.42-.35-5.65,2.73,.42,.35c.4,.33,.79,.72,1.14,1.14l.38,.45,5.65-2.73-.38-.45Z" fill="#fff"/><polygon points="9.23 4.33 14.87 1.61 16.28 3.47 10.63 6.2 9.23 4.33" fill="#fff"/><path d="M19.77,11.37c-.11-.56-.27-1.11-.47-1.66l-.21-.57-5.65,2.73,.21,.57c.2,.55,.36,1.1,.47,1.66l.11,.58,5.65-2.73-.11-.58Z" fill="#fff"/><polygon points="18.65 8.95 18.65 8.95 18.16 8.74 12.52 11.47 13 11.68 13 11.68 13.44 11.86 19.08 9.14 18.65 8.95" fill="#fff"/><path d="M18.95,19.35l-5.65,2.73c1.57-.76,2.59-2.63,2.61-5.27l5.65-2.73c-.01,2.64-1.03,4.51-2.61,5.27Z" fill="#fff"/><polygon points="15.19 16.45 20.84 13.73 21.55 14.08 15.91 16.8 15.19 16.45" fill="#fff"/></g></g><path d="M9.22,5.94c-3.32-1.62-6.04,.4-6.06,4.5l-.71-.35c.02-4.58,3.07-6.84,6.78-5.03v-.73l1.41,1.86-1.42,.47v-.73Z" fill="#fff"/><path d="M8.19,19.15l-.42-.35c-.4-.33-.79-.72-1.14-1.14l-.38-.45,.03-.53,.02-.58c-.16-.26-.32-.53-.46-.81l-.48-.2-.43-.18-.21-.58c-.2-.54-.36-1.1-.47-1.66l-.11-.58,.33-.2,.36-.22c-.01-.14-.02-.28-.02-.42,0-.15,0-.28,.02-.41l-.35-.57-.32-.52,.12-.46c.12-.45,.28-.84,.49-1.19l.22-.36,.43,.24,.48,.27c.15-.13,.3-.26,.47-.36l-.02-.6-.02-.56,.38-.08c.36-.08,.75-.08,1.15-.02l.42,.06,.29,.54,.32,.6c.1,.03,.22,.08,.33,.14s.23,.12,.34,.19l.32-.29,.3-.25,.42,.35c.4,.33,.79,.72,1.14,1.14l.38,.45-.02,.53-.03,.58c.16,.26,.32,.53,.46,.81l.48,.2,.43,.19,.21,.57c.2,.55,.36,1.1,.47,1.66l.11,.58-.33,.2-.35,.22c0,.14,.01,.27,.01,.42,0,.14,0,.27-.02,.4l.35,.56,.32,.52-.12,.46c-.12,.45-.28,.84-.49,1.19l-.22,.37-.43-.24-.48-.27c-.14,.14-.3,.26-.47,.36l.02,.6,.02,.55-.38,.08c-.36,.08-.75,.08-1.15,.02l-.42-.06-.29-.54-.32-.6c-.11-.04-.22-.09-.34-.14s-.22-.12-.33-.19l-.33,.28-.3,.26Zm-2.02-4.61c.23,.53,.52,1.04,.85,1.49l-.04,1.03c.3,.37,.64,.7,.99,.99l.58-.5c.2,.14,.39,.27,.61,.37s.41,.16,.61,.22l.56,1.06c.35,.05,.68,.05,1-.02l-.04-1.07c.33-.13,.63-.35,.87-.65l.85,.47c.17-.29,.32-.64,.41-1.02l-.63-1.02c.04-.23,.07-.46,.07-.72s-.02-.52-.06-.79l.64-.4c-.09-.47-.23-.96-.4-1.42l-.85-.36c-.23-.53-.52-1.03-.85-1.49l.05-1.02c-.31-.36-.64-.7-.99-.99l-.57,.5c-.2-.14-.4-.27-.61-.37s-.41-.17-.61-.22l-.57-1.06c-.35-.05-.68-.04-.99,.02l.03,1.07c-.33,.14-.63,.35-.87,.65l-.85-.47c-.18,.29-.32,.64-.42,1.02l.63,1.02c-.04,.23-.07,.46-.07,.72s.02,.52,.06,.78l-.64,.4c.1,.47,.23,.96,.41,1.42l.85,.36" fill="#fff"/><path d="M15.19,16.45l.71,.35c-.02,4.58-3.07,6.84-6.78,5.03v.72l-1.41-1.85,1.42-.47v.73c3.32,1.62,6.03-.4,6.05-4.5Z" fill="#fff"/><path d="M9.19,11.62c-.78-.38-1.42,.1-1.42,1.06,0,.96,.62,2.05,1.41,2.44s1.42-.1,1.42-1.06c0-.97-.62-2.06-1.41-2.45Zm-.01,2.63c-.39-.19-.71-.74-.7-1.22,0-.49,.32-.73,.71-.54,.39,.19,.71,.74,.7,1.23,0,.48-.32,.72-.71,.53Z" fill="#fff"/><rect width="24" height="24" fill="none"/></svg>