<?xml version="1.0" encoding="UTF-8"?><svg id="a" xmlns="http://www.w3.org/2000/svg" viewBox="0 0 24 24"><rect x="0" y="0" width="24" height="24" fill="none"/><g><path d="M14.65,12.48l-.7,.7,4.94,4.94c.39,.39,.39,1.02,0,1.41l-.17,.17c-.19,.19-.44,.29-.71,.29s-.52-.1-.71-.29l-3.83-3.83c-.1,.14-.21,.28-.34,.41l-.33,.33,3.79,3.79c.39,.39,.9,.58,1.41,.58s1.03-.19,1.41-.58l.17-.17c.78-.78,.78-2.05,0-2.83l-4.94-4.94Z" fill="#2f3541"/><path d="M7,11.83c.32,0,.62-.05,.92-.12,0,0-.02,0-.03,0l.49,.49,.33-.33c.13-.13,.26-.23,.41-.33l-.95-.95c-.36,.15-.75,.24-1.17,.24-1.5,0-2.75-1.11-2.97-2.55l1.7,1.7,2.56-.85,.85-2.56-1.7-1.7c1.44,.22,2.55,1.46,2.55,2.97,0,.41-.08,.81-.24,1.17l2.06,2.06,.7-.7-1.63-1.63v.03c.06-.3,.11-.6,.11-.92,0-2.21-1.79-4-4-4-.59,0-1.14,.13-1.64,.36l2.64,2.64-.5,1.5-1.5,.5-2.64-2.64c-.23,.5-.36,1.05-.36,1.64,0,2.21,1.79,4,4,4Z" fill="#2f3541"/><path d="M12.66,13.05l4.05-4.05h2.29l2-3-2-2-3,2v2.29l-4.05,4.05c-.78-.52-1.85-.45-2.53,.24l-4.83,4.83c-.78,.78-.78,2.05,0,2.83l.17,.17c.39,.39,.9,.58,1.41,.58s1.02-.19,1.41-.58l4.83-4.83c.39-.39,.58-.9,.58-1.41,0-.39-.12-.78-.34-1.12Zm4.34-6.52l1.87-1.25,.84,.84-1.25,1.87h-1.46v-1.46Zm-5.29,8.34l-4.83,4.83c-.19,.19-.44,.29-.71,.29s-.52-.1-.71-.29l-.17-.17c-.39-.39-.39-1.02,0-1.41l4.83-4.83c.39-.39,1.02-.39,1.41,0l.17,.17c.19,.19,.29,.44,.29,.71s-.1,.52-.29,.71Z" fill="#2f3541"/></g></svg>