<?xml version="1.0" encoding="UTF-8"?><svg id="a" xmlns="http://www.w3.org/2000/svg" xmlns:xlink="http://www.w3.org/1999/xlink" viewBox="0 0 48 48"><defs><linearGradient id="b" x1="29.09" y1="30.48" x2="41.82" y2="30.48" gradientTransform="matrix(1, 0, 0, 1, 0, 0)" gradientUnits="userSpaceOnUse"><stop offset="0" stop-color="#2f3541" stop-opacity=".6"/><stop offset="1" stop-color="#2f3541" stop-opacity="0"/></linearGradient><linearGradient id="c" x1="24.18" y1="16.88" x2="29.29" y2="28.35" gradientTransform="matrix(1, 0, 0, 1, 0, 0)" gradientUnits="userSpaceOnUse"><stop offset="0" stop-color="#00d2b2"/><stop offset="1" stop-color="#26f"/></linearGradient></defs><g><polyline points="44 30.5 24 20.5 4 30.5 24 40.5 44 30.5 44 30.5" fill="#f2f6ff"/><polygon points="24 40.5 24 42.5 4 32.5 4 30.5 24 40.5" fill="#fff" opacity=".2"/><polygon points="24 40.5 24 42.5 44 32.5 44 30.5 24 40.5" fill="#2f3541"/></g><path d="M33.93,25.47c0,.15,.02,.31,.02,.46-.01,1.98-.56,3.52-1.46,4.55l-5.6,2.7s-.03,.02-.05,.02l7.15,2.3,10-5-10.07-5.03Z" fill="url(#b)" opacity=".4"/><rect x="12" y="11.08" width="24" height="24" fill="none"/><rect x="12" y="11.08" width="24" height="24" fill="none"/><path d="M26.49,32.15c.69-.93,1.1-2.23,1.11-3.85,.02-4.34-2.82-9.27-6.33-10.98s-6.39,.42-6.42,4.76c0,1.62,.38,3.31,1.06,4.9l10.58,5.16" fill="#fff3f8"/><g isolation="isolate"><path d="M20.83,20.53h-.03c-.79-.4-1.6-.37-2.19,.08,.5-.59,1.28-.82,2.16-.55,.15,.05,.31,.11,.46,.18,.63,.31,1.27,.84,1.82,1.54l-.58,.19c-.47-.64-1.05-1.15-1.66-1.45Z" fill="#2f3541"/><path d="M20.86,18.79l-.07-.03c-1.14-.56-2.29-.53-3.14,.09,.78-.77,1.94-.99,3.2-.51,.14,.05,.28,.11,.43,.18,1.09,.53,2.19,1.54,3.05,2.84l-.6,.2c-.76-1.22-1.79-2.25-2.87-2.77Z" fill="#2f3541"/><path d="M21.27,16.45c3.91,1.91,7.06,7.37,7.03,12.2-.01,1.98-.56,3.52-1.46,4.55l-.07-.03-.15-.07-10.86-5.3-.15-.07-.08-.04c-.88-1.9-1.41-3.97-1.4-5.95,.03-4.83,3.22-7.2,7.13-5.29Zm5.22,15.7c.69-.93,1.1-2.23,1.11-3.85,.02-4.34-2.82-9.27-6.33-10.98s-6.39,.42-6.42,4.76c0,1.62,.38,3.31,1.06,4.9l10.58,5.16" fill="#2f3541"/><path d="M20.83,22.3s-.05-.03-.08-.04c-.42-.19-.86-.16-1.18,.12,.22-.41,.62-.64,1.12-.58,.17,.02,.36,.08,.54,.17,.15,.07,.3,.16,.45,.28l-.61,.2c-.08-.06-.16-.1-.24-.14Z" fill="#2f3541"/><path d="M21.5,23.61l3.25-1.08-2.16,2.92c.02,.15,.04,.3,.04,.44,0,.97-.65,1.44-1.42,1.06s-1.41-1.47-1.41-2.44,.64-1.44,1.42-1.06c.1,.05,.18,.1,.27,.17Zm-.29,2.46c.39,.19,.71-.05,.71-.53s-.31-1.03-.7-1.22-.71,.05-.71,.53,.31,1.03,.7,1.22" fill="#2f3541"/><path d="M26.91,13.73c-1.65-.81-3.18-.85-4.39-.27l-5.65,2.73c1.21-.58,2.74-.54,4.39,.27,3.91,1.91,7.06,7.37,7.03,12.2-.01,1.98-.56,3.52-1.46,4.55l5.65-2.73c.9-1.03,1.45-2.58,1.46-4.55,.03-4.83-3.13-10.29-7.03-12.2Z" fill="url(#c)" opacity=".8"/></g><rect x="0" y="0" width="48" height="48" fill="none"/></svg>