<?xml version="1.0" encoding="UTF-8"?><svg id="icon" xmlns="http://www.w3.org/2000/svg" width="24" height="24" xmlns:xlink="http://www.w3.org/1999/xlink" viewBox="0 0 24 24"><defs><linearGradient id="linear-gradient" x1="12" y1="2" x2="12" y2="8" gradientUnits="userSpaceOnUse"><stop offset="0" stop-color="#fff" stop-opacity=".6"/><stop offset=".208" stop-color="#fff" stop-opacity=".5853"/><stop offset=".4037" stop-color="#fff" stop-opacity=".5408"/><stop offset=".5946" stop-color="#fff" stop-opacity=".4662"/><stop offset=".7824" stop-color="#fff" stop-opacity=".3614"/><stop offset=".9664" stop-color="#fff" stop-opacity=".2278"/><stop offset="1" stop-color="#fff" stop-opacity=".2"/></linearGradient></defs><rect x="5" y="2.0002" width="14" height="5.9998" fill="url(#linear-gradient)"/><g><path d="M19,21V8.0004l-14-.0004v13.0001H2v.9999H22v-1h-3ZM6,9l12,.0004v11.9996l-12-.0003V9Z" fill="#fff"/><rect x="7" y="14" width="1" height="2" fill="#fff"/><rect x="10" y="14" width="1" height="2" fill="#fff"/><rect x="13" y="14" width="1" height="2" fill="#fff"/><rect x="7" y="10" width="1" height="2" fill="#fff"/><rect x="10" y="10" width="1" height="2" fill="#fff"/><rect x="13" y="10" width="1" height="2" fill="#fff"/><rect x="7" y="18" width="1" height="2" fill="#fff"/><rect x="10" y="18" width="1" height="2" fill="#fff"/><rect x="13" y="18" width="1" height="2" fill="#fff"/><rect x="16" y="14" width="1" height="2" fill="#fff"/><rect x="16" y="10" width="1" height="2" fill="#fff"/><rect x="16" y="18" width="1" height="2" fill="#fff"/></g><g><rect width="24" height="24" fill="none"/><rect y="0" width="24" height="24" fill="none"/><rect width="24" height="24" fill="none"/><rect y="0" width="24" height="24" fill="none"/></g></svg>