<?xml version="1.0" encoding="UTF-8"?><svg id="a" xmlns="http://www.w3.org/2000/svg" viewBox="0 0 48 48"><rect width="48" height="48" fill="none"/><g><rect x="23.5" y="7.52" width="1" height="3" fill="#fff"/><path d="M29,40.52H9.03c.36-6.86,4.45-12.94,10.23-15.13,1.53,.75,3.13,1.13,4.75,1.13s3.22-.38,4.75-1.13c.8,.3,1.56,.68,2.28,1.13h1.79c-1.27-.94-2.65-1.7-4.14-2.21-1.4,.75-2.98,1.21-4.68,1.21s-3.28-.46-4.68-1.21c-6.55,2.25-11.32,9.1-11.32,17.21H29v-1Z" fill="#fff"/><path d="M45,33.52v-3h-10v-2h-4v2h-3v3h3v11h-3v1h9v-1h-2v-11h6v2h-2v1h5v-1h-2v-2h3Zm-14-1h-2v-1h2v1Zm3,12h-2v-1l2-1v2Zm0-3l-2,1v-2l2-1v2Zm0-3l-2,1v-2l2-1v2Zm0-3l-2,1v-2l2-1v2Zm0-3l-2,1v-2l2-1v2Zm-2-2h0v-1h2l-2,1Zm9,2h-6v-1h9v1h-3Z" fill="#fff"/><path d="M16.12,16.81h0c.62,3.8,3.91,6.7,7.89,6.7s7.27-2.9,7.89-6.71c1-.65,1.61-1.48,1.61-2.52h-.59c-.46-3.37-2.79-6.12-5.91-7.23v-.85l-.3-.13c-1.76-.75-3.63-.75-5.39,0l-.3,.13v.85c-3.12,1.11-5.45,3.86-5.91,7.23h-.59c0,.73,.32,1.69,1.62,2.52Zm7.88,5.7c-3.21,0-5.91-2.17-6.74-5.12,.13,.05,.24,.11,.38,.16,1.69,.62,3.95,.96,6.36,.96s4.93-.36,6.73-1.11c-.83,2.94-3.53,5.11-6.73,5.11Zm-3-14.38v1.38h1v-2.64c1.32-.48,2.68-.48,4,0v2.64h1v-1.38c2.9,1.18,4.96,4,4.99,7.31-1.26,1.36-4.71,2.08-7.99,2.08s-6.73-.72-7.99-2.08c.03-3.31,2.1-6.12,4.99-7.31Z" fill="#fff"/></g></svg>