<?xml version="1.0" encoding="UTF-8"?><svg id="c" xmlns="http://www.w3.org/2000/svg" xmlns:xlink="http://www.w3.org/1999/xlink" viewBox="0 0 48 48"><defs><linearGradient id="a" x1="25.55" y1="31.84" x2="26.08" y2="31.84" gradientTransform="matrix(1, 0, 0, 1, 0, 0)" gradientUnits="userSpaceOnUse"><stop offset="0" stop-color="#2f3541" stop-opacity=".4"/><stop offset="1" stop-color="#2f3541" stop-opacity="0"/></linearGradient><linearGradient id="d" x1="17.73" y1="16.49" x2="22.03" y2="24.77" gradientTransform="matrix(1, 0, 0, 1, 0, 0)" gradientUnits="userSpaceOnUse"><stop offset="0" stop-color="#00d2b2"/><stop offset="1" stop-color="#26f"/></linearGradient><linearGradient id="e" x1="16.79" y1="21.98" x2="19.78" y2="27.88" xlink:href="#d"/><linearGradient id="f" x1="16.84" y1="12.67" x2="22.72" y2="24.31" gradientTransform="matrix(1, 0, 0, 1, 0, 0)" gradientUnits="userSpaceOnUse"><stop offset="0" stop-color="#00d2b2"/><stop offset="1" stop-color="#26f"/></linearGradient><linearGradient id="g" x1="18.1" y1="14.31" x2="22.23" y2="22.46" gradientTransform="matrix(1, 0, 0, 1, 0, 0)" gradientUnits="userSpaceOnUse"><stop offset="0" stop-color="#00d2b2"/><stop offset="1" stop-color="#26f"/></linearGradient><linearGradient id="h" x1="19.05" y1="14.06" x2="22.19" y2="20.78" xlink:href="#d"/><linearGradient id="i" x1="24.67" y1="27.26" x2="25.94" y2="27.26" xlink:href="#d"/><linearGradient id="j" x1="23.61" y1="18.66" x2="27.43" y2="26.3" xlink:href="#f"/><linearGradient id="k" x1="27.68" y1="18.44" x2="31.32" y2="25.08" xlink:href="#f"/><linearGradient id="l" x1="28.58" y1="19.19" x2="31.13" y2="24.25" xlink:href="#d"/><linearGradient id="m" x1="29.19" y1="21.05" x2="32.33" y2="26.51" gradientTransform="matrix(1, 0, 0, 1, 0, 0)" gradientUnits="userSpaceOnUse"><stop offset="0" stop-color="#00d2b2"/><stop offset="1" stop-color="#26f"/></linearGradient><linearGradient id="n" x1="29.67" y1="19.22" x2="31.14" y2="22.41" xlink:href="#d"/><linearGradient id="o" x1="29.82" y1="18.61" x2="32.37" y2="23.81" xlink:href="#f"/><linearGradient id="p" x1="20.28" y1="15.67" x2="23.43" y2="21.96" xlink:href="#f"/></defs><g><polyline points="44 30.5 24 20.5 4 30.5 24 40.5 44 30.5 44 30.5" fill="#f2f6ff"/><polygon points="24 40.5 24 42.5 4 32.5 4 30.5 24 40.5" fill="#fff" opacity=".2"/><polygon points="24 40.5 24 42.5 44 32.5 44 30.5 24 40.5" fill="#2f3541"/></g><g><path d="M26.09,31.35l-.63,.63,.71,.34c0-.32-.04-.64-.08-.97Z" fill="url(#a)"/><path d="M37.03,27.01l-5.98-.83,.02,.08c.47,1.08,.75,2.23,.75,3.33l-5.64,2.72,7.21,3.49,10.62-5.31-6.97-3.49Z" fill="url(#a)"/></g><path d="M24.08,26.76c-.09,.07-.18,.11-.27,.18-.1,.07-.21,.12-.32,.16-.34,.1-.74,.06-1.16-.15l-.6-.29c-.47-.23-.9-.62-1.23-1.09-.1-.14-.2-.29-.27-.43-.09-.16-.19-.32-.28-.49-1.13-1.93-2.6-3.44-4.36-4.5l2.21,1.08c.29,.14,.57,.17,.82,.08,.4-.15,1.81-.55,3.36,.2,1.55,.76,2.95,2.54,3.35,3.07,.24,.32,.52,.57,.81,.71l2.21,1.1c-1.7-.73-2.71-.65-4.25,.38Z" fill="#fff3f8"/><rect x="12.77" y="10.71" width="24" height="24" fill="none"/><g opacity=".8"><g isolation="isolate"><path d="M21.24,16.55c-.16-.08-.32-.09-.44-.03l-5.65,2.73c.12-.06,.27-.05,.44,.03l.71,.35,5.65-2.73-.71-.35Z" fill="url(#d)"/><path d="M19.86,25.72c-.05,.02-.1,.05-.14,.08-.18,.09-.35,.21-.5,.36-.02,.02-.03,.04-.05,.06-.15,.16-.28,.34-.39,.55,0,.02-.02,.04-.03,.06-.11,.22-.2,.46-.26,.73,0,.01,0,.03,0,.04-.06,.28-.1,.59-.1,.93l2.79-1.35c-.49-.36-.94-.86-1.31-1.46Z" fill="url(#e)"/><path d="M14.19,15.97l5.65-2.73c.07,.03,1.33,.65,2.12,1.04l-5.65,2.73-2.12-1.04Z" fill="url(#f)"/><polygon points="17.02 18.22 22.66 15.49 22.65 17.24 17.01 19.97 17.02 18.22" fill="url(#g)"/><path d="M22.32,13.57c-.08-.04-.16-.04-.22-.01l-5.65,2.73c.06-.03,.14-.03,.22,.01,.2,.1,.36,.37,.35,.61v.46l5.65-2.73v-.46c0-.24-.15-.51-.35-.61Z" fill="url(#h)"/><path d="M24.67,27.56l5.65-2.73c.93,1.42,1.5,3.15,1.5,4.76l-5.65,2.73c0-1.61-.57-3.34-1.5-4.76Z" fill="#26f"/><path d="M25.28,27.22c-.19,.1-.39,.21-.61,.35l1.26-.61c-.21,.06-.43,.15-.65,.26Z" fill="url(#i)"/><path d="M31.78,21.69c-.15-.07-.29-.19-.41-.36-.51-.68-2.02-2.58-3.75-3.42-1.73-.84-3.25-.43-3.76-.24-.12,.04-.27,.03-.42-.04l-.79-.39-5.65,2.73,.79,.39c.15,.07,.29,.09,.42,.04,.51-.18,2.04-.6,3.76,.24s3.24,2.74,3.75,3.42c.12,.16,.26,.28,.41,.36l.8,.39,5.65-2.73-.8-.39Z" fill="url(#j)"/><path d="M24.81,21.15l5.65-2.73,2.13,1.04-5.65,2.73-2.13-1.04Z" fill="url(#k)"/><polygon points="27.64 23.4 33.29 20.68 33.28 22.42 27.63 25.15 27.64 23.4" fill="url(#l)"/><path d="M33.98,22.77l-.7-.34-5.65,2.73,.7,.34c.4,.19,.71,.74,.71,1.23,0,.29-.11,.48-.28,.57l5.65-2.73c.17-.08,.28-.28,.28-.57,0-.49-.31-1.04-.71-1.23Z" fill="url(#m)"/><path d="M32.94,18.76c-.08-.04-.16-.04-.22-.01l-5.65,2.73c.06-.03,.13-.03,.22,.01,.2,.1,.36,.37,.35,.61v.46l5.65-2.73v-.46c0-.24-.15-.51-.35-.61Z" fill="url(#n)"/><path d="M27.65,22.55l5.65-2.73c.09,.04,.18,.07,.3,.12,1.22,.59,1.82,1.52,1.82,1.76l-5.65,2.73c0-.24-.6-1.17-1.82-1.76-.11-.06-.21-.09-.3-.12Z" fill="url(#o)"/><path d="M17.02,17.37l5.65-2.73c.1,.04,.18,.07,.3,.12,1.22,.59,1.82,1.52,1.82,1.76l-5.65,2.73c0-.24-.6-1.17-1.82-1.76-.11-.06-.2-.08-.3-.12Z" fill="url(#p)"/></g></g><path d="M28.33,25.49l-.7-.34v-1.75c.79,.38,2.07,1,2.13,1.04,0-.24-.6-1.17-1.82-1.76-.11-.06-.21-.09-.3-.12v-.46c0-.24-.15-.51-.35-.61-.2-.1-.35,.03-.35,.26v.44c-.79-.39-2.06-1.01-2.13-1.04,0,.24,.61,1.17,1.82,1.77,.11,.05,.2,.08,.3,.11v1.78l-.81-.39c-.15-.07-.29-.2-.41-.36-.51-.68-2.02-2.58-3.75-3.42-1.73-.84-3.25-.43-3.76-.24-.12,.04-.27,.03-.42-.04l-.79-.39v-1.75c.8,.39,2.07,1,2.13,1.04,0-.24-.6-1.17-1.82-1.76-.11-.06-.2-.08-.3-.12v-.46c0-.24-.15-.51-.35-.61-.19-.09-.35,.03-.35,.26v.44c-.79-.39-2.06-1-2.13-1.04,0,.24,.6,1.17,1.82,1.76,.11,.06,.2,.08,.3,.11v1.78l-.72-.35c-.4-.19-.71,.05-.71,.55,0,.47,.29,.99,.66,1.21,1.17,.69,2.58,1.84,3.79,3.81-1,.48-1.65,1.65-1.66,3.33l.71,.35c0-1.45,.59-2.44,1.48-2.81,.51,.82,1.17,1.47,1.88,1.81l.6,.29c.66,.32,1.28,.33,1.79,.08,.82,1.2,1.35,2.68,1.34,4.08l.71,.35c0-1.61-.57-3.34-1.5-4.76,1.35-.88,2.2-.92,3.68-.29,.38,.16,.68-.08,.69-.56,0-.49-.31-1.04-.71-1.23Zm-4.25,1.27c-.09,.07-.18,.11-.27,.18-.1,.07-.21,.12-.32,.16-.34,.1-.74,.06-1.16-.15l-.6-.29c-.47-.23-.9-.62-1.23-1.09-.1-.14-.2-.29-.27-.43-.09-.16-.19-.32-.28-.49-1.13-1.93-2.6-3.44-4.36-4.5l2.21,1.08c.29,.14,.57,.17,.82,.08,.4-.15,1.81-.55,3.36,.2,1.55,.76,2.95,2.54,3.35,3.07,.24,.32,.52,.57,.81,.71l2.21,1.1c-1.7-.73-2.71-.65-4.25,.38Z" fill="#fff"/><path d="M28.33,25.49l-.7-.34v-1.75c.79,.38,2.07,1,2.13,1.04,0-.24-.6-1.17-1.82-1.76-.11-.06-.21-.09-.3-.12v-.46c0-.24-.15-.51-.35-.61-.2-.1-.35,.03-.35,.26v.44c-.79-.39-2.06-1.01-2.13-1.04,0,.24,.61,1.17,1.82,1.77,.11,.05,.2,.08,.3,.11v1.78l-.81-.39c-.15-.07-.29-.2-.41-.36-.51-.68-2.02-2.58-3.75-3.42-1.73-.84-3.25-.43-3.76-.24-.12,.04-.27,.03-.42-.04l-.79-.39v-1.75c.8,.39,2.07,1,2.13,1.04,0-.24-.6-1.17-1.82-1.76-.11-.06-.2-.08-.3-.12v-.46c0-.24-.15-.51-.35-.61-.19-.09-.35,.03-.35,.26v.44c-.79-.39-2.06-1-2.13-1.04,0,.24,.6,1.17,1.82,1.76,.11,.06,.2,.08,.3,.11v1.78l-.72-.35c-.4-.19-.71,.05-.71,.55,0,.47,.29,.99,.66,1.21,1.17,.69,2.58,1.84,3.79,3.81-1,.48-1.65,1.65-1.66,3.33l.71,.35c0-1.45,.59-2.44,1.48-2.81,.51,.82,1.17,1.47,1.88,1.81l.6,.29c.66,.32,1.28,.33,1.79,.08,.82,1.2,1.35,2.68,1.34,4.08l.71,.35c0-1.61-.57-3.34-1.5-4.76,1.35-.88,2.2-.92,3.68-.29,.38,.16,.68-.08,.69-.56,0-.49-.31-1.04-.71-1.23Zm-4.25,1.27c-.09,.07-.18,.11-.27,.18-.1,.07-.21,.12-.32,.16-.34,.1-.74,.06-1.16-.15l-.6-.29c-.47-.23-.9-.62-1.23-1.09-.1-.14-.2-.29-.27-.43-.09-.16-.19-.32-.28-.49-1.13-1.93-2.6-3.44-4.36-4.5l2.21,1.08c.29,.14,.57,.17,.82,.08,.4-.15,1.81-.55,3.36,.2,1.55,.76,2.95,2.54,3.35,3.07,.24,.32,.52,.57,.81,.71l2.21,1.1c-1.7-.73-2.71-.65-4.25,.38Z" fill="#2f3541"/><rect width="48" height="48" fill="none"/><path d="M24.67,27.56l1.14-.55-4.65,.17-2.79,1.35,7.71,2.83c-.25-.99-.86-2.93-1.42-3.79Z" fill="url(#a)"/></svg>