<?xml version="1.0" encoding="UTF-8"?><svg id="a" xmlns="http://www.w3.org/2000/svg" viewBox="0 0 24 24"><rect width="24" height="24" fill="none"/><rect x="10.61" y="8.62" width="1" height="4.98" transform="translate(-4.6 11.11) rotate(-45.01)" fill="#fff"/><path d="M10.56,16.16s-.9-.37-1.93-.37-1.92,.36-1.93,.37l-.38-.92s1.08-.44,2.31-.44,2.27,.43,2.31,.44l-.38,.92Z" fill="#fff"/><path d="M15.23,10.94s-.44-1.08-.44-2.31,.43-2.27,.44-2.31l.92,.38s-.37,.9-.37,1.93,.36,1.92,.37,1.93l-.92,.38Z" fill="#fff"/><path d="M22,22l-4.39-11.13-6.74,6.73,11.13,4.39Zm-3.8-6.89h-3.43l1-1h2.03l.4,1Zm.4,1l.4,1h-6.22l1-1h4.82Zm.79,2l.4,1h-2.38l-2.53-1h4.51Zm-1.97-5h-.63l.46-.46,.18,.46Z" fill="#fff"/><circle cx="6.52" cy="6.54" r=".78" fill="#fff"/><circle cx="4.45" cy="13.45" r=".75" fill="#fff"/><polygon points="6 10.25 5.13 10.6 6 10.95 6.08 11.85 6.7 11.17 7.63 11.37 7.14 10.6 7.63 9.83 6.7 10.03 6.08 9.35 6 10.25" fill="#fff"/><polygon points="17.48 4.94 16.61 5.29 17.48 5.64 17.56 6.54 18.18 5.86 19.11 6.06 18.61 5.29 19.11 4.52 18.18 4.72 17.56 4.04 17.48 4.94" fill="#fff"/><path d="M12.07,3.02l-1.38,1.16-1.67-.67,.67,1.67-1.16,1.38,1.8-.13,.95,1.53,.43-1.75,1.75-.43-1.53-.95,.13-1.8Z" fill="#fff"/></svg>