<?xml version="1.0" encoding="UTF-8"?><svg id="a" xmlns="http://www.w3.org/2000/svg" viewBox="0 0 24 24"><path d="M14.5,6c.28,0,.5,.22,.5,.5,0,.24-.17,.41-.33,.47l-.17,.06-.17-.06c-.17-.06-.33-.23-.33-.47,0-.28,.22-.5,.5-.5m3,3c.28,0,.5,.22,.5,.5,0,.24-.17,.41-.33,.47l-.17,.06-.17-.06c-.17-.06-.33-.23-.33-.47,0-.28,.22-.5,.5-.5m-3,7.98l.17,.06c.17,.06,.33,.23,.33,.47,0,.28-.22,.5-.5,.5s-.5-.22-.5-.5c0-.24,.17-.41,.33-.47l.17-.06M12,3C7.03,3,3,7.03,3,12s4.03,9,9,9c.17,0,.33-.02,.5-.03,4.74-.26,8.5-4.17,8.5-8.97S17.24,3.29,12.5,3.03c-.17,0-.33-.03-.5-.03h0Zm.5,6V4.02c4.18,.26,7.5,3.74,7.5,7.98s-3.32,7.72-7.5,7.98v-4.98h1.5v1.09c-.58,.21-1,.76-1,1.41,0,.83,.67,1.5,1.5,1.5s1.5-.67,1.5-1.5c0-.65-.42-1.2-1-1.41v-2.09h-2.5v-1h5.5v-2.09c.58-.21,1-.76,1-1.41,0-.83-.67-1.5-1.5-1.5s-1.5,.67-1.5,1.5c0,.65,.42,1.2,1,1.41v1.09h-4.5v-1.99h2.5v-2.1c.58-.21,1-.76,1-1.41,0-.83-.67-1.5-1.5-1.5s-1.5,.67-1.5,1.5c0,.65,.42,1.2,1,1.41v1.09h-1.5Zm-4.23,.27c.5-2.56,1.68-4.8,3.23-5.2v4.94c-1.15,.02-2.23,.11-3.23,.26h0Zm-4.13,1.27c.52-2.79,2.49-5.07,5.1-6.04-.97,1.16-1.7,2.91-2.03,4.96-1.27,.27-2.33,.64-3.06,1.08h0Zm7.36,3.45c-1.29-.02-2.43-.14-3.39-.3-.07-.56-.11-1.13-.11-1.69s.04-1.13,.11-1.69c.97-.17,2.1-.28,3.39-.3v3.98h0Zm-4.43-.51c-2.03-.48-3.07-1.16-3.07-1.48s1.05-1,3.07-1.48c-.04,.48-.07,.97-.07,1.48s.03,1,.07,1.48h0Zm2.16,6.02c-2.61-.96-4.58-3.25-5.1-6.04,.74,.44,1.79,.81,3.06,1.08,.33,2.05,1.06,3.8,2.03,4.96h0Zm2.26,.43c-1.55-.4-2.72-2.64-3.23-5.2,.99,.15,2.08,.24,3.23,.26v4.94h0Z" fill="#2f3541"/><path id="b" d="M24,24H0V0H24" fill="none"/></svg>