<?xml version="1.0" encoding="UTF-8"?><svg id="a" xmlns="http://www.w3.org/2000/svg" viewBox="0 0 24 24"><g><path d="M18.5,20V3H5.5V20h6v1h-3.5v1h8v-1h-3.5v-1h6Zm-12-1V4h11v15H6.5Z" fill="#2f3541"/><rect x="7.5" y="10" width="9" height="1" fill="#2f3541"/><rect x="7.5" y="13" width="9" height="1" fill="#2f3541"/><rect x="7.5" y="16" width="9" height="1" fill="#2f3541"/><path d="M15,8c.83,0,1.5-.67,1.5-1.5s-.67-1.5-1.5-1.5-1.5,.67-1.5,1.5,.67,1.5,1.5,1.5Zm0-2c.28,0,.5,.22,.5,.5s-.22,.5-.5,.5-.5-.22-.5-.5,.22-.5,.5-.5Z" fill="#2f3541"/><path d="M11,8c.83,0,1.5-.67,1.5-1.5s-.67-1.5-1.5-1.5-1.5,.67-1.5,1.5,.67,1.5,1.5,1.5Zm0-2c.28,0,.5,.22,.5,.5s-.22,.5-.5,.5-.5-.22-.5-.5,.22-.5,.5-.5Z" fill="#2f3541"/></g><path id="b" d="M24,24H0V0H24" fill="none"/></svg>