<?xml version="1.0" encoding="UTF-8"?><svg id="a" xmlns="http://www.w3.org/2000/svg" viewBox="0 0 24 24"><path d="M17.83,14.66l-1.21,.58-.02,2.97c0,.46-.17,.8-.46,.93l-5.67,2.7c.29-.14,.46-.47,.46-.93l.02-3.17,2.19-1.04c2.6-2.33,2.18-7.56,2.15-7.9l5.67-2.7c.03,.37,.56,6.81-3.13,8.57Zm3.06-8.6c-.52-.25-4.03-1.84-6.65-.59l-2.72,1.29-2.1-1.01c-.26-.12-.5-.12-.7-.03l-5.67,2.7c.2-.1,.44-.1,.7,.03l2.96,1.43,4.56-2.17c1.88,.1,3.59,.88,3.94,1.05l.06,.03,5.67-2.7-.06-.03ZM6.67,18.72v-.18l-.71,.52,.71-.34Z" fill="#2f3541" opacity=".2"/><path d="M15.28,8.79c.03,.41,.67,8.13-4.34,8.94l-.02,3.17c0,.56-.26,.94-.67,.99l-3.61,.11,.02-3.46-.72,.52-2.82-4.83,.72-.53-2.84-1.37,1.68-3.53c.21-.4,.62-.57,1.07-.35l2.96,1.43c2.37-3.91,7.85-1.44,8.51-1.12l.06,.03Zm-1,3.69c.26-1.19,.31-2.36,.31-3.12-1.56-.62-5.45-1.76-7.27,1.24l-.21,.35-.42-.2-2.96-1.43c-.16-.08-.34,0-.44,.18l-1.19,2.51,1.73,.83,1.72,.82-1.22,.9-.21,.16,1.83,3.12,.21-.16,1.22-.89v2.09l-.02,2.16,2.59-.08c.15-.03,.25-.18,.25-.4l.02-3.17v-.52l.38-.07c1.88-.29,3.11-1.75,3.67-4.32m-2.58-2.8c.79,.38,1.42,1.46,1.41,2.42s-.64,1.43-1.43,1.05-1.42-1.46-1.41-2.41,.65-1.43,1.43-1.05Zm-.01,2.6c.4,.19,.71-.05,.72-.52s-.31-1.02-.71-1.21-.71,.04-.72,.52,.32,1.02,.71,1.21" fill="#2f3541"/><rect y="0" width="24" height="24" fill="none"/></svg>