<?xml version="1.0" encoding="UTF-8"?><svg id="a" xmlns="http://www.w3.org/2000/svg" viewBox="0 0 24 24"><rect width="24" height="24" fill="none"/><g><g><path d="M18.76,4.25H5.26V14.34c0,3.52,3.02,6.41,6.75,6.41s6.75-2.87,6.75-6.41V4.25Z" fill="#fff"/><path d="M14.35,13.15c-.1,0-.26,.14-.26,.14,0,0,.05-.24-.15-.28-.12-.02-.25,.13-.25,.13,0,0-.09-.19-.18-.19-.15,0-.28,.19-.28,.19,0,0-.11-.17-.28-.16-.08,0-.22,.11-.26,.14h-.07c-.16-.19-.39-.28-.63-.26-.19,0-.38,.06-.54,.16-.28,.17-.52,.39-.87,.18-.08,.07,.05,.11,.05,.18-.22,.35,.34,.09,.37,.31l-.38,.15c.02,.06,.05,.11,.1,.15h.12c.1,.01,.24-.09,.33,.01,.02,.12-.05,.23-.16,.27,.07,0,.13-.04,.21,0,.09-.04,.15-.12,.18-.21,.11-.03,.23-.03,.34,0,.26,.11,.44-.12,.63-.24,.21,.31,.45,.22,.77,.15-.07-.08-.1-.2-.21-.23-.13-.03-.25-.07-.37-.12,.05-.04,.12-.07,.18-.09,.62-.12,1.26-.02,1.81,.28,.6,.31,.99,.91,1.04,1.58,0,0,.16-.25,.17-.5,0-.07-.01-.11-.06-.14,.07-.11-.08-.33-.19-.31,.04-.12-.06-.29-.17-.3,0-.13-.07-.26-.25-.29,.04-.08-.14-.33-.3-.28,0-.09-.13-.22-.23-.22,0-.12-.1-.2-.21-.2Z" fill="#171714"/><path d="M16,14.3c.04-.07,.06-.15,.05-.23,0-.06-.02-.1-.05-.13,.08-.18-.03-.26-.15-.29,0-.13-.06-.25-.25-.25,0-.13-.07-.22-.2-.24-.04-.07-.18-.19-.34-.1,.02-.05-.15-.32-.42-.16,.02-.1-.11-.23-.24-.22h0c-.1,0-.25,.13-.25,.13,0,0-.12-.18-.26-.17-.1,0-.19,.04-.25,.12,0,0-.12-.13-.25-.12-.12,0-.26,.18-.26,.18,0,0-.12-.12-.23-.11-.14,0-.26,.1-.27,.25h0v.09c.09-.13,.37-.27,.61-.07,.07-.07,.17-.12,.27-.13,.09,0,.18,.05,.23,.12,.06-.04,.14-.07,.22-.06,.12,0,.21,.07,.25,.17,.05-.03,.11-.04,.18-.04,.15,0,.28,.11,.3,.26l.04,.02c.1,0,.25,0,.42,.1,.37,.21,.67,.52,.87,.89Z" fill="#171714"/><g><polygon points="5.25 4.28 5.26 11.99 8.63 11.99 8.62 4.28 5.25 4.28" fill="#171714"/><polygon points="12.31 4.27 12.31 8.08 15.53 8.08 15.53 4.27 12.31 4.27" fill="#f2db38"/><polygon points="15.53 4.27 15.53 8.08 18.75 8.08 18.75 4.27 15.53 4.27" fill="#2673bd"/><polygon points="12.31 11.89 12.31 8.08 15.53 8.08 15.53 11.89 12.31 11.89" fill="#2673bd"/><rect x="12.31" y="4.27" width="2.22" height="2.78" fill="#2673bd"/><rect x="16.53" y="4.27" width="2.22" height="2.78" fill="#f2db38"/><polygon points="18.75 11.89 18.75 8.08 15.53 8.08 15.53 11.89 18.75 11.89" fill="#f2db38"/><rect x="16.53" y="9.11" width="2.22" height="2.77" fill="#2673bd"/><rect x="12.31" y="9.11" width="2.22" height="2.77" fill="#f2db38"/><g><path d="M7.74,13.41c.06,.02,1.01,.37,1.54,.34,.13,.08,.19,.29,.29,.43,0,0,.16,.45,.5,.63-.14,.23-.23,.49-.28,.75-.17-.06-.38,0-.42-.21-.13-.47-.08-1.17-.73-1.25-.22-.06-.51-.28-.72-.04-.07,0,0-.15-.1-.19-.18,.06-.38,.25-.58,.09-.16-.06-.26-.25-.43-.29h.63s.07-.09,0-.12c-.04,0-.21,.06-.43,0-.04-.06-.07-.12-.1-.18,.28,.11,.38-.2,.84,.04Z" fill="#171714"/><path d="M12.54,14.2c0,.32-.11,.62-.33,.86,.08,.12,.29,.05,.43,.11,.49,.08,.96,.23,1.4,.45,.22,.09,.42,.21,.61,.35,.14-.06,.26-.2,.44-.18,.34,0,.58,.36,.86,.32,.03,0,.07,0,.1,0-.04,.07,0,.15-.23,.19s-.26-.15-.29,0,.1,.09,.1,.16-.3,0-.38-.21c0-.11-.21-.23-.21-.23,0,0-.26-.07-.28,.06,.37,.4,.25,1.17,.92,1.32,.09,.08,.03,.2,0,.29-.01,.47,0,.94,.05,1.41-.13,.16-.35-.04-.46,.18,0,.29-.34,.24-.51,.36s-.13,.08-.17,.03c.06-.16,.24-.34,.3-.52-.08-.06-.16,.05-.21,.12-.05,.07-.08,.22-.24,.21h-.11c.19-.21,.38-.59,.68-.46,.13,0,.25-.07,.3-.19,0-.45,.1-1.02-.37-1.17-.29-.09-.58-.19-.86-.32-.14-.14-.25-.32-.29-.51-.15-.25-.34-.59-.67-.59h-.19c.09,.13,.24,.13,.38,.22-.64-.06-1.28-.05-1.91,.04,0-.15,.23-.31,.05-.39s-.12,.19-.17,.29-.14,.36-.32,.39c-.37-.2-.76-.36-1.17-.46-.11-.01-.22-.04-.31-.09-.25-.1-.54-.05-.75,.13-.21,.11-.33,.72-.64,.35-.2,.07-.15,.35-.37,.38h-.58l.41-.44s0-.05-.03-.07c-.11,.06-.21,.15-.3,.25-.11,.06-.17-.06-.28-.06,.16-.08,.39-.22,.58-.31,.13,.02,.26,0,.37-.06,.58-.08,.84-.96,1.53-.7l.86,.08c.06-.04,.22,0,.16-.14h-.49c-.02-.34,.14-.66,.43-.84l.83-.26c.14-.07,.36-.14,.37-.33,.08-.05,.17,0,.26,.03,.19,.02,.38-.06,.51-.21,.09,.04,.16,.11,.19,.21" fill="#171714"/><path d="M13.53,16.62c.08,.18,.27,.68,.55,.81-.03,.06-.08,.11-.15,.13-.08,.03-.15,.04-.19-.04s-.09,0-.16,0c-.17-.04,0-.4,0-.59-.19,.2-.47,.59-.34,.86,.05,.14,.26,.31,0,.39-.54,.09-1.03,.38-1.37,.8-.03,.05-.1,.07-.16,.04-.09-.04-.1-.2-.19-.08-.09,.11-.17,.23-.24,.36-.14,0-.38,.07-.52,.1,.06-.17,.14-.34,.23-.5-.16-.07-.2,.2-.3,.29h0l-.29,.05c.15-.2,.36-.32,.47-.59,.63,0,1.21-.31,1.58-.82-.19-.16-.4-.36-.34-.66,.28-.45,.8-.69,1.32-.63l.11,.06Z" fill="#171714"/><path d="M13.18,16.78c.08,0,.34,.04,.48,.11l-.07-.16s-.27-.09-.41,.04Z" fill="#c2172e"/><path d="M11.07,13.83c-.15,.04-.58,.13-.79,0s-.12-.42-.06-.42,.13,.19,.13,.19l.1,.11,.18,.03h.43v.09Z" fill="#c2172e"/><path d="M10.58,13.93c-.14,0-.25-.02-.32-.07-.14-.09-.17-.25-.13-.37,.02-.06,.05-.1,.08-.1,.04,0,.07,.05,.1,.12,.04,.07,.08,.16,.15,.18,.17,.06,.63,.03,.63,.03l-.02,.15c-.19,.05-.36,.07-.49,.07Zm-.37-.49s-.03,.03-.04,.1c0,.04-.02,.19,.12,.28,.09,.06,.3,.11,.75,0v-.05c-.1,0-.44,.02-.59-.03-.08-.04-.13-.13-.17-.21-.02-.03-.05-.09-.06-.09Z" fill="#171714"/><rect x="5.24" y="11.7" width="13.52" height=".45" fill="#171714"/><path d="M11.84,13.26c-.07,0-.14,.03-.19,.09,.04,.06,.12,.09,.19,.09s.15-.03,.19-.1c0,0-.04-.08-.19-.09Z" fill="#fff"/></g></g><circle cx="11.84" cy="13.3" r=".1" fill="#171714"/></g><path d="M11.99,21c-1.95,0-3.89-.78-5.19-2.1-1.18-1.19-1.81-2.77-1.8-4.56V4h14V14.34c0,4.54-4.18,6.66-7.01,6.66ZM5.42,4.42V14.34c0,1.68,.58,3.15,1.68,4.26,1.22,1.24,3.05,1.98,4.89,1.98,2.66,0,6.59-1.98,6.59-6.24V4.42H5.42Z" fill="#171714"/></g></svg>