<?xml version="1.0" encoding="UTF-8"?><svg id="a" xmlns="http://www.w3.org/2000/svg" viewBox="0 0 24 24"><rect width="24" height="24" fill="none"/><g><g><path d="M5.13,14.36V4.13h13.73V14.36c0,4.33-3.91,6.51-6.87,6.51-3.19,0-6.86-2.17-6.86-6.51" fill="#f2db38"/><path d="M11.7,9.35s-.26,.24-.61,.27-.75,.06-.87-.26c-.1-.4,.12-.58,.16-.58s.07,.31,.07,.31c0,0,.15,.41,.93,.28l.32-.02Z" fill="#c2172e"/><path d="M17.23,9.43c0-.17-.08-.39-.3-.5,.06-.19,.04-.39-.06-.54-.09-.14-.25-.23-.42-.24,0-.16-.08-.39-.25-.48-.14-.07-.31-.03-.5,.12-.08-.14-.24-.29-.45-.32-.13-.02-.33,0-.51,.24-.12-.06-.39-.12-.62-.02,.05-.14,.05-.27,.03-.36-.04-.16-.14-.28-.23-.34,.12-.21,.12-.46,.01-.67-.1-.18-.27-.29-.47-.32,.07-.15,.05-.34-.05-.47-.07-.09-.24-.21-.57-.1-.02-.18-.12-.32-.28-.37-.15-.04-.32,0-.44,.11-.06-.1-.17-.16-.3-.16h0c-.14,0-.33,.08-.42,.29-.14-.04-.36-.02-.49,.1-.08,.08-.15,.23-.06,.5-.27,.08-.35,.22-.37,.33-.03,.16,.05,.33,.16,.42-.11,.18-.13,.38-.05,.52,.07,.12,.26,.2,.44,.2,0,0-.05,.3,.26,.42,.15,.05,.31-.02,.4-.16,.2,.06,.36,.05,.45-.04,.12-.11,.12-.3,.09-.41,.18-.2,.15-.39,.07-.5-.28-.31-.66-.03-.66-.03,0,0,.18,.09,.15,.21-.01,.06-.06,.1-.14,.11-.21,0-.22-.19-.22-.31,.03-.25,.24-.43,.48-.43,.09,0,.53,.02,.77,.34,.14,.19,.18,.46,.1,.79-.03-.03-.19-.14-.19-.14,0,0,.1,.49-.09,.82l-.07,.09s-.02-.02-.03-.02c-.24-.06-.55,.11-.55,.36-.23-.05-.71,.38-.7,.38-.11,.05-.21-.06-.27,0s-.04,.11-.09,.16c-.05,.09-.05,.2,0,.29-.06-.02-.13-.03-.18-.07-.17-.12-.18-.32-.19-.41,0-.05,0-.09-.05-.09s-.11,.06-.16,.13c-.06,.08-.13,.25-.04,.5,.09,.25,.34,.3,.6,.3,.36,.02,.59-.08,.77-.16,0,.01-.02,.02-.03,.04-.07,.09-.44,.14-.44,.14,.09,.06,.12,.11,.18,.2,.04,.05,.11,.06,.17,.04,.13-.05,.25-.12,.36-.21h.18c.21,0,.37,.17,.58,.12,.19-.07,.37-.17,.53-.28,0,.18,.09,.35,.23,.46,.17,.1,.32,.22,.45,.36,.11,.11,.12,.4,.27,.33,.15-.07,.18-.39,.16-.62,0-.08-.02-.15-.05-.22-.06-.08-.11-.13-.17-.18,.41-.2,.97-.15,.97-.15,0,0-.11-.25-.3-.35,.32-.14,.63-.15,.89-.01,.22,.12,.38,.34,.4,.55,.02,.27-.06,.43-.21,.45-.14,.02-.28-.08-.31-.2-.04-.21,.19-.25,.19-.25,0,0-.11-.2-.37-.18-.09,0-.22,.06-.32,.25-.19-.03-.34,.11-.4,.27-.05,.15-.02,.33,.15,.43-.06,.28,0,.42,.08,.48,.1,.09,.26,.11,.44,.06,.05,.15,.18,.25,.33,.26h.03c.13,0,.28-.07,.37-.25,.23,.13,.45,.04,.59-.08,.14-.13,.21-.31,.18-.44,.2-.03,.35-.14,.4-.31,.05-.13,.02-.28-.07-.39,.13-.08,.21-.24,.21-.42Zm-6.05-.47s.11,0,.1,.04c-.01,.04-.13,.18-.19,.12-.06-.06,.05-.11,.09-.16Zm.3,.35s0,0,.01,0l-.11,.02c-.24,.04-.41,.02-.56-.03,.22,.02,.44,.02,.65,0Zm-1.21,.04c-.13-.32,.07-.49,.1-.51,.01,.1,.03,.32,.22,.46,.17,.13,.44,.17,.81,.11l.19-.03s0,.02,.01,.02c-.12,.06-.37,.17-.53,.18-.14,.01-.69,.05-.79-.24Zm2.52-2.83c-.27-.36-.78-.38-.8-.38-.02,0-.04,0-.06,0-.29,0-.55,.22-.58,.53-.01,.16,.02,.27,.09,.34,.22,.18,.42,.06,.46-.1,.02-.05,.03-.13-.06-.23,.18-.07,.33-.02,.39,.08,.13,.18-.1,.41-.1,.41,0,0,.12,.23-.05,.37-.15,.13-.43,0-.43,0,0,0-.12,.24-.32,.18-.23-.07-.2-.44-.2-.44,0,0-.35,.05-.44-.13-.11-.22,.1-.49,.1-.49,0,0-.25-.17-.2-.38,.06-.21,.4-.28,.4-.28,0,0-.18-.33,0-.5,.19-.18,.48-.04,.48-.04,0,0,.13-.33,.36-.32h0c.2,.02,.27,.26,.27,.26,0,0,.22-.32,.44-.22,.22,.1,.22,.41,.22,.41,0,0,.43-.17,.59,.02,.13,.2-.05,.5-.05,.5,0,0,.42-.02,.56,.27,.15,.3-.07,.66-.07,.66,0,0,.22,.07,.28,.32,.03,.12,.03,.3-.15,.51h0c-.11,.15-.17,.36-.18,.64-.05,.02-.1,.03-.15,.05,.07-.18,.14-.41,.06-.49-.1-.1-.31-.06-.56,.11,.02-.17,.02-.48-.19-.73,.1-.39,.07-.7-.1-.93Zm.71,2.22c.21-.17,.5-.18,.55-.12,.05,.06-.06,.35-.2,.6-.11-.17-.22-.32-.35-.47h0Zm-.07-.07c-.11-.13-.24-.25-.36-.36,.23-.17,.44-.24,.51-.17,.04,.04-.03,.28-.15,.53Zm-.68-1.22c.3,.27,.25,.65,.22,.78-.1-.08-.2-.16-.31-.23,.06-.13,.11-.29,.09-.55Zm1.14,2.18c-.08-.05-.12-.06-.11-.05-.2-.35-.53-.82-1.24-1.38l.09-.1c.55,.45,.9,.78,1.32,1.49l-.06,.04Zm.89-.18s-.45-.05-.74,.1c-.04-.08-.09-.16-.14-.24,.06-.05,.29-.15,.52-.1,.14,.03,.26,.11,.35,.25Zm2.22,.76c-.1,.24-.46,.26-.46,.26,0,0,.13,.24-.09,.45-.25,.22-.57,0-.57,0,0,0-.09,.32-.35,.3-.18,0-.26-.29-.26-.29,0,0-.27,.13-.44,0-.15-.16-.03-.47-.03-.47,0,0-.26-.1-.17-.34,.07-.25,.36-.19,.36-.19,0,0,.1-.27,.28-.26,.08,0,.15,.02,.19,.05-.09,.07-.14,.18-.12,.3,.04,.17,.23,.31,.42,.28,.08-.01,.33-.08,.3-.56-.02-.25-.2-.5-.45-.63-.3-.17-.68-.15-1.06,.04-.15-.1-.42-.04-.54,0,.1-.19,.22-.48,.13-.6-.04-.04-.15-.1-.29-.07,.02-.36,.12-.6,.31-.7,.3-.16,.63,.05,.63,.05,0,0,.23-.32,.47-.27,.29,.05,.42,.38,.42,.38,0,0,.31-.3,.5-.19,.22,.11,.19,.49,.19,.49,0,0,.32,0,.44,.2,.16,.2,.01,.54,.01,.54,0,0,.34,.21,.33,.44,0,.26-.28,.39-.28,.39,0,0,.22,.17,.15,.38Z" fill="#171714"/><path d="M12.41,8.89c.07,0,.13-.06,.13-.13,0-.07-.06-.13-.13-.13s-.13,.06-.13,.13,.06,.13,.13,.13h0" fill="#f2db38"/><path d="M12.62,8.83c.04,.09,.08,.13,.08,0,0-.18-.15-.33-.36-.33-.16,0,0,.09,0,.09,.27,.02,.27,.24,.27,.24Z" fill="#f2db38"/><path d="M17.07,11.49c-.01-.44-.5-.22-.5-.22,0,0-.36-.14-.52,.22-.4,0-.38,.34-.38,.34-.24-.02-.37,.26-.32,.43-.07,0-.14,.06-.14,.09,0,.37-.15,.85-.55,.89-.48-.59-1.1-.59-1.67-1.03-.06-.05-.17-.15-.15-.23s.16-.22,.12-.42c.11-.07,.31-.17,.27-.37,.36-.01,.28-.44,.28-.44,.08-.02,.14-.06,.2-.11,.04-.1,0-.23-.05-.3-.18-.09-.5-.35-.5-.35-.03-.11-.06-.24-.14-.27-.08-.02-.22,.12-.34,.15-.51-.03-.66,.16-.66,.16-.32-.13-.57,.13-.57,.13-.26-.12-.43,.05-.49,.13,0,0-.39-.01-.49,.36-.57,.24-.35,.56-.43,.67-.13,.05-.25,.13-.34,.23-.23-.12-.45-.28-.64-.46-.09-.09-.23-.1-.34-.04-.31,.12-.65,.46-1.24,.73-.1,.04-.26,0-.36,.08-.09,.08-.06,0-.21,.26-.01,.02,0,.04,0,.05-.07,.03-.08,.04-.08,.04-.11,.1-.17,.21-.23,.32-.07,.15-.28,.36-.28,.36h.46s-.06,.15-.04,.19c0,.02,.03,.03,.06,.04,.5,0,.84-.34,.84-.34,0,0-.01-.26-.03-.35,0-.06,0-.11,0-.16,.03-.1,.04-.13,.06-.09,.05,.13,.24,.19,.29,.13,.18-.24,.48-.57,.8-.59,.38,0,.48,.42,.72,.64,.07,.06,0,.26,.06,.38,.06,.12,.29,.08,.3,.13,.05,.22,.27,.36,.49,.31,.05-.01,.09-.03,.14-.06,0,0,.08-.06,.09-.05,.04,.11,.14,.12,.21,.16,.3,.17,.62,.31,.95,.41,0,0,.42,.16,.46,.16-.31,0-.33-.13-.65,0-.15,.06-.27-.14-.43-.06-.16,.08-.21,.1-.22,.24-.15-.08-.33-.04-.44,.08-.26,.41,0,.1-.39,.35-.04,.04-.08,.09-.09,.14-.04,.1-.04,.21,0,.31-.12,0-.13,.15-.17,.23-.03,.08,.22,.45,.22,.45,0,.09,0,.18,0,.27,0,.1,.07,.18,.17,.21l.2,.05s.09,.22,.45,.2c.06,0,.06,.15,0,.19-.54,.32-1.17,.82-1.64,.77-.05,0-.17,.2-.23,.35h-.22s-.41,.38-.6,.57c-.03,.04-.02,.07-.01,.09,.02,.02,.04,.06,.3,0-.06,.08-.07,.13-.06,.17,0,.02,.02,.05,.06,.08,.12,.05,.26,.07,.39,.07s.27-.03,.4-.07c.01,0,.17-.07,.19-.16,.01-.15,0-.3,0-.45,.03-.03,.04-.23,.21-.16,.02,.03,.06,.17,.1,.17,.2,0,.22-.21,.31-.32,.32-.39,.89-.47,1.34-.67,.15-.06,.41-.08,.43-.26,0-.07,.03-.19,0-.23-.07-.07-.13-.15-.17-.23,.11-.04,.24-.09,.45-.15,0,.01,0,.02,.01,.04,.03,.05,.07,.09,.18,.09,.12,0,.26-.08,.36-.15,0,0,.14,.05,.22,.05,.05,0,.09,0,.14-.02,.09-.02,.16-.07,.23-.13,.11,.02,.34-.02,.41,.01,.1,.05,.11,.09,.17,.12,.18,.08,.39,.02,.5-.14,.06,.16,.48,.28,.62,0,.4,.22,.61-.15,.6-.31,.05,0,.07-.06,.09-.05,.26,.15,.26,.45,.37,.69,.1,.24,.12,.4,.2,.59,.04,.08,.04,.18,0,.26-.1,.11-.07,.18-.07,.3-.11,.05-.19,.11-.19,.11,0,0-.19,.45-.21,.91v.1l.3-.18c0,.06-.01,.17-.01,.17h.06c.53-.07,.79-.56,.79-.56,0,0,0-.24-.07-.52,0-.01,.01-.03,.01-.04,0-.12,.16-.13,.21-.18,.05-.05,0-.13-.06-.18-.06-.05-.16-.15-.24-.23-.2-.4-.35-.82-.46-1.26-.12-.23,.06-.52-.08-.73-.05-.09-.23-.07-.35,0,0,0-.1,.04-.16,0-.06-.04,.12-.33-.31-.34,.02-.09-.04-.37-.36-.33,0-.21-.08-.42-.2-.59,.17,0,.34-.01,.5-.04,.09,0,.16-.19,.22-.18,.12,.03,.25,.03,.37,0,.08,0,.21-.09,.21-.23,.22,.05,.43-.08,.48-.3,.28,.02,.42-.21,.43-.34,.43,0,.25-.46,.25-.46,0,0,.32-.35-.15-.47Zm-10.24,1.54s.06-.15,.06-.17v-.05h-.35c.05-.07,.09-.14,.13-.21,.06-.1,.11-.2,.21-.29,0,0,.04-.02,.06-.02,.12,.08,.4,.08,.55,.04,0,.04,0,.08,0,.13,.01,.08,.02,.18,.03,.29-.19,.17-.44,.27-.7,.28Zm2.32,5.37c-.23,.09-.48,.09-.71,0,.03-.11,.24-.34,.24-.34,0,0-.32,.11-.43,.12,.18-.17,.45-.42,.51-.48h.15s0,.02-.01,.03c0,.06,.24,.15,.38,.16,0,.14,.01,.29,0,.42,0,.03-.12,.08-.13,.09Zm3.08-2.37s-.05,.01-.09-.04c-.22-.35-.14-.81,.16-1.06,.09-.06,.16-.08,.21-.09-.03,.03-.06,.06-.09,.11-.14,.25-.23,.71,.08,.97-.08,.06-.18,.11-.26,.11Zm.69-.1c-.13,.03-.26,.01-.37-.05-.3-.22-.21-.65-.07-.89,.04-.07,.08-.12,.12-.15h.08c-.06,.03-.09,.33,.11,.32-.07,.29,.28,.45,.28,.45,0,.08,.01,.16,.03,.24-.05,.04-.11,.07-.18,.09Zm3.73,1.55c.03,.13,.04,.26,.05,.39-.05,.11-.36,.4-.64,.47,0-.05-.01-.23-.01-.23l-.28,.17c.03-.26,.09-.52,.18-.76,.05-.03,.11-.04,.16-.07,.11,.07,.39,.11,.53,.03Z" fill="#171714"/><path d="M9.93,11.07c.05-.08,.09-.17,.12-.26-.03-.22-.1-.44-.2-.63-.05-.13-.12-.5-.27-.6-.28-.06-1.23-.15-1.42-.14,0-.01-.08-.05-.12-.05-.17-.06-.32-.16-.49-.1-.41,.08-.89-.06-.89-.06,0,0-.04,.22,.09,.38-.06,.03-.2,.02-.2,.02,0,0,.11,.49,.54,.65,.03,0,.05,.01,.07,.01,.06,0,.1-.03,.12-.05,.16-.18,.41-.27,.51-.3,0,.03-.01,.06-.01,.12-.01,.06,.09,.11,.17,.06,.09-.05,.18-.15,.26-.15,.34-.05,.72-.16,.99,.19,.27,.35,.16,.87,.43,1.25,.04,.06,.1,.08,.17,.07l.15-.12c.09-.09-.05-.19,0-.28Zm-2.74-.9s-.06,.02-.09,0c-.16-.05-.39-.27-.45-.46,.1-.01,.23-.07,.23-.07,0,0-.14-.2-.13-.29,.2,.05,.42,.06,.63,.04v.22l.21,.28c-.12,.05-.28,.14-.39,.27Z" fill="#171714"/></g><path d="M11.99,21c-1.95,0-3.89-.78-5.19-2.1-1.18-1.19-1.81-2.77-1.8-4.56V4h14V14.34c0,4.54-4.18,6.66-7.01,6.66ZM5.42,4.42V14.34c0,1.68,.58,3.15,1.68,4.26,1.22,1.24,3.05,1.98,4.89,1.98,2.66,0,6.59-1.98,6.59-6.24V4.42H5.42Z" fill="#171714"/></g></svg>