<?xml version="1.0" encoding="UTF-8"?><svg id="a" xmlns="http://www.w3.org/2000/svg" viewBox="0 0 24 24"><rect y="0" width="24" height="24" fill="none"/><rect id="b" y="0" width="24" height="24" fill="none"/><g><path d="M14.36,10.03l-1.89-.92c-.6-.29-1.13-.33-1.47-.17l-2.82,1.36c.35-.17,.88-.12,1.47,.17l1.89,.92c1.05,.51,1.89,1.58,1.89,2.4v2.22c-.03,.32-.17,.55-.36,.67l-.19,.09-.91,4.46,2.82-1.36,.91-4.44,.15-.07c.22-.11,.37-.37,.39-.71v-2.22c.02-.82-.83-1.89-1.87-2.4Z" fill="#2f3541" opacity=".2"/><path d="M11.54,11.39c1.05,.51,1.89,1.58,1.89,2.4v2.22c-.04,.42-.25,.71-.55,.76l-.91,4.46-2.83-1.38-.86-5.33c-.3-.35-.5-.84-.52-1.28v-2.22c.02-.82,.86-1.07,1.91-.56l1.89,.92Zm1.2-2.92c0-1.45-.94-3.09-2.11-3.66s-2.13,.14-2.14,1.59,.94,3.08,2.11,3.66,2.14-.13,2.14-1.58Z" fill="#2f3541"/><path d="M9.31,4.73l2.82-1.36c.36-.18,.82-.16,1.32,.08,1.17,.57,2.12,2.21,2.11,3.66,0,.83-.33,1.42-.82,1.66l-2.82,1.36c.5-.24,.82-.83,.82-1.66,0-1.45-.94-3.09-2.11-3.66-.5-.24-.95-.25-1.32-.08Z" fill="#2f3541" opacity=".2"/></g></svg>