<?xml version="1.0" encoding="UTF-8"?><svg id="a" xmlns="http://www.w3.org/2000/svg" viewBox="0 0 64 64"><rect x="0" y="0" width="64" height="64" fill="none"/><g><path d="M26.17,29.99c-.71,.04-1.34,.33-1.86,.82-.58,.54-.91,1.22-.97,2.01-.06,.86,.21,1.63,.78,2.27,.58,.65,1.32,.99,2.19,1.01,.85,.02,1.61-.27,2.21-.87,.62-.61,.96-1.36,.91-2.09,0-1.04-.36-1.77-.99-2.35-.64-.59-1.41-.85-2.27-.8Z" fill="#fff"/><path d="M32,4C16.54,4,4,16.54,4,32s12.54,28,28,28,28-12.54,28-28S47.46,4,32,4Zm-13.78,32.58c0,.2-.02,.4-.05,.6-.06,.34-.12,.68-.2,1.02-.06,.23-.14,.46-.23,.69-.1,.26-.2,.53-.32,.79-.28,.59-.63,1.13-1.04,1.64-.32,.38-.66,.74-1.03,1.06-.32,.28-.65,.53-1.02,.74-.29,.17-.58,.33-.88,.48-.21,.1-.43,.19-.64,.26-.24,.08-.48,.14-.72,.22-.33,.11-.67,.13-1.01,.2-.25,.05-.5,.03-.74,.05-.04,0-.09,0-.12,.01-.08,.05-.14,.02-.22-.04v-.54c0-1.11,0-2.22,0-3.33,0-.21,0-.2,.21-.22,.22-.02,.44-.02,.65-.09,.14-.05,.3-.08,.45-.12,.27-.07,.52-.2,.77-.34,.33-.19,.63-.44,.9-.72,.33-.34,.58-.71,.77-1.14,.1-.23,.18-.46,.24-.7,.1-.37,.11-.74,.11-1.12,0-2.85,0-5.69,0-8.54,0-.6,.27-1.05,.77-1.36,.23-.15,.49-.22,.77-.22,.81,0,1.62,0,2.43,0,.17,0,.19,.01,.19,.19,0,3.26,0,6.51,0,9.77,0,.26,0,.52-.01,.78Zm13.32,1.49c-1.37,1.41-3.07,2.13-5.04,2.18-1.11,.03-2.18-.21-3.19-.69-1.25-.6-2.25-1.48-3-2.65-.7-1.09-1.08-2.29-1.12-3.57-.12-4.27,3.2-7.44,7.1-7.49,1.99-.03,3.72,.67,5.14,2.08,1.42,1.4,2.12,3.12,2.15,4.92,0,2.15-.69,3.84-2.04,5.23Zm7.13,2.06c0,.07-.04,.11-.11,.12-.03,0-.06,0-.09,0-.99,0-1.99,0-2.98,0-.25,0-.5,0-.75,0-.16,0-.16,0-.17-.17,0-.53,0-1.07,0-1.6,0-1.81,0-3.63,0-5.44h0c0-2.32,0-4.64,0-6.97,0-.27,.01-.24,.24-.24,1.16,0,2.31,0,3.47,0,.07,0,.14,0,.21,0,.17,0,.18,.01,.19,.18,0,.17,0,.34,0,.51,0,2.51,0,5.02,0,7.52,0,1.98,0,3.96,0,5.94,0,.05,0,.1,0,.15Zm-.18-16.32c-.44,0-.87,0-1.31,0-.8,0-1.6,0-2.4,0-.04,0-.07,0-.11,0-.07,0-.11-.03-.11-.11,0-.08,0-.15,0-.23,0-.8,0-1.61,0-2.41,0-.33,.14-.61,.36-.86,.19-.21,.4-.37,.66-.47,.15-.06,.32-.08,.49-.08,.82,0,1.65,0,2.47,0,.03,0,.06,0,.1,.01,0,.07,.02,.13,.02,.19,0,1.18,0,2.35,0,3.53,0,.08,0,.16,0,.24,0,.16-.02,.18-.18,.18Zm15.01,16.01c-.18,.17-.4,.3-.64,.36-.13,.03-.27,.06-.4,.06-.67,0-1.35,.01-2.02,0-.38,0-.68-.19-.9-.49-.33-.45-.64-.91-.97-1.37-.34-.48-.69-.95-1.03-1.43-.29-.41-.57-.82-.86-1.23-.29-.41-.59-.82-.88-1.23-.23-.32-.45-.64-.68-.97-.06-.08-.12-.17-.18-.26-.02-.02-.06-.03-.11-.06,0,.13,0,.22,0,.32,0,2.17,0,4.34,0,6.51,0,.19-.01,.2-.21,.2-1.24,0-2.48,0-3.72,0-.19,0-.22-.03-.22-.22,0-3.31,0-6.63,0-9.94v-4.09s0-.05,0-.08c0-.09,.03-.12,.12-.12,.09,0,.18,0,.27,0,1.04,0,2.07,0,3.11,0,.45,0,.75,.2,1,.54,.24,.34,.48,.68,.72,1.02,.29,.42,.59,.83,.88,1.25,.21,.29,.42,.58,.62,.87,.29,.4,.58,.81,.87,1.21,.15,.2,.3,.41,.44,.61,.22,.31,.43,.63,.65,.94,.13,.19,.27,.38,.41,.56,.02,.02,.05,.03,.08,.05,.01-.03,.04-.06,.04-.09,0-.23,0-.46,0-.69,0-2,0-4,0-6,0-.28,0-.25,.25-.25,.75,0,1.5,0,2.25,0,.36,0,.7,.08,.99,.31,.27,.21,.46,.46,.56,.8,.04,.15,.06,.29,.06,.44,0,3.73,0,7.46,0,11.19,0,.08,0,.16,0,.24-.02,.41-.19,.75-.5,1.03Z" fill="#fff"/></g></svg>