<?xml version="1.0" encoding="UTF-8"?><svg id="a" xmlns="http://www.w3.org/2000/svg" viewBox="0 0 24 24"><g><g><circle cx="17" cy="6" r=".5" fill="#fff"/><path d="M19.95,6.5h1.05v-1h-1.05c-.08-.46-.25-.87-.51-1.23l.74-.74-.71-.71-.74,.74c-.36-.26-.78-.43-1.23-.51h0v-1.05h-1v1.05h0c-.45,.08-.87,.25-1.23,.51l-.74-.74-.71,.71,.74,.74c-.26,.36-.43,.78-.51,1.23h-1.05v1h1.05c.08,.46,.25,.87,.51,1.23l-.74,.74,.71,.71,.74-.74c.35,.25,.76,.43,1.2,.51,.01,0,.02,0,.03,0v1.04h1v-1.04s.02,0,.03,0c.44-.08,.85-.25,1.2-.51l.74,.74,.71-.71-.74-.74c.26-.36,.43-.78,.51-1.23Zm-2.95,1.5c-1.1,0-2-.9-2-2s.9-2,2-2,2,.9,2,2-.9,2-2,2Z" fill="#fff"/></g><g><path d="M9,12c-1.1,0-2,.9-2,2s.9,2,2,2,2-.9,2-2-.9-2-2-2Zm0,3c-.55,0-1-.45-1-1s.45-1,1-1,1,.45,1,1-.45,1-1,1Z" fill="#fff"/><path d="M16,12.69l-.16-.58c-.15-.56-.38-1.1-.66-1.6l-.3-.53-.61,.03-.67,.03c-.2-.23-.42-.45-.65-.65l.03-.67,.03-.61-.53-.3c-.5-.28-1.04-.5-1.6-.66l-.58-.16-.41,.45-.44,.49c-.15-.01-.3-.02-.46-.02s-.32,0-.46,.02l-.44-.49-.41-.45-.58,.16c-.56,.15-1.1,.38-1.6,.66l-.53,.3,.03,.61,.03,.67c-.23,.2-.45,.42-.65,.65l-.67-.03-.61-.03-.3,.53c-.28,.5-.5,1.03-.66,1.6l-.16,.58,.45,.41,.49,.44c-.01,.15-.02,.3-.02,.46s0,.31,.02,.46l-.49,.44-.45,.41,.16,.58c.16,.56,.38,1.1,.66,1.6l.3,.53,.61-.03,.67-.03c.2,.23,.42,.45,.65,.65l-.03,.67-.03,.61,.53,.3c.5,.28,1.04,.5,1.6,.66l.58,.16,.41-.45,.44-.49c.15,.01,.3,.02,.46,.02s.31,0,.46-.02l.44,.49,.41,.45,.58-.16c.56-.15,1.1-.38,1.6-.66l.53-.3-.03-.61-.03-.67c.23-.2,.45-.42,.65-.65l.67,.03,.61,.03,.3-.53c.28-.5,.5-1.04,.66-1.6l.16-.58-.45-.41-.49-.44c.01-.15,.02-.3,.02-.46s0-.31-.02-.46l.49-.44,.45-.41Zm-1.9,1.31c0,.29-.04,.57-.09,.84l.88,.79c-.13,.48-.32,.95-.57,1.37l-1.18-.06c-.33,.46-.74,.87-1.2,1.2l.06,1.18c-.43,.24-.89,.43-1.37,.57l-.79-.88c-.28,.05-.56,.09-.84,.09s-.57-.04-.84-.09l-.79,.88c-.48-.13-.95-.32-1.37-.57l.06-1.18c-.46-.33-.87-.74-1.2-1.2l-1.18,.06c-.24-.43-.43-.89-.57-1.37l.88-.79c-.05-.28-.08-.56-.08-.84s.04-.57,.08-.84l-.88-.79c.13-.48,.32-.95,.57-1.37l1.18,.06c.33-.46,.74-.87,1.2-1.2l-.06-1.18c.43-.24,.89-.43,1.37-.57l.79,.88c.28-.05,.55-.08,.84-.08s.57,.04,.84,.08l.79-.88c.48,.13,.95,.32,1.37,.57l-.06,1.18c.46,.33,.87,.74,1.2,1.2l1.18-.06c.24,.43,.43,.89,.57,1.37l-.88,.79c.05,.28,.09,.56,.09,.84Z" fill="#fff"/></g></g><rect width="24" height="24" transform="translate(24 24) rotate(180)" fill="none"/></svg>