<?xml version="1.0" encoding="UTF-8"?><svg id="a" xmlns="http://www.w3.org/2000/svg" viewBox="0 0 24 24"><rect width="24" height="24" fill="none"/><rect y="0" width="24" height="24" fill="none"/><rect width="24" height="24" fill="none" opacity="0"/><path d="m12,5c3.86,0,7,3.14,7,7s-3.14,7-7,7-7-3.14-7-7,3.14-7,7-7m0-1c-4.41,0-8,3.59-8,8s3.59,8,8,8,8-3.59,8-8S16.41,4,12,4h0Z" fill="#2f3541"/><polygon points="15.35 9.35 12.69 12 15.35 14.65 14.65 15.35 12 12.69 9.35 15.35 8.65 14.65 11.31 12 8.65 9.35 9.35 8.65 12 11.31 14.65 8.65 15.35 9.35" fill="#2f3541"/></svg>