<?xml version="1.0" encoding="UTF-8"?><svg id="a" xmlns="http://www.w3.org/2000/svg" viewBox="0 0 24 24"><rect width="24" height="24" fill="none"/><rect id="b" width="24" height="24" fill="none"/><path d="M7,16c0-.55,.45-1,1-1s1,.45,1,1-.45,1-1,1-1-.45-1-1Zm9,1c.55,0,1-.45,1-1s-.45-1-1-1-1,.45-1,1,.45,1,1,1Zm4-7v3h-1v4c0,1.1-.9,2-2,2v1c0,.55-.45,1-1,1s-1-.45-1-1v-1h-6v1c0,.55-.45,1-1,1s-1-.45-1-1v-1c-1.1,0-2-.9-2-2v-4h-1v-3h1v-3c0-1.1,.9-2,2-2h10c1.1,0,2,.9,2,2v3h1Zm-14,0v2h12V7c0-.55-.45-1-1-1H7c-.55,0-1,.45-1,1v3Zm12,3H6v4c0,.55,.45,1,1,1h10c.55,0,1-.45,1-1v-4Z" fill="#2f3541"/></svg>