<?xml version="1.0" encoding="UTF-8"?><svg id="a" xmlns="http://www.w3.org/2000/svg" viewBox="0 0 24 24"><rect y="0" width="24" height="24" fill="none"/><g opacity=".2"><path d="m16.12,18.77c-.05.09-.09.18-.15.26.06-.08.1-.17.15-.26Z" fill="none"/><path d="m15.86,19.15c-.06.06-.11.13-.17.18.06-.05.11-.12.17-.18Z" fill="none"/><path d="m14.13,18.73s-.08,0-.12-.02c.04,0,.08.01.12.02Z" fill="none"/><path d="m4.33,9.85c.08,0,.17,0,.25.02-.09-.01-.17-.02-.25-.02Z" fill="none"/><path d="m16.36,18.16c-.04.17-.1.33-.16.47.06-.14.12-.3.16-.47Z" fill="none"/><path d="m4.2,9.86c-.08,0-.15.02-.22.05.07-.02.14-.04.22-.05Z" fill="none"/><path d="m5.09,10.03c-.14-.06-.27-.11-.4-.14.13.03.26.07.4.14Z" fill="none"/><path d="m14.38,18.75s.08,0,.13,0c-.04,0-.08,0-.13,0Z" fill="none"/><path d="m14.84,18.65s-.07.03-.11.04c.04-.01.08-.02.11-.04Z" fill="none"/><path d="m7.61,9.51c-.11-.05-.21-.09-.31-.12.1.03.2.06.31.12Z" fill="#fff"/><path d="m9.86,7.46c-.1,0-.2.02-.3.04.1-.02.2-.03.3-.04Z" fill="#fff"/><path d="m4.2,9.86s.08,0,.13,0c.08,0,.17,0,.25.02.04,0,.08,0,.12.02.13.03.26.07.4.14.26.13.53.31.78.54.06-.62.35-1.02.76-1.16-.03.01-.07.02-.1.03l1.77-.85c.24-.51.62-.86,1.07-1.03-.05.02-.11.03-.16.05l.98-.47c-.27-.03-.51,0-.72.1l-5.65,2.73s.04-.01.06-.02c.04-.02.07-.03.11-.04.07-.02.14-.04.22-.05Z" fill="#fff"/><path d="m10.05,7.45c.12,0,.24.02.36.05-.12-.02-.24-.04-.36-.05Z" fill="#fff"/><path d="m7.01,9.35c.06,0,.13.01.19.03-.07-.01-.13-.02-.19-.03Z" fill="#fff"/><path d="m6.9,9.36c-.06,0-.11,0-.16.02.05-.01.11-.02.16-.02Z" fill="#fff"/><path d="m11.16,7.73c-.19-.09-.38-.16-.57-.21.19.05.38.12.57.21Z" fill="#fff"/><path d="m6.63,9.41s.07-.03.1-.03c.05-.01.11-.02.16-.02.04,0,.07,0,.11,0,.06,0,.13.01.19.03.03,0,.07,0,.1.02.1.03.2.06.31.12.07.03.13.07.2.11l.18.13h0c.04-.45.15-.83.3-1.16l-1.77.85s.07-.02.1-.03Z" fill="#fff"/><path d="m9.37,7.56c.06-.02.12-.05.19-.06.1-.02.2-.03.3-.04.07,0,.13-.01.2-.01.12,0,.24.02.36.05.06.01.12.01.18.03.19.05.38.12.57.21.01,0,.02.01.04.02,1.68.82,3.04,3.05,3.16,5.16l5.65-2.73c-.12-2.11-1.48-4.35-3.16-5.16-.01,0-.02-.01-.04-.02-.73-.36-1.41-.38-1.95-.12l-4.67,2.25-.98.47c.05-.02.11-.03.16-.05Z" fill="#fff"/><path d="m20.01,10.19l-5.65,2.73c1.51,1.22,2.4,3.57,2,5.25-.04.17-.1.33-.16.47-.02.05-.05.08-.07.13-.05.09-.09.18-.15.26-.03.05-.08.08-.11.12-.06.06-.11.13-.17.18-.04.04-.1.06-.14.09-.06.04-.12.09-.18.12l5.65-2.73c.47-.23.83-.7,1-1.38.41-1.68-.49-4.03-2-5.25Z" fill="#fff"/></g><path d="m14.36,12.91c1.51,1.22,2.4,3.57,2,5.25-.33,1.38-1.45,1.9-2.74,1.28l-8.48-4.13s-.02-.01-.04-.02c-1.16-.56-2.09-2.17-2.11-3.62-.02-1.46.93-2.2,2.1-1.65.26.13.53.31.78.54.11-1.05.86-1.49,1.74-1.07.07.03.13.07.2.11l.18.13c.16-1.94,1.53-2.81,3.16-2.02.01,0,.02.01.04.02,1.68.82,3.04,3.05,3.16,5.16Zm-.74,5.66c1.17.55,2.11-.19,2.11-1.65-.01-1.18-.65-2.51-1.57-3.27l-.51-.4v-.63c-.08-1.62-1.14-3.37-2.42-3.99-.01,0-.02-.01-.04-.02-1.3-.63-2.37.04-2.49,1.56l-.08.94-.75-.61c-.08-.07-.17-.12-.25-.16-.46-.23-.89-.05-1.01.48l-.03.21-.11,1.04-.83-.79c-.15-.15-.31-.27-.47-.36-.78-.38-1.42.1-1.42,1.06s.62,2.05,1.41,2.44l8.48,4.13" fill="#fff"/></svg>