<?xml version="1.0" encoding="UTF-8"?><svg id="a" xmlns="http://www.w3.org/2000/svg" viewBox="0 0 24 24"><path d="M13.07,14.71l4.25,2.07-.03,5.24-4.25-2.07,.03-5.24Zm3.51,6.09l.02-3.49-2.83-1.38-.02,3.49,2.83,1.38" fill="#fff"/><g opacity=".2"><g isolation="isolate"><polygon points="9.22 3.97 14.87 1.24 19.83 3.66 14.18 6.39 9.22 3.97" fill="#fff"/><g><polygon points="18.71 11.98 19.77 12.5 19.83 3.66 14.18 6.39 14.13 14.19 18.71 11.98" fill="#fff"/><polygon points="14.13 15.22 14.12 15.76 14.68 15.49 14.13 15.22" fill="#fff"/></g></g></g><g opacity=".2"><g isolation="isolate"><polygon points="1.51 11.37 7.16 8.65 13.54 11.75 7.89 14.48 1.51 11.37" fill="#fff"/><polygon points="1.51 11.37 7.16 8.65 13.54 11.75 7.89 14.48 1.51 11.37" fill="#fff"/><polygon points="13.07 14.71 13.52 14.49 13.54 11.75 7.89 14.48 7.85 22.35 13.49 19.62 13.52 14.93 13.07 14.71" fill="#fff"/></g></g><g opacity=".2"><g isolation="isolate"><polygon points="13.07 14.71 18.71 11.98 22.97 14.05 17.32 16.78 13.07 14.71" fill="#fff"/><polygon points="17.32 16.78 22.97 14.05 22.94 19.3 17.29 22.02 17.32 16.78" fill="#fff"/></g></g><rect y="0" width="24" height="24" fill="none"/><g><polygon points="11.23 8.51 11.22 9.39 10.52 9.04 10.52 8.17 11.23 8.51" fill="#fff"/><polygon points="11.22 10.62 11.22 10.26 10.51 9.92 10.51 10.28 11.22 10.62" fill="#fff"/><polygon points="12.63 11.31 12.63 10.95 11.93 10.61 11.92 10.97 12.63 11.31" fill="#fff"/><polygon points="11.24 6.77 11.23 7.64 10.52 7.3 10.53 6.42 11.24 6.77" fill="#fff"/><polygon points="12.64 9.21 12.64 10.08 11.93 9.73 11.94 8.86 12.64 9.21" fill="#fff"/><polygon points="12.65 7.46 12.65 8.33 11.94 7.99 11.94 7.11 12.65 7.46" fill="#fff"/><polygon points="15.78 17.85 15.78 18.72 14.36 18.03 14.37 17.16 15.78 17.85" fill="#fff"/><polygon points="15.78 19.85 15.78 20.72 14.36 20.03 14.37 19.16 15.78 19.85" fill="#fff"/><polygon points="4.93 17.49 4.92 19.23 4.2 18.88 4.21 17.14 4.93 17.49" fill="#fff"/><polygon points="3.52 14.17 3.51 15.92 2.8 15.57 2.81 13.83 3.52 14.17" fill="#fff"/><polygon points="6.34 18.18 6.33 19.92 5.62 19.58 5.63 17.83 6.34 18.18" fill="#fff"/><polygon points="3.5 16.79 3.49 18.54 2.79 18.19 2.8 16.45 3.5 16.79" fill="#fff"/><polygon points="4.94 14.86 4.93 16.61 4.22 16.26 4.23 14.52 4.94 14.86" fill="#fff"/><polygon points="6.35 15.56 6.34 17.3 5.64 16.96 5.65 15.21 6.35 15.56" fill="#fff"/></g><path d="M1.51,11.37l6.37,3.11-.04,7.87-6.37-3.11,.04-7.87Zm5.62,9.76l.03-6.12-4.95-2.42-.03,6.12,4.95,2.42" fill="#fff"/><g><polygon points="13.52 14.93 13.52 15.46 14.12 15.76 14.13 15.22 13.52 14.93" fill="#fff"/><polygon points="13.45 14.52 14.13 14.19 14.18 6.39 9.22 3.97 9.19 9.63 9.91 9.98 9.93 5.19 13.47 6.91 13.45 14.52" fill="#fff"/></g></svg>