<?xml version="1.0" encoding="UTF-8"?><svg id="c" xmlns="http://www.w3.org/2000/svg" xmlns:xlink="http://www.w3.org/1999/xlink" viewBox="0 0 48 48"><defs><linearGradient id="a" x1="26.58" y1="31.33" x2="41.45" y2="31.33" gradientTransform="matrix(1, 0, 0, 1, 0, 0)" gradientUnits="userSpaceOnUse"><stop offset="0" stop-color="#2f3541" stop-opacity=".4"/><stop offset="1" stop-color="#2f3541" stop-opacity="0"/></linearGradient><linearGradient id="e" x1="21.96" y1="16.78" x2="34.42" y2="29.24" gradientTransform="matrix(1, 0, 0, 1, 0, 0)" gradientUnits="userSpaceOnUse"><stop offset=".06" stop-color="#00d2b2"/><stop offset=".12" stop-color="#03c5ba"/><stop offset=".29" stop-color="#0ea3d3"/><stop offset=".46" stop-color="#1788e6"/><stop offset=".63" stop-color="#1d75f4"/><stop offset=".81" stop-color="#2069fc"/><stop offset="1" stop-color="#26f"/></linearGradient><linearGradient id="f" x1="21.09" y1="17.63" x2="33.79" y2="30.34" gradientTransform="matrix(1, 0, 0, 1, 0, 0)" gradientUnits="userSpaceOnUse"><stop offset="0" stop-color="#00d2b2"/><stop offset=".06" stop-color="#03c5ba"/><stop offset=".24" stop-color="#0ea3d3"/><stop offset=".42" stop-color="#1788e6"/><stop offset=".61" stop-color="#1d75f4"/><stop offset=".8" stop-color="#2069fc"/><stop offset="1" stop-color="#26f"/></linearGradient><linearGradient id="g" x1="22.03" y1="16.72" x2="34.48" y2="29.17" xlink:href="#e"/><linearGradient id="h" x1="22.03" y1="16.72" x2="34.48" y2="29.17" xlink:href="#e"/></defs><rect width="48" height="48" fill="none"/><rect width="48" height="48" fill="none"/><rect width="48" height="48" fill="none"/><g><polyline points="43.98 30.5 23.98 20.5 3.98 30.5 23.98 40.5 43.98 30.5 43.98 30.5" fill="#f2f6ff"/><polygon points="23.98 40.5 23.98 42.5 3.98 32.5 3.98 30.5 23.98 40.5" fill="#2f3541" opacity=".2"/><polygon points="23.98 40.5 23.98 42.5 43.98 32.5 43.98 30.5 23.98 40.5" fill="#2f3541"/></g><g><polyline points="43.98 30.5 23.98 20.5 3.98 30.5 23.98 40.5 43.98 30.5 43.98 30.5" fill="#f2f6ff"/><polygon points="23.98 40.5 23.98 42.5 3.98 32.5 3.98 30.5 23.98 40.5" fill="#2f3541" opacity=".2"/><polygon points="23.98 40.5 23.98 42.5 43.98 32.5 43.98 30.5 23.98 40.5" fill="#2f3541"/></g><g><rect x="11.98" y="11" width="24" height="24" fill="none"/><g isolation="isolate"><polygon points="18.36 16.05 24.01 13.32 23.99 15.95 18.35 18.67 18.36 16.05" fill="url(#e)"/><polygon points="24 23.18 29.65 20.46 33.87 27.78 28.23 30.51 24 23.18" fill="url(#f)"/><polygon points="28.23 30.51 33.87 27.78 29.59 30.95 23.95 33.68 28.23 30.51" fill="#26f"/><polygon points="24.01 21.44 29.66 18.71 29.66 20.59 24.01 23.31 24.01 21.44" fill="#26f"/><polygon points="18.35 18.67 23.99 15.95 29.66 18.71 24.01 21.44 18.35 18.67" fill="url(#g)"/></g></g><polygon points="18.36 16.05 18.35 18.67 24.01 21.44 24.01 22.31 17.63 19.2 17.64 17.82 15.09 19.71 17.61 24.08 17.62 22.7 18.32 23.04 23.99 25.81 24 23.18 28.23 30.51 23.95 33.68 23.96 31.05 18.29 28.29 18.3 27.42 24.67 30.53 24.67 31.91 27.23 30.02 24.7 25.64 24.69 27.02 18.32 23.92 18.3 26.54 14.08 19.22 18.36 16.05" fill="#2f3541"/><polygon points="24.01 21.44 24.01 22.31 17.63 19.2 17.64 17.82 15.09 19.71 17.61 24.08 17.62 22.7 18.32 23.04 23.99 25.81 24 23.18 24.01 21.44" fill="#fff3f8"/><g><polyline points="43.98 30.5 23.98 20.5 3.98 30.5 23.98 40.5 43.98 30.5 43.98 30.5" fill="#f2f6ff"/><polygon points="23.98 40.5 23.98 42.5 3.98 32.5 3.98 30.5 23.98 40.5" fill="#2f3541" opacity=".2"/><polygon points="23.98 40.5 23.98 42.5 43.98 32.5 43.98 30.5 23.98 40.5" fill="#2f3541"/></g><polygon points="44 30.6 35.45 34.88 23.96 33.76 28.13 31 27.16 27.78 33.82 27.85 40.18 28.69 44 30.6" fill="url(#a)"/><g><rect x="11.98" y="11" width="24" height="24" fill="none"/><g isolation="isolate"><polygon points="18.36 16.05 24.01 13.32 23.99 15.95 18.35 18.67 18.36 16.05" fill="url(#e)"/><polygon points="24 23.18 29.65 20.46 33.87 27.78 28.23 30.51 24 23.18" fill="url(#f)"/><polygon points="28.23 30.51 33.87 27.78 29.59 30.95 23.95 33.68 28.23 30.51" fill="#26f"/><polygon points="24.01 21.44 29.66 18.71 29.66 20.59 24.01 23.31 24.01 21.44" fill="#26f"/><polygon points="18.35 18.67 23.99 15.95 29.66 18.71 24.01 21.44 18.35 18.67" fill="url(#h)"/></g></g><polygon points="18.36 16.05 18.35 18.67 24.01 21.44 24.01 22.31 17.63 19.2 17.64 17.82 15.09 19.71 17.61 24.08 17.62 22.7 18.32 23.04 23.99 25.81 24 23.18 28.23 30.51 23.95 33.68 23.96 31.05 18.29 28.29 18.3 27.42 24.67 30.53 24.67 31.91 27.23 30.02 24.7 25.64 24.69 27.02 18.32 23.92 18.3 26.54 14.08 19.22 18.36 16.05" fill="#2f3541"/><polygon points="24.01 22.31 17.63 19.2 17.64 17.82 15.09 19.71 17.61 24.08 17.62 22.7 23.99 25.81 24.01 22.31" fill="#fff3f8"/><polygon points="18.32 23.92 18.3 27.42 24.67 30.53 24.67 31.91 27.23 30.02 24.7 25.64 24.69 27.02 18.32 23.92" fill="#fff3f8"/></svg>