<?xml version="1.0" encoding="UTF-8"?><svg id="c" xmlns="http://www.w3.org/2000/svg" xmlns:xlink="http://www.w3.org/1999/xlink" viewBox="0 0 48 48"><defs><linearGradient id="a" x1="24.44" y1="31.84" x2="41.14" y2="31.84" gradientTransform="matrix(1, 0, 0, 1, 0, 0)" gradientUnits="userSpaceOnUse"><stop offset="0" stop-color="#2f3541" stop-opacity=".4"/><stop offset="1" stop-color="#2f3541" stop-opacity="0"/></linearGradient><linearGradient id="d" x1="22.24" y1="16.53" x2="25.79" y2="20.99" gradientTransform="matrix(1, 0, 0, 1, 0, 0)" gradientUnits="userSpaceOnUse"><stop offset="0" stop-color="#26f"/><stop offset="1" stop-color="#f49"/></linearGradient><linearGradient id="e" x1="22.62" y1="16.69" x2="21.07" y2="13.11" xlink:href="#d"/><linearGradient id="f" x1="26.48" y1="21.97" x2="29.78" y2="28.88" xlink:href="#d"/><linearGradient id="g" x1="31.21" y1="29.83" x2="29.98" y2="27.32" xlink:href="#d"/><linearGradient id="h" x1="17.53" y1="23.72" x2="18.51" y2="25.91" gradientTransform="matrix(1, 0, 0, 1, 0, 0)" gradientUnits="userSpaceOnUse"><stop offset="0" stop-color="#26f"/><stop offset="1" stop-color="#f49"/></linearGradient><linearGradient id="i" x1="18.92" y1="23.95" x2="17.48" y2="20.53" xlink:href="#d"/><linearGradient id="j" x1="21.25" y1="27.62" x2="21.47" y2="27.91" xlink:href="#d"/><linearGradient id="k" x1="23.02" y1="26.95" x2="23.88" y2="28.5" xlink:href="#d"/><linearGradient id="l" x1="21.36" y1="17.04" x2="24.71" y2="20.91" xlink:href="#h"/><linearGradient id="m" x1="25.19" y1="31.72" x2="23.05" y2="27.61" xlink:href="#d"/><linearGradient id="n" x1="25.24" y1="21.92" x2="24.82" y2="20.21" xlink:href="#d"/><linearGradient id="o" x1="31.1" y1="20.03" x2="29.75" y2="16.64" xlink:href="#d"/><linearGradient id="p" x1="28.6" y1="25.85" x2="25.73" y2="19.99" xlink:href="#d"/><linearGradient id="q" x1="17.08" y1="20.76" x2="18.24" y2="22.83" xlink:href="#d"/></defs><g><polyline points="44 30.5 24 20.5 4 30.5 24 40.5 44 30.5 44 30.5" fill="#f2f6ff"/><polygon points="24 40.5 24 42.5 4 32.5 4 30.5 24 40.5" fill="#fff" opacity=".2"/><polygon points="24 40.5 24 42.5 44 32.5 44 30.5 24 40.5" fill="#2f3541"/></g><polygon points="21.5 32 34.38 35.31 44 30.5 39.73 28.37 27.27 29.26 21.5 32" fill="url(#a)"/><rect x="0" y="0" width="48" height="48" fill="none"/><rect x="13" y="10" width="24" height="24" fill="none"/><rect x="13" y="10" width="24" height="24" fill="none"/><g opacity=".8"><polygon points="19.73 18.04 25.37 15.31 26.4 17.08 20.75 19.81 19.73 18.04" fill="url(#d)"/></g><g opacity=".8"><path d="M17.65,14.76l5.65-2.73c.24-.12,.55-.11,.88,.05,.78,.38,1.41,1.48,1.41,2.45,0,.32-.08,.58-.21,.78l-5.65,2.73c.13-.2,.21-.46,.21-.78,0-.97-.63-2.07-1.41-2.45-.33-.16-.64-.17-.88-.05Z" fill="url(#e)"/></g><g opacity=".8"><polygon points="24.56 26.29 30.21 23.57 32.37 25.96 26.72 28.69 24.56 26.29" fill="url(#f)"/></g><g opacity=".8"><path d="M32.98,26.03c-.23-.11-.43-.12-.61-.07l-5.65,2.73c.17-.06,.38-.04,.61,.07,.59,.29,1.05,1.1,1.05,1.82,0,.42-.16,.72-.41,.84l5.65-2.73c.25-.12,.41-.42,.41-.84,0-.72-.46-1.54-1.05-1.82Z" fill="url(#g)"/></g><g opacity=".8"><path d="M17.03,23.86c.01,.1,.02,.21,.02,.31,0,.1-.01,.19-.03,.27,0,.03-.02,.05-.02,.08-.01,.05-.03,.1-.05,.15-.01,.03-.03,.05-.04,.07-.02,.04-.05,.08-.08,.11-.02,.02-.04,.04-.06,.06-.03,.03-.06,.05-.1,.07-.01,0-.02,.02-.04,.03l2.41-1.16h-2.02Z" fill="url(#h)"/></g><g opacity=".8"><path d="M15.63,22.26s.03,0,.05,0c.1,0,.21,.03,.32,.09,.24,.12,.46,.32,.63,.57l2.62-1.26c.11-.77,.43-1.33,.91-1.63l-.02-.03-4.8,2.32s.02,0,.02,0c.08-.04,.17-.05,.27-.05Z" fill="url(#i)"/></g><g opacity=".8"><path d="M20.9,27.84s.04,0,.05-.01c.08-.03,.16-.05,.24-.07,.03,0,.06,0,.1-.01,.11,0,.23,0,.36,.03v-.3l-.75,.36Z" fill="url(#j)"/></g><g opacity=".8"><path d="M24.17,26.84c-.46,.42-1.08,.56-1.8,.32v.97l2.06-1-.26-.29Z" fill="url(#k)"/></g><g opacity=".8"><path d="M22.05,20.04c.56,.27,1.08,.73,1.52,1.3l1.63-1.6c-.2-.45-.3-.92-.3-1.38,0-.22,.04-.42,.09-.6l-4.24,2.05c.39-.05,.83,0,1.3,.23Z" fill="url(#l)"/></g><g opacity=".8"><path d="M26.26,29.54c0-.13,.02-.23,.05-.33l-1.87-2.08-2.07,1c.81,.59,1.41,1.77,1.4,2.83,0,.16-.02,.31-.05,.45,0,.05-.03,.08-.04,.13-.02,.09-.05,.17-.09,.25-.02,.04-.04,.08-.07,.12-.04,.06-.08,.12-.13,.18-.03,.03-.06,.06-.09,.09-.05,.04-.1,.08-.16,.12-.02,.01-.04,.03-.06,.05l3.51-1.69c-.2-.34-.33-.74-.33-1.11Z" fill="url(#m)"/></g><g opacity=".8"><path d="M25.71,20.59l-1.6,1.57,2.14-1.03c-.19-.15-.38-.33-.54-.54Z" fill="url(#n)"/></g><g opacity=".8"><path d="M25.59,16.97l5.65-2.73c.3-.15,.68-.14,1.09,.06,.98,.48,1.77,1.85,1.76,3.05,0,.7-.27,1.19-.69,1.39l-5.65,2.73c.41-.2,.68-.69,.69-1.39,0-1.2-.78-2.57-1.76-3.05-.41-.2-.79-.21-1.09-.06Z" fill="url(#o)"/></g><g opacity=".8"><path d="M27.75,21.48c.41-.2,.68-.69,.69-1.39h0l-4.33,2.08c.47,.85,.76,1.83,.76,2.75,0,.55-.12,1.01-.3,1.38l5.65-2.73c.18-.37,.3-.83,.3-1.38,0-.62-.14-1.26-.36-1.87l-2.4,1.16Z" fill="url(#p)"/></g><g opacity=".8"><path d="M19.2,22.15c0-.18,.03-.33,.05-.49l-2.62,1.26h2.63c-.04-.26-.06-.52-.06-.77Z" fill="url(#q)"/></g><g><path d="M27.33,28.75c.59,.29,1.05,1.1,1.05,1.82s-.48,1.08-1.07,.8-1.06-1.11-1.06-1.83c0-.13,.02-.23,.05-.33l-2.13-2.37c-.46,.42-1.08,.56-1.8,.32v.97c.8,.59,1.4,1.77,1.4,2.83,0,1.2-.8,1.79-1.78,1.32-.98-.48-1.77-1.84-1.76-3.04,0-1.06,.62-1.65,1.43-1.45v-.97c-.96-.62-1.76-1.74-2.16-2.97h-2.46c.01,.12,.02,.22,.02,.33,0,.72-.48,1.08-1.07,.8s-1.06-1.11-1.06-1.83,.49-1.07,1.07-.79c.24,.12,.46,.32,.63,.57h2.63c-.04-.26-.06-.52-.06-.77,0-1.03,.38-1.76,.96-2.13l-.93-1.61c-.21,.05-.45,.03-.72-.1-.78-.38-1.42-1.48-1.41-2.44s.65-1.44,1.43-1.06,1.41,1.48,1.41,2.45c0,.32-.08,.58-.21,.78l1.03,1.77c.39-.05,.83,0,1.3,.23,.56,.27,1.08,.73,1.52,1.3l1.63-1.6c-.2-.45-.3-.92-.3-1.38,0-1.2,.8-1.8,1.78-1.33s1.77,1.85,1.76,3.05-.8,1.8-1.78,1.32c-.35-.17-.67-.46-.95-.82l-1.6,1.57c.47,.85,.76,1.83,.76,2.75,0,.55-.12,1.01-.3,1.38l2.16,2.39c.17-.06,.38-.04,.61,.07Z" fill="#2f3541"/><path d="M22.01,26.16c1.17,.57,2.14-.14,2.14-1.59s-.94-3.09-2.11-3.66c-1.17-.57-2.13,.15-2.14,1.59s.94,3.09,2.11,3.66" fill="#fff3f8"/><path d="M26.67,17.91c-.58-.28-1.06,.07-1.07,.8s.47,1.55,1.05,1.83,1.07-.07,1.07-.8-.47-1.55-1.06-1.83" fill="#fff3f8"/><path d="M23.06,30.61c0-.72-.47-1.55-1.06-1.83s-1.06,.07-1.07,.8,.46,1.54,1.05,1.82,1.07-.06,1.07-.79" fill="#fff3f8"/><path d="M18.51,17.44c.39,.19,.71-.05,.71-.53s-.31-1.03-.7-1.22-.71,.04-.71,.53,.31,1.03,.7,1.22" fill="#fff3f8"/><path d="M15.99,24.1c.19,.09,.35-.03,.35-.27s-.16-.51-.35-.6-.36,.02-.36,.26,.16,.52,.35,.61" fill="#fff3f8"/><path d="M27.32,30.5c.19,.09,.35-.03,.35-.27s-.16-.51-.35-.6-.36,.02-.36,.26,.16,.52,.35,.61" fill="#fff3f8"/></g></svg>