<?xml version="1.0" encoding="UTF-8"?><svg id="a" xmlns="http://www.w3.org/2000/svg" viewBox="0 0 24 24"><rect y="0" width="24" height="24" fill="none"/><g><circle cx="18" cy="10" r="1" fill="#fff"/><circle cx="16" cy="8" r="1" fill="#fff"/><circle cx="14" cy="10" r="1" fill="#fff"/><circle cx="16" cy="12" r="1" fill="#fff"/><polygon points="10 9.5 8 9.5 8 7.5 7 7.5 7 9.5 5 9.5 5 10.5 7 10.5 7 12.5 8 12.5 8 10.5 10 10.5 10 9.5" fill="#fff"/><path d="M17.38,5c.39,0,.77,.05,1.16,.14,1.74,.44,3.55,5.25,3.46,9.18-.05,2.05-.6,3.38-1.47,3.56-.36,.07-.69,.11-.98,.11-.97,0-1.32-.39-2.01-1.28-.89-1.15-2.11-2.72-5.54-2.72s-4.65,1.57-5.54,2.72c-.69,.89-1.04,1.28-2.01,1.28-.28,0-.61-.04-.98-.11-.87-.18-1.42-1.51-1.47-3.56-.09-3.94,1.71-8.74,3.46-9.18,.39-.1,.76-.14,1.16-.14,.97,0,1.88,.3,2.76,.59,.85,.28,1.72,.57,2.63,.57s1.78-.29,2.63-.57c.88-.29,1.78-.59,2.76-.59m0-1c-2.12,0-3.78,1.15-5.38,1.15s-3.26-1.15-5.38-1.15c-.45,0-.91,.05-1.4,.18-3.88,.98-6.19,13.83-1.94,14.69,.44,.09,.83,.13,1.17,.13,3.38,0,2.27-4,7.55-4s4.17,4,7.55,4c.34,0,.73-.04,1.17-.13,4.25-.86,1.94-13.71-1.94-14.69-.49-.12-.96-.18-1.4-.18h0Z" fill="#fff"/></g></svg>