<?xml version="1.0" encoding="UTF-8"?><svg id="a" xmlns="http://www.w3.org/2000/svg" viewBox="0 0 24 24"><rect id="c" y="0" width="24" height="24" fill="none"/><g><path d="M9.21,11c-1.03-.83-1.71-2.08-1.71-3.5,0-2.48,2.02-4.5,4.5-4.5s4.5,2.02,4.5,4.5c0,1.42-.67,2.67-1.71,3.5h1.45c.79-.95,1.26-2.17,1.26-3.5,0-3.03-2.47-5.5-5.5-5.5s-5.5,2.47-5.5,5.5c0,1.33,.47,2.55,1.26,3.5h1.45Z" fill="#2f3541"/><circle cx="13.5" cy="10" r=".5" fill="#2f3541"/><path d="M14.5,6h-2.99l-.25-1.5h-1.76v1h.91l.58,3.5h3.01l.5-3Zm-1.35,2h-1.31l-.17-1h1.64l-.17,1Z" fill="#2f3541"/><circle cx="11.5" cy="10" r=".5" fill="#2f3541"/><path d="M2,12v9H22V12H2Zm3,6v-2h2v4h-2v-1l1-.5v-1l-1,.5Zm6,0v-2h2v4h-2v-1l1-.5v-1l-1,.5Zm6,0v-2h2v4h-2v-1l1-.5v-1l-1,.5Zm4,2h-1v-5h-4v5h-2v-5h-4v5h-2v-5H4v5h-1v-7H21v7Z" fill="#2f3541"/></g></svg>