<?xml version="1.0" encoding="UTF-8"?><svg id="a" xmlns="http://www.w3.org/2000/svg" viewBox="0 0 24 24"><rect y="0" width="24" height="24" fill="none"/><path d="M14,4.56l1.19,2.8,.24,.55,.6,.05,3.04,.26-2.31,2-.46,.4,.14,.59,.69,2.96-2.61-1.57-.52-.31-.52,.31-2.61,1.58,.69-2.97,.14-.59-.45-.39-2.3-2,3.04-.26,.6-.05,.24-.55,1.19-2.8m0-2.56l-2.11,4.96-5.39,.47,4.09,3.55-1.22,5.27,4.63-2.8,4.63,2.8-1.23-5.27,4.1-3.55-5.39-.47-2.11-4.96h0ZM6,14.56l.02,.04h.04l-.03,.03v.04l-.02-.02-.04,.02v-.04l-.02-.03h.04l.02-.04m0-2.56l-.7,1.65-1.8,.15,1.36,1.18-.41,1.76,1.55-.93,1.54,.93-.41-1.76,1.37-1.18-1.8-.15-.7-1.65h0Zm3,6l-.35,.87-.9,.08,.68,.62-.2,.93,.77-.49,.77,.49-.2-.93,.68-.62-.9-.08-.35-.87h0ZM20,3l-.35,.87-.9,.08,.68,.62-.2,.93,.77-.49,.77,.49-.2-.93,.68-.62-.9-.08-.35-.87h0ZM6,20l-.35,.87-.9,.08,.68,.62-.2,.93,.77-.49,.77,.49-.2-.93,.68-.62-.9-.08-.35-.87h0Z" fill="#2f3541"/></svg>