<?xml version="1.0" encoding="UTF-8"?><svg id="a" xmlns="http://www.w3.org/2000/svg" viewBox="0 0 24 24"><g><path d="M4,14v8h5l2-2V12H6l-2,2Zm4,7h-3v-6h3v6Zm2-1.41l-1,1v-5.88l1-1v5.88Zm-.71-6.59l-1,1h-2.88l1-1h2.88Z" fill="#2f3541"/><path d="M16,12l-2,2v8h5l2-2V12h-5Zm2,9h-3v-6h3v6Zm.29-7h-2.88l1-1h2.88l-1,1Zm1.71,5.59l-1,1v-5.88l1-1v5.88Z" fill="#2f3541"/><path d="M13,3c2.21,0,4,1.79,4,4h-2.5l3,3,3-3h-2.5c0-2.76-2.24-5-5-5s-5,2.24-5,5h-2.5l3,3,3-3h-2.5c0-2.21,1.79-4,4-4Z" fill="#2f3541"/></g><rect y="0" width="24" height="24" fill="none"/></svg>