<?xml version="1.0" encoding="UTF-8"?><svg id="c" xmlns="http://www.w3.org/2000/svg" xmlns:xlink="http://www.w3.org/1999/xlink" viewBox="0 0 48 48"><defs><linearGradient id="a" x1="24.14" y1="31.25" x2="41.1" y2="31.25" gradientTransform="matrix(1, 0, 0, 1, 0, 0)" gradientUnits="userSpaceOnUse"><stop offset="0" stop-color="#2f3541" stop-opacity=".4"/><stop offset="1" stop-color="#2f3541" stop-opacity="0"/></linearGradient><linearGradient id="e" x1="31.19" y1="28.71" x2="20.11" y2="17.62" gradientTransform="matrix(1, 0, 0, 1, 0, 0)" gradientUnits="userSpaceOnUse"><stop offset="0" stop-color="#26f"/><stop offset="1" stop-color="#00d2b2"/></linearGradient><clipPath id="f"><path d="M21.95,19.74c.1-.09,.22-.16,.34-.22" fill="url(#e)"/></clipPath><linearGradient id="g" x1="35.38" y1="24.52" x2="24.29" y2="13.44" xlink:href="#e"/><linearGradient id="h" x1="32.53" y1="26.8" x2="21.67" y2="15.94" xlink:href="#e"/><linearGradient id="i" x1="29.52" y1="31.04" x2="15.27" y2="16.79" xlink:href="#e"/><linearGradient id="j" x1="32.8" y1="27.44" x2="22.24" y2="14.43" xlink:href="#e"/></defs><g><polyline points="44 30.5 24 20.5 4 30.5 24 40.5 44 30.5 44 30.5" fill="#f2f6ff"/><polygon points="24 40.5 24 42.5 4 32.5 4 30.5 24 40.5" fill="#fff" opacity=".2"/><polygon points="24 40.5 24 42.5 44 32.5 44 30.5 24 40.5" fill="#2f3541"/></g><polygon points="44 30.5 35.45 34.77 21.16 31.27 21.42 31.22 22.9 30.5 23.57 30.52 29.32 27.73 40.18 28.59 44 30.5" fill="url(#a)"/><g><path d="M22.22,22.01l-1.34,1c-.2,.15-.48,.14-.75,0-.28-.13-.55-.39-.75-.74-.41-.71-.41-1.55,.01-1.86l1.3-.96c-.52-1.17-1.38-2.16-2.3-2.6-1.57-.76-2.84,.19-2.86,2.12,0,1.13,.43,2.41,1.16,3.41l.78-.58c.21-.15,.47-.15,.74-.02s.53,.39,.74,.74c.25,.43,.33,.89,.27,1.26l.17,.03c.27,.13,.53,.39,.74,.75,.24,.42,.32,.87,.27,1.25l.17,.04c.27,.13,.53,.39,.74,.74,.25,.43,.32,.88,.27,1.25l.17,.04c.27,.13,.53,.39,.74,.74,.16,.29,.25,.59,.28,.87,0,.01,.05,.05,.11,.08,.08,.04,.19,.07,.27,0,.08-.05,.16-.17,.17-.29,0-.12-.03-.24-.09-.35l-1.58-2.75c-.14-.24-.14-.52,0-.62,.07-.05,.16-.05,.25,0s.18,.13,.25,.25l1.59,2.76c.06,.11,.15,.19,.23,.23,.1,.05,.21,.05,.29,0,.08-.06,.12-.16,.12-.3,0-.11-.02-.23-.09-.34l-1.59-2.76c-.14-.23-.14-.52,0-.61,.07-.05,.16-.05,.25,0,.09,.04,.18,.13,.25,.25l1.58,2.74c.07,.12,.16,.2,.24,.24,.1,.05,.2,.05,.27,0,.08-.05,.12-.15,.12-.27,0-.11-.03-.24-.09-.35l-3.1-5.37Z" fill="#fff3f8"/><path d="M24.04,19.62c-.79-.39-1.54-.33-2.09,.12l-2.07,1.55c-.13,.1-.14,.38,0,.61,.07,.12,.16,.21,.25,.25,.09,.04,.18,.05,.25,0l1.6-1.18c.07-.05,.16-.05,.25,0s.18,.13,.25,.25l3.2,5.54c.74-.3,1.18-1.13,1.19-2.25,.01-1.93-1.25-4.12-2.82-4.89Z" fill="#fff3f8"/><path d="M19.71,25.29c0-.07,0-.19-.09-.35-.09-.15-.18-.21-.24-.24-.05-.02-.15-.06-.24,0l-.94,.7c-.09,.07-.1,.18-.1,.25,0,.06,.01,.2,.1,.34,.09,.15,.18,.22,.24,.24,.06,.03,.15,.06,.24,0l.94-.7c.09-.06,.1-.18,.1-.24Z" fill="#fff3f8"/><path d="M20.89,27.32c0-.06-.01-.2-.1-.35-.08-.14-.18-.21-.24-.23-.06-.03-.15-.06-.24,0l-.94,.7c-.13,.1-.14,.37,0,.59,.09,.15,.18,.22,.24,.24,.05,.02,.15,.06,.24-.01l.94-.7c.09-.06,.1-.18,.1-.24Z" fill="#fff3f8"/><path d="M21.72,28.77c-.05-.02-.15-.06-.24,0l-.94,.69c-.13,.1-.13,.37,0,.59,.09,.15,.19,.22,.24,.24,.05,.02,.15,.06,.24-.01l.94-.7c.09-.06,.1-.18,.1-.24,0-.06-.01-.2-.1-.34-.08-.15-.18-.22-.24-.24Z" fill="#fff3f8"/><path d="M18.54,23.25c0-.06-.01-.2-.09-.34-.09-.15-.19-.22-.24-.24-.05-.02-.15-.06-.24,.01l-.94,.7c-.13,.1-.14,.36,0,.59,.08,.14,.18,.21,.24,.23,.06,.03,.15,.06,.24,0l.94-.7c.08-.07,.1-.18,.1-.25Z" fill="#fff3f8"/></g><rect width="48" height="48" fill="none"/><g isolation="isolate"><path d="M21.95,19.74c.1-.09,.22-.16,.34-.22" fill="url(#e)"/><g clip-path="url(#f)"><g isolation="isolate"><path d="M21.95,19.74c.1-.09,.22-.16,.34-.22" fill="url(#e)"/><path d="M27.93,16.8c-.12,.06-.23,.13-.34,.22" fill="url(#g)"/></g></g></g><path d="M19.19,16.5l.02,.02c.12,.1,.24,.2,.36,.31l.04,.03c.11,.11,.22,.22,.33,.34l.04,.04c.11,.12,.21,.24,.31,.37l.05,.06c.09,.12,.19,.25,.27,.39,.22,.33,.42,.68,.59,1.05,0,0,.17-.26,.65-.5l4.92-2.37c-.04-.08-.08-.17-.12-.24h0c-.12-.23-.25-.44-.39-.66v-.02c-.08-.1-.15-.2-.22-.3-.02-.02-.04-.05-.05-.07l-.05-.06s-.06-.07-.08-.11c-.06-.07-.12-.15-.18-.22-.01-.02-.03-.03-.04-.05l-.04-.05s-.06-.07-.1-.11c-.06-.06-.12-.12-.18-.18-.02-.02-.04-.04-.06-.05l-.04-.04s-.05-.05-.08-.07c-.05-.05-.11-.1-.17-.14-.04-.03-.08-.06-.12-.09l-.02-.02-.02-.02c-.05-.04-.1-.08-.15-.11-.05-.04-.1-.07-.15-.1-.02-.01-.04-.03-.06-.04l-.03-.02s-.04-.03-.06-.04c-.05-.03-.09-.06-.14-.08-.05-.03-.09-.05-.14-.07l-.06-.03s-.05-.03-.08-.04c-.05-.02-.1-.04-.15-.06-.05-.02-.1-.04-.15-.06-.05-.02-.1-.03-.15-.05-.03,0-.05-.01-.08-.02h-.02s-.04-.02-.06-.02c-.05-.01-.1-.02-.15-.03-.05-.01-.11-.02-.16-.03-.05,0-.11-.01-.16-.02h-.05s-.09,0-.13,0c-.06,0-.13,0-.19,.01-.06,0-.13,.02-.19,.03h-.03c-.09,.02-.18,.05-.27,.08-.07,.02-.14,.05-.2,.08l-5.65,2.73c.15-.07,.31-.13,.48-.16h.01c.16-.03,.33-.04,.51-.04h.02c.18,.01,.37,.04,.56,.09h.02c.19,.06,.39,.13,.6,.23,.13,.07,.27,.14,.4,.23l.02,.02c.13,.08,.26,.18,.38,.27Z" fill="url(#h)" opacity=".8"/><path d="M31.75,25.32h0s0-.05,0-.07c0-.02,0-.04,0-.06,0-.02,0-.04,0-.06v-.06s-.02-.04-.02-.06v-.05l-5.66,2.73c.03,.12,.04,.25,.04,.37h0c0,.12,0,.23-.03,.34h0s-.02,.04-.02,.06l-.98,.48c0,.07-.03,.12-.04,.18l-2.44,1.18c-.05,.06-.08,.14-.14,.19l-.94,.7s-.06,.04-.09,.06l2.52-1.21s-.01,.11-.03,.15h0c-.06,.13-.13,.23-.23,.31-.03,.02-.06,.04-.1,.06l5.65-2.73s.06-.03,.1-.06c.06-.04,.11-.1,.15-.16,.02-.03,.04-.05,.05-.08,.01-.02,.02-.05,.03-.07h0s.02-.04,.02-.06v-.03l.7-.33s.07-.04,.11-.07c.06-.04,.11-.1,.16-.16,.02-.03,.03-.05,.05-.08,0-.02,.02-.04,.03-.06h0s.02-.05,.03-.08h0l.69-.34s.07-.04,.1-.06c.05-.04,.1-.09,.14-.15,.01-.02,.03-.04,.04-.06h0s.02-.06,.03-.08c0-.02,.02-.04,.02-.06,0-.02,.01-.04,.02-.06,0-.02,.01-.04,.01-.06v-.04h0v-.02s0-.04,.01-.05c0-.02,0-.04,0-.05v-.21Z" fill="url(#i)" opacity=".8"/><path d="M33.21,22.12h0c0-.07,0-.13,0-.19,0-.06,0-.12,0-.18,0-.06,0-.13-.01-.19,0-.06-.01-.13-.02-.19,0-.05-.01-.1-.02-.15h0v-.04c-.01-.07-.03-.13-.04-.2-.01-.07-.03-.14-.04-.2-.01-.07-.03-.14-.05-.21-.02-.07-.04-.14-.06-.21l-.02-.06v-.02s-.03-.09-.05-.13c-.02-.07-.05-.14-.07-.21-.03-.08-.05-.15-.08-.23-.03-.08-.06-.16-.1-.24,0-.02-.02-.04-.03-.06l-.02-.04c-.03-.06-.05-.13-.08-.19h0c-.03-.07-.07-.13-.11-.19-.13-.25-.26-.5-.41-.73-.04-.06-.06-.12-.1-.17h0c-.07-.1-.14-.2-.21-.3l-.03-.03-.02-.03c-.05-.06-.09-.12-.14-.18-.06-.07-.12-.14-.18-.21-.06-.07-.11-.13-.17-.19-.03-.03-.06-.06-.09-.09l-.02-.02s-.04-.04-.06-.06c-.06-.05-.11-.11-.17-.16-.05-.05-.11-.1-.16-.14-.05-.04-.11-.09-.16-.13-.03-.02-.06-.05-.09-.07h-.02s-.03-.03-.05-.05c-.05-.04-.1-.07-.15-.11-.05-.03-.1-.06-.15-.1-.05-.03-.1-.06-.15-.09-.05-.03-.1-.05-.15-.08l-.07-.03s-.05-.03-.08-.04c-.05-.02-.1-.04-.14-.06-.05-.02-.1-.04-.14-.06-.05-.02-.1-.03-.15-.05-.02,0-.05-.01-.07-.02h-.02s-.04-.02-.06-.02c-.05-.01-.1-.02-.15-.03-.05-.01-.11-.02-.16-.03-.06,0-.11-.01-.17-.02h-.03s-.1,0-.14,0c-.06,0-.13,0-.19,0-.06,0-.12,.02-.18,.03h-.03c-.09,.02-.18,.05-.26,.08-.07,.02-.14,.05-.21,.09h0l-5.65,2.73h0c.15-.07,.32-.13,.49-.16h.02c.17-.03,.34-.04,.52-.03h.01c.18,.01,.37,.04,.56,.09h.02c.19,.06,.39,.13,.58,.23,.24,.12,.48,.26,.71,.43h.01c.22,.18,.44,.37,.64,.57l.02,.02c.2,.21,.4,.43,.58,.67l.02,.03c.12,.16,.22,.33,.33,.5,.15,.23,.28,.48,.41,.73,.06,.13,.14,.25,.19,.38l.02,.04c.12,.29,.23,.58,.31,.87v.02c.09,.3,.16,.6,.21,.9h0c.04,.32,.07,.62,.07,.92h0c0,.34-.04,.65-.1,.94v.02c-.06,.28-.15,.54-.27,.77v.03c-.11,.19-.23,.35-.37,.5-.04,.05-.08,.1-.13,.14-.16,.15-.32,.28-.52,.38l5.65-2.73c.19-.09,.36-.23,.52-.38,.05-.04,.09-.09,.13-.14,.05-.06,.11-.11,.16-.18,.06-.08,.11-.16,.15-.25,.01-.02,.02-.05,.04-.07l.02-.03s.04-.07,.05-.11c.03-.06,.05-.13,.08-.2,.02-.06,.04-.12,.06-.19,.02-.06,.03-.12,.05-.18,0-.03,.01-.06,.02-.09v-.02s.01-.05,.02-.07c.01-.06,.02-.12,.03-.17,0-.06,.02-.11,.02-.17,0-.06,.01-.12,.02-.17,0-.06,0-.12,0-.18,0-.06,0-.11,0-.17h0Z" fill="url(#j)" opacity=".8"/><path d="M27.57,24.85c0,1.42-.57,2.45-1.5,2.82,.11,.5,.03,.98-.27,1.2-.21,.15-.46,.15-.72,.04-.02,.33-.14,.59-.34,.74-.21,.16-.47,.16-.74,.05-.01,.33-.13,.6-.33,.75-.22,.16-.51,.16-.8,.02-.1-.05-.18-.13-.28-.21-.05,.06-.08,.14-.14,.19l-.94,.7c-.21,.15-.47,.15-.74,.02s-.53-.39-.74-.74c-.25-.43-.32-.88-.27-1.25l-.17-.04c-.27-.13-.53-.39-.74-.74-.25-.43-.33-.89-.27-1.25l-.17-.04c-.27-.13-.53-.38-.74-.74-.24-.43-.32-.88-.27-1.26l-.17-.03c-.27-.13-.53-.39-.74-.74-.28-.5-.36-1.05-.24-1.44-.91-1.26-1.47-2.85-1.46-4.27,.01-2.41,1.61-3.6,3.57-2.65,1.11,.54,2.16,1.73,2.82,3.14l.15-.16c.67-.63,1.66-.71,2.69-.21,1.96,.95,3.53,3.7,3.52,6.1Zm-2.16,2.89c0-.11-.03-.24-.09-.35l-3.1-5.37-1.34,1c-.2,.15-.48,.14-.75,0s-.55-.39-.75-.74c-.41-.71-.41-1.55,.01-1.86l1.3-.96c-.52-1.17-1.38-2.16-2.3-2.6-1.57-.76-2.85,.19-2.86,2.12,0,1.13,.43,2.41,1.16,3.41l.78-.58c.21-.15,.47-.15,.74-.02s.53,.39,.74,.74c.25,.43,.33,.89,.27,1.26l.17,.03c.27,.13,.53,.39,.74,.75,.24,.42,.32,.87,.27,1.25l.17,.04c.27,.13,.53,.39,.74,.74,.25,.43,.32,.88,.27,1.25l.17,.04c.27,.13,.53,.39,.74,.74,.16,.29,.25,.59,.28,.87,0,.01,.05,.05,.11,.08,.08,.04,.19,.07,.27,0,.08-.05,.16-.17,.17-.29,0-.12-.03-.24-.09-.35l-1.58-2.75c-.14-.24-.14-.52,0-.62,.07-.05,.16-.05,.25,0s.18,.13,.25,.25l1.59,2.76c.06,.11,.15,.19,.23,.23,.1,.05,.21,.05,.29,0,.08-.06,.12-.16,.12-.3,0-.11-.02-.23-.09-.34l-1.59-2.76c-.14-.23-.14-.52,0-.61,.07-.05,.16-.05,.25,0s.18,.13,.25,.25l1.58,2.74c.07,.12,.16,.2,.24,.24,.1,.05,.2,.05,.27,0,.08-.05,.12-.15,.12-.27m.26-.98c.74-.3,1.18-1.13,1.19-2.25,.01-1.93-1.25-4.12-2.82-4.89-.79-.39-1.54-.33-2.09,.12l-2.07,1.55c-.13,.1-.14,.38,0,.61,.07,.12,.16,.21,.25,.25s.18,.05,.25,0l1.6-1.18c.07-.05,.16-.05,.25,0s.18,.13,.25,.25l3.2,5.54m-7-.53l.94-.7c.09-.06,.1-.18,.1-.24,0-.07,0-.19-.09-.35-.09-.15-.18-.21-.24-.24-.05-.02-.15-.06-.24,0l-.94,.7c-.09,.07-.1,.18-.1,.25,0,.06,.01,.2,.1,.34,.09,.15,.18,.22,.24,.24,.06,.03,.15,.06,.24,0m1.17,2.03l.94-.7c.09-.06,.1-.18,.1-.24s-.01-.2-.1-.35c-.08-.14-.18-.21-.24-.23-.06-.03-.15-.06-.24,0l-.94,.7c-.13,.1-.14,.37,0,.59,.09,.15,.18,.22,.24,.24,.05,.02,.15,.06,.24-.01m2.11,1.33c.09-.06,.1-.18,.1-.24s-.01-.2-.1-.34c-.08-.15-.18-.22-.24-.24s-.15-.06-.24,0l-.94,.69c-.13,.1-.13,.37,0,.59,.09,.15,.19,.22,.24,.24s.15,.06,.24-.01l.94-.7m-4.46-5.39l.94-.7c.08-.07,.1-.18,.1-.25,0-.06-.01-.2-.09-.34-.09-.15-.19-.22-.24-.24s-.15-.06-.24,.01l-.94,.7c-.13,.1-.14,.36,0,.59,.08,.14,.18,.21,.24,.23,.06,.03,.15,.06,.24,0" fill="#2f3541"/><rect width="48" height="48" fill="none"/></svg>