<svg version="1.1" id="Layer_1" xmlns="http://www.w3.org/2000/svg" xmlns:xlink="http://www.w3.org/1999/xlink" x="0px"
	y="0px" width="100%" viewBox="0 0 1024 1024" enable-background="new 0 0 1024 1024" xml:space="preserve">
	<path fill="#ffffff" opacity="1.000000" stroke="none" d="
M850.033752,581.976013 
	C842.360901,591.275146 834.039307,599.477722 825.206055,607.082214 
	C810.479675,619.760132 792.762573,624.973999 773.721008,626.192688 
	C770.606079,626.392029 768.768555,627.362305 767.742798,630.280273 
	C764.972473,638.160889 761.249817,645.620605 757.139282,652.864380 
	C755.525269,655.708679 755.575195,657.914062 757.437744,660.613037 
	C767.848328,675.698853 777.909363,691.007629 786.545288,707.210754 
	C790.544434,714.714233 794.027466,722.450378 797.620483,730.146912 
	C801.310669,738.051636 799.908630,744.791809 794.698853,751.427002 
	C779.436035,770.865601 762.665955,788.932434 744.682312,805.826721 
	C698.719788,849.004944 647.516602,884.732971 590.933777,912.638611 
	C573.291809,921.339417 554.892029,928.208679 536.305664,934.653076 
	C528.934143,937.208984 522.333130,936.803650 515.042786,934.445190 
	C464.969788,918.246277 419.276459,893.457336 376.206940,863.664551 
	C331.284668,832.590027 291.375885,796.001465 256.878113,753.525391 
	C250.562286,745.748962 249.082672,738.481323 253.075699,729.247986 
	C262.649475,707.109924 274.705750,686.388000 288.775024,666.927246 
	C294.030823,659.657532 294.983337,653.984253 289.787262,646.528137 
	C286.412262,641.685181 284.525787,635.795471 282.050446,630.339355 
	C281.039764,628.111572 280.000214,626.304260 277.062225,626.281006 
	C248.116562,626.052429 226.106873,612.314270 207.713013,591.068665 
	C199.039230,581.050049 190.294708,571.234009 187.425095,557.803772 
	C186.596725,553.927002 185.973206,549.922485 185.947266,545.971924 
	C185.789734,521.975342 186.360809,497.961792 185.649246,473.984741 
	C185.020981,452.815033 191.179062,434.799744 205.959198,419.536346 
	C212.551865,412.728088 218.382370,405.185791 224.635208,398.043579 
	C234.076431,387.259491 246.011658,380.568634 259.932373,377.719299 
	C265.411041,376.597931 267.239471,374.208344 267.087433,368.664703 
	C266.809296,358.522552 266.822021,348.370850 267.521851,338.200928 
	C269.515442,309.229218 277.037354,281.786316 290.372375,256.102997 
	C314.712280,209.224243 351.632812,175.254166 398.888275,152.194321 
	C424.795074,139.552277 451.993103,130.942902 480.514893,126.823395 
	C503.275970,123.535934 526.126282,122.768326 549.141235,124.496101 
	C593.281738,127.809807 634.486633,140.578339 672.098022,163.571182 
	C719.985779,192.846237 755.034363,233.237915 772.779480,287.231873 
	C778.972290,306.075256 782.816284,325.470490 782.417419,345.507690 
	C782.241882,354.324799 782.502808,363.149902 782.425232,371.970123 
	C782.401550,374.665344 782.917358,376.191620 786.045654,376.729034 
	C801.144653,379.323090 814.243408,385.950409 824.183228,397.743683 
	C834.053589,409.454437 845.375671,419.921448 854.023743,432.675720 
	C861.073914,443.073303 864.194824,454.663239 864.254517,467.076538 
	C864.369019,490.906982 863.888611,514.747131 864.419434,538.566284 
	C864.781860,554.829529 860.221191,569.040588 850.033752,581.976013 
M686.252625,685.748596 
	C696.590027,675.295837 706.007751,664.081299 713.985229,651.717957 
	C729.922424,627.018555 739.705688,600.340454 739.782593,570.581909 
	C739.824829,554.252075 739.960815,537.922302 739.964844,521.592529 
	C739.975647,477.600311 739.886230,433.607941 739.998840,389.616058 
	C740.010315,385.128876 738.552063,382.477417 734.350586,380.845947 
	C729.550598,378.982117 724.975891,376.547394 720.243408,374.498962 
	C692.322021,362.413513 663.101746,354.681854 633.446899,348.256531 
	C606.565796,342.432220 579.373413,338.744385 551.979797,337.569733 
	C509.491974,335.747803 467.205566,338.188507 425.306091,346.306793 
	C386.934692,353.741455 349.655853,364.438446 314.064392,380.772278 
	C310.524139,382.396942 309.091614,384.334778 309.100433,388.270966 
	C309.234406,447.926971 309.118988,507.583679 309.322021,567.239319 
	C309.401978,590.735962 315.192932,613.043213 325.535767,634.078308 
	C345.858673,675.410645 378.323425,704.878357 418.300507,726.236755 
	C457.709229,747.291443 500.006989,755.553467 544.680908,751.906616 
	C572.080994,749.669800 597.959778,742.373779 622.662354,730.564514 
	C646.167542,719.327698 667.185181,704.528931 686.252625,685.748596 
M455.240997,187.635605 
	C491.817902,169.472992 530.647400,165.740067 571.470093,168.620087 
	C565.315308,176.238831 564.844482,179.113174 569.543030,182.723450 
	C573.818542,186.008621 573.484924,188.982727 570.685425,192.872986 
	C568.559570,195.827057 566.164062,198.185059 562.601257,199.145401 
	C554.633301,201.293091 547.785156,205.931351 540.331482,209.225800 
	C537.608765,210.429214 534.840881,212.171173 533.604553,215.491425 
	C536.340942,217.618301 539.454651,217.509872 542.337158,217.582291 
	C553.163330,217.854294 563.997375,217.793015 574.826050,217.989258 
	C603.989319,218.517776 624.116394,238.571503 623.372070,267.963593 
	C623.051575,280.619690 623.292175,293.290924 623.339355,305.955017 
	C623.362549,312.191376 624.595764,313.549286 630.537720,314.687500 
	C638.210876,316.157318 645.861328,317.744873 653.534058,319.216766 
	C664.337158,321.289215 674.844604,324.536011 685.510132,327.151001 
	C691.110413,328.524078 694.531921,326.008881 694.352844,320.994568 
	C693.472595,296.346100 689.088928,272.415955 679.479126,249.593948 
	C664.392029,213.764099 639.070435,188.113800 602.975281,173.442215 
	C572.536499,161.069748 540.900208,156.578964 508.119537,159.204865 
	C480.563263,161.412292 453.781189,166.705917 428.181305,177.325104 
	C377.688446,198.270294 338.976044,231.733780 316.561859,282.503693 
	C308.230438,301.375031 304.712982,321.222321 304.395569,341.719421 
	C304.309845,347.256256 305.682617,348.123718 310.602203,346.136017 
	C317.087799,343.515625 323.505432,340.704163 330.088684,338.357483 
	C333.710205,337.066559 335.118713,334.985016 334.666870,331.280548 
	C333.654114,322.977173 333.958130,314.681519 334.628967,306.353058 
	C336.023224,289.043213 342.000732,273.696198 353.434998,260.541748 
	C363.694397,248.738983 376.230103,239.587784 388.889771,230.688782 
	C410.264679,215.663498 431.117035,199.800171 455.240997,187.635605 
M589.580566,876.026733 
	C596.319519,872.385925 603.010315,868.651550 609.820190,865.148438 
	C612.699158,863.667419 613.811646,861.709229 613.799866,858.438660 
	C613.726440,838.113281 613.847717,817.787109 613.875488,797.461243 
	C613.877930,795.693115 614.378113,793.502258 612.127686,792.728760 
	C610.178284,792.058655 609.168274,793.916931 608.053772,795.040955 
	C597.123108,806.064758 585.737244,816.507568 572.296082,824.501770 
	C551.551086,836.839966 529.568176,841.716553 505.749146,835.841003 
	C486.115479,830.997925 469.942444,820.119385 455.257294,806.697815 
	C449.792084,801.702942 444.627563,796.393188 439.317993,790.954651 
	C440.057678,796.975952 437.236725,802.259644 437.124512,807.871277 
	C436.804962,823.853577 436.797211,839.844910 436.247070,855.818176 
	C436.076263,860.778015 437.985962,863.493408 442.145355,865.594849 
	C451.329498,870.234863 460.823853,874.405029 469.846588,879.117859 
	C482.157745,885.548340 494.716827,891.071289 507.654114,895.806946 
	C514.719116,898.392944 521.966431,902.888062 529.710754,900.515625 
	C545.492859,895.680786 561.730957,891.626221 575.073792,881.002136 
	C575.554077,880.619751 576.287170,880.214478 576.826294,880.300049 
	C581.546082,881.048340 585.018677,878.054016 589.580566,876.026733 
M304.510254,703.956116 
	C298.717590,713.312012 293.591064,723.034912 288.483459,732.773926 
	C286.714142,736.147705 286.722595,738.840088 289.479065,741.759949 
	C294.500519,747.079102 299.272003,752.636658 304.086212,758.148438 
	C311.180298,766.270447 319.089630,773.552551 327.524872,781.731628 
	C329.741028,770.281921 331.814178,759.740723 333.814697,749.185791 
	C335.681732,739.335144 335.651489,739.417236 345.655060,738.999329 
	C357.669739,738.497437 356.807709,738.133118 354.401306,749.509094 
	C353.495667,753.790466 354.364014,759.369263 346.120392,758.337341 
	C350.369629,765.112488 348.319427,771.392883 347.274261,777.652161 
	C346.453552,782.567322 345.469299,787.455078 344.620148,792.365845 
	C344.251770,794.496521 343.846558,796.643616 345.923553,798.326050 
	C357.299591,807.540710 368.690277,816.738525 379.966156,826.074707 
	C382.066101,827.813293 383.525269,827.266541 385.284210,824.851074 
	C387.902740,830.932434 391.902832,834.822021 396.917084,837.737671 
	C401.330200,840.303894 403.633881,839.247070 403.607239,834.136963 
	C403.496002,812.811768 404.006165,791.488159 403.279114,770.155640 
	C403.045929,763.314575 398.229523,762.723145 394.058624,760.839783 
	C390.500916,759.233215 389.089325,762.284363 387.353333,764.466919 
	C387.094666,764.792114 386.523560,764.868896 386.000854,765.103821 
	C385.673798,764.640198 385.188263,764.268127 385.165100,763.869202 
	C384.972260,760.547852 384.617462,757.208069 384.797852,753.900391 
	C384.995270,750.280701 383.498688,748.096802 380.545563,746.154541 
	C357.289703,730.859314 336.466583,712.827271 319.064056,690.989136 
	C318.082245,689.757141 317.300079,688.080261 315.083679,688.123596 
	C310.856140,692.566223 308.279785,698.227661 304.510254,703.956116 
M269.715393,546.500000 
	C269.690308,523.176086 269.672180,499.852112 269.631561,476.528168 
	C269.626343,473.531036 269.659821,470.525848 267.518188,468.010712 
	C264.836151,464.860840 261.810944,462.842468 257.499542,464.548431 
	C252.011124,466.720093 245.931625,474.046997 246.616669,478.155518 
	C247.693970,484.616394 246.424698,490.768250 244.710297,496.879028 
	C244.115479,498.999176 243.520508,501.383942 240.964874,502.238251 
	C236.221848,495.510620 236.652222,476.836426 241.506744,469.028046 
	C247.069626,460.080292 255.580185,456.189301 265.598877,454.889618 
	C267.668976,454.621033 269.668671,454.555145 269.662994,451.680176 
	C269.640930,440.518585 269.702667,429.356628 269.632294,418.195435 
	C269.611664,414.924500 267.879883,413.731110 264.674408,414.779175 
	C259.679565,416.412323 255.282425,418.931030 251.631424,422.796234 
	C243.282150,431.635345 235.995621,441.445007 227.111542,449.781250 
	C224.345062,452.377106 223.259308,455.192413 223.276611,459.005432 
	C223.408234,487.993225 223.397888,516.982056 223.287979,545.970032 
	C223.273209,549.859680 224.341461,553.114380 226.614639,556.154785 
	C233.211182,564.977661 240.523087,573.158264 248.625961,580.613403 
	C252.639587,584.306152 257.489044,586.502991 262.805481,587.594116 
	C268.386475,588.739441 269.757629,587.640442 269.769379,581.985901 
	C269.793274,570.490662 269.738220,558.995300 269.715393,546.500000 
M536.278503,305.658905 
	C534.650696,306.799835 533.082581,308.042175 531.375549,309.048645 
	C530.080444,309.812225 529.297424,310.662384 529.603394,312.231262 
	C529.952515,314.021454 531.384216,313.952637 532.709961,314.039185 
	C545.519409,314.875732 558.348145,314.778015 571.166016,314.528351 
	C575.498901,314.443909 579.671570,312.914246 583.376709,310.525146 
	C592.294067,304.775085 593.835876,293.081726 586.666199,285.924164 
	C586.727966,284.577698 587.741882,283.916687 588.682129,283.254608 
	C590.171570,282.205841 591.152283,280.877106 590.582153,279.033081 
	C589.911987,276.865692 587.912476,277.383545 586.346985,277.382202 
	C549.367615,277.350189 512.387878,277.274384 475.409027,277.411041 
	C465.869049,277.446289 457.940338,286.157867 457.974884,295.811493 
	C458.009064,305.365417 466.041870,313.984711 475.245667,314.660278 
	C493.588928,316.006622 511.069275,313.571381 527.106079,303.812805 
	C529.701050,302.233734 531.125793,301.156769 529.996460,297.658661 
	C528.424744,292.790710 531.104797,289.178802 535.780029,288.701996 
	C541.141296,288.155212 542.978699,289.932190 545.210754,298.499390 
	C546.293457,302.655060 542.387207,302.641754 540.125183,303.902802 
	C539.111328,304.467987 537.999146,304.856903 536.278503,305.658905 
M813.120117,479.962799 
	C813.119080,503.949371 813.136414,527.935974 813.086426,551.922424 
	C813.081787,554.151489 813.386841,556.630615 811.007446,558.262451 
	C809.106506,557.862305 808.579529,556.059509 807.448486,554.940247 
	C805.145569,552.661011 802.411499,551.415466 799.279419,552.548889 
	C785.100098,557.680420 778.593628,564.474365 780.575745,579.985291 
	C781.294128,585.607666 785.069397,588.035828 790.443909,586.128052 
	C795.019104,584.504089 799.249207,582.288269 802.740601,578.722961 
	C805.659485,575.742249 807.544678,571.080444 810.525757,569.335693 
	C815.541870,566.399902 818.553162,562.112854 821.956787,558.037598 
	C824.462158,555.037781 826.680115,551.617188 826.675842,547.299316 
	C826.645996,517.148254 826.668823,486.997223 826.666931,456.846161 
	C826.666809,455.185913 826.700684,453.563904 825.223755,452.282837 
	C815.625671,443.957916 808.018555,433.750580 799.225708,424.659760 
	C795.820007,421.138641 792.079468,418.162689 787.589600,416.202118 
	C782.518494,413.987701 780.399231,415.301575 780.346985,420.835388 
	C780.258850,430.163116 780.487793,439.496887 780.232910,448.818542 
	C780.121460,452.895416 781.150513,454.543854 785.578674,455.083160 
	C799.649963,456.796936 810.057495,466.220032 813.120117,479.962799 
M409.057068,271.563263 
	C409.246643,283.675720 403.984711,293.157135 393.465729,298.551056 
	C385.990936,302.384003 378.394897,305.323425 374.230072,313.289490 
	C373.347046,314.978485 371.027832,316.148590 371.838837,318.390381 
	C372.660461,320.661407 375.066986,321.117218 377.144592,321.628479 
	C379.119324,322.114441 381.075928,321.551788 383.047363,321.141571 
	C393.132629,319.042908 403.205383,316.855804 413.346130,315.058807 
	C426.893585,312.658173 426.918701,312.799988 426.949890,298.882935 
	C426.950653,298.550262 426.944336,298.217346 426.953735,297.884918 
	C427.338928,284.271759 425.970123,270.628571 427.642487,257.038269 
	C427.924683,254.744812 427.140839,253.177307 424.869080,252.411392 
	C421.967438,251.433136 419.237793,250.553802 416.602417,253.296967 
	C411.904968,258.186584 409.024231,263.761169 409.057068,271.563263 
M654.669067,783.500061 
	C654.661560,776.336487 654.680481,769.172791 654.627747,762.009521 
	C654.614746,760.244629 655.026123,757.799072 652.558594,757.589722 
	C650.008362,757.373352 647.617737,758.549988 646.591370,761.186768 
	C646.189453,762.219299 646.327393,763.486572 646.326538,764.647034 
	C646.309082,788.469971 646.298340,812.292908 646.324402,836.115845 
	C646.325928,837.537354 645.850708,839.156250 647.527283,840.441467 
	C652.242371,839.113342 654.866211,836.569946 654.765747,830.978149 
	C654.487427,815.489868 654.668579,799.993347 654.669067,783.500061 
z" />
	<path fill="#ffffff" opacity="1.000000" stroke="none" d="
M531.000000,389.968353 
	C574.980957,389.963043 618.466125,390.320435 661.941406,389.824127 
	C689.228821,389.512634 713.245605,406.829407 716.920837,436.378326 
	C717.186890,438.517090 717.256775,440.692078 717.257080,442.850250 
	C717.262329,474.503174 717.546021,506.160065 717.136230,537.807861 
	C716.746643,567.896240 694.539917,587.607483 668.770691,587.528870 
	C571.668091,587.232483 474.563904,587.478271 377.460785,587.277893 
	C353.437195,587.228333 332.806335,565.834961 332.643982,541.783936 
	C332.464142,515.137634 332.190704,488.491425 332.173676,461.845032 
	C332.167511,452.200836 331.651062,442.353333 333.333435,432.950378 
	C338.115936,406.220154 358.158661,390.197144 386.062927,390.044434 
	C419.547363,389.861145 453.033661,390.014313 486.519135,390.011780 
	C501.179413,390.010681 515.839722,389.984711 531.000000,389.968353 
M589.285706,520.219788 
	C602.230469,537.337341 619.138245,545.109436 640.626221,541.752930 
	C667.140076,537.611267 685.764954,514.432800 684.616577,487.188538 
	C683.579102,462.574158 661.739319,440.070221 636.595276,438.450073 
	C615.140015,437.067596 598.083923,445.522980 587.174622,464.187744 
	C576.330078,482.741882 576.825134,501.502472 589.285706,520.219788 
M397.793762,441.291138 
	C371.633545,451.162109 360.232544,475.773346 363.771210,497.826050 
	C368.670258,528.356384 394.592468,546.561279 425.172058,541.550842 
	C451.087799,537.304565 470.956207,512.456299 467.315857,484.749390 
	C462.847992,450.744171 431.378845,431.171692 397.793762,441.291138 
M500.940247,445.363892 
	C501.683563,446.847900 502.268188,448.440826 503.198761,449.796295 
	C506.516052,454.628296 512.677124,456.797760 517.613770,455.011078 
	C523.353027,452.933899 527.140198,447.433289 526.854797,441.589386 
	C526.514709,434.627747 519.524048,427.965607 513.020325,428.405182 
	C505.251099,428.930267 499.839081,436.028107 500.940247,445.363892 
M516.704468,549.508728 
	C524.511963,546.277771 527.643066,541.531982 526.675598,534.395447 
	C525.950500,529.046753 520.836670,523.999390 515.416138,523.272095 
	C510.138153,522.563843 505.943573,524.476868 502.943359,528.764404 
	C499.965363,533.020203 499.297577,537.589233 501.984741,542.303711 
	C505.061768,547.702209 509.516449,550.533447 516.704468,549.508728 
z" />
	<path fill="#ffffff" opacity="1.000000" stroke="none" d="
M565.358765,632.349548 
	C569.635254,629.046326 572.576416,624.969421 575.920105,621.266479 
	C579.591003,617.201233 583.866150,614.591736 589.617249,616.666504 
	C595.501892,618.789368 598.136292,623.284363 598.475037,629.287415 
	C598.946411,637.642578 595.663940,644.982727 591.510803,651.820251 
	C578.161621,673.797852 558.537842,686.061218 532.910889,688.436035 
	C502.775085,691.228638 478.466339,680.773193 460.623932,656.064148 
	C455.786896,649.365540 452.550110,641.936768 451.061768,633.761902 
	C450.273315,629.431152 451.210266,625.444336 453.385986,621.778381 
	C457.175568,615.393311 464.765930,614.009216 470.513092,618.672058 
	C472.566223,620.337708 474.404846,622.324463 476.101654,624.364075 
	C498.075195,650.776733 539.929993,653.804688 565.358765,632.349548 
z" />
	<path fill="#ffffff" opacity="1.000000" stroke="none" d="
M481.318420,864.895325 
	C482.755371,852.506042 491.094360,846.244385 501.356964,849.442688 
	C508.845306,851.776489 513.241211,858.791504 512.266663,866.852844 
	C511.391998,874.088013 504.702087,880.109070 497.254395,880.364014 
	C489.602234,880.626038 483.346466,875.566772 481.688843,867.755188 
	C481.516876,866.944824 481.449158,866.112366 481.318420,864.895325 
z" />
	<path fill="#ffffff" opacity="1.000000" stroke="none" d="
M558.628174,288.593597 
	C563.100098,287.819580 566.264648,289.139404 567.877686,293.071991 
	C569.016235,295.847809 568.054016,298.495270 565.835327,300.225677 
	C560.538330,304.356842 555.964050,300.675751 550.494812,298.486816 
	C554.450745,295.794952 553.232361,290.021118 558.628174,288.593597 
z" />
	<path fill="#ffffff" opacity="1.000000" stroke="none" d="
M506.070557,292.541931 
	C509.279816,288.392700 514.405334,287.328674 517.427612,289.959442 
	C519.769958,291.998352 520.609192,294.646698 519.418274,297.598358 
	C518.176208,300.676758 515.757507,302.402313 512.408203,302.079315 
	C509.235931,301.773438 506.670990,300.212158 505.861084,296.878143 
	C505.560547,295.640961 505.876251,294.254059 506.070557,292.541931 
z" />
	<path fill="#ffffff" opacity="1.000000" stroke="none" d="
M486.398529,288.748138 
	C490.055298,288.496338 493.249512,288.425446 494.820343,292.104614 
	C495.941406,294.730438 495.985962,297.343262 493.994293,299.555359 
	C491.985779,301.786133 489.437714,303.008118 486.410400,301.902313 
	C483.810028,300.952515 481.734894,299.372803 481.580475,296.226562 
	C481.410614,292.765900 482.358765,289.994232 486.398529,288.748138 
z" />
	<path fill="#ffffff" opacity="1.000000" stroke="none" d="
M656.467773,513.450195 
	C646.554321,522.880066 635.258606,526.610291 622.368591,522.528137 
	C609.607422,518.486755 601.838135,509.463867 599.212036,496.239105 
	C598.252991,491.409912 599.205566,486.845978 601.609375,481.212738 
	C606.862732,490.628387 613.312744,495.946198 623.464050,491.046051 
	C629.470886,488.146423 632.443604,482.351868 631.641174,476.377350 
	C630.670776,469.152985 625.436096,464.888336 614.927917,462.761475 
	C621.860413,454.947449 642.196716,454.986023 653.557251,464.714325 
	C668.108887,477.175262 669.667969,498.647797 656.467773,513.450195 
z" />
	<path fill="#ffffff" opacity="1.000000" stroke="none" d="
M444.236633,473.960999 
	C452.190765,488.700836 449.256592,504.834503 436.854309,515.896973 
	C426.038757,525.544067 408.642761,526.602539 396.596832,518.346375 
	C384.439362,510.013824 379.029327,495.775360 383.780670,483.189148 
	C389.547028,491.266907 396.502838,495.926453 406.165802,490.630920 
	C411.517273,487.698212 413.883057,481.557648 412.783600,475.103180 
	C411.681030,468.630493 407.322388,465.189423 397.129425,462.744354 
	C405.493652,454.081543 432.309418,453.345093 444.236633,473.960999 
z" />
</svg>